<?xml version="1.0" encoding="UTF-8"?><svg id="Lag_1" xmlns="http://www.w3.org/2000/svg" xmlns:xlink="http://www.w3.org/1999/xlink" viewBox="0 0 231.33 529.99"><defs><style>.cls-1{clip-path:url(#clippath-20);}.cls-2{clip-path:url(#clippath-11);}.cls-3{clip-path:url(#clippath-16);}.cls-4{fill:#fff;}.cls-5{clip-path:url(#clippath-32);}.cls-6{clip-path:url(#clippath-2);}.cls-7{clip-path:url(#clippath-13);}.cls-8{clip-path:url(#clippath-25);}.cls-9{clip-path:url(#clippath-15);}.cls-10{clip-path:url(#clippath-6);}.cls-11{clip-path:url(#clippath-26);}.cls-12{clip-path:url(#clippath-7);}.cls-13{clip-path:url(#clippath-21);}.cls-14{clip-path:url(#clippath-1);}.cls-15{clip-path:url(#clippath-4);}.cls-16{clip-path:url(#clippath-27);}.cls-17{clip-path:url(#clippath-12);}.cls-18{opacity:.22;}.cls-19{clip-path:url(#clippath-24);}.cls-20{clip-path:url(#clippath-30);}.cls-21{clip-path:url(#clippath-22);}.cls-22{clip-path:url(#clippath-9);}.cls-23{clip-path:url(#clippath);}.cls-24{fill:none;}.cls-25{clip-path:url(#clippath-19);}.cls-26{clip-path:url(#clippath-31);}.cls-27{clip-path:url(#clippath-3);}.cls-28{clip-path:url(#clippath-8);}.cls-29{clip-path:url(#clippath-29);}.cls-30{clip-path:url(#clippath-18);}.cls-31{clip-path:url(#clippath-14);}.cls-32{clip-path:url(#clippath-17);}.cls-33{clip-path:url(#clippath-5);}.cls-34{opacity:.15;}.cls-35{clip-path:url(#clippath-10);}.cls-36{clip-path:url(#clippath-23);}.cls-37{clip-path:url(#clippath-28);}</style><clipPath id="clippath"><rect class="cls-24" x="0" y="0" width="231.33" height="529.99"/></clipPath><clipPath id="clippath-1"><rect class="cls-24" x="0" y="0" width="231.33" height="529.99"/></clipPath><clipPath id="clippath-2"><rect class="cls-24" x="0" y="0" width="231.33" height="529.99"/></clipPath><clipPath id="clippath-3"><rect class="cls-24" x="68.81" y="254.91" width="25" height="271.07"/></clipPath><clipPath id="clippath-4"><rect class="cls-24" x="78.24" y="221.62" width="75.43" height="60.3"/></clipPath><clipPath id="clippath-5"><rect class="cls-24" x="73.19" y="51.23" width="85.95" height="213.6"/></clipPath><clipPath id="clippath-6"><rect class="cls-24" x="69.12" y="504.93" width="6.37" height="23.18"/></clipPath><clipPath id="clippath-7"><rect class="cls-24" x="62.52" y="518.92" width="6.09" height="6.78"/></clipPath><clipPath id="clippath-8"><rect class="cls-24" x="62.26" y="513.03" width="5.86" height="5.92"/></clipPath><clipPath id="clippath-9"><rect class="cls-24" x="69.1" y="505.36" width="3.24" height="8.1"/></clipPath><clipPath id="clippath-10"><rect class="cls-24" x="66.65" y="508.03" width="2.78" height="5.26"/></clipPath><clipPath id="clippath-11"><rect class="cls-24" x="67.23" y="514.08" width="3.08" height="5.07"/></clipPath><clipPath id="clippath-12"><rect class="cls-24" x="67.79" y="504.62" width="2.84" height="2.99"/></clipPath><clipPath id="clippath-13"><rect class="cls-24" x="60.87" y="518.57" width="2.16" height="3.86"/></clipPath><clipPath id="clippath-14"><rect class="cls-24" x="62.67" y="84.36" width="45.05" height="17.52"/></clipPath><clipPath id="clippath-15"><rect class="cls-24" x="45.92" y="101.05" width="29.61" height="91.6"/></clipPath><clipPath id="clippath-16"><rect class="cls-24" x="8.14" y="191.16" width="54.08" height="99.4"/></clipPath><clipPath id="clippath-17"><rect class="cls-24" x="156.72" y="101.05" width="29.61" height="91.57"/></clipPath><clipPath id="clippath-18"><rect class="cls-24" x="0" y="0" width="231.33" height="529.99"/></clipPath><clipPath id="clippath-19"><rect class="cls-24" x="170.05" y="191.15" width="54.07" height="99.4"/></clipPath><clipPath id="clippath-20"><rect class="cls-24" x="137.94" y="254.91" width="25" height="271.07"/></clipPath><clipPath id="clippath-21"><rect class="cls-24" x="156.26" y="504.93" width="6.37" height="23.18"/></clipPath><clipPath id="clippath-22"><rect class="cls-24" x="163.13" y="518.92" width="6.09" height="6.78"/></clipPath><clipPath id="clippath-23"><rect class="cls-24" x="163.62" y="513.03" width="5.86" height="5.92"/></clipPath><clipPath id="clippath-24"><rect class="cls-24" x="159.41" y="505.36" width="3.24" height="8.1"/></clipPath><clipPath id="clippath-25"><rect class="cls-24" x="162.31" y="508.03" width="2.78" height="5.26"/></clipPath><clipPath id="clippath-26"><rect class="cls-24" x="161.44" y="514.08" width="3.08" height="5.07"/></clipPath><clipPath id="clippath-27"><rect class="cls-24" x="161.12" y="504.62" width="2.84" height="2.99"/></clipPath><clipPath id="clippath-28"><rect class="cls-24" x="168.72" y="518.57" width="2.16" height="3.86"/></clipPath><clipPath id="clippath-29"><rect class="cls-24" x="121.52" y="152.77" width=".01" height=".03"/></clipPath><clipPath id="clippath-30"><rect class="cls-24" x="131.73" y="101.78" width=".21" height="1.3"/></clipPath><clipPath id="clippath-31"><rect class="cls-24" x="124.29" y="84.36" width="45.06" height="17.52"/></clipPath><clipPath id="clippath-32"><rect class="cls-24" x="93.66" y="2.2" width="44.04" height="57.61"/></clipPath></defs><g class="cls-23"><g id="Group_124"><g id="Group_79"><g class="cls-14"><g id="Group_78"><g id="Group_30" class="cls-34"><g id="Group_29"><g class="cls-6"><g id="Group_28"><path id="Path_21" class="cls-4" d="m231.32,264.47h0c.02.13.01.26-.01.38-.06.46-.32.88-.71,1.13-.77.37-1.66.36-2.42-.03-3.3-1.46-7.16-1.69-9.88-5.24-.07-.07-.14-.17-.21-.25-.04.14-.08.29-.14.43-.18.53-.32,1.08-.43,1.63-.39,1.73-.39,3.53-.03,5.27.58,2.31,1.47,4.54,2.65,6.62.06.12.12.24.18.36,2.17,4.21,4.51,8.35,6.48,12.65,2.35,5.14,2.33,8.14-2.68,8.82-.46.06-.96.1-1.48.11-.88.01-5.35-1.74-6.94-1.36-.95.35-1.99.4-2.97.14-.41-.15-.79-.38-1.12-.68l-.1-.14c-1.62-1.95-3.09-4.01-4.42-6.17l-8.46-11.84-.08-.14-.08-.11c-4.39-6.31-8.97-13.14-11.54-18.59-.11-.27-.22-.53-.35-.81-.38-.89-.85-1.74-1.25-2.62-9.1-19.9-18.6-39.65-24.13-61.01-1.28-4.92-2.33-9.93-3.15-15.03-.04,15.17.5,30.25,2.72,45.07.6,4.04,1.43,8.07,2.35,12.08.89,3.9,1.85,7.8,2.77,11.7,1.95,7.48,3.26,15.11,3.91,22.81,1.43,22.26-.06,44.71-.33,67.08-.21,16.04-.72,32.06-.61,48.1.06,10.28,2.12,20.65,1.31,30.83-1.45,18.03-4.57,35.95-6.66,53.95-1.69,14.63-.86,29.12,5.48,42.73,2.12,4.54,8.97,8.65,4.65,13.65-2.7,3.12-9.31,3.62-14.25,3.9-12.69.75-14.92-2.51-14.27-15.59.79-16.18-2.37-32.43.71-48.62.29-1.62-.52-3.45-.86-5.17-4.46-22.15-11.31-44-8.26-67.1.32-2.4-.68-4.96-1.14-7.43-4.1-21.96-8.5-43.86-12.22-65.87-1.95-11.56-2.72-23.32-4.07-35.36-1.31.06-1.75.08-3.62.17-1.87-.08-2.31-.11-3.62-.17-1.35,12.04-2.12,23.8-4.07,35.36-3.72,22.01-8.12,43.92-12.22,65.87-.46,2.47-1.46,5.03-1.14,7.43,3.05,23.1-3.8,44.95-8.26,67.1-.35,1.71-1.16,3.55-.86,5.17,3.08,16.19-.08,32.45.71,48.62.65,13.08-1.57,16.34-14.27,15.59-4.95-.28-11.55-.78-14.25-3.9-4.32-5,2.54-9.11,4.65-13.65,6.34-13.61,7.16-28.1,5.48-42.73-2.09-18-5.21-35.92-6.66-53.95-.81-10.18,1.25-20.55,1.31-30.83.11-16.04-.4-32.06-.61-48.1-.28-22.38-1.77-44.82-.33-67.08.65-7.7,1.96-15.33,3.92-22.81.92-3.9,1.88-7.8,2.77-11.7.92-4.01,1.76-8.04,2.36-12.08,2.21-14.82,2.76-29.9,2.72-45.07-.81,5.11-1.86,10.12-3.15,15.03-5.53,21.36-15.03,41.12-24.13,61.01-.4.88-.88,1.73-1.25,2.62-.12.28-.24.54-.35.81-2.56,5.45-7.15,12.27-11.54,18.59l-.08.11-.08.14-8.46,11.84c-1.32,2.16-2.8,4.22-4.42,6.17l-.1.14c-.32.3-.7.53-1.11.68-.98.26-2.02.21-2.97-.14-1.59-.38-6.06,1.38-6.94,1.36-.52-.01-1.02-.06-1.48-.11-5-.68-5.03-3.68-2.68-8.82,1.96-4.3,4.31-8.44,6.48-12.65.06-.12.12-.24.18-.36,1.18-2.08,2.07-4.3,2.65-6.62.37-1.74.36-3.53-.03-5.27-.11-.55-.25-1.1-.43-1.63-.06-.14-.1-.29-.14-.43-.07.08-.14.18-.21.25-2.72,3.55-6.58,3.78-9.88,5.24-.76.39-1.66.4-2.42.03-.39-.25-.66-.66-.71-1.13-.03-.12-.03-.24-.01-.36H.01c.11-.86.55-1.64,1.21-2.17,7.27-4.64,11.08-14.29,21.29-14.8,1.69,0,3.31-.63,4.56-1.77l.18-.18c.1-.08.18-.17.28-.26.02-.03.04-.06.07-.08,1.02-1.04,1.78-2.29,2.24-3.66,3.37-12.32,5.71-24.9,8.53-37.37,1.41-6.2,2.2-12.71,4.4-18.57.22-.6.46-1.18.72-1.77,8.15-18.59,10.3-37.74,7.59-57.64-.07-.52-.14-1.03-.18-1.53h-.01c-1.89-16.93,3.78-25.41,20.35-31.39,4.97-1.79,9.84-3.83,14.6-6.12,1.56-.75,3.04-1.65,4.42-2.69.04-.04.08-.08.12-.11.73-.55,1.43-1.16,2.08-1.81.1-.08.15-.12.15-.12.52-.52,1-1.04,1.48-1.59,5.03-6.01,6.87-14.07,4.95-21.67h-.01c-.9-3.58-2.54-6.92-4.81-9.81-3.58-4.61-5.81-12.85-2.16-17,.6-.7-.2-3.32-.33-5.06-.79-9.43-.35-18.67,9.35-23.59,9.1-4.96,20.1-4.96,29.2,0,9.7,4.92,10.14,14.16,9.35,23.59-.14,1.74-.93,4.36-.33,5.06,3.65,4.15,1.42,12.39-2.16,17-2.27,2.89-3.91,6.23-4.81,9.79h-.01c-1.93,7.61-.09,15.67,4.95,21.68.47.54.96,1.07,1.48,1.59,0,0,.06.04.15.12.65.65,1.34,1.26,2.08,1.81.05.03.09.07.12.11,1.38,1.04,2.86,1.94,4.42,2.69,4.76,2.29,9.63,4.33,14.6,6.12,16.57,5.98,22.24,14.46,20.34,31.38h-.01c-.04.51-.11,1.03-.18,1.55-2.7,19.9-.56,39.05,7.59,57.64.26.59.5,1.17.73,1.77,2.2,5.87,3,12.37,4.4,18.57,2.81,12.47,5.15,25.05,8.53,37.37.46,1.38,1.23,2.63,2.24,3.66.03.02.05.05.07.08.1.1.18.18.28.26l.18.18c1.25,1.13,2.87,1.76,4.56,1.77,10.21.5,14.02,10.16,21.29,14.8.67.54,1.1,1.31,1.21,2.16"/></g></g></g></g><g id="Group_35" class="cls-18"><g id="Group_34"><g class="cls-27"><g id="Group_33"><path id="Path_22" class="cls-4" d="m93.78,266.29c-.07,1.5-.96,1.98-2.48,1.62-1.14-.29-2.27-.64-3.43-.88-1.56-.53-3.27.22-3.93,1.73-1.34,1.85-1.72,4.23-1.02,6.4.54,1.85.46,3.82-.22,5.62-.59,2.28-.85,4.64-.79,6.99.03,9.25.32,18.52.29,27.77-.03,15.41,1.31,30.79,4.03,45.96.4,2.26.96,4.49,1.46,6.74.47,2.19,1.41,4.25,2.77,6.03,2.3,2.98,2.47,6.24.99,9.67-.74,1.7-1.41,3.4-3.37,4.42,1.24.12,2.08.2,3.01.29.3,1.89-.08,3.83-1.07,5.46-2.69,3.92-3.61,8.4-4.74,12.86-1.23,4.81-1.39,9.71-1.62,14.61-.35,7.96-.54,15.91-.84,23.85-.28,7.27-.56,14.55-.93,21.8-.16,5.97.44,11.93,1.77,17.75.52,2.55.97,5.13,1.27,7.72.07,1.11-.08,2.22-.43,3.27-.57,1.88-1.37,2.03-2.79.74-.35-.32-.71-.63-1.07-.95.29,1.3.57,2.51.79,3.75,0,.03.01.07.01.1,1.18-.72,2.19-.2,2.65,1.42.24.89.36,1.8.35,2.72-.06,1.41-.79,1.92-2.2,1.67-.45-.08-.86-.32-1.32-.38-.61-.07-1.22-.1-1.83-.1,1.98.31,2.8,1.62,3.02,3.45.07.63.21,1.25-.56,1.64-.2.1-.25.57-.28.88-.08,1.02-.1,2.06-.21,3.08-.16.86.07,1.74.63,2.41.68.81,1.7,1.63.25,2.66.15,1.09-.52,1.56-1.57,1.77.6,1.21.7,2.26-.39,3.15-.26.22-.28.74-.46,1.1-.35.68-1.13,1.03-1.87.84-.46-.05-.8-.46-.76-.92,0-.08.03-.16.06-.23.11-.37.25-.73.42-1.07-1.21-1.67-1.18-1.84.5-2.8-.06-.4-.11-.78-.15-1.16-.03-.21.04-.58-.04-.63-1.23-.53-.78-1.55-.64-2.38.16-1.15-.07-2.32-.65-3.32-1.21-2.3-.58-3.66,1.98-4.25.54-.12,1.09-.18,1.83-.29-1.55-1.06-2.63-.08-3.76.42-1.45-2.52-.39-4.26,2.65-4.35-.73-.45-1.62-.59-2.45-.39-.92.18-1.87-.09-2.56-.72-1.38,1.41-3.15.28-4.65.78.26-1.92,1.17-2.54,2.94-2.02.45.12.89.24,1.39.38,1.05-.88,2.35-1.4,3.72-1.49.48-.04.95-.13,1.41-.28-.4-.32-.77-.67-1.17-.99-1.06-.44-2.28-.14-3.01.74-.26.14-.53.31-.82.45-.81.4-1.32.07-1.53-.74-.15-.53-.19-1.09-.11-1.64.21-1.16.54-2.29.85-3.54-1.45-.21-1.87-1.3-1.67-2.66.1-1.11.39-2.2.84-3.22,1.88-3.71,2.09-7.65,1.8-11.65-.31-4.4-.88-8.78-1.16-13.18-.33-5.21-.5-10.44-.74-15.65-.28-5.96-.7-11.93-.79-17.88-.06-3.85.31-7.7.53-11.55.32-5.46.78-10.91,1-16.39,0-1.67-.25-3.33-.71-4.93-.82-3.44-1.8-6.84-2.7-10.27-.08-.43-.13-.86-.17-1.3.82-.1,1.56-.18,2.31-.28l4.04.74c.64.26,1.36.21,1.97-.12.63-.58.15-1.41-.17-2.08-.29-.6-.68-1.17-1-1.77-.51-.85-.96-1.73-1.37-2.63-.57-1.19-.66-2.56-.26-3.82,1.22-3.16,4.77-4.73,7.92-3.51.65.25,1.25.61,1.78,1.06.48.47.85,1.05,1.07,1.69,1.02,2.48.31,4.72-.93,6.92-.49.85-.81,1.79-.95,2.76-.18,1.66.46,2.47,2.09,2.59-.4-.26-.78-.54-1.13-.86-1-1.06-.99-1.78,0-2.88.5-.56,1.03-1.09,1.53-1.63,1.16-1.18,1.67-2.85,1.36-4.47-.85-4.42-3.3-6.35-7.48-6.6-4.01-.25-7.26,4.14-6.06,7.45.58,1.56,1.2,3.12,1.81,4.68.24.61.5,1.2.79,1.87-.6.27-1,.46-1.41.65l-3.96-1.09c-3.46-4.11-3.23-10.17.53-14,2.48-2.24,3.8-5.49,3.6-8.82-.36-8.75-.68-17.5-1.03-26.25-.31-7.33-.67-14.64-.92-21.97-.25-7.52-.4-15.03-.6-22.54-.06-2.42-.03-4.85-.2-7.27-.1-1.47-.35-2.94-.74-4.36-.4-1.49-1.09-2.91-1.55-4.39-1.19-3.5-1.28-7.28-.26-10.84.81-2.7,2.35-4.79,5.32-5.42,2.54-.53,3.61-.1,5.02,2.03,2.08.06,3.82-1.57,3.89-3.65,0-.04,0-.08,0-.12.07-2.52,1.1-3.33,3.58-2.81,1.66.35,3.11,1.37,4,2.81,1.54,2.52,2.2,5.48,1.88,8.41"/></g></g></g></g><g id="Group_38" class="cls-18"><g id="Group_37"><g class="cls-15"><g id="Group_36"><path id="Path_23" class="cls-4" d="m149.18,224.11c-4.03-2.51-8.94-3.18-13.5-1.84-3.47.88-5.13,4.11-4.4,7.7.06.28.07.57.11.85.08.24.17.47.26.71.3.62.55,1.26.74,1.92.6,2.87,1.1,5.77,1.7,8.65.84,3.73-.08,7.63-2.51,10.59-.59.85-1.26,1.64-2.01,2.37-2.45,2.19-4.99,4.29-7.48,6.42-1.14.98-2.33,1.9-3.39,2.95-.54.56-.99,1.09-1.85,1.03-1.2-.06-2.42.1-3.44-.77-2.09-1.74-4.14-3.5-6.27-5.17-3.03-2.23-5.65-4.96-7.75-8.08-1.45-2.05-2.11-4.56-1.87-7.06.67-4.57,1.27-9.17,2.84-13.51,1.33-3.36-.32-7.16-3.69-8.49-.41-.16-.83-.28-1.26-.36-3.7-.78-7.55-.38-11.02,1.13-3.87,1.57-6.34,5.41-6.16,9.59-.04,1.86.32,3.7,1.04,5.41,1.07,2.55,2.31,5.03,3.41,7.57,1.11,2.5,2.93,4.62,5.24,6.09.71.47,1.46.92,2.21,1.34,2.5,1.34,4.13,3.88,4.29,6.72.09.74.14,1.49.15,2.24-.07,4.05.54,8.08,1.81,11.93.57,1.81,1.38,3.54,2.4,5.14,1.67,2.71,5.2,3.58,7.94,1.96.99-.47,1.88-1.13,2.62-1.94,1.15-1.44,2.21-2.93,3.2-4.49.32-.53.62-1.07.88-1.63h4.93c.67,1.17,1.27,2.35,1.98,3.47,1.05,1.81,2.54,3.33,4.33,4.4,2.87,1.82,6.67.97,8.5-1.9.01-.02.02-.03.03-.05.65-.88,1.16-1.86,1.52-2.9.86-2.75,1.57-5.54,2.1-8.37.45-2.72.46-5.52.7-8.28.14-2.23,1.31-4.27,3.16-5.52.99-.7,1.99-1.38,3.02-2.02,2.28-1.39,4.11-3.41,5.25-5.82.71-1.52,1.56-2.98,2.2-4.51.86-1.95,1.57-3.96,2.13-6.01,1.14-4.72-.45-9.07-4.14-11.45m-43.98,50.97c-.95.5-1.74.5-2.26-.42-1.36-2.37-2.56-4.85-3.79-7.3-.1-.28-.14-.58-.12-.88.01-2.13.96-3.02,2.94-2.73,2.61.36,4.86,1.28,5.92,4.03.89,2.76-.22,5.78-2.69,7.3m27.1-6.55c-.78,1.84-1.81,3.6-2.76,5.38-.14.25-.3.49-.49.71-.5.77-1.54.99-2.31.49-.04-.03-.09-.06-.13-.09-1.8-1.21-2.93-3.2-3.04-5.36.08-2.13,1.84-4.92,4.01-5.32,1-.26,2.01-.46,3.04-.61.97-.18,1.9.45,2.09,1.42.02.12.03.25.03.38.08,1.02-.08,2.05-.45,3.01"/></g></g></g></g><g id="Group_41" class="cls-18"><g id="Group_40"><g class="cls-33"><g id="Group_39"><path id="Path_24" class="cls-4" d="m159.08,164.86c-.33-2.38-.82-4.73-1.46-7.05-.37-2.37-.59-4.77-.65-7.18-.05-.16-.08-.32-.1-.49,0-.48.05-.95.15-1.42.86-3.21.43-6.62-1.18-9.52-.36-.48-.44-1.12-.21-1.67.39-.87.35-1.86-.1-2.7-.49-1.09-1.03-2.16-1.6-3.2-.47-.91-1-1.78-1.39-2.44.89-2.54.59-5.35-.84-7.64-.58-.87-1.28-1.65-2.09-2.31.14-.78.24-1.57.29-2.37-.02-2.6-1.22-5.05-3.27-6.65-1.11-.98-2.01-2.18-2.65-3.53-1.48-2.76-3.51-4.85-6.95-4.63-.01-.43-.07-.86-.06-1.3.1-1.5-.58-2.94-1.8-3.82-.01-.01-.03-.03-.04-.03-.47-.41-.97-.77-1.5-1.1-3.38-2.07-7.11-3.5-11.01-4.21-.38-.07-.76-.11-1.14-.11h-.01c-.09,0-.18,0-.26.01,1.1-.92,1.24-1.73,1.14-3.75-.69.22-1.4.4-2.12.53-.39.04-.92.18-1.02-.93-.04-.38.38-.97.65-1.62-.15-1.85-.57-3.9-.21-5.5.83-.73,1.61-1.51,2.34-2.34.55-.83.62-1.88.2-2.77-.91.28-1.81.57-2.7.85-.54-2.42-.54-2.47.24-3.65l-.04-1c2.17-.1,4.18-1.19,5.43-2.97,1.27-1.77,2.52-3.57,3.78-5.35.44-.67.66-1.47.61-2.27-.04-1.16-.04-2.31-.07-3.48-.11-1.79.19-3.58.86-5.24.1-.21,0-.52-.01-.77-.29-.03-.58,0-.85.08-.71.35-1.21,1.03-1.34,1.81-.21,1.35-.36,2.7-.58,4.05-.18,1.69-.91,3.28-2.08,4.53-.18.17-.38.33-.58.47.07-.33.11-.5.12-.65.03-.42.02-.84-.03-1.25-.07-.26-.25-.48-.5-.58-.21-.06-.49.15-.72.29-.12.07-.17.26-.29.33s-.35.18-.43.12c-.67-.47-1.17-.04-1.7.28-.19.1-.4.16-.61.18-.36.06-.72.08-1.09.15-.24.04-.46.15-.71.18-.4.03-.84-.06-1.11.39-.04.07-.24.08-.35.08-1-.04-1.99-.12-2.98-.11-.49,0-.97.24-1.32-.29-.04-.06-.18-.06-.26-.07-.49-.12-.97-.24-1.46-.35-.18-.04-.4-.12-.54-.06-.36.14-.77.06-1.04-.21-.35-.2-.86-.43-1.17-.31-.46.18-.67.15-.95-.22-.21-.28-.52-.64-.89-.39-.27.22-.44.53-.49.88-.02.52,0,1.03.06,1.55-.2-.15-.33-.25-.46-.36-1.19-1.23-1.93-2.82-2.12-4.51-.22-1.21-.29-2.45-.47-3.66-.07-.99-.65-1.87-1.53-2.33-.25-.1-.53-.09-.77.03-.11.07-.1.47-.03.7.18.7.49,1.37.63,2.06.32,2.06.39,4.16.18,6.24-.06,1.21.31,2.39,1.06,3.34,1.04,1.38,2.03,2.82,3,4.28,1.07,1.79,2.91,2.98,4.97,3.25.26.03.54.06.81.07-.11.53.06,1.08.45,1.46.19.15.36.32.53.49.07,2.51-.01,2.7-1,2.48-.71-.15-1.42-.31-2.29-.49.1,3.79,1.04,4.74,1.94,5.8.33,1.42.68,1.63.47,2.97-.28,1.66-.25,1.78.52,2.52.32.29.45.58.29,1.49-.79-.22-1.57-.42-2.36-.65-.31-.1-.63-.53-.81.36-.17.68-.08,1.41.26,2.02.38.59.84,1.14,1.35,1.63.06.06.11.1.17.15h-.28c-.37,0-.73.05-1.09.15-2.21.49-4.38,1.12-6.49,1.91-2.03.9-3.98,1.97-5.82,3.2-.15.11-.32.22-.47.33-1.11.88-1.71,2.25-1.59,3.66,0,.42-.05.83-.12,1.24-.86-.06-1.73.05-2.55.31-2.01,1.21-3.9,2.63-4.75,5.06-.33.91-.92,1.71-1.69,2.3-2.83,2.44-4.61,5.38-3.46,9.59-.56.49-1.09,1-1.59,1.55-.29.31-.55.66-.75,1.03-1.15,1.84-1.49,4.08-.95,6.19.23.74.13,1.55-.28,2.21-.77,1.32-1.52,2.65-2.2,4-.61,1.06-.72,2.34-.29,3.48.1.46.02.94-.21,1.35-1.67,2.99-2.08,6.53-1.13,9.82.08.42.1.84.06,1.27-.14,2.08-.29,4.15-.46,6.23.02.43-.03.86-.14,1.28-.8,2.1-1.33,4.29-1.57,6.52-.31,1.74-.18,3.53.38,5.2.62,1.98.96,4.04,1.02,6.12.03,1.87.47,3.71,1.3,5.38.49.91.78,1.92.85,2.95.21,2.18.87,4.3,1.94,6.21,1.46,2.48,3.73,3.27,6.21,1.95,1.35-.75,2.57-1.71,3.61-2.84,1.24-1.42,2.41-2.9,3.5-4.45.53-.67,1.07-1.34,1.63-1.99.68-.67,1.31-1.39,1.87-2.16,3.25-5.66,6.13-11.52,8.61-17.56.72-1.81,1.62-3.54,2.69-5.17,1.03-1.52,2.21-2.93,3.4-4.35.1-.12.2-.24.29-.35.1,1.21-.03,2.43-.38,3.6-.25.95-.11,1.7.56,2.06.26.15.51.35.75.5.1,2.6-.03,2.8-1.45,2.58-1-.17-2.02-.32-3.26-.5.14,3.91,1.49,4.89,2.76,5.99.49,1.48.99,1.69.68,3.07-.39,1.71-.35,1.84.75,2.6.45.32.63.61.4,1.55-1.13-.22-2.26-.42-3.37-.67-.43-.1-.89-.54-1.16.38-.24.71-.09,1.5.39,2.08.57.64,1.22,1.21,1.94,1.69,1.07.7,1.32,1.16,1.18,2.9-.07.76-.21,1.51-.42,2.24-.25,1.02-.04,1.67.57,2.05.33.21.85.14.71,1.2-1.42.89-2.86-.6-4.43-.14.1,4.03,2.3,3.68,3.92,4.9-.1.99-.15,2.06-.33,3.08-.35,1.94-.38,1.91.75,2.81.21.15.33.54.74,1.23-1.88-.33-3.43-.61-4.88-.86-.41.9-.27,1.96.36,2.73.53.59,1.09,1.3,1.69,1.42,1.25.28,1.49,1.69,1.57,3.16.02,1.08-.09,2.15-.32,3.2-.32,1.76-.35,1.94.75,2.63.79.51.79,1.18.53,2.16-2.06-.39-4.05-.77-6.06-1.14-.49-.1-1.04-.38-1.3.6-.23.76.06,1.59.71,2.05.98.65,2,1.23,3.06,1.73.41.18.83.33,1.27.45-.53,2.67-.52,5.42.04,8.08.65,2.69,2.15,4.11,3.51,5.63-.74.6-1.53.85-1.88,1.63-.49,1.08-.9,2.2-1.23,3.34-.38-.31-.77-.63-1.16-.98s-.7-.77-1.07-1.13c-.84-.79-1.63-1.64-2.52-2.35-.59-.47-1.25-.84-1.95-1.1-.74-.35-1.62-.04-1.97.7-.02.04-.04.08-.05.12-.25.45-.41.95-.46,1.46-.11,2.07-.09,4.15.07,6.21.08,2.13,1.25,4.07,3.09,5.13.66.4,1.06,1.12,1.03,1.9,0,.81.06,1.61.18,2.41.17.84.47,1.65.88,2.4.74,1.3,1.56,2.55,2.44,3.76.42.6.97,1.08,1.62,1.42.76.31,1.34.95,1.59,1.73.63,1.9,1.23,3.8,1.81,5.73.45,1.13,1.41,1.98,2.59,2.29,1.27-.16,2.37-.95,2.94-2.09.57-1.87,1.11-3.73,1.8-5.56.2-.71.66-1.32,1.28-1.7,1.07-.46,1.93-1.29,2.42-2.34.58-.99,1.21-1.95,1.88-2.9.65-.89,1.01-1.96,1.02-3.07,0-.51.03-1.03.06-1.56-.06-1.06.52-2.06,1.48-2.54.99-.52,1.71-1.43,2.01-2.51.44-1.42.74-2.89.89-4.38.14-1.55,0-3.11-.01-4.67-.1-.24-.18-.47-.26-.71-1.27-1.42-1.96-1.55-3.54-.54-.63.4-1.22.87-1.77,1.38-.75.71-1.43,1.5-2.17,2.24l-.24.24c-.11-.35-.2-.7-.29-1.06-.4-1.55-1.13-2.33-2.16-2.45-.33-.09-.65-.21-.96-.35,3.85-3.16,4.86-7.86,3.78-13.92.43-.11.85-.25,1.25-.42.91-.46,1.79-.98,2.62-1.57.65-.43.97-1.23.81-1.99-.2-1.17-.84-.84-1.36-.73s-1.07.22-1.62.31c-1.36.24-2.73.45-4.04.67-.72-1.78.5-1.87.82-2.72-.42-2.62-.77-5.23-.03-7.76,2.79-1.45,3.34-2.34,2.87-4.65-1.41-.14-2.81.99-4.51.33.5-.61.82-.99,1.11-1.35q-.43-3.86-.17-5.23c1.11-.7,2.17-1.46,3.19-2.29.75-.75.91-1.91.4-2.84-1.52-.01-3,1.13-4.74.15.46-.65.78-1.12,1.03-1.48-.11-1.87-.22-3.64-.32-5.35,3.89-1.7,4.31-2.2,4.12-5.07-1,.23-2.01.41-3.02.54-.56.04-1.31.18-1.46-.96-.06-.4.54-1.02.93-1.67-.22-1.92-.79-4.04-.28-5.7,1.16-.75,2.27-1.56,3.34-2.42.77-.77.88-1.97.28-2.87-1.3.29-2.61.6-3.87.88-.78-2.49-.77-2.55.33-3.78-.08-1.84-.28-3.62-.21-5.39v-.24h.01c.08.08.15.17.24.26l.04.04.03.03c2.71,3.01,4.9,6.45,6.47,10.18,2.28,5.76,5,11.35,8.11,16.71.45.8.97,1.56,1.56,2.26.74.91,1.63,1.69,2.36,2.6,1.13,1.37,2.09,2.91,3.29,4.18,1.09,1.16,2.35,2.16,3.73,2.95,2.48,1.35,4.84.59,6.19-1.95.78-1.49,1.35-3.09,1.7-4.74.38-1.85.88-3.68,1.5-5.46.51-1.9.85-3.84,1.03-5.8.22-1.28.38-2.58.72-3.83.52-1.73.72-3.55.59-5.35m-4.95-23.99c1.87,2.6,1.78,4.26-.38,6.23-3.14,2.95-6.82,5.26-10.84,6.81-3.16,1.25-6.73.81-9.49-1.17-3.22-2.23-6.34-4.65-9.49-7.02-.51-.39-.93-.88-1.24-1.43-.38-.75.07-1.37.88-1.14.59.22,1.15.5,1.67.85,1.76.99,3.44,2.1,5.25,2.95,3.4,1.81,7.46,1.91,10.94.25,3.71-1.77,7.4-3.62,11.08-5.43.51-.26,1.02-.57,1.62-.89m-2.69-8.35c.21.32.39.65.53,1,.66,1.05.35,2.43-.7,3.09-.03.02-.06.04-.1.06-2.28,1.82-4.82,3.29-7.54,4.38-2.7,1.06-5.58,1.64-8.49,1.69-3.44-.33-6.81-1.14-10.03-2.4-1.1-.45-2.03-1.24-2.66-2.24-.97-1.53-.38-3,1.41-3.18,1.04-.05,2.08.02,3.11.2,1.46.2,2.88.56,4.35.74.04,0,.07.01.11.01l.91.08c.42.03.82.06,1.24.06h.32c2.29.05,4.56-.35,6.69-1.18.74-.29,1.48-.58,2.21-.86,2.12-.79,4.26-1.53,6.38-2.3,1.41-.52,1.48-.47,2.26.86m-71.06,1.07c.06-.15.13-.3.21-.45.96-2.01,1.06-2.05,3.12-1.3,1.78.65,3.57,1.28,5.35,1.94h.01c1.32.47,2.66.96,3.99,1.45,1.73.61,3.56.87,5.39.77.39,0,.79-.03,1.2-.06.31-.01.61-.04.93-.08s.67-.06,1.02-.1c1.36-.15,2.69-.54,4.03-.72.98-.16,1.98-.2,2.97-.11,1.01,0,1.83.83,1.83,1.84,0,.47-.18.92-.5,1.26-.6.88-1.4,1.6-2.34,2.1-3.32,1.45-6.85,2.33-10.46,2.62-5.85-.26-11.46-2.41-15.98-6.14-1.13-.89-1.28-1.63-.75-3.01m-2.23,7.38c3.54,1.78,6.95,3.58,10.42,5.24,1.62.75,3.3,1.37,5.02,1.87,2.2.54,4.52.39,6.63-.45,2.39-.86,4.65-2.04,6.73-3.5.6-.42,1.27-.75,1.96-.98.65-.2,1.03.28.81.96-.14.46-.41.87-.78,1.17-3.57,2.69-7.02,5.54-10.78,7.93-2.71,1.65-6.05,1.88-8.96.61-3.85-1.55-7.38-3.77-10.44-6.58-2.27-2.03-2.4-3.62-.61-6.28m6.1,48.33c-2.1.32-3.79-.95-5.03-4.01.71.29,1.18.49,1.66.67,1.56.66,3.29.78,4.92.35.77-.18,1.55-.31,2.34-.39-.2,1.57-2.06,3.12-3.89,3.39m1.76-6.3c-4.68-.04-7.79-2.44-8.5-6.79,4.92,5.17,10.24,5.43,15.93,1.98-.52,2.84-3.62,4.85-7.43,4.81m15.77-18.66c-.84,1.25-1.73,2.48-2.58,3.73-1.59,2.56-3.7,4.75-6.19,6.45-2.27,1.62-5.17,2.11-7.84,1.31-5.02-1.62-8.03-5.35-9.56-10.49-.26-1.28-.24-2.59.07-3.86.11-.03.22-.06.33-.1.78.96,1.52,1.95,2.33,2.87,1.06,1.21,2.13,2.41,3.27,3.54,2,2.05,4.94,2.9,7.72,2.21,3.33-.7,6.41-2.32,8.88-4.67,1.24-1.14,2.68-2.08,4.17-3.22.14.79-.08,1.6-.6,2.21m9.07-14.94c-.06.07-.12.14-.18.2-.05.06-.11.11-.17.15-1.3,1.3-2.63,2.59-3.94,3.89-1.25,1.25-2.51,2.48-3.69,3.8-2.64,3.08-6.02,5.43-9.84,6.81-.65.2-1.3.43-1.92.7-2.02,1.07-3.93.7-5.87-.29-3.8-1.92-6.73-4.63-7.61-9.18-.17-.93-.17-1.91-.26-2.87.14-.04.26-.1.4-.14,2.23,2.13,4.75,3.92,7.5,5.32,1.35.72,2.74,1.33,4.18,1.84,1.93.62,4.02.47,5.84-.42,3.13-1.36,5.93-3.38,8.21-5.92,1.49-1.67,3.18-3.15,4.81-4.7.35-.32.74-.59,1.17-.79.42-.25.97-.15,1.28.22.08.09.16.18.22.28.01.01.02.03.01.04-.07.35-.11.7-.14,1.06m-.22-22.34c-.19.3-.41.58-.65.84-.04.05-.09.11-.14.15-.57.58-1.27,1-2.05,1.24-2.01.61-4.03,1.16-6.06,1.64-.32.07-.65.14-.96.18-.67.11-1.35.18-2.03.2-2.78.02-5.54-.6-8.04-1.82-1.74-.82-3.42-1.78-5.02-2.87-.33-.22-.65-.43-.99-.65-1.14-.74-1.48-1.49-1.17-2.55.09-.33.21-.65.38-.95.29-.56.7-1.07,1.07-1.67.52.18.97.32,1.41.46.05.02.1.04.15.06,2.56.93,5.18,1.78,7.7,2.81,1.97.79,4.09,1.15,6.21,1.04.13,0,.27,0,.4,0,.29-.01.57-.04.85-.07.61-.04,1.21-.11,1.81-.21,1.18-.17,2.36-.49,3.55-.65.06-.01.1-.01.15-.03.11-.01.24-.03.36-.04.66-.09,1.32-.08,1.98.03,1.45.32,1.88,1.55,1.07,2.87m-2.8-6.38c-2.12-.11-4.21-.1-6.31-.21v-.04c-2.8-.07-5.57-.66-8.17-1.71-1.61-.7-3.18-1.52-4.68-2.44-1.26-.64-1.78-2.18-1.17-3.46.26-.73.83-1.3,1.56-1.56h.04c2.36.57,4.65,1.3,6.99,1.85,1.39.33,2.8.61,4.19.85,3.24.54,6.52.82,9.81.84.31.01.61.04,1.07.07.1.53.17,1.06.21,1.6.06,2.63-1.14,4.33-3.55,4.21m3.57-10.04c-.01.18-.05.35-.11.52-.65-.04-1.3-.08-1.95-.11-.13-.02-.26-.03-.39-.03-1.04-.07-2.08-.14-3.11-.29-1.64-.24-3.29-.65-4.93-.93h0c-1.57-.29-3.16-.58-4.74-.86-.91-.05-1.68-.71-1.88-1.6-.19-.98.09-1.98.77-2.72.12-.17.28-.31.46-.42h.01c1.34.65,2.73,1.18,4.16,1.57,2.31.65,4.67,1.04,7.04,1.48,1.23.27,2.42.72,3.51,1.35.79.33,1.26,1.14,1.17,1.99v.06Zm-2.05-11.31c.04,2.54.71,3.27,1.49,3.8-.03.06-.04.1-.07.15-.1.24-.22.47-.33.7-.56,1.2-1.82,1.91-3.14,1.76-1.91-.29-3.81-.67-5.68-1.14-.41-.21-.72-.58-.86-1.02-.8-2.32-.29-4.89,1.34-6.73.84-.91,2.08-1.34,3.3-1.16,1.64.03,3.23.53,4.6,1.43.9.58,1.5,1.53,1.64,2.59-.74-.04-1.49-.71-2.29-.39m14.13-2.83c1.39-.64,2.93-.91,4.46-.78,1.25.07,2.37.79,2.95,1.89.76,1.24,1.13,2.67,1.06,4.12,0,.01-.01.03,0,.04-.02.44-.09.88-.21,1.3-.01.01-.02.03-.01.04-.03.11-.06.22-.1.32-.11.45-.4.84-.81,1.07-1.74.54-3.53.96-5.29,1.42-1.8.06-3.42-1.06-4-2.76-.05-.11-.1-.22-.14-.33-.03-.06-.05-.13-.07-.2.24-.24.46-.47.68-.74.53-.82.63-1.84.28-2.75-.49.04-.96.15-1.41.35.28-1.39,1.27-2.53,2.61-3.01m-2.49,13.92c-.05-.81.42-1.56,1.17-1.88,1.06-.56,2.19-.99,3.36-1.28,1.42-.36,2.93-.38,4.33-.77.85-.24,1.67-.49,2.49-.77,1.36-.45,2.72-.92,4.07-1.41.14-.06.28-.1.43-.14h.01c.62.34,1.06.93,1.2,1.63.53,1.09.07,2.4-1.02,2.93-.07.03-.14.07-.22.09-.28.1-.57.18-.86.22l-4.82.84s.01-.04,0,0c-1.53.24-3.07.61-4.58.85-1.28.18-2.56.26-3.85.33-.11.01-.24.01-.35.03-.07,0-.12.01-.2.01-.35,0-.71-.02-1.06-.06-.05-.18-.09-.37-.11-.56v-.08Zm.11,4.58c3.09-.25,5.87-.43,8.62-.71.65-.07,1.32-.15,1.99-.26,3.32-.54,6.59-1.3,9.81-2.29.57-.17,1.14-.35,1.71-.46h.01c1.43.48,2.21,2.03,1.73,3.46-.17.52-.49.97-.93,1.3-.59.49-1.23.91-1.91,1.27-3.58,1.93-7.56,3-11.62,3.12v.03c-1.32.03-2.65.15-3.99.22-.78.07-1.56.07-2.34,0-1.91-.25-2.8-1.14-3.09-3.14-.07-.85-.07-1.7-.01-2.55m1.85,9.18c.53-.07,1.06-.08,1.59-.01.17.01.33.03.5.06l.39.04c1.64.21,3.27.49,4.92.7.26.03.54.07.81.1s.56.07.82.1c.2.01.36.04.56.06h.12c1.45.05,2.9-.17,4.26-.67,2.9-1.06,5.84-2.12,8.75-3.16.12-.04.24-.08.36-.12.42-.15.86-.28,1.34-.45.26.32.42.47.53.64.35.5.64,1.03.86,1.59h0c.54,1.38.01,2.21-1.77,3.5-.35.25-.71.49-1.06.72-2.91,2.03-6.26,3.33-9.77,3.82-.91.1-1.82.15-2.73.12h-.06c-.69-.02-1.37-.08-2.05-.2-.03,0-.07-.01-.1-.03-2.22-.43-4.42-.99-6.59-1.66-.82-.24-1.56-.7-2.13-1.32-.05-.05-.1-.1-.14-.15-.22-.23-.41-.48-.57-.75-.88-1.36-.42-2.63,1.14-2.91m.21,26.85c-.35-.35-.71-.7-1.04-1.06-.12-.11-.25-.24-.36-.35,0-.38-.04-.77-.11-1.14-.02-.13-.04-.26-.07-.39.08-.09.17-.17.28-.24.32-.25.76-.27,1.1-.04.56.31,1.08.68,1.55,1.12,1.73,1.66,3.43,3.37,5.13,5.07,2.77,2.76,5.84,4.99,9.67,5.78,1.44.32,2.94.2,4.31-.35,3.46-1.36,6.67-3.27,9.52-5.66.53-.45,1.06-.86,1.9-1.55-.03,4.45-1.37,7.87-4.54,10.31-1.29.93-2.66,1.75-4.08,2.45-1.4.78-3.1.85-4.56.18-1.2-.52-2.47-.85-3.69-1.37-3.06-1.38-5.81-3.35-8.1-5.81-2.31-2.31-4.58-4.64-6.88-6.97m25.54,38.3c-2.03-.09-3.8-1.4-4.49-3.32.61-.04,1.22,0,1.81.12,2.11.69,4.42.48,6.38-.56.2-.08.4-.15.61-.21-.73,2.47-2.44,4-4.32,3.96m5.95-11.79c-.33.68-.68,1.35-1.07,2.01-.96,1.7-2.64,2.86-4.57,3.15-1.74.38-3.54.38-5.28,0-2.34-.61-4.21-2.35-4.97-4.64,5.82,3.55,11.12,3.33,16.11-1.46-.04.32-.11.64-.21.95m1.95-11.59c-1.15,3.93-3.84,7.22-7.45,9.13-2.79,1.5-6.15,1.48-8.92-.07-2.13-1.15-3.97-2.76-5.39-4.71-1.55-2.06-3.02-4.21-4.47-6.35-.27-.5-.48-1.04-.63-1.59.1-.07.2-.14.29-.22,1.53,1.2,3.09,2.37,4.58,3.61,3.02,2.49,6.31,4.3,10.25,4.43,2.15.13,4.25-.69,5.74-2.24,1.64-1.69,3.16-3.5,4.72-5.27.38-.43.72-.88,1.27-1.55.44,1.58.44,3.25,0,4.84"/></g></g></g></g><g id="Group_44" class="cls-18"><g id="Group_43"><g class="cls-10"><g id="Group_42"><path id="Path_25" class="cls-4" d="m75.49,505.59c-.16.61-.38,1.27-.49,1.93-.27,1.29-.44,2.6-.53,3.92-.03.9.01,1.73-.57,2.07.12.71.42,1.31.24,1.65-.33.74-.4,1.56-.2,2.34.01.56-.02,1.11-.12,1.66l-2.45-.32c.52.34,1,.75,1.42,1.22.33.54-.36.87-.49,1.28-.57,1.79-.95,3.65-1.38,5.48-.04.77-.71,1.36-1.48,1.32-.11,0-.22-.03-.32-.06.1-1.23-.19-2.4.31-3.67.27-1.15.38-2.32.31-3.5.01-.22-.11-.6-.03-.64,1.22-.66.68-2.15,1.48-3.05.37-.41.35-1.16.5-1.76.17-.71.68-1.63.42-2.1-.49-.85-.08-1.41.07-2.11.33-1.57.71-3.14.92-4.74.24-1.77.74-2.03,2.39-.92"/></g></g></g></g><g id="Group_47" class="cls-18"><g id="Group_46"><g class="cls-12"><g id="Group_45"><path id="Path_26" class="cls-4" d="m64.66,518.92c.81.64,1.82.49,2.74.69.41.09.97.25,1.14.56.28.51-.35.68-.63,1.01-.52.66-.96,1.38-1.31,2.14-.34.81-.73,1.61-1.17,2.37-.57-.78-.59-1.84-.03-2.64.64-.72.91-1.71.71-2.65-.75-.07-1.45.4-1.68,1.12-.34.9-.71,1.8-1.08,2.68-.15.23-.32.45-.52.64-.41-.73-.41-1.63.01-2.36.73-.93.98-2.15.69-3.29.46-.1.83-.18,1.2-.25l-.07-.03"/></g></g></g></g><g id="Group_50" class="cls-18"><g id="Group_49"><g class="cls-28"><g id="Group_48"><path id="Path_27" class="cls-4" d="m62.32,518.59c.09-.38.22-.75.39-1.1.84-1.29,1.7-2.57,2.6-3.82.25-.25.54-.47.86-.63l.64.87c.26-.23.51-.45.76-.66l-.05-.02c.87.56.67,1.21.12,1.85-.86.84-1.44,1.92-1.66,3.1-.09.73-.73.76-1.32.77l.07.03c-.16-.35-.32-.69-.4-.86l-2.08.47.06.02"/></g></g></g></g><g id="Group_53" class="cls-18"><g id="Group_52"><g class="cls-22"><g id="Group_51"><path id="Path_28" class="cls-4" d="m69.1,511.68c.31-.64.57-1.31.76-2,.23-1.18.32-2.39.48-3.68l2-.63c-.15.64-.28,1.1-.37,1.58-.27,1.53-.53,3.07-.79,4.6-.03.46-.12.91-.26,1.35-.14.3-.42.51-.74.58-.33-.04-.62-.23-.78-.51-.15-.43-.24-.88-.27-1.34l-.03.06"/></g></g></g></g><g id="Group_56" class="cls-18"><g id="Group_55"><g class="cls-35"><g id="Group_54"><path id="Path_29" class="cls-4" d="m69.12,511.61c-.11.31-.23.62-.32.94-.06.48-.49.81-.97.76-.11-.01-.21-.05-.3-.1l.04.02c.09-.99.18-1.99.27-2.98l-.18-.03-.86,1.92c-.46-1.35.24-2.44.5-3.73l2.13-.39c-.12,1.32-.23,2.48-.34,3.65,0,0,.03-.07.03-.07"/></g></g></g></g><g id="Group_59" class="cls-18"><g id="Group_58"><g class="cls-2"><g id="Group_57"><path id="Path_30" class="cls-4" d="m68.25,519.15c-.83-.11-1.18-.47-.94-1.07.49-1.21,1.04-2.4,1.67-3.54.14-.26.74-.27,1.33-.45-.37,1.8-1.07,3.52-2.06,5.07"/></g></g></g></g><g id="Group_62" class="cls-18"><g id="Group_61"><g class="cls-17"><g id="Group_60"><path id="Path_31" class="cls-4" d="m69.37,504.63l1.26.35-1.69,2.62c-.78.11-1-.47-1.13-1.11-.1-.53.19-1.05.69-1.25.31-.19.61-.41.91-.62-.01,0-.03,0-.04,0"/></g></g></g></g><g id="Group_65" class="cls-18"><g id="Group_64"><g class="cls-7"><g id="Group_63"><path id="Path_32" class="cls-4" d="m62.26,518.57l.77.51c-.66,1.19-1.26,2.27-1.87,3.35l-.27-.07c-.04-.31-.03-.63,0-.94.2-.81.45-1.62.75-2.4.08-.2.45-.29.67-.43l-.07-.02"/></g></g></g></g><g id="Group_68" class="cls-18"><g id="Group_67"><g class="cls-31"><g id="Group_66"><path id="Path_33" class="cls-4" d="m106.07,90.41c-.96.64-2.03,1.07-3.16,1.28-2.04.37-4.11.55-6.19.56-4.27.09-8.51.63-12.67,1.63-1.7.35-3.39.72-5.08,1.03-2.29.4-4.47,1.27-6.41,2.54-.28-.36-.47-.61-.78-1-.21.74-.38,1.38-.57,2.12,1.46.58,3.02.86,4.58.82,0,0-.14,1.45-1.13,1.76-.1.03-.2.04-.31.06-.37.08-.75.12-1.13.1-.74-.09-1.47-.27-2.17-.53-1.78-.6-3.72-.41-5.35.53-.49.3-1.03.5-1.6.58-.49.04-.97-.14-1.32-.49-.17-.47-.13-.99.12-1.42.34-.53.79-.99,1.31-1.35,1.28-.99,2.6-1.89,3.9-2.86.82-.57,1.86-.72,2.8-.4-.1-.33-.15-.57-.24-.84.11-.12.23-.22.38-.29,5.85-2.21,11.8-3.93,18.13-4.15,2.83-.1,5.63-.46,8.46-.6,2.73-.13,5.32-1.29,7.23-3.25.68-.65,1.43-1.24,2.19-1.87,1.2,2.02.72,4.93-.99,6.05"/></g></g></g></g><g id="Group_71" class="cls-18"><g id="Group_70"><g class="cls-9"><g id="Group_69"><path id="Path_34" class="cls-4" d="m59.98,192.61c-1.45-.08-2.37-1.06-3.35-1.97-.66-.61-1.34-1.2-2.03-1.82l-1.08.94c-1.27,1.3-3.32,1.42-4.74.27-1.28-.92-2.22-2.22-2.7-3.72-.39-1.01-.1-2.15.73-2.85.8-.75,1.63-1.46,2.51-2.12,2.19-1.55,3.74-3.86,4.33-6.48.85-3.71,1.6-7.43,2.37-11.16,1.2-6.53,2.02-13.12,2.45-19.74.58-6.9,1.12-13.8,1.54-20.71.18-3.04-.08-6.11.03-9.16.1-2.99.35-5.98.67-8.95.15-1.37.94-1.92,2.43-1.94.73.02,1.44-.27,1.95-.8,1.36-1.33,3.37-1.75,5.14-1.06,3.82,1.01,6.1,4.92,5.09,8.73-.04.14-.08.27-.12.41-.41,2.07-1.75,3.83-3.63,4.79-1.82.84-3.1,2.55-3.4,4.53-.83,5.12-1.77,10.23-2.42,15.38-1.01,8.01-1.87,16.04-2.68,24.08-.58,5.68-.94,11.39-1.46,17.07-.25,2.55.38,5.1,1.78,7.24.61.98,1.16,1.99,1.64,3.04.51,1.02.43,2.24-.22,3.19-.22-.02-.45-.05-.67-.1-1.26-.41-1.36-.36-2.17.64-.65.79-1.37,1.53-2.05,2.29l.05-.03Z"/></g></g></g></g><g id="Group_74" class="cls-18"><g id="Group_73"><g class="cls-3"><g id="Group_72"><path id="Path_35" class="cls-4" d="m28.55,250.55c-.07.15-.14.29-.2.45.02-.07.03-.15.03-.22.02-.09.08-.18.17-.22"/><path id="Path_36" class="cls-4" d="m28.02,259.33s-.03,0-.03,0h0s.01,0,.02,0c0,0,.01,0,.02-.01"/><path id="Path_37" class="cls-4" d="m28,259.34s.02,0,.03,0l.02-.04s-.02.01-.03.02c-.01,0-.03,0-.03,0h0s.01,0,.02,0"/><path id="Path_38" class="cls-4" d="m19.99,272c-.5,1.9-1.44,3.65-2.73,5.13-.52.5-.76,1.23-.62,1.94-.19.05-.37.11-.55.15s-.4.07-.67.11c-.06,1-.24,2-.54,2.96-.53.9-1.16,1.73-1.89,2.47.44.32.89.61,1.35.88.5.25.91.02,1.15-.57.17-.55.37-1.09.6-1.61.36-.77.83-1.47,1.41-2.1.59-.55.4-1.37.82-1.71.53-.32.92-.83,1.07-1.43.37-1.57,1.18-3.01,2.33-4.14.64-.68,1.47-1.35,1.19-2.57,1.28-.22,1.73-1.19,2.08-2.38.8-3.15,2.7-5.92,5.35-7.8-.03.43-.1.87-.2,1.29-.66,2.03-1.68,3.93-3,5.61-.43.53-.77,1.13-1.02,1.76-.31.71-.08,1.55.57,1.99.45.45,1.17.45,1.62,0,.24-.24.36-.57.33-.9.31-1.8.97-3.53,1.93-5.08.58-1.06,1.23-2.08,1.94-3.06.38-.58.89-1.16.54-1.83-.27-.7-1.03-1.09-1.75-.88-.62.19-.88-.09-1.3-.31-.63-.26-1.28-.45-1.95-.57-.48.53-.88,1.13-1.17,1.78-.68,2.62-2.35,4.59-4.03,6.55-1.15,1.33-1.26,1.47-1.25,3.08-.92-.21-1.41.33-1.59,1.24"/><path id="Path_39" class="cls-4" d="m61.16,194.76c-.57-.03-1.14-.03-1.71-.03-.9.32-1.89-.09-2.3-.95-.43-.72-1.29-1.06-2.1-.82-.43.1-.85.21-1.28.31-.31-.67-.14-1.82-1.23-1.57-1.24.18-2.51.03-3.68-.45-1.14-.32-1.6.17-1.42,1.37.04.29.12.57.24.84.49,1.13.54,2.4.15,3.57-.67,2.38-1.51,4.71-2.54,6.97-4.26,8.58-7.58,17.59-9.89,26.89-1.03,3.96-2.3,7.86-3.64,11.72-.96,2.7-2.15,5.31-3.22,7.96-.07.15-.14.29-.2.45-.03.26-.12.51-.26.73,0,.01,0,.02-.01.03-.29.5-.75.92-1,1.46-.55.77-.63,1.78-.21,2.62-.52-.15-.75-.26-1-.31-.61-.23-1.3.09-1.52.7-.03.09-.06.19-.07.29-.53,1.95-1.73,3.51-2.6,5.25-.78,1.6-1.91,3-3.3,4.1-1.28,1.03-1.28,1.14-.81,2.81-.42-.12-.77-.22-1.32-.39-.34.62-.61,1.27-.81,1.95-.27,1.83-1.08,3.53-2.33,4.9-.2.33-.33.7-.38,1.09-.06.14,0,.43-.04.45-1.31.46-1,1.6-1.2,2.55-.1.45-.29.87-.54,1.25-.95,1.53-1.63,3.22-1.99,4.99-.12.54-.17,1.07.47,1.12.48.05.91-.3.96-.78,0-.05,0-.09,0-.14-.01-.77.43-1.18.81-1.77.61-.74,1-1.65,1.1-2.6.09-.51.3-.99.61-1.39.5-.79,1.45-1.34,1.36-2.48,1.52-.84,1.25-2.55,1.9-3.8.44-.79,1-1.51,1.64-2.15.63-.63,1.27-1.17,1.1-2.21,1.35-.04,1.88-1.03,2.2-2.21.69-2.75,2.19-5.23,4.32-7.11.49-.42,1.02-.77,1.53-1.16.44-.44.72-1.01.81-1.63,0-.29-.11-.57-.31-.78.64-.54,1.41-.92,1.71-1.55.1-.24.14-.5.11-.75h.07s.01-.01.01-.01c.03,0,.07-.01.11-.01l.39-.06.43-.06c.05,0,.1-.01.15-.03l.32-.04,1.14-.15.4-.06h.06c-.32.31-.58.67-.78,1.07-.36.65-.77,1.28-1.18,1.91-.82,1.21-.74,2.02.29,2.56.88.44,1.95.09,2.39-.78.05-.09.09-.19.12-.29.29-.6.53-1.23.79-1.84.11.04.21.08.31.12-.39.91-.79,1.81-1.23,2.79,1.05.04.89,1.37,1.71,1.63h-.07c1.77.18,1.85.11,2.41-2.01,1.29-.27,2.25-1.36,2.35-2.68.01-.11.04-.21.06-.31.88.39,1.14.2,1.66-.93.27-.69.5-1.4.7-2.12.56-1.57,1.06-3.16,1.67-4.71,2.08-5.38,4.39-10.67,6.26-16.11,1.52-4.42,2.48-9.01,3.79-13.49,1.39-4.76,2.9-9.5,4.4-14.23.67-2.52,1.84-4.87,3.44-6.92.29-.36.51-.77.64-1.21.28-.92,0-1.31-.95-1.35m-24.72,61.89c-.02-.71.27-1.4.79-1.88.19-.24.33-.52.4-.82.17.28.33.53.49.79-.5.59-1.04,1.17-1.69,1.91m16.8-61.85c-.94,1.02-1.39,2.4-1.24,3.78.05,2.15-.52,4.27-1.64,6.1-.6,1.18-.97,2.47-1.09,3.79-.47,2.84-.77,5.73-1.27,8.56-.96,5.34-1.77,10.73-3.11,15.97-1.48,5.7-3.59,11.21-6.27,16.45-.45.88-.86,1.76-1.31,2.62-.08-.01-.16-.03-.24-.06.35-2.86.6-5.73,1.06-8.56.86-5.31,1.85-10.57,2.79-15.87,1.08-5.26,2.87-10.36,5.33-15.13,1.41-2.97,2.67-5.99,4.04-8.99.68-1.53,1.09-3.17,1.2-4.84.12-1.55.25-3.13,1.71-4.15.03.1.08.28.04.32"/><path id="Path_40" class="cls-4" d="m8.96,260.77c1.25-.92,2.27-1.73,3.34-2.42.47-.27,1-.43,1.54-.47.78-.1,1.63.1,1.97-1.07.01-.05.04-.1.06-.15,1.45.16,2.06-1.41,3.15-2,1.25-.68,2.47-1.33,3.82-.97.28.02.55-.01.82-.09.33-.89.43-1.85.27-2.78-.05-.78-.46-.98-1.2-.68-.41.19-.79.42-1.16.68-1.41,1.06-3.1,1.7-4.87,1.82-.72.06-1.38.4-1.85.96-1.37,1.35-2.85,2.59-4.31,3.82-.36.25-.77.43-1.19.55-1.21.45-1.5,1.03-.99,2.09.16.26.35.5.58.71"/><path id="Path_41" class="cls-4" d="m36.02,261.38c-.79-.04-1.47.57-1.51,1.37,0,.02,0,.03,0,.05-.36,2.55-1.5,4.93-3.25,6.82-.79.85-.86,1.3-.72,2.7-.54-.13-1.08.19-1.21.73-.02.07-.03.14-.03.21-.03.5-.12,1-.29,1.47-.29.72-.7,1.4-1.21,1.99-.91.96-.97.91-.31,1.91l-1.13-.33c-.16.57-.36,1.12-.58,1.67-.24.51-.57.99-.92,1.57l1.34,1.04c.59-1.05,1.13-1.94,1.61-2.86.16-.47.52-.84.98-1.03.29-.11.54-.69.71-1.09.51-1.21,1.16-2.35,1.95-3.4.98-1.35,2.1-2.63,2.3-4.5.37-1.97,1.27-3.81,2.6-5.32,1.4-1.81,1.39-2.01-.38-3h.06"/><path id="Path_42" class="cls-4" d="m21.79,280.35c.94.66,1.93.54,2.24-1.13.32-1.76,1.21-3.36,2.54-4.55,1.14-1.05,1.05-1.51-.22-2.07-1.83-.82-2.19-.63-2.46,1.55-.13,1.48-.82,2.86-1.93,3.85-1.17,1.05-1.14,1.71-.17,2.36"/><path id="Path_43" class="cls-4" d="m17.57,286.28c-.24.23-.6.43-.71.72-.28.73-.42,1.49-.66,2.24-.17.53-.27,1.08.25,1.26.63.22,1.03-.3,1.12-.9.16-.84.64-1.59,1.34-2.08.39-.32.69-.74.87-1.22.3-1.52,1.08-2.91,2.21-3.97.18-.15.23-.5.37-.83-.68-.6-1.25-1.31-2.52-.96-.01,1.66-.7,3.24-1.91,4.38-.27.28-.25.87-.37,1.37"/><path id="Path_44" class="cls-4" d="m14.84,286.82c-.58-.99-1.38-.95-2.12-1.07-.38,1.13-.72,2.17-1.06,3.21-.17.52-.22,1.05.31,1.22.6.19,1.04-.23,1.17-.85.1-1.07.74-2.02,1.7-2.51"/><path id="Path_45" class="cls-4" d="m25.94,253.89c.92-.86.81-2.01,1.18-3.13-.83-.18-1.52-.21-2.04.6-.38.6.02,1.7.86,2.53"/><path id="Path_46" class="cls-4" d="m24.53,282.02c-.48.98-.77,1.64-1.13,2.27-.3.51-.45.98.06,1.25.45.24.75-.17,1.04-.56.45-.62.93-1.21,1.53-1.98l-1.5-.97"/></g></g></g></g><g id="Group_77" class="cls-18"><g id="Group_76"><g class="cls-32"><g id="Group_75"><path id="Path_47" class="cls-4" d="m186.17,186.32c-.48,1.5-1.42,2.8-2.7,3.72-1.41,1.15-3.47,1.03-4.74-.28-.31-.25-.6-.52-1.09-.93-.68.61-1.37,1.2-2.02,1.81-.98.91-1.88,1.88-3.33,1.98-.67-.75-1.38-1.48-2.02-2.26-.81-1-.91-1.06-2.17-.64-.22.06-.44.09-.67.1-.64-.94-.73-2.16-.22-3.18.48-1.05,1.03-2.07,1.64-3.05,1.4-2.14,2.03-4.7,1.78-7.24-.53-5.68-.89-11.38-1.46-17.07-.82-8.04-1.69-16.06-2.69-24.08-.64-5.14-1.59-10.25-2.41-15.38-.31-1.98-1.58-3.68-3.4-4.53-1.88-.96-3.22-2.72-3.64-4.79-1.23-3.75.81-7.78,4.55-9.02.14-.05.28-.09.42-.12,1.77-.69,3.79-.28,5.14,1.06.51.53,1.22.82,1.95.79,1.48.03,2.27.57,2.42,1.94.33,2.98.57,5.96.68,8.96.1,3.05-.15,6.12.03,9.17.42,6.91.95,13.81,1.53,20.7.44,6.62,1.26,13.21,2.45,19.74.77,3.72,1.52,7.45,2.37,11.16.6,2.62,2.14,4.92,4.33,6.48.88.65,1.72,1.36,2.51,2.12.83.69,1.12,1.83.74,2.84"/></g></g></g></g></g></g></g><path id="Path_48" class="cls-4" d="m172.26,192.62l.06.03-.03-.03h-.03Z"/><g id="Group_123"><g class="cls-30"><g id="Group_122"><g id="Group_82" class="cls-18"><g id="Group_81"><g class="cls-25"><g id="Group_80"><path id="Path_49" class="cls-4" d="m203.9,250.99c-.06-.15-.12-.31-.2-.46.1.08.17.17.17.24,0,.08.01.15.03.22"/><path id="Path_50" class="cls-4" d="m204.24,259.33s.03,0,.04,0h0s-.01,0-.02,0c0,0-.01,0-.02-.01"/><path id="Path_51" class="cls-4" d="m204.25,259.34s-.02,0-.03,0l-.02-.04s.02.01.03.02c.01,0,.03,0,.03,0h0s-.01,0-.02,0"/><path id="Path_52" class="cls-4" d="m212.26,272c.5,1.9,1.44,3.65,2.73,5.13.52.5.76,1.23.63,1.94.18.05.37.11.55.15s.4.07.67.11c.06,1,.24,2,.54,2.96.53.9,1.16,1.73,1.89,2.47-.43.32-.89.61-1.35.88-.5.25-.91.02-1.15-.57-.17-.55-.37-1.09-.6-1.61-.36-.77-.83-1.47-1.41-2.1-.59-.55-.4-1.37-.82-1.71-.53-.32-.92-.83-1.07-1.43-.37-1.57-1.18-3.01-2.33-4.14-.64-.68-1.47-1.35-1.19-2.57-1.28-.22-1.73-1.19-2.08-2.38-.8-3.15-2.7-5.92-5.35-7.8.03.43.1.87.2,1.29.66,2.03,1.67,3.93,3,5.61.43.54.77,1.13,1.02,1.76.31.71.08,1.55-.57,1.99-.45.45-1.17.45-1.62,0-.24-.24-.36-.57-.33-.9-.31-1.8-.97-3.52-1.93-5.07-.58-1.06-1.23-2.08-1.94-3.06-.38-.58-.89-1.16-.54-1.83.27-.7,1.03-1.09,1.75-.88.62.19.88-.09,1.3-.31.63-.26,1.28-.45,1.95-.57.48.53.88,1.13,1.18,1.78.68,2.62,2.35,4.59,4.03,6.55,1.15,1.33,1.26,1.47,1.25,3.08.92-.21,1.41.33,1.59,1.24"/><path id="Path_53" class="cls-4" d="m223.32,285.45c-.37-1.77-1.05-3.46-2.01-4.99-.25-.39-.43-.81-.54-1.25-.2-.95.11-2.09-1.18-2.55-.04-.01,0-.31-.04-.45-.06-.38-.19-.75-.39-1.09-1.24-1.37-2.05-3.07-2.31-4.9-.21-.67-.48-1.33-.81-1.95-.56.17-.91.26-1.32.39.46-1.67.47-1.78-.82-2.81-1.39-1.1-2.52-2.5-3.3-4.1-.86-1.74-2.08-3.3-2.59-5.25-.25-.93-.77-1.13-1.6-.99-.25.04-.49.15-1,.31.43-.84.34-1.85-.21-2.62-.29-.49-.62-.96-.98-1.41,0,0,0-.01-.01-.01h0c-.15-.24-.25-.51-.29-.79-.06-.15-.12-.31-.2-.46-1.07-2.63-2.26-5.24-3.2-7.94-1.35-3.86-2.62-7.76-3.65-11.72-2.31-9.29-5.62-18.31-9.88-26.89-1.03-2.25-1.88-4.58-2.55-6.97-.38-1.17-.32-2.44.17-3.57.11-.27.19-.55.24-.84.17-1.2-.28-1.69-1.43-1.37-1.16.48-2.43.63-3.68.45-1.09-.25-.92.91-1.23,1.57-.42-.1-.85-.21-1.28-.31-.81-.24-1.67.1-2.1.82-.4.86-1.39,1.27-2.29.95-.57,0-1.14,0-1.71.03-.95.04-1.24.43-.95,1.35.14.44.35.85.63,1.21,1.61,2.05,2.78,4.4,3.44,6.92,1.5,4.72,3.01,9.46,4.4,14.23,1.32,4.47,2.27,9.07,3.79,13.49,1.88,5.43,4.18,10.73,6.27,16.11.6,1.55,1.12,3.13,1.66,4.71.2.72.43,1.42.7,2.12.5,1.13.78,1.32,1.66.93.01.1.04.2.06.31.1,1.32,1.06,2.4,2.35,2.68.57,2.12.64,2.19,2.41,2.02h-.06c.81-.28.65-1.6,1.7-1.64-.43-.98-.82-1.88-1.23-2.79.1-.04.21-.08.31-.12.26.61.52,1.24.79,1.84.3.95,1.31,1.48,2.26,1.18.09-.03.18-.06.27-.11,1.03-.54,1.1-1.35.28-2.56-.42-.63-.82-1.25-1.18-1.91-.2-.4-.46-.76-.78-1.07h.06l.4.06,1.16.15.31.04s.1.03.15.03l.43.06.4.06s.08.01.11.01h.07c-.03.27,0,.53.11.77.31.63,1.09,1,1.71,1.55-.19.22-.29.49-.29.78.08.62.37,1.19.81,1.63h-.03c.53.39,1.06.74,1.55,1.16,2.13,1.88,3.63,4.35,4.32,7.11.33,1.18.85,2.17,2.21,2.21-.18,1.04.47,1.59,1.09,2.21.65.63,1.21,1.35,1.64,2.15.64,1.25.38,2.97,1.91,3.8-.08,1.14.86,1.69,1.35,2.48.32.4.53.88.61,1.39.1.96.49,1.87,1.12,2.6.36.59.81,1,.79,1.77-.03.48.35.9.83.92.05,0,.1,0,.15,0,.63-.04.6-.57.47-1.12m-35.97-52.47c-1.32-5.24-2.15-10.63-3.11-15.97-.5-2.83-.78-5.71-1.27-8.55-.12-1.32-.48-2.61-1.09-3.79-1.12-1.83-1.69-3.95-1.63-6.1.14-1.38-.32-2.75-1.26-3.77-.04-.04.03-.22.04-.32,1.46,1.02,1.6,2.6,1.73,4.15.1,1.67.51,3.31,1.2,4.84,1.37,3,2.62,6.02,4.04,8.99,2.45,4.78,4.24,9.87,5.32,15.13.92,5.29,1.91,10.56,2.77,15.87.46,2.83.72,5.7,1.07,8.55-.08.03-.17.04-.25.06-.43-.86-.86-1.74-1.31-2.62-2.68-5.24-4.78-10.76-6.27-16.45m6.77,21.75c.17-.26.32-.52.49-.79.08.3.22.58.42.82.52.48.81,1.17.78,1.88-.64-.74-1.18-1.32-1.69-1.91m4.01-.98c-.17.1-.32.21-.53.33-.04-.1-.1-.18-.12-.26.32-.1.65-.18.99-.24-.11.06-.21.11-.33.17"/><path id="Path_54" class="cls-4" d="m223.29,260.77c-1.25-.92-2.27-1.73-3.34-2.42-.47-.27-1-.43-1.54-.47-.78-.1-1.63.1-1.97-1.07-.01-.05-.04-.1-.07-.15-1.46.16-2.06-1.41-3.15-2-1.25-.68-2.47-1.33-3.82-.97-.28.02-.55-.01-.82-.09-.33-.89-.43-1.85-.27-2.78.05-.78.46-.98,1.2-.68.41.19.79.42,1.16.68,1.41,1.06,3.1,1.7,4.87,1.82.72.06,1.38.4,1.85.96,1.37,1.35,2.85,2.59,4.31,3.82.36.25.77.43,1.19.55,1.21.45,1.5,1.03.99,2.09-.16.26-.35.5-.58.71"/><path id="Path_55" class="cls-4" d="m196.23,261.38c.79-.04,1.47.57,1.51,1.37,0,.02,0,.03,0,.05.36,2.55,1.5,4.93,3.25,6.82.79.85.86,1.3.72,2.7.54-.13,1.08.19,1.21.73.02.07.03.14.03.21.03.5.12,1,.29,1.47.29.72.7,1.4,1.21,1.99.91.96.97.91.31,1.91l1.13-.33c.16.57.36,1.12.58,1.67.24.51.57.99.91,1.57l-1.33,1.04c-.59-1.05-1.13-1.94-1.61-2.86-.16-.47-.52-.84-.98-1.03-.29-.11-.54-.69-.71-1.09-.51-1.21-1.16-2.35-1.95-3.4-.98-1.35-2.1-2.63-2.3-4.5-.37-1.97-1.27-3.81-2.6-5.32-1.4-1.81-1.39-2.01.38-3h-.07"/><path id="Path_56" class="cls-4" d="m210.46,280.35c-.94.66-1.93.54-2.24-1.13-.32-1.76-1.21-3.36-2.54-4.55-1.14-1.05-1.05-1.51.22-2.07,1.83-.82,2.19-.63,2.46,1.55.13,1.48.82,2.86,1.93,3.85,1.17,1.05,1.14,1.71.17,2.36"/><path id="Path_57" class="cls-4" d="m214.68,286.28c.24.23.6.43.71.72.28.73.42,1.49.66,2.24.17.53.27,1.08-.25,1.26-.63.22-1.03-.3-1.12-.9-.16-.84-.64-1.59-1.34-2.08-.39-.32-.69-.74-.87-1.22-.3-1.52-1.08-2.91-2.21-3.97-.18-.15-.23-.5-.37-.83.68-.6,1.25-1.31,2.52-.96.01,1.66.7,3.24,1.91,4.38.26.28.25.87.37,1.37"/><path id="Path_58" class="cls-4" d="m217.41,286.82c.58-.99,1.38-.95,2.12-1.07.38,1.13.72,2.17,1.06,3.21.17.52.22,1.05-.32,1.22-.6.19-1.04-.23-1.17-.85-.1-1.07-.74-2.02-1.7-2.51"/><path id="Path_59" class="cls-4" d="m206.31,253.89c-.92-.86-.81-2.01-1.18-3.13.83-.18,1.52-.21,2.04.6.38.6-.02,1.7-.86,2.53"/><path id="Path_60" class="cls-4" d="m207.73,282.02c.48.98.77,1.64,1.13,2.27.3.51.45.98-.06,1.25-.45.24-.75-.17-1.04-.56-.45-.62-.93-1.21-1.53-1.98l1.5-.97"/></g></g></g></g><g id="Group_85" class="cls-18"><g id="Group_84"><g class="cls-1"><g id="Group_83"><path id="Path_61" class="cls-4" d="m159.57,398.38c-.45,1.61-.69,3.26-.7,4.93.22,5.48.68,10.92,1,16.39.22,3.85.58,7.7.53,11.55-.1,5.95-.52,11.91-.79,17.88-.24,5.21-.4,10.44-.74,15.65-.29,4.4-.85,8.78-1.17,13.18-.28,4-.07,7.94,1.81,11.65.44,1.02.73,2.11.84,3.22.2,1.36-.22,2.45-1.67,2.66.31,1.25.64,2.38.84,3.54.08.55.04,1.11-.1,1.64-.21.81-.72,1.14-1.53.74-.29-.14-.56-.31-.82-.45-.73-.88-1.95-1.18-3.01-.74-.4.32-.77.67-1.17.99.46.15.93.25,1.41.28,1.37.09,2.67.62,3.72,1.49.5-.14.95-.25,1.38-.38,1.78-.52,2.69.1,2.95,2.02-1.5-.5-3.27.63-4.65-.78-.69.64-1.65.91-2.58.72-.83-.2-1.71-.06-2.44.39,3.04.08,4.1,1.83,2.65,4.35-1.13-.5-2.21-1.48-3.76-.42.74.11,1.28.17,1.82.29,2.56.58,3.19,1.95,1.98,4.25-.58,1-.81,2.17-.65,3.32.12.84.57,1.85-.64,2.38-.08.04-.01.42-.04.63-.04.38-.1.75-.15,1.16,1.69.96,1.71,1.13.5,2.8.17.35.31.71.42,1.07.17.44-.05.93-.49,1.1-.07.03-.15.05-.22.05-.74.19-1.51-.16-1.87-.84-.17-.36-.18-.88-.45-1.1-1.09-.89-.99-1.94-.39-3.15-1.06-.21-1.73-.68-1.57-1.77-1.45-1.03-.43-1.85.25-2.66.55-.67.78-1.55.63-2.41-.11-1.02-.12-2.06-.21-3.08-.03-.31-.08-.78-.28-.88-.77-.39-.63-1.02-.56-1.64.22-1.84,1.04-3.15,3.02-3.45-.61,0-1.22.03-1.82.1-.46.06-.88.29-1.32.38-1.41.25-2.16-.27-2.2-1.67-.02-.92.1-1.83.35-2.72.46-1.62,1.46-2.15,2.65-1.42,0-.03.01-.07.01-.1.22-1.24.5-2.45.78-3.75-.35.32-.71.63-1.06.95-1.42,1.3-2.21,1.14-2.79-.74-.36-1.05-.5-2.16-.43-3.27.29-2.59.75-5.17,1.27-7.72,1.33-5.82,1.93-11.78,1.77-17.75-.38-7.26-.65-14.53-.93-21.8-.29-7.94-.49-15.9-.84-23.85-.22-4.9-.39-9.81-1.62-14.61-1.13-4.46-2.05-8.95-4.74-12.86-1-1.63-1.38-3.57-1.07-5.46.93-.1,1.77-.17,3.01-.29-1.96-1.02-2.63-2.72-3.37-4.42-1.48-3.43-1.31-6.69.99-9.67,1.35-1.78,2.3-3.84,2.76-6.03.52-2.26,1.07-4.49,1.46-6.74,2.72-15.17,4.07-30.55,4.04-45.96-.03-9.25.26-18.52.29-27.77.06-2.36-.21-4.71-.79-6.99-.68-1.8-.76-3.77-.22-5.62.7-2.17.32-4.55-1.02-6.4-.66-1.51-2.37-2.26-3.93-1.73-1.16.24-2.29.59-3.43.88-1.52.36-2.41-.11-2.48-1.62-.32-2.93.34-5.89,1.87-8.41.9-1.45,2.35-2.46,4.01-2.81,2.47-.52,3.51.29,3.58,2.81,0,2.08,1.68,3.77,3.76,3.78.04,0,.08,0,.12,0,1.41-2.13,2.48-2.56,5.02-2.03,2.97.63,4.51,2.72,5.32,5.42,1.01,3.56.92,7.34-.26,10.84-.46,1.48-1.14,2.9-1.55,4.39-.4,1.42-.65,2.89-.75,4.36-.15,2.42-.12,4.85-.18,7.27-.2,7.51-.36,15.02-.6,22.54-.25,7.33-.61,14.64-.92,21.97-.35,8.75-.67,17.5-1.04,26.25-.2,3.33,1.13,6.58,3.61,8.82,3.76,3.83,3.99,9.89.53,14l-3.96,1.09c-.4-.2-.82-.39-1.41-.65.28-.67.56-1.25.79-1.87.61-1.56,1.23-3.12,1.8-4.68,1.21-3.32-2.03-7.7-6.05-7.45-4.18.25-6.63,2.19-7.48,6.6-.31,1.62.2,3.3,1.36,4.47.5.54,1.03,1.07,1.53,1.63.99,1.1,1,1.83,0,2.88-.35.32-.73.61-1.13.86,1.63-.12,2.27-.93,2.09-2.59-.14-.97-.46-1.91-.95-2.76-1.24-2.2-1.95-4.45-.95-6.92.23-.64.6-1.21,1.09-1.69,2.57-2.2,6.44-1.9,8.64.68.45.53.81,1.13,1.06,1.78.4,1.26.3,2.62-.26,3.82-.4.9-.86,1.78-1.36,2.63-.32.6-.71,1.17-1,1.77-.32.67-.79,1.49-.17,2.08.6.34,1.33.39,1.96.12l4.04-.74c.75.1,1.49.18,2.31.28-.03.44-.09.87-.17,1.3-.91,3.43-1.88,6.83-2.72,10.27"/></g></g></g></g><g id="Group_88" class="cls-18"><g id="Group_87"><g class="cls-13"><g id="Group_86"><path id="Path_62" class="cls-4" d="m156.26,505.59c.16.61.38,1.27.49,1.93.27,1.29.44,2.6.53,3.92.03.9-.01,1.73.57,2.07-.12.71-.42,1.31-.24,1.65.33.74.4,1.56.2,2.34-.01.56.02,1.11.12,1.66l2.45-.32c-.52.34-1,.75-1.42,1.22-.33.54.36.87.49,1.28.57,1.79.95,3.65,1.38,5.48.04.77.71,1.36,1.48,1.32.11,0,.22-.03.32-.06-.1-1.23.19-2.4-.31-3.67-.27-1.15-.38-2.32-.31-3.5-.01-.22.11-.6.03-.64-1.21-.66-.68-2.15-1.48-3.05-.36-.41-.35-1.16-.5-1.76-.17-.71-.68-1.63-.42-2.1.49-.85.08-1.41-.07-2.11-.33-1.57-.71-3.14-.92-4.74-.24-1.77-.74-2.03-2.39-.92"/></g></g></g></g><g id="Group_91" class="cls-18"><g id="Group_90"><g class="cls-21"><g id="Group_89"><path id="Path_63" class="cls-4" d="m167.08,518.92c-.82.64-1.82.49-2.75.69-.41.09-.97.25-1.14.56-.28.51.35.68.63,1.01.52.66.96,1.38,1.31,2.14.34.81.73,1.61,1.17,2.37.57-.78.59-1.84.03-2.64-.64-.72-.91-1.71-.71-2.65.75-.07,1.45.4,1.68,1.12.34.9.71,1.8,1.08,2.68.15.23.32.45.52.64.41-.73.41-1.63-.01-2.36-.73-.93-.98-2.15-.69-3.29-.46-.1-.83-.18-1.2-.25l.07-.03"/></g></g></g></g><g id="Group_94" class="cls-18"><g id="Group_93"><g class="cls-36"><g id="Group_92"><path id="Path_64" class="cls-4" d="m169.42,518.59c-.09-.38-.22-.75-.39-1.1-.84-1.29-1.7-2.57-2.6-3.82-.25-.25-.54-.47-.86-.63l-.64.87c-.26-.23-.51-.45-.76-.66l.05-.02c-.87.56-.67,1.21-.12,1.85.86.84,1.44,1.92,1.66,3.1.09.73.73.76,1.32.77l-.07.03c.16-.35.32-.69.4-.86l2.07.47-.06.02"/></g></g></g></g><g id="Group_97" class="cls-18"><g id="Group_96"><g class="cls-19"><g id="Group_95"><path id="Path_65" class="cls-4" d="m162.65,511.68c-.31-.64-.57-1.31-.76-2-.23-1.18-.32-2.39-.48-3.68l-2-.63c.15.64.28,1.1.37,1.58.27,1.53.53,3.07.79,4.6.03.46.12.91.26,1.35.14.3.42.51.74.58.33-.04.62-.23.78-.51.15-.43.24-.88.27-1.34l.03.06"/></g></g></g></g><g id="Group_100" class="cls-18"><g id="Group_99"><g class="cls-8"><g id="Group_98"><path id="Path_66" class="cls-4" d="m162.62,511.61c.11.31.23.62.32.94.06.48.49.81.97.76.11-.01.21-.05.3-.1l-.04.02c-.09-.99-.18-1.99-.27-2.98l.18-.03.86,1.92c.46-1.35-.25-2.44-.5-3.73l-2.13-.39c.12,1.32.23,2.48.34,3.65,0,0-.03-.07-.03-.07"/></g></g></g></g><g id="Group_103" class="cls-18"><g id="Group_102"><g class="cls-11"><g id="Group_101"><path id="Path_67" class="cls-4" d="m163.5,519.15c.83-.11,1.18-.47.93-1.07-.49-1.21-1.04-2.4-1.67-3.54-.14-.26-.74-.27-1.33-.45.37,1.8,1.07,3.52,2.06,5.07"/></g></g></g></g><g id="Group_106" class="cls-18"><g id="Group_105"><g class="cls-16"><g id="Group_104"><path id="Path_68" class="cls-4" d="m162.38,504.63l-1.26.35,1.69,2.62c.78.11,1-.47,1.13-1.11.1-.53-.19-1.05-.69-1.25-.32-.19-.61-.41-.91-.62.01,0,.03,0,.04,0"/></g></g></g></g><g id="Group_109" class="cls-18"><g id="Group_108"><g class="cls-37"><g id="Group_107"><path id="Path_69" class="cls-4" d="m169.48,518.57l-.77.51c.66,1.19,1.26,2.27,1.87,3.35l.27-.07c.04-.31.03-.63-.01-.94-.2-.81-.45-1.62-.75-2.4-.08-.2-.45-.29-.67-.43l.07-.02"/></g></g></g></g><g id="Group_112" class="cls-18"><g id="Group_111"><g class="cls-29"><g id="Group_110"><path id="Path_70" class="cls-4" d="m121.53,152.77s0,.02-.01.03v-.03h.01Z"/></g></g></g></g><g id="Group_115" class="cls-18"><g id="Group_114"><g class="cls-20"><g id="Group_113"><path id="Path_71" class="cls-4" d="m131.94,101.78c-.02.44-.09.88-.21,1.3.04-.44.11-.87.21-1.3"/></g></g></g></g><g id="Group_118" class="cls-18"><g id="Group_117"><g class="cls-26"><g id="Group_116"><path id="Path_72" class="cls-4" d="m169.24,101.39c-.35.35-.83.52-1.32.49-.57-.08-1.11-.28-1.6-.58-1.63-.93-3.57-1.13-5.35-.53-.71.26-1.44.44-2.19.53-.46,0-.92-.04-1.36-.14-.06,0-.12-.02-.18-.04-.93-.26-.85-1.74-.85-1.74,1.52.04,3.03-.24,4.43-.81-.2-.74-.38-1.38-.57-2.12-.31.39-.52.64-.79,1-1.94-1.27-4.12-2.13-6.4-2.54-1.7-.31-3.4-.68-5.08-1.03-4.15-.99-8.4-1.54-12.67-1.63-2.08,0-4.15-.19-6.2-.56-1.13-.21-2.2-.64-3.16-1.28-1.71-1.11-2.19-4.03-.97-6.05.74.63,1.5,1.21,2.17,1.87,1.92,1.96,4.51,3.11,7.25,3.24,2.81.14,5.63.5,8.46.6,6.23.38,12.35,1.78,18.13,4.15.14.08.26.18.36.29-.07.26-.14.5-.22.84.94-.32,1.98-.17,2.79.4,1.3.96,2.63,1.87,3.91,2.86.52.36.96.82,1.31,1.35.25.43.29.95.12,1.42"/></g></g></g></g><g id="Group_121" class="cls-18"><g id="Group_120"><g class="cls-5"><g id="Group_119"><path id="Path_73" class="cls-4" d="m112.84,59c-.83.58-1.97.38-2.55-.45-.09-.12-.16-.25-.21-.39-1,.41-1.33.34-2.15-.47-.61.39-1.42.22-1.81-.38-.08-.13-.14-.27-.18-.42-.03-.07-.05-.15-.05-.22.14-1.29-.17-2.62.28-3.9.09-.28.05-.58-.11-.83-.81-1-1.71-1.92-2.7-2.74-1-.82-2.43-.84-3.46-.05-.48.35-.75.21-1-.23-.58-1.04-1.15-2.1-1.73-3.14-.39-.7-.75-1.41-1.18-2.08-.25-.32-.24-.78.03-1.08.98-1.36,1.69-2.89,2.1-4.52.36-1.39.23-2.87-.36-4.18-.12-.24-.28-.46-.49-.63-.64,1.39-.24,2.84-.29,4.25l-.26.17c-.11-.22-.24-.43-.39-.63-1.37-1.65-2.19-3.69-2.34-5.83-.21-2.51-.38-5.05-.34-7.57-.02-3.72.83-7.4,2.49-10.73,2.34-4.63,6.51-8.07,11.51-9.48,6.18-2.03,12.89-1.63,18.79,1.11,5.6,2.59,8.93,7.09,10.4,13.02.88,3.77,1.09,7.66.63,11.5-.12,1.17-.2,2.35-.41,3.5-.29,1.66-1.02,3.21-2.11,4.49-.18.21-.42.37-.69.46.04-.71.12-1.42.12-2.12s-.09-1.4-.14-2.11l-.27-.06c-.17.22-.33.45-.46.7-.76,1.79-.72,3.83.12,5.59.48,1.03,1.02,2.03,1.61,3,.25.31.28.75.07,1.09-.9,1.6-1.77,3.23-2.65,4.85-.09.17-.2.32-.31.48-.26.4-.53.5-.98.18-1.02-.79-2.46-.76-3.45.07-.96.81-1.85,1.68-2.68,2.62-.26.29-.31.71-.13,1.05.16.49.25.99.28,1.5.05.58.03,1.17.04,1.76.1.62-.19,1.24-.72,1.56-.46.25-.93.5-1.36-.04-.98.9-1.12.93-2.17.43-.59,1.23-1.44,1.51-2.74.9-1.06.92-1.92,1.06-2.79.47-.92.59-2.14.4-2.83-.45m13.92-16.49c.53,0,1.06.02,1.59,0,1,0,1.9-.61,2.25-1.55.91-2.02.88-4.34-.09-6.34-.37-.82-1.2-1.35-2.1-1.33-2.17-.1-4.33.18-6.41.81-1.47.37-2.53,1.66-2.61,3.18-.07.77-.07,1.55-.01,2.33.11,1.42.41,1.78,1.81,2.16,1.8.55,3.68.8,5.56.74m-22.23.09c2.02-.01,4.02-.34,5.94-.97.58-.18,1.17-.43,1.32-1.12.27-1.21.28-2.46.04-3.68-.23-1.29-1.18-2.33-2.44-2.68-2.1-.66-4.31-.95-6.51-.86-.88-.01-1.69.49-2.07,1.29-1.09,2.16-1.04,4.72.14,6.84.29.57.86.95,1.5,1.01.7.08,1.4.11,2.1.17m10.97,3.43h.23c.11.19.19.38.25.59.09.52.14,1.05.18,1.58.08,1.03.39,1.29,1.42,1.16.19-.02.38-.06.56-.1.6-.13.81-.37.65-.96-.16-.74-.43-1.44-.78-2.11-.48-.79-.86-1.64-1.13-2.53-.2-.63-.47-1.24-.81-1.8-.31-.52-.56-.51-.88.01-.33.53-.59,1.1-.76,1.7-.23.94-.62,1.83-1.17,2.63-.51.68-.77,1.5-.73,2.35.01.22.19.56.35.6.49.12,1,.18,1.51.19.45.01.68-.26.7-.72.01-.48.05-.95.12-1.42.06-.4.19-.78.29-1.17"/></g></g></g></g></g></g></g></g></g></svg>