<?xml version="1.0" encoding="UTF-8"?><svg id="Lag_1" xmlns="http://www.w3.org/2000/svg" viewBox="0 0 873.11 920.63"><defs><style>.cls-1{fill:#424549;}</style></defs><g id="Group_374"><g id="Group_367"><g id="Group_366"><path id="Path_341" class="cls-1" d="m424.04,828.46h.05c.48-.37.98-.75,1.48-1.1-.53.36-1.01.75-1.52,1.1Zm8.78-6.73l.42.08c.05-.04.11-.08.17-.11l-.58.05v-.02Zm-206.58-44.32h-1.02l-.85-.05c1.25.14,2.51.14,3.76,0-.65.06-1.28.08-1.89.08v-.03Zm3.36-31.75c-.15.04-.31.07-.46.08-.58.08-1.45.25-2.55.42l.05.59c.23-.09.46-.19.73-.28.23-.1.47-.18.72-.25.25-.09.51-.19.75-.25.34-.12.67-.22,1.02-.33h-.22l-.02.02Zm29.31,14.02c-.12.08-.25.14-.37.23.12-.08.25-.14.37-.22l.06-.05s-.05,0-.06.03Zm59.32,16.64c.92-.78,1.81-1.6,2.65-2.47-.87.85-1.74,1.69-2.65,2.47Zm6.64-7.25c-.75,1.02-1.52,2-2.33,2.94.82-.93,1.6-1.89,2.35-2.92.81-1.12,1.66-2.22,2.58-3.28-.92,1.07-1.77,2.16-2.58,3.26h-.02Zm75.56-21.99c-.47.78-.98,1.53-1.53,2.25.55-.72,1.06-1.47,1.53-2.25.03-.04.06-.08.08-.12,0-.03.02-.06.05-.08v-.03c-.06.08-.12.16-.15.25l.03-.02Zm5.47-7.19c.62-.7,1.29-1.41,1.96-2.11-.72.72-1.35,1.41-1.96,2.11Zm50.74-17.01c.28.23.57.43.87.62.15.08.31.19.46.27s.33.19.51.27c-.64-.34-1.25-.73-1.83-1.16h-.01Zm201.74,151.58h0v.03h0s.01-.07.03-.11c-.03.05-.03.08-.05.08h.02Zm-9.53-98.33l.85.12c-.28-.06-.56-.1-.85-.12h0Zm-1.07,79.32c.46.55.95,1.15,1.48,1.83-.49-.68-.99-1.29-1.47-1.84h0Zm-3.47-3.39c.22.19.42.37.68.58h0c-.24-.22-.47-.42-.68-.58h0Zm-1.25-.84l-.08-.05s.04.03.06.05h.03s.04.01.05.03h0l-.05-.05-.02.02Zm-26.45,34.73c-.05.27-.08.51-.14.75s-.11.51-.17.75-.11.51-.17.76c.08-.25.14-.51.2-.76.11-.51.23-1.06.33-1.59.06-.24.1-.48.12-.73-.06.25-.11.55-.17.79v.04Zm14.17-2.15c-.17.25-.36.51-.55.73.19-.23.37-.46.56-.73h-.02Zm-12.92-8.63v.31h0v-.03h0v-.3.02Zm-74.57-140.62h.34c.1-.1.2-.18.31-.27-.21.11-.42.2-.64.28h-.01Zm65.57,76.69c.06.23.11.43.15.64s.08.42.14.65l.08-1.1-.37-.19h0Zm-10.76,32.42c.3-.15.61-.33.9-.51l.05-.42c-.31.33-.62.62-.93.92h-.02Zm-8.93-62.24l-.05-.42-.59-.09.06.06c.06.05.12.09.19.12l.2.17c.07.06.14.12.2.19l.12.09s-.07-.09-.12-.12h-.02Zm-17.15-9.78h0l-.87-.28c.08.03.15.06.23.08.22.07.44.15.65.25h0s.08,0,.11.03l-.12-.08h0Zm-34.74-2.11c-.31.05-.62.09-.93.15.59-.08,1.15-.19,1.74-.27-.27.03-.51.08-.79.11h-.02Zm-59.41,115h0l-.03.03c1.59.25,3.11.46,4.66.67-1.53-.22-3.06-.43-4.6-.7h-.04Zm-188.97-5.04v.03c.08-.02.17-.03.25-.03h-.25Zm-122.24-34.97l.11.48h.56c-.28-.14-.46-.31-.67-.46v-.02Zm-53.74-229.73l.76,3.75.78,3.76h0l-1.57-7.53.04.02Zm83.56,184.5s-.04-.01-.05-.03l.05.05.25.18c-.09-.06-.17-.13-.25-.2Z"/><g id="Group_365"><path id="Path_342" class="cls-1" d="m366.24,310.35h0l9.5,1.66v-.03l-9.48-1.63h-.02Zm-148.72-5.76l6.42-1.73c-2.2.32-4.36.9-6.42,1.73Z"/><path id="Path_343" class="cls-1" d="m366.21,310.36h.03l3.02-4.93-3.05,4.93Z"/><path id="Path_344" class="cls-1" d="m369.26,305.41l-3.02,4.94h-.03l3.05-4.94Z"/><path id="Path_345" class="cls-1" d="m193.48,776.66c-.92-.92-1.77-1.86-2.58-2.77.8.92,1.66,1.87,2.58,2.77Z"/></g><path id="Path_346" class="cls-1" d="m537.26,769.58c-.31.05-.62.09-.93.15.59-.08,1.15-.18,1.74-.27-.27.03-.51.08-.79.11h-.02Zm34.73,2.1h0l-.87-.28c.08.03.15.06.23.08.22.07.44.15.65.25h0s.08,0,.11.03l-.12-.08h0Zm17.15,9.78l-.05-.42-.59-.09.06.06c.06.05.12.09.19.12l.2.17c.07.06.14.12.2.19l.12.09s-.07-.09-.12-.12h-.02Zm8.94,62.23c.3-.15.61-.33.9-.51l.05-.42c-.31.33-.62.62-.93.92h-.02Zm10.06-15.7l-.08.95c.09-.25.19-.48.27-.73,0-.06.03-.08.03-.14l-.23-.08h.02Zm.51-17.49l-.09.65.3.12h0c-.04-.27-.1-.53-.18-.8l-.03.02Zm.2.78c.06.23.11.43.15.64s.08.42.14.65l.08-1.1-.37-.19Zm-131.02,73.3h0l-.03.03c1.59.25,3.11.46,4.66.67-1.53-.22-3.06-.43-4.6-.7h-.04Zm111.72-174.2c.33.05.67.08,1.02.12h0c-.33-.07-.66-.12-1-.15l-.03.03Zm-29.14,1.4h.05c.15-.05.31-.08.46-.12-.14.02-.31.05-.48.1l-.03.03Zm-1.66.25v-.05l-.03.03h0c-.03.08-.05.11-.06.14s-.03.08-.03.08c.56-.15,1.1-.3,1.68-.45-.53.04-1.07.13-1.59.25h.03Zm-48.48-11.01c-.25.11-.48.23-.72.34l-.03.03h.05c.23-.11.45-.25.7-.34.82-.42,1.63-.81,2.46-1.21-.82.39-1.63.78-2.46,1.2v-.02Zm-11.17,6.47h0c.37-.23.75-.48,1.12-.73-.38.22-.75.44-1.12.73Zm149.09,68.57h-.03c.4.56.78,1.09,1.16,1.65-.38-.58-.75-1.11-1.13-1.67v.02Zm.68.08l.85.12c-.28-.06-.56-.11-.85-.14v.02Zm12.41,28.95c-.08-.33-.19-.67-.27-1.02.03.12.06.24.08.36.06.23.11.45.15.68.09.37.19.76.27,1.12s.17.75.27,1.12c-.17-.76-.34-1.53-.51-2.27l.02.02Zm2.25,12.53c0-.08-.01-.17-.03-.25v-.03c-.05-.37-.08-.73-.14-1.09s-.08-.75-.14-1.12h0c-.08-.62-.19-1.25-.28-1.85-.06-.3-.11-.61-.17-.92.15.93.3,1.86.43,2.78.09.75.2,1.49.28,2.24,0,.14.03.27.06.4v-.15l-.02-.02Zm.23,1.95c0-.09,0-.18-.03-.27v-.14c0-.07,0-.14-.03-.2v-.05c0-.16-.03-.31-.06-.46v-.17c0-.07,0-.14-.03-.2h0v-.03c.03.3.08.61.09.92v.17c.03.23.05.45.08.65,0,.07,0,.14.03.2,0-.14,0-.28-.03-.42h-.02Zm.28,3.22c0-.09,0-.19-.03-.28v-.11c0-.22-.03-.43-.05-.65,0-.14-.02-.27-.05-.4v-.2c0-.2-.05-.4-.06-.59,0-.05,0-.1-.03-.14,0,.23.05.45.06.67.03.14.05.28.05.42.03.25.05.46.06.7s.06.58.08.85v-.33l-.03.07Zm6.33-40.65l-.05-.09c.03.07.05.15.05.23,0,0,.03,0,0-.05h0v-.09h0Zm-6.08,44.8c-.05-.98-.09-1.95-.17-2.92.06,1,.09,1.99.15,2.97s.08,1.92.08,2.88c0-.97-.03-1.93-.08-2.91l.02-.02Zm-5.89,47.53h0v.03h0s.01-.07.03-.11c-.03.05-.03.08-.05.08h.02Zm-10.59-19.02c.46.55.95,1.15,1.48,1.83-.5-.7-.99-1.31-1.48-1.85v.02Zm-3.47-3.39c.22.19.42.37.68.58h0c-.25-.25-.48-.44-.68-.62v.04Zm-1.25-.84l-.08-.05s.04.03.06.05h.03s.04.01.05.03h0l-.05-.05-.02.02Zm-.62,1.38h0v.3s0-.08.03-.11v-.19h-.03Zm-.06.33h0Zm-.03.11h0s0,0,0,0Zm0,.09h0v.03h0v-.03Zm.25-2.13c-.03.23-.05.45-.08.68.03-.22.06-.43.08-.67h0v-.02Zm-1.63,9.83h0c-.06.28-.11.56-.19.84.08-.31.17-.61.25-.93.09-.46.22-.95.3-1.41-.09.51-.23,1.02-.36,1.53v-.02Zm-10.14,22.91h0s0-.03,0-.05c0,.03-.03.05-.05.06h.05Zm-.05.05c-.17.25-.36.51-.55.73.19-.23.37-.46.56-.73h-.02Zm-12.92-8.63v.31h0v-.03h0v-.3.02Zm-1.25,10.78c-.05.27-.08.51-.14.75s-.11.51-.17.75-.11.51-.17.76c.08-.25.14-.51.2-.76.11-.51.23-1.06.33-1.59.06-.24.1-.48.12-.73-.06.25-.11.55-.17.79v.04Zm-14.65-2.33h0s-.09.07-.14.09c-.05.04-.1.08-.15.11.04-.04.09-.08.15-.09.06-.02.11-.05.15-.09.12-.09.25-.15.39-.25-.13.07-.26.15-.39.23h-.02Zm-106.16-173.84c1.07-.78,2.16-1.53,3.25-2.27-1.11.7-2.21,1.46-3.27,2.26h.02Zm-3.19,2.41c-.39.28-.75.59-1.12.89.06-.04.12-.09.19-.12.31-.25.62-.48.93-.75s.61-.46.92-.72c-.32.2-.61.43-.94.68l.02.02Zm-1.53,1.18c.12-.09.25-.19.39-.28h0c-.12.05-.25.18-.38.27h0Zm-34.5,9.53c.28.23.57.43.87.62.15.08.31.19.46.27s.33.19.51.27c-.64-.34-1.25-.73-1.83-1.16h-.02Zm-2.44-14.66c-.04.11-.08.22-.11.33.11-.3.25-.59.39-.9-.08.19-.19.39-.27.58h-.02Zm-1.28,5.16c-.08.73-.08,1.46,0,2.19-.06-.73-.06-1.47,0-2.2h0Zm-46.99,26.51c.62-.7,1.29-1.41,1.96-2.11-.71.7-1.35,1.38-1.96,2.1h0Zm-5.47,7.19c-.47.78-.98,1.53-1.53,2.25.55-.72,1.06-1.47,1.53-2.25.03-.04.06-.08.08-.12,0-.03.02-.06.05-.08v-.06c-.06.08-.12.16-.15.25h.03Zm-51.16.25c-.08.08-.19.12-.27.2.09-.06.18-.12.28-.17v-.03h-.02Zm-24.4,21.74c-.75,1.02-1.52,2-2.33,2.94.82-.93,1.6-1.89,2.35-2.92.81-1.12,1.66-2.22,2.58-3.28-.92,1.07-1.77,2.16-2.58,3.26h-.02Zm-6.64,7.25c.92-.78,1.81-1.6,2.65-2.47-.87.84-1.74,1.68-2.64,2.46h0Zm-5.51-28.73h-.45c.19,0,.38,0,.56.03h-.09l-.02-.03Zm-37.21,31.26c-.27-.27-.51-.56-.78-.84.04.04.08.09.11.14.2.25.42.49.65.72.44.44.91.86,1.4,1.25-.48-.42-.93-.82-1.38-1.25v-.02Zm-1.76-2.3s-.03-.05-.05-.08v.06c0,.06.06.09.08.15s.08.14.11.2c.04.03.07.07.09.12-.1-.15-.19-.3-.27-.46h.04Zm-14.85-16.85c-.12.08-.25.14-.37.23.12-.08.25-.14.37-.22l.06-.05s-.04-.02-.06.02v.02Zm-29.31-14.02c-.15.04-.31.07-.46.08-.58.08-1.45.25-2.55.42l.05.59c.23-.09.46-.19.73-.28.23-.1.47-.18.72-.25.25-.09.51-.18.75-.25.34-.12.67-.22,1.02-.33h-.22l-.02.02Zm-3.36,31.75h-1.02l-.85-.05c1.25.14,2.51.14,3.76,0-.65.06-1.28.08-1.89.08v-.03Zm214.07,39.37h0c.36-.25.73-.51,1.09-.78-.37.27-.75.51-1.1.76l.02.02Zm-7.5,4.94l.42.08c.05-.04.11-.08.17-.11l-.58.05v-.02Zm-8.78,6.73h.05c.48-.37.98-.75,1.48-1.1-.52.34-1,.73-1.51,1.09v.02ZM28.22,756.93h0c0-1.38.06-2.77.15-4.17-.11,1.37-.15,2.75-.17,4.17h.02Zm80.39-162.92l.64,3.06c-.37,0-.75,0-1.12.05.39,0,.75-.03,1.13-.03h0l-.65-3.06v-.02Zm-8.04,3.92c-.42.08-.81.15-1.21.25l1.21-.23c.09,0,.22-.05.34-.06-.12,0-.24.01-.35.03v.02Zm-1.6.31c-.27.06-.55.11-.79.19.4-.08.79-.17,1.2-.25-.14.01-.27.04-.4.08v-.02Zm52.53,250.02h-.08c.06.03.12.05.19.06-.05,0-.1-.03-.12-.08v.02Zm137.38,31.29v.03c.08-.02.17-.03.25-.03h-.25Z"/></g></g><g id="Group_371"><g id="Group_368"><path id="Path_347" class="cls-1" d="m196.46,799.34h0s-.04-.01-.05-.03c.02,0,.04.01.05.03Z"/><path id="Path_348" class="cls-1" d="m433.42,821.7c-.05.04-.11.07-.17.11l-.42-.08.58-.05v.02Z"/><path id="Path_349" class="cls-1" d="m441.46,816.03l-1.09.78h0c.37-.25.75-.51,1.1-.78h-.02Z"/><path id="Path_350" class="cls-1" d="m589.15,781.46c-.07-.05-.14-.1-.2-.15l-.2-.17c-.07-.04-.13-.08-.19-.12-.02-.02-.04-.05-.06-.06l.59.09.05.42h.02Z"/><path id="Path_351" class="cls-1" d="m599.04,842.75l-.05.42c-.29.19-.59.36-.9.51.31-.3.62-.59.93-.92h.02Z"/><path id="Path_352" class="cls-1" d="m609.24,811.46l-.08,1.1c-.06-.23-.09-.42-.14-.65s-.09-.42-.15-.64l.37.19Z"/></g><g id="Group_369"><path id="Path_353" class="cls-1" d="m193.48,776.66c-.92-.92-1.77-1.86-2.58-2.77.8.92,1.66,1.87,2.58,2.77Z"/><path id="Path_354" class="cls-1" d="m195.31,778.52c-.14-.12-.27-.25-.42-.39-.03-.03-.05-.06-.08-.08h0l-.14-.14s-.02-.04-.05-.05c-.03-.03-.06-.06-.06-.08.09.07.17.15.25.23v.03s.05.04.08.06c.13.14.26.28.4.4h.01Z"/><path id="Path_355" class="cls-1" d="m229.81,745.64c-.34.11-.67.2-1.02.33-.25.08-.51.15-.75.25s-.48.17-.72.25l-.73.28-.05-.59c1.1-.19,1.98-.34,2.55-.42.2-.03.34-.06.46-.08h.22l.02-.02Z"/><path id="Path_356" class="cls-1" d="m273.63,776.28h0c-.05-.08-.08-.17-.12-.25.05.09.09.17.14.27l-.02-.02Z"/><path id="Path_357" class="cls-1" d="m274.04,777.01s-.06-.08-.09-.12c-.05-.06-.08-.13-.11-.2-.03-.06-.08-.09-.08-.15v-.06s.03.05.05.08c.08.16.17.32.27.46h-.04Z"/><path id="Path_358" class="cls-1" d="m276.91,780.09c-.49-.39-.96-.8-1.4-1.25-.23-.22-.45-.46-.65-.72-.05-.06-.08-.09-.11-.14.25.28.51.58.78.84.43.42.9.84,1.38,1.25v.02Z"/><path id="Path_359" class="cls-1" d="m312.83,747.61c-.19,0-.38,0-.56-.03h.55l.02.03Z"/><path id="Path_360" class="cls-1" d="m349.29,747.35v.03c-.11.05-.2.1-.3.17.08-.08.19-.12.27-.2h.03Z"/><path id="Path_361" class="cls-1" d="m452.9,715.59c-.08-.73-.08-1.46,0-2.19-.06.73-.06,1.46,0,2.19Z"/><path id="Path_362" class="cls-1" d="m454.46,707.68c-.14.3-.27.59-.39.9h0c.05-.09.08-.22.12-.33.08-.19.19-.39.27-.58Z"/><path id="Path_363" class="cls-1" d="m493.55,711.5c-.3.25-.61.46-.92.72l-.93.75-.19.14c-.12.09-.25.18-.39.28.12-.09.25-.2.39-.3l1.12-.89c.3-.25.61-.48.92-.7h0Z"/><path id="Path_364" class="cls-1" d="m499.09,707.5c-1.09.75-2.19,1.49-3.25,2.27,1.07-.8,2.16-1.57,3.25-2.27Z"/><path id="Path_365" class="cls-1" d="m500.21,706.76c-.39.25-.76.5-1.12.75h0c.37-.27.74-.51,1.12-.75Z"/><path id="Path_367" class="cls-1" d="m512.74,699.82c-.82.4-1.63.79-2.46,1.21-.25.09-.46.23-.7.34h-.05l.03-.03c.23-.11.46-.23.72-.34.82-.42,1.63-.81,2.46-1.2v.02Z"/><path id="Path_368" class="cls-1" d="m543.94,734.31c-.11.08-.21.17-.31.27h-.34c.23-.08.42-.17.65-.27Z"/><path id="Path_369" class="cls-1" d="m558.78,711.98v.05h0s.01-.04.03-.05h-.03Z"/><path id="Path_370" class="cls-1" d="m560.94,711.64c-.15.05-.31.08-.46.12h-.05c.17-.05.34-.08.51-.12Z"/><path id="Path_371" class="cls-1" d="m590.58,710.49h0c-.34-.05-.68-.08-1.02-.11.34.03.68.06,1.02.11Z"/><path id="Path_372" class="cls-1" d="m602.37,883.38c-.13.08-.26.16-.39.25-.04.04-.09.08-.15.09-.06.02-.11.05-.15.09-.03,0-.05.03-.08.03l.23-.14c.06-.03.09-.08.14-.09h0c.12-.09.25-.17.39-.23h.01Z"/><path id="Path_374" class="cls-1" d="m630.87,883.73s-.02.04-.03.06h0s.03-.04.05-.06h-.02Z"/><path id="Path_376" class="cls-1" d="m641.34,859.37c-.08.46-.2.95-.3,1.41-.08.33-.15.62-.25.93.08-.28.12-.56.19-.82h0c.12-.51.25-1.02.36-1.53h0Z"/><path id="Path_381" class="cls-1" d="m642.47,852.53c0,.09-.03.19-.03.27,0,.04,0,.08-.03.11v-.27h0v-.08h0l.06-.03Z"/><path id="Path_382" class="cls-1" d="m642.64,851.04c-.03.23-.06.45-.08.67.03-.23.05-.45.08-.68h0v.02Z"/><path id="Path_383" class="cls-1" d="m649.31,777.71c-.39-.56-.76-1.09-1.16-1.65h.03c.37.56.76,1.09,1.13,1.65Z"/><path id="Path_384" class="cls-1" d="m661.78,807.38c-.09-.39-.19-.75-.27-1.12s-.17-.75-.27-1.12c-.05-.23-.09-.45-.15-.68-.03-.12-.06-.25-.08-.36.08.34.19.68.27,1.02.17.76.34,1.53.51,2.27l-.02-.02Z"/><path id="Path_385" class="cls-1" d="m663.52,817.8c-.03-.13-.05-.27-.06-.4-.08-.75-.19-1.48-.28-2.24-.14-.92-.28-1.85-.43-2.78.06.31.11.62.17.92.09.61.2,1.23.28,1.83h0c.06.39.09.76.14,1.13s.09.73.14,1.09v.03c0,.08.03.17.03.25v.15l.02.02Z"/><path id="Path_386" class="cls-1" d="m663.77,820c-.02-.07-.03-.14-.03-.2-.03-.2-.05-.42-.08-.65v-.17c-.03-.31-.08-.62-.09-.92h0v.03c0,.07,0,.14.03.2v.17c.03.17.05.33.06.46v.05c0,.07.01.14.03.2v.14c0,.09,0,.18.03.27,0,.14.03.27.03.42h.02Z"/><path id="Path_387" class="cls-1" d="m663.99,822.46c0-.06,0-.13-.03-.19,0-.23-.03-.47-.06-.7,0-.14,0-.28-.05-.42v-.28c0-.13-.02-.26-.05-.39,0,.05,0,.1.03.14,0,.19.05.39.06.59v.2c0,.12.03.25.05.4s.05.43.05.65v-.02Z"/><path id="Path_388" class="cls-1" d="m664.35,829.86c0-.95-.05-1.91-.08-2.88s-.09-1.98-.15-2.97c.08.98.12,1.95.17,2.92s.06,1.95.08,2.91l-.02.02Z"/><path id="Path_389" class="cls-1" d="m670.35,782.21v.03h0v.06c0-.08-.01-.16-.05-.23,0,.05.05.06.05.09v.05Z"/></g><g id="Group_370"><path id="Path_390" class="cls-1" d="m28.39,752.74c-.09,1.4-.14,2.78-.15,4.18h0c0-1.41.06-2.81.17-4.18h-.02Z"/><path id="Path_391" class="cls-1" d="m151.6,848.3c-.06-.02-.13-.04-.19-.06h.08l.11.06Z"/></g><path id="Path_392" class="cls-1" d="m109.24,597.05c-.37,0-.75,0-1.12.05.39,0,.75-.03,1.13-.03h0l-.02-.02Zm3.67,17.74l.76,3.75.78,3.76h0l-1.57-7.53.04.02Zm-13.95-16.59c-.27.06-.55.11-.79.19.4-.08.79-.17,1.2-.25-.14.01-.27.04-.4.08v-.02Zm1.6-.31c-.42.08-.81.15-1.21.25l1.21-.23c.09,0,.22-.05.34-.06-.12,0-.23.02-.35.05h0Z"/></g><g id="Group_373"><path id="Path_393" class="cls-1" d="m114.48,622.36h0l-.79-3.78h0l.79,3.78Z"/><g id="Group_372"><path id="Path_394" class="cls-1" d="m642.39,852.96h0Zm-.03.22h0v.03h0v-.03Zm0,0h0v.03h0v-.03Zm0,0h0v.03h0v-.03Zm0,0h0v.03h0v-.03Zm0,0h0v.03h0v-.03Zm-241.64-106.57v.03h0v-.03Zm53.01-37.21c-.06.2-.11.39-.17.58.09-.33.22-.65.33-1-.06.14-.11.28-.15.42h0Zm4.73,14.65c.17.08.34.15.51.25.1.05.2.08.31.11-.26-.11-.56-.23-.82-.38v.02Zm1.53.61s.04.02.06.03c.1.05.21.07.33.08-.1-.03-.22-.08-.36-.11h-.03Zm-.39-.12h0s.07.04.11.05c-.03,0-.06-.02-.09-.04h-.02Zm49.74-23.09h0Zm26.85,68.28h-.11c.08,0,.16-.02.23-.05h-.09l-.04.05Zm71.95,58.23h0l.23.09-.23-.09Zm34.22,25.33h0Zm0-.11h0v.03h0v-.03Zm0-.2h0Zm.06-.4h0v.08h0v.28s.01-.08.03-.11c0-.09,0-.18.03-.27h0l-.06.02Zm20.75-37.41c-.09-.61-.19-1.23-.3-1.83.09.61.2,1.23.28,1.83h0c.06.39.09.76.14,1.13s.09.73.14,1.09c-.08-.75-.17-1.49-.27-2.24v.02Zm.4,3.25v.08h0v-.08Zm.23,2.25v.39c0,.07,0,.14.03.2,0-.2-.05-.4-.06-.59h.03Zm6.53-38.39v.05h0s.03,0,.03-.05h-.03Zm0-.05v.03h0v-.03Zm65.03-258.15h0s.04.01.05.03h.05s-.05-.02-.08-.03h-.02Zm-93.03,329.12h0v.03h0v-.03Zm0,0h0v.03h0v-.03Zm0,0h0v.03h0v-.03Zm0,0h0v.03h0v-.03Zm0,0h0v.03h0v-.03Zm0,0h0v.03h0v-.03Z"/><path id="Path_395" class="cls-1" d="m870.7,406.89c-3.84-11.15-11.97-20.31-22.59-25.44l-44.61-21.64c-.85-2.49-1.76-4.89-2.71-7.2.69-.04,1.37-.14,2.04-.3,7.72-1.57,12.97-8.75,12.14-16.58-2.98-18.12-10.51-35.19-21.88-49.62,1.39-.1,2.76-.37,4.09-.82,6.29-2.22,10.43-8.25,10.25-14.91-.08-2.63-1.63-23.9-31.26-42.12,5.36-4.22,7.29-11.48,4.72-17.8-5.89-13.06-16.17-23.64-29.04-29.92,1.04-3.09,1.07-6.43.09-9.55-3.04-8.25-8.61-15.32-15.91-20.21.76-4.2-.27-8.52-2.83-11.93-3.29-4.03-7.37-7.34-11.99-9.73.32-5.64-2.5-11.01-7.32-13.95,1.16-.45,2.33-.97,3.5-1.49,59.82-27.03,64.39-61.86,64.72-65.73.71-8.43-5.54-15.85-13.97-16.56-5.56-.47-10.93,2.11-14.03,6.75-1.45,2.13-36.43,51.77-119.13,29.96-19.98-5.26-38.54-9.31-55.67-12.16,14.63-7.23,26.69-18.77,34.55-33.07,4.16-7.37,1.57-16.71-5.8-20.88-6.39-3.61-14.44-2.18-19.2,3.4l-.03.05c-1.2,1.16-19.84,18.28-81.51,18.28h-5.28c-60.64,0-101.57,13.44-121.67,39.96-10.09,1.27-20.08,3.24-29.89,5.92-13.42,2.47-23.92,12.98-26.37,26.4-1.26,1.23-2.63,2.58-3.99,3.95-9.38-1.31-18.94-.43-27.93,2.58-12.78-5.71-26.99-7.42-40.76-4.91-1.12-.89-2.12-1.92-2.97-3.06-2.32-8.14-10.8-12.85-18.94-10.53-4.88,1.39-8.75,5.11-10.34,9.92-2.77,8.64-3.23,17.85-1.34,26.72-6.14,5.65-9.76,13.52-10.06,21.86.03,7.29,2.95,14.26,8.12,19.41.05,2.36.2,5.04.51,7.95-1.38-1.53-2.87-2.98-4.43-4.32-9.81-8.46-25.08-19.41-44.63-17.21-17.24,1.95-33.8,13.96-50.64,36.73-5.12,6.74-3.8,16.35,2.93,21.47,6.58,5,15.94,3.88,21.15-2.53,2.21-2.63,22.18-25.45,40.31-13.09,9.27,6.34,9.25,10.54,9.19,20.65-.08,11.24-.17,28.18,19.13,41.58,12.58,8.87,27.6,13.61,42.99,13.54,7.27-.03,14.51-.95,21.55-2.74-1.36,6.68-1.11,13.59.73,20.15l-49.42,3.28c-1.62.1-3.24.3-4.84.59l-9.19,1.09-.31.06-6.25.89c-3.05.43-5.9,1.78-8.17,3.87l-.37.31c-1.53,1.32-2.91,2.55-4.06,3.58-9.04,7.74-16.65,17.02-22.47,27.4-28.91-9.67-58.41-11.6-73.94-4.4-2.24,1.04-4.38,2.3-6.39,3.75-6.12.18-12.14,1.66-17.65,4.32l-.81.36c-6.26,2.8-11.48,7.51-14.91,13.45-1.8.57-3.55,1.28-5.24,2.13-.09.03-.17.06-.25.11-8.91,4.92-15.34,13.37-17.71,23.28-2.35,10.6-2.44,21.57-.28,32.2,0,.09.02.18.05.27.44,2.1,1.16,4.13,2.15,6.03-.4,13.74,1.28,35.28,30.17,51.11l25.13,121.42c-.51.17-1.02.31-1.57.46-1.06.31-2.08.65-3.13,1.02-.7.25-1.41.51-2.1.78-.46.15-.91.32-1.35.51-.73.27-1.45.59-2.19.92-1.57.65-3.11,1.38-4.71,2.21-.13.05-.26.11-.37.19-.64.3-1.29.65-1.96,1.02h0c-.37.22-.72.4-1.07.59l-.09.06c-.3.15-.67.36-.95.55s-.59.37-.9.51c-.04.03-.09.06-.14.08-.81.46-1.6.98-2.43,1.53s-1.71,1.1-2.55,1.68c-.76.51-1.53,1.09-2.24,1.59-1.4,1-2.84,2.11-4.43,3.41-.09.08-.2.15-.3.25-.34.27-.65.55-1,.82l-.67.51c-.08.08-.17.14-.25.23-1.53,1.31-2.83,2.46-4.03,3.58l-.22.22-.51.51c-.42.39-.82.76-1.25,1.16-.64.62-1.29,1.28-1.91,1.91l-1.89,1.96c-.58.59-1.12,1.18-1.66,1.79-.3.31-.59.64-.89.97l-.58.61s-.15.17-.23.25c-2.25,2.55-4.42,5.18-6.39,7.76-1,1.25-1.95,2.55-2.91,3.87s-1.88,2.58-2.78,3.92c-.82,1.23-1.65,2.44-2.41,3.61-.62.92-1.23,1.86-1.79,2.75-.62.97-1.23,1.95-1.73,2.77-.67,1.12-1.34,2.24-1.99,3.31-.03.06-.06.11-.08.14l-.37.65c-.2.36-.4.7-.59,1.02l-.3.51c-.08.14-.14.25-.22.4l-.85,1.53-.34.61c-.3.55-.58,1.07-.84,1.57-.15.27-.31.51-.45.81-.05.07-.08.14-.11.22l-.23.42c-.06.12-.14.25-.2.37l-.87,1.73c-.39.76-.75,1.48-1.12,2.22l-.92,1.8c-.06.12-.08.19-.12.28-.11.25-.25.51-.34.73l-.08.17c-.08.13-.15.26-.2.4-.15.34-.3.64-.42.9l-.06.14c-.19.39-.37.78-.58,1.28-1.02,2.22-1.6,3.62-1.99,4.6-.27.7-.46,1.31-.62,1.83-6.69,19.38-10.21,39.7-10.43,60.2v1.67c.06,1.59.09,3.11.19,4.6l.06.59c0,.27.03.51.05.79l.17,2.11c.03.45.08.84.11,1.2l.08.51c.08,1.09.23,2.18.36,3.19l.05.27c.01.07.03.15.03.22l.06.4c.09.64.19,1.25.27,1.82.12.72.25,1.4.37,2.13,1.15,6.61,3.12,13.06,5.88,19.18.34.76.7,1.53,1.02,2.16.23.45.45.85.65,1.23.31.59.65,1.16.97,1.65.11.19.22.36.33.51s.25.4.43.65c.78,1.16,1.68,2.23,2.68,3.2,5.9,5.8,14.69,7.51,22.33,4.35,1.55-.62,3.01-1.44,4.35-2.44.34.61.67,1.2.98,1.77l.82,1.46s.08.15.11.2c.87,1.53,1.74,3.02,2.59,4.42.76,1.31,1.57,2.58,2.29,3.7,1.53,2.38,3,4.6,4.4,6.64.55.81,1.07,1.59,1.59,2.27,2.58,3.64,5.11,7.04,7.59,10.09.51.61,1,1.21,1.53,1.82l.7.89c1.09,1.28,2.15,2.55,3.19,3.76.87.98,1.73,1.95,2.61,2.92.15.19.31.38.48.55.84.93,1.66,1.85,2.55,2.77s1.85,1.93,2.83,2.94l1.02,1.06c.59.61,1.18,1.2,1.74,1.73.59.61,1.21,1.2,1.83,1.79.68.67,1.37,1.32,2.08,1.99l.15.15c.51.48,1.07,1,1.62,1.49l.75.68c.72.68,1.45,1.34,2.16,1.93.62.59,1.26,1.15,1.91,1.68l.64.59.17.12c8.08,6.93,16.65,13.26,25.64,18.94l1.37.87c.12.08.37.25.51.34l1.18.72s.08.06.11.06c.16.12.33.24.51.34l4.34,2.55c.07.02.13.06.19.11l.33.19c.4.22.79.42,1.2.65l.51.28s.08.07.12.09c1.65.92,3.25,1.77,4.68,2.55,4.31,2.25,8.6,4.32,12.77,6.16.17.08.36.14.55.23l.42.17c.27.11.51.23.76.33l.55.23s.09.05.14.06c1.31.56,2.5,1.02,3.54,1.41.59.25,1.16.45,1.73.65l2.94,14.23c4.97,24.03,28.47,39.48,52.5,34.52l91.69-18.92h.09c1.1-.09,2.19-.19,3.29-.3.3,0,.62-.05.97-.08,1.4-.12,3.16-.31,4.91-.55,1.34-.14,2.74-.3,4.26-.55,4.68-.62,9.05-1.29,13.03-2.04l1.26-.25c.87-.14,1.71-.3,2.55-.46.84-.17,1.76-.34,2.63-.51l.56-.11c.11-.03.23-.06.34-.08l1.1-.25c.27-.08.51-.11.75-.15l.51-.11c3.06-.68,6.06-1.41,8.99-2.16,1.6-.39,3.2-.81,4.71-1.25,1.07-.33,2.15-.59,3.35-.95l.22-.06c.62-.17,1.26-.39,1.98-.58,1.45-.43,2.91-.89,4.4-1.37.39-.09.76-.23,1.15-.36l.46-.14c.19-.06.37-.11.55-.15l1.41-.45c.06-.03.12-.06.19-.08l.37-.11c.27-.11.58-.2.85-.3l112.55-23.3c-3.38.84-6.49,2.52-9.03,4.88v.03c-9.16,6.84-11.04,19.8-4.2,28.96,3.24,4.34,8.05,7.23,13.4,8.07.07.02.13.04.2.05l1.41.2c1.21.19,2.41.34,3.51.48,4.73.64,9.66,1.15,14.63,1.57h.12c1.35.12,2.69.22,4.01.27.46.03.92.08,1.34.08,1.32.08,2.61.15,3.81.2,1.59.06,3.16.09,4.66.12,3.86.08,7.92.06,12.1-.08,1.31.16,2.59.54,3.78,1.1.8.37,1.57.8,2.3,1.28.08.05.15.11.25.15.56.36,1.09.7,1.62,1,.4.23.82.42,1.25.62.34.15.68.31,1.02.43l.43.15c.08.05.17.09.27.12.14.06.28.1.42.14.39.15.76.3,1.13.42.02.02.05.03.08.03,1.17.44,2.36.81,3.58,1.12l.72.2c.08.04.17.07.27.08,7.54,1.97,15.32,2.87,23.11,2.66.51,0,1.02,0,1.59-.05,4.85-.18,9.68-.74,14.44-1.68.13-.04.27-.06.4-.08l2.44-.51c.11-.03.23-.05.34-.08l.31-.08c1.07-.25,2.43-.59,3.78-.98l1.83-.51s.09-.03.14-.05c.27-.08.51-.15.78-.25.12-.03.25-.08.36-.11l2.27-.75c.06-.03.12-.05.19-.06.73-.25,1.46-.51,2.04-.75s1.34-.46,1.98-.75c.11.19.2.33.28.46.14.22.28.42.43.64.13.19.27.38.42.56l.58.76s.05.05.06.06l.27.33c.2.23.42.45.67.7.06.08.13.15.2.22,0,.04.04.07.08.08.2.2.56.56,1.06.98.2.17.37.28.51.42s.39.3.56.43.48.36.79.58c.84.6,1.74,1.11,2.68,1.53l.46.22.58.25c.62.28,1.26.52,1.91.72.51.15,1.02.3,1.53.4.19.06.37.08.56.12.18.05.37.08.56.09h.03c.14.03.28.05.43.08.47.08.95.13,1.43.15.51.05,1.02.06,1.53.06.59,0,1.21-.03,1.8-.08.87-.08,1.73-.21,2.58-.4.56-.11,1.12-.26,1.66-.43.37-.11.76-.23,1.12-.37.06-.03.12-.05.19-.08s.06,0,.08-.03c.04,0,.09-.02.12-.05h0c.2-.08.42-.17.61-.25,2.66-1.1,5.22-2.42,7.66-3.95.19-.11.36-.23.51-.33l.14-.09h.05c.12-.08.27-.17.4-.25h.03s.01-.04.03-.05h.05s.04-.01.05-.03c2.04-1.31,4.01-2.73,5.89-4.24.31-.25.64-.51,1.06-.89,2.75-2.28,5.33-4.78,7.7-7.46.05-.06.11-.08.15-.14l.25-.3c.31-.36.62-.73.95-1.07h0l.23-.3c.27-.33.56-.65.81-1.02.36-.38.68-.79.97-1.23.19-.23.36-.43.51-.67l.17-.25.05-.03c.37-.45.71-.92,1.02-1.41.48-.68.98-1.4,1.43-2.04,4.17,1.95,8.86,2.49,13.36,1.53,7.04-1.56,12.77-6.65,15.13-13.47,0-.05.22-.61.51-1.65.05-.13.09-.26.12-.39.03-.14.08-.27.12-.42l.12-.51c.19-.7.43-1.59.7-2.58.23-.82.45-1.79.73-2.84l.15-.72c.03-.07.05-.13.06-.2l.05-.22s.03-.09.03-.14c.03-.08.05-.17.08-.25s.06-.23.08-.34c.19-.82.37-1.7.58-2.58l.09-.55c.98-4.78,1.79-9.73,2.38-14.59.2-1.48.37-2.99.51-4.56,0-.15.02-.3.05-.45,0-.11,0-.22.03-.33l.34-4.26c.03-.28.05-.56.06-.84l.08-1.77c.08-.93.09-1.89.14-3.06l.08-2.52c.05-3.23,0-6.41-.12-9.53l-.12-2.47c0-.51-.05-1.02-.09-1.59s-.09-1.13-.14-1.71l81.82-168.54c8.6-.57,16.67-4.36,22.59-10.62,1.21-1.27,2.31-2.65,3.28-4.12,6.46-1.71,12.23-5.37,16.53-10.48l.51-.62s.11-.14.17-.2c3.82-4.4,6.68-9.54,8.41-15.1,1.78-1.45,3.43-3.06,4.91-4.82,11.3-13.28,16.42-42.95,12.72-73.85-.25-2.04-.51-3.98-.81-5.86l-1.15-12.77,35.1-72.37c5.2-10.58,5.94-22.81,2.04-33.94l.06-.02ZM504.88,39.03c75.17.51,94.99-22.92,95.58-23.64-20.99,37.71-66.52,37.41-91.44,37.75-15.94.82-31.13,7-43.12,17.54-8.99-.87-19.72-.85-19.72-.85,10.56-11.29,25.16-12.13,28.09-14.81,2.93-2.68.9-3.06-7.71-2.55-8.62.51-40.28,16.34-40.28,16.34-11.69-1.24-23.5.46-34.37,4.94,10.11-13.92,36.6-35.3,112.95-34.73h.02ZM218.15,240.54c-26.36-18.35,2.38-41.28-28.41-62.31-29.33-20.05-57.94,12.63-60.6,15.83,29.37-39.71,50.92-35.75,72.86-16.92,21.94,18.83,5.26,55.16,40.68,61.16,35.42,6,52.56-14.01,72.07-33.98,19.51-19.97,36.9-20.66,36.9-20.66-12.95,3.87-23.39,13.5-28.28,26.11.36-.51,6.39-9.13,30.88-16.54,24.37-7.4,36.14,4.09,36.96,4.94-1.13-.78-21.52-13.96-65.7,21.07-45.45,36.08-80.96,39.61-107.34,21.29l-.03.02Zm-143.43,195.41c-.45-.25-.9-.51-1.31-.79s-.84-.51-1.25-.78c-.7-.45-1.35-.92-1.98-1.37-.11-.07-.21-.15-.31-.23-.36-.25-.72-.51-1.02-.79-1.49-1.16-2.88-2.46-4.14-3.87-.17-.16-.32-.33-.45-.51-.15-.16-.29-.33-.42-.51-.22-.24-.42-.5-.59-.78-.57-.77-1.1-1.57-1.57-2.41-.2-.36-.39-.7-.56-1.07-.03-.04-.05-.08-.06-.12-.17-.36-.34-.7-.48-1.06-.29-.69-.55-1.41-.76-2.13-.08-.28-.17-.59-.25-.87v-.05c-.05-.15-.08-.3-.11-.45-.08-.3-.14-.61-.22-.92s-.12-.72-.2-1.09-.11-.73-.14-1.09c-.05-.3-.09-.61-.11-.92-.05-.36-.07-.71-.08-1.07-.18-3.08-.17-6.17.03-9.25.1-2.77.5-5.53,1.21-8.21.11-.42.25-.85.37-1.25.07-.25.15-.5.25-.75.11-.38.25-.76.42-1.12.2-.48.39-.93.59-1.4.56-1.23,1.24-2.4,2.04-3.48.22-.28.45-.58.67-.84.27-.34.57-.67.89-.97.25-.14.52-.25.79-.33.21-.07.42-.1.64-.11.35-.06.72-.06,1.07,0,1.52.16,2.99.66,4.31,1.45.42.25.84.51,1.2.75.18.12.35.25.51.39-.28,4.34-1.04,8.64-2.27,12.81-.43,1.71-.98,3.51-1.59,5.51-.19.58-.37,1.15-.56,1.76-.14.51-.3.98-.42,1.46-.85,3.07-1.17,6.26-.95,9.44,0,.36.06.67.08,1,.3,2.64,1.01,5.21,2.11,7.62l.45.95c.06.09.09.19.14.27.2.4.42.75.62,1.13.2.37.42.73.67,1.07.22.31.43.67.67,1,.19.25.36.48.55.72.07.11.14.21.23.3.39.53.81,1.04,1.26,1.53.03.06.08.08.09.11.3.34.61.65.89.95.09.08.19.19.28.25.77.79,1.61,1.52,2.5,2.18-.81-.42-1.59-.81-2.33-1.23h0c-.46-.25-.93-.55-1.4-.79v-.02Zm30.64,9.45c-2.04-1.07-3.93-2.13-5.72-3.14-.45-.25-.92-.51-1.37-.78-1.68-1-3.25-1.96-4.69-2.95-.28-.19-.54-.37-.79-.56-.93-.65-1.8-1.29-2.66-1.99l-.76-.62c-.42-.36-.82-.72-1.23-1.07-.59-.56-1.15-1.09-1.7-1.68-.4-.42-.79-.84-1.16-1.28-1.65-1.94-3.06-4.08-4.2-6.36-.17-.34-.34-.68-.51-1.02s-.33-.7-.46-1.06c-.46-1.07-.9-2.21-1.29-3.41v-.06c-.59-1.83-1.13-3.81-1.6-5.94-.14-.59-.25-1.2-.34-1.8,0-.06-.03-.09-.03-.15-.08-.45-.14-.89-.19-1.32-.03-.23-.05-.45-.08-.68-.03-.43-.08-.89-.09-1.32v-.58c-.03-.55-.05-1.1-.05-1.63.04-4.14.62-8.26,1.73-12.26.08-.27.14-.56.23-.81h0c.01-.07.03-.15.06-.22.11-.39.22-.75.34-1.13.88-2.88,1.97-5.69,3.25-8.41.25-.51.51-1.06.75-1.53.04-.09.08-.18.14-.27,1.32-3.11,3.96-5.48,7.2-6.46.36-.06.73-.08,1.1-.08.21,0,.42,0,.62.03h0c.17.01.34.04.51.08.13.01.26.04.39.08.17.05.36.08.51.14,1.04.31,2.03.75,2.95,1.32.81.49,1.57,1.04,2.29,1.65.05.03.08.05.09.08.15.94.23,1.89.22,2.84,0,.36,0,.76-.03,1.12,0,.29-.03.57-.06.85-.13,1.48-.36,2.95-.67,4.4-.08.42-.19.82-.28,1.26s-.22.89-.34,1.34c-1.07,3.83-2.4,7.59-3.99,11.24-.94,2.22-1.74,4.49-2.38,6.81-4.3,14.25,1.58,29.61,14.3,37.33h0Zm18.81-72.58c.47,1.27.85,2.57,1.15,3.89.11.51.25,1.1.36,1.68.08.46.17.95.25,1.45.03.13.05.26.06.39.11.67.2,1.38.3,2.1.08.62.12,1.28.2,1.93,0,.14,0,.27.03.4.03.37.06.75.08,1.13.38,5.91.4,11.83.08,17.74-1.48,30.98,20.46,38.16,20.46,38.16-1.23.11-2.41.15-3.58.15-.51,0-.97,0-1.43-.03s-.97-.06-1.45-.08-.9-.06-1.32-.11-.84-.09-1.25-.15c-1.53-.23-3.05-.56-4.54-.98-.34-.08-.67-.18-1-.3-.39-.11-.78-.25-1.15-.42-.59-.19-1.13-.42-1.71-.65s-1.21-.55-1.8-.84l-.89-.46s-.05-.03-.08-.05c-.47-.25-.93-.52-1.37-.81-.42-.23-.81-.48-1.21-.76-.06-.03-.11-.07-.17-.11-.4-.27-.78-.55-1.16-.84-.48-.36-.98-.75-1.43-1.15-.81-.72-1.59-1.43-2.35-2.19-.39-.36-.75-.74-1.09-1.15-.37-.39-.72-.79-1.06-1.2-.69-.82-1.33-1.67-1.93-2.55-.33-.42-.61-.84-.92-1.29,0-.03-.05-.06-.08-.09-.86-1.27-1.64-2.6-2.35-3.96-.51-.92-.97-1.86-1.41-2.81,0-.03-.03-.06-.06-.08-.2-.42-.4-.87-.58-1.34-.42-.92-.79-1.88-1.16-2.84-.19-.46-.36-.95-.51-1.41-.78-2.19-1.41-4.37-1.95-6.49-.08-.36-.17-.65-.23-.98-1.01-4.09-1.64-8.27-1.88-12.47-.06-1-.08-1.98-.08-2.94,0-.82,0-1.65.06-2.44s.08-1.59.15-2.36.15-1.57.27-2.32.23-1.48.36-2.21c.11-.59.22-1.15.36-1.7.05-.06.08-.09.11-.14s.11-.2.2-.31c.06-.13.14-.25.22-.37.17-.25.36-.51.58-.79,1.07-1.43,2.25-2.76,3.53-3.99h0c.23-.22.43-.42.68-.62,1.6-1.48,3.5-2.6,5.57-3.28.39-.09.78-.12,1.18-.08.15,0,.3.03.45.08.17.03.36.08.55.12s.37.11.58.17c.21.06.41.14.61.23.22.08.43.17.64.28.49.21.97.44,1.43.7h0l.27-.06.06.23h0c.75.4,1.53.89,2.33,1.41l.02-.06Zm4.39,3.22h-.06v-.08h0v-.04s.05.04.08.06h-.03v.03l.02.03Zm11.52,10.76c2.22,2.48,4.97,4.42,8.05,5.67h.06c1.28.63,2.67,1.04,4.09,1.2,1.48.14,2.86-.74,3.35-2.15l.03-.03c.19-.42.34-.86.45-1.31.42-1.83.59-3.71.51-5.58,0-.28,0-.57-.03-.85-.03-.3-.05-.58-.06-.87s-.05-.58-.06-.84-.06-.56-.08-.81c-.04-.2-.06-.39-.08-.59h0v-.22c-.08-.76-.2-1.53-.28-2.13-.22-1.53-.42-2.52-.46-2.66.09.08.18.17.25.27,7.09,9.27,9.48,21.3,6.47,32.57-1.71,6.06-4.57,11.73-8.41,16.72,0,0,2.81-15.16-6.27-23.07-5.36-4.99-9.1-11.48-10.73-18.63,1,.98,2.04,2.04,3.06,3.13h0l.19.19h-.06Zm5.21,67.93l-.03.03-12.77,29.01h0l-23.21-21.57v-.03l8.78-19.92v-.03c.82.62,1.63,1.2,2.49,1.74,1.3.82,2.65,1.58,4.03,2.25.42.2.81.39,1.23.58.85.37,1.73.73,2.59,1.06.08.03.14.05.2.08.46.17.92.33,1.38.46,1.44.45,2.91.82,4.39,1.12,1,.19,2.01.37,3.06.51.51.06,1.02.11,1.53.17s1.06.08,1.57.11l4.81,4.45-.07-.02Zm57.01,448.96c-1.96.39-3.95.59-5.94.61-13.78-.07-25.63-9.76-28.44-23.25l-4.66-22.58c3.69,1.76,8.26,3.83,13.73,5.83l2.94,14.24c1.87,9.12,10.77,15,19.89,13.13,0,0,.02,0,.03,0l44.05-9.1h.08l.27.05c.87.15,1.76.28,2.55.39,1.98.31,4.01.58,6.22.82,2.66.31,4.9.51,6.98.68h0c.13,0,.26,0,.39.03,1.07.08,2.15.17,3.23.22h.03c.25.03.51.05.75.06h.19c1.25.09,2.49.17,3.75.22.25.03.5.04.75.03,1.37.06,2.75.09,4.04.11,5.41.11,10.84,0,15.86-.25h.46c1.49-.08,2.97-.19,4.56-.31.25,0,.46-.03.64-.03.11,0,.23,0,.34-.03l-92.61,19.14-.06-.02Zm155.81-32.18c.82-.28,1.63-.58,2.43-.85l3.19-1.13s.08-.03.12-.05c.2-.06.39-.13.58-.22,1.15-.42,2.29-.85,3.42-1.29.75-.28,1.49-.58,2.22-.87,1.02-.39,2.03-.79,3.03-1.22l.51-.22c.85-.36,1.73-.73,2.55-1.09l.81-.33s.14-.08.22-.11c1.02-.43,2.04-.9,3.03-1.34.06-.03.12-.06.19-.08,1.12-.51,2.19-1,3.2-1.49,1.59-.75,3.06-1.48,4.51-2.19v-.03c1.02-.48,1.98-1,2.92-1.53.08-.04.16-.08.25-.11,2.71-1.45,5.24-2.89,7.51-4.27l.27-.19,1.49-.92c1.15-.72,2.21-1.41,3.22-2.13.22-.14.42-.3.62-.45l85.97-17.74-6.06-1.02h0l-59.52,3.95,2.08-1.53c.12-.09.25-.17.39-.25.98-.75,1.98-1.48,3.06-2.25l1.65-1.2c.72-.51,1.43-1.02,2.13-1.53l.37-.28c2.04-1.45,4.12-2.94,6.25-4.43.85-.61,1.73-1.23,2.61-1.83.08-.07.16-.14.25-.19.03,0,.05-.05.08-.06.43-.3.9-.61,1.32-.92l.62-.42c.75-.51,1.49-1.02,2.25-1.53,0-.02.01-.03.03-.03l5.11-3.47c.11-.06.21-.13.31-.2.36-.25.72-.46,1.06-.73l.81-.51.14-.11c.19-.09.36-.22.55-.33,1-.68,2.04-1.37,3.03-2.04.08-.06.15-.08.23-.14l.37-.25c.11-.06.22-.13.33-.2.04-.03.09-.06.14-.08.62-.42,1.25-.84,1.88-1.23,1-.62,1.98-1.26,2.92-1.86.11-.05.21-.13.3-.22.02,0,.05-.01.06-.03.93-.59,1.89-1.16,2.84-1.76l7.7,3.73,14.96,7.26,3.53,1.71,7.04,3.42,4.09,1.98h0l6.69,3.23,4.46,2.19h.03l1.77.87,2.81,1.37,3.06,1.49,16.76,8.13,30.28,14.71c-1,.48-2.04.95-3.14,1.43-1.02.46-2.04.92-3.06,1.34l-.84.37c-.08.05-.2.08-.28.12-.95.39-1.91.75-2.91,1.13-.18.07-.35.15-.51.23-.08.03-.12.03-.15.08h0c-.87.31-1.74.64-2.58.98l-1.63.59-44.53-21.61c-.73.22-1.45.4-2.19.56l-151.17,31.24-.04-.03Zm178.07,14.41c-5.05.65-10.36,1.12-15.91,1.34-1.15.05-2.3.08-3.45.08s-2.32.03-3.5.03c-1.53,0-3.03,0-4.6-.03-1.38,0-2.77-.06-4.17-.12-1.13-.05-2.27-.08-3.42-.15-.43,0-.87-.06-1.31-.08-1.25-.06-2.49-.15-3.75-.25-1.18-.09-2.4-.19-3.58-.33-.76-.05-1.53-.11-2.32-.22-2.55-.25-5.11-.56-7.73-.9-1.53-.2-3.06-.42-4.66-.67l.03-.03h0c.11,0,.23-.01.34-.03.15-.03.3-.04.45-.05.21-.01.43-.04.64-.08.12,0,.27-.03.42-.05l.87-.09c.33-.07.66-.11,1-.12.21-.04.42-.07.64-.08.2-.05.4-.07.61-.08.42-.06.87-.11,1.35-.19.24-.05.49-.08.73-.09.27-.03.51-.08.76-.11.78-.09,1.6-.23,2.5-.37.64-.08,1.32-.2,2.01-.3.58-.08,1.16-.17,1.76-.27l4.34-.7,2.16-.37c.78-.12,1.57-.25,2.38-.42,4.24-.76,8.91-1.65,13.86-2.72.67-.12,1.37-.27,2.04-.42.22-.05.42-.08.62-.14,1.23-.27,2.46-.51,3.72-.82,2.91-.67,5.92-1.38,8.94-2.16,1.63-.42,3.28-.85,4.94-1.31.92-.22,1.79-.46,2.71-.75,1.53-.42,3.06-.85,4.63-1.32,1.02-.3,2.04-.61,3.09-.92.59-.19,1.21-.37,1.8-.58.93-.3,1.88-.59,2.81-.92l1.1-.37c1.18-.39,2.33-.78,3.5-1.22,1.53-.51,3.06-1.07,4.56-1.63l.37-.14c.9-.31,1.76-.65,2.63-1.02.17-.06.34-.14.51-.2h0c.59-.25,1.18-.45,1.76-.7.73-.31,1.45-.59,2.18-.9.97-.42,1.93-.84,2.91-1.25.23-.11.43-.22.67-.31h0c.75-.31,1.43-.65,2.16-1,.93-.42,1.86-.87,2.78-1.34.72-.34,1.41-.7,2.1-1.06.22-.09.42-.22.62-.33.75-.37,1.48-.76,2.21-1.2,4.24-2.27,8.3-4.86,12.13-7.76.59-.45,1.2-.92,1.77-1.41.3-.23.58-.46.87-.72.1-.07.2-.16.28-.25.55-.42,1.06-.89,1.53-1.35l1.38-1.31.03-.03c.31-.3.62-.59.93-.92.58-.59,1.13-1.21,1.7-1.82.22-.23.42-.47.61-.72.42-.46.81-.93,1.18-1.43.19-.23.37-.46.55-.7.51-.67.98-1.32,1.41-2.04.34-.51.65-1.02.97-1.53.42-.68.78-1.37,1.13-2.08s.67-1.4.95-2.1c.15-.36.3-.73.43-1.09.04-.12.08-.24.11-.36l.08-.95h0l.23.08s.03-.04.03-.06c.08-.19.11-.39.17-.56.09-.34.22-.68.28-1.02.11-.42.22-.82.31-1.26.06-.25.09-.51.14-.76.11-.51.19-1.06.25-1.59.05-.29.08-.59.09-.89.04-.3.07-.61.08-.92v-.43c.03-.42.05-.87.05-1.29v-.85c0-.34,0-.67-.03-1.02,0-.3-.03-.59-.08-.89,0-.23-.03-.46-.06-.68-.05-.51-.11-1.07-.2-1.6s-.19-1.09-.3-1.63v-.03c-.06-.23-.09-.42-.14-.65s-.09-.42-.15-.64l-.3-.12.09-.65c-.03-.08-.05-.16-.06-.23,0-.07-.02-.14-.05-.2-.11-.39-.25-.78-.36-1.16s-.22-.7-.36-1.06c-.06-.22-.14-.43-.23-.64-.47-1.33-1.01-2.64-1.62-3.92-.15-.36-.34-.73-.51-1.07-.37-.76-.76-1.53-1.21-2.3-.27-.51-.58-1.02-.87-1.53-.36-.59-.75-1.2-1.12-1.8h0s-.04-.06-.06-.08c-.4-.65-.84-1.29-1.29-1.95s-.81-1.16-1.25-1.73c-.25-.33-.51-.68-.75-1s-.37-.48-.58-.75c-.65-.84-1.35-1.68-2.04-2.49-.21-.23-.41-.47-.59-.72-.33-.36-.67-.75-1-1.09-.42-.43-.82-.89-1.26-1.31-.16-.18-.33-.35-.51-.51-.25-.27-.51-.51-.78-.75-.34-.34-.68-.67-1.02-.97l-.45-.42c-.35-.35-.73-.68-1.12-.98l-.22-.19-.08-.08s-.08-.07-.12-.09c-.06-.07-.13-.13-.2-.19l-.2-.17c-.07-.04-.13-.08-.19-.12-.02-.02-.04-.05-.06-.06h0c-1.64-1.35-3.36-2.61-5.15-3.75-.33-.22-.67-.42-1.02-.62s-.72-.43-1.07-.64c-1.31-.75-2.59-1.43-3.93-2.04-.43-.23-.9-.42-1.34-.61-.51-.23-1.02-.43-1.59-.65-.52-.23-1.05-.43-1.59-.61-.13-.06-.26-.11-.4-.14-.06-.04-.13-.07-.2-.08-.03,0-.06-.03-.08-.03-.04,0-.08,0-.11-.03h0c-.22-.08-.43-.19-.65-.25-.08-.03-.15-.06-.23-.08-.03,0-.06,0-.08-.03h0c-.05-.02-.11-.04-.17-.06h-.05s-.08-.03-.12-.05c-.7-.23-1.41-.45-2.13-.64-.61-.17-1.25-.34-1.86-.46-.09-.05-.2-.08-.31-.08-.75-.19-1.46-.33-2.19-.46s-1.53-.3-2.29-.42c-.67-.12-1.35-.22-2.04-.28s-1.37-.14-2.04-.23c-.56-.06-1.12-.08-1.7-.11-.79-.08-1.6-.09-2.43-.12-.4,0-.79-.03-1.2-.03-1.25,0-2.47,0-3.72.03-.76,0-1.53.06-2.3.09-1.76.11-3.51.27-5.27.51-.13,0-.26,0-.39.03-.89.12-1.76.25-2.65.39h-.14c-.59.08-1.15.19-1.74.27-.08.03-.15.03-.23.06h-.27c-.17.03-.34.06-.51.08-.64.11-1.31.25-1.96.37-1.4.3-2.77.59-4.17.93-.72.17-1.4.33-2.1.51s-1.4.37-2.08.55c-1.29.36-2.58.75-3.87,1.13-.67.2-1.37.42-2.04.64l-2.92.98c-.76.27-1.53.51-2.3.81-.2.08-.4.14-.59.23-1.85.67-3.7,1.37-5.54,2.11-.75.3-1.49.59-2.24.92s-1.38.58-2.04.87c-.98.42-1.96.87-2.94,1.31-1.35.59-2.66,1.21-3.99,1.83h0c-1.53.72-2.99,1.41-4.48,2.18-1.32.65-2.68,1.34-4.01,2.04-1.62.87-3.25,1.73-4.9,2.61-1.02.51-2.04,1.09-3.06,1.66-2.22,1.24-4.44,2.51-6.64,3.79-.79.45-1.59.93-2.4,1.41s-1.59.93-2.38,1.41h0c-2.13,1.31-4.27,2.65-6.39,3.95-.08.06-.16.12-.25.17-1.68,1.07-3.35,2.11-4.97,3.19-.27.17-.55.36-.79.51-1.4.92-2.75,1.8-4.12,2.72-.61.42-1.23.79-1.83,1.23-.92.61-1.83,1.23-2.72,1.83-1.68,1.13-3.33,2.27-4.96,3.41-.37.27-.75.51-1.12.78l-1.09.78h-.03s0,.03-.05.05c-2.33,1.65-4.6,3.25-6.84,4.85-.08.05-.11.08-.17.11-.64.46-1.28.92-1.91,1.37-1.25.9-2.47,1.79-3.69,2.68-.19.12-.38.26-.56.4-.51.37-1.02.75-1.53,1.1s-1,.75-1.48,1.1h-.07c-3.22,2.35-6.27,4.6-9.19,6.75-5.35,3.92-10.09,7.42-14.14,10.25-.23.17-.48.3-.73.48s-.48.33-.75.51c-.36.25-.73.46-1.1.73s-.68.45-1.02.67l-1.07.65c-2.18,1.36-4.6,2.75-7.28,4.15h0c-.9.48-1.82.97-2.77,1.43-.31.17-.64.34-.97.51-2.13,1.07-4.42,2.16-6.81,3.25-.51.25-1.06.51-1.6.73-1.41.62-2.84,1.25-4.34,1.85-1.02.43-2.04.89-3.13,1.31s-2.15.82-3.25,1.26-2.19.84-3.31,1.25l-.43.17c-.06,0-.11.03-.15.06l-3.22,1.13c-1.48.51-2.97,1.06-4.51,1.53-1.4.45-2.78.92-4.21,1.35-.42.12-.85.27-1.31.4-.68.22-1.38.42-2.08.62s-1.4.42-2.1.61c-1,.3-1.99.58-3,.84-2.46.68-4.99,1.34-7.57,1.95-.85.22-1.74.42-2.58.59-1.02.27-2.04.51-3.09.72-.68.17-1.38.3-2.08.43s-1.41.31-2.11.43c-1.41.3-2.83.58-4.26.81-1.07.2-2.19.4-3.28.59-2.08.36-4.18.7-6.3.98-1.62.25-3.25.46-4.91.65s-3.28.4-4.94.56c-1.8.19-3.62.36-5.46.51-1.16.08-2.35.17-3.53.25-.62.05-1.25.08-1.91.11h-.37c-.08,0-.17,0-.25.03h-.08c-4.45.23-8.95.32-13.5.27-.7,0-1.4,0-2.08-.03-.76,0-1.53-.03-2.32-.06-.31,0-.65,0-.98-.03-.43,0-.89-.03-1.32-.06-.65,0-1.29-.05-1.95-.08s-1.29-.06-1.95-.11c-1.41-.08-2.84-.17-4.29-.3h0c-2.44-.19-4.91-.42-7.39-.75-1.09-.11-2.18-.25-3.25-.42-1.41-.2-2.84-.4-4.26-.62-.58-.08-1.13-.17-1.71-.28s-1.1-.17-1.68-.28c-1.09-.19-2.18-.4-3.25-.59-.75-.15-1.53-.28-2.25-.45-1.41-.28-2.83-.59-4.26-.92-1.99-.46-3.99-.97-6-1.53-1.83-.51-3.67-1.02-5.51-1.57-.51-.14-.97-.3-1.46-.45-1.71-.51-3.44-1.09-5.16-1.68l-3.02-1.07c-1.02-.36-2.03-.73-3.03-1.12-1-.39-2.01-.78-3-1.2-.75-.3-1.48-.59-2.22-.92s-1.53-.65-2.3-1.02c-1.13-.48-2.27-.99-3.41-1.53-1.09-.51-2.18-1.02-3.26-1.57-1.53-.75-3.09-1.53-4.6-2.36-1.71-.89-3.41-1.82-5.11-2.8-.98-.56-1.96-1.13-2.94-1.71-.05-.04-.11-.07-.17-.09-2.4-1.43-4.76-2.94-7.15-4.54-2.24-1.46-4.45-3.03-6.64-4.65h-.56l-.11-.48h0c-2.5-1.86-5.01-3.81-7.46-5.83v-.02c-26.32-22.48-47.36-50.47-61.65-81.99-3.54-6.08-6.54-12.45-8.96-19.05v-.03c-.58-1.46-1.16-3.02-1.76-4.65-.22-.59-.42-1.18-.64-1.77,0-.04-.02-.07-.05-.11-3.38-9.64-6.26-19.44-8.63-29.37,0-.09-.03-.18-.06-.27-.98-4.76-1.8-9.78-2.33-14.91-1.6-15.74-.31-32.27,7.92-44.76,5.35-7.91,13.16-13.83,22.22-16.85,3.01-1.1,6.1-1.96,9.24-2.58l-.78-3.76-.76-3.75c-3.18.63-6.3,1.49-9.36,2.55-11.02,3.48-20.52,10.61-26.93,20.21-8.83,13.39-10.7,30.37-9.47,46.59h0c.34,4.53.92,8.93,1.63,13.22,2.53,14.21,6.62,28.1,12.19,41.41.03.11.08.2.09.28.05.08.08.16.11.25,14.58,38.72,37.81,73.6,67.91,101.99h0c3.75,3.58,7.66,7.07,11.75,10.54-.2-.05-.4-.11-.59-.19-.15-.05-.3-.1-.45-.17-.78-.25-1.99-.68-3.58-1.28-.25-.11-.51-.2-.81-.33l-.28-.09c-.2-.08-.39-.15-.59-.25s-.51-.2-.76-.3c-.14-.06-.31-.12-.46-.2-.33-.14-.65-.25-1-.42-.17-.08-.36-.14-.51-.23-.06-.04-.13-.07-.2-.09-.07,0-.13-.03-.19-.06h-.03s-.08-.02-.11-.05c-.89-.39-1.79-.78-2.75-1.25-.64-.27-1.31-.58-1.99-.9-.78-.37-1.59-.75-2.41-1.15-.09-.05-.17-.08-.25-.12,0-.02-.01-.03-.03-.03-.48-.23-.97-.45-1.46-.72-.11-.06-.23-.11-.36-.17-1.37-.68-2.77-1.41-4.24-2.21-1.59-.89-3.25-1.76-4.94-2.75l-1.43-.82c-1-.58-2.04-1.18-3.06-1.82-.33-.2-.65-.42-.98-.59-.13-.08-.26-.16-.39-.25-.48-.3-1-.64-1.49-.97-.22-.1-.43-.23-.62-.39-.7-.43-1.41-.9-2.13-1.4-.48-.28-.95-.59-1.43-.92-3.22-2.15-6.52-4.51-9.87-7.06-.75-.59-1.53-1.16-2.29-1.76-.67-.51-1.37-1.06-2.04-1.6-1.62-1.28-3.25-2.63-4.87-4.04-.78-.67-1.59-1.34-2.36-2.04-1.53-1.35-3.09-2.77-4.65-4.26-.36-.31-.72-.64-1.06-1-1.21-1.13-2.41-2.3-3.58-3.53-.51-.55-1.07-1.07-1.6-1.63-1.53-1.57-3.04-3.19-4.56-4.87-.84-.92-1.7-1.88-2.55-2.88-.51-.58-1.02-1.16-1.53-1.77s-1.02-1.2-1.53-1.8c-1.32-1.59-2.61-3.23-3.9-4.9-.36-.46-.72-.95-1.09-1.41-1.31-1.7-2.55-3.41-3.79-5.18-.17-.25-.36-.48-.51-.75-.89-1.27-1.76-2.56-2.61-3.87-.55-.78-1.06-1.59-1.57-2.4s-1.07-1.7-1.6-2.55c-1.02-1.65-2.08-3.33-3.06-5.07-.25-.37-.45-.75-.65-1.12-.59-1.02-1.16-2.04-1.73-3.06-.73-1.31-1.41-2.63-2.1-3.95,0-.03-.02-.06-.05-.08-.61-1.23-1.23-2.41-1.85-3.65l-.14-.33c-.51-1-.98-2.04-1.46-3.06-.03-.06-.06-.12-.08-.19-.3-.59-.56-1.18-.81-1.77-1.07-2.33-2.09-4.72-3.06-7.15-.28-.68-.58-1.37-.82-2.08-.19-.42-.34-.82-.48-1.25-.28-.73-.58-1.43-.84-2.18-.08-.23-.17-.46-.25-.7-.42-1.15-.85-2.35-1.26-3.54s-.82-2.38-1.21-3.58c-.08-.22-.14-.42-.2-.62-.25-.67-.45-1.37-.65-2.04s-.48-1.48-.68-2.24c-.25-.84-.51-1.71-.76-2.55-.4-1.32-.76-2.66-1.13-3.99-.4-1.53-.79-3-1.15-4.54-.02.02-.04.05-.05.08-.03.04-.06.09-.08.14-.15.33-.45.93-.89,1.77-.09.23-.22.46-.31.72-.51,1.1-1.15,2.55-1.83,4.23-.12.28-.25.59-.37.92-.27.67-.55,1.35-.79,2.08-.08.17-.15.39-.22.58s-.15.37-.22.58c-.14.37-.28.75-.42,1.15-.27.76-.55,1.6-.82,2.44s-.56,1.73-.82,2.61c-.55,1.77-1.06,3.7-1.53,5.69-.28,1.21-.59,2.46-.84,3.75s-.51,2.58-.73,3.92-.4,2.71-.56,4.09c0,.06-.03.11-.03.17-.16,1.36-.28,2.72-.37,4.09h0c-.09,1.4-.14,2.78-.15,4.18h0l-.06-.08c-.04-.06-.07-.12-.11-.19-.05-.09-.09-.15-.14-.25s-.19-.3-.3-.51c0-.05-.06-.08-.08-.12s-.08-.17-.14-.27c-.03-.05-.06-.1-.08-.15-.07-.12-.14-.23-.2-.36,0-.04-.03-.08-.06-.11-.71-1.37-1.33-2.78-1.86-4.23-.06-.15-.11-.33-.17-.51-.14-.36-.28-.75-.42-1.13-.05-.14-.08-.28-.12-.42,0-.05-.03-.08-.05-.14-.09-.28-.22-.59-.3-.89-.12-.4-.25-.81-.37-1.25-.2-.67-.39-1.35-.58-2.08-.08-.28-.14-.59-.22-.87-.12-.58-.27-1.16-.42-1.79-.06-.33-.14-.68-.2-1.02-.2-.97-.39-2.01-.56-3.06-.08-.56-.15-1.09-.25-1.65-.11-.9-.25-1.85-.34-2.81-.04-.28-.07-.57-.08-.85-.08-.87-.15-1.76-.22-2.65-.03-.36-.05-.68-.06-1.02-.08-1.21-.12-2.49-.15-3.78v-1.25c-.03-1.88,0-3.89.08-5.96.03-.51.05-1.02.08-1.57.08-.98.12-1.99.2-3.02,0-.21.03-.43.06-.64.03-.48.08-.97.11-1.41.12-1.49.3-3.06.51-4.6.05-.51.09-.98.19-1.48.08-.68.19-1.4.28-2.11.08-.45.14-.92.22-1.41s.14-.93.23-1.41.15-.98.25-1.45c.11-.76.25-1.53.42-2.32s.3-1.57.45-2.36c.14-.68.27-1.38.42-2.08.34-1.66.73-3.31,1.15-5.04.23-.93.45-1.91.72-2.86.22-.84.42-1.7.65-2.55.34-1.25.68-2.55,1.07-3.81s.76-2.65,1.18-3.96.85-2.72,1.31-4.09h0s.58-1.43,1.68-3.9c.22-.43.43-.92.68-1.46.04-.11.09-.22.15-.31.14-.31.3-.65.46-1,.05-.12.11-.24.17-.36.28-.59.59-1.2.9-1.85.39-.76.79-1.59,1.25-2.43.22-.42.43-.87.68-1.34s.45-.87.72-1.31.48-.92.75-1.4c.43-.76.89-1.57,1.32-2.38.39-.7.78-1.35,1.18-2.04.59-1.02,1.23-2.04,1.86-3.11.48-.79.97-1.59,1.49-2.41s1.02-1.65,1.59-2.46c.73-1.1,1.46-2.22,2.24-3.35s1.59-2.25,2.41-3.39,1.68-2.25,2.55-3.38c1.76-2.25,3.58-4.53,5.55-6.73.51-.56.98-1.09,1.49-1.62s1-1.09,1.53-1.62,1.02-1.07,1.53-1.6,1.07-1.07,1.59-1.59,1.09-1.02,1.62-1.53c1.09-1.02,2.22-2.01,3.36-2.99.58-.48,1.15-.97,1.74-1.41,1.16-.97,2.36-1.88,3.58-2.75.61-.45,1.23-.89,1.83-1.31s1.32-.89,1.99-1.31c.59-.39,1.2-.76,1.8-1.1.51-.34,1.07-.64,1.63-.97.33-.2.68-.39,1.02-.59.51-.27,1.02-.56,1.57-.81.03,0,.05-.03.08-.05,1.21-.62,2.43-1.18,3.67-1.73.68-.3,1.4-.59,2.08-.85h0c.72-.28,1.41-.55,2.11-.78s1.41-.51,2.15-.72l1.53-.46c.51-.14,1.06-.27,1.59-.4s1.06-.25,1.59-.37c.13-.04.27-.06.4-.08.4-.08.79-.17,1.21-.25.09,0,.23-.05.34-.05.58-.09,1.15-.22,1.76-.27.15-.03.33-.05.48-.06.05-.05.08-.05.15-.05,1.48-.2,2.99-.33,4.51-.4h.31c.37-.03.75-.05,1.12-.05l-.64-3.06-.45-2.25-30.01-145.25c2.12.09,4.2-.59,5.86-1.91.51-.43.98-.91,1.38-1.43,1.7,1.32,3.48,2.55,5.38,3.79l30.09,145.66,1.16,5.64,1.2,5.82,1.88,9.07,1.57,7.59,2.43,11.75h0l13.7,66.29.2.95,3.33,16.09,3.2,15.5c1.77,5.18,3.8,10.27,6.08,15.24.48,1.06.97,2.1,1.49,3.19s1.02,2.11,1.59,3.2c.28.51.56,1.09.84,1.62,1.98,3.76,4.17,7.57,6.59,11.34.43.7.9,1.38,1.37,2.08.59.92,1.23,1.83,1.86,2.75.36.51.72,1.02,1.07,1.49.19.28.37.55.56.78.23.31.43.61.68.92,1.95,2.66,4.04,5.27,6.25,7.83.7.79,1.38,1.59,2.1,2.38s1.34,1.48,2.04,2.19c.46.51.95,1,1.43,1.53.9.9,1.79,1.8,2.72,2.68.58.56,1.18,1.13,1.79,1.7.51.48,1.02.97,1.57,1.41.76.67,1.53,1.35,2.33,2.01l.09.12c.79.67,1.62,1.35,2.46,2.01.2.17.42.34.61.51.42.34.87.68,1.31,1.02,0,.03.03.03.06.05.02,0,.04.01.05.03.08.07.16.14.25.2.42.33.84.64,1.26.95,1.73,1.26,3.48,2.5,5.29,3.72.89.56,1.76,1.1,2.66,1.68s1.79,1.1,2.71,1.62c1.02.59,2.04,1.18,3.11,1.76.87.47,1.76.93,2.66,1.4.56.3,1.12.58,1.7.84.33.19.67.36,1.02.51.9.43,1.79.85,2.71,1.25s1.82.79,2.75,1.18c.34.14.7.3,1.06.42.35.17.71.31,1.07.42.72.3,1.43.59,2.16.85l2.1.75.25.08c.7.25,1.38.46,2.08.68,1.4.46,2.8.9,4.23,1.31.17.05.36.09.55.15.51.12,1.02.28,1.59.42,2.15.58,4.34,1.07,6.58,1.57,28.27,5.92,63.92,3.48,108.78-13.08,3.62-1.35,7.32-2.77,11.09-4.31h.03c3.42-1.38,6.87-2.84,10.39-4.42h0c5.51-2.42,11.14-5.06,16.9-7.92,3.44-1.7,6.84-3.35,10.21-4.93,2.41-1.15,4.76-2.27,7.12-3.36h0c2.44-1.13,4.85-2.24,7.23-3.31,16.34-7.39,31.41-13.5,45.39-18.47,10.53-3.75,20.42-6.88,29.68-9.41h0c5.66-1.54,11.1-2.87,16.31-3.98,2.04-.43,4.06-.85,6-1.25,2.04-.39,4.09-.75,6.05-1.07,7.29-1.2,14.1-1.99,20.48-2.4,7.62-.53,15.28-.45,22.89.25.85.08,1.7.17,2.55.27,7.38.83,14.64,2.54,21.61,5.11,2.15.8,4.27,1.71,6.33,2.72.45.23.92.43,1.35.68,1.76.92,3.44,1.86,5.02,2.86,3.93,2.44,7.56,5.32,10.82,8.6,1.86,1.87,3.6,3.85,5.21,5.94.18.23.35.47.51.72,1.62,2.17,3.09,4.43,4.42,6.79,5.35,9.72,8.32,20.57,8.68,31.66.06,1.15.03,2.18,0,3.06-.26,3.82-1.07,7.57-2.43,11.15-3.11,8.4-7.62,16.21-13.34,23.11-6.06,7.39-13.14,13.87-21.04,19.25-1.93,1.34-3.95,2.63-6.08,3.87-2.12,1.24-4.32,2.43-6.59,3.58-13.72,6.81-28.51,11.22-43.73,13.03l-.07.19Zm113.12-108.19c1,1.45,1.91,2.94,2.78,4.43.27.42.51.89.75,1.32.31.51.59,1.06.89,1.6s.56,1.07.84,1.62.56,1.12.82,1.71c.22.43.42.92.62,1.38.25.59.51,1.18.76,1.77.2.43.39.9.58,1.37.28.73.58,1.46.84,2.22.33.89.64,1.79.95,2.69s.59,1.8.85,2.71c.19.61.36,1.21.51,1.83.14.46.25.92.37,1.38.03.11.06.23.08.34.08.34.19.68.27,1.02.17.76.34,1.53.51,2.27s.33,1.48.48,2.25c.11.61.23,1.23.33,1.83.06.3.09.61.15.92s.11.62.17.92c.11.61.2,1.23.3,1.83.09.75.2,1.49.27,2.24v.03c0,.08.03.17.03.25v.15c0,.08,0,.17.03.25h0v.03c0,.07,0,.14.03.2v.17c0,.16.02.31.05.46v.05c0,.07.01.14.03.2v.14c0,.09,0,.18.03.27,0,.14.03.27.03.42,0,.14,0,.28.05.42v.06s.01.09.03.14c0,.19.05.39.06.59v.2c0,.12.03.25.05.4s.05.43.05.65v.06c0,.09.03.19.03.28v.45c0,.25.05.51.06.75v.03c.08.98.12,1.95.17,2.92s.06,1.95.08,2.91c.05,1.79.05,3.58,0,5.3,0,.79-.05,1.59-.06,2.35s-.06,1.53-.11,2.3c-.08,1.53-.15,3.03-.28,4.49-.06.73-.12,1.41-.19,2.13-.11,1.07-.23,2.15-.34,3.2s-.25,2.04-.39,3.06c-.15,1.13-.31,2.24-.48,3.29-.09.58-.19,1.12-.27,1.66,0,.04,0,.09-.03.12-.14.97-.31,1.88-.48,2.77-.22,1.1-.42,2.16-.61,3.16-.2.87-.39,1.76-.56,2.55-.37,1.59-.73,3-1.02,4.17-.15.59-.3,1.09-.42,1.57-.27.95-.46,1.63-.59,2.04-.04.11-.08.23-.11.34,0,.04,0,.08-.03.11h0v-.03c-.12-.31-.25-.64-.39-.93-.23-.61-.46-1.21-.75-1.77-.11-.3-.25-.59-.36-.87-.45-1.02-.9-1.99-1.32-2.92-.65-1.37-1.31-2.65-1.95-3.81-.22-.4-.42-.76-.62-1.12-.15-.28-.31-.56-.46-.82-.94-1.62-1.98-3.19-3.09-4.69-.05-.08-.11-.16-.17-.23-.51-.68-1.02-1.29-1.48-1.83v-.03c-.46-.51-.92-1-1.34-1.41-.12-.15-.25-.25-.37-.39l-.34-.33c-.21-.22-.43-.41-.67-.59-.03-.03-.06-.06-.08-.06-.25-.2-.46-.39-.68-.58-.3-.23-.61-.44-.93-.64l-.17-.09s-.06-.05-.08-.06h0s-.04-.01-.05-.03h-.03s-.05-.03-.06-.05-.03-.03-.05-.03-.08-.03-.09-.06c-.07-.03-.13-.06-.2-.08-.03.23-.06.45-.08.67-.01.22-.04.44-.08.65,0,.06-.03.09,0,.14v.03c0,.09-.03.19-.03.27,0,.04,0,.08-.03.11v.06h0v.03h0v.03h0v.03h0v.03h0v.03h0v.03h0v.03h0v.17c0,.11-.02.22-.05.33-.05.3-.08.59-.12.89-.14,1.09-.33,2.18-.51,3.23-.09.55-.2,1.06-.31,1.59s-.2.95-.3,1.41c-.08.33-.15.62-.25.93v.09s-.03.05-.03.08h0v.03h0v.03h0v.03c-.06.19-.09.37-.14.56s-.12.55-.22.81c-.08.34-.17.64-.25.97-.22.72-.42,1.41-.62,2.08s-.43,1.37-.68,2.04c-.15.45-.31.9-.48,1.34-.51,1.34-1.02,2.63-1.6,3.86-.19.42-.37.81-.58,1.21-.27.58-.58,1.15-.84,1.7-.34.67-.7,1.31-1.07,1.93,0,.04-.03.08-.06.11-.34.59-.67,1.16-1.02,1.7s-.61.98-.92,1.46c-.43.67-.89,1.31-1.32,1.91-.02.03-.05.06-.08.09,0,.03-.03.05-.03.06h0v.03c-.19.25-.37.51-.56.73-.92,1.21-1.82,2.33-2.75,3.36-.45.51-.92,1.02-1.4,1.53s-.92.93-1.38,1.38-.9.87-1.37,1.26-.89.79-1.32,1.16c-.28.23-.56.45-.84.67-1.3,1.06-2.67,2.05-4.09,2.95-.31.19-.59.37-.89.55-.08.06-.16.12-.25.17-.51.3-1,.59-1.43.81-.28.17-.55.31-.79.43-.82.43-1.66.82-2.52,1.15h.03s.06-.11.09-.17.08-.11.11-.17c.06-.11.13-.22.2-.31.03-.06.08-.11.11-.17.27-.42.51-.89.79-1.32s.48-.93.72-1.41c.15-.33.33-.64.45-.98.04-.05.06-.11.06-.17.11-.25.23-.51.34-.75.05-.06.08-.14.08-.22.22-.48.4-.97.58-1.45.39-1.02.72-2.08,1-3.13.08-.25.14-.51.2-.75.08-.24.14-.49.19-.75.06-.25.09-.51.17-.76s.11-.51.17-.75.09-.48.14-.75.11-.55.17-.79.11-.55.15-.81c.19-1.02.34-2.04.43-3.02.14-1.06.23-2.04.31-2.99.03-.37.05-.75.08-1.09.03-.55.06-1.07.08-1.53v-.2h0v-.42c.06-2.04,0-3.31,0-3.31-1.29,1.12-2.55,2.22-3.84,3.25-1.45,1.16-2.89,2.29-4.31,3.35-.28.22-.58.42-.85.61s-.62.43-.92.67c-1.68,1.18-3.33,2.3-4.96,3.35-.22.12-.42.25-.64.39-.13.08-.26.16-.39.25-.04.04-.09.08-.15.09-.06.02-.11.05-.15.09-.03,0-.05.03-.08.03s-.06.03-.08.06c-.19.12-.39.25-.58.36-3.08,1.84-6.25,3.52-9.5,5.02-.72.34-1.43.64-2.16.97s-1.49.62-2.24.92c-1.8.72-3.58,1.35-5.32,1.91-.3.09-.61.19-.92.3-1.49.45-2.94.85-4.37,1.22-.48.11-.93.23-1.41.31-.31.09-.65.17-.98.25s-.73.14-1.09.23-.73.12-1.07.2c-.79.14-1.59.28-2.36.4l-1.2.17c-.58.08-1.16.14-1.76.22-.42.05-.81.08-1.21.11-1.12.12-2.21.19-3.26.22-.57.06-1.14.09-1.71.08-.56,0-1.1.03-1.65.03-1.59,0-3.06-.05-4.53-.15-.62-.05-1.23-.08-1.82-.15-.42-.03-.82-.08-1.25-.11-1.21-.14-2.35-.31-3.41-.51-.37-.06-.73-.11-1.06-.19-.55-.09-1.07-.22-1.53-.31-.4-.11-.79-.17-1.15-.27s-.78-.2-1.13-.28l-.48-.14c-.92-.25-1.71-.48-2.32-.7-.25-.09-.48-.19-.72-.25h0c-.2-.08-.36-.14-.51-.2h0c-.11-.06-.23-.09-.36-.11-.06-.04-.13-.07-.2-.09l8.38-3.09h0l27.03-9.95c3.98-1.33,7.87-2.89,11.68-4.66,2.36-1.09,4.63-2.25,6.84-3.51,2.16-1.18,4.26-2.43,6.25-3.76,13.98-8.91,24.95-21.83,31.49-37.07,1.11-2.71,2.06-5.49,2.84-8.32,1.5-5.41,2.31-10.99,2.41-16.61.29-13.18-3.54-26.12-10.96-37.02-.58-.84-1.2-1.68-1.82-2.5h0c-1.6-2.14-3.33-4.17-5.19-6.08-1.69-1.77-3.47-3.44-5.35-5.01-3.95-3.32-8.23-6.22-12.77-8.68-2.04-1.1-4.14-2.16-6.34-3.13-1.28-.58-2.58-1.13-3.93-1.62-.78-.33-1.57-.61-2.38-.9-4.61-1.65-9.34-2.98-14.14-3.98-4.1-.86-8.23-1.51-12.4-1.95-5.42-.57-10.86-.85-16.31-.84h-.36c-2.59,0-5.26.09-7.99.25h0c-5.66.28-11.54.85-17.68,1.71-2.01.27-4.03.58-6.08.93-2.05.36-3.99.68-6.05,1.09-6.27,1.23-12.77,2.74-19.55,4.6-8.83,2.38-18.05,5.34-27.66,8.86-10.53,3.89-21.52,8.44-33.01,13.79-6.81,3.16-13.43,6.09-19.86,8.82h0c-2.55,1.09-5.04,2.15-7.54,3.16-2.58,1.09-5.15,2.1-7.66,3.06h-.03c-14.59,5.74-28.22,10.37-40.92,14.06h0c-4.84,1.4-9.51,2.65-14.07,3.78h-.08c-5.44,1.35-10.73,2.49-15.83,3.47-25.18,5.64-51.26,5.99-76.58,1.02-2.15-.48-4.23-1.02-6.25-1.59-.79-.23-1.59-.45-2.38-.7-.68-.23-1.38-.42-2.04-.67s-1.25-.42-1.85-.62-1.09-.37-1.59-.58-1.06-.37-1.53-.58-1.02-.42-1.53-.61l-1.48-.61c-.87-.34-1.71-.72-2.55-1.09-.51-.23-1.02-.45-1.53-.7-1-.46-1.98-.93-2.92-1.43s-1.89-.98-2.81-1.49c-1.38-.75-2.69-1.53-3.98-2.35l-2.11-1.37c-.75-.51-1.49-1.02-2.22-1.53-.61-.42-1.23-.85-1.8-1.29l-1.06-.79c-.65-.51-1.29-1-1.91-1.53l-.05-.06c-.51-.4-1.02-.84-1.53-1.26-.65-.55-1.28-1.1-1.91-1.66-.46-.42-.92-.82-1.37-1.25-.33-.31-.64-.62-.95-.92-.14-.12-.27-.25-.42-.39-.03-.03-.05-.06-.08-.08h0l-.14-.14s-.02-.04-.05-.05c-.03-.03-.06-.06-.06-.08l-.11-.11c-.37-.36-.7-.68-1.02-1.02-.92-.92-1.77-1.86-2.58-2.77-.22-.25-.42-.46-.61-.7-.31-.34-.59-.68-.87-1.02s-.46-.58-.7-.84c-.72-.85-1.38-1.71-2.01-2.55-.45-.58-.87-1.13-1.26-1.7s-.78-1.09-1.16-1.65c-.19-.25-.36-.51-.51-.78-.59-.9-1.18-1.77-1.71-2.65-.3-.48-.59-.95-.85-1.41s-.61-1.06-.9-1.57-.58-1-.82-1.49c-1.06-1.96-1.95-3.81-2.71-5.47-.22-.46-.4-.92-.58-1.34-1.25-2.87-2.26-5.83-3.02-8.86,0,0,.05,0,.06.03l.09.09s.04.05.06.08c.31.25.92.85,1.85,1.59.15.11.3.23.43.36.7.52,1.44,1.01,2.19,1.46.22.15.42.28.65.42.97.58,1.96,1.11,2.99,1.57.28.14.56.26.85.37.34.16.7.3,1.06.42.24.11.49.21.75.28.31.12.63.23.95.31.34.12.73.23,1.09.34s.76.2,1.16.31.72.15,1.07.25c.09.03.19.05.28.06.37.08.73.14,1.1.2s.85.14,1.28.19.89.11,1.35.14c.19,0,.39.03.58.05,2.45.15,4.91.05,7.34-.3,4.84-.7,9.27-1.35,13.19-1.93.89-.12,1.73-.27,2.55-.39.25-.03.51-.08.76-.11l.81-.11c1.49-.25,2.89-.45,4.15-.65.72-.09,1.4-.22,2.04-.3,1.02-.15,1.96-.33,2.75-.42,1.1-.19,1.98-.34,2.55-.42.2-.03.34-.06.46-.08h.22c-.34.11-.67.2-1.02.33-.25.08-.51.15-.75.25s-.48.17-.72.25l-.73.28c-.34.11-.66.25-.98.4-.55.25-1.06.48-1.57.73-.28.14-.58.3-.84.43-.28.14-.55.3-.81.46-.25.15-.51.33-.78.46-.36.2-.7.43-1.02.68-.31.2-.59.42-.9.64s-.58.43-.82.64c-.45.39-.89.79-1.28,1.2-.05.05-.11.1-.15.15-.14.12-.27.26-.39.4-.05.04-.09.09-.12.14-.23.23-.42.45-.62.68s-.45.58-.67.87c-.38.49-.73,1-1.06,1.53-.08.14-.15.28-.25.42-.25.46-.51.92-.7,1.4-.08.17-.16.34-.22.51-.08.15-.12.31-.19.46-.29.73-.51,1.48-.67,2.25-.06.25-.1.5-.12.76-.07.38-.12.76-.14,1.15-.03.37-.05.73-.05,1.09,0,.27,0,.55.03.82,0,.27.03.54.08.81.01.32.06.64.14.95.08.42.19.84.28,1.25.25.87.59,1.71,1.02,2.5.11.23.24.45.37.67.14.23.3.45.45.67.14.22.3.43.46.62.26.33.54.65.84.95.46.45.95.86,1.46,1.25.28.22.58.42.89.59.06.05.14.08.22.14.27.14.55.27.81.42.23.12.47.22.72.31.23.11.46.19.73.3.09.04.19.08.3.09.42.14.85.28,1.31.39.34.09.68.15,1.02.2h.09c.27.07.55.11.84.12l.85.05h1.02c.63.01,1.27-.01,1.89-.08.17,0,.34-.02.51-.06.12.01.24-.01.34-.08.13,0,.26-.02.39-.05.08,0,.15,0,.22-.05.22-.01.44-.05.65-.11.37-.06.73-.14,1.09-.25.75-.17,1.5-.39,2.22-.65.39-.11.78-.25,1.15-.42.46-.17.97-.37,1.43-.59s1-.43,1.48-.7c.33-.15.66-.32.97-.51.36-.17.72-.36,1.06-.58l1.02-.59c.67-.4,1.37-.84,2.04-1.32.42-.3.89-.59,1.32-.92s1.02-.75,1.53-1.16c.23-.15.45-.36.68-.55.31-.23.61-.46.92-.75.68-.58,1.38-1.1,2.04-1.65s1.38-1.07,2.04-1.59c.27-.2.51-.4.78-.58,0-.03.05-.05.08-.05.89-.65,1.76-1.29,2.65-1.89.43-.3.9-.59,1.34-.89h0c.41-.3.84-.58,1.28-.84h0c.25-.19.51-.34.76-.51.12-.06.25-.14.37-.22s.25-.15.37-.23c0,0,.05,0,.06-.03s.05-.03.08-.05.08-.06.12-.08c.09-.05.18-.1.27-.17.67-.4,1.34-.78,2.04-1.16.61-.33,1.21-.67,1.82-1,.23-.12.45-.27.7-.37.73-.37,1.46-.75,2.19-1.09,2.18-1.09,4.31-2.04,6.42-2.88.51-.2.98-.37,1.48-.56.87-.36,1.74-.65,2.58-.93.27-.12.54-.21.82-.28,1.88-.62,3.73-1.15,5.51-1.62.59-.12,1.16-.27,1.76-.42.68-.17,1.34-.31,1.98-.43s1.25-.27,1.86-.37c.43-.08.89-.17,1.31-.23s.93-.17,1.4-.23c.9-.15,1.76-.27,2.58-.36.55-.08,1.09-.12,1.59-.19.93-.08,1.85-.15,2.71-.22s1.8-.11,2.65-.14c2.38-.08,4.46-.03,6.22.08.37,0,.73.05,1.07.08h0c.42.03.79.08,1.15.11s.73.06,1.02.08l1.09.12h0c.31.06.59.09.79.12s.43.08.56.11h.09c-.19,0-.38,0-.56-.03h-.19c-.93-.03-1.87,0-2.8.08-.39.01-.79.05-1.18.11-.4.05-.79.08-1.2.14-.51.08-1.02.15-1.57.27s-1.06.22-1.59.33-1.07.27-1.6.4c-.13.05-.27.08-.4.11-.33.08-.65.19-1,.3-.08,0-.15.03-.22.06-.38.09-.74.21-1.1.36-.45.14-.9.28-1.34.43-.55.2-1.07.39-1.6.61s-1.09.42-1.62.65-1.07.45-1.62.72-1.06.48-1.59.75c-.27.12-.53.25-.78.4-.76.4-1.53.81-2.3,1.25-.39.2-.75.42-1.12.64s-.75.45-1.09.68c-.43.27-.85.55-1.26.82-.28.19-.59.39-.87.59-.92.64-1.8,1.29-2.66,1.98-.4.33-.82.67-1.23,1.02-.59.51-1.18,1.02-1.71,1.57l-.55.51c-.34.36-.67.72-1,1.09s-.62.72-.92,1.07-.56.73-.81,1.09-.48.75-.72,1.09c-.12.2-.25.42-.36.61s-.25.46-.36.68-.22.43-.31.65c-.05.11-.09.23-.12.36-.14.32-.26.66-.36,1-.06.22-.12.42-.17.64s-.08.42-.12.64c-.04.2-.07.39-.08.59-.09.81-.05,1.63.12,2.43.05.26.11.51.2.76.06.17.11.33.17.51s.11.28.19.42c0,.05.05.09.08.14.03.03.05.07.06.11h0s.03.06.05.09v.06s.03.03.03.05.03.05.05.08c.08.16.17.32.27.46.05.08.08.12.11.19.03.07.07.13.12.19.03.06.08.11.11.17l.11.15c.05.06.08.09.11.14.03.04.06.07.09.11,0,.02.01.04.03.05.25.28.51.58.78.84.43.42.9.84,1.38,1.25s.97.76,1.46,1.12c.34.23.7.45,1.02.67s.55.31.79.46.36.2.55.3c.43.23.92.46,1.38.68h.06c.27.14.54.26.82.37.27.12.55.23.84.34s.59.22.87.31c.59.19,1.18.37,1.79.51.3.06.61.14.92.22,2.77.59,5.61.79,8.44.59h.05c.67-.05,1.38-.09,2.04-.2,1.38-.17,2.74-.43,4.09-.76.14-.03.3-.08.46-.11.39-.09.76-.2,1.16-.33.4-.1.79-.23,1.18-.37.28-.08.58-.2.85-.31.33-.09.64-.21.95-.36,1.2-.43,2.38-.94,3.51-1.53.43-.23.9-.45,1.34-.7,1.03-.55,2.02-1.17,2.97-1.83.37-.25.76-.51,1.12-.78.59-.42,1.16-.85,1.74-1.31.3-.25.61-.51.92-.76.92-.78,1.77-1.62,2.65-2.47.58-.58,1.15-1.2,1.66-1.82.81-.93,1.58-1.91,2.33-2.94.81-1.1,1.66-2.21,2.58-3.26.36-.42.73-.84,1.1-1.26.17-.22.36-.43.56-.62.18-.21.37-.42.58-.61.42-.46.89-.93,1.34-1.38s1-1.02,1.53-1.53c.61-.59,1.25-1.18,1.88-1.76.37-.36.75-.7,1.13-1.02.43-.39.89-.79,1.35-1.16.36-.34.75-.64,1.12-.97.08-.04.15-.09.22-.15.55-.43,1.07-.89,1.62-1.29.92-.75,1.88-1.48,2.81-2.15.53-.4,1.07-.79,1.62-1.16.43-.33.89-.65,1.34-.95s.87-.61,1.31-.92c.59-.42,1.18-.79,1.76-1.16.09-.07.18-.13.28-.19.08-.08.19-.12.27-.2h.03c1.35-.89,2.66-1.7,3.9-2.44.34-.2.67-.42,1.02-.61.51-.28,1.02-.59,1.53-.89s.84-.46,1.25-.72c1.89-1.07,3.5-1.91,4.73-2.55.3-.14.59-.3.85-.43.64-.3,1.09-.55,1.32-.64l.14-.06c-1.08,1.34-2.07,2.73-2.99,4.18-.11.2-.23.39-.36.58s-.28.45-.42.68c-.27.45-.51.92-.73,1.34-.14.25-.27.51-.39.76s-.27.55-.39.79c-.12.26-.23.52-.33.79-.17.42-.31.84-.45,1.25-.08.2-.14.41-.19.62-.09.29-.17.59-.22.89-.05.14-.08.29-.09.43-.03.17-.06.33-.08.48-.03.13-.05.27-.05.4-.05.39-.07.78-.08,1.16-.01.31,0,.62.06.92,0,.18.03.37.08.55.01.17.04.34.08.51.05.17.08.33.12.46.04.16.09.32.15.48.06.16.12.33.2.48.07.18.15.35.25.51.14.29.31.58.51.84.28.41.61.78.98,1.1h0c.49.49,1.05.91,1.66,1.23.14.1.29.18.45.25.14.09.29.17.45.23.31.16.63.3.97.42.33.11.68.25,1.02.36s.64.17.98.27c.04,0,.09,0,.12.03h.08c.34.08.67.12,1.02.2.59.08,1.21.17,1.82.22.37.03.73.05,1.09.06,1.33.04,2.65,0,3.98-.09.27-.05.56-.06.82-.09.09,0,.2-.03.3-.03.42-.05.82-.11,1.25-.17l1.7-.31c.34-.08.68-.14,1.02-.25h0c.07,0,.14-.01.2-.03.78-.19,1.57-.4,2.35-.65.2-.03.4-.09.59-.17.21-.06.41-.13.61-.22.23-.06.45-.14.67-.22l.78-.28c.21-.07.41-.15.61-.25.59-.23,1.16-.46,1.76-.75,1.38-.61,2.72-1.3,4.01-2.08.51-.3.97-.59,1.43-.92,1.49-.97,2.9-2.05,4.21-3.25.46-.42.92-.89,1.37-1.34.31-.34.62-.67.92-1.02s.58-.68.87-1.06c.55-.72,1.06-1.47,1.53-2.25.04-.08.08-.15.14-.22v-.03s.05-.06.06-.08c0-.02.01-.04.03-.05h0v-.05h0v-.03h0v-.06s.05-.06.08-.09v-.03s.03-.03.03-.05h0s.03-.05.03-.08c.03-.03.06-.06.08-.09,0-.03,0-.06.05-.08.11-.14.2-.28.31-.43.23-.36.48-.72.75-1.09.37-.55.75-1.02,1.16-1.57s.82-1.02,1.26-1.57l.43-.51c.3-.33.59-.68.92-1.02.61-.7,1.25-1.41,1.96-2.11.36-.36.7-.72,1.07-1.07.17-.19.34-.36.51-.51.17-.18.35-.35.55-.51,1.34-1.32,2.75-2.65,4.23-3.95.48-.42.98-.87,1.48-1.29.4-.36.79-.68,1.21-1.02,2.35-2.04,4.84-3.98,7.34-5.92,1.38-1.07,2.77-2.13,4.2-3.16l1.91-1.41c.06-.04.12-.09.19-.12,1.32-.95,2.63-1.88,3.92-2.81l1.98-1.37c.64-.43,1.29-.89,1.93-1.34.05-.05.12-.09.19-.11.51-.36,1.06-.73,1.59-1.07l4.6-3.06c2.75-1.8,5.35-3.42,7.7-4.91.4-.25.78-.48,1.16-.73l1.09-.68.95-.59c.61-.39,1.21-.75,1.76-1.07.27-.19.56-.34.82-.51.55-.33,1.02-.62,1.53-.92.25-.14.46-.3.68-.42s.56-.31.81-.46c1.34-.79,2.27-1.34,2.75-1.6.03,0,.06-.02.08-.05-1.74,1.12-3.36,2.41-4.84,3.86-.37.36-.7.73-1.02,1.09s-.64.73-.93,1.09-.58.75-.85,1.13c-.53.76-1.01,1.55-1.45,2.36-.2.37-.37.75-.55,1.09s-.27.59-.39.9h0s-.03.05-.03.08v.05s-.03.05-.03.08c0,.03-.03.06-.03.08,0,.02-.01.04-.03.05h0s-.02.07-.03.11c-.11.34-.23.67-.33,1,.06-.19.11-.37.17-.58-.06.2-.12.39-.19.58-.11.39-.22.78-.3,1.16-.07.24-.12.48-.15.73l-.05.27c-.02.07-.03.14-.03.2,0,.07,0,.14-.05.2-.05.28-.07.57-.08.85-.06.73-.06,1.46,0,2.19.02.35.06.71.12,1.06,0,.05.03.09.03.12.05.33.13.66.23.98v.03c.09.33.19.65.33.97.11.33.25.65.42.95.15.31.31.59.51.9s.39.59.59.84.46.51.72.76.51.46.78.7c.58.44,1.19.83,1.83,1.16.27.12.56.25.84.36.02.02.04.03.06.03h.05s.07.02.11.05c.02.02.04.03.06.03h.06s.07.02.11.05c.07.03.14.06.22.08h.06c.13.04.26.08.39.11.05,0,.08.03.12.05.04,0,.09,0,.12.03.89.26,1.81.41,2.74.43.36.06.72.08,1.09.08.34,0,.7,0,1.06-.03s.72-.05,1.09-.08c.3-.05.58-.06.89-.09.42-.08.85-.12,1.28-.22s.9-.19,1.34-.3c.1-.02.19-.04.28-.08.42-.09.84-.2,1.26-.33.59-.19,1.21-.39,1.83-.61.43-.15.92-.33,1.37-.51.59-.23,1.18-.48,1.79-.75s1.18-.55,1.77-.85c.3-.15.61-.3.92-.45.62-.33,1.26-.65,1.88-1.02.97-.55,1.95-1.13,2.94-1.76.65-.42,1.32-.87,2.04-1.34.78-.51,1.57-1.07,2.36-1.63.62-.43,1.25-.92,1.88-1.41h0c.15-.11.31-.23.46-.36.03-.02.05-.04.08-.06.03,0,.06-.02.08-.05.03-.03.06-.05.08-.08.12-.09.25-.2.39-.3l1.12-.89c.3-.25.61-.48.92-.7.33-.28.67-.55,1.02-.79.42-.33.82-.64,1.25-.92,1.07-.79,2.16-1.57,3.25-2.27h0c.37-.27.75-.51,1.12-.75.39-.25.75-.48,1.12-.75.14-.08.3-.19.43-.27.39-.23.76-.48,1.13-.72.1-.06.2-.12.31-.17,0-.03.05-.03.06-.03.45-.27.92-.55,1.35-.78h0c1.4-.82,2.8-1.6,4.23-2.33.06-.04.12-.06.19-.08.03,0,.05-.03.08-.05h.03s.04-.01.05-.03h.03s.06-.03.08-.06h.06s.06-.01.08-.03h0v-.03h.18l.03-.03c.23-.11.46-.23.72-.34.82-.42,1.63-.81,2.46-1.2,1.02-.51,2.04-.95,3.11-1.4.09-.06.19-.1.3-.14.02-.02.05-.03.08-.03.93-.42,1.88-.79,2.83-1.16h.03s.07-.04.11-.05c.35-.16.71-.3,1.07-.42.51-.2,1.02-.4,1.53-.59.08-.05.17-.09.27-.11.61-.23,1.21-.43,1.82-.65.33-.12.65-.23.98-.34.75-.25,1.49-.51,2.25-.76.59-.2,1.18-.39,1.76-.56s1.26-.37,1.89-.56c1.53-.46,3-.87,4.51-1.26.73-.19,1.46-.37,2.21-.51,1.21-.31,2.41-.58,3.58-.84.61-.12,1.23-.25,1.83-.39.73-.14,1.43-.3,2.15-.42s1.41-.25,2.11-.39c.37-.06.72-.11,1.07-.2.89-.12,1.76-.27,2.59-.42,2.1-.33,4.17-.59,6.16-.82.78-.08,1.53-.19,2.32-.27,1.2-.12,2.38-.23,3.53-.33.45-.05.92-.08,1.34-.09,3.16-.25,6.13-.4,8.83-.51,1.26-.03,2.47-.06,3.62-.06h2.69c.89,0,1.7,0,2.46.03h1.02c.76,0,1.45.05,2.08.06s1.28.08,1.83.09c.43,0,.84.05,1.21.06.22,0,.45,0,.67.05.13,0,.25,0,.37.03l.89.08c.14,0,.25.03.33.03h.11c-.45.12-.89.25-1.29.39-.21.04-.41.1-.61.19-.43.14-.89.27-1.32.43,0-.03-.03,0-.05,0-.48.17-.98.34-1.45.51h0c-.15.04-.3.1-.45.17-.08,0-.12.05-.22.08h-.08c-.45.17-.92.36-1.35.55-.15.08-.31.14-.46.22-.51.2-.97.42-1.43.64-.23.11-.43.2-.65.33-.26.11-.52.23-.76.37l-1,.51s-.03,0-.05.05c-.23.12-.46.25-.68.39-.27.12-.53.27-.78.43-.25.13-.5.27-.75.42-1.42.86-2.8,1.79-4.12,2.78-.25.19-.51.39-.76.59-.42.3-.81.62-1.2.97-2.12,1.76-4.09,3.68-5.89,5.76-.23.24-.45.49-.65.76-.22.25-.42.51-.59.73-.46.59-.89,1.12-1.26,1.66-.22.28-.42.59-.61.85s-.31.43-.43.62c-.17.28-.34.51-.51.76-.21.28-.39.58-.56.89-.09.15-.2.33-.28.48-.33.55-.59,1.02-.78,1.4-.08.14-.15.27-.22.39s-.14.28-.2.4-.06.15-.09.22h0v.06c.52-.13,1.05-.21,1.59-.25h.08c.17-.05.34-.08.51-.12s.34-.08.51-.12l1.06-.23c.72-.15,1.41-.3,2.11-.42s1.45-.25,2.19-.34c.26-.05.53-.09.79-.11.27-.05.54-.09.81-.11,1.09-.12,2.19-.25,3.31-.31.61-.05,1.21-.08,1.82-.12.76-.05,1.53-.08,2.3-.08s1.53-.03,2.25-.03,1.46,0,2.21.03l2.84.09,1.15.08h.08c.65.05,1.34.08,2.04.15s1.38.09,2.04.17c.36.03.73.08,1.07.11s.67.06,1.02.11h0c.72.08,1.45.15,2.18.27s1.45.2,2.19.3c.61.09,1.23.19,1.82.3h0c.37.06.75.11,1.09.19.59.08,1.2.2,1.79.3.73.14,1.45.27,2.18.42.84.15,1.68.33,2.52.51,1.25.25,2.49.55,3.73.81s2.47.61,3.7.92,2.43.64,3.62.97c.73.2,1.43.4,2.15.59l1.1.33c.7.2,1.41.42,2.1.64,1.28.37,2.55.78,3.78,1.13h0c.48.19.93.34,1.4.51,1.2.39,2.38.78,3.53,1.16.33.11.64.23.95.33.75.27,1.43.51,2.16.76,1.6.59,3.19,1.15,4.71,1.76.93.36,1.86.73,2.78,1.09,2.38.92,4.6,1.85,6.73,2.74.51.22,1.02.43,1.53.67s1,.42,1.46.64c1.07.46,2.13.93,3.11,1.38.42.19.85.37,1.25.58.51.22.98.42,1.43.65.92.42,1.74.79,2.5,1.16.25.11.48.23.75.36.95.45,1.79.85,2.49,1.21l1.02.51c.31.15.58.3.78.4.09.06.19.11.3.14.34.2.51.3.51.3-1.86-.19-3.65-.31-5.39-.36h-2.91c-.36,0-.72,0-1.07.03-.75.03-1.45.06-2.16.11s-1.41.11-2.08.17-1.35.12-2.04.25c-.75.09-1.53.22-2.25.34-.55.09-1.07.2-1.59.31-.59.12-1.15.25-1.71.39-.43.08-.86.19-1.28.31-1.43.39-2.78.79-4.04,1.26-.43.12-.85.26-1.26.43-.46.2-.95.39-1.4.59-.3.12-.59.25-.89.39-.26.1-.51.21-.75.34-.25.09-.46.22-.72.33-.44.2-.86.42-1.26.65-.37.17-.73.37-1.07.59-.36.2-.7.4-1.02.59-.76.43-1.41.89-2.04,1.29-.2.11-.39.25-.56.4-.03,0-.06.02-.08.05-.39.28-.72.51-1.02.76-.15.1-.29.22-.42.34-.45.39-.81.68-1.02.9-.03.05-.08.06-.09.09-.1.08-.18.16-.27.25.56.19,1.07.39,1.63.59.22.09.43.17.65.25.34.12.67.27.98.39,1.46.59,2.91,1.26,4.36,1.98.58.28,1.12.56,1.7.89s1.02.56,1.53.82c1.13.65,2.29,1.34,3.42,2.04.44.27.87.54,1.31.84.87.55,1.73,1.12,2.58,1.71s1.68,1.18,2.5,1.77,1.65,1.23,2.46,1.86c.31.25.64.48.95.75,1.35,1.07,2.68,2.15,3.92,3.23.51.42,1.06.87,1.53,1.31s.89.76,1.29,1.15c2.68,2.38,5.11,4.74,7.23,6.92.43.45.89.92,1.29,1.35l.75.79c.67.72,1.28,1.4,1.83,2.04.2.2.38.4.55.62.07.06.13.13.19.2.3.34.58.65.82.97.05.03.08.06.08.09.28.33.56.65.79.95s.46.59.68.89.36.45.51.65c.17.22.33.46.46.7h0c.15.22.27.4.36.55.09.15.17.31.23.48,0,.05.05.06.05.09v.08h0l-.03.08h0c-.08.08-.31,0-.7-.31-.22-.14-.42-.3-.68-.45s-.51-.3-.78-.43c-.26-.17-.55-.31-.84-.42-.77-.37-1.56-.7-2.36-.98-.19-.08-.39-.12-.58-.19-1.25-.42-2.58-.81-3.93-1.16-.59-.15-1.21-.3-1.82-.42-.98-.23-1.93-.42-2.86-.61-.62-.12-1.23-.23-1.79-.34-.85-.17-1.68-.28-2.4-.4-.25-.05-.48-.08-.7-.12-.43-.06-.84-.09-1.2-.14s-.62-.09-.85-.12h-.03l-.43-.06c-.06,0-.11-.02-.17-.03h-.05c.37.56.76,1.09,1.13,1.65l.62-.08ZM231.24,410.93c-.25-.34-.46-.7-.67-1.02-.12-.19-.23-.4-.33-.61-.2-.38-.38-.78-.51-1.2-.1-.24-.18-.49-.25-.75-.07-.23-.12-.47-.15-.72-.05-.13-.08-.28-.09-.42-.06-.39-.09-.76-.14-1.15-.03-.39-.03-.78,0-1.16.01-.38.05-.77.11-1.15.05-.27.08-.51.14-.78.04-.26.11-.51.2-.76.07-.29.16-.58.27-.86.2-.54.44-1.05.75-1.53.09-.2.22-.37.33-.56.18-.3.39-.58.62-.84.1-.16.22-.31.36-.45.06-.08.12-.14.2-.23.25-.23.48-.46.75-.72.51-.45,1.06-.87,1.63-1.23.15-.08.31-.17.46-.25.04-.03.08-.05.12-.06.04,0,.07-.02.09-.05,0-.05.03-.05.05-.03h0s.03-.03.05-.03h.03c.08-.06.16-.1.25-.12h.05s.01-.04.03-.05h.03l.2-.08c.06-.03.12-.06.19-.08,0-.02.01-.03.03-.03h.06s0-.05.03-.03h.05s.06-.03.08-.03c.03,0,.07-.02.09-.05.04-.02.09-.04.14-.05l.03-.03h.12c.07-.04.14-.07.22-.08.03-.02.06-.03.09-.03h.08s.08-.02.11-.05c.08-.03.16-.06.25-.08h.14c.21-.07.43-.13.65-.15.05,0,.08-.03.15-.03s.19-.03.27-.03.11-.03.15-.03h.27c.17-.05.34-.08.51-.09h.75c.27,0,.54,0,.81.03.03,0,.08,0,.09.03h.11c.07,0,.15,0,.22.03h.39c.11.02.23.04.34.06.19.03.37.08.55.09.05.03.11.05.17.06h.08c.14.05.27.08.42.12.11.04.23.07.34.09-.73-.46-1.4-1.01-1.98-1.65-.27-.28-.52-.59-.75-.91-.05-.03-.09-.08-.11-.14-.25-.33-.48-.67-.72-1.02-.64-1.05-1.09-2.2-1.34-3.41-.06-.21-.1-.43-.12-.65-.03-.14-.05-.3-.06-.42-.03-.2-.06-.4-.08-.61-.03-.34-.03-.68,0-1.02,0-.66.07-1.32.2-1.96.08-.36.15-.72.27-1.06.2-.68.46-1.34.78-1.98.16-.31.33-.61.51-.9.12-.19.25-.37.39-.55.12-.18.26-.35.4-.51.15-.22.32-.42.51-.59.15-.15.31-.33.48-.48.09-.08.2-.2.31-.28,0-.03.03-.06.06-.06.19-.17.39-.33.59-.48v-.03h.05l.05-.05s.08-.06.12-.08c.14-.08.28-.22.42-.3.27-.15.51-.33.79-.46s.56-.28.85-.42c.28-.14.57-.26.87-.36.6-.23,1.23-.38,1.86-.46.26-.06.52-.09.79-.11.12-.02.25-.04.37-.05.3-.02.6-.02.9,0h1.1c.08,0,.17.01.23.06h.15l.46.08c.09,0,.19.01.27.06h.03c.1.01.19.04.28.08.04,0,.08,0,.11.03h.11c.09,0,.17.03.25.08.06,0,.12.01.15.06.05,0,.1.01.14.05,0-.03.03-.03.03,0s.05,0,.05.03.06,0,.08.03h.12c.11.03.21.07.31.12h.05c.07,0,.15.03.2.08h.03s.03,0,.05.05c0-.03.05,0,.05,0,.02,0,.04.01.05.03,0-.03.03,0,.03,0h.08c.2.08.42.19.59.25.63.33,1.23.72,1.79,1.15.28.21.55.45.79.7,2.14,1.97,3.44,4.69,3.62,7.59.05.84.01,1.67-.11,2.5,0,.15-.03.29-.08.43-.06.2-.08.39-.12.56s-.08.34-.14.51c-.09.36-.23.7-.34,1.02s-.3.65-.46.97c-.1.23-.23.46-.37.67-.1.18-.21.35-.33.51-.11.17-.23.33-.36.51-.49.63-1.03,1.22-1.62,1.76.11-.07.23-.12.36-.15h.07c.18-.1.37-.18.56-.23.05-.05.08-.06.11-.06.05-.02.1-.04.15-.06h.03l.14-.05s.03-.03.05,0c.17-.08.36-.11.51-.17h.03s.07-.02.11-.03c.02-.02.05-.03.08-.03h.08c.08-.05.16-.07.25-.08.08-.03.16-.05.25-.05h.08c.11-.04.23-.06.34-.06,0-.03.03-.03.05-.03h.2c.13-.01.25-.03.37-.06.13,0,.26,0,.39-.03.53-.05,1.07-.05,1.6,0h.25s.04.01.05.03h.14c.08,0,.16.01.23.05.07,0,.15,0,.22.03.09,0,.18.02.27.05.03,0,.06,0,.08.03h.12c.25.05.51.09.75.15s.62.2.92.3c.22.08.43.19.67.28s.42.2.62.3c.27.14.53.3.78.46.29.18.56.38.82.59.08.06.16.12.23.19h0c.19.15.37.3.55.46.55.5,1.04,1.06,1.46,1.66.14.19.28.39.4.59.17.27.33.55.46.84.08.12.12.28.2.42.26.56.47,1.14.62,1.74.1.34.17.68.23,1.02.06.36.08.72.11,1.09.03.26.05.52.05.78.01.31,0,.62-.06.92-.03.36-.08.7-.12,1.06-.03.17-.08.34-.11.51-.04.22-.1.44-.17.65-.08.25-.14.48-.25.75-.15.4-.32.8-.51,1.18-.15.29-.32.57-.51.84-.11.2-.23.39-.37.58-.12.17-.25.33-.39.48-1.02,1.29-2.32,2.34-3.79,3.06-.33.14-.62.28-.97.42-.25.08-.48.17-.75.25-.07.04-.15.06-.23.06-.11.04-.23.06-.34.08-.24.07-.49.12-.75.14-.36.08-.72.12-1.09.14-1.1.09-2.21,0-3.28-.27-.81-.2-1.6-.49-2.35-.85-.26-.11-.5-.25-.73-.42-.25-.11-.48-.25-.68-.42-.25-.17-.45-.33-.67-.48s-.42-.36-.61-.56c-.43-.41-.83-.85-1.2-1.31-.15-.19-.27-.37-.4-.55s-.27-.42-.4-.64c-.16-.25-.3-.52-.42-.79-.08-.15-.17-.33-.25-.51l4.68,12.58h0l-8.88.59h0c0-.09.02-.18.05-.27.04-.15.07-.3.09-.45,0-.05.03-.06.03-.08.05-.17.08-.36.12-.58s.08-.39.12-.59.09-.42.15-.65c.2-.9.43-1.93.68-3.02.06-.23.11-.51.17-.73.46-2.1.98-4.24,1.28-5.67.08-.25.11-.45.15-.65,0-.05,0-.1.03-.14-.12.43-.28.84-.46,1.25-.14.31-.3.62-.45.92-.2.37-.42.72-.67,1.06,0,.02-.01.04-.03.05-.12.2-.25.38-.4.55-.05.08-.1.14-.17.2-.23.25-.45.51-.7.75-.4.4-.84.77-1.31,1.1-.22.18-.46.33-.72.45-.24.18-.49.33-.76.45-.52.26-1.05.47-1.6.64-.56.22-1.14.36-1.74.42h-.12c-.26.05-.53.08-.79.09h-.73c-.71,0-1.43-.07-2.13-.2h0c-.65-.13-1.29-.33-1.91-.58-.04-.04-.1-.06-.15-.08-.29-.12-.58-.25-.85-.4-.61-.31-1.2-.67-1.74-1.09-.54-.42-1.04-.88-1.49-1.38h0c-.25-.28-.45-.55-.65-.81l.04.15Zm25.07-50.56l-15.57,1.02-2.63,8.17h0l-8.75.59h0l5.22-16.08,2.18-6.7,2.19-6.72,3.93-12.1h0l6.76-.46,4.6,9.42,2.77,5.69,2.75,5.67,9.08,18.63v.03l-8.77.59h0l-3.76-7.76Zm228.29,216.17c0-2.58.19-5.15.58-7.7.73-4.57,2.13-9.02,4.15-13.19,4.83-9.97,13.04-17.91,23.17-22.41l1.7-.73,47.08-20.09,9.75-4.15h0l5.96-2.55,5.97-2.55,40.19-17.13,21.51,79.53,7.59,28.09,1.83,6.81c.09.36.2.72.3,1.07,4.21,15.7,0,32.46-11.12,44.32-4.04,4.32-8.87,7.82-14.23,10.31-12.86,6.06-27.76,5.97-40.55-.22-.51-.27-1.02-.51-1.57-.79-2.24-1.2-4.38-2.56-6.4-4.09-9.29-7.09-15.61-17.38-17.74-28.88l-6.84,42.25-31.38-15.22s18.08-19.72,28.95-31.52c-19.44,10.22-43.37,5.63-57.66-11.06-2.49-2.89-4.61-6.09-6.3-9.51-.46-.95-.92-1.91-1.32-2.89-2.34-5.58-3.57-11.57-3.62-17.62v-.14l.02.06Zm74.05-254.31l-13.59-6.57-6.34,5.79-7.89-3.83,17.1-15.57,4.18-3.81,1.57-1.41,2.99-2.72,2.75-2.49,1.79-1.63,1.96-1.79,6.08,2.94-.12,2.13-.4,6.17-.15,2.24v.08l-.25,3.84-1.91,29.31-.85-.42-6.34-3.06-.75-.34.36-5.35.22-3.25-.43-.22.03-.04Zm-13.4,7.15l7.92,29.23c.03.08.05.19.08.27s.05.11.06.15c1.64,6.43-2.24,12.97-8.67,14.62-6.43,1.64-12.97-2.24-14.62-8.67-.07-.26-.13-.53-.17-.8l-1.76,10.78-8.01-3.89s4.6-5.04,7.4-8.08c-3.37,1.81-7.4,1.88-10.84.2-5.96-2.9-8.45-10.08-5.55-16.05,1.24-2.54,3.33-4.57,5.91-5.72l.43-.19,27.82-11.86h0Zm206.39,317.55l-82.77,170.55c-.11-1.02-.25-2.08-.39-3.11-.19-1.28-.4-2.55-.61-3.81-.12-.67-.23-1.34-.37-1.99l-.34-1.62-.12-.65-.06-.22c-.09-.42-.2-.79-.28-1.21l-.23-.95c-.23-.93-.48-1.89-.76-2.95-.19-.65-.37-1.29-.58-1.98-.11-.39-.23-.75-.37-1.13l4.93-10.17c1.46.13,2.92-.32,4.06-1.25.28-.23.53-.48.76-.76,1.53-1.94,1.63-4.65.25-6.7-.08-.09-.12-.22-.2-.33l-.28-.4,70.41-145.08c.23.08.45.15.67.22,1.53.51,3.02.95,4.53,1.35.24.08.49.14.75.19.39.11.78.22,1.16.31,1.71.4,3.39.7,4.87.9.07,0,.14,0,.2.03l-5.24,10.79.04-.04Zm-16.17-122.84h-.08v-.05h.04l.03.03v.02Zm15.83,33.51c1.57.33,3.06.64,4.49.97.34.08.7.17,1.06.25s.68.15,1.02.25c.05,0,.09.01.12.05.11.03.22.06.33.08.12.01.23.03.34.06.03,0,.06.03.09.03.4.09.76.19,1.13.3.98.25,1.95.48,2.88.75.72.2,1.41.36,2.08.59,1.76.48,3.38,1.02,4.88,1.53.51.19,1.02.36,1.53.55.07.01.14.04.2.08.58.2,1.09.42,1.62.61.4.15.78.31,1.16.48.15.05.29.11.42.19h0c.21.1.42.19.64.27l1,.48c.34.14.65.3.95.45.05.03.06.05.09.05h0l.08.05c.3.14.58.3.84.45s.42.22.61.31c.03,0,.03.03.05.03.56.33,1.07.65,1.53.95.27.7.48,1.34.68,1.93.03.1.06.21.08.31v.03c.08.22.14.45.2.68.08.22.14.45.19.68.12.51.22,1.02.28,1.46h0c.05.41.08.83.08,1.25.05.63-.09,1.25-.39,1.8-.14.22-.27.43-.42.64,0,0-.03.03-.03.05-.14.17-.25.31-.39.46-.16.22-.34.41-.55.59-.03.05-.08.08-.09.11l-.19.2c-.22.23-.46.44-.72.64-.24.22-.49.42-.75.61-.18.15-.36.28-.56.4-.07.07-.15.14-.23.19-.04.02-.08.05-.12.08-.05,0-.08.05-.12.08h0c-.34.22-.68.43-1.02.65-.44.27-.89.52-1.35.75-.19.09-.36.19-.51.27-.04.03-.09.05-.14.08-.11.06-.2.09-.31.15h0c-.11.05-.21.09-.33.12-.15.09-.3.17-.46.23-.25.13-.5.23-.76.33-.25.09-.48.22-.72.3-.11.05-.23.08-.33.11-.13.05-.27.09-.4.12-.32.13-.65.24-.98.33-.06.02-.12.04-.17.08-.32,0-.63,0-.95-.05-.48-.03-1-.06-1.53-.11s-1.02-.08-1.53-.15c-.43-.05-.92-.11-1.38-.17h-.08c-.12,0-.23-.02-.34-.05l-1.2-.22c-.36-.05-.73-.12-1.09-.2s-.72-.15-1.07-.25-.87-.17-1.29-.27c0-.03-.03-.03-.05-.03-.48-.09-1-.23-1.48-.37-.59-.15-1.23-.34-1.82-.51-13.76-4.24-47.65-20.69-37.17-51.07,0,0,1.95,21.75,32.31,27.96h.04Zm15.66-16.92v.06c.08.69.22,1.37.42,2.04.06.22.12.43.2.67.28.9.63,1.77,1.06,2.61.07.16.15.32.25.46,0,.06.03.12.08.17.11.23.23.45.37.67,0,.04.02.09.06.11.17.33.36.62.55.92s.43.7.67,1.02c.9,1.26,1.73,2.55,2.49,3.75-6.49-3.14-11.92-8.11-15.63-14.3-5.58-10.21-20.94-11.34-20.94-11.34,5.77-2.3,11.92-3.51,18.13-3.58,11.58-.04,22.6,5.02,30.1,13.84.08.08.15.17.22.27-.08-.03-.43-.2-1-.43-.15-.06-.31-.14-.46-.2s-.28-.11-.43-.19c-.27-.11-.58-.25-.9-.39s-.59-.22-.9-.33c-.51-.2-1.02-.39-1.59-.59-1.26-.46-2.55-.85-3.86-1.18-.33-.09-.64-.17-.95-.23-.25-.07-.49-.13-.75-.17-.49-.11-.99-.18-1.49-.23-.25-.05-.51-.07-.76-.08-.3-.04-.61-.05-.92-.05-.46,0-.92.03-1.37.09l-.03.03c-1.43.05-2.62,1.11-2.84,2.52-.18,1.35-.11,2.71.22,4.03v.03Zm-28.22,48.28c2.39-.02,4.78-.19,7.15-.51,3.91-.57,7.85-.87,11.8-.92.55,0,1.06,0,1.53.03.34,0,.68,0,1,.03s.59.05.9.06c.59.03,1.12.08,1.66.15.25.03.51.06.78.08s.51.06.75.11.46.08.68.09l.73.14c.22.05.43.08.65.11.1.05.2.08.31.09.2.06.4.09.59.17h0c.12.04.25.07.37.08.06.03.09.03.15.06.23.07.45.15.67.25.14.05.27.08.42.14s.34.12.51.2c.12.28.28.58.42.89s.25.59.39.89.25.68.39,1.02.19.67.25,1.02h0c.12.46.21.94.25,1.41.14,1.14-.02,2.3-.46,3.36-.08.18-.18.35-.28.51-.05.08-.08.15-.12.22s-.09.14-.14.2h0s0,.06-.03.08c-.01.02-.03.04-.05.06-.05.04-.09.09-.12.15-.12.14-.25.28-.39.42-.2.21-.42.41-.65.59-.17.14-.34.25-.51.39-.08.08-.2.12-.3.2s-.33.22-.51.31-.39.25-.59.34c0,0-.05,0-.06.03h0l-.03.03h-.03c-.28.14-.61.3-.92.42v.03c-.08.03-.17.06-.25.08-.22.08-.42.17-.67.25s-.46.17-.73.25c-.46.12-.98.28-1.49.42-.11.03-.2.03-.3.06-1.07.22-2.22.42-3.42.59-.12,0-.25.02-.37.05-.59.08-1.23.17-1.85.23s-1.35.15-2.04.19c-.14.04-.28.06-.42.06l-.56.05h-.34c-.3,0-.59.03-.9.05h-.15c-.31,0-.59,0-.92.03-.61,0-1.25.05-1.86.05-6.67.14-13.29-1.22-19.36-3.98-15.99-7.77-19.64-15.89-24.6-33.74,4.84,13.95,18.27,23.07,33.03,22.42h.06Zm16.79,25.74c0,.24,0,.48-.03.72-.03.46-.13.91-.3,1.34h0c-.09.22-.19.42-.3.62-.14.23-.3.45-.48.65-.57.31-1.16.59-1.77.82-.17.08-.34.14-.51.2-.23.1-.46.17-.7.22-.26.1-.53.19-.81.27-.21.07-.42.12-.64.14-.21.07-.42.12-.64.15-.59.14-1.21.23-1.85.33-.26.05-.53.07-.79.08-.42.05-.87.08-1.31.11-.56.03-1.09.03-1.68.03-2.78,0-5.55-.31-8.26-.9-13.17-2.72-23.32-5.41-28.6-26.29,4.61,9.82,14.59,15.98,25.44,15.7.51,0,1.02,0,1.53-.03,2.75-.12,5.26-.19,7.53-.19,1.26,0,2.46,0,3.58.06h.73l.92.05c.51.05,1.02.08,1.53.09,1.16.06,2.22.19,3.19.3.33.06.62.08.93.14.31.03.62.09.92.15h.05c.38.06.75.14,1.12.23.3.66.55,1.34.75,2.04.05.19.08.37.14.56s.08.37.11.56c.06.25.1.5.12.76,0,.09.03.22.03.3.03.25.04.51.05.76v.03Zm99.36-180.55l-34.97,72.06-2.04,4.23-3.42,7.07h0l-1.09,2.25-.68,1.4-.72,1.46c.19,1.77.4,3.81.59,5.74.28,2.69.51,5.24.7,6.81.03.22.05.42.08.62,0,.09,0,.18.03.27,0,.19.06.36.08.55,3.28,28.6-2.63,49.42-7.32,54.92-2.76,3.21-6.8,5.04-11.04,5.01-.4,0-.8-.02-1.2-.06,5.8,7.25,1.46,11.79-2.08,16.18-2.81,3.51-11.55,3.87-14.9,3.87-.81,0-1.29-.03-1.29-.03,1.29,5.73-2.32,11.42-8.05,12.7-1.31.29-2.66.34-3.99.13-1.11,0-2.21-.06-3.31-.19-2.11-.24-4.2-.64-6.25-1.18-2.18-.55-4.2-1.18-5.92-1.79-3.25-1.15-5.44-2.18-5.44-2.18h1.13c1.86.02,3.73-.12,5.57-.42l.06-.14h0c.08.03.16.06.25.08,2.47-.32,4.78-1.37,6.64-3.02.98-.92,1.68-2.11,2.01-3.42.23-.91.33-1.85.28-2.78-.04-1.01-.19-2.01-.46-2.99-.2-.72-.42-1.35-.62-1.91-.05-.09-.08-.22-.11-.3h0c-.17-.42-.34-.78-.48-1.07-.2-.42-.37-.72-.43-.87-.12-.04-.25-.08-.37-.11.45-.05.92-.08,1.37-.14.62-.08,1.25-.15,1.85-.25s1.21-.15,1.79-.27c.4-.06.78-.12,1.16-.2.11-.03.23-.05.34-.06.09,0,.17-.02.25-.06l.51-.09c.56-.14,1.07-.27,1.57-.42,2.39-.64,4.6-1.83,6.46-3.47,1.24-1.14,2.13-2.6,2.55-4.23.34-1.35.41-2.75.19-4.12-.21-1.37-.6-2.71-1.16-3.98-.06-.14-.11-.27-.19-.42-.04-.11-.08-.22-.14-.33-.06-.09-.09-.23-.14-.31-.27-.57-.57-1.13-.9-1.66-.22-.36-.4-.62-.51-.79-.05-.06-.1-.13-.14-.2,1.4-.41,2.76-.92,4.09-1.53.04-.04.1-.06.15-.08,1.09-.49,2.14-1.05,3.16-1.68h0c.36-.25.72-.46,1.07-.72,1.95-1.28,3.61-2.95,4.87-4.91.83-1.65,1.06-3.55.64-5.35-.01-.13-.04-.26-.08-.39-.19-1.06-.45-2.1-.78-3.13-.13-.42-.27-.84-.42-1.26-.19-.51-.39-1.02-.59-1.57-.8-1.95-1.69-3.86-2.68-5.72-1.02-1.91-2.08-3.79-3.13-5.52s-1.99-3.25-2.86-4.56c-.45-.7-.89-1.32-1.26-1.88-1.62-2.22-2.69-4.79-3.13-7.5-.24-1.11.04-2.28.76-3.16.46-.43,1.07-.65,1.7-.61.69.02,1.37.15,2.01.4,1.35.51,3.42,1.34,5.86,2.38,1.41.59,2.92,1.25,4.48,1.89,1.25.56,2.5,1.09,3.75,1.63,1.96.85,3.9,1.73,5.62,2.47.78.34,1.53.67,2.19.95h0l1.53-.51c-.94-.87-1.8-1.83-2.55-2.88-.17-.2-.32-.4-.46-.62v-.03c-.22-.29-.43-.6-.61-.92-1.24-1.84-1.91-4-1.93-6.22l.17-.34,51.34-105.9c4.07-8.37.58-18.46-7.79-22.53,0,0,0,0-.01,0l-41.46-20.13-3.95-1.93-21.72-10.53-58.64-28.46-8.68-4.21-6.06-2.95-6.59-3.2-4.45-2.16-3.53-1.73-10.67-5.16-8.59-4.17-.39-.19-19.47-9.42-7.7-3.75-12.16-5.9-.36-.17h0c-.14-.05-.29-.08-.43-.08h0v-.14l-17.58-8.54-49.57-24.05c-8.37-4.07-18.46-.59-22.53,7.78,0,0,0,0,0,0l-2.58,5.3-1.74,3.58-1.35,2.78-1.41,2.95-1.65,3.39-1.13,2.33-66.45,136.96-4.4,9.05-4.42,9.05-7.6,15.74-8.04,16.53-30.56,62.95-44.7,92.17-36.03,74.25c-4.07,8.35-.59,18.42,7.76,22.49,0,0,.02,0,.03.01l16.4,7.96c-1.1.75-2.13,1.46-3.13,2.19l-.25.19c-.79.59-1.53,1.15-2.29,1.71-1.09.84-2.15,1.65-3.14,2.47-.08.06-.19.14-.25.2-.62.51-1.25,1.02-1.85,1.59l-10.82-5.31c-1.57-.77-3.08-1.68-4.49-2.71h0c-.64-1.2-1.72-2.11-3-2.55-9.04-8.74-11.44-22.29-5.97-33.61l7-14.41,27.48-56.6,22.78-46.95,27.03-55.7c-11.44-22.9-2.15-50.74,20.74-62.18.23-.12.47-.23.71-.35,3.37-1.61,6.93-2.81,10.59-3.58l17.55-36.15,4.4-9.07h0l4.39-9.05h0l57.62-118.67.37-.75-22.64-3.92-25.7-4.42h0l-98.15-16.92c-7.92,12.07-15.26,18.43-23.01,21.33l-.64,3.67-1.09,6.24-1.06,6.21h0l-2.32,13.42-1.1,6.46-1.12,6.52-33.53,194.65-22.31,129.51v.03l-16.31,94.68c-.42.23-.84.46-1.26.72-1.46.82-2.91,1.68-4.32,2.58l-.31.2c-.37.23-.75.46-1.02.67h0c-.48.33-.93.62-1.37.93-.95.62-1.86,1.28-2.8,1.98-.11.06-.2.14-.3.22-.87.64-1.71,1.26-2.55,1.93.06-.67.14-1.31.25-1.98l19.26-111.91,22.32-129.54h0l31.36-182.01,1.12-6.5,1.09-6.49,2.65-15.24-97.14,6.46c-2.92.19-5.74,1.15-8.17,2.77-2.36,1.57-4.29,3.71-5.62,6.22-1.45,2.75-2.12,5.84-1.91,8.94l.9,13.4.43,6.18.42,6.16,1.62,24.51,25.5,383.61c-.15.12-.33.23-.51.36-.27.19-.56.36-.79.51-.08.06-.19.11-.27.17-.19.14-.39.27-.58.39l-.34.19c-.4.25-.81.48-1.28.76s-.78.42-1.25.64c-.28.14-.59.3-.92.42-.12.07-.25.14-.39.19-.39.17-.78.34-1.23.51-.3.13-.61.24-.92.33-.59.22-1.21.39-1.76.51-.27.08-.54.14-.82.19-.3.06-.59.08-.9.15l-1.29-19.5c.19-.1.39-.18.59-.25l.51-.23.58-.23c.28-.12.56-.22.81-.31l1.02-.36c.22-.08.43-.14.68-.23.15-.03.31-.08.45-.14.47-.15.92-.37,1.32-.65,2.44-1.69,3.04-5.03,1.36-7.47-1-1.44-2.64-2.3-4.39-2.31h0c-.33.01-.67.04-1,.09-.12,0-.24.03-.36.08h0s-.09.01-.14.03h-.14l-.22.05c-.22.03-.43.08-.7.11l-.22.05c-.28.03-.59.08-.92.12l-23.62-355.9-.22-3.13-.14-2.21v-.12l-.22-3.09-.15-2.18-.85-13.08-.08-.84-.35-5.33-.08-.89-38.94,8.75c.08.05.16.09.25.12l-3.17.67s-.12-.08-.19-.11l-4.09.92-.37.08.08.05-.17.06h-.12c.03.08.05.17.06.25h-.03l-2.66.59h0l-.48.12c.31,1.77.67,3.72,1.02,5.7.23,1.28.45,2.55.67,3.83.19,1.07.37,2.16.55,3.2.56,3.28,1,6.17,1.18,7.89.09.68.06,1.37-.09,2.04-.13.62-.52,1.16-1.07,1.48-1.09.52-2.36.52-3.45,0-2.65-1.05-5.02-2.72-6.92-4.85-.34-.36-.72-.76-1.12-1.18-.2-.2-.42-.42-.64-.62-.39-.42-.78-.82-1.21-1.25-.79-.79-1.68-1.63-2.58-2.5-1.38-1.32-2.89-2.69-4.46-4.03-1.82-1.53-3.75-3.06-5.62-4.36l-.84-.55h0c-.16-.13-.33-.25-.51-.36-.41-.28-.84-.54-1.28-.78-.58-.33-1.1-.61-1.66-.9-.05-.03-.1-.05-.15-.07-.27-.14-.53-.26-.79-.37-.23-.09-.46-.23-.7-.31-.04,0-.09,0-.12-.03-1.77-.85-3.77-1.11-5.69-.72-2.32.74-4.46,1.94-6.3,3.54-.37.28-.73.59-1.07.9s-.58.51-.82.78-.39.39-.58.59c-.45.48-.87.95-1.25,1.4l-.61.75h0c-.33.42-.61.79-.87,1.13-.75,1-1.16,1.68-1.16,1.68,0,0-.06-.06-.15-.17-.22-.25-.46-.48-.72-.7-.39-.38-.8-.75-1.23-1.09-.3-.25-.62-.5-.98-.75-.07-.06-.14-.11-.22-.15-1.18-.85-2.46-1.56-3.81-2.11-1.37-.52-2.82-.79-4.29-.81-1.77.01-3.51.51-5.02,1.45-2.59,1.73-4.68,4.09-6.09,6.86-.09.14-.18.29-.25.45-.51.97-.98,2.01-1.46,3.09s-.89,2.13-1.29,3.23v-.39c-.25-.2-.89-.75-1.77-1.37h0c-.31-.22-.67-.43-1.06-.67-.19-.12-.39-.23-.59-.36-.14-.1-.28-.18-.43-.25-.95-.5-1.94-.89-2.97-1.18-.96-.27-1.94-.41-2.94-.42-1.42,0-2.82.38-4.04,1.12-.59.33-1.13.74-1.62,1.21-.12.09-.23.19-.33.3-.12.12-.25.25-.37.39l-.37.42c-.11.15-.25.31-.37.48-.79,1.04-1.45,2.17-1.98,3.36-.11.25-.23.48-.34.78s-.25.55-.34.84h0c-.11.27-.2.51-.3.81-.28.82-.56,1.74-.82,2.68l-.27,1.12c-1.41-7.13-1.43-14.46-.08-21.6,1.79-6.7,6.25-11.61,16.37-8.54,0,0,.08-.51.28-1.26.89-3.25,3.5-11.64,7.87-13.51,5.44-2.36,11.24-5.46,17.24,1.93.05-.39.14-.78.25-1.16,1.12-4.21,4.07-7.69,8.04-9.48,7.4-3.44,33.4-3.95,64.93,8.68.93.35,1.92.49,2.91.42.25,0,.45-.05.7-.06.35-.04.69-.11,1.02-.2.16-.02.32-.05.48-.11.17-.05.33-.09.51-.15.17-.07.35-.15.51-.23.06,0,.11-.03.15-.06,3.91-2.29,6.83-5.95,8.19-10.28,4.72-10.49,11.76-19.76,20.59-27.13h0c3.09-3.73,7.08-6.61,11.58-8.4,2.07-.82,4.22-1.4,6.42-1.73h.06c.76-.11,1.53-.2,2.27-.25l100.1-6.64.42-2.46c-8.54-.54-17.01-1.89-25.3-4.01-28.28-6-1.83-49.57-1.83-49.57-.55,7.45,1.65,14.84,6.17,20.78,1.91,2.04,13.79,2.97,13.79,2.97-1.46-10.25.3-20.7,5.02-29.92.33,16.05,13.32,27.4,15.58,29.23l.72-.48c1.46-2.99,3.86-5.42,6.83-6.92,4.71-2.39,9.29-5.03,13.72-7.92,25.58-20.94,54.14-68.31,54.14-68.31-4.61-3.58-9.65-6.59-14.99-8.94-36.59,19.28-55.21-7.96-55.21-7.96-9.28,5.72-29.74,1.62-29.74,1.62-5.96,9.28-17.58,13.15-27.91,9.3-8.26,7.76-1.59,44.27-1.59,44.27-21.15-14.56-21.51-49.34-21.51-49.34-2.75-2.75-21.8-8.94-21.8-8.94-2.93,12.36-2.99,25.23-.17,37.61-8.82-12.49-12.8-27.76-11.2-42.96-5.04-1.69-8.43-6.43-8.41-11.75-.09-9.25,14.38-17.6,14.38-17.6-9.67-8.04-3.75-26-3.75-26,2.11,8.49,15.21,15.8,15.21,15.8,19.2-8.5,43.02,4.85,43.02,4.85,10.43-5,22.34-5.96,33.43-2.68,3.28-3.93,13.92-14.02,13.92-14.02-1.95-14.85,14.85-18.18,14.85-18.18,41.37-11.91,107.51-8.57,107.51-8.57-14.07,4.32-28.02,19.1-32.24,23.79-4.22,4.69-2.58,5.7-2.58,5.7,22.13-1.34,22.02,9.58,44.76,7.56,22.75-2.02,42.62-26.05,42.62-26.05-17.98-1.73-18.01,20.14-43.69,20.4-25.68.27-27.2-7.82-27.2-7.82,24.96-40.07,92.47-41.67,187.72-16.58,95.24,25.1,135.73-36.26,135.73-36.26,0,0-2.4,28.92-55.73,53.04-53.33,24.12-136.72-5.2-165.88,8.16-29.17,13.36-35.69,29.29-35.69,29.29,29.03,15.02,22.75,51.11,22.75,51.11-25.25-16.85-63.52-17.23-70.41-7.35-6.72,9.66-37.72,35.38-39.08,36.53,8.94-2.51,17.38-6.54,24.94-11.93,9.36-7.62,24-19.98,34.4-22.78,5.16-2.07,11.06-.83,14.94,3.16,25.19,31.58-2.83,70.22-2.83,70.22-33.99-33.65-102.14-5.57-121.48,3.41l140.04,24.15h0l1.86.33.22-.46,5.62-11.58c7.04-14.44,24.43-20.47,38.91-13.5l42.9,20.84c-9.28-54.55-64.01-84.42-64.01-84.42,23.85-47.11-11.61-57.25-11.61-57.25,0,0,28.97-23.22,54.44-24.29,100.95,70.7,124.91,149.94,121.55,214.68l9,4.37c10.96-141.07-115.42-217.21-115.42-217.21,16.77,3.18,33.86,4.28,50.89,3.28,21.23-2.19,55.87,8.93,58.78,9.87-33.74-8.47-63.56,12.5-29.67,9.03,33.98-3.48,44.74,10.79,44.74,10.79-40.35-10.93-50.09,5.01-19.8,6.92s36.17,20.59,36.17,20.59c0,0-30.51-18.92-41.71-6.95-11.2,11.97,3.79,17.01,33.2,20.87,16.39,1.56,30.76,11.64,37.79,26.53-1.13-2.08-7.37-10.6-33.99-12.1-30.32-1.71-10.02,15.67,24.43,31.52s35.04,35.41,35.04,35.41c-19.3-25.72-89.8-36.15-43.21-5.22,46.59,30.93,50.85,71.72,50.85,71.72-11-35.08-51.65-59.46-55.2-43.68s4.48,16.78,28.6,42.75c8.43,9.97,14.49,21.72,17.74,34.37l50.51,24.51c14.46,7.02,20.5,24.43,13.48,38.89l-.18-.11Zm-492.79-117.02l-3.06,5.04-1.4,2.27h0l-5.27-.89-3.38-.59h0l3.51-5.72,6.89-11.18,3.95-6.42,3.93-6.4,4.6-7.53h0l6.69,1.13,1.23,5.57,1.34,6.05,1.31,6.08h0l1.37,6.25,1.28,5.96,1.32,6.02,1.53,6.92h0l-8.68-1.49-.82-3.78-1.02-4.6-3.75-.65h0l-11.56-2.02Zm6.81,13.74c-.31-.95-.59-1.88-.85-2.84h0c.25.97.56,1.91.84,2.86l.02-.02Zm-10.48-2.22c4.09.63,7.41,3.62,8.46,7.62,3.08-4.86,9.53-6.31,14.39-3.23,4.86,3.08,6.31,9.53,3.23,14.39-.56.88-1.24,1.67-2.03,2.34l-.33.28-20.14,16.88-13.93-22.28c-.06-.09-.14-.23-.22-.33-1.27-2.12-1.75-4.61-1.37-7.04.88-5.66,6.19-9.54,11.85-8.66.02,0,.04,0,.06,0h.03Zm23.39,27.97h0l-.03-.05s-.09-.12-.17-.25c.05.09.12.16.19.23,0,.06.03.08.03.08l-.02-.02Z"/><path id="Path_397" class="cls-1" d="m558.07,303.78l-1.29,1.18-5.82,5.33,5.82-5.32,1.29-1.18,2.38-2.18h0l-2.38,2.16Z"/><path id="Path_398" class="cls-1" d="m560.45,301.62h0l-.15,2.55-.67,10.33-1.53-.75h0l-7.15-3.45,5.83-5.32,1.29-1.18,2.38-2.19Z"/><path id="Path_399" class="cls-1" d="m366.21,310.36h0l3.03-4.93-3.06,4.93h.03Z"/><path id="Path_400" class="cls-1" d="m375.73,311.98l-9.48-1.63,3.02-4.94h0l3.7-5.99,1.25,5.66,1.52,6.9Z"/><path id="Path_401" class="cls-1" d="m252.83,353.21l-9.64.65.55-1.65,2.18-6.7,1.26-3.9,1.62,3.29,2.75,5.67,1.29,2.63Z"/><path id="Path_402" class="cls-1" d="m424.49,126.93c-.1-.04-.2-.07-.3-.09l.3.11c.15.06.31.11.45.15-.14-.06-.29-.11-.45-.17Zm-24.83-6.4h-.33c.11,0,.22,0,.33.03.27.01.54.04.81.08l-.81-.08v-.03Zm-.81-.06h.3c-.1,0-.2,0-.3-.03v.03Zm-.08,0h-.9c.3,0,.6,0,.9.03h0v-.03Zm-26.82,6.9c-.11.04-.22.09-.31.15l.31-.14c.09-.06.2-.09.31-.15-.11.04-.21.09-.31.14Zm-.62.3c-.11.04-.21.09-.31.15.1-.06.2-.1.31-.14.11-.06.22-.09.31-.15-.1.04-.2.08-.3.14h-.02Zm-10.43,5.7h0l.06-.06-.06.05v.02Zm-70.3-3.62h0l.15-.05c-.05.01-.1.03-.15.05h0Zm-.11.05c-.14.06-.3.09-.42.14-.04,0-.08.02-.11.05h.03c.22-.08.42-.14.62-.22-.04,0-.08,0-.11.03h-.02Zm-1.15.37h0c.1-.03.2-.06.3-.08-.1.03-.2.06-.3.08h0Zm138.58-1.95s-.05-.03-.08-.05c-.13-.05-.26-.1-.39-.14.03,0,.05.03.06.03.04,0,.08.02.11.05.07.03.14.06.22.08.03,0,.06.02.08.05.06,0,.11.05.15.06s.14.05.2.08l.19.08h.06s-.22-.09-.59-.23h-.02Zm-1.31-.51h-.01s.01.03.03.03c.28.11.56.2.76.3h.06s-.04-.03-.06-.03c-.24-.09-.51-.18-.79-.29h.01Zm-.11-.05l-.39-.14c.13.06.26.11.39.15h.05s-.03-.03-.05-.03v.02Zm-1.4-.51c-.19-.06-.39-.12-.58-.2s-.4-.14-.61-.23c-.03,0-.06-.03-.09-.05-.09-.05-.18-.07-.28-.08.09.03.2.06.28.09.04,0,.07.02.09.05.1.04.21.08.31.11l.3.11c.15.06.31.11.45.15.05,0,.08.03.12.05l.25.09c.12.05.27.08.39.12-.2-.08-.42-.15-.64-.25v.05Zm-1.85-.65l-.68-.23h0c.25.08.46.17.68.25.09.03.18.06.27.08-.08-.04-.17-.08-.27-.09Zm-.87-.3c.05.03.11.06.17.08h0l-.17-.08Zm-.55-.19c-.25-.07-.5-.16-.75-.27-.19-.06-.37-.11-.56-.19-.08-.03-.15-.06-.23-.08.08.03.15.06.23.08.19.08.37.12.56.19s.51.19.75.27c.12.03.25.08.37.11-.12-.05-.25-.08-.37-.12v.02Zm-2.33-.78c-.09-.03-.17-.06-.27-.08l.27.09c.25.08.55.15.79.25-.25-.09-.55-.17-.79-.25v-.02Zm-1.68-.55c.28.08.58.19.84.27h0c-.26-.1-.56-.19-.84-.27h0Zm-1.77-.56c-.09-.03-.18-.06-.27-.08.09.03.18.06.27.08.05,0,.09.02.14.05.15.03.3.08.43.11-.19-.06-.39-.11-.59-.17l.02.02Zm-.51-.14c-.2-.08-.42-.14-.62-.2s-.46-.12-.72-.2-.59-.17-.89-.25c.3.08.59.17.89.25.08.03.15.05.23.08.17.05.33.08.48.12.08.01.16.04.23.08l.4.12c.09,0,.17.03.25.06-.08-.03-.16-.06-.25-.08l-.02.03Zm-2.94-.85c-.15-.04-.3-.08-.45-.11.15.05.31.08.45.12.25.08.48.14.73.2l-.73-.22Zm-.92-.25c-.23-.06-.45-.11-.67-.17.22.06.43.11.67.19.14.03.3.08.45.11-.15-.06-.3-.1-.45-.14h0Zm-2.69-.68c-.1-.04-.21-.06-.31-.06-.09-.04-.19-.07-.3-.08-.51-.14-1.06-.25-1.59-.36.4.08.79.17,1.18.27l.4.09c.1,0,.2.03.3.08h.08c.08,0,.16.02.23.05l.68.17c.25.06.46.09.68.15l-1.37-.34v.04Zm-2.43-.55c-.05-.01-.1-.03-.15-.03-.2-.05-.39-.08-.58-.11.09.03.2.05.3.08.04,0,.09,0,.12.03.05,0,.1,0,.14.03.05,0,.11,0,.15.03.07,0,.14.02.2.05h.05c-.08-.03-.16-.05-.25-.06l.02-.02Zm-1.41-.28c-.25-.06-.51-.09-.75-.14-.46-.08-.93-.17-1.41-.25-.14-.03-.27-.05-.42-.08.14.03.28.06.42.08.46.08.93.15,1.41.25.25.05.51.08.75.14.08,0,.12.03.2.03-.07,0-.14-.02-.2-.05v.02Zm-3.33-.59c-.25-.04-.51-.08-.76-.09-.2-.03-.39-.05-.58-.08-.27-.03-.55-.06-.81-.08-.12,0-.25-.03-.4-.03h.08c.11,0,.22,0,.33.03.27.01.54.04.81.08.19.04.38.07.58.08l.76.09c.2.03.4.06.59.08-.19-.05-.39-.08-.59-.09v.02Zm-2.95-.31h.4c-.14,0-.28,0-.42-.03l.02.03Zm-.08,0h-.9c.3,0,.6,0,.9.03h0v-.03Zm-4.2.06c-.14,0-.28,0-.42.03-.51.05-1.02.09-1.53.17s-1.02.14-1.53.22-1.06.2-1.57.31l-1.12.23c-.14.03-.28.06-.42.08-.25.06-.48.11-.73.19.24-.07.48-.13.73-.17h.08c.11-.03.25-.05.36-.08l1.12-.23c.14-.03.28-.06.42-.08.14-.05.29-.08.43-.08.23-.06.46-.09.7-.14s.51-.08.76-.11c.08,0,.16,0,.23-.03.19-.03.36-.06.55-.08.51-.08,1.02-.12,1.53-.17.28-.03.58-.05.87-.06h-.43l-.03-.02Zm2.04-.09h-.45c-.14,0-.27,0-.4.03h.87l-.02-.03Zm-10.88,1.73c-.09.01-.17.04-.25.08-.14.03-.28.08-.42.11s-.25.08-.4.11c-.43.12-.9.27-1.35.42s-1.02.31-1.53.48c-2.04.68-3.98,1.45-5.85,2.22-.45.2-.92.4-1.38.59-.33.15-.67.31-1.02.45-.09.05-.2.08-.31.14-.22.08-.43.19-.67.3s-.42.2-.62.31c-.11.04-.22.09-.31.15l.31-.14c.09-.06.2-.09.31-.15s.2-.09.31-.15c.23-.11.45-.22.67-.3.11-.06.22-.09.31-.14.34-.14.68-.3,1.02-.45.46-.2.92-.4,1.38-.59,1.86-.76,3.83-1.53,5.85-2.22.51-.17,1.02-.33,1.53-.48l1.35-.42c.14-.03.28-.08.4-.11.14-.04.28-.08.42-.11.08-.03.16-.06.25-.08.11-.04.22-.07.33-.09-.11.02-.22.04-.33.08h0Zm-15.04,5.82c-.42.17-.79.37-1.18.58-.7.34-1.34.68-1.95,1-.22.11-.42.23-.62.34-.28.15-.56.3-.82.43-.03,0-.06.02-.08.05.03,0,.06,0,.08-.03.27-.15.55-.3.82-.43.2-.11.4-.25.62-.34.61-.31,1.25-.65,1.95-1,.39-.2.76-.4,1.18-.58.11-.04.21-.09.31-.15.1-.06.2-.1.31-.14.11-.06.22-.09.31-.15-.11.04-.21.08-.31.14-.21.06-.41.19-.62.29h0Zm15.36-5.91c.11-.03.22-.06.33-.08h0s.08,0,.09-.03c.19-.06.39-.11.59-.15h.06s.05-.03.08-.03c-.39.08-.78.19-1.16.31l.02-.02Zm-20.26,8.41c-.22.11-.42.25-.62.36l.17-.08c.14-.08.3-.17.45-.25h.03s.06-.05.09-.08l-.12.08v-.03Zm-2.8,1.59c-.1.08-.21.14-.33.19-.19.1-.38.22-.56.34-.17.08-.31.19-.45.27-.03.03-.08.05-.09.08s.08-.05.09-.06c.14-.08.28-.19.45-.27.18-.12.37-.24.56-.34.12-.04.23-.11.33-.19.08-.06.16-.1.25-.14-.08.03-.15.08-.25.12Zm-1.53.92c-.07.04-.13.07-.2.09-.04.03-.08.06-.12.09.04-.03.08-.06.12-.08.03,0,.08-.05.11-.06.03,0,.06-.02.08-.05.03-.03.06-.05.09-.08-.05,0-.08.05-.09.06l.02.02Zm-.61.39h0l.06-.06-.06.05v.02Zm.08-.05l.08-.05h0s-.05.02-.07.04h-.01Zm-61.14-8.26c-.12.09-.24.17-.37.25h0c.13-.07.25-.15.37-.23.3-.22.51-.39.73-.51-.2.14-.42.31-.73.51v-.02Zm.73-.51c.19-.12.31-.23.4-.3-.07.06-.21.15-.39.29h-.01Zm-1.68,1.13c-.73.46-1.62,1.02-2.68,1.59,1.06-.56,1.95-1.09,2.68-1.57.14-.08.28-.17.4-.27-.12.1-.25.19-.39.26h-.01Zm-4.56,2.52c-.1.05-.19.1-.3.14-.07.04-.14.07-.22.09-.03,0-.08,0-.09.03-.05.05-.12.08-.19.08-.06.03-.13.06-.2.08-.59.25-1.25.51-1.91.76-.17.08-.34.12-.51.2.17-.06.34-.11.51-.19.67-.25,1.31-.51,1.91-.76.07-.03.13-.06.2-.08.04,0,.07-.02.09-.05h.05s.03,0,.05-.03.08-.03.09-.03l.22-.09c.1-.04.2-.09.3-.14.25-.12.51-.25.76-.39l-.76.37Zm-3.73,1.53l-.11.05c-.14.06-.3.09-.42.14-.04,0-.08.02-.11.05h.03c.22-.08.42-.14.62-.22.05-.02.1-.04.15-.06-.05.01-.1.03-.15.05h-.02Zm-1.26.42c-.51.15-1.02.31-1.59.45h0l.15-.05c.22-.06.42-.11.61-.17.1-.03.2-.06.3-.08.07-.01.13-.03.19-.06.11-.04.23-.07.34-.09.09-.04.19-.08.3-.09-.1.03-.2.06-.3.08h0Zm-2.75.73c-.34.08-.7.15-1.06.22-.29.07-.59.12-.89.15-.37.08-.78.12-1.18.17.2,0,.4-.02.59-.06l.58-.09c.3-.04.6-.09.89-.15.36-.06.72-.12,1.06-.22s.73-.17,1.07-.25c-.34.08-.7.15-1.07.25v-.02Zm-4.45.7h0c.23-.03.43-.06.65-.08-.22.03-.43.05-.67.08h.02Z"/><path id="Path_403" class="cls-1" d="m301.01,124.24c-.12,3.32-.72,6.61-1.79,9.76-.09.33-.23.62-.36.97s-.25.62-.37.92c-.25.59-.51,1.1-.79,1.63h0c-.88,1.71-1.99,3.28-3.31,4.66-.13.15-.27.29-.42.42-.36.35-.74.68-1.13.98-.24.2-.5.38-.76.55-.03.02-.06.05-.09.08-.03,0-.06.05-.08.06-.05.03-.1.05-.15.08-.03,0-.05,0-.06.03-.02,0-.04.01-.05.03h0c-.98-3.63-2.85-6.97-5.43-9.7-.06-.06-.11-.12-.19-.2-.06-.07-.13-.13-.2-.19-.12-.11-.25-.23-.36-.34s-.22-.22-.33-.31l-.09-.07s-.06-.05-.08-.06c-.15-.15-.31-.29-.48-.42h-.03l-.05-.05h0c-.65-.54-1.34-1.01-2.08-1.41-.05-.03-.08-.03-.09-.05s-.05-.03-.06-.03c.65-.06,1.29-.12,1.91-.23l.58-.09c.3-.04.6-.09.89-.15.36-.06.72-.12,1.06-.22l.46-.09h.02c.19-.05.39-.09.58-.15h.09l.15-.05c.22-.06.42-.11.61-.17.1-.03.2-.06.3-.08.07-.01.13-.03.19-.06.11-.04.23-.07.34-.09.09-.04.19-.08.3-.09.11-.03.22-.08.31-.09h.03c.22-.08.42-.14.62-.22.05-.02.1-.04.15-.06.06-.03.09-.03.15-.06.17-.06.34-.11.51-.19.67-.25,1.31-.51,1.91-.76.07-.03.13-.06.2-.08.04,0,.07-.02.09-.05h.05s.03,0,.05-.03.08-.03.09-.03l.22-.09c.1-.04.2-.09.3-.14.25-.12.51-.25.76-.39.39-.19.75-.39,1.1-.58,1.06-.56,1.95-1.09,2.68-1.57.14-.08.28-.17.4-.27.07-.03.13-.06.19-.11.14-.08.25-.17.37-.25.3-.22.51-.39.73-.51s.31-.23.4-.3l.08-.06-.04-.02Z"/><path id="Path_404" class="cls-1" d="m428.42,128.44c-1.1-.14-2.19-.25-3.22-.33-.43-.05-.87-.06-1.31-.08s-.89-.05-1.29-.06c-.23-.03-.46-.04-.68-.03h-1.53c-.82,0-1.62.03-2.38.08-.56,0-1.09.06-1.62.11h-.19c-.46.06-.93.11-1.4.19-.31.05-.62.09-.92.15-.14.01-.27.04-.4.08-.34.04-.67.11-1,.22-.27.08-.51.12-.79.2s-.51.14-.75.22c-.48.14-.97.31-1.41.48-.95.35-1.87.78-2.75,1.29-.03,0-.06,0-.08.05s-.09.03-.14.08c-.02,0-.05.01-.06.03-.06.02-.12.05-.17.09-.15.08-.29.16-.42.27-.22.12-.43.26-.64.4-.42.27-.82.56-1.23.85l-.58.43c-.78.59-1.53,1.23-2.24,1.86l-.73.64c-.31.27-.64.56-.97.84-.55.46-1.1.93-1.71,1.41-.4.3-.79.59-1.23.9-.02,0-.04.01-.05.03l-.03.03c-.25.14-.48.31-.75.46-.24.17-.5.32-.76.45-.04.03-.08.06-.12.08-.14.08-.28.15-.43.23s-.28.15-.42.22c-.19.11-.39.2-.59.27-.51.25-1.07.46-1.62.67-.14.05-.28.08-.42.14s-.28.08-.42.12-.27.08-.42.12c-.07,0-.13.03-.19.06-.06,0-.11.02-.17.05l-.37.09c-.4.08-.82.19-1.25.25-.05,0-.1,0-.14.03-.05,0-.11,0-.15.03-.13.01-.25.03-.37.06-.43.08-.9.12-1.32.19l-.68.08c-.23.03-.46.04-.68.03-.25.03-.51.05-.76.05h-.81c-.46,0-.95,0-1.41-.05h-.34c-.18,0-.37,0-.55-.03-.39-.03-.76-.08-1.13-.12-.27-.03-.56-.08-.82-.09-.1,0-.2-.02-.3-.05-.37-.08-.72-.12-1.07-.2-.19-.05-.36-.08-.55-.11-.03,0-.06,0-.08-.03-.17-.05-.34-.08-.51-.11s-.33-.08-.51-.11c-.31-.08-.61-.17-.92-.25h-.08c-.07-.03-.15-.05-.22-.06-.1-.04-.19-.06-.3-.08-.17-.06-.34-.11-.51-.15-.17-.07-.34-.13-.51-.17-.34-.11-.65-.23-.97-.34s-.64-.25-.95-.37c-.09-.05-.23-.08-.33-.12-.19-.08-.39-.15-.58-.25-.3-.11-.59-.25-.89-.37-.02-.02-.05-.04-.08-.05-.27-.11-.51-.25-.78-.36-.82-.42-1.6-.84-2.35-1.25-.24-.12-.48-.26-.7-.42-.46-.27-.92-.56-1.31-.81-.2-.12-.4-.26-.59-.4-.08-.04-.15-.09-.22-.14-.03-.03-.07-.06-.11-.08-.08-.06-.14-.11-.23-.17-.19-.11-.34-.25-.51-.36s-.33-.23-.46-.34h0c-.3-.25-.58-.43-.79-.59-.11-.09-.23-.19-.33-.28s-.09-.08-.14-.09c-.02-.02-.05-.05-.08-.06-.03,0-.05-.05-.08-.08-.04-.02-.07-.05-.11-.08-.12-.07-.22-.16-.31-.27-.11-.08-.17-.15-.22-.19h0v-.03l.03-.03h.03l.06-.06h0l.08-.05h0s.08-.06.12-.08c.09-.04.17-.08.25-.14.03,0,.06-.02.08-.05.03-.03.06-.05.09-.08s.08-.05.09-.06c.14-.08.28-.19.45-.27.18-.12.37-.24.56-.34.12-.04.23-.11.33-.19.08-.06.16-.1.25-.14.06-.04.12-.08.19-.11.08-.05.19-.09.28-.15.05-.04.11-.07.17-.09.06-.04.12-.08.19-.11h.03c.25-.15.51-.31.81-.45.05,0,.08-.05.11-.08.05-.03.1-.06.15-.08l.17-.08c.14-.08.3-.17.45-.25h.03s.06-.05.09-.08h.03s.05-.01.06-.03c.03-.03.06,0,.08-.03.27-.15.55-.3.82-.43.2-.11.4-.25.62-.34.61-.31,1.25-.65,1.95-1,.39-.2.76-.4,1.18-.58.11-.04.21-.09.31-.15.1-.06.2-.1.31-.14.11-.06.22-.09.31-.15l.31-.14c.09-.06.2-.09.31-.15s.2-.09.31-.15c.23-.11.45-.22.67-.3.11-.06.22-.09.31-.14.34-.14.68-.3,1.02-.45.46-.2.92-.4,1.38-.59,1.86-.76,3.83-1.53,5.85-2.22.51-.17,1.02-.33,1.53-.48l1.35-.42c.14-.03.28-.08.4-.11.14-.04.28-.08.42-.11.08-.03.16-.06.25-.08.11-.04.22-.07.33-.09.11-.03.22-.06.33-.08h0s.08,0,.09-.03c.18-.06.36-.1.55-.12.02-.01.04-.02.06-.03h.06s.05-.03.08-.03c.24-.07.48-.13.73-.17h.08c.11-.03.25-.05.36-.08l1.12-.23c.14-.03.28-.06.42-.08.14-.05.29-.08.43-.08.48-.09.98-.19,1.46-.25.08,0,.16,0,.23-.03.19-.03.36-.06.55-.08.51-.08,1.02-.12,1.53-.17.28-.03.58-.05.87-.06s.51-.03.75-.05h2.11c.3,0,.6,0,.9.03h.56c.11,0,.22,0,.33.03.27.01.54.04.81.08.19.04.38.07.58.08l.76.09c.2.03.4.06.59.08.08,0,.12.03.19.03.14.03.28.06.42.08.46.08.93.15,1.41.25.25.05.51.08.75.14.08,0,.12.03.2.03.07,0,.14,0,.2.05.1.01.19.03.28.06.09.03.2.05.3.08.04,0,.09,0,.12.03.05,0,.1,0,.14.03.05,0,.11,0,.15.03.07,0,.14.02.2.05.42.08.81.17,1.23.27l.4.09c.1,0,.2.03.3.08h.08c.08,0,.16.02.23.05l.68.17c.34.08.68.17,1.02.25.11.03.22.06.33.08.22.06.43.11.65.17.14.03.3.08.45.11s.31.08.45.12c.25.08.48.14.73.2s.59.17.89.25c.08.03.15.05.23.08.17.05.33.08.48.12.08.01.16.04.23.08l.4.12c.09,0,.17.03.25.06.09.03.18.06.27.08.05,0,.09.02.14.05.14.05.28.09.42.12.25.08.48.14.72.22h.08c.11.04.22.07.33.09.04,0,.08.02.11.05.28.08.58.19.84.27h0l.36.11c.08,0,.12.05.2.08l.27.09c.25.08.55.15.79.25.08.03.15.06.23.08.19.08.37.12.56.19s.51.19.75.27c.12.03.25.08.37.11.05.03.11.05.17.06.05.03.11.06.17.08h0c.25.08.46.17.68.25.09.03.18.06.27.08.09.03.2.06.28.09.04,0,.07.02.09.05.1.04.21.08.31.11l.3.11c.15.06.31.11.45.15.05,0,.08.03.12.05l.25.09c.12.05.27.08.39.12.12.05.25.1.37.14.13.06.26.11.39.15h.08s.01.03.03.03c.28.11.56.2.76.3.04,0,.09.02.12.05.04,0,.08.02.11.05.07.03.14.06.22.08.03,0,.06.02.08.05.06,0,.11.05.15.06s.14.05.2.08c.06.04.12.07.19.08l.08-.09Z"/><path id="Path_405" class="cls-1" d="m114.48,622.34h0l-.79-3.78-.76-3.75,1.55,7.53Z"/></g></g></g></svg>