<?xml version="1.0" encoding="UTF-8"?><svg id="Lag_1" xmlns="http://www.w3.org/2000/svg" viewBox="0 0 399.61 915.53"><defs><style>.cls-1,.cls-2,.cls-3{fill:#fff;}.cls-4{fill:red;opacity:.39;}.cls-5,.cls-6,.cls-2{opacity:.22;}.cls-6,.cls-7{fill:none;}.cls-3{opacity:.15;}</style></defs><path class="cls-3" d="m399.59,456.86v.02c.02.24.02.46-.02.63-.17.96-.63,1.59-1.23,1.95-1.25.79-3.1.46-4.19-.05-5.7-2.53-12.37-2.91-17.06-9.05-.12-.12-.24-.29-.36-.43-.07.24-.14.51-.24.75-.31.96-.58,1.9-.75,2.82-.72,3.3-.63,6.28-.05,9.1.84,4.07,2.7,7.75,4.57,11.43.1.22.22.41.31.63,3.75,7.27,7.8,14.42,11.19,21.85,4.07,8.88,4.02,14.06-4.62,15.23-.79.1-1.66.17-2.55.19-1.52.02-9.24-3.01-11.99-2.36-2.36.58-3.73.75-5.13.24-.6-.24-1.35-.6-1.93-1.18l-.17-.24c-1.04-1.25-6.35-8.01-7.63-10.66l-14.61-20.46-.14-.24-.14-.19c-7.58-10.9-15.5-22.7-19.93-32.11-.19-.46-.38-.91-.6-1.4-.65-1.54-1.47-3.01-2.17-4.52-15.72-34.37-32.13-68.5-41.69-105.39-2.21-8.5-4.04-17.14-5.44-25.97-.07,26.21.87,52.25,4.69,77.86,1.04,6.98,2.48,13.94,4.07,20.87,1.54,6.74,3.2,13.48,4.79,20.22,3.13,13.07,5.92,26.16,6.76,39.4,2.48,38.46-.1,77.23-.58,115.89-.36,27.7-1.25,55.38-1.06,83.08.1,17.76,3.66,35.67,2.26,53.26-2.5,31.14-7.89,62.1-11.5,93.19-2.91,25.27-1.49,50.3,9.46,73.82,3.66,7.85,15.5,14.95,8.04,23.59-4.67,5.39-16.08,6.26-24.62,6.74-21.93,1.3-25.78-4.33-24.65-26.93,1.37-27.94-4.09-56.03,1.23-84,.51-2.79-.89-5.97-1.49-8.93-7.7-38.27-19.54-76.01-14.27-115.91.55-4.14-1.18-8.57-1.97-12.83-7.08-37.93-14.68-75.77-21.11-113.79-3.37-19.98-4.69-40.29-7.03-61.08-2.26.1-3.03.14-6.26.29-3.23-.14-4-.19-6.26-.29-2.33,20.79-3.66,41.11-7.03,61.08-6.43,38.03-14.03,75.86-21.11,113.79-.79,4.26-2.53,8.69-1.97,12.83,5.27,39.9-6.57,77.64-14.27,115.91-.6,2.96-2,6.14-1.49,8.93,5.32,27.97-.14,56.05,1.23,84,1.13,22.6-2.72,28.23-24.65,26.93-8.54-.48-19.95-1.35-24.62-6.74-7.46-8.64,4.38-15.74,8.04-23.59,10.95-23.51,12.37-48.55,9.46-73.82-3.61-31.1-9-62.05-11.5-93.19-1.4-17.59,2.17-35.5,2.26-53.26.19-27.7-.7-55.38-1.06-83.08-.48-38.65-3.06-77.43-.58-115.89.84-13.24,3.63-26.33,6.76-39.4,1.59-6.74,3.25-13.48,4.79-20.22,1.59-6.93,3.03-13.89,4.07-20.87,3.83-25.61,4.77-51.65,4.69-77.86-1.4,8.83-3.23,17.47-5.44,25.97-9.56,36.9-25.97,71.02-41.69,105.39-.7,1.52-1.52,2.98-2.17,4.52-.22.48-.41.94-.6,1.4-4.43,9.41-12.35,21.2-19.93,32.11l-.14.19-.14.24-14.61,20.46c-1.28,2.65-6.59,9.41-7.63,10.66l-.17.24c-.58.58-1.32.94-1.93,1.18-1.4.51-2.77.34-5.13-.24-2.74-.65-10.47,2.38-11.99,2.36-.89-.02-1.76-.1-2.55-.19-8.64-1.18-8.69-6.35-4.62-15.23,3.39-7.44,7.44-14.59,11.19-21.85.1-.22.22-.41.31-.63,1.88-3.68,3.73-7.36,4.57-11.43.58-2.82.67-5.8-.05-9.1-.17-.91-.43-1.85-.75-2.82-.1-.24-.17-.51-.24-.75-.12.14-.24.31-.36.43-4.69,6.14-11.36,6.52-17.06,9.05-1.08.51-2.94.84-4.19.05-.6-.36-1.06-.99-1.23-1.95-.05-.17-.05-.39-.02-.63v-.02c.12-1.3,1.08-3.08,2.09-3.73,12.56-8.01,19.13-24.69,36.78-25.56,3.49-.17,5.92-1.25,7.87-3.06l.31-.31c.17-.14.31-.29.48-.46.02-.05.07-.1.12-.14,1.85-2.02,3.32-4.28,3.87-6.33,5.82-21.28,9.87-43.01,14.73-64.55,2.43-10.71,3.8-21.95,7.61-32.08.39-1.03.79-2.05,1.25-3.06,14.08-32.11,17.79-65.2,13.12-99.57-.12-.89-.24-1.78-.31-2.65l-.02-.02c-3.27-29.22,6.52-43.88,35.14-54.2,8.54-3.06,16.99-6.62,25.22-10.57,2.74-1.32,5.32-2.89,7.63-4.65.07-.07.14-.14.22-.19,1.28-.96,2.45-2,3.59-3.13.17-.14.26-.22.26-.22.89-.89,1.73-1.81,2.55-2.74,8.69-10.28,11.82-24.16,8.54-37.43l-.02-.02c-1.47-5.9-4.21-11.65-8.3-16.92-6.19-7.97-10.04-22.19-3.73-29.36,1.03-1.2-.34-5.73-.58-8.74-1.37-16.29-.6-32.25,16.15-40.75,8.33-4.26,16.82-6.43,25.22-6.43s16.9,2.17,25.22,6.43c16.75,8.5,17.52,24.45,16.15,40.75-.24,3.01-1.61,7.53-.58,8.74,6.31,7.17,2.45,21.4-3.73,29.36-4.09,5.27-6.83,11.02-8.3,16.92l-.02.02c-3.27,13.26-.14,27.15,8.54,37.43.82.94,1.66,1.85,2.55,2.74,0,0,.1.07.26.22,1.13,1.13,2.31,2.17,3.59,3.13.07.05.14.12.22.19,2.31,1.76,4.89,3.32,7.63,4.65,8.23,3.95,16.68,7.51,25.22,10.57,28.62,10.33,38.41,24.98,35.14,54.2l-.02.02c-.07.87-.19,1.76-.31,2.65-4.67,34.37-.96,67.46,13.12,99.57.46,1.01.87,2.02,1.25,3.06,3.8,10.13,5.17,21.37,7.61,32.08,4.86,21.54,8.91,43.27,14.73,64.55.55,2.05,2.02,4.31,3.87,6.33.05.05.1.1.12.14.17.17.31.31.48.46l.31.31c1.95,1.81,4.38,2.89,7.87,3.06,17.64.87,24.21,17.55,36.78,25.56,1.01.65,1.97,2.43,2.09,3.73Z"/><path class="cls-7" d="m159.71,142.6c-.53.43-1.81,1.52-3.59,3.13"/><path class="cls-7" d="m162.53,139.64l-.02-.02"/><path class="cls-7" d="m118.26,211.1c0-.19,0-.36-.02-.55"/><path class="cls-7" d="m243.49,145.73c-1.78-1.61-3.06-2.7-3.59-3.13"/><path class="cls-7" d="m237.11,139.62l-.02.02"/><path class="cls-7" d="m281.37,210.55c-.02.19-.02.36-.02.55"/><path class="cls-7" d="m159.62,142.17c-.53.43-1.81,1.52-3.59,3.13"/><path class="cls-7" d="m162.44,139.21l-.02-.02"/><path class="cls-7" d="m118.18,210.66c0-.19,0-.36-.02-.55"/><path class="cls-7" d="m243.4,145.3c-1.78-1.61-3.06-2.7-3.59-3.13"/><path class="cls-7" d="m237.03,139.18l-.02.02"/><path class="cls-7" d="m281.29,210.11c-.02.19-.02.36-.02.55"/><path class="cls-6" d="m119.06,210.7c0-.19,0-.36-.02-.55"/><path class="cls-6" d="m282.17,210.15c-.02.19-.02.36-.02.55"/><path class="cls-2" d="m161.99,460c-.12,2.6-1.66,3.42-4.28,2.79-1.97-.51-3.92-1.11-5.92-1.52-3.3-.65-5.01.1-6.79,2.98-2.09,3.42-3.18,7.08-1.76,11.05,1.16,3.32.58,6.35-.39,9.7-1.08,3.85-1.4,8.04-1.37,12.08.05,15.98.55,31.99.51,47.97-.02,26.69,2.24,53.14,6.96,79.4.7,3.9,1.66,7.75,2.53,11.65.89,3.78,2.33,7.29,4.79,10.42,3.97,5.15,4.26,10.78,1.71,16.7-1.28,2.94-2.43,5.87-5.82,7.63,2.14.22,3.59.34,5.2.51.31,3.51,0,6.76-1.85,9.43-4.65,6.76-6.23,14.51-8.18,22.21-2.12,8.3-2.41,16.78-2.79,25.25-.6,13.74-.94,27.49-1.44,41.2-.48,12.56-.96,25.13-1.61,37.67-.55,10.4,1.03,20.53,3.06,30.66.89,4.4,1.68,8.86,2.19,13.33.19,1.85-.19,3.85-.75,5.66-.99,3.25-2.36,3.51-4.81,1.28-.6-.55-1.23-1.08-1.85-1.64.51,2.24.99,4.33,1.37,6.47,0,.05.02.12.02.17,2.05-1.25,3.78-.34,4.57,2.45.41,1.49.63,3.13.6,4.69-.1,2.43-1.37,3.32-3.8,2.89-.77-.14-1.49-.55-2.29-.65-1.03-.17-2.09-.12-3.15-.17,3.42.53,4.84,2.79,5.22,5.97.12,1.08.36,2.17-.96,2.84-.34.17-.43.99-.48,1.52-.14,1.76-.17,3.56-.36,5.32-.17,1.56.02,2.91,1.08,4.16,1.18,1.4,2.94,2.82.43,4.6.26,1.88-.89,2.7-2.72,3.06,1.04,2.09,1.2,3.9-.67,5.44-.46.39-.48,1.28-.79,1.9-.53,1.16-1.93,1.76-3.23,1.44-1.06-.26-1.49-.96-1.2-2,.17-.67.48-1.28.72-1.85-2.09-2.89-2.05-3.18.87-4.84-.1-.7-.19-1.35-.26-2-.05-.36.07-1.01-.07-1.08-2.12-.91-1.35-2.67-1.11-4.12.31-2.09-.17-3.92-1.13-5.73-2.09-3.97-1.01-6.33,3.42-7.34.94-.22,1.88-.31,3.15-.51-2.67-1.83-4.55-.14-6.5.72-2.5-4.36-.67-7.36,4.57-7.51-1.28-1.03-2.77-.77-4.24-.67-1.59.1-3.15.1-4.43-1.25-2.38,2.43-5.44.48-8.04,1.35.46-3.32,2.02-4.38,5.08-3.49.77.22,1.54.41,2.41.65,1.83-1.49,3.97-2.41,6.43-2.58.84-.07,1.66-.22,2.43-.48-.7-.55-1.32-1.16-2.02-1.71-2.05-.87-3.71-.14-5.2,1.28-.46.24-.91.53-1.42.77-1.4.7-2.29.12-2.65-1.28-.22-.91-.36-1.93-.19-2.84.36-2,.94-3.95,1.47-6.11-2.5-.36-3.23-2.24-2.89-4.6.29-1.9.58-3.9,1.44-5.56,3.25-6.4,3.61-13.21,3.1-20.12-.53-7.61-1.52-15.16-2-22.77-.58-9-.87-18.03-1.28-27.03-.48-10.3-1.2-20.6-1.37-30.88-.1-6.64.53-13.31.91-19.95.55-9.43,1.35-18.85,1.73-28.3.12-2.82-.55-5.73-1.23-8.52-1.42-5.94-3.1-11.82-4.67-17.74-.14-.58-.17-1.23-.29-2.24,1.42-.17,2.7-.31,4-.48l6.98,1.28c1.3.34,2.7.43,3.39-.22,1.08-1.01.26-2.43-.29-3.59-.51-1.04-1.18-2.02-1.73-3.06-.82-1.49-1.73-2.98-2.36-4.55-.84-2.12-1.28-4.31-.46-6.59,2.38-6.71,11.46-9.07,16.75-4.24.84.75,1.44,1.85,1.85,2.91,1.76,4.28.53,8.16-1.61,11.96-.79,1.44-1.44,3.13-1.64,4.77-.31,2.86.79,4.26,3.61,4.48-.79-.55-1.44-.99-1.95-1.49-1.73-1.83-1.71-3.08,0-4.98.87-.96,1.78-1.88,2.65-2.82,2.02-2.19,2.89-4.81,2.36-7.73-1.47-7.63-5.7-10.98-12.92-11.41-6.93-.43-12.54,7.15-10.47,12.88,1.01,2.7,2.07,5.39,3.13,8.09.41,1.06.87,2.07,1.37,3.23-1.03.46-1.73.79-2.43,1.13l-6.84-1.88c-5.9-6.81-5.66-17.83.91-24.19,4.38-4.26,6.5-9.15,6.21-15.24-.63-15.11-1.18-30.23-1.78-45.34-.53-12.66-1.16-25.3-1.59-37.96-.43-13-.7-25.97-1.03-38.94-.1-4.19-.05-8.38-.34-12.56-.17-2.53-.6-5.08-1.28-7.53-.7-2.58-1.88-5.03-2.67-7.58-1.93-6.19-2.33-12.47-.46-18.73,1.4-4.67,4.07-8.28,9.19-9.36,4.38-.91,6.23-.17,8.66,3.51,4-.19,6.59-2.72,6.71-6.52.12-4.36,1.9-5.75,6.19-4.86,3.03.6,5.25,2.38,6.91,4.86,2.96,4.43,3.51,9.43,3.25,14.54Z"/><path class="cls-2" d="m257.69,387.13c-7.22-4.62-15.24-5.22-23.32-3.18-5.99,1.52-8.86,7.1-7.61,13.31.1.48.12.99.19,1.47.14.41.29.82.46,1.23.43,1.11,1.03,2.17,1.28,3.32,1.03,4.96,1.9,9.96,2.94,14.95,1.47,6.81-.17,12.85-4.33,18.29-1.08,1.42-2.14,2.91-3.47,4.09-4.24,3.78-8.62,7.41-12.92,11.1-1.97,1.68-4.02,3.27-5.85,5.1-.94.96-1.71,1.88-3.2,1.78-2.07-.1-4.19.17-5.94-1.32-3.61-3.01-7.15-6.04-10.83-8.93-5.1-4.04-9.89-8.4-13.38-13.96-2.34-3.73-3.85-7.82-3.23-12.2,1.16-7.89,2.19-15.84,4.91-23.35,2.58-7.2-1.78-14.06-8.54-15.28-6.5-1.16-12.95-.84-19.04,1.95-7.05,3.2-10.57,8.81-10.64,16.56-.05,3.25.55,6.4,1.81,9.34,1.85,4.4,4,8.69,5.9,13.07,1.95,4.45,5.05,7.87,9.05,10.52,1.23.82,2.53,1.59,3.83,2.31,4.48,2.58,6.98,6.43,7.41,11.6.1,1.28.31,2.58.27,3.87-.17,7.05.99,13.94,3.13,20.6,1.01,3.08,2.36,6.19,4.14,8.88,3.2,4.81,8.54,6.02,13.72,3.39,1.66-.84,3.32-1.95,4.53-3.35,2.05-2.41,3.75-5.13,5.54-7.75.6-.89,1.03-1.9,1.52-2.82h8.52c1.16,2.02,2.19,4.07,3.42,5.99,1.93,3.08,4.26,5.8,7.49,7.61,5.46,3.03,11.17,1.78,14.73-3.37,1.06-1.54,2.09-3.23,2.62-5.01,1.4-4.77,2.82-9.58,3.63-14.46.77-4.69.79-9.53,1.2-14.3.34-4,2.17-7.22,5.46-9.53,1.71-1.2,3.44-2.38,5.22-3.49,3.95-2.53,7.08-5.75,9.07-10.06,1.23-2.62,2.7-5.15,3.8-7.8,1.4-3.42,2.82-6.86,3.68-10.4,1.97-8.16-.77-15.67-7.15-19.78Zm-75.98,88.04c-1.64.87-3.01.87-3.9-.72-2.36-4.09-4.43-8.38-6.55-12.61-.26-.51-.17-1.18-.22-1.52.02-3.68,1.66-5.22,5.08-4.72,4.5.63,8.4,2.21,10.23,6.96,1.66,4.36-.51,10.45-4.64,12.61Zm46.81-11.31c-1.35,3.18-3.13,6.21-4.77,9.29-.22.43-.53.84-.84,1.23-1.3,1.49-2.48,1.68-4.21.7-2.82-1.54-5.29-5.97-5.25-9.27.14-3.68,3.18-8.5,6.93-9.19,1.76-.31,3.49-.94,5.25-1.06,2.17-.12,3.51.94,3.66,3.1.1,1.71-.1,3.63-.77,5.2Z"/><path class="cls-2" d="m274.81,284.79c-.36-4.19-1.64-8.14-2.53-12.18-.87-4.02-.79-8.26-1.13-12.4-.02-.29-.19-.55-.17-.84.05-.82.05-1.66.26-2.45,1.32-5.75.89-11.29-2.05-16.44-.53-.99-.87-1.81-.36-2.89.75-1.56.53-3.18-.17-4.67-.84-1.88-1.78-3.73-2.77-5.54-.82-1.56-1.73-3.08-2.41-4.21,1.52-5.27.89-9.58-1.44-13.19-.94-1.44-2.14-2.77-3.61-4,.22-1.68.51-2.89.51-4.09-.02-4.79-2.19-8.57-5.66-11.48-2.05-1.71-3.32-3.73-4.57-6.09-2.55-4.77-6.07-8.38-12.01-7.99-.02-.75-.12-1.49-.1-2.24.17-2.84-1.06-4.93-3.1-6.59-.02-.02-.05-.05-.07-.05-.82-.7-1.68-1.35-2.6-1.9-5.92-3.61-12.25-6.04-19.01-7.27-.7-.12-1.32-.19-1.97-.19h-.02c-.14,0-.31,0-.46.02,1.9-1.59,2.14-2.98,1.97-6.47-1.3.34-2.48.77-3.66.91-.67.07-1.59.31-1.76-1.61-.07-.65.65-1.68,1.13-2.79-.27-3.2-.99-6.74-.36-9.51,1.59-1.56,2.89-2.58,4.04-4.04.79-.99,1.11-2.72.34-4.79-1.56.48-3.13.99-4.67,1.47-.94-4.19-.94-4.26.41-6.31-.02-.58-.05-1.16-.07-1.73,3.78-.34,7.03-1.81,9.39-5.13,2.19-3.06,4.36-6.16,6.52-9.24.82-1.18,1.08-2.5,1.06-3.92-.07-2-.07-4-.12-6.02-.05-3.1.19-6.16,1.49-9.05.17-.36,0-.89-.02-1.32-.48.02-1.06-.07-1.47.14-1.25.65-2.07,1.73-2.31,3.13-.36,2.33-.63,4.67-1.01,7-.48,2.94-1.42,5.68-3.59,7.82-.22.24-.51.43-1.01.82.12-.58.19-.87.22-1.13,0-.72.1-1.47-.05-2.17-.1-.39-.51-.94-.87-1.01-.36-.1-.84.26-1.25.51-.22.12-.29.46-.51.58-.22.14-.6.31-.75.22-1.16-.82-2.02-.07-2.94.48-.31.19-.7.24-1.06.31-.63.1-1.25.14-1.88.26-.41.07-.79.26-1.23.31-.7.05-1.44-.1-1.93.67-.07.12-.41.14-.6.14-1.73-.07-3.44-.22-5.15-.19-.84,0-1.68.41-2.29-.51-.07-.1-.31-.1-.46-.12-.84-.22-1.68-.41-2.53-.6-.31-.07-.7-.22-.94-.1-.72.31-1.2.02-1.81-.36-.6-.34-1.49-.75-2.02-.53-.79.31-1.16.26-1.64-.39-.36-.48-.89-1.11-1.54-.67-.43.29-.77.96-.84,1.52-.1.79.05,1.66.1,2.67-.34-.26-.58-.43-.79-.63-2.26-2.12-3.13-4.89-3.66-7.8-.38-2.09-.51-4.24-.82-6.33-.27-1.73-.99-3.23-2.65-4.02-.39-.17-.99-.17-1.32.05-.19.12-.17.82-.05,1.2.31,1.2.84,2.36,1.08,3.56.79,3.56.43,7.2.31,10.78-.07,2.19.51,4.02,1.83,5.78,1.81,2.41,3.51,4.89,5.2,7.41,2.07,3.1,4.84,5.15,8.59,5.61.46.05.94.1,1.4.12-.1,1.13.14,2.02.77,2.53.34.26.65.58.91.84.12,4.33-.02,4.67-1.73,4.28-1.23-.26-2.45-.53-3.95-.84.17,6.55,1.81,8.18,3.35,10.01.58,2.45,1.18,2.82.82,5.13-.48,2.86-.43,3.08.89,4.36.55.51.77,1.01.51,2.58-1.37-.39-2.72-.72-4.07-1.13-.53-.17-1.08-.91-1.4.63-.29,1.4-.07,2.7.46,3.49.75,1.08,1.52,2.09,2.33,2.82.1.1.19.17.29.26h-.48c-.63,0-1.25.1-1.88.26-3.78.99-7.63,1.81-11.22,3.3-3.51,1.44-6.81,3.49-10.06,5.54-.26.19-.55.39-.82.58-1.85,1.49-2.89,3.63-2.74,6.33.05.79-.17,1.61-.22,2.14-1.69.17-3.3-.12-4.4.53-3.47,2.09-6.74,4.55-8.21,8.74-.55,1.66-1.59,2.84-2.91,3.97-4.89,4.21-7.97,9.29-5.97,16.56-.89.87-1.93,1.68-2.74,2.67-.53.58-.96,1.16-1.3,1.78-2.05,3.2-2.5,6.88-1.64,10.69.38,1.61.22,2.6-.48,3.83-1.32,2.29-2.62,4.57-3.8,6.91-.94,1.9-1.35,3.88-.51,6.02.22.65,0,1.68-.36,2.33-3.01,5.37-3.47,11.02-1.95,16.97.17.7.14,1.47.1,2.19-.24,3.59-.51,7.17-.79,10.76-.05.75.02,1.56-.24,2.21-1.54,3.59-2.12,7.41-2.72,11.26-.46,3.08-.38,6.14.65,8.98,1.28,3.44,1.47,6.98,1.76,10.57.22,3.23.65,6.47,2.24,9.29.91,1.64,1.28,3.3,1.47,5.1.43,3.8,1.44,7.44,3.35,10.73,2.53,4.28,6.45,5.66,10.73,3.37,2.31-1.23,4.4-2.98,6.23-4.91,2.24-2.33,4.04-5.1,6.04-7.68.91-1.16,1.85-2.31,2.82-3.44,1.06-1.25,2.41-2.33,3.22-3.73,5.63-9.75,10.57-19.86,14.9-30.33,1.28-3.1,2.79-6.16,4.64-8.93,1.78-2.62,3.83-5.05,5.87-7.51.17-.22.34-.41.51-.6.24,2.17-.12,4.16-.65,6.21-.43,1.64-.19,2.94.96,3.56.46.26.89.6,1.3.87.17,4.5-.05,4.84-2.5,4.45-1.73-.29-3.49-.55-5.63-.87.24,6.76,2.58,8.45,4.77,10.35.84,2.55,1.71,2.91,1.18,5.3-.67,2.96-.6,3.18,1.3,4.5.77.55,1.08,1.06.7,2.67-1.95-.39-3.9-.72-5.82-1.16-.75-.17-1.54-.94-2,.65-.41,1.44-.07,2.77.67,3.59,1.06,1.13,2.17,2.17,3.35,2.91,1.85,1.2,2.29,2,2.05,5.01-.1,1.32-.41,2.62-.72,3.87-.43,1.76-.07,2.89.99,3.54.58.36,1.47.24,1.23,2.07-2.45,1.54-4.93-1.03-7.65-.24.17,6.96,3.97,6.35,6.76,8.47-.17,1.71-.27,3.56-.58,5.32-.6,3.35-.65,3.3,1.3,4.86.36.26.58.94,1.28,2.12-3.25-.58-5.92-1.06-8.42-1.49-.7,2.26-.29,3.73.63,4.72.91,1.01,1.88,2.24,2.91,2.45,2.17.48,2.57,2.91,2.72,5.46.12,1.81-.24,3.73-.55,5.54-.55,3.03-.6,3.35,1.3,4.55,1.37.89,1.37,2.05.91,3.73-3.56-.67-7-1.32-10.47-1.97-.84-.17-1.81-.65-2.24,1.03-.43,1.78.41,2.96,1.23,3.54,1.71,1.2,3.49,2.07,5.27,2.98.67.36,1.4.51,2.19.77-.75,4.93-1.06,9.41.07,13.96,1.13,4.65,3.71,7.1,6.07,9.72-1.28,1.03-2.65,1.47-3.25,2.82-.82,1.78-1.52,3.75-2.12,5.78-.65-.53-1.32-1.08-2-1.68-.67-.58-1.2-1.32-1.85-1.95-1.44-1.37-2.82-2.84-4.36-4.07-.99-.82-2.17-1.44-3.37-1.9-1.56-.58-2.72-.07-3.49,1.42-.39.77-.77,1.68-.79,2.53-.05,3.59-.29,7.2.12,10.73.41,3.63,1.81,6.96,5.34,8.86,1.28.67,1.68,1.93,1.78,3.27.1,1.4.02,2.82.31,4.16.31,1.42.79,2.86,1.52,4.14,1.28,2.24,2.7,4.4,4.21,6.5.72.99,1.71,1.95,2.79,2.45,1.42.65,2.29,1.61,2.74,2.98,1.08,3.27,2.12,6.57,3.13,9.89.53,1.68,2.94,3.9,4.48,3.95,1.71.07,4.57-2,5.08-3.61.99-3.23,1.93-6.45,3.1-9.6.41-1.13,1.23-2.58,2.21-2.94,2.09-.79,3.15-2.31,4.19-4.04,1.01-1.71,2.09-3.37,3.25-5.01,1.11-1.59,1.76-3.32,1.76-5.3,0-.89.05-1.78.1-2.7.07-1.9.7-3.44,2.55-4.38,1.76-.91,2.94-2.5,3.47-4.33.72-2.45,1.32-5.01,1.54-7.56.24-2.67,0-5.37-.02-8.06-.17-.41-.31-.82-.46-1.23-2.19-2.45-3.39-2.67-6.11-.94-1.11.7-2.12,1.52-3.06,2.38-1.3,1.23-2.48,2.6-3.75,3.87l-.41.41c-.19-.6-.34-1.2-.51-1.83-.7-2.67-1.95-4.02-3.73-4.24-.36-.05-.72-.26-1.66-.6,6.64-5.46,8.4-13.57,6.52-24.04.87-.29,1.54-.39,2.17-.72,1.54-.82,3.08-1.64,4.53-2.72.84-.6,1.71-1.68,1.4-3.44-.34-2.02-1.44-1.44-2.36-1.25-.94.19-1.85.39-2.79.53-2.36.41-4.72.77-6.98,1.16-1.25-3.08.87-3.23,1.42-4.69-.72-4.52-1.32-9.03-.05-13.41,4.81-2.5,5.78-4.04,4.96-8.04-2.43-.24-4.86,1.71-7.8.58.87-1.06,1.42-1.71,1.93-2.33q-.75-6.67-.29-9.03c2-1.4,3.83-2.45,5.51-3.95,1.13-.99,1.59-2.72.7-4.91-2.62-.02-5.17,1.95-8.18.26.79-1.13,1.35-1.93,1.78-2.55-.19-3.23-.39-6.28-.55-9.24,6.71-2.94,7.44-3.8,7.12-8.76-1.85.36-3.54.79-5.22.94-.96.07-2.26.31-2.53-1.66-.1-.7.94-1.76,1.61-2.89-.38-3.32-1.37-6.98-.48-9.84,2.26-1.61,4.09-2.67,5.78-4.19,1.16-1.03,1.56-2.79.48-4.96-2.24.51-4.5,1.03-6.69,1.52-1.35-4.31-1.32-4.4.58-6.52-.14-3.18-.48-6.26-.36-9.31v-.41h.02c.14.14.27.29.41.46l.07.07.05.05c4.45,5.34,8.59,10.85,11.17,17.59,3.83,10.04,8.76,19.54,14.01,28.86.77,1.4,1.69,2.7,2.7,3.9,1.28,1.56,2.82,2.91,4.07,4.5,1.95,2.36,3.61,5.03,5.68,7.22,1.93,1.97,4.09,3.83,6.45,5.1,4.28,2.33,8.35,1.01,10.69-3.37,1.35-2.53,2.33-5.37,2.94-8.18.72-3.23,1.47-6.33,2.6-9.43,1.13-3.13,1.2-6.67,1.78-10.01.39-2.21.65-4.45,1.25-6.62.84-3.03,1.3-6.07,1.01-9.24Zm-8.54-41.45c3.22,4.5,3.08,7.36-.65,10.76-5.58,5.08-11.77,9.19-18.73,11.77-5.66,2.07-11.34,1.49-16.39-2.02-5.56-3.85-10.95-8.04-16.39-12.13-.84-.65-1.64-1.52-2.14-2.48-.65-1.3.12-2.36,1.52-1.97,1.01.29,1.95.94,2.89,1.47,3.03,1.71,5.94,3.63,9.07,5.1,6.19,2.96,12.56,3.47,18.89.43,6.4-3.06,12.78-6.26,19.13-9.39.89-.46,1.76-.99,2.79-1.54Zm-4.65-14.42c.36.55.67,1.13.91,1.73,1.01,2.48.72,3.78-1.37,5.44-4,3.15-8.33,5.7-13.02,7.56-4.53,1.78-9.22,2.77-14.66,2.91-5.51-.65-11.55-1.73-17.33-4.14-1.9-.79-3.44-2.07-4.6-3.87-1.69-2.65-.65-5.17,2.43-5.49,1.76-.17,3.59.1,5.37.34,2.53.34,4.98.96,7.51,1.28.07,0,.12.02.19.02.51.05,1.06.1,1.56.14.72.05,1.42.1,2.14.1h.55c3.9.05,7.77-.53,11.55-2.05,1.28-.51,2.55-1.01,3.83-1.49,3.66-1.37,7.36-2.65,11.02-3.97,2.43-.89,2.55-.82,3.9,1.49Zm-122.75,1.85c.1-.26.24-.53.36-.77,1.66-3.47,1.83-3.54,5.39-2.24,3.08,1.13,6.16,2.21,9.24,3.35h.02c2.29.82,4.6,1.66,6.88,2.5,3.08,1.16,6.19,1.42,9.31,1.32.67,0,1.37-.05,2.07-.1.53-.02,1.06-.07,1.61-.14.58-.05,1.16-.1,1.76-.17,2.36-.26,4.65-.94,6.96-1.25,1.71-.22,3.44-.41,5.13-.19,2.91.36,4.02,2.89,2.29,5.34-1.06,1.44-2.48,2.91-4.04,3.63-5.99,2.86-12.42,3.87-18.08,4.52-10.88-.48-19.69-4.38-27.61-10.61-1.95-1.54-2.21-2.82-1.3-5.2Zm-3.85,12.71c6.11,3.08,12.01,6.19,18,9.05,2.79,1.32,5.7,2.33,8.66,3.23,3.88,1.18,7.7.43,11.46-.77,4.16-1.37,7.94-3.61,11.63-6.04,1.06-.7,2.19-1.32,3.39-1.68,1.13-.34,1.78.48,1.4,1.66-.24.75-.72,1.56-1.35,2.02-6.16,4.65-12.13,9.58-18.63,13.69-4.72,3.01-10.23,3.08-15.48,1.06-6.67-2.58-12.61-6.55-18.03-11.36-3.92-3.51-4.14-6.26-1.06-10.85Zm10.54,83.49c-3.63.55-6.55-1.64-8.69-6.93,1.23.51,2.05.84,2.86,1.16,2.77,1.03,5.58,1.44,8.5.6,1.28-.39,2.62-.46,4.04-.67-.34,2.72-3.56,5.39-6.72,5.85Zm3.03-10.88c-8.09-.07-13.45-4.21-14.68-11.72,8.5,8.93,17.69,9.39,27.51,3.42-.89,4.91-6.26,8.38-12.83,8.3Zm27.25-32.23c-1.44,2.17-2.98,4.28-4.45,6.45-2.96,4.38-6.26,8.33-10.69,11.14-4.24,2.67-8.79,3.8-13.55,2.26-8.66-2.79-13.86-9.24-16.51-18.12-.65-2.21-.22-4.45.12-6.67.19-.05.38-.1.58-.17,1.35,1.66,2.62,3.37,4.02,4.96,1.83,2.09,3.68,4.16,5.66,6.11,3.78,3.73,8.35,4.86,13.33,3.83,5.8-1.18,10.85-3.95,15.33-8.06,2.14-1.97,4.62-3.59,7.2-5.56.31,1.73-.34,2.82-1.03,3.83Zm15.67-25.8c-.1.12-.19.22-.31.34-.07.1-.17.17-.29.26-2.24,2.24-4.55,4.48-6.81,6.72-2.17,2.17-4.33,4.28-6.38,6.57-4.74,5.37-10.33,9.41-16.99,11.77-1.11.41-2.26.67-3.32,1.2-3.49,1.85-6.79,1.2-10.13-.51-6.57-3.32-11.62-7.99-13.14-15.86-.29-1.61-.29-3.3-.46-4.96.24-.07.46-.17.7-.24,3.83,3.85,8.3,6.67,12.95,9.19,2.31,1.25,4.77,2.29,7.22,3.18,3.39,1.2,6.84.7,10.08-.72,5.37-2.38,10.13-5.7,14.18-10.23,2.58-2.89,5.49-5.44,8.3-8.11.58-.58,1.32-1.01,2.02-1.37.87-.46,1.64-.22,2.21.39.14.14.27.31.38.48.02.02.02.05.02.07-.12.63-.19,1.23-.24,1.83Zm-.39-38.58c-.34.53-.7,1.01-1.13,1.44-.07.1-.14.17-.24.26-1.01,1.01-2.19,1.73-3.54,2.14-3.47,1.06-6.96,2-10.47,2.84-.55.12-1.13.24-1.66.31-1.18.19-2.33.31-3.51.34-4.79.14-9.43-1.11-13.89-3.15-3.01-1.35-5.87-3.13-8.66-4.96-.58-.39-1.13-.75-1.71-1.13-1.97-1.28-2.55-2.58-2.02-4.4.12-.51.34-1.03.65-1.64.51-.96,1.2-1.85,1.85-2.89.89.31,1.68.55,2.43.79.1.05.17.07.27.1,4.43,1.61,8.95,3.08,13.31,4.86,3.54,1.47,7.15,1.93,10.73,1.81.24.02.46,0,.7,0,.51-.02.99-.07,1.47-.12,1.06-.07,2.09-.19,3.13-.36,2.05-.29,4.07-.84,6.14-1.13.1-.02.17-.02.26-.05.19-.02.41-.05.63-.07,1.13-.12,2.31-.17,3.42.05,2.5.55,3.25,2.67,1.85,4.96Zm-4.84-11.02c-3.66-.19-7.27-.17-10.9-.36v-.07c-4.79-.26-9.51-.96-14.1-2.96-2.77-1.23-5.49-2.6-8.09-4.21-2.41-1.54-2.96-3.66-2.02-5.97.55-1.35,1.49-2.31,2.7-2.7h.07c4.07.99,8.04,2.24,12.08,3.2,2.41.58,4.84,1.06,7.24,1.47,5.61.94,11.24,1.42,16.94,1.44.53.02,1.06.07,1.85.12.14,1.08.36,1.93.36,2.77.1,4.55-1.97,7.49-6.14,7.27Zm6.16-17.35c-.02.26-.07.58-.19.89-1.13-.07-2.24-.14-3.37-.19-.22-.02-.46-.05-.67-.05-1.81-.12-3.59-.24-5.37-.51-2.84-.41-5.68-1.13-8.52-1.61,0-.1,0,.1,0,0-2.72-.51-5.46-1.01-8.18-1.49-1.52-.26-2.84-.94-3.25-2.77-.41-1.83.27-3.37,1.32-4.69.24-.31.51-.55.79-.72h.02c2.33,1.16,4.72,2.02,7.17,2.72,4,1.13,8.06,1.81,12.15,2.55,2.09.36,4.16,1.32,6.06,2.33,1.23.65,2.19,1.71,2.02,3.44v.1Zm-3.56-19.54c.07,4.38,1.23,5.66,2.58,6.57-.05.1-.07.17-.12.26-.17.41-.38.82-.58,1.2-1.16,2.07-3.08,3.37-5.42,3.03-3.3-.46-6.55-1.18-9.82-1.97-.6-.17-1.25-1.06-1.49-1.76-1.4-4.31-.46-8.23,2.31-11.62,1.47-1.78,3.56-2.09,5.7-2,2.84.19,5.56.77,7.94,2.48,1.61,1.16,2.65,2.65,2.84,4.48-1.28-.07-2.57-1.23-3.95-.67Zm24.4-4.89c2.45-1.08,5.05-1.59,7.7-1.35,2.21.19,3.95,1.23,5.1,3.27,1.3,2.26,2,4.65,1.83,7.12,0,.02-.02.05,0,.07-.05.75-.14,1.49-.36,2.24-.02.02-.02.05-.02.07-.05.19-.1.36-.17.55-.22.72-.79,1.66-1.4,1.85-3.01.94-6.09,1.66-9.15,2.45-3.39-.05-5.58-1.66-6.91-4.77-.1-.19-.17-.39-.24-.58-.05-.12-.1-.22-.12-.34.41-.41.79-.82,1.18-1.28.77-.96,1.11-2.65.48-4.74-.82-.02-1.61.34-2.43.6.41-2.29,1.9-4.04,4.5-5.2Zm-4.31,24.04c-.1-1.54.77-2.6,2.02-3.25,1.83-.96,3.83-1.73,5.8-2.21,2.45-.63,5.05-.65,7.48-1.32,1.47-.41,2.89-.84,4.31-1.32,2.36-.77,4.69-1.59,7.03-2.43.26-.1.51-.19.75-.24h.02c.89.36,1.56,1.25,2.07,2.82.82,2.41.02,4.38-2.14,5.22-.48.19-.99.29-1.49.39-2.77.48-5.56.96-8.33,1.44,0,.07.02-.07,0,0-2.65.41-5.3,1.06-7.92,1.47-2.21.31-4.43.46-6.64.58-.19.02-.41.02-.6.05-.12,0-.22.02-.34.02-.6.05-1.23-.07-1.83-.1-.1-.34-.14-.65-.19-.96v-.14Zm.19,7.92c5.34-.43,10.13-.75,14.9-1.23,1.13-.12,2.29-.26,3.44-.46,5.73-.84,11.36-2.33,16.94-3.95.99-.29,1.97-.6,2.96-.79h.02c1.4.39,2.5,1.49,3.01,3.03.63,2,.14,3.75-1.61,5.2-1.03.84-2.14,1.59-3.3,2.19-6.35,3.32-13.02,5.25-20.07,5.39v.05c-2.29.05-4.57.26-6.88.39-1.35.05-2.72.19-4.04,0-3.3-.43-4.84-1.97-5.34-5.42-.22-1.44-.02-2.96-.02-4.4Zm3.2,15.86c.89-.14,1.83-.12,2.74-.02.29.02.58.05.87.1.24.02.46.05.67.07,2.84.36,5.66.84,8.5,1.2.46.05.94.12,1.4.17.46.07.96.12,1.42.17.34.02.63.07.96.1h.22c2.48.1,4.96-.29,7.36-1.16,5.01-1.83,10.08-3.66,15.11-5.46.22-.07.41-.14.63-.22.72-.26,1.49-.48,2.31-.77.46.55.72.82.91,1.11.7,1.06,1.2,1.95,1.49,2.74v.02c.94,2.36.02,3.8-3.06,6.02-.6.43-1.23.84-1.83,1.25-5.17,3.42-10.73,5.87-16.87,6.59-1.54.17-3.13.26-4.72.22h-.1c-1.2-.02-2.38-.14-3.54-.34-.05,0-.12-.02-.17-.05-3.85-.65-7.63-1.81-11.38-2.86-1.42-.41-2.67-1.2-3.68-2.29-.1-.1-.17-.17-.24-.26-.39-.41-.7-.82-.99-1.3-1.52-2.36-.72-4.55,1.97-5.03Zm.36,46.38c-.6-.6-1.23-1.2-1.81-1.83-.22-.19-.43-.41-.63-.6,0-.65-.07-1.3-.19-1.97-.02-.22-.07-.46-.12-.67.14-.17.31-.31.48-.41.53-.41,1.2-.48,1.9-.07.94.55,1.88,1.16,2.67,1.93,2.98,2.86,5.92,5.82,8.86,8.76,4.79,4.77,10.08,8.62,16.7,9.99,2.55.53,5.01.36,7.44-.6,6.02-2.31,11.41-5.66,16.44-9.77.91-.77,1.83-1.49,3.27-2.67-.05,7.68-2.36,13.6-7.85,17.81-2.19,1.68-4.62,2.94-7.05,4.24-2.55,1.35-5.17,1.47-7.87.31-2.07-.89-4.26-1.47-6.38-2.36-5.37-2.24-9.87-5.87-13.98-10.04-4-4-7.92-8.01-11.89-12.03Zm44.12,66.16c-3.27-.05-6.96-2.65-7.75-5.73,1.11.07,2.21-.12,3.13.22,3.83,1.32,7.46.7,11.02-.96.29-.14.6-.22,1.06-.36-1.25,4.26-4.21,6.91-7.46,6.84Zm10.28-20.36c-.58,1.18-1.18,2.33-1.85,3.47-1.81,3.1-4.48,4.81-7.89,5.44-3.06.58-6.07.72-9.12,0-3.8-.89-6.84-3.61-8.59-8.01,10.06,6.14,19.21,5.75,27.82-2.53-.12.55-.14,1.13-.36,1.64Zm3.37-20.02c-2.33,6.96-6.38,12.42-12.88,15.76-5.2,2.67-10.3,2.48-15.4-.12-3.71-1.93-6.76-4.77-9.31-8.14-2.67-3.56-5.22-7.27-7.73-10.98-.53-.77-.72-1.81-1.08-2.74.17-.12.36-.24.51-.39,2.65,2.07,5.34,4.09,7.92,6.23,5.22,4.31,10.9,7.44,17.71,7.65,3.8.14,7.22-1.11,9.92-3.88,2.84-2.91,5.46-6.04,8.16-9.1.65-.75,1.25-1.52,2.19-2.67.65,3.2.87,5.82,0,8.35Z"/><path class="cls-2" d="m130.4,873.39c-.27,1.06-.65,2.18-.84,3.34-.38,2.25-.85,4.5-.92,6.77-.05,1.56.02,2.98-.99,3.57.2,1.22.73,2.27.41,2.86-.74,1.38-.52,2.65-.35,4.05.11.89-.12,1.83-.2,2.86-1.5-.19-2.6-.34-4.23-.55,1.15.96,2.01,1.4,2.45,2.1.57.93-.62,1.51-.84,2.21-.98,3.1-1.64,6.3-2.38,9.47-.37,1.58-1.17,2.47-3.1,2.17.17-2.13-.32-4.15.53-6.34.7-1.81.41-4.01.54-6.04.02-.38-.19-1.03-.05-1.11,2.1-1.14,1.17-3.72,2.56-5.26.63-.71.61-2.01.86-3.04.3-1.23,1.18-2.82.72-3.63-.84-1.46-.13-2.44.12-3.64.58-2.72,1.22-5.43,1.59-8.18.41-3.05,1.28-3.5,4.13-1.6Z"/><path class="cls-2" d="m111.7,896.42c1.41,1.1,3.15.84,4.74,1.2.71.16,1.67.43,1.96.96.49.88-.6,1.18-1.09,1.75-.93,1.08-1.62,2.4-2.27,3.69-.67,1.35-1.16,2.78-2.02,4.1-.91-1.58-1.1-3-.06-4.55.86-1.29,1.75-2.68,1.23-4.59-1.46,0-2.39.59-2.9,1.94-.59,1.56-1.22,3.1-1.88,4.64-.14.32-.46.57-.9,1.1-.64-1.58-.77-2.86.02-4.07,1.13-1.72,1.8-3.51,1.19-5.69.8-.17,1.44-.3,2.08-.44,0,0-.12-.05-.12-.05Z"/><path class="cls-2" d="m107.66,895.84c.22-.64.32-1.35.68-1.9,1.45-2.23,2.94-4.44,4.49-6.61.31-.44.9-.68,1.49-1.09.4.54.72.98,1.1,1.5.45-.4.88-.77,1.32-1.14,0,0-.08-.04-.08-.04,1.51.97,1.15,2.09.2,3.19-1.36,1.57-2.59,3.17-2.87,5.35-.16,1.26-1.27,1.31-2.28,1.33,0,0,.12.05.12.05-.28-.6-.55-1.19-.69-1.48-1.29.29-2.43.55-3.58.82,0,0,.11.03.11.03Z"/><path class="cls-2" d="m119.36,883.9c.45-1.15,1.08-2.26,1.32-3.45.4-2.04.55-4.13.83-6.36,1.03-.33,2.03-.64,3.45-1.09-.26,1.11-.49,1.91-.64,2.72-.47,2.65-.91,5.3-1.37,7.95-.13.78-.14,1.62-.45,2.33-.2.45-.82.98-1.27,1-.45.02-1.15-.45-1.35-.88-.32-.69-.33-1.54-.47-2.32,0,0-.04.11-.05.11Z"/><path class="cls-2" d="m119.4,883.79c-.18.54-.39,1.07-.55,1.62-.33,1.17-1.07,1.51-2.2,1.14,0,0,.08.04.07.04.15-1.72.31-3.43.47-5.14-.1-.02-.21-.03-.31-.05-.5,1.11-.99,2.21-1.49,3.32-.8-2.34.42-4.21.86-6.43,1.23-.22,2.44-.45,3.69-.67-.21,2.27-.41,4.29-.59,6.3,0,0,.05-.12.05-.12Z"/><path class="cls-2" d="m117.89,896.81c-1.44-.18-2.05-.81-1.62-1.85.86-2.09,1.79-4.15,2.88-6.12.25-.44,1.27-.46,2.3-.78-.52,3.51-2.1,6.06-3.56,8.76Z"/><path class="cls-2" d="m119.83,871.73c.71.2,1.43.4,2.18.61-.99,1.53-1.91,2.97-2.91,4.52-1.35.19-1.72-.81-1.95-1.92-.21-1.03.36-1.66,1.19-2.15.54-.33,1.06-.71,1.57-1.07-.01,0-.07,0-.07,0Z"/><path class="cls-2" d="m107.55,895.8c.47.31.94.62,1.32.88-1.14,2.05-2.18,3.92-3.22,5.79-.15-.04-.31-.08-.46-.12,0-.54-.12-1.11.02-1.62.36-1.4.77-2.8,1.29-4.15.13-.35.77-.5,1.17-.74-.01,0-.12-.04-.12-.04Z"/><path class="cls-2" d="m183.23,156.17c-1.61,1.06-3.56,1.9-5.46,2.21-3.51.58-7.12,1.01-10.69.96-7.44-.1-14.66,1.35-21.88,2.82-2.94.6-5.85,1.25-8.79,1.78-3.97.72-7.65,2.14-11.07,4.38-.48-.63-.82-1.06-1.35-1.73-.36,1.28-.65,2.38-.99,3.66,2.57,1.32,5.29,1.2,7.92,1.42,0,0-.24,2.5-1.95,3.03-.17.05-.36.07-.53.1-.65.12-1.3.22-1.95.17-1.28-.1-2.53-.53-3.75-.91-3.23-.99-6.28-.75-9.24.91-.87.48-1.83.94-2.77,1.01-.77.05-1.93-.29-2.29-.84-.36-.58-.17-1.78.22-2.45.53-.91,1.4-1.68,2.26-2.33,2.21-1.71,4.5-3.27,6.74-4.93,1.4-1.03,2.94-1.16,4.84-.7-.17-.58-.27-.99-.41-1.44.19-.17.38-.41.65-.51,10.11-3.83,20.39-6.79,31.31-7.17,4.89-.17,9.72-.79,14.61-1.04,4.93-.24,9-2.21,12.49-5.61,1.18-1.13,2.48-2.14,3.78-3.23,2.07,3.49,1.25,8.52-1.71,10.45Z"/><path class="cls-2" d="m103.62,332.73c-2.51-.14-4.1-1.84-5.78-3.4-1.13-1.06-2.31-2.07-3.51-3.14-.83.72-1.34,1.18-1.86,1.63-2.6,2.26-5.36,2.45-8.18.47-2.29-1.6-3.76-3.83-4.67-6.43-.66-1.88-.18-3.58,1.26-4.91,1.39-1.29,2.82-2.54,4.33-3.66,3.85-2.84,6.43-6.55,7.49-11.19,1.46-6.4,2.77-12.84,4.09-19.28,2.3-11.25,3.27-22.68,4.24-34.09,1.01-11.92,1.94-23.84,2.66-35.78.32-5.26-.13-10.56.05-15.83.18-5.16.6-10.33,1.17-15.47.26-2.36,1.63-3.31,4.2-3.36,1.38-.03,2.33-.37,3.36-1.38,2.5-2.42,5.6-2.88,8.88-1.82,7.14,2.31,10.53,8.52,8.59,15.79-.96,3.58-2.72,6.51-6.27,8.27-3.17,1.57-5.29,4.22-5.88,7.83-1.43,8.85-3.05,17.67-4.17,26.56-1.74,13.84-3.23,27.71-4.63,41.59-.99,9.82-1.62,19.67-2.52,29.49-.42,4.57.64,8.67,3.07,12.52,1.06,1.68,2,3.45,2.83,5.25.83,1.81.8,3.65-.38,5.5-.42-.06-.8-.06-1.15-.18-2.18-.71-2.35-.62-3.76,1.1-1.12,1.37-2.36,2.64-3.54,3.96l.09-.06Z"/><g class="cls-5"><path class="cls-1" d="m49.31,432.81c-.12.26-.24.51-.34.77.02-.12.05-.24.05-.39,0-.12.12-.26.29-.39Z"/><path class="cls-1" d="m48.4,447.98s-.05.02-.06,0h0s.03.01.04.02c.02,0,.02-.02.03-.03Z"/><path class="cls-1" d="m48.37,448.01s.04,0,.05.01l.04-.07s-.03.01-.06.03c-.03,0-.05.02-.06,0h0s.03.01.04.02Z"/><path class="cls-1" d="m34.53,469.88c-.69,3.41-2.66,6.16-4.72,8.85-.76.98-1.43,1.94-1.08,3.36-.32.08-.63.18-.95.25-.34.07-.68.12-1.17.19-.29,1.78-.26,3.57-.94,5.11-.62,1.46-1.97,2.64-3.27,4.27.85.57,1.56,1.12,2.34,1.52.86.43,1.57.03,1.98-.99.37-.93.57-1.92,1.04-2.78.7-1.27,1.41-2.68,2.43-3.62s.69-2.37,1.41-2.96c.9-.72,1.62-1.3,1.86-2.47.57-2.8,2.08-5.07,4.03-7.15,1.11-1.18,2.54-2.34,2.06-4.44,2.21-.38,2.99-2.06,3.58-4.1,1.75-5.99,4.13-9.44,9.25-13.47-.14.89-.13,1.58-.36,2.23-1.19,3.49-2.81,6.77-5.18,9.69-.73.89-1.33,1.97-1.77,3.05-.56,1.45-.07,2.63.98,3.44,1.47,1.16,3.19.5,3.37-1.57.29-3.26,1.94-5.97,3.34-8.78.92-1.85,2.2-3.54,3.35-5.28.66-1,1.54-2,.93-3.16-.61-1.17-1.68-1.95-3.03-1.53-1.07.33-1.52-.15-2.25-.54-1.01-.54-2.23-.68-3.37-.98-.71,1.02-1.74,2-2.03,3.07-1.17,4.52-4.06,7.93-6.96,11.32-1.98,2.3-2.18,2.54-2.15,5.32-1.59-.37-2.44.57-2.75,2.15Z"/><path class="cls-1" d="m105.66,336.44c-.99-.05-1.97-.05-2.96-.05-1.78.6-3.01-.19-3.97-1.64-.89-1.37-2.12-1.73-3.63-1.42-.75.17-1.47.36-2.21.53-.53-1.16-.24-3.15-2.12-2.72-2.29.53-4.24-.17-6.35-.77-1.97-.55-2.77.29-2.45,2.36.07.51.19.99.41,1.44.84,2.02.94,4.14.27,6.16-1.32,4.07-2.45,8.23-4.38,12.03-7.53,14.83-12.92,30.4-17.09,46.45-1.78,6.84-3.97,13.57-6.28,20.24-1.66,4.67-3.71,9.17-5.56,13.74-.12.26-.24.51-.34.77-.05.46-.22.87-.46,1.25,0,0,0,.02-.02.05-.51.87-1.3,1.59-1.73,2.53-.65,1.4-1.37,2.67-.36,4.52-.89-.26-1.3-.46-1.73-.53-1.44-.24-2.31.1-2.74,1.71-.91,3.37-2.98,6.07-4.5,9.07-1.42,2.86-3.3,5.15-5.7,7.08-2.21,1.78-2.21,1.97-1.4,4.86-.72-.22-1.32-.39-2.29-.67-.48,1.13-1.18,2.21-1.4,3.37-.65,3.18-1.69,6.09-4.02,8.47-.41.43-.48,1.25-.65,1.88-.1.24,0,.75-.07.77-2.26.79-1.73,2.77-2.07,4.4-.17.75-.51,1.52-.94,2.17-1.73,2.67-2.74,5.58-3.44,8.62-.22.94-.29,1.85.82,1.93.91.05,1.66-.55,1.66-1.59-.02-1.32.75-2.05,1.4-3.06.82-1.3,1.9-2.67,1.9-4.5,0-.77.6-1.66,1.06-2.41.87-1.37,2.5-2.31,2.36-4.28,2.62-1.44,2.17-4.4,3.27-6.57.7-1.37,1.78-2.6,2.84-3.71,1.08-1.08,2.19-2.02,1.9-3.83,2.33-.07,3.25-1.78,3.8-3.83,1.32-4.84,3.68-9,7.46-12.27.84-.72,1.76-1.32,2.65-2,.75-.94,1.4-1.88,1.4-2.82,0-.46-.14-.89-.53-1.35,1.11-.94,2.43-1.59,2.96-2.67.19-.36.22-.82.19-1.3l.12-.02h.02s.12-.02.19-.02l.67-.1.75-.1c.1,0,.17-.02.27-.05l.55-.07,1.97-.26.7-.1h.1c-.43.36-.84.96-1.35,1.85-.63,1.13-1.32,2.21-2.05,3.3-1.42,2.09-1.28,3.49.51,4.43,1.66.87,3.39.14,4.33-1.85.51-1.03.91-2.12,1.37-3.18.19.07.36.14.53.22-.67,1.56-1.37,3.13-2.12,4.81,1.81.07,1.54,2.36,2.96,2.82l-.12.02c3.06.29,3.2.17,4.16-3.49,2.43-.7,3.49-1.9,4.07-4.62.02-.19.07-.36.1-.53,1.52.67,1.97.34,2.86-1.61.53-1.16.79-2.45,1.2-3.66.96-2.72,1.83-5.46,2.89-8.14,3.59-9.29,7.58-18.44,10.81-27.82,2.62-7.63,4.28-15.57,6.55-23.3,2.41-8.23,5.01-16.41,7.61-24.57,1.37-4.28,2.96-8.47,5.94-11.96.51-.58.87-1.37,1.11-2.09.48-1.59,0-2.26-1.64-2.33Zm-42.7,106.91c-.12-1.76.79-2.45,1.37-3.25.36-.48.6-.96.7-1.42.29.48.58.91.84,1.37-.87,1.01-1.81,2.02-2.91,3.3Zm29.03-106.84c-1.9,1.81-2.12,4.07-2.14,6.52-.07,3.73-.72,7.24-2.84,10.54-1.18,1.83-1.49,4.31-1.88,6.55-.82,4.91-1.32,9.89-2.19,14.78-1.66,9.22-3.06,18.53-5.37,27.58-2.5,9.84-6.23,19.33-10.83,28.42-.77,1.52-1.49,3.03-2.26,4.52-.14-.02-.29-.05-.41-.1.6-4.93,1.04-9.89,1.83-14.78,1.49-9.17,3.2-18.27,4.81-27.41,1.64-9.22,5.17-17.74,9.19-26.14,2.43-5.13,4.62-10.35,6.98-15.52,1.23-2.67,1.83-5.44,2.07-8.35.22-2.67.43-5.42,2.96-7.17.05.17.14.48.07.55Z"/><path class="cls-1" d="m15.48,450.47c2.17-1.59,3.92-2.98,5.77-4.18.78-.5,1.77-.69,2.66-.81,1.34-.18,2.81.16,3.4-1.85.03-.09.09-.26.11-.26,2.51.28,3.56-2.44,5.45-3.46,2.17-1.17,4.26-2.3,6.6-1.67.38.1.87-.08,1.41-.15.76-1.69.58-3.27.47-4.81-.09-1.35-.79-1.7-2.07-1.17-.69.29-1.35.74-2,1.18-2.65,1.77-5.38,3.08-8.41,3.14-1.24.02-2.17.65-3.19,1.65-2.37,2.33-4.92,4.47-7.45,6.6-.57.48-1.36.68-2.06.94-2.09.78-2.6,1.78-1.71,3.61.26.53.74.91,1,1.23Z"/><path class="cls-1" d="m62.23,451.53c-1.48.1-2.34.71-2.61,2.45-.68,4.36-2.42,8.36-5.62,11.78-1.36,1.46-1.49,2.24-1.25,4.66-1.13-.13-1.95.29-2.14,1.62-.12.85-.14,1.76-.5,2.54-.55,1.21-1.19,2.49-2.09,3.44-1.58,1.67-1.67,1.57-.54,3.3-.62-.18-1.24-.37-1.95-.58-.37,1.08-.6,2.02-1,2.89-.41.88-.98,1.71-1.58,2.72.78.61,1.53,1.19,2.3,1.79,1.02-1.81,1.96-3.35,2.77-4.94.41-.8.72-1.43,1.69-1.78.51-.18.93-1.19,1.22-1.88.87-2.1,1.99-3.98,3.36-5.87,1.69-2.33,3.62-4.55,3.97-7.77.36-3.3,2.34-6.39,4.5-9.19,2.41-3.14,2.4-3.47-.66-5.18,0,0,.11-.01.11-.01Z"/><path class="cls-1" d="m37.64,484.29c1.62,1.15,3.34.94,3.88-1.95.56-3.05,2-5.67,4.39-7.86,1.97-1.81,1.81-2.61-.37-3.58-3.17-1.41-3.78-1.1-4.25,2.67-.33,2.65-1.27,4.78-3.34,6.64-2.01,1.81-1.97,2.95-.3,4.07Z"/><path class="cls-1" d="m30.36,494.54c-.41.4-1.04.75-1.23,1.24-.48,1.26-.73,2.58-1.13,3.87-.29.91-.47,1.86.43,2.18,1.09.39,1.78-.51,1.94-1.56.24-1.61,1.16-2.61,2.32-3.6.63-.53,1.27-1.34,1.5-2.11.78-2.57,1.59-5.06,3.82-6.86.31-.25.4-.86.64-1.43-1.18-1.03-2.15-2.26-4.35-1.66.09,2.95-1.26,5.37-3.3,7.56-.46.49-.43,1.5-.64,2.36Z"/><path class="cls-1" d="m25.63,495.47c-1-1.71-2.39-1.64-3.66-1.85-.65,1.95-1.25,3.74-1.84,5.54-.3.9-.38,1.81.54,2.11,1.03.33,1.8-.39,2.02-1.46.35-1.79.94-3.35,2.94-4.34Z"/><path class="cls-1" d="m44.81,438.58c1.6-1.49,1.39-3.48,2.03-5.4-1.43-.32-2.63-.36-3.52,1.03-.66,1.03.03,2.94,1.49,4.37Z"/><path class="cls-1" d="m42.36,487.18c-.83,1.69-1.32,2.84-1.95,3.92-.51.88-.77,1.69.1,2.15.78.41,1.3-.28,1.79-.97.77-1.07,1.61-2.1,2.65-3.42-.87-.56-1.72-1.11-2.59-1.67Z"/></g><path class="cls-2" d="m321.59,321.86c-.91,2.6-2.38,4.84-4.67,6.43-2.84,1.97-5.58,1.81-8.18-.48-.53-.43-1.03-.89-1.88-1.61-1.18,1.06-2.36,2.07-3.49,3.13-1.68,1.56-3.25,3.25-5.75,3.42-1.16-1.3-2.38-2.55-3.49-3.9-1.4-1.73-1.56-1.83-3.75-1.11-.36.12-.75.12-1.16.17-1.18-1.85-1.2-3.68-.38-5.49.84-1.81,1.78-3.59,2.84-5.27,2.43-3.83,3.49-7.94,3.08-12.52-.91-9.82-1.54-19.66-2.53-29.48-1.42-13.89-2.91-27.75-4.64-41.59-1.11-8.88-2.74-17.71-4.16-26.57-.6-3.61-2.72-6.26-5.87-7.82-3.56-1.76-5.32-4.69-6.28-8.28-1.95-7.27,1.44-13.48,8.59-15.79,3.27-1.06,6.38-.6,8.88,1.83,1.04.99,1.97,1.35,3.37,1.37,2.55.05,3.92.99,4.19,3.35.58,5.15.99,10.3,1.18,15.48.17,5.27-.27,10.57.05,15.84.72,11.94,1.64,23.85,2.65,35.77.99,11.43,1.95,22.84,4.24,34.1,1.32,6.43,2.62,12.88,4.09,19.28,1.06,4.65,3.66,8.35,7.49,11.19,1.52,1.11,2.96,2.36,4.33,3.66,1.44,1.32,1.92,3.03,1.28,4.91Z"/><path class="cls-1" d="m297.67,332.79l-.1-.05h.05l.05.05Z"/><g class="cls-5"><path class="cls-1" d="m352.23,433.58c-.1-.26-.22-.53-.34-.79.17.14.29.29.29.41,0,.14.02.26.05.39Z"/><path class="cls-1" d="m352.81,447.98s.05.02.06,0h0s-.03.01-.04.02c-.02,0-.02-.02-.03-.03Z"/><path class="cls-1" d="m352.84,448.01s-.04,0-.05.01l-.04-.07s.03.01.06.03c.03,0,.05.02.06,0h0s-.03.01-.04.02Z"/><path class="cls-1" d="m366.68,469.88c.69,3.41,2.66,6.16,4.72,8.85.76.98,1.43,1.94,1.08,3.36.32.08.63.18.95.25.34.07.68.12,1.17.19.29,1.78.26,3.57.94,5.11.62,1.46,1.97,2.64,3.27,4.27-.85.57-1.56,1.12-2.34,1.52-.86.43-1.57.03-1.98-.99-.37-.93-.57-1.92-1.04-2.78-.7-1.27-1.41-2.68-2.43-3.62-1.02-.95-.69-2.37-1.41-2.96-.9-.72-1.62-1.3-1.86-2.47-.57-2.8-2.08-5.07-4.03-7.15-1.11-1.18-2.54-2.34-2.06-4.44-2.21-.38-2.99-2.06-3.58-4.1-1.75-5.99-4.13-9.44-9.25-13.47.14.89.13,1.58.36,2.23,1.19,3.49,2.81,6.77,5.18,9.69.73.89,1.33,1.97,1.77,3.05.56,1.45.07,2.63-.98,3.44-1.47,1.16-3.19.5-3.37-1.57-.29-3.26-1.94-5.97-3.34-8.78-.92-1.85-2.2-3.54-3.35-5.28-.66-1-1.54-2-.93-3.16.61-1.17,1.68-1.95,3.03-1.53,1.07.33,1.52-.15,2.25-.54,1.01-.54,2.23-.68,3.37-.98.71,1.02,1.74,2,2.03,3.07,1.17,4.52,4.06,7.93,6.96,11.32,1.98,2.3,2.18,2.54,2.15,5.32,1.59-.37,2.44.57,2.75,2.15Z"/><path class="cls-1" d="m385.78,493.12c-.7-3.03-1.73-5.94-3.47-8.62-.41-.65-.77-1.42-.94-2.17-.34-1.64.19-3.61-2.05-4.4-.07-.02,0-.53-.07-.77-.19-.63-.26-1.44-.67-1.88-2.33-2.38-3.35-5.3-4-8.47-.24-1.16-.94-2.24-1.4-3.37-.96.29-1.56.46-2.29.67.79-2.89.82-3.08-1.42-4.86-2.41-1.93-4.28-4.21-5.7-7.08-1.49-3.01-3.59-5.7-4.48-9.07-.43-1.61-1.32-1.95-2.77-1.71-.43.07-.84.26-1.73.53,1.01-1.85.29-3.13-.36-4.52-.41-.89-1.16-1.61-1.68-2.43,0-.02-.02-.02-.02-.02-.24-.41-.43-.87-.51-1.37-.1-.26-.22-.53-.34-.79-1.85-4.55-3.9-9.05-5.54-13.72-2.33-6.67-4.52-13.41-6.31-20.24-4.14-16.05-9.56-31.63-17.06-46.45-1.93-3.8-3.08-7.97-4.4-12.03-.65-2.02-.55-4.14.29-6.16.19-.46.34-.94.41-1.44.29-2.07-.48-2.91-2.48-2.36-2.09.6-4.04,1.3-6.35.77-1.88-.43-1.59,1.56-2.12,2.72-.72-.17-1.47-.36-2.21-.53-1.49-.31-2.74.05-3.63,1.42-.94,1.44-2.19,2.24-3.95,1.64-.99,0-1.97,0-2.96.05-1.64.07-2.14.75-1.64,2.33.24.72.6,1.52,1.08,2.09,3.01,3.49,4.6,7.68,5.94,11.96,2.6,8.16,5.2,16.34,7.61,24.57,2.29,7.73,3.92,15.67,6.55,23.3,3.25,9.39,7.22,18.53,10.83,27.82,1.03,2.67,1.93,5.42,2.86,8.14.41,1.2.67,2.5,1.2,3.66.87,1.95,1.35,2.29,2.86,1.61.02.17.07.34.1.53.58,2.72,1.64,3.92,4.07,4.62.99,3.66,1.11,3.78,4.16,3.49l-.1-.02c1.4-.46,1.13-2.74,2.94-2.82-.75-1.68-1.42-3.25-2.12-4.81.17-.07.36-.14.53-.22.46,1.06.89,2.14,1.37,3.18.96,2,2.7,2.72,4.36,1.85,1.78-.94,1.9-2.33.48-4.43-.72-1.08-1.42-2.17-2.05-3.3-.51-.89-.91-1.49-1.35-1.85h.1l.7.1,2,.26.53.07c.1.02.17.05.26.05l.75.1.7.1c.07,0,.14.02.19.02h.02l.1.02c-.02.48,0,.94.19,1.3.53,1.08,1.88,1.73,2.96,2.67-.36.43-.51.89-.51,1.35,0,.91.63,1.88,1.4,2.82h-.05c.91.67,1.83,1.28,2.67,2,3.78,3.27,6.14,7.44,7.46,12.27.58,2.05,1.47,3.75,3.83,3.83-.31,1.81.82,2.74,1.88,3.83,1.08,1.11,2.14,2.33,2.84,3.71,1.11,2.17.65,5.13,3.3,6.57-.14,1.97,1.49,2.91,2.33,4.28.48.75,1.06,1.64,1.06,2.41,0,1.83,1.08,3.2,1.93,4.5.63,1.01,1.4,1.73,1.37,3.06,0,1.03.75,1.64,1.68,1.59,1.08-.07,1.03-.99.82-1.93Zm-62.14-90.64c-2.29-9.05-3.71-18.36-5.37-27.58-.87-4.89-1.35-9.87-2.19-14.78-.39-2.24-.7-4.72-1.88-6.55-2.12-3.3-2.77-6.81-2.82-10.54-.05-2.45-.26-4.72-2.17-6.52-.07-.07.05-.39.07-.55,2.53,1.76,2.77,4.5,2.98,7.17.22,2.91.84,5.68,2.07,8.35,2.36,5.17,4.52,10.4,6.98,15.52,4,8.4,7.56,16.92,9.19,26.14,1.59,9.15,3.3,18.24,4.79,27.41.79,4.89,1.25,9.84,1.85,14.78-.14.05-.29.07-.43.1-.75-1.49-1.49-3.01-2.26-4.52-4.6-9.1-8.3-18.58-10.83-28.42Zm11.7,37.57c.29-.46.55-.89.84-1.37.1.46.36.91.72,1.42.58.79,1.47,1.49,1.35,3.25-1.11-1.28-2.05-2.29-2.91-3.3Zm6.93-1.68c-.29.17-.55.36-.91.58-.07-.17-.17-.31-.22-.46.58-.17,1.16-.34,1.71-.41-.19.1-.36.19-.58.29Z"/><path class="cls-1" d="m385.73,450.47c-2.17-1.59-3.92-2.98-5.77-4.18-.78-.5-1.77-.69-2.66-.81-1.34-.18-2.81.16-3.4-1.85-.03-.09-.09-.26-.11-.26-2.51.28-3.56-2.44-5.45-3.46-2.17-1.17-4.26-2.3-6.6-1.67-.38.1-.87-.08-1.41-.15-.76-1.69-.58-3.27-.47-4.81.09-1.35.79-1.7,2.07-1.17.69.29,1.35.74,2,1.18,2.65,1.77,5.38,3.08,8.41,3.14,1.24.02,2.17.65,3.19,1.65,2.37,2.33,4.92,4.47,7.45,6.6.57.48,1.36.68,2.06.94,2.09.78,2.6,1.78,1.71,3.61-.26.53-.74.91-1,1.23Z"/><path class="cls-1" d="m338.98,451.53c1.48.1,2.34.71,2.61,2.45.68,4.36,2.42,8.36,5.62,11.78,1.36,1.46,1.49,2.24,1.25,4.66,1.13-.13,1.95.29,2.14,1.62.12.85.14,1.76.5,2.54.55,1.21,1.19,2.49,2.09,3.44,1.58,1.67,1.67,1.57.54,3.3.62-.18,1.24-.37,1.95-.58.37,1.08.6,2.02,1,2.89.41.88.98,1.71,1.58,2.72l-2.3,1.79c-1.02-1.81-1.96-3.35-2.77-4.94-.41-.8-.72-1.43-1.69-1.78-.51-.18-.93-1.19-1.22-1.88-.87-2.1-1.99-3.98-3.36-5.87-1.69-2.33-3.62-4.55-3.97-7.77-.36-3.3-2.34-6.39-4.5-9.19-2.41-3.14-2.4-3.47.66-5.18,0,0-.11-.01-.11-.01Z"/><path class="cls-1" d="m363.56,484.29c-1.62,1.15-3.34.94-3.88-1.95-.56-3.05-2-5.67-4.39-7.86-1.97-1.81-1.81-2.61.37-3.58,3.17-1.41,3.78-1.1,4.25,2.67.33,2.65,1.27,4.78,3.34,6.64,2.01,1.81,1.97,2.95.3,4.07Z"/><path class="cls-1" d="m370.85,494.54c.41.4,1.04.75,1.23,1.24.48,1.26.73,2.58,1.13,3.87.29.91.47,1.86-.43,2.18-1.09.39-1.78-.51-1.94-1.56-.24-1.61-1.16-2.61-2.32-3.6-.63-.53-1.27-1.34-1.5-2.11-.78-2.57-1.59-5.06-3.82-6.86-.31-.25-.4-.86-.64-1.43,1.18-1.03,2.15-2.26,4.35-1.66-.09,2.95,1.26,5.37,3.3,7.56.46.49.43,1.5.64,2.36Z"/><path class="cls-1" d="m375.57,495.47c1-1.71,2.39-1.64,3.66-1.85.65,1.95,1.25,3.74,1.84,5.54.3.9.38,1.81-.54,2.11-1.03.33-1.8-.39-2.02-1.46-.35-1.79-.94-3.35-2.94-4.34Z"/><path class="cls-1" d="m356.4,438.58c-1.6-1.49-1.39-3.48-2.03-5.4,1.43-.32,2.63-.36,3.52,1.03.66,1.03-.03,2.94-1.49,4.37Z"/><path class="cls-1" d="m358.84,487.18c.83,1.69,1.32,2.84,1.95,3.92.51.88.77,1.69-.1,2.15-.78.41-1.3-.28-1.79-.97-.77-1.07-1.61-2.1-2.65-3.42.87-.56,1.72-1.11,2.59-1.67Z"/></g><path class="cls-2" d="m275.64,688.19c-.65,2.79-1.32,5.7-1.2,8.52.39,9.46,1.18,18.87,1.73,28.3.39,6.64,1.01,13.31.91,19.95-.17,10.28-.89,20.58-1.37,30.88-.41,9-.7,18.03-1.28,27.03-.51,7.61-1.47,15.16-2.02,22.77-.48,6.91-.12,13.72,3.13,20.12.84,1.66,1.16,3.66,1.44,5.56.34,2.36-.39,4.24-2.89,4.6.53,2.17,1.11,4.12,1.44,6.11.17.91.05,1.93-.17,2.84-.36,1.4-1.25,1.97-2.65,1.28-.51-.24-.96-.53-1.42-.77-1.49-1.42-3.18-2.14-5.2-1.28-.7.55-1.32,1.16-2.02,1.71.77.26,1.56.41,2.43.48,2.45.17,4.57,1.08,6.43,2.58.87-.24,1.64-.43,2.38-.65,3.08-.89,4.65.17,5.1,3.49-2.6-.87-5.66,1.08-8.04-1.35-1.28,1.35-2.84,1.35-4.45,1.25-1.44-.1-2.94-.36-4.21.67,5.25.14,7.08,3.15,4.57,7.51-1.95-.87-3.83-2.55-6.5-.72,1.28.19,2.21.29,3.15.51,4.43,1.01,5.51,3.37,3.42,7.34-.96,1.81-1.44,3.63-1.13,5.73.22,1.44.99,3.2-1.11,4.12-.14.07-.02.72-.07,1.08-.07.65-.17,1.3-.26,2,2.91,1.66,2.96,1.95.87,4.84.24.58.55,1.18.72,1.85.26,1.03-.14,1.73-1.23,2-1.28.31-2.67-.29-3.23-1.44-.29-.63-.31-1.52-.77-1.9-1.88-1.54-1.71-3.35-.67-5.44-1.83-.36-2.98-1.18-2.72-3.06-2.5-1.78-.75-3.2.43-4.6,1.06-1.25,1.25-2.6,1.08-4.16-.19-1.76-.22-3.56-.36-5.32-.05-.53-.14-1.35-.48-1.52-1.32-.67-1.08-1.76-.96-2.84.39-3.18,1.81-5.44,5.22-5.97-1.06.05-2.12,0-3.15.17-.79.1-1.52.51-2.29.65-2.43.43-3.73-.46-3.8-2.89-.05-1.56.19-3.2.6-4.69.79-2.79,2.53-3.71,4.57-2.45,0-.05.02-.12.02-.17.39-2.14.87-4.24,1.35-6.47-.6.55-1.23,1.08-1.83,1.64-2.45,2.24-3.83,1.97-4.81-1.28-.55-1.81-.94-3.8-.75-5.66.51-4.48,1.3-8.93,2.19-13.33,2.02-10.13,3.61-20.27,3.06-30.66-.65-12.54-1.13-25.1-1.61-37.67-.51-13.72-.84-27.46-1.44-41.2-.39-8.47-.67-16.94-2.79-25.25-1.95-7.7-3.54-15.45-8.18-22.21-1.85-2.67-2.17-5.92-1.85-9.43,1.61-.17,3.06-.29,5.2-.51-3.39-1.76-4.55-4.69-5.82-7.63-2.55-5.92-2.26-11.55,1.71-16.7,2.43-3.13,3.9-6.64,4.77-10.42.89-3.9,1.85-7.75,2.53-11.65,4.72-26.26,7-52.71,6.98-79.4-.05-15.98.46-31.99.51-47.97.02-4.04-.29-8.23-1.37-12.08-.96-3.35-1.54-6.38-.39-9.7,1.42-3.97.34-7.63-1.76-11.05-1.78-2.89-3.49-3.63-6.79-2.98-2,.41-3.95,1.01-5.92,1.52-2.62.63-4.16-.19-4.28-2.79-.26-5.1.29-10.11,3.23-14.54,1.68-2.48,3.9-4.26,6.93-4.86,4.26-.89,6.07.51,6.19,4.86.12,3.8,2.72,6.33,6.72,6.52,2.43-3.68,4.28-4.43,8.66-3.51,5.13,1.08,7.8,4.69,9.19,9.36,1.88,6.26,1.47,12.54-.46,18.73-.79,2.55-1.97,5.01-2.67,7.58-.67,2.45-1.13,5.01-1.3,7.53-.26,4.19-.22,8.38-.31,12.56-.34,12.97-.63,25.95-1.03,38.94-.43,12.66-1.06,25.3-1.59,37.96-.6,15.11-1.16,30.23-1.81,45.34-.26,6.09,1.85,10.98,6.23,15.24,6.57,6.35,6.81,17.38.91,24.19l-6.84,1.88c-.7-.34-1.42-.67-2.43-1.13.48-1.16.96-2.17,1.37-3.23,1.06-2.7,2.12-5.39,3.1-8.09,2.09-5.73-3.51-13.31-10.45-12.88-7.22.43-11.46,3.78-12.92,11.41-.53,2.91.34,5.54,2.36,7.73.87.94,1.78,1.85,2.65,2.82,1.71,1.9,1.73,3.15,0,4.98-.51.51-1.16.94-1.95,1.49,2.82-.22,3.92-1.61,3.61-4.48-.19-1.64-.84-3.32-1.64-4.77-2.14-3.8-3.37-7.68-1.64-11.96.43-1.06,1.03-2.17,1.88-2.91,5.29-4.84,14.37-2.48,16.75,4.24.82,2.29.39,4.48-.46,6.59-.63,1.56-1.54,3.06-2.36,4.55-.55,1.03-1.23,2.02-1.73,3.06-.55,1.16-1.37,2.58-.29,3.59.67.65,2.09.55,3.39.22l6.98-1.28c1.3.17,2.58.31,4,.48-.12,1.01-.14,1.66-.29,2.24-1.56,5.92-3.25,11.79-4.69,17.74Z"/><path class="cls-2" d="m269.93,873.39c.27,1.06.65,2.18.84,3.34.38,2.25.85,4.5.92,6.77.05,1.56-.02,2.98.99,3.57-.2,1.22-.73,2.27-.41,2.86.74,1.38.52,2.65.35,4.05-.11.89.12,1.83.2,2.86,1.5-.19,2.6-.34,4.23-.55-1.15.96-2.01,1.4-2.45,2.1-.57.93.62,1.51.84,2.21.98,3.1,1.64,6.3,2.38,9.47.37,1.58,1.17,2.47,3.1,2.17-.17-2.13.32-4.15-.53-6.34-.7-1.81-.41-4.01-.54-6.04-.02-.38.19-1.03.05-1.11-2.1-1.14-1.17-3.72-2.56-5.26-.63-.71-.61-2.01-.86-3.04-.3-1.23-1.18-2.82-.72-3.63.84-1.46.13-2.44-.12-3.64-.58-2.72-1.22-5.43-1.59-8.18-.41-3.05-1.28-3.5-4.13-1.6Z"/><path class="cls-2" d="m288.63,896.42c-1.41,1.1-3.15.84-4.74,1.2-.71.16-1.67.43-1.96.96-.49.88.6,1.18,1.09,1.75.93,1.08,1.62,2.4,2.27,3.69.67,1.35,1.16,2.78,2.02,4.1.91-1.58,1.1-3,.06-4.55-.86-1.29-1.75-2.68-1.23-4.59,1.46,0,2.39.59,2.9,1.94.59,1.56,1.22,3.1,1.88,4.64.14.32.46.57.9,1.1.64-1.58.77-2.86-.02-4.07-1.13-1.72-1.8-3.51-1.19-5.69-.8-.17-1.44-.3-2.08-.44,0,0,.12-.05.12-.05Z"/><path class="cls-2" d="m292.67,895.84c-.22-.64-.32-1.35-.68-1.9-1.45-2.23-2.94-4.44-4.49-6.61-.31-.44-.9-.68-1.49-1.09-.4.54-.72.98-1.1,1.5-.45-.4-.88-.77-1.32-1.14,0,0,.08-.04.08-.04-1.51.97-1.15,2.09-.2,3.19,1.36,1.57,2.59,3.17,2.87,5.35.16,1.26,1.27,1.31,2.28,1.33,0,0-.12.05-.12.05.28-.6.55-1.19.69-1.48,1.29.29,2.43.55,3.58.82,0,0-.11.03-.11.03Z"/><path class="cls-2" d="m280.97,883.9c-.45-1.15-1.08-2.26-1.32-3.45-.4-2.04-.55-4.13-.83-6.36-1.03-.33-2.03-.64-3.45-1.09.26,1.11.49,1.91.64,2.72.47,2.65.91,5.3,1.37,7.95.13.78.14,1.62.45,2.33.2.45.82.98,1.27,1,.45.02,1.15-.45,1.35-.88.32-.69.33-1.54.47-2.32,0,0,.04.11.05.11Z"/><path class="cls-2" d="m280.92,883.79c.18.54.39,1.07.55,1.62.33,1.17,1.07,1.51,2.2,1.14,0,0-.08.04-.07.04-.15-1.72-.31-3.43-.47-5.14.1-.02.21-.03.31-.05.5,1.11.99,2.21,1.49,3.32.8-2.34-.42-4.21-.86-6.43-1.23-.22-2.44-.45-3.69-.67.21,2.27.41,4.29.59,6.3,0,0-.05-.12-.05-.12Z"/><path class="cls-2" d="m282.43,896.81c1.44-.18,2.05-.81,1.62-1.85-.86-2.09-1.79-4.15-2.88-6.12-.25-.44-1.27-.46-2.3-.78.52,3.51,2.1,6.06,3.56,8.76Z"/><path class="cls-2" d="m280.5,871.73c-.71.2-1.43.4-2.18.61.99,1.53,1.91,2.97,2.91,4.52,1.35.19,1.72-.81,1.95-1.92.21-1.03-.36-1.66-1.19-2.15-.54-.33-1.06-.71-1.57-1.07.01,0,.07,0,.07,0Z"/><path class="cls-2" d="m292.77,895.8c-.47.31-.94.62-1.32.88,1.14,2.05,2.18,3.92,3.22,5.79.15-.04.31-.08.46-.12,0-.54.12-1.11-.02-1.62-.36-1.4-.77-2.8-1.29-4.15-.13-.35-.77-.5-1.17-.74.01,0,.12-.04.12-.04Z"/><path class="cls-2" d="m209.94,263.9s0,.02-.02.05v-.05h.02Z"/><path class="cls-2" d="m227.92,175.81c-.05.75-.14,1.49-.36,2.24.07-.75.19-1.49.36-2.24Z"/><path class="cls-2" d="m292.35,175.14c-.36.55-1.52.89-2.29.84-.94-.07-1.93-.53-2.77-1.01-2.96-1.66-6.02-1.9-9.24-.91-1.23.39-2.5.82-3.78.91-.77.05-1.56-.1-2.36-.24-.12-.02-.22-.02-.31-.07-1.61-.46-1.47-3.01-1.47-3.01,2.55-.19,5.15-.12,7.65-1.4-.34-1.28-.65-2.38-.99-3.66-.53.67-.89,1.11-1.37,1.73-3.42-2.24-7.1-3.66-11.05-4.38-2.94-.53-5.87-1.18-8.79-1.78-7.24-1.47-14.44-2.91-21.88-2.82-3.59.05-7.17-.39-10.71-.96-1.9-.31-3.83-1.16-5.46-2.21-2.96-1.93-3.78-6.96-1.68-10.45,1.28,1.08,2.6,2.09,3.75,3.23,3.51,3.39,7.58,5.37,12.52,5.61,4.86.24,9.72.87,14.61,1.04,10.9.39,21.2,3.35,31.31,7.17.24.1.43.34.63.51-.12.46-.24.87-.38,1.44,1.9-.46,3.42-.34,4.81.7,2.24,1.66,4.55,3.23,6.76,4.93.87.65,1.71,1.42,2.26,2.33.38.67.55,1.88.22,2.45Z"/><path class="cls-2" d="m194.92,101.92c-2.23,1.01-3.48.63-4.77-1.46-1.74.71-2.3.59-3.71-.81-1.34.85-3.01.17-3.44-1.4-.03-.13-.1-.26-.09-.38.24-2.23-.29-4.52.48-6.73.15-.42.09-1.13-.19-1.43-1.49-1.65-2.91-3.43-4.67-4.74-1.8-1.34-3.99-1.53-5.97-.08-.83.61-1.3.36-1.72-.39-1-1.81-1.99-3.62-2.99-5.43-.67-1.21-1.3-2.44-2.04-3.59-.45-.7-.39-1.23.06-1.87,1.64-2.4,2.99-4.94,3.63-7.8.56-2.47.47-4.89-.62-7.21-.18-.39-.45-.75-.84-1.09-1.1,2.39-.42,4.91-.51,7.35-.15.1-.3.19-.45.29-.22-.36-.4-.76-.67-1.09-2.43-2.93-3.73-6.35-4.04-10.08-.36-4.35-.65-8.72-.59-13.07.09-6.46,1.32-12.73,4.3-18.54,4.26-8.31,11.05-13.68,19.88-16.38,11.01-3.37,21.94-2.94,32.46,1.92,9.67,4.47,15.43,12.25,17.96,22.49,1.62,6.54,1.78,13.18,1.09,19.86-.21,2.02-.35,4.06-.72,6.05-.53,2.88-1.73,5.5-3.65,7.75-.28.33-.64.6-1.19.8.07-1.22.21-2.44.2-3.67,0-1.21-.16-2.43-.25-3.64-.15-.03-.31-.06-.46-.1-.27.4-.61.78-.8,1.21-1.42,3.24-1.14,6.5.22,9.65.77,1.8,1.8,3.49,2.79,5.19.38.65.53,1.17.13,1.89-1.56,2.77-3.05,5.58-4.58,8.37-.16.29-.35.55-.54.82-.46.68-.92.86-1.69.3-1.98-1.43-4.13-1.26-5.95.13-1.7,1.3-3.12,2.97-4.63,4.52-.49.5-.48,1.11-.22,1.82.3.82.41,1.72.49,2.59.09,1.01.05,2.03.06,3.04.02,1.1-.18,2.11-1.25,2.7-.79.43-1.61.86-2.34-.08-1.69,1.56-1.93,1.61-3.75.75-1.02,2.13-2.48,2.61-4.73,1.55-1.83,1.58-3.32,1.83-4.81.8-1.89.97-3.1.78-4.9-.78Zm24.05-28.48c.92,0,1.84.04,2.75,0,1.82-.1,3.16-.94,3.89-2.67,1.55-3.68,1.53-7.32-.16-10.95-.71-1.53-2.01-2.24-3.62-2.3-3.76-.14-7.47.29-11.07,1.41-2.65.82-4.25,2.68-4.52,5.49-.12,1.33-.12,2.69-.02,4.02.18,2.46.71,3.07,3.13,3.73,3.14.86,6.33,1.46,9.61,1.28Zm-38.4.15c3.52.02,6.92-.62,10.25-1.67,1-.32,2.03-.74,2.27-1.94.42-2.11.53-4.24.08-6.35-.5-2.34-1.95-3.94-4.22-4.64-3.66-1.11-7.42-1.68-11.25-1.48-1.56.08-2.9.75-3.58,2.23-1.81,3.96-1.86,7.92.24,11.81.55,1.02,1.44,1.62,2.59,1.75,1.2.14,2.42.2,3.62.29Zm18.95,5.93c.14,0,.27,0,.41,0,.15.34.37.67.43,1.02.15.9.25,1.82.32,2.73.14,1.78.67,2.23,2.45,2.01.33-.04.65-.11.97-.18,1.03-.23,1.4-.63,1.13-1.66-.33-1.25-.71-2.54-1.36-3.64-.82-1.4-1.5-2.81-1.95-4.37-.32-1.08-.83-2.13-1.4-3.11-.53-.89-.97-.88-1.52.03-.55.92-1.06,1.91-1.32,2.93-.43,1.64-1.04,3.15-2.02,4.55-.84,1.2-1.36,2.56-1.27,4.06.02.37.33.96.61,1.04.84.22,1.73.3,2.61.32.77.02,1.18-.45,1.21-1.24.04-.82.08-1.64.2-2.45.1-.68.33-1.35.5-2.03Z"/><path class="cls-4" d="m281.35,211.1c-.22,6.55-2.04,13.09-6.14,19.37,0,0-.02.02-.05.05-.07.07-.24.22-.46.41-1.44,1.2-5.92,4.72-12.73,8.86-.1.05-.19.1-.29.17-13.41,8.06-35.69,18.34-61.88,18.34s-48.47-10.28-61.88-18.34c-.1-.07-.19-.12-.29-.17-6.81-4.14-11.29-7.65-12.73-8.86-.22-.19-.38-.34-.46-.41-.02-.02-.05-.05-.05-.05-4.09-6.28-5.92-12.83-6.14-19.37-.91-27.61,26.98-55.55,37.64-65.18.07-.07.14-.14.22-.19,1.28-.96,2.45-2,3.59-3.13.17-.14.27-.22.27-.22.89-.89,1.73-1.81,2.55-2.74.7.67,13.72,12.97,37.28,12.97s36.58-12.3,37.28-12.97c.82.94,1.66,1.85,2.55,2.74,0,0,.1.07.27.22,1.13,1.13,2.31,2.17,3.59,3.13.07.05.14.12.22.19,10.66,9.63,38.56,37.57,37.64,65.18Z"/></svg>