<?xml version="1.0" encoding="UTF-8"?><svg id="Lag_1" xmlns="http://www.w3.org/2000/svg" viewBox="0 0 377.2 864.2"><defs><style>.cls-1,.cls-2,.cls-3{fill:#fff;}.cls-4{fill:red;opacity:.39;}.cls-5,.cls-6,.cls-2{opacity:.22;}.cls-6,.cls-7{fill:none;}.cls-3{opacity:.15;}</style></defs><path class="cls-3" d="m377.19,431.24v.02c.02.23.02.43-.02.59-.16.91-.59,1.5-1.16,1.84-1.18.75-2.93.43-3.95-.05-5.38-2.39-11.68-2.75-16.11-8.54-.11-.11-.23-.27-.34-.41-.07.23-.14.48-.23.7-.3.91-.55,1.79-.7,2.66-.68,3.11-.59,5.93-.05,8.59.79,3.84,2.54,7.32,4.32,10.79.09.2.2.39.3.59,3.54,6.86,7.36,13.61,10.56,20.63,3.84,8.38,3.79,13.27-4.36,14.38-.75.09-1.57.16-2.41.18-1.43.02-8.72-2.84-11.31-2.23-2.23.55-3.52.7-4.84.23-.57-.23-1.27-.57-1.82-1.11l-.16-.23c-.98-1.18-6-7.57-7.2-10.06l-13.79-19.31-.14-.23-.14-.18c-7.16-10.29-14.63-21.42-18.81-30.31-.18-.43-.36-.86-.57-1.32-.61-1.45-1.39-2.84-2.04-4.27-14.84-32.44-30.33-64.66-39.35-99.48-2.09-8.02-3.82-16.18-5.13-24.51-.07,24.74.82,49.32,4.43,73.49.98,6.59,2.34,13.15,3.84,19.7,1.45,6.36,3.02,12.72,4.52,19.08,2.95,12.34,5.59,24.7,6.38,37.19,2.34,36.3-.09,72.9-.55,109.39-.34,26.15-1.18,52.28-1,78.42.09,16.77,3.45,33.67,2.14,50.28-2.36,29.4-7.45,58.61-10.86,87.97-2.75,23.85-1.41,47.48,8.93,69.68,3.45,7.41,14.63,14.11,7.59,22.26-4.41,5.09-15.18,5.91-23.24,6.36-20.7,1.23-24.33-4.09-23.26-25.42,1.3-26.38-3.86-52.89,1.16-79.29.48-2.64-.84-5.63-1.41-8.43-7.27-36.12-18.45-71.75-13.47-109.41.52-3.91-1.11-8.09-1.86-12.11-6.68-35.8-13.86-71.52-19.92-107.41-3.18-18.86-4.43-38.03-6.63-57.66-2.14.09-2.86.14-5.91.27-3.04-.14-3.77-.18-5.91-.27-2.2,19.63-3.45,38.8-6.63,57.66-6.07,35.9-13.25,71.61-19.92,107.41-.75,4.02-2.39,8.2-1.86,12.11,4.98,37.67-6.2,73.29-13.47,109.41-.57,2.79-1.89,5.79-1.41,8.43,5.02,26.4-.14,52.91,1.16,79.29,1.07,21.33-2.57,26.65-23.26,25.42-8.06-.45-18.83-1.27-23.24-6.36-7.04-8.16,4.13-14.86,7.59-22.26,10.34-22.2,11.68-45.82,8.93-69.68-3.41-29.35-8.5-58.57-10.86-87.97-1.32-16.61,2.04-33.51,2.14-50.28.18-26.15-.66-52.28-1-78.42-.45-36.49-2.89-73.09-.55-109.39.8-12.5,3.43-24.85,6.38-37.19,1.5-6.36,3.07-12.72,4.52-19.08,1.5-6.54,2.86-13.11,3.84-19.7,3.61-24.17,4.5-48.75,4.43-73.49-1.32,8.34-3.04,16.49-5.13,24.51-9.02,34.83-24.51,67.04-39.35,99.48-.66,1.43-1.43,2.82-2.04,4.27-.2.45-.39.89-.57,1.32-4.18,8.88-11.65,20.02-18.81,30.31l-.14.18-.14.23-13.79,19.31c-1.2,2.5-6.22,8.88-7.2,10.06l-.16.23c-.55.55-1.25.89-1.82,1.11-1.32.48-2.61.32-4.84-.23-2.59-.61-9.88,2.25-11.31,2.23-.84-.02-1.66-.09-2.41-.18-8.16-1.11-8.2-6-4.36-14.38,3.2-7.02,7.02-13.77,10.56-20.63.09-.2.2-.39.3-.59,1.77-3.48,3.52-6.95,4.32-10.79.55-2.66.64-5.47-.05-8.59-.16-.86-.41-1.75-.7-2.66-.09-.23-.16-.48-.23-.7-.11.14-.23.3-.34.41-4.43,5.79-10.72,6.16-16.11,8.54-1.02.48-2.77.8-3.95.05-.57-.34-1-.93-1.16-1.84-.05-.16-.05-.36-.02-.59v-.02c.11-1.23,1.02-2.91,1.98-3.52,11.86-7.57,18.06-23.31,34.71-24.13,3.29-.16,5.59-1.18,7.43-2.89l.3-.3c.16-.14.3-.27.45-.43.02-.05.07-.09.11-.14,1.75-1.91,3.13-4.04,3.66-5.98,5.5-20.08,9.31-40.6,13.9-60.93,2.29-10.11,3.59-20.72,7.18-30.28.36-.98.75-1.93,1.18-2.89,13.29-30.31,16.79-61.54,12.38-93.99-.11-.84-.23-1.68-.3-2.5l-.02-.02c-3.09-27.58,6.16-41.42,33.17-51.16,8.06-2.89,16.04-6.25,23.81-9.97,2.59-1.25,5.02-2.73,7.2-4.38.07-.07.14-.14.2-.18,1.2-.91,2.32-1.89,3.39-2.95.16-.14.25-.2.25-.2.84-.84,1.64-1.7,2.41-2.59,8.2-9.7,11.15-22.81,8.07-35.33l-.02-.02c-1.39-5.57-3.98-11-7.84-15.97-5.84-7.52-9.47-20.95-3.52-27.72.98-1.14-.32-5.41-.55-8.25-1.3-15.38-.57-30.44,15.24-38.46,7.86-4.02,15.88-6.07,23.81-6.07s15.95,2.04,23.81,6.07c15.81,8.02,16.54,23.08,15.24,38.46-.23,2.84-1.52,7.11-.55,8.25,5.95,6.77,2.32,20.2-3.52,27.72-3.86,4.98-6.45,10.41-7.84,15.97l-.02.02c-3.09,12.52-.14,25.63,8.07,35.33.77.89,1.57,1.75,2.41,2.59,0,0,.09.07.25.2,1.07,1.07,2.18,2.04,3.39,2.95.07.05.14.11.2.18,2.18,1.66,4.61,3.14,7.2,4.38,7.77,3.73,15.74,7.09,23.81,9.97,27.01,9.75,36.26,23.58,33.17,51.16l-.02.02c-.07.82-.18,1.66-.3,2.5-4.41,32.44-.91,63.68,12.38,93.99.43.95.82,1.91,1.18,2.89,3.59,9.56,4.88,20.17,7.18,30.28,4.59,20.33,8.41,40.85,13.9,60.93.52,1.93,1.91,4.07,3.66,5.98.05.05.09.09.11.14.16.16.3.3.45.43l.3.3c1.84,1.7,4.13,2.73,7.43,2.89,16.65.82,22.85,16.56,34.71,24.13.95.61,1.86,2.29,1.98,3.52Z"/><path class="cls-7" d="m150.75,134.61c-.5.41-1.7,1.43-3.39,2.95"/><path class="cls-7" d="m153.41,131.81l-.02-.02"/><path class="cls-7" d="m111.63,199.26c0-.18,0-.34-.02-.52"/><path class="cls-7" d="m229.84,137.56c-1.68-1.52-2.89-2.54-3.39-2.95"/><path class="cls-7" d="m223.82,131.79l-.02.02"/><path class="cls-7" d="m265.6,198.74c-.02.18-.02.34-.02.52"/><path class="cls-7" d="m150.67,134.2c-.5.41-1.7,1.43-3.39,2.95"/><path class="cls-7" d="m153.33,131.4l-.02-.02"/><path class="cls-7" d="m111.55,198.85c0-.18,0-.34-.02-.52"/><path class="cls-7" d="m229.76,137.15c-1.68-1.52-2.89-2.54-3.39-2.95"/><path class="cls-7" d="m223.74,131.38l-.02.02"/><path class="cls-7" d="m265.52,198.33c-.02.18-.02.34-.02.52"/><path class="cls-6" d="m112.38,198.89c0-.18,0-.34-.02-.52"/><path class="cls-6" d="m266.35,198.36c-.02.18-.02.34-.02.52"/><path class="cls-2" d="m152.91,434.21c-.11,2.45-1.57,3.23-4.04,2.64-1.86-.48-3.7-1.04-5.59-1.43-3.11-.61-4.73.09-6.41,2.82-1.98,3.23-3,6.68-1.66,10.43,1.09,3.14.55,6-.36,9.16-1.02,3.63-1.32,7.59-1.29,11.4.05,15.09.52,30.19.48,45.28-.02,25.19,2.11,50.16,6.57,74.95.66,3.68,1.57,7.32,2.39,11,.84,3.57,2.2,6.88,4.52,9.84,3.75,4.86,4.02,10.18,1.61,15.77-1.2,2.77-2.29,5.54-5.5,7.2,2.02.2,3.39.32,4.91.48.3,3.32,0,6.38-1.75,8.91-4.38,6.38-5.88,13.7-7.72,20.97-2,7.84-2.27,15.83-2.64,23.83-.57,12.97-.89,25.94-1.36,38.89-.45,11.86-.91,23.72-1.52,35.55-.52,9.81.98,19.38,2.89,28.94.84,4.16,1.59,8.36,2.07,12.59.18,1.75-.18,3.63-.7,5.34-.93,3.07-2.23,3.32-4.54,1.2-.57-.52-1.16-1.02-1.75-1.54.48,2.11.93,4.09,1.29,6.11,0,.05.02.11.02.16,1.93-1.18,3.57-.32,4.32,2.32.39,1.41.59,2.95.57,4.43-.09,2.29-1.29,3.14-3.59,2.73-.73-.14-1.41-.52-2.16-.61-.98-.16-1.98-.11-2.98-.16,3.23.5,4.57,2.64,4.93,5.63.11,1.02.34,2.04-.91,2.68-.32.16-.41.93-.45,1.43-.14,1.66-.16,3.36-.34,5.02-.16,1.48.02,2.75,1.02,3.93,1.11,1.32,2.77,2.66.41,4.34.25,1.77-.84,2.54-2.57,2.89.98,1.98,1.14,3.68-.64,5.13-.43.36-.45,1.2-.75,1.79-.5,1.09-1.82,1.66-3.04,1.36-1-.25-1.41-.91-1.14-1.89.16-.64.45-1.2.68-1.75-1.98-2.73-1.93-3,.82-4.57-.09-.66-.18-1.27-.25-1.89-.05-.34.07-.95-.07-1.02-2-.86-1.27-2.52-1.04-3.88.3-1.98-.16-3.7-1.07-5.41-1.98-3.75-.95-5.98,3.23-6.93.89-.2,1.77-.3,2.98-.48-2.52-1.73-4.29-.14-6.13.68-2.36-4.11-.64-6.95,4.32-7.09-1.2-.98-2.61-.73-4-.64-1.5.09-2.98.09-4.18-1.18-2.25,2.29-5.13.45-7.59,1.27.43-3.14,1.91-4.13,4.79-3.29.73.2,1.45.39,2.27.61,1.73-1.41,3.75-2.27,6.07-2.43.8-.07,1.57-.2,2.29-.45-.66-.52-1.25-1.09-1.91-1.61-1.93-.82-3.5-.14-4.91,1.2-.43.23-.86.5-1.34.73-1.32.66-2.16.11-2.5-1.2-.2-.86-.34-1.82-.18-2.68.34-1.89.89-3.73,1.39-5.77-2.36-.34-3.04-2.11-2.73-4.34.27-1.79.55-3.68,1.36-5.25,3.07-6.04,3.41-12.47,2.93-18.99-.5-7.18-1.43-14.31-1.89-21.49-.55-8.5-.82-17.02-1.2-25.51-.45-9.72-1.14-19.45-1.29-29.15-.09-6.27.5-12.56.86-18.83.52-8.91,1.27-17.79,1.64-26.72.11-2.66-.52-5.41-1.16-8.04-1.34-5.61-2.93-11.15-4.41-16.74-.14-.55-.16-1.16-.27-2.11,1.34-.16,2.54-.3,3.77-.45l6.59,1.2c1.23.32,2.54.41,3.2-.2,1.02-.95.25-2.29-.27-3.39-.48-.98-1.11-1.91-1.64-2.89-.77-1.41-1.64-2.82-2.23-4.29-.8-2-1.2-4.07-.43-6.22,2.25-6.34,10.81-8.56,15.81-4,.8.7,1.36,1.75,1.75,2.75,1.66,4.04.5,7.7-1.52,11.29-.75,1.36-1.36,2.95-1.54,4.5-.3,2.7.75,4.02,3.41,4.23-.75-.52-1.36-.93-1.84-1.41-1.64-1.73-1.61-2.91,0-4.7.82-.91,1.68-1.77,2.5-2.66,1.91-2.07,2.73-4.54,2.23-7.29-1.39-7.2-5.38-10.36-12.2-10.77-6.54-.41-11.84,6.75-9.88,12.15.95,2.54,1.95,5.09,2.95,7.63.39,1,.82,1.95,1.29,3.04-.98.43-1.64.75-2.29,1.07l-6.45-1.77c-5.57-6.43-5.34-16.83.86-22.83,4.13-4.02,6.13-8.63,5.86-14.38-.59-14.27-1.11-28.53-1.68-42.8-.5-11.95-1.09-23.88-1.5-35.83-.41-12.27-.66-24.51-.98-36.76-.09-3.95-.05-7.91-.32-11.86-.16-2.39-.57-4.79-1.2-7.11-.66-2.43-1.77-4.75-2.52-7.16-1.82-5.84-2.2-11.77-.43-17.68,1.32-4.41,3.84-7.82,8.68-8.84,4.13-.86,5.88-.16,8.18,3.32,3.77-.18,6.22-2.57,6.34-6.16.11-4.11,1.79-5.43,5.84-4.59,2.86.57,4.95,2.25,6.52,4.59,2.79,4.18,3.32,8.91,3.07,13.72Z"/><path class="cls-2" d="m243.25,365.43c-6.82-4.36-14.38-4.93-22.01-3-5.66,1.43-8.36,6.7-7.18,12.56.09.45.11.93.18,1.39.14.39.27.77.43,1.16.41,1.05.98,2.04,1.2,3.14.98,4.68,1.79,9.41,2.77,14.11,1.39,6.43-.16,12.13-4.09,17.27-1.02,1.34-2.02,2.75-3.27,3.86-4,3.57-8.13,7-12.2,10.47-1.86,1.59-3.79,3.09-5.52,4.82-.89.91-1.61,1.77-3.02,1.68-1.95-.09-3.95.16-5.61-1.25-3.41-2.84-6.75-5.7-10.22-8.43-4.82-3.82-9.34-7.93-12.63-13.18-2.2-3.52-3.64-7.38-3.04-11.52,1.09-7.45,2.07-14.95,4.63-22.04,2.43-6.79-1.68-13.27-8.07-14.43-6.13-1.09-12.22-.8-17.97,1.84-6.66,3.02-9.97,8.32-10.04,15.63-.05,3.07.52,6.04,1.7,8.81,1.75,4.16,3.77,8.2,5.57,12.34,1.84,4.2,4.77,7.43,8.54,9.93,1.16.77,2.39,1.5,3.61,2.18,4.23,2.43,6.59,6.07,7,10.95.09,1.2.3,2.43.25,3.66-.16,6.66.93,13.15,2.95,19.45.95,2.91,2.23,5.84,3.91,8.38,3.02,4.54,8.07,5.68,12.95,3.2,1.57-.8,3.14-1.84,4.27-3.16,1.93-2.27,3.54-4.84,5.23-7.32.57-.84.98-1.79,1.43-2.66h8.04c1.09,1.91,2.07,3.84,3.23,5.66,1.82,2.91,4.02,5.48,7.07,7.18,5.16,2.86,10.54,1.68,13.9-3.18,1-1.45,1.98-3.04,2.48-4.73,1.32-4.5,2.66-9.04,3.43-13.65.73-4.43.75-9,1.14-13.49.32-3.77,2.04-6.82,5.16-9,1.61-1.14,3.25-2.25,4.93-3.29,3.73-2.39,6.68-5.43,8.56-9.5,1.16-2.48,2.54-4.86,3.59-7.36,1.32-3.23,2.66-6.47,3.48-9.81,1.86-7.7-.73-14.79-6.75-18.67Zm-71.72,83.1c-1.54.82-2.84.82-3.68-.68-2.23-3.86-4.18-7.91-6.18-11.9-.25-.48-.16-1.11-.2-1.43.02-3.48,1.57-4.93,4.79-4.45,4.25.59,7.93,2.09,9.66,6.57,1.57,4.11-.48,9.86-4.38,11.9Zm44.19-10.68c-1.27,3-2.95,5.86-4.5,8.77-.2.41-.5.8-.8,1.16-1.23,1.41-2.34,1.59-3.98.66-2.66-1.45-5-5.63-4.95-8.75.14-3.48,3-8.02,6.54-8.68,1.66-.3,3.29-.89,4.95-1,2.05-.11,3.32.89,3.45,2.93.09,1.61-.09,3.43-.73,4.91Z"/><path class="cls-2" d="m259.4,268.83c-.34-3.95-1.54-7.68-2.39-11.5-.82-3.79-.75-7.79-1.07-11.7-.02-.27-.18-.52-.16-.8.05-.77.05-1.57.25-2.32,1.25-5.43.84-10.66-1.93-15.52-.5-.93-.82-1.7-.34-2.73.7-1.48.5-3-.16-4.41-.8-1.77-1.68-3.52-2.61-5.23-.77-1.48-1.64-2.91-2.27-3.98,1.43-4.98.84-9.04-1.36-12.45-.89-1.36-2.02-2.61-3.41-3.77.2-1.59.48-2.73.48-3.86-.02-4.52-2.07-8.09-5.34-10.84-1.93-1.61-3.13-3.52-4.32-5.75-2.41-4.5-5.73-7.91-11.34-7.54-.02-.7-.11-1.41-.09-2.11.16-2.68-1-4.66-2.93-6.22-.02-.02-.05-.05-.07-.05-.77-.66-1.59-1.27-2.45-1.79-5.59-3.41-11.56-5.7-17.95-6.86-.66-.11-1.25-.18-1.86-.18h-.02c-.14,0-.3,0-.43.02,1.79-1.5,2.02-2.82,1.86-6.11-1.23.32-2.34.73-3.45.86-.64.07-1.5.3-1.66-1.52-.07-.61.61-1.59,1.07-2.64-.25-3.02-.93-6.36-.34-8.97,1.5-1.48,2.73-2.43,3.82-3.82.75-.93,1.04-2.57.32-4.52-1.48.45-2.95.93-4.41,1.39-.89-3.95-.89-4.02.39-5.95-.02-.55-.05-1.09-.07-1.64,3.57-.32,6.63-1.7,8.86-4.84,2.07-2.89,4.11-5.82,6.16-8.72.77-1.11,1.02-2.36,1-3.7-.07-1.89-.07-3.77-.11-5.68-.05-2.93.18-5.82,1.41-8.54.16-.34,0-.84-.02-1.25-.45.02-1-.07-1.39.14-1.18.61-1.95,1.64-2.18,2.95-.34,2.2-.59,4.41-.95,6.61-.45,2.77-1.34,5.36-3.39,7.38-.2.23-.48.41-.95.77.11-.55.18-.82.2-1.07,0-.68.09-1.39-.05-2.04-.09-.36-.48-.89-.82-.95-.34-.09-.8.25-1.18.48-.2.11-.27.43-.48.55-.2.14-.57.3-.7.2-1.09-.77-1.91-.07-2.77.45-.3.18-.66.23-1,.3-.59.09-1.18.14-1.77.25-.39.07-.75.25-1.16.3-.66.05-1.36-.09-1.82.64-.07.11-.39.14-.57.14-1.64-.07-3.25-.2-4.86-.18-.79,0-1.59.39-2.16-.48-.07-.09-.3-.09-.43-.11-.79-.2-1.59-.39-2.39-.57-.3-.07-.66-.2-.89-.09-.68.3-1.14.02-1.7-.34-.57-.32-1.41-.7-1.91-.5-.75.3-1.09.25-1.54-.36-.34-.45-.84-1.04-1.45-.64-.41.27-.73.91-.8,1.43-.09.75.05,1.57.09,2.52-.32-.25-.55-.41-.75-.59-2.14-2-2.95-4.61-3.45-7.36-.36-1.98-.48-4-.77-5.98-.25-1.64-.93-3.04-2.5-3.79-.36-.16-.93-.16-1.25.05-.18.11-.16.77-.05,1.14.3,1.14.8,2.23,1.02,3.36.75,3.36.41,6.79.3,10.18-.07,2.07.48,3.79,1.73,5.45,1.7,2.27,3.32,4.61,4.91,7,1.95,2.93,4.57,4.86,8.11,5.29.43.05.89.09,1.32.11-.09,1.07.14,1.91.73,2.39.32.25.61.55.86.8.11,4.09-.02,4.41-1.64,4.04-1.16-.25-2.32-.5-3.73-.8.16,6.18,1.7,7.72,3.16,9.45.55,2.32,1.11,2.66.77,4.84-.45,2.7-.41,2.91.84,4.11.52.48.73.95.48,2.43-1.3-.36-2.57-.68-3.84-1.07-.5-.16-1.02-.86-1.32.59-.27,1.32-.07,2.54.43,3.29.7,1.02,1.43,1.98,2.2,2.66.09.09.18.16.27.25h-.45c-.59,0-1.18.09-1.77.25-3.57.93-7.2,1.7-10.59,3.11-3.32,1.36-6.43,3.29-9.5,5.23-.25.18-.52.36-.77.55-1.75,1.41-2.73,3.43-2.59,5.98.05.75-.16,1.52-.2,2.02-1.59.16-3.11-.11-4.16.5-3.27,1.98-6.36,4.29-7.75,8.25-.52,1.57-1.5,2.68-2.75,3.75-4.61,3.98-7.52,8.77-5.63,15.63-.84.82-1.82,1.59-2.59,2.52-.5.55-.91,1.09-1.23,1.68-1.93,3.02-2.36,6.5-1.54,10.09.36,1.52.2,2.45-.45,3.61-1.25,2.16-2.48,4.32-3.59,6.52-.89,1.79-1.27,3.66-.48,5.68.2.61,0,1.59-.34,2.2-2.84,5.07-3.27,10.41-1.84,16.02.16.66.14,1.39.09,2.07-.23,3.39-.48,6.77-.75,10.16-.04.7.02,1.48-.23,2.09-1.45,3.39-2,7-2.57,10.63-.43,2.91-.36,5.79.61,8.47,1.2,3.25,1.39,6.59,1.66,9.97.2,3.04.61,6.11,2.11,8.77.86,1.54,1.2,3.11,1.39,4.82.41,3.59,1.36,7.02,3.16,10.13,2.39,4.04,6.09,5.34,10.13,3.18,2.18-1.16,4.16-2.82,5.88-4.63,2.11-2.2,3.82-4.82,5.7-7.25.86-1.09,1.75-2.18,2.66-3.25,1-1.18,2.27-2.2,3.04-3.52,5.32-9.2,9.97-18.74,14.06-28.63,1.2-2.93,2.64-5.82,4.38-8.43,1.68-2.48,3.61-4.77,5.54-7.09.16-.2.32-.39.48-.57.23,2.04-.11,3.93-.61,5.86-.41,1.54-.18,2.77.91,3.36.43.25.84.57,1.23.82.16,4.25-.05,4.57-2.36,4.2-1.64-.27-3.29-.52-5.32-.82.23,6.38,2.43,7.97,4.5,9.77.8,2.41,1.61,2.75,1.11,5-.64,2.79-.57,3,1.23,4.25.73.52,1.02,1,.66,2.52-1.84-.36-3.68-.68-5.5-1.09-.7-.16-1.45-.89-1.89.61-.39,1.36-.07,2.61.64,3.39,1,1.07,2.04,2.04,3.16,2.75,1.75,1.14,2.16,1.89,1.93,4.73-.09,1.25-.39,2.48-.68,3.66-.41,1.66-.07,2.73.93,3.34.54.34,1.39.23,1.16,1.95-2.32,1.45-4.66-.98-7.22-.23.16,6.57,3.75,6,6.38,8-.16,1.61-.25,3.36-.55,5.02-.57,3.16-.61,3.11,1.23,4.59.34.25.55.89,1.2,2-3.07-.55-5.59-1-7.95-1.41-.66,2.14-.27,3.52.59,4.45.86.95,1.77,2.11,2.75,2.32,2.04.45,2.43,2.75,2.57,5.16.11,1.7-.23,3.52-.52,5.23-.52,2.86-.57,3.16,1.23,4.29,1.3.84,1.3,1.93.86,3.52-3.36-.64-6.61-1.25-9.88-1.86-.8-.16-1.7-.61-2.11.98-.41,1.68.39,2.79,1.16,3.34,1.61,1.14,3.29,1.95,4.98,2.82.64.34,1.32.48,2.07.73-.7,4.66-1,8.88.07,13.18,1.07,4.38,3.5,6.7,5.73,9.18-1.2.98-2.5,1.39-3.07,2.66-.77,1.68-1.43,3.54-2,5.45-.61-.5-1.25-1.02-1.89-1.59-.64-.55-1.14-1.25-1.75-1.84-1.36-1.29-2.66-2.68-4.11-3.84-.93-.77-2.05-1.36-3.18-1.79-1.48-.55-2.57-.07-3.29,1.34-.36.73-.73,1.59-.75,2.39-.05,3.39-.27,6.79.11,10.13.39,3.43,1.7,6.57,5.04,8.36,1.2.64,1.59,1.82,1.68,3.09.09,1.32.02,2.66.3,3.93.3,1.34.75,2.7,1.43,3.91,1.2,2.11,2.54,4.16,3.98,6.13.68.93,1.61,1.84,2.64,2.32,1.34.61,2.16,1.52,2.59,2.82,1.02,3.09,2,6.2,2.95,9.34.5,1.59,2.77,3.68,4.23,3.73,1.61.07,4.32-1.89,4.79-3.41.93-3.04,1.82-6.09,2.93-9.06.39-1.07,1.16-2.43,2.09-2.77,1.98-.75,2.98-2.18,3.95-3.82.95-1.61,1.98-3.18,3.07-4.73,1.04-1.5,1.66-3.14,1.66-5,0-.84.05-1.68.09-2.54.07-1.79.66-3.25,2.41-4.13,1.66-.86,2.77-2.36,3.27-4.09.68-2.32,1.25-4.73,1.45-7.13.23-2.52,0-5.07-.02-7.61-.16-.39-.3-.77-.43-1.16-2.07-2.32-3.2-2.52-5.77-.89-1.04.66-2,1.43-2.89,2.25-1.23,1.16-2.34,2.45-3.54,3.66l-.39.39c-.18-.57-.32-1.14-.48-1.73-.66-2.52-1.84-3.79-3.52-4-.34-.05-.68-.25-1.57-.57,6.27-5.16,7.93-12.81,6.16-22.7.82-.27,1.45-.36,2.04-.68,1.45-.77,2.91-1.54,4.27-2.57.8-.57,1.61-1.59,1.32-3.25-.32-1.91-1.36-1.36-2.23-1.18-.89.18-1.75.36-2.64.5-2.23.39-4.45.73-6.59,1.09-1.18-2.91.82-3.04,1.34-4.43-.68-4.27-1.25-8.52-.05-12.65,4.54-2.36,5.45-3.82,4.68-7.59-2.29-.23-4.59,1.61-7.36.55.82-1,1.34-1.61,1.82-2.2q-.7-6.29-.27-8.52c1.89-1.32,3.61-2.32,5.2-3.73,1.07-.93,1.5-2.57.66-4.63-2.48-.02-4.88,1.84-7.72.25.75-1.07,1.27-1.82,1.68-2.41-.18-3.04-.36-5.93-.52-8.72,6.34-2.77,7.02-3.59,6.72-8.27-1.75.34-3.34.75-4.93.89-.91.07-2.14.3-2.39-1.57-.09-.66.89-1.66,1.52-2.73-.36-3.14-1.3-6.59-.45-9.29,2.14-1.52,3.86-2.52,5.45-3.95,1.09-.98,1.48-2.64.45-4.68-2.11.48-4.25.98-6.32,1.43-1.27-4.07-1.25-4.16.54-6.16-.14-3-.45-5.91-.34-8.79v-.39h.02c.14.14.25.27.39.43l.07.07.05.05c4.2,5.04,8.11,10.25,10.54,16.61,3.61,9.47,8.27,18.45,13.22,27.24.73,1.32,1.59,2.54,2.54,3.68,1.2,1.48,2.66,2.75,3.84,4.25,1.84,2.23,3.41,4.75,5.36,6.82,1.82,1.86,3.86,3.61,6.09,4.82,4.04,2.2,7.88.95,10.09-3.18,1.27-2.39,2.2-5.07,2.77-7.72.68-3.04,1.39-5.98,2.45-8.91,1.07-2.95,1.14-6.29,1.68-9.45.36-2.09.61-4.2,1.18-6.25.8-2.86,1.23-5.72.95-8.72Zm-8.06-39.12c3.04,4.25,2.91,6.95-.61,10.16-5.27,4.79-11.11,8.68-17.68,11.11-5.34,1.95-10.7,1.41-15.47-1.91-5.25-3.64-10.34-7.59-15.47-11.45-.79-.61-1.54-1.43-2.02-2.34-.61-1.23.11-2.23,1.43-1.86.95.27,1.84.89,2.73,1.39,2.86,1.61,5.61,3.43,8.56,4.82,5.84,2.79,11.86,3.27,17.83.41,6.04-2.89,12.06-5.91,18.06-8.86.84-.43,1.66-.93,2.64-1.45Zm-4.39-13.61c.34.52.64,1.07.86,1.64.95,2.34.68,3.57-1.3,5.13-3.77,2.98-7.86,5.38-12.29,7.13-4.27,1.68-8.7,2.61-13.84,2.75-5.2-.61-10.91-1.64-16.36-3.91-1.79-.75-3.25-1.95-4.34-3.66-1.59-2.5-.61-4.88,2.29-5.18,1.66-.16,3.39.09,5.07.32,2.39.32,4.7.91,7.09,1.2.07,0,.11.02.18.02.48.05,1,.09,1.48.14.68.05,1.34.09,2.02.09h.52c3.68.05,7.34-.5,10.9-1.93,1.2-.48,2.41-.95,3.61-1.41,3.45-1.29,6.95-2.5,10.41-3.75,2.29-.84,2.41-.77,3.68,1.41Zm-115.86,1.75c.09-.25.23-.5.34-.73,1.57-3.27,1.73-3.34,5.09-2.11,2.91,1.07,5.82,2.09,8.72,3.16h.02c2.16.77,4.34,1.57,6.5,2.36,2.91,1.09,5.84,1.34,8.79,1.25.64,0,1.3-.05,1.95-.09.5-.02,1-.07,1.52-.14.55-.05,1.09-.09,1.66-.16,2.23-.25,4.39-.89,6.57-1.18,1.61-.2,3.25-.39,4.84-.18,2.75.34,3.79,2.73,2.16,5.04-1,1.36-2.34,2.75-3.82,3.43-5.66,2.7-11.72,3.66-17.06,4.27-10.27-.45-18.58-4.13-26.06-10.02-1.84-1.45-2.09-2.66-1.23-4.91Zm-3.63,12c5.77,2.91,11.34,5.84,16.99,8.54,2.64,1.25,5.38,2.2,8.18,3.04,3.66,1.11,7.27.41,10.81-.73,3.93-1.29,7.5-3.41,10.97-5.7,1-.66,2.07-1.25,3.2-1.59,1.07-.32,1.68.45,1.32,1.57-.23.7-.68,1.48-1.27,1.91-5.82,4.38-11.45,9.04-17.58,12.93-4.45,2.84-9.66,2.91-14.61,1-6.29-2.43-11.9-6.18-17.02-10.72-3.7-3.32-3.91-5.91-1-10.25Zm9.95,78.81c-3.43.52-6.18-1.54-8.2-6.54,1.16.48,1.93.8,2.7,1.09,2.61.98,5.27,1.36,8.02.57,1.2-.36,2.48-.43,3.82-.64-.32,2.57-3.36,5.09-6.34,5.52Zm2.86-10.27c-7.63-.07-12.7-3.98-13.86-11.06,8.02,8.43,16.7,8.86,25.97,3.23-.84,4.63-5.91,7.91-12.11,7.84Zm25.72-30.42c-1.36,2.04-2.82,4.04-4.2,6.09-2.79,4.13-5.91,7.86-10.09,10.52-4,2.52-8.29,3.59-12.79,2.14-8.18-2.64-13.09-8.72-15.58-17.11-.61-2.09-.2-4.2.11-6.29.18-.05.36-.09.55-.16,1.27,1.57,2.48,3.18,3.79,4.68,1.73,1.98,3.48,3.93,5.34,5.77,3.57,3.52,7.88,4.59,12.59,3.61,5.47-1.11,10.25-3.73,14.47-7.61,2.02-1.86,4.36-3.39,6.79-5.25.3,1.64-.32,2.66-.98,3.61Zm14.79-24.35c-.09.11-.18.2-.3.32-.07.09-.16.16-.27.25-2.11,2.11-4.29,4.23-6.43,6.34-2.04,2.04-4.09,4.04-6.02,6.2-4.48,5.07-9.75,8.88-16.04,11.11-1.04.39-2.14.64-3.13,1.14-3.29,1.75-6.41,1.14-9.56-.48-6.2-3.14-10.97-7.54-12.4-14.97-.27-1.52-.27-3.11-.43-4.68.23-.07.43-.16.66-.23,3.61,3.63,7.84,6.29,12.22,8.68,2.18,1.18,4.5,2.16,6.82,3,3.2,1.14,6.45.66,9.52-.68,5.07-2.25,9.56-5.38,13.38-9.66,2.43-2.73,5.18-5.13,7.84-7.66.55-.55,1.25-.95,1.91-1.29.82-.43,1.54-.2,2.09.36.14.14.25.3.36.45.02.02.02.05.02.07-.11.59-.18,1.16-.23,1.73Zm-.36-36.42c-.32.5-.66.95-1.07,1.36-.07.09-.14.16-.23.25-.95.95-2.07,1.64-3.34,2.02-3.27,1-6.57,1.89-9.88,2.68-.52.11-1.07.23-1.57.3-1.11.18-2.2.3-3.32.32-4.52.14-8.91-1.05-13.11-2.98-2.84-1.27-5.54-2.95-8.18-4.68-.55-.36-1.07-.7-1.61-1.07-1.86-1.2-2.41-2.43-1.91-4.16.11-.48.32-.98.61-1.54.48-.91,1.14-1.75,1.75-2.73.84.3,1.59.52,2.29.75.09.05.16.07.25.09,4.18,1.52,8.45,2.91,12.56,4.59,3.34,1.39,6.75,1.82,10.13,1.7.23.02.43,0,.66,0,.48-.02.93-.07,1.39-.11,1-.07,1.98-.18,2.95-.34,1.93-.27,3.84-.8,5.79-1.07.09-.02.16-.02.25-.05.18-.02.39-.05.59-.07,1.07-.11,2.18-.16,3.23.05,2.36.52,3.07,2.52,1.75,4.68Zm-4.57-10.41c-3.45-.18-6.86-.16-10.29-.34v-.07c-4.52-.25-8.97-.91-13.31-2.79-2.61-1.16-5.18-2.45-7.63-3.98-2.27-1.45-2.79-3.45-1.91-5.63.52-1.27,1.41-2.18,2.54-2.54h.07c3.84.93,7.59,2.11,11.4,3.02,2.27.55,4.57,1,6.84,1.39,5.29.89,10.61,1.34,15.99,1.36.5.02,1,.07,1.75.11.14,1.02.34,1.82.34,2.61.09,4.29-1.86,7.07-5.79,6.86Zm5.82-16.38c-.02.25-.07.55-.18.84-1.07-.07-2.11-.14-3.18-.18-.2-.02-.43-.05-.64-.05-1.7-.11-3.39-.23-5.07-.48-2.68-.39-5.36-1.07-8.04-1.52,0-.09,0,.09,0,0-2.57-.48-5.16-.95-7.72-1.41-1.43-.25-2.68-.89-3.07-2.61-.39-1.73.25-3.18,1.25-4.43.23-.3.48-.52.75-.68h.02c2.2,1.09,4.45,1.91,6.77,2.57,3.77,1.07,7.61,1.7,11.47,2.41,1.98.34,3.93,1.25,5.72,2.2,1.16.61,2.07,1.61,1.91,3.25v.09Zm-3.36-18.45c.07,4.13,1.16,5.34,2.43,6.2-.05.09-.07.16-.11.25-.16.39-.36.77-.55,1.14-1.09,1.95-2.91,3.18-5.11,2.86-3.11-.43-6.18-1.11-9.27-1.86-.57-.16-1.18-1-1.41-1.66-1.32-4.07-.43-7.77,2.18-10.97,1.39-1.68,3.36-1.98,5.38-1.89,2.68.18,5.25.73,7.5,2.34,1.52,1.09,2.5,2.5,2.68,4.23-1.2-.07-2.43-1.16-3.73-.64Zm23.04-4.61c2.32-1.02,4.77-1.5,7.27-1.27,2.09.18,3.73,1.16,4.82,3.09,1.23,2.14,1.89,4.38,1.73,6.72,0,.02-.02.05,0,.07-.05.7-.14,1.41-.34,2.11-.02.02-.02.05-.02.07-.05.18-.09.34-.16.52-.2.68-.75,1.57-1.32,1.75-2.84.89-5.75,1.57-8.63,2.32-3.2-.05-5.27-1.57-6.52-4.5-.09-.18-.16-.36-.23-.55-.04-.11-.09-.2-.11-.32.39-.39.75-.77,1.11-1.2.73-.91,1.04-2.5.45-4.48-.77-.02-1.52.32-2.29.57.39-2.16,1.79-3.82,4.25-4.91Zm-4.07,22.7c-.09-1.45.73-2.45,1.91-3.07,1.73-.91,3.61-1.64,5.48-2.09,2.32-.59,4.77-.61,7.07-1.25,1.39-.39,2.73-.8,4.07-1.25,2.23-.73,4.43-1.5,6.63-2.29.25-.09.48-.18.7-.23h.02c.84.34,1.48,1.18,1.95,2.66.77,2.27.02,4.13-2.02,4.93-.45.18-.93.27-1.41.36-2.61.45-5.25.91-7.86,1.36,0,.07.02-.07,0,0-2.5.39-5,1-7.47,1.39-2.09.3-4.18.43-6.27.55-.18.02-.39.02-.57.05-.11,0-.2.02-.32.02-.57.05-1.16-.07-1.73-.09-.09-.32-.14-.61-.18-.91v-.14Zm.18,7.47c5.04-.41,9.56-.7,14.06-1.16,1.07-.11,2.16-.25,3.25-.43,5.41-.8,10.72-2.2,15.99-3.73.93-.27,1.86-.57,2.79-.75h.02c1.32.36,2.36,1.41,2.84,2.86.59,1.89.14,3.54-1.52,4.91-.98.8-2.02,1.5-3.11,2.07-6,3.14-12.29,4.95-18.95,5.09v.05c-2.16.05-4.32.25-6.5.36-1.27.05-2.57.18-3.82,0-3.11-.41-4.57-1.86-5.04-5.11-.2-1.36-.02-2.79-.02-4.16Zm3.02,14.97c.84-.14,1.73-.11,2.59-.02.27.02.54.05.82.09.23.02.43.05.64.07,2.68.34,5.34.8,8.02,1.14.43.05.89.11,1.32.16.43.07.91.11,1.34.16.32.02.59.07.91.09h.2c2.34.09,4.68-.27,6.95-1.09,4.73-1.73,9.52-3.45,14.27-5.16.2-.07.39-.14.59-.2.68-.25,1.41-.45,2.18-.73.43.52.68.77.86,1.04.66,1,1.14,1.84,1.41,2.59v.02c.89,2.23.02,3.59-2.89,5.68-.57.41-1.16.8-1.73,1.18-4.88,3.23-10.13,5.54-15.93,6.23-1.45.16-2.95.25-4.45.2h-.09c-1.14-.02-2.25-.14-3.34-.32-.05,0-.11-.02-.16-.05-3.63-.61-7.2-1.7-10.75-2.7-1.34-.39-2.52-1.14-3.48-2.16-.09-.09-.16-.16-.23-.25-.36-.39-.66-.77-.93-1.23-1.43-2.23-.68-4.29,1.86-4.75Zm.34,43.78c-.57-.57-1.16-1.14-1.7-1.73-.2-.18-.41-.39-.59-.57,0-.61-.07-1.23-.18-1.86-.02-.2-.07-.43-.11-.64.14-.16.3-.3.45-.39.5-.39,1.14-.45,1.79-.07.89.52,1.77,1.09,2.52,1.82,2.82,2.7,5.59,5.5,8.36,8.27,4.52,4.5,9.52,8.13,15.77,9.43,2.41.5,4.73.34,7.02-.57,5.68-2.18,10.77-5.34,15.52-9.22.86-.73,1.73-1.41,3.09-2.52-.05,7.25-2.23,12.84-7.41,16.81-2.07,1.59-4.36,2.77-6.66,4-2.41,1.27-4.88,1.39-7.43.3-1.95-.84-4.02-1.39-6.02-2.23-5.07-2.11-9.31-5.54-13.2-9.47-3.77-3.77-7.47-7.57-11.22-11.36Zm41.64,62.45c-3.09-.05-6.57-2.5-7.32-5.41,1.04.07,2.09-.11,2.95.2,3.61,1.25,7.04.66,10.41-.91.27-.14.57-.2,1-.34-1.18,4.02-3.98,6.52-7.04,6.45Zm9.7-19.22c-.55,1.11-1.11,2.2-1.75,3.27-1.7,2.93-4.23,4.54-7.45,5.13-2.89.55-5.73.68-8.61,0-3.59-.84-6.45-3.41-8.11-7.57,9.5,5.79,18.13,5.43,26.26-2.39-.11.52-.14,1.07-.34,1.54Zm3.18-18.9c-2.2,6.57-6.02,11.72-12.15,14.88-4.91,2.52-9.72,2.34-14.54-.11-3.5-1.82-6.38-4.5-8.79-7.68-2.52-3.36-4.93-6.86-7.29-10.36-.5-.73-.68-1.7-1.02-2.59.16-.11.34-.23.48-.36,2.5,1.95,5.04,3.86,7.47,5.88,4.93,4.07,10.29,7.02,16.72,7.22,3.59.14,6.82-1.05,9.36-3.66,2.68-2.75,5.16-5.7,7.7-8.59.61-.7,1.18-1.43,2.07-2.52.61,3.02.82,5.5,0,7.88Z"/><path class="cls-2" d="m123.08,824.42c-.26,1-.61,2.06-.8,3.15-.36,2.12-.8,4.25-.87,6.39-.05,1.47.02,2.82-.94,3.37.19,1.16.69,2.14.38,2.7-.7,1.3-.49,2.5-.33,3.82.1.84-.11,1.73-.19,2.7-1.42-.18-2.46-.32-3.99-.52,1.09.9,1.9,1.32,2.31,1.99.54.88-.58,1.42-.79,2.08-.93,2.92-1.55,5.94-2.24,8.94-.35,1.49-1.1,2.33-2.93,2.05.16-2.01-.31-3.92.5-5.99.67-1.71.39-3.79.51-5.71.02-.36-.18-.97-.05-1.05,1.98-1.08,1.11-3.51,2.41-4.97.6-.67.57-1.89.81-2.87.28-1.16,1.12-2.66.68-3.43-.79-1.38-.13-2.3.12-3.44.55-2.57,1.15-5.13,1.5-7.72.39-2.88,1.2-3.31,3.9-1.51Z"/><path class="cls-2" d="m105.43,846.15c1.33,1.04,2.97.8,4.47,1.13.67.15,1.58.41,1.85.91.46.83-.57,1.11-1.03,1.65-.88,1.02-1.53,2.26-2.14,3.49-.63,1.27-1.1,2.63-1.9,3.87-.86-1.5-1.04-2.83-.06-4.3.81-1.21,1.65-2.53,1.16-4.33-1.38,0-2.25.56-2.73,1.83-.56,1.47-1.15,2.93-1.77,4.38-.13.31-.43.54-.85,1.04-.6-1.49-.73-2.7.02-3.84,1.06-1.62,1.7-3.31,1.13-5.37.76-.16,1.36-.29,1.96-.41,0,0-.12-.05-.12-.05Z"/><path class="cls-2" d="m101.62,845.61c.21-.6.31-1.27.64-1.79,1.36-2.11,2.78-4.19,4.23-6.23.29-.41.85-.64,1.4-1.03.38.51.68.92,1.04,1.41.43-.38.83-.73,1.24-1.08,0,0-.07-.04-.07-.04,1.42.92,1.09,1.97.19,3.01-1.28,1.48-2.44,2.99-2.71,5.05-.15,1.19-1.2,1.24-2.16,1.25,0,0,.12.05.11.05-.26-.56-.52-1.12-.65-1.4-1.21.28-2.3.52-3.38.77,0,0,.1.03.1.03Z"/><path class="cls-2" d="m112.67,834.34c.43-1.08,1.02-2.14,1.24-3.26.38-1.93.52-3.9.78-6,.97-.31,1.92-.61,3.26-1.03-.25,1.05-.47,1.8-.6,2.57-.45,2.5-.86,5-1.29,7.5-.13.74-.14,1.53-.43,2.2-.19.43-.78.92-1.2.94-.43.02-1.08-.42-1.27-.83-.31-.66-.31-1.45-.44-2.19,0,0-.04.1-.04.1Z"/><path class="cls-2" d="m112.71,834.24c-.17.51-.37,1.01-.52,1.53-.31,1.1-1.01,1.43-2.07,1.08,0,0,.08.04.07.04.14-1.62.29-3.24.45-4.86-.1-.02-.2-.03-.29-.05-.47,1.04-.94,2.09-1.41,3.13-.75-2.21.4-3.97.81-6.07,1.16-.21,2.31-.42,3.48-.63-.2,2.15-.38,4.05-.56,5.94,0,0,.05-.11.05-.11Z"/><path class="cls-2" d="m111.28,846.53c-1.36-.17-1.93-.76-1.53-1.75.81-1.97,1.69-3.92,2.72-5.78.23-.42,1.2-.43,2.17-.74-.49,3.31-1.99,5.72-3.36,8.27Z"/><path class="cls-2" d="m113.11,822.85c.67.19,1.35.38,2.06.57-.93,1.44-1.81,2.8-2.75,4.27-1.28.18-1.62-.77-1.84-1.81-.2-.98.34-1.57,1.12-2.03.51-.31,1-.67,1.48-1.01-.01,0-.07,0-.07,0Z"/><path class="cls-2" d="m101.52,845.57c.44.29.88.59,1.25.83-1.08,1.94-2.06,3.7-3.04,5.47-.14-.04-.29-.07-.43-.11,0-.51-.11-1.05.02-1.53.34-1.33.73-2.65,1.22-3.92.13-.33.73-.47,1.1-.7,0,0-.11-.04-.11-.04Z"/><path class="cls-2" d="m172.95,147.42c-1.52,1-3.36,1.79-5.16,2.09-3.32.55-6.72.95-10.09.91-7.02-.09-13.84,1.27-20.65,2.66-2.77.57-5.52,1.18-8.29,1.68-3.75.68-7.22,2.02-10.45,4.13-.45-.59-.77-1-1.27-1.64-.34,1.2-.61,2.25-.93,3.45,2.43,1.25,5,1.14,7.47,1.34,0,0-.23,2.36-1.84,2.86-.16.05-.34.07-.5.09-.61.11-1.23.2-1.84.16-1.2-.09-2.39-.5-3.54-.86-3.04-.93-5.93-.7-8.72.86-.82.45-1.73.89-2.61.95-.73.05-1.82-.27-2.16-.8-.34-.55-.16-1.68.2-2.32.5-.86,1.32-1.59,2.14-2.2,2.09-1.61,4.25-3.09,6.36-4.66,1.32-.98,2.77-1.09,4.57-.66-.16-.55-.25-.93-.39-1.36.18-.16.36-.39.61-.48,9.54-3.61,19.24-6.41,29.56-6.77,4.61-.16,9.18-.75,13.79-.98,4.66-.23,8.5-2.09,11.79-5.29,1.11-1.07,2.34-2.02,3.57-3.04,1.95,3.29,1.18,8.04-1.61,9.86Z"/><path class="cls-2" d="m97.81,314.07c-2.37-.13-3.87-1.73-5.45-3.21-1.07-1-2.18-1.95-3.32-2.97-.78.68-1.27,1.11-1.76,1.54-2.46,2.14-5.06,2.31-7.73.45-2.16-1.51-3.55-3.62-4.41-6.07-.62-1.77-.17-3.38,1.19-4.64,1.31-1.21,2.66-2.4,4.09-3.46,3.63-2.68,6.07-6.18,7.07-10.56,1.38-6.04,2.62-12.12,3.86-18.2,2.17-10.62,3.08-21.41,4-32.18.96-11.25,1.83-22.51,2.51-33.77.3-4.96-.12-9.97.05-14.94.17-4.88.57-9.75,1.1-14.6.24-2.23,1.54-3.12,3.97-3.17,1.3-.02,2.2-.35,3.18-1.3,2.36-2.29,5.29-2.72,8.38-1.72,6.74,2.18,9.94,8.04,8.1,14.91-.9,3.38-2.56,6.15-5.92,7.81-2.99,1.48-4.99,3.98-5.55,7.4-1.35,8.35-2.88,16.68-3.94,25.07-1.64,13.06-3.05,26.16-4.37,39.26-.94,9.27-1.53,18.57-2.38,27.84-.4,4.32.61,8.18,2.9,11.81,1,1.58,1.88,3.26,2.67,4.96.79,1.71.75,3.45-.36,5.19-.39-.06-.76-.06-1.09-.17-2.06-.67-2.22-.59-3.55,1.04-1.06,1.29-2.23,2.49-3.35,3.74l.09-.06Z"/><g class="cls-5"><path class="cls-1" d="m46.55,408.55c-.11.25-.23.48-.32.73.02-.11.04-.23.04-.36,0-.11.11-.25.27-.36Z"/><path class="cls-1" d="m45.68,422.86s-.05.01-.06,0h0s.03.01.03.02c.02,0,.02-.02.03-.03Z"/><path class="cls-1" d="m45.66,422.89s.03,0,.04.01l.04-.06s-.03,0-.05.03c-.02,0-.05.01-.06,0h0s.03.01.03.02Z"/><path class="cls-1" d="m32.59,443.53c-.65,3.22-2.51,5.82-4.45,8.36-.71.93-1.35,1.83-1.02,3.17-.3.08-.6.17-.89.24-.32.06-.65.11-1.1.18-.28,1.68-.25,3.37-.88,4.82-.59,1.38-1.86,2.49-3.09,4.03.8.53,1.47,1.06,2.21,1.43.81.4,1.48.03,1.87-.93.35-.88.54-1.81.99-2.63.66-1.2,1.33-2.53,2.29-3.42s.65-2.24,1.33-2.79c.85-.68,1.53-1.23,1.75-2.34.54-2.64,1.96-4.78,3.8-6.75,1.05-1.12,2.4-2.21,1.94-4.19,2.08-.36,2.82-1.94,3.38-3.87,1.65-5.66,3.9-8.91,8.73-12.72-.13.84-.12,1.49-.34,2.1-1.12,3.29-2.65,6.39-4.89,9.15-.68.84-1.26,1.86-1.67,2.88-.53,1.37-.06,2.48.93,3.25,1.39,1.09,3.01.47,3.18-1.48.27-3.08,1.83-5.64,3.15-8.29.87-1.75,2.08-3.35,3.16-4.99.62-.94,1.45-1.89.88-2.99-.57-1.1-1.58-1.84-2.86-1.44-1.01.32-1.43-.15-2.13-.51-.96-.51-2.11-.64-3.18-.92-.67.96-1.65,1.88-1.91,2.9-1.11,4.27-3.83,7.49-6.57,10.69-1.87,2.17-2.06,2.4-2.03,5.02-1.5-.35-2.3.54-2.59,2.03Z"/><path class="cls-1" d="m99.73,317.58c-.93-.05-1.86-.05-2.79-.05-1.68.57-2.84-.18-3.75-1.54-.84-1.29-2-1.64-3.43-1.34-.7.16-1.39.34-2.09.5-.5-1.09-.23-2.98-2-2.57-2.16.5-4-.16-6-.73-1.86-.52-2.61.27-2.32,2.23.07.48.18.93.39,1.36.8,1.91.89,3.91.25,5.82-1.25,3.84-2.32,7.77-4.13,11.36-7.11,13.99-12.2,28.69-16.13,43.85-1.68,6.45-3.75,12.81-5.93,19.11-1.57,4.41-3.5,8.66-5.25,12.97-.11.25-.23.48-.32.73-.05.43-.2.82-.43,1.18,0,0,0,.02-.02.05-.48.82-1.23,1.5-1.64,2.39-.61,1.32-1.29,2.52-.34,4.27-.84-.25-1.23-.43-1.64-.5-1.36-.23-2.18.09-2.59,1.61-.86,3.18-2.82,5.73-4.25,8.56-1.34,2.7-3.11,4.86-5.38,6.68-2.09,1.68-2.09,1.86-1.32,4.59-.68-.2-1.25-.36-2.16-.64-.45,1.07-1.11,2.09-1.32,3.18-.61,3-1.59,5.75-3.79,8-.39.41-.45,1.18-.61,1.77-.09.23,0,.7-.07.73-2.14.75-1.64,2.61-1.95,4.16-.16.7-.48,1.43-.89,2.04-1.64,2.52-2.59,5.27-3.25,8.13-.2.89-.27,1.75.77,1.82.86.05,1.57-.52,1.57-1.5-.02-1.25.7-1.93,1.32-2.89.77-1.23,1.79-2.52,1.79-4.25,0-.73.57-1.57,1-2.27.82-1.29,2.36-2.18,2.23-4.04,2.48-1.36,2.04-4.16,3.09-6.2.66-1.29,1.68-2.45,2.68-3.5,1.02-1.02,2.07-1.91,1.79-3.61,2.2-.07,3.07-1.68,3.59-3.61,1.25-4.57,3.48-8.5,7.04-11.59.8-.68,1.66-1.25,2.5-1.89.7-.89,1.32-1.77,1.32-2.66,0-.43-.14-.84-.5-1.27,1.04-.89,2.29-1.5,2.79-2.52.18-.34.2-.77.18-1.23l.11-.02h.02s.11-.02.18-.02l.64-.09.7-.09c.09,0,.16-.02.25-.05l.52-.07,1.86-.25.66-.09h.09c-.41.34-.8.91-1.27,1.75-.59,1.07-1.25,2.09-1.93,3.11-1.34,1.98-1.2,3.29.48,4.18,1.57.82,3.2.14,4.09-1.75.48-.98.86-2,1.29-3,.18.07.34.14.5.2-.64,1.48-1.3,2.95-2,4.54,1.7.07,1.45,2.23,2.79,2.66l-.11.02c2.89.27,3.02.16,3.93-3.29,2.29-.66,3.29-1.79,3.84-4.36.02-.18.07-.34.09-.5,1.43.64,1.86.32,2.7-1.52.5-1.09.75-2.32,1.14-3.45.91-2.57,1.73-5.16,2.73-7.68,3.39-8.77,7.16-17.4,10.2-26.26,2.48-7.2,4.04-14.7,6.18-21.99,2.27-7.77,4.73-15.49,7.18-23.2,1.29-4.04,2.79-8,5.61-11.29.48-.55.82-1.29,1.05-1.98.45-1.5,0-2.14-1.54-2.2Zm-40.3,100.92c-.11-1.66.75-2.32,1.3-3.07.34-.45.57-.91.66-1.34.27.45.55.86.79,1.29-.82.95-1.7,1.91-2.75,3.11Zm27.4-100.85c-1.79,1.7-2,3.84-2.02,6.16-.07,3.52-.68,6.84-2.68,9.95-1.11,1.73-1.41,4.07-1.77,6.18-.77,4.63-1.25,9.34-2.07,13.95-1.57,8.7-2.89,17.49-5.07,26.04-2.36,9.29-5.88,18.24-10.22,26.83-.73,1.43-1.41,2.86-2.14,4.27-.14-.02-.27-.05-.39-.09.57-4.66.98-9.34,1.73-13.95,1.41-8.66,3.02-17.24,4.54-25.88,1.54-8.7,4.88-16.74,8.68-24.67,2.29-4.84,4.36-9.77,6.59-14.65,1.16-2.52,1.73-5.13,1.95-7.88.2-2.52.41-5.11,2.79-6.77.05.16.14.45.07.52Z"/><path class="cls-1" d="m14.61,425.21c2.04-1.5,3.7-2.82,5.45-3.94.73-.47,1.67-.65,2.51-.77,1.27-.17,2.65.15,3.21-1.75.03-.09.09-.25.11-.25,2.37.26,3.36-2.3,5.15-3.26,2.04-1.1,4.02-2.17,6.23-1.58.36.1.82-.08,1.33-.14.72-1.59.55-3.09.45-4.54-.09-1.28-.75-1.6-1.95-1.1-.66.27-1.28.7-1.89,1.11-2.5,1.67-5.08,2.91-7.94,2.96-1.17.02-2.05.62-3.01,1.56-2.24,2.2-4.64,4.22-7.03,6.23-.54.45-1.28.64-1.95.89-1.98.74-2.45,1.68-1.61,3.41.24.5.69.86.94,1.16Z"/><path class="cls-1" d="m58.74,426.21c-1.39.1-2.21.67-2.46,2.31-.64,4.12-2.29,7.89-5.3,11.12-1.29,1.38-1.4,2.11-1.18,4.4-1.07-.12-1.84.27-2.02,1.53-.12.8-.13,1.66-.47,2.39-.52,1.14-1.12,2.35-1.97,3.25-1.49,1.57-1.58,1.48-.51,3.11-.59-.17-1.17-.35-1.84-.54-.34,1.02-.56,1.9-.94,2.72-.38.84-.93,1.61-1.49,2.57.74.58,1.44,1.12,2.17,1.69.97-1.71,1.85-3.16,2.62-4.66.39-.76.68-1.35,1.59-1.68.48-.17.88-1.12,1.15-1.77.82-1.98,1.88-3.76,3.18-5.54,1.6-2.2,3.42-4.29,3.75-7.33.34-3.12,2.21-6.04,4.24-8.67,2.28-2.96,2.26-3.28-.62-4.89,0,0,.11,0,.11,0Z"/><path class="cls-1" d="m35.53,457.14c1.53,1.08,3.15.89,3.66-1.84.53-2.87,1.89-5.35,4.14-7.42,1.86-1.71,1.71-2.46-.35-3.38-2.99-1.33-3.56-1.03-4.01,2.52-.31,2.5-1.2,4.51-3.15,6.27-1.9,1.71-1.86,2.79-.28,3.84Z"/><path class="cls-1" d="m28.65,466.81c-.39.37-.98.71-1.16,1.17-.45,1.19-.69,2.44-1.07,3.65-.27.86-.45,1.76.41,2.06,1.03.37,1.68-.48,1.83-1.47.23-1.52,1.09-2.46,2.19-3.4.59-.5,1.2-1.26,1.42-1.99.74-2.43,1.5-4.77,3.6-6.48.3-.24.38-.81.61-1.35-1.11-.97-2.03-2.14-4.11-1.57.08,2.79-1.19,5.07-3.12,7.14-.43.46-.4,1.42-.61,2.23Z"/><path class="cls-1" d="m24.2,467.69c-.94-1.62-2.26-1.55-3.46-1.74-.61,1.84-1.18,3.53-1.74,5.23-.28.85-.36,1.71.51,1.99.97.31,1.7-.37,1.9-1.38.33-1.69.89-3.16,2.78-4.09Z"/><path class="cls-1" d="m42.29,413.99c1.51-1.4,1.32-3.28,1.92-5.1-1.35-.3-2.48-.34-3.32.98-.62.97.03,2.78,1.4,4.12Z"/><path class="cls-1" d="m39.99,459.86c-.78,1.59-1.25,2.68-1.84,3.7-.48.83-.73,1.59.1,2.03.74.39,1.22-.27,1.69-.92.73-1.01,1.52-1.98,2.5-3.23-.82-.53-1.62-1.05-2.44-1.58Z"/></g><path class="cls-2" d="m303.56,303.81c-.86,2.45-2.25,4.57-4.41,6.07-2.68,1.86-5.27,1.7-7.72-.45-.5-.41-.98-.84-1.77-1.52-1.11,1-2.23,1.95-3.29,2.95-1.59,1.48-3.07,3.07-5.43,3.23-1.09-1.23-2.25-2.41-3.29-3.68-1.32-1.64-1.48-1.73-3.54-1.05-.34.11-.7.11-1.09.16-1.11-1.75-1.14-3.48-.36-5.18.8-1.7,1.68-3.39,2.68-4.98,2.29-3.61,3.29-7.5,2.91-11.81-.86-9.27-1.45-18.56-2.39-27.83-1.34-13.11-2.75-26.19-4.38-39.26-1.04-8.38-2.59-16.72-3.93-25.08-.57-3.41-2.57-5.91-5.54-7.38-3.36-1.66-5.02-4.43-5.93-7.82-1.84-6.86,1.36-12.72,8.11-14.9,3.09-1,6.02-.57,8.38,1.73.98.93,1.86,1.27,3.18,1.29,2.41.05,3.7.93,3.95,3.16.55,4.86.93,9.72,1.11,14.61.16,4.98-.25,9.97.04,14.95.68,11.27,1.55,22.51,2.5,33.76.93,10.79,1.84,21.56,4,32.19,1.25,6.07,2.48,12.15,3.86,18.2,1,4.38,3.45,7.88,7.07,10.56,1.43,1.05,2.79,2.23,4.09,3.45,1.36,1.25,1.82,2.86,1.2,4.63Z"/><path class="cls-1" d="m280.98,314.13l-.09-.05h.05l.05.05Z"/><g class="cls-5"><path class="cls-1" d="m332.48,409.26c-.09-.25-.2-.5-.32-.75.16.14.27.27.27.39,0,.14.02.25.05.36Z"/><path class="cls-1" d="m333.02,422.86s.05.01.06,0h0s-.03.01-.03.02c-.02,0-.02-.02-.03-.03Z"/><path class="cls-1" d="m333.05,422.89s-.03,0-.04.01l-.04-.06s.03,0,.05.03c.02,0,.05.01.06,0h0s-.03.01-.03.02Z"/><path class="cls-1" d="m346.12,443.53c.65,3.22,2.51,5.82,4.45,8.36.71.93,1.35,1.83,1.02,3.17.3.08.6.17.89.24.32.06.65.11,1.1.18.28,1.68.25,3.37.88,4.82.59,1.38,1.86,2.49,3.09,4.03-.8.53-1.47,1.06-2.21,1.43-.81.4-1.48.03-1.87-.93-.35-.88-.54-1.81-.99-2.63-.66-1.2-1.33-2.53-2.29-3.42-.96-.89-.65-2.24-1.33-2.79-.85-.68-1.53-1.23-1.75-2.34-.54-2.64-1.96-4.78-3.8-6.75-1.05-1.12-2.4-2.21-1.94-4.19-2.08-.36-2.82-1.94-3.38-3.87-1.65-5.66-3.9-8.91-8.73-12.72.13.84.12,1.49.34,2.1,1.12,3.29,2.65,6.39,4.89,9.15.68.84,1.26,1.86,1.67,2.88.53,1.37.06,2.48-.93,3.25-1.39,1.09-3.01.47-3.18-1.48-.27-3.08-1.83-5.64-3.15-8.29-.87-1.75-2.08-3.35-3.16-4.99-.62-.94-1.45-1.89-.88-2.99.57-1.1,1.58-1.84,2.86-1.44,1.01.32,1.43-.15,2.13-.51.96-.51,2.11-.64,3.18-.92.67.96,1.65,1.88,1.91,2.9,1.11,4.27,3.83,7.49,6.57,10.69,1.87,2.17,2.06,2.4,2.03,5.02,1.5-.35,2.3.54,2.59,2.03Z"/><path class="cls-1" d="m364.15,465.47c-.66-2.86-1.64-5.61-3.27-8.13-.39-.61-.73-1.34-.89-2.04-.32-1.54.18-3.41-1.93-4.16-.07-.02,0-.5-.07-.73-.18-.59-.25-1.36-.64-1.77-2.2-2.25-3.16-5-3.77-8-.23-1.09-.89-2.11-1.32-3.18-.91.27-1.48.43-2.16.64.75-2.73.77-2.91-1.34-4.59-2.27-1.82-4.04-3.98-5.38-6.68-1.41-2.84-3.39-5.38-4.23-8.56-.41-1.52-1.25-1.84-2.61-1.61-.41.07-.8.25-1.64.5.95-1.75.27-2.95-.34-4.27-.39-.84-1.09-1.52-1.59-2.29,0-.02-.02-.02-.02-.02-.23-.39-.41-.82-.48-1.29-.09-.25-.2-.5-.32-.75-1.75-4.29-3.68-8.54-5.23-12.95-2.2-6.29-4.27-12.65-5.95-19.11-3.91-15.15-9.02-29.85-16.11-43.85-1.82-3.59-2.91-7.52-4.16-11.36-.61-1.91-.52-3.91.27-5.82.18-.43.32-.89.39-1.36.27-1.95-.45-2.75-2.34-2.23-1.98.57-3.82,1.23-6,.73-1.77-.41-1.5,1.48-2,2.57-.68-.16-1.39-.34-2.09-.5-1.41-.3-2.59.05-3.43,1.34-.89,1.36-2.07,2.11-3.73,1.54-.93,0-1.86,0-2.79.05-1.54.07-2.02.7-1.54,2.2.23.68.57,1.43,1.02,1.98,2.84,3.29,4.34,7.25,5.61,11.29,2.45,7.7,4.91,15.43,7.18,23.2,2.16,7.29,3.7,14.79,6.18,21.99,3.07,8.86,6.82,17.49,10.22,26.26.98,2.52,1.82,5.11,2.7,7.68.39,1.14.64,2.36,1.14,3.45.82,1.84,1.27,2.16,2.7,1.52.02.16.07.32.09.5.55,2.57,1.54,3.7,3.84,4.36.93,3.45,1.04,3.57,3.93,3.29l-.09-.02c1.32-.43,1.07-2.59,2.77-2.66-.7-1.59-1.34-3.07-2-4.54.16-.07.34-.14.5-.2.43,1,.84,2.02,1.29,3,.91,1.89,2.54,2.57,4.11,1.75,1.68-.89,1.79-2.2.45-4.18-.68-1.02-1.34-2.04-1.93-3.11-.48-.84-.86-1.41-1.27-1.75h.09l.66.09,1.89.25.5.07c.09.02.16.05.25.05l.7.09.66.09c.07,0,.14.02.18.02h.02l.09.02c-.02.45,0,.89.18,1.23.5,1.02,1.77,1.64,2.79,2.52-.34.41-.48.84-.48,1.27,0,.86.59,1.77,1.32,2.66h-.05c.86.64,1.73,1.2,2.52,1.89,3.57,3.09,5.79,7.02,7.04,11.59.55,1.93,1.39,3.54,3.61,3.61-.3,1.7.77,2.59,1.77,3.61,1.02,1.05,2.02,2.2,2.68,3.5,1.04,2.04.61,4.84,3.11,6.2-.14,1.86,1.41,2.75,2.2,4.04.45.7,1,1.54,1,2.27,0,1.73,1.02,3.02,1.82,4.25.59.95,1.32,1.64,1.29,2.89,0,.98.7,1.54,1.59,1.5,1.02-.07.98-.93.77-1.82Zm-58.66-85.56c-2.16-8.54-3.5-17.33-5.07-26.04-.82-4.61-1.27-9.31-2.07-13.95-.36-2.11-.66-4.45-1.77-6.18-2-3.11-2.61-6.43-2.66-9.95-.05-2.32-.25-4.45-2.04-6.16-.07-.07.05-.36.07-.52,2.39,1.66,2.61,4.25,2.82,6.77.2,2.75.8,5.36,1.95,7.88,2.23,4.88,4.27,9.81,6.59,14.65,3.77,7.93,7.13,15.97,8.68,24.67,1.5,8.63,3.11,17.22,4.52,25.88.75,4.61,1.18,9.29,1.75,13.95-.14.05-.27.07-.41.09-.7-1.41-1.41-2.84-2.14-4.27-4.34-8.59-7.84-17.54-10.22-26.83Zm11.04,35.46c.27-.43.52-.84.8-1.29.09.43.34.86.68,1.34.55.75,1.39,1.41,1.27,3.07-1.05-1.2-1.93-2.16-2.75-3.11Zm6.54-1.59c-.27.16-.52.34-.86.55-.07-.16-.16-.3-.2-.43.55-.16,1.09-.32,1.61-.39-.18.09-.34.18-.55.27Z"/><path class="cls-1" d="m364.1,425.21c-2.04-1.5-3.7-2.82-5.45-3.94-.73-.47-1.67-.65-2.51-.77-1.27-.17-2.65.15-3.21-1.75-.03-.09-.09-.25-.11-.25-2.37.26-3.36-2.3-5.15-3.26-2.04-1.1-4.02-2.17-6.23-1.58-.36.1-.82-.08-1.33-.14-.72-1.59-.55-3.09-.45-4.54.09-1.28.75-1.6,1.95-1.1.66.27,1.28.7,1.89,1.11,2.5,1.67,5.08,2.91,7.94,2.96,1.17.02,2.05.62,3.01,1.56,2.24,2.2,4.64,4.22,7.03,6.23.54.45,1.28.64,1.95.89,1.98.74,2.45,1.68,1.61,3.41-.24.5-.69.86-.94,1.16Z"/><path class="cls-1" d="m319.97,426.21c1.39.1,2.21.67,2.46,2.31.64,4.12,2.29,7.89,5.3,11.12,1.29,1.38,1.4,2.11,1.18,4.4,1.07-.12,1.84.27,2.02,1.53.12.8.13,1.66.47,2.39.52,1.14,1.12,2.35,1.97,3.25,1.49,1.57,1.58,1.48.51,3.11.59-.17,1.17-.35,1.84-.54.34,1.02.56,1.9.94,2.72.38.84.93,1.61,1.49,2.57-.74.58-1.44,1.12-2.17,1.69-.97-1.71-1.85-3.16-2.62-4.66-.39-.76-.68-1.35-1.59-1.68-.48-.17-.88-1.12-1.15-1.77-.82-1.98-1.88-3.76-3.18-5.54-1.6-2.2-3.42-4.29-3.75-7.33-.34-3.12-2.21-6.04-4.24-8.67-2.28-2.96-2.26-3.28.62-4.89,0,0-.11,0-.11,0Z"/><path class="cls-1" d="m343.18,457.14c-1.53,1.08-3.15.89-3.66-1.84-.53-2.87-1.89-5.35-4.14-7.42-1.86-1.71-1.71-2.46.35-3.38,2.99-1.33,3.56-1.03,4.01,2.52.31,2.5,1.2,4.51,3.15,6.27,1.9,1.71,1.86,2.79.28,3.84Z"/><path class="cls-1" d="m350.05,466.81c.39.37.98.71,1.16,1.17.45,1.19.69,2.44,1.07,3.65.27.86.45,1.76-.41,2.06-1.03.37-1.68-.48-1.83-1.47-.23-1.52-1.09-2.46-2.19-3.4-.59-.5-1.2-1.26-1.42-1.99-.74-2.43-1.5-4.77-3.6-6.48-.3-.24-.38-.81-.61-1.35,1.11-.97,2.03-2.14,4.11-1.57-.08,2.79,1.19,5.07,3.12,7.14.43.46.4,1.42.61,2.23Z"/><path class="cls-1" d="m354.51,467.69c.94-1.62,2.26-1.55,3.46-1.74.61,1.84,1.18,3.53,1.74,5.23.28.85.36,1.71-.51,1.99-.97.31-1.7-.37-1.9-1.38-.33-1.69-.89-3.16-2.78-4.09Z"/><path class="cls-1" d="m336.42,413.99c-1.51-1.4-1.32-3.28-1.92-5.1,1.35-.3,2.48-.34,3.32.98.62.97-.03,2.78-1.4,4.12Z"/><path class="cls-1" d="m338.72,459.86c.78,1.59,1.25,2.68,1.84,3.7.48.83.73,1.59-.1,2.03-.74.39-1.22-.27-1.69-.92-.73-1.01-1.52-1.98-2.5-3.23.82-.53,1.62-1.05,2.44-1.58Z"/></g><path class="cls-2" d="m260.19,649.6c-.61,2.64-1.25,5.38-1.14,8.04.36,8.93,1.11,17.81,1.64,26.72.36,6.27.95,12.56.86,18.83-.16,9.7-.84,19.42-1.29,29.15-.39,8.5-.66,17.02-1.2,25.51-.48,7.18-1.39,14.31-1.91,21.49-.45,6.52-.11,12.95,2.95,18.99.8,1.57,1.09,3.45,1.36,5.25.32,2.23-.36,4-2.73,4.34.5,2.04,1.05,3.88,1.36,5.77.16.86.05,1.82-.16,2.68-.34,1.32-1.18,1.86-2.5,1.2-.48-.23-.91-.5-1.34-.73-1.41-1.34-3-2.02-4.91-1.2-.66.52-1.25,1.09-1.91,1.61.73.25,1.48.39,2.29.45,2.32.16,4.32,1.02,6.07,2.43.82-.23,1.54-.41,2.25-.61,2.91-.84,4.38.16,4.82,3.29-2.45-.82-5.34,1.02-7.59-1.27-1.2,1.27-2.68,1.27-4.2,1.18-1.36-.09-2.77-.34-3.98.64,4.95.14,6.68,2.98,4.32,7.09-1.84-.82-3.61-2.41-6.13-.68,1.2.18,2.09.27,2.98.48,4.18.95,5.2,3.18,3.23,6.93-.91,1.7-1.36,3.43-1.07,5.41.2,1.36.93,3.02-1.05,3.88-.14.07-.02.68-.07,1.02-.07.61-.16,1.23-.25,1.89,2.75,1.57,2.79,1.84.82,4.57.23.55.52,1.11.68,1.75.25.98-.14,1.64-1.16,1.89-1.2.3-2.52-.27-3.04-1.36-.27-.59-.3-1.43-.73-1.79-1.77-1.45-1.61-3.16-.64-5.13-1.73-.34-2.82-1.11-2.57-2.89-2.36-1.68-.7-3.02.41-4.34,1-1.18,1.18-2.45,1.02-3.93-.18-1.66-.2-3.36-.34-5.02-.05-.5-.14-1.27-.45-1.43-1.25-.64-1.02-1.66-.91-2.68.36-3,1.7-5.13,4.93-5.63-1,.05-2,0-2.98.16-.75.09-1.43.48-2.16.61-2.29.41-3.52-.43-3.59-2.73-.05-1.48.18-3.02.57-4.43.75-2.64,2.39-3.5,4.32-2.32,0-.05.02-.11.02-.16.36-2.02.82-4,1.27-6.11-.57.52-1.16,1.02-1.73,1.54-2.32,2.11-3.61,1.86-4.54-1.2-.52-1.7-.89-3.59-.7-5.34.48-4.23,1.23-8.43,2.07-12.59,1.91-9.56,3.41-19.13,2.89-28.94-.61-11.84-1.07-23.7-1.52-35.55-.48-12.95-.8-25.92-1.36-38.89-.36-8-.64-15.99-2.64-23.83-1.84-7.27-3.34-14.59-7.72-20.97-1.75-2.52-2.04-5.59-1.75-8.91,1.52-.16,2.89-.27,4.91-.48-3.2-1.66-4.29-4.43-5.5-7.2-2.41-5.59-2.14-10.9,1.61-15.77,2.29-2.95,3.68-6.27,4.5-9.84.84-3.68,1.75-7.32,2.39-11,4.45-24.79,6.61-49.75,6.59-74.95-.05-15.09.43-30.19.48-45.28.02-3.82-.27-7.77-1.29-11.4-.91-3.16-1.45-6.02-.36-9.16,1.34-3.75.32-7.2-1.66-10.43-1.68-2.73-3.29-3.43-6.41-2.82-1.89.39-3.73.95-5.59,1.43-2.48.59-3.93-.18-4.04-2.64-.25-4.82.27-9.54,3.04-13.72,1.59-2.34,3.68-4.02,6.54-4.59,4.02-.84,5.73.48,5.84,4.59.11,3.59,2.57,5.98,6.34,6.16,2.29-3.48,4.04-4.18,8.18-3.32,4.84,1.02,7.36,4.43,8.68,8.84,1.77,5.91,1.39,11.84-.43,17.68-.75,2.41-1.86,4.73-2.52,7.16-.64,2.32-1.07,4.73-1.23,7.11-.25,3.95-.2,7.91-.3,11.86-.32,12.25-.59,24.49-.98,36.76-.41,11.95-1,23.88-1.5,35.83-.57,14.27-1.09,28.53-1.7,42.8-.25,5.75,1.75,10.36,5.88,14.38,6.2,6,6.43,16.4.86,22.83l-6.45,1.77c-.66-.32-1.34-.64-2.29-1.07.45-1.09.91-2.04,1.29-3.04,1-2.54,2-5.09,2.93-7.63,1.98-5.41-3.32-12.56-9.86-12.15-6.82.41-10.81,3.57-12.2,10.77-.5,2.75.32,5.23,2.23,7.29.82.89,1.68,1.75,2.5,2.66,1.61,1.79,1.64,2.98,0,4.7-.48.48-1.09.89-1.84,1.41,2.66-.2,3.7-1.52,3.41-4.23-.18-1.54-.8-3.14-1.54-4.5-2.02-3.59-3.18-7.25-1.54-11.29.41-1,.98-2.04,1.77-2.75,5-4.57,13.56-2.34,15.81,4,.77,2.16.36,4.23-.43,6.22-.59,1.48-1.45,2.89-2.23,4.29-.52.98-1.16,1.91-1.64,2.89-.52,1.09-1.29,2.43-.27,3.39.64.61,1.98.52,3.2.2l6.59-1.2c1.23.16,2.43.3,3.77.45-.11.95-.14,1.57-.27,2.11-1.48,5.59-3.07,11.13-4.43,16.74Z"/><path class="cls-2" d="m254.8,824.42c.26,1,.61,2.06.8,3.15.36,2.12.8,4.25.87,6.39.05,1.47-.02,2.82.94,3.37-.19,1.16-.69,2.14-.38,2.7.7,1.3.49,2.5.33,3.82-.1.84.11,1.73.19,2.7,1.42-.18,2.46-.32,3.99-.52-1.09.9-1.9,1.32-2.31,1.99-.54.88.58,1.42.79,2.08.93,2.92,1.55,5.94,2.24,8.94.35,1.49,1.1,2.33,2.93,2.05-.16-2.01.31-3.92-.5-5.99-.67-1.71-.39-3.79-.51-5.71-.02-.36.18-.97.05-1.05-1.98-1.08-1.11-3.51-2.41-4.97-.6-.67-.57-1.89-.81-2.87-.28-1.16-1.12-2.66-.68-3.43.79-1.38.13-2.3-.12-3.44-.55-2.57-1.15-5.13-1.5-7.72-.39-2.88-1.2-3.31-3.9-1.51Z"/><path class="cls-2" d="m272.44,846.15c-1.33,1.04-2.97.8-4.47,1.13-.67.15-1.58.41-1.85.91-.46.83.57,1.11,1.03,1.65.88,1.02,1.53,2.26,2.14,3.49.63,1.27,1.1,2.63,1.9,3.87.86-1.5,1.04-2.83.06-4.3-.81-1.21-1.65-2.53-1.16-4.33,1.38,0,2.25.56,2.73,1.83.56,1.47,1.15,2.93,1.77,4.38.13.31.43.54.85,1.04.6-1.49.73-2.7-.02-3.84-1.06-1.62-1.7-3.31-1.13-5.37-.76-.16-1.36-.29-1.96-.41,0,0,.12-.05.12-.05Z"/><path class="cls-2" d="m276.26,845.61c-.21-.6-.31-1.27-.64-1.79-1.36-2.11-2.78-4.19-4.23-6.23-.29-.41-.85-.64-1.4-1.03-.38.51-.68.92-1.04,1.41-.43-.38-.83-.73-1.24-1.08,0,0,.07-.04.07-.04-1.42.92-1.09,1.97-.19,3.01,1.28,1.48,2.44,2.99,2.71,5.05.15,1.19,1.2,1.24,2.16,1.25,0,0-.12.05-.11.05.26-.56.52-1.12.65-1.4,1.21.28,2.3.52,3.38.77,0,0-.1.03-.1.03Z"/><path class="cls-2" d="m265.21,834.34c-.43-1.08-1.02-2.14-1.24-3.26-.38-1.93-.52-3.9-.78-6-.97-.31-1.92-.61-3.26-1.03.25,1.05.47,1.8.6,2.57.45,2.5.86,5,1.29,7.5.13.74.14,1.53.43,2.2.19.43.78.92,1.2.94.43.02,1.08-.42,1.27-.83.31-.66.31-1.45.44-2.19,0,0,.04.1.04.1Z"/><path class="cls-2" d="m265.17,834.24c.17.51.37,1.01.52,1.53.31,1.1,1.01,1.43,2.07,1.08,0,0-.08.04-.07.04-.14-1.62-.29-3.24-.45-4.86.1-.02.2-.03.29-.05.47,1.04.94,2.09,1.41,3.13.75-2.21-.4-3.97-.81-6.07-1.16-.21-2.31-.42-3.48-.63.2,2.15.38,4.05.56,5.94,0,0-.05-.11-.05-.11Z"/><path class="cls-2" d="m266.6,846.53c1.36-.17,1.93-.76,1.53-1.75-.81-1.97-1.69-3.92-2.72-5.78-.23-.42-1.2-.43-2.17-.74.49,3.31,1.99,5.72,3.36,8.27Z"/><path class="cls-2" d="m264.77,822.85c-.67.19-1.35.38-2.06.57.93,1.44,1.81,2.8,2.75,4.27,1.28.18,1.62-.77,1.84-1.81.2-.98-.34-1.57-1.12-2.03-.51-.31-1-.67-1.48-1.01.01,0,.07,0,.07,0Z"/><path class="cls-2" d="m276.36,845.57c-.44.29-.88.59-1.25.83,1.08,1.94,2.06,3.7,3.04,5.47.14-.04.29-.07.43-.11,0-.51.11-1.05-.02-1.53-.34-1.33-.73-2.65-1.22-3.92-.13-.33-.73-.47-1.1-.7,0,0,.11-.04.11-.04Z"/><path class="cls-2" d="m198.17,249.11s0,.02-.02.05v-.05h.02Z"/><path class="cls-2" d="m215.14,165.96c-.05.7-.14,1.41-.34,2.11.07-.7.18-1.41.34-2.11Z"/><path class="cls-2" d="m275.96,165.32c-.34.52-1.43.84-2.16.8-.89-.07-1.82-.5-2.61-.95-2.79-1.57-5.68-1.79-8.72-.86-1.16.36-2.36.77-3.57.86-.73.05-1.48-.09-2.23-.23-.11-.02-.2-.02-.3-.07-1.52-.43-1.39-2.84-1.39-2.84,2.41-.18,4.86-.11,7.22-1.32-.32-1.2-.61-2.25-.93-3.45-.5.64-.84,1.05-1.3,1.64-3.23-2.11-6.7-3.45-10.43-4.13-2.77-.5-5.54-1.11-8.29-1.68-6.84-1.39-13.63-2.75-20.65-2.66-3.39.05-6.77-.36-10.11-.91-1.79-.3-3.61-1.09-5.16-2.09-2.79-1.82-3.57-6.57-1.59-9.86,1.2,1.02,2.45,1.98,3.54,3.04,3.32,3.2,7.16,5.07,11.81,5.29,4.59.23,9.18.82,13.79.98,10.29.36,20.02,3.16,29.56,6.77.23.09.41.32.59.48-.11.43-.23.82-.36,1.36,1.79-.43,3.23-.32,4.54.66,2.11,1.57,4.29,3.04,6.38,4.66.82.61,1.61,1.34,2.14,2.2.36.64.52,1.77.2,2.32Z"/><path class="cls-2" d="m183.99,96.2c-2.11.95-3.29.59-4.5-1.38-1.64.67-2.17.56-3.5-.76-1.27.8-2.85.16-3.24-1.32-.03-.12-.1-.24-.08-.36.22-2.11-.27-4.27.46-6.35.14-.39.08-1.06-.17-1.35-1.41-1.56-2.75-3.23-4.41-4.47-1.7-1.27-3.77-1.44-5.63-.08-.78.57-1.23.34-1.62-.37-.95-1.7-1.87-3.42-2.82-5.13-.63-1.14-1.22-2.3-1.93-3.39-.43-.66-.37-1.16.05-1.77,1.55-2.26,2.82-4.66,3.43-7.36.53-2.33.44-4.62-.59-6.81-.17-.37-.43-.7-.79-1.03-1.04,2.26-.39,4.63-.48,6.94-.14.09-.28.18-.42.27-.21-.34-.37-.72-.63-1.03-2.3-2.76-3.52-6-3.82-9.51-.34-4.1-.61-8.23-.56-12.34.08-6.09,1.25-12.02,4.06-17.5,4.02-7.84,10.43-12.91,18.76-15.46,10.4-3.18,20.71-2.78,30.64,1.81,9.13,4.22,14.56,11.56,16.95,21.22,1.53,6.17,1.68,12.44,1.03,18.75-.2,1.91-.33,3.83-.67,5.71-.5,2.72-1.64,5.19-3.45,7.31-.27.31-.6.57-1.12.75.07-1.15.2-2.31.19-3.46,0-1.15-.15-2.29-.23-3.44-.14-.03-.29-.06-.43-.09-.25.38-.57.73-.75,1.15-1.34,3.06-1.07,6.13.2,9.11.73,1.7,1.7,3.29,2.63,4.9.36.62.5,1.1.12,1.78-1.47,2.62-2.88,5.27-4.32,7.91-.15.27-.33.52-.51.78-.43.64-.87.81-1.6.29-1.87-1.35-3.9-1.19-5.62.12-1.61,1.22-2.95,2.8-4.37,4.26-.46.48-.45,1.05-.21,1.72.28.77.39,1.62.46,2.45.08.95.05,1.91.06,2.87.02,1.04-.17,2-1.18,2.55-.75.41-1.52.81-2.21-.07-1.6,1.47-1.82,1.52-3.54.7-.96,2.01-2.34,2.47-4.46,1.46-1.72,1.5-3.13,1.73-4.54.76-1.78.92-2.93.73-4.62-.74Zm22.7-26.88c.87,0,1.74.04,2.6,0,1.72-.1,2.98-.88,3.68-2.52,1.46-3.47,1.45-6.91-.15-10.33-.67-1.44-1.9-2.11-3.42-2.17-3.55-.14-7.05.27-10.45,1.33-2.5.78-4.01,2.53-4.26,5.18-.12,1.26-.11,2.54-.02,3.79.17,2.32.67,2.89,2.95,3.52,2.97.81,5.97,1.38,9.07,1.21Zm-36.25.15c3.32.02,6.53-.58,9.68-1.58.95-.3,1.92-.7,2.14-1.83.4-1.99.5-4,.07-6-.48-2.21-1.84-3.72-3.99-4.38-3.45-1.05-7-1.58-10.62-1.4-1.48.07-2.74.71-3.38,2.1-1.71,3.74-1.76,7.47.23,11.15.52.96,1.36,1.53,2.44,1.65,1.14.13,2.28.19,3.42.28Zm17.89,5.59c.13,0,.26,0,.39,0,.14.32.35.63.41.97.14.85.23,1.72.3,2.58.13,1.68.63,2.11,2.31,1.9.31-.04.61-.1.91-.17.97-.22,1.32-.6,1.07-1.57-.31-1.18-.67-2.4-1.28-3.44-.78-1.32-1.41-2.65-1.84-4.13-.3-1.02-.78-2.02-1.32-2.94-.5-.84-.92-.83-1.43.02-.52.87-1,1.8-1.25,2.77-.4,1.55-.98,2.98-1.91,4.29-.79,1.13-1.28,2.42-1.2,3.83.02.35.31.91.58.98.79.21,1.63.28,2.46.3.73.02,1.11-.42,1.14-1.17.03-.77.07-1.55.19-2.31.1-.65.31-1.28.47-1.91Z"/><path class="cls-4" d="m223.63,80.49c-3.86,4.98-6.45,10.41-7.84,15.97l-.02.02c-.52.5-8.95,8.63-27.13,8.63s-26.6-8.13-27.13-8.63l-.02-.02c-1.39-5.57-3.98-11-7.84-15.97-5.84-7.52-9.47-20.95-3.52-27.72.98-1.14-.32-5.41-.54-8.25-1.3-15.38-.57-30.44,15.24-38.46,7.86-4.02,15.88-6.07,23.81-6.07s15.95,2.04,23.81,6.07c15.81,8.02,16.54,23.08,15.24,38.46-.23,2.84-1.52,7.11-.55,8.25,5.95,6.77,2.32,20.2-3.52,27.72Z"/></svg>