<?xml version="1.0" encoding="UTF-8"?><svg id="Lag_1" xmlns="http://www.w3.org/2000/svg" viewBox="0 0 362.37 830.21"><defs><style>.cls-1,.cls-2,.cls-3{fill:#fff;}.cls-4{fill:red;opacity:.39;}.cls-5,.cls-6,.cls-2{opacity:.22;}.cls-6,.cls-7{fill:none;}.cls-3{opacity:.15;}</style></defs><path class="cls-3" d="m.01,414.29v.02c-.02.22-.02.41.02.57.15.87.57,1.44,1.11,1.77,1.13.72,2.82.41,3.8-.04,5.17-2.29,11.22-2.64,15.47-8.21.11-.11.22-.26.33-.39.07.22.13.46.22.68.28.87.52,1.72.68,2.55.65,2.99.57,5.7.04,8.25-.76,3.69-2.44,7.03-4.15,10.37-.09.2-.2.37-.28.57-3.4,6.59-7.07,13.07-10.15,19.82-3.69,8.05-3.64,12.75,4.19,13.82.72.09,1.51.15,2.31.17,1.38.02,8.38-2.73,10.87-2.14,2.14.52,3.38.68,4.65.22.55-.22,1.22-.55,1.75-1.07l.15-.22c.94-1.13,5.76-7.27,6.92-9.67l13.25-18.55.13-.22.13-.17c6.87-9.89,14.06-20.58,18.07-29.11.17-.41.35-.83.55-1.27.59-1.4,1.33-2.73,1.96-4.1,14.25-31.17,29.14-62.11,37.8-95.57,2.01-7.7,3.67-15.54,4.93-23.55.07,23.77-.79,47.38-4.26,70.6-.94,6.33-2.25,12.64-3.69,18.92-1.4,6.11-2.9,12.22-4.34,18.33-2.84,11.85-5.37,23.72-6.13,35.73-2.25,34.88.09,70.04.52,105.09.33,25.12,1.13,50.22.96,75.34-.09,16.11-3.32,32.35-2.05,48.3,2.27,28.24,7.16,56.31,10.43,84.51,2.64,22.92,1.35,45.61-8.58,66.94-3.32,7.12-14.06,13.55-7.29,21.39,4.23,4.89,14.58,5.67,22.33,6.11,19.88,1.18,23.37-3.93,22.35-24.42-1.24-25.34,3.71-50.81-1.11-76.17-.46-2.53.81-5.41,1.35-8.1,6.98-34.7,17.72-68.92,12.94-105.11-.5-3.75,1.07-7.77,1.79-11.63,6.42-34.4,13.31-68.71,19.14-103.19,3.06-18.12,4.26-36.54,6.37-55.39,2.05.09,2.75.13,5.67.26,2.92-.13,3.62-.17,5.67-.26,2.12,18.86,3.32,37.28,6.37,55.39,5.83,34.48,12.72,68.79,19.14,103.19.72,3.86,2.29,7.88,1.79,11.63-4.78,36.19,5.96,70.41,12.94,105.11.55,2.68,1.81,5.57,1.35,8.1-4.82,25.36.13,50.83-1.11,76.17-1.03,20.49,2.47,25.6,22.35,24.42,7.75-.44,18.09-1.22,22.33-6.11,6.77-7.84-3.97-14.27-7.29-21.39-9.93-21.32-11.22-44.02-8.58-66.94,3.27-28.2,8.16-56.27,10.43-84.51,1.27-15.95-1.96-32.19-2.05-48.3-.17-25.12.63-50.22.96-75.34.44-35.05,2.77-70.21.52-105.09-.76-12-3.3-23.88-6.13-35.73-1.44-6.11-2.95-12.22-4.34-18.33-1.44-6.29-2.75-12.59-3.69-18.92-3.47-23.22-4.32-46.84-4.26-70.6,1.27,8.01,2.92,15.85,4.93,23.55,8.66,33.46,23.55,64.41,37.8,95.57.63,1.37,1.37,2.71,1.96,4.1.2.44.37.85.55,1.27,4.02,8.53,11.2,19.23,18.07,29.11l.13.17.13.22,13.25,18.55c1.16,2.4,5.98,8.53,6.92,9.67l.15.22c.52.52,1.2.85,1.75,1.07,1.27.46,2.51.31,4.65-.22,2.49-.59,9.49,2.16,10.87,2.14.81-.02,1.59-.09,2.31-.17,7.83-1.07,7.88-5.76,4.19-13.82-3.08-6.74-6.74-13.23-10.15-19.82-.09-.2-.2-.37-.28-.57-1.7-3.34-3.38-6.68-4.15-10.37-.52-2.55-.61-5.26.04-8.25.15-.83.39-1.68.68-2.55.09-.22.15-.46.22-.68.11.13.22.28.33.39,4.26,5.57,10.3,5.91,15.47,8.21.98.46,2.66.76,3.8.04.55-.33.96-.89,1.11-1.77.04-.15.04-.35.02-.57v-.02c-.11-1.18-.98-2.79-1.9-3.38-11.39-7.27-17.35-22.39-33.35-23.18-3.16-.15-5.37-1.13-7.14-2.77l-.28-.28c-.15-.13-.28-.26-.44-.41-.02-.04-.07-.09-.11-.13-1.68-1.83-3.01-3.88-3.51-5.74-5.28-19.29-8.95-39-13.36-58.54-2.2-9.71-3.45-19.9-6.9-29.09-.35-.94-.72-1.86-1.13-2.77-12.77-29.11-16.13-59.12-11.89-90.29.11-.81.22-1.62.28-2.4l.02-.02c2.97-26.5-5.91-39.79-31.86-49.15-7.75-2.77-15.41-6-22.87-9.58-2.49-1.2-4.82-2.62-6.92-4.21-.07-.07-.13-.13-.2-.17-1.16-.87-2.23-1.81-3.25-2.84-.15-.13-.24-.2-.24-.2-.81-.81-1.57-1.64-2.31-2.49-7.88-9.32-10.72-21.91-7.75-33.94l.02-.02c1.33-5.35,3.82-10.56,7.53-15.34,5.61-7.22,9.1-20.12,3.38-26.63-.94-1.09.31-5.19.52-7.92,1.24-14.78.55-29.25-14.64-36.95C196.51,1.96,188.8,0,181.19,0s-15.32,1.96-22.87,5.83c-15.19,7.7-15.89,22.17-14.64,36.95.22,2.73,1.46,6.83.52,7.92-5.72,6.5-2.23,19.4,3.38,26.63,3.71,4.78,6.2,10,7.53,15.34l.02.02c2.97,12.03.13,24.62-7.75,33.94-.74.85-1.51,1.68-2.31,2.49,0,0-.09.07-.24.2-1.03,1.03-2.1,1.96-3.25,2.84-.07.04-.13.11-.2.17-2.1,1.59-4.43,3.01-6.92,4.21-7.46,3.58-15.12,6.81-22.87,9.58-25.95,9.36-34.83,22.65-31.86,49.15l.02.02c.07.79.17,1.59.28,2.4,4.23,31.17.87,61.18-11.89,90.29-.41.92-.79,1.83-1.13,2.77-3.45,9.19-4.69,19.38-6.9,29.09-4.41,19.53-8.08,39.24-13.36,58.54-.5,1.86-1.83,3.91-3.51,5.74-.04.04-.09.09-.11.13-.15.15-.28.28-.44.41l-.28.28c-1.77,1.64-3.97,2.62-7.14,2.77-16,.79-21.96,15.91-33.35,23.18-.92.59-1.79,2.2-1.9,3.38Z"/><path class="cls-7" d="m217.54,129.31c.48.39,1.64,1.37,3.25,2.84"/><line class="cls-7" x1="259.89" y1="386.66" x2="259.91" y2="386.66"/><path class="cls-7" d="m214.99,126.63l.02-.02"/><path class="cls-7" d="m255.13,191.43c0-.17,0-.33.02-.5"/><path class="cls-7" d="m141.57,132.15c1.62-1.46,2.77-2.44,3.25-2.84"/><line class="cls-7" x1="102.46" y1="386.66" x2="102.48" y2="386.66"/><path class="cls-7" d="m147.35,126.61l.02.02"/><path class="cls-7" d="m107.22,190.93c.02.17.02.33.02.5"/><path class="cls-7" d="m217.62,128.92c.48.39,1.64,1.37,3.25,2.84"/><line class="cls-7" x1="259.96" y1="386.26" x2="259.98" y2="386.26"/><path class="cls-7" d="m215.07,126.23l.02-.02"/><path class="cls-7" d="m255.21,191.03c0-.17,0-.33.02-.5"/><path class="cls-7" d="m141.65,131.76c1.62-1.46,2.77-2.44,3.25-2.84"/><line class="cls-7" x1="102.54" y1="386.26" x2="102.56" y2="386.26"/><path class="cls-7" d="m147.43,126.21l.02.02"/><path class="cls-7" d="m107.3,190.53c.02.17.02.33.02.5"/><path class="cls-6" d="m254.41,191.07c0-.17,0-.33.02-.5"/><path class="cls-6" d="m106.5,190.56c.02.17.02.33.02.5"/><path class="cls-2" d="m215.47,417.13c.11,2.36,1.51,3.1,3.88,2.53,1.79-.46,3.56-1,5.37-1.37,2.99-.59,4.54.09,6.15,2.71,1.9,3.1,2.88,6.42,1.59,10.02-1.05,3.01-.52,5.76.35,8.8.98,3.49,1.27,7.29,1.24,10.96-.04,14.49-.5,29.01-.46,43.5.02,24.2-2.03,48.19-6.31,72-.63,3.54-1.51,7.03-2.29,10.56-.81,3.43-2.12,6.61-4.34,9.45-3.6,4.67-3.86,9.78-1.55,15.15,1.16,2.66,2.2,5.33,5.28,6.92-1.94.2-3.25.31-4.71.46-.28,3.19,0,6.13,1.68,8.56,4.21,6.13,5.65,13.16,7.42,20.14,1.92,7.53,2.18,15.21,2.53,22.89.55,12.46.85,24.92,1.31,37.36.44,11.39.87,22.79,1.46,34.16.5,9.43-.94,18.62-2.77,27.81-.81,3.99-1.53,8.03-1.99,12.09-.17,1.68.17,3.49.68,5.13.89,2.95,2.14,3.19,4.37,1.16.55-.5,1.11-.98,1.68-1.48-.46,2.03-.89,3.93-1.24,5.87,0,.04-.02.11-.02.15-1.86-1.13-3.43-.31-4.15,2.23-.37,1.35-.57,2.84-.55,4.26.09,2.2,1.24,3.01,3.45,2.62.7-.13,1.35-.5,2.07-.59.94-.15,1.9-.11,2.86-.15-3.1.48-4.39,2.53-4.74,5.41-.11.98-.33,1.96.87,2.58.31.15.39.89.44,1.37.13,1.59.15,3.23.33,4.82.15,1.42-.02,2.64-.98,3.78-1.07,1.27-2.66,2.55-.39,4.17-.24,1.7.81,2.44,2.47,2.77-.94,1.9-1.09,3.54.61,4.93.41.35.44,1.16.72,1.72.48,1.05,1.75,1.59,2.92,1.31.96-.24,1.35-.87,1.09-1.81-.15-.61-.44-1.16-.65-1.68,1.9-2.62,1.86-2.88-.79-4.39.09-.63.17-1.22.24-1.81.04-.33-.07-.92.07-.98,1.92-.83,1.22-2.42,1-3.73-.28-1.9.15-3.56,1.03-5.19,1.9-3.6.92-5.74-3.1-6.66-.85-.2-1.7-.28-2.86-.46,2.42-1.66,4.12-.13,5.89.65,2.27-3.95.61-6.68-4.15-6.81,1.16-.94,2.51-.7,3.84-.61,1.44.09,2.86.09,4.02-1.13,2.16,2.2,4.93.44,7.29,1.22-.41-3.01-1.83-3.97-4.61-3.16-.7.2-1.4.37-2.18.59-1.66-1.35-3.6-2.18-5.83-2.34-.76-.07-1.51-.2-2.2-.44.63-.5,1.2-1.05,1.83-1.55,1.86-.79,3.36-.13,4.71,1.16.41.22.83.48,1.29.7,1.27.63,2.07.11,2.4-1.16.2-.83.33-1.75.17-2.58-.33-1.81-.85-3.58-1.33-5.54,2.27-.33,2.92-2.03,2.62-4.17-.26-1.72-.52-3.54-1.31-5.04-2.95-5.81-3.27-11.98-2.82-18.25.48-6.9,1.37-13.75,1.81-20.65.52-8.16.79-16.35,1.16-24.51.44-9.34,1.09-18.68,1.24-28,.09-6.02-.48-12.07-.83-18.09-.5-8.56-1.22-17.09-1.57-25.67-.11-2.55.5-5.19,1.11-7.73,1.29-5.39,2.82-10.72,4.23-16.09.13-.52.15-1.11.26-2.03-1.29-.15-2.44-.28-3.62-.44l-6.33,1.16c-1.18.31-2.44.39-3.08-.2-.98-.92-.24-2.2.26-3.25.46-.94,1.07-1.83,1.57-2.77.74-1.35,1.57-2.71,2.14-4.12.76-1.92,1.16-3.91.41-5.98-2.16-6.09-10.39-8.23-15.19-3.84-.76.68-1.31,1.68-1.68,2.64-1.59,3.88-.48,7.4,1.46,10.85.72,1.31,1.31,2.84,1.48,4.32.28,2.6-.72,3.86-3.27,4.06.72-.5,1.31-.89,1.77-1.35,1.57-1.66,1.55-2.79,0-4.52-.79-.87-1.62-1.7-2.4-2.55-1.83-1.99-2.62-4.37-2.14-7.01,1.33-6.92,5.17-9.95,11.72-10.35,6.29-.39,11.37,6.48,9.49,11.68-.92,2.44-1.88,4.89-2.84,7.33-.37.96-.79,1.88-1.24,2.92.94.41,1.57.72,2.2,1.03l6.2-1.7c5.35-6.18,5.13-16.17-.83-21.93-3.97-3.86-5.89-8.29-5.63-13.82.57-13.71,1.07-27.41,1.62-41.12.48-11.48,1.05-22.94,1.44-34.42.39-11.79.63-23.55.94-35.31.09-3.8.04-7.6.31-11.39.15-2.29.55-4.61,1.16-6.83.63-2.34,1.7-4.56,2.42-6.87,1.75-5.61,2.12-11.31.41-16.98-1.27-4.23-3.69-7.51-8.34-8.49-3.97-.83-5.65-.15-7.86,3.19-3.62-.17-5.98-2.47-6.09-5.91-.11-3.95-1.72-5.22-5.61-4.41-2.75.55-4.76,2.16-6.26,4.41-2.68,4.02-3.19,8.56-2.95,13.18Z"/><path class="cls-2" d="m122.21,369c.79,3.21,2.07,6.33,3.34,9.43,1,2.4,2.34,4.69,3.45,7.07,1.81,3.91,4.65,6.83,8.23,9.12,1.62,1,3.19,2.07,4.74,3.16,2.99,2.1,4.65,5.02,4.95,8.64.37,4.32.39,8.71,1.09,12.96.74,4.43,2.03,8.8,3.3,13.12.48,1.62,1.42,3.14,2.38,4.54,3.23,4.67,8.4,5.81,13.36,3.06,2.92-1.64,5.04-4.1,6.79-6.9,1.11-1.75,2.05-3.6,3.1-5.43h7.73c.44.83.83,1.75,1.37,2.55,1.62,2.38,3.16,4.85,5.02,7.03,1.09,1.27,2.6,2.27,4.1,3.03,4.69,2.38,9.54,1.29,12.44-3.08,1.62-2.44,2.84-5.26,3.75-8.05,1.94-6.05,2.99-12.29,2.84-18.68-.04-1.18.15-2.36.24-3.51.39-4.69,2.66-8.18,6.72-10.52,1.18-.65,2.36-1.35,3.47-2.1,3.62-2.4,6.44-5.5,8.21-9.54,1.72-3.97,3.67-7.86,5.35-11.85,1.13-2.66,1.68-5.52,1.64-8.47-.07-7.03-3.25-12.11-9.65-15.02-5.52-2.53-11.37-2.82-17.26-1.77-6.13,1.11-10.08,7.33-7.75,13.86,2.47,6.81,3.4,14.01,4.45,21.17.57,3.97-.81,7.68-2.92,11.07-3.16,5.04-7.51,8.99-12.13,12.66-3.34,2.62-6.55,5.37-9.82,8.1-1.59,1.35-3.51,1.11-5.39,1.2-1.35.09-2.05-.74-2.9-1.62-1.66-1.66-3.51-3.1-5.3-4.63-3.91-3.34-7.88-6.63-11.72-10.06-1.2-1.07-2.16-2.42-3.14-3.71-3.78-4.93-5.26-10.41-3.93-16.59.94-4.52,1.72-9.06,2.66-13.55.22-1.05.76-2.01,1.16-3.01.15-.37.28-.74.41-1.11.07-.44.09-.89.17-1.33,1.13-5.63-1.46-10.69-6.9-12.07-7.33-1.86-14.6-1.31-21.15,2.88-5.78,3.73-8.27,10.54-6.48,17.94Zm71.17,50.46c1.66-4.3,5.19-5.74,9.28-6.31,3.1-.46,4.58.94,4.6,4.28-.04.31.04.92-.2,1.37-1.92,3.84-3.8,7.73-5.94,11.44-.81,1.44-2.05,1.44-3.54.65-3.75-1.96-5.72-7.49-4.21-11.44Zm-38.94-3.54c.13-1.96,1.35-2.92,3.32-2.82,1.59.11,3.16.68,4.76.96,3.4.63,6.15,5,6.29,8.34.04,2.99-2.2,7.01-4.76,8.4-1.57.89-2.64.72-3.82-.63-.28-.35-.57-.72-.76-1.11-1.48-2.79-3.1-5.54-4.32-8.42-.61-1.42-.79-3.16-.7-4.71Z"/><path class="cls-2" d="m114.09,266.64c.55,1.96.79,3.99,1.13,6,.52,3.03.59,6.24,1.62,9.08,1.03,2.82,1.7,5.63,2.36,8.56.55,2.55,1.44,5.13,2.66,7.42,2.12,3.97,5.81,5.17,9.69,3.06,2.14-1.16,4.1-2.84,5.85-4.63,1.88-1.99,3.38-4.41,5.15-6.55,1.13-1.44,2.53-2.66,3.69-4.08.92-1.09,1.75-2.27,2.44-3.54,4.76-8.45,9.23-17.07,12.7-26.17,2.34-6.11,6.09-11.11,10.13-15.95l.04-.04.07-.07c.13-.15.24-.28.37-.41h.02v.37c.11,2.77-.2,5.57-.33,8.45,1.72,1.92,1.75,2.01.52,5.91-1.99-.44-4.04-.92-6.07-1.37-.98,1.96-.61,3.56.44,4.5,1.53,1.37,3.19,2.34,5.24,3.8.81,2.6-.09,5.91-.44,8.93.61,1.03,1.55,1.99,1.46,2.62-.24,1.79-1.42,1.57-2.29,1.51-1.53-.13-3.06-.52-4.74-.85-.28,4.5.37,5.28,6.46,7.94-.15,2.68-.33,5.46-.5,8.38.39.57.9,1.29,1.62,2.31-2.73,1.53-5.04-.26-7.42-.24-.81,1.99-.39,3.56.63,4.45,1.53,1.35,3.19,2.31,5,3.58q.41,2.14-.26,8.18c.46.57.96,1.16,1.75,2.12-2.66,1.03-4.87-.74-7.07-.52-.74,3.62.13,5.02,4.5,7.29,1.16,3.97.61,8.05-.04,12.16.5,1.33,2.42,1.46,1.29,4.26-2.05-.35-4.19-.68-6.33-1.05-.85-.13-1.68-.31-2.53-.48-.83-.17-1.83-.7-2.14,1.13-.28,1.59.5,2.58,1.27,3.12,1.31.98,2.71,1.72,4.1,2.47.57.31,1.18.39,1.96.65-1.7,9.49-.11,16.85,5.91,21.8-.85.31-1.18.5-1.51.55-1.62.2-2.75,1.42-3.38,3.84-.15.57-.28,1.11-.46,1.66l-.37-.37c-1.16-1.16-2.23-2.4-3.4-3.51-.85-.79-1.77-1.53-2.77-2.16-2.47-1.57-3.56-1.37-5.54.85-.13.37-.26.74-.41,1.11-.02,2.44-.24,4.89-.02,7.31.2,2.31.74,4.63,1.4,6.85.48,1.66,1.55,3.1,3.14,3.93,1.68.85,2.25,2.25,2.31,3.97.04.83.09,1.64.09,2.44,0,1.79.59,3.36,1.59,4.8,1.05,1.48,2.03,2.99,2.95,4.54.94,1.57,1.9,2.95,3.8,3.67.89.33,1.64,1.64,2.01,2.66,1.07,2.86,1.92,5.78,2.82,8.71.46,1.46,3.06,3.34,4.61,3.27,1.4-.04,3.58-2.05,4.06-3.58.92-3.01,1.86-6,2.84-8.97.41-1.24,1.2-2.12,2.49-2.71.98-.46,1.88-1.33,2.53-2.23,1.37-1.9,2.66-3.86,3.82-5.89.65-1.16,1.09-2.47,1.37-3.75.26-1.22.2-2.51.28-3.78.09-1.22.46-2.36,1.62-2.97,3.21-1.72,4.47-4.74,4.85-8.03.37-3.21.15-6.48.11-9.73-.02-.76-.37-1.59-.72-2.29-.7-1.35-1.75-1.81-3.16-1.29-1.09.41-2.16.98-3.06,1.72-1.4,1.11-2.64,2.44-3.95,3.69-.59.57-1.07,1.24-1.68,1.77-.61.55-1.22,1.05-1.81,1.53-.55-1.83-1.18-3.62-1.92-5.24-.55-1.22-1.79-1.62-2.95-2.55,2.14-2.38,4.47-4.61,5.5-8.82,1.03-4.12.74-8.18.07-12.66.72-.24,1.37-.37,1.99-.7,1.62-.83,3.23-1.62,4.78-2.71.74-.52,1.51-1.59,1.11-3.21-.39-1.53-1.27-1.09-2.03-.94-3.14.59-6.26,1.18-9.49,1.79-.42-1.53-.42-2.58.83-3.38,1.72-1.09,1.68-1.37,1.18-4.12-.28-1.64-.61-3.38-.5-5.02.13-2.31.5-4.52,2.47-4.95.94-.2,1.81-1.31,2.64-2.23.83-.89,1.2-2.23.57-4.28-2.27.39-4.69.83-7.64,1.35.63-1.07.83-1.68,1.16-1.92,1.77-1.42,1.72-1.37,1.18-4.41-.28-1.59-.37-3.27-.52-4.82,2.53-1.92,5.98-1.37,6.13-7.68-2.47-.72-4.71,1.62-6.94.22-.22-1.66.59-1.55,1.11-1.88.96-.59,1.29-1.62.9-3.21-.28-1.13-.57-2.31-.65-3.51-.22-2.73.17-3.45,1.86-4.54,1.07-.68,2.07-1.62,3.03-2.64.68-.74.98-1.94.61-3.25-.41-1.44-1.13-.74-1.81-.59-1.75.39-3.51.7-5.28,1.05-.35-1.46-.07-1.92.63-2.42,1.72-1.2,1.79-1.4,1.18-4.08-.48-2.16.31-2.49,1.07-4.8,1.99-1.72,4.1-3.25,4.32-9.38-1.94.28-3.54.52-5.11.79-2.23.35-2.42.04-2.27-4.04.37-.24.76-.55,1.18-.79,1.05-.57,1.27-1.75.87-3.23-.48-1.86-.81-3.67-.59-5.63.15.17.31.35.46.55,1.85,2.23,3.71,4.43,5.33,6.81,1.68,2.51,3.06,5.28,4.21,8.1,3.93,9.49,8.4,18.66,13.51,27.5.74,1.27,1.96,2.25,2.92,3.38.87,1.03,1.72,2.07,2.55,3.12,1.81,2.34,3.45,4.85,5.48,6.96,1.66,1.75,3.56,3.34,5.65,4.45,3.88,2.07,7.44.83,9.73-3.06,1.72-2.99,2.64-6.29,3.03-9.73.17-1.64.5-3.14,1.33-4.63,1.44-2.55,1.83-5.5,2.03-8.42.26-3.25.44-6.46,1.59-9.58.94-2.58,1-5.35.59-8.14-.55-3.49-1.07-6.96-2.47-10.21-.24-.59-.17-1.33-.22-2.01-.26-3.25-.5-6.5-.72-9.76-.04-.65-.07-1.35.09-1.99,1.37-5.39.96-10.52-1.77-15.39-.33-.59-.52-1.53-.33-2.12.76-1.94.39-3.73-.46-5.46-1.07-2.12-2.25-4.19-3.45-6.26-.63-1.11-.79-2.01-.44-3.47.79-3.45.37-6.79-1.48-9.69-.31-.57-.7-1.09-1.18-1.62-.74-.89-1.68-1.64-2.49-2.42,1.81-6.59-.98-11.2-5.41-15.02-1.2-1.03-2.14-2.1-2.64-3.6-1.33-3.8-4.3-6.02-7.44-7.92-1-.59-2.47-.33-3.99-.48-.04-.48-.24-1.22-.2-1.94.13-2.44-.81-4.39-2.49-5.74-.24-.17-.5-.35-.74-.52-2.95-1.86-5.94-3.71-9.12-5.02-3.25-1.35-6.74-2.1-10.17-2.99-.57-.15-1.13-.24-1.7-.24h-.44c.09-.09.17-.15.26-.24.74-.65,1.44-1.57,2.12-2.55.48-.72.68-1.9.41-3.16-.28-1.4-.79-.72-1.27-.57-1.22.37-2.44.68-3.69,1.03-.24-1.42-.04-1.88.46-2.34,1.2-1.16,1.24-1.35.81-3.95-.33-2.1.22-2.42.74-4.65,1.4-1.66,2.88-3.14,3.03-9.08-1.35.28-2.47.52-3.58.76-1.55.35-1.68.04-1.57-3.88.24-.24.52-.52.83-.76.57-.46.79-1.27.7-2.29.42-.02.85-.07,1.27-.11,3.4-.41,5.91-2.27,7.79-5.09,1.53-2.29,3.08-4.54,4.71-6.72,1.2-1.59,1.72-3.25,1.66-5.24-.11-3.25-.44-6.55.28-9.78.22-1.09.7-2.14.98-3.23.11-.35.13-.98-.04-1.09-.31-.2-.85-.2-1.2-.04-1.51.72-2.16,2.07-2.4,3.64-.28,1.9-.39,3.84-.74,5.74-.48,2.64-1.27,5.15-3.32,7.07-.2.17-.41.33-.72.57.04-.92.17-1.7.09-2.42-.07-.5-.37-1.11-.76-1.37-.59-.39-1.07.17-1.4.61-.44.59-.76.63-1.48.35-.48-.2-1.29.17-1.83.48-.55.35-.98.61-1.64.33-.22-.11-.57.02-.85.09-.76.17-1.53.35-2.29.55-.13.02-.35.02-.41.11-.55.83-1.31.46-2.07.46-1.55-.02-3.1.11-4.67.17-.17,0-.48-.02-.55-.13-.44-.7-1.11-.57-1.75-.61-.39-.04-.74-.22-1.11-.28-.57-.11-1.13-.15-1.7-.24-.33-.07-.68-.11-.96-.28-.83-.5-1.62-1.18-2.66-.44-.13.09-.48-.07-.68-.2-.2-.11-.26-.41-.46-.52-.37-.22-.81-.55-1.13-.46-.33.07-.7.57-.79.92-.13.63-.04,1.31-.04,1.96.02.24.09.5.2,1.03-.46-.35-.72-.52-.92-.74-1.96-1.94-2.82-4.43-3.25-7.09-.35-2.12-.59-4.23-.92-6.35-.22-1.27-.96-2.25-2.1-2.84-.37-.2-.89-.11-1.33-.13-.02.39-.17.87-.02,1.2,1.18,2.62,1.4,5.39,1.35,8.21-.04,1.83-.04,3.64-.11,5.46-.02,1.29.22,2.49.96,3.56,1.96,2.79,3.93,5.61,5.91,8.38,2.14,3.01,5.09,4.34,8.51,4.65-.02.52-.04,1.05-.07,1.57,1.22,1.86,1.22,1.92.37,5.72-1.4-.44-2.82-.89-4.23-1.33-.7,1.88-.41,3.45.31,4.34,1.05,1.33,2.23,2.25,3.67,3.67.57,2.51-.09,5.72-.33,8.62.44,1,1.09,1.94,1.03,2.53-.15,1.75-.98,1.53-1.59,1.46-1.07-.13-2.14-.52-3.32-.83-.15,3.16.07,4.43,1.79,5.87-.13-.02-.28-.02-.41-.02h-.02c-.59,0-1.16.07-1.79.17-6.13,1.11-11.87,3.32-17.24,6.59-.83.5-1.62,1.09-2.36,1.72-.02,0-.04.02-.07.04-1.85,1.51-2.97,3.4-2.82,5.98.02.68-.07,1.35-.09,2.03-5.39-.35-8.58,2.92-10.89,7.25-1.13,2.14-2.29,3.97-4.15,5.52-3.14,2.64-5.11,6.07-5.13,10.41,0,1.09.26,2.18.46,3.71-1.33,1.11-2.42,2.31-3.27,3.62-2.12,3.27-2.68,7.18-1.31,11.96-.61,1.03-1.44,2.4-2.18,3.82-.89,1.64-1.75,3.32-2.51,5.02-.63,1.35-.83,2.82-.15,4.23.46.98.15,1.72-.33,2.62-2.66,4.67-3.06,9.69-1.85,14.91.2.72.2,1.48.24,2.23.02.26-.13.5-.15.76-.31,3.75-.24,7.6-1.03,11.24-.81,3.67-1.96,7.25-2.29,11.04-.26,2.88.15,5.63.92,8.38Zm9.36-44.57c5.76,2.84,11.55,5.74,17.35,8.51,5.74,2.75,11.52,2.29,17.13-.39,2.84-1.33,5.48-3.08,8.23-4.63.85-.48,1.7-1.07,2.62-1.33,1.27-.35,1.96.61,1.37,1.79-.46.87-1.18,1.66-1.94,2.25-4.93,3.71-9.82,7.51-14.86,11-4.58,3.19-9.73,3.71-14.86,1.83-6.31-2.34-11.92-6.07-16.98-10.67-3.38-3.08-3.51-5.67-.59-9.76.94.5,1.72.98,2.53,1.4Zm5.22-15.82c3.32,1.2,6.68,2.36,10,3.6,1.16.44,2.31.89,3.47,1.35,3.43,1.37,6.94,1.9,10.48,1.86h.5c.65,0,1.29-.04,1.94-.09.46-.04.96-.09,1.42-.13.07,0,.11-.02.17-.02,2.29-.28,4.52-.85,6.81-1.16,1.61-.22,3.27-.46,4.87-.31,2.79.28,3.73,2.58,2.2,4.98-1.05,1.64-2.44,2.79-4.17,3.51-5.24,2.18-10.72,3.16-15.71,3.75-4.93-.13-9.19-1.03-13.29-2.64-4.26-1.68-8.18-3.99-11.81-6.85-1.9-1.51-2.16-2.68-1.24-4.93.22-.55.5-1.07.83-1.57,1.22-2.1,1.33-2.16,3.54-1.35Zm106.59,7.75c-7.18,5.65-15.17,9.19-25.03,9.62-5.13-.59-10.96-1.51-16.39-4.1-1.42-.65-2.71-1.99-3.67-3.3-1.57-2.23-.57-4.52,2.07-4.85,1.53-.2,3.1-.02,4.65.17,2.1.28,4.17.89,6.31,1.13.55.07,1.07.11,1.59.15.5.07.98.11,1.46.13.63.04,1.27.09,1.88.09,2.84.09,5.65-.15,8.45-1.2,2.07-.76,4.17-1.53,6.24-2.27h.02c2.79-1.03,5.59-2.01,8.38-3.03,3.23-1.18,3.38-1.11,4.89,2.03.11.22.24.46.33.7.83,2.16.59,3.32-1.18,4.71Zm3.71,16.65c-4.91,4.37-10.3,7.97-16.35,10.3-4.76,1.83-9.76,1.77-14.03-.96-5.89-3.73-11.31-8.21-16.89-12.42-.57-.41-1-1.16-1.22-1.83-.35-1.07.24-1.81,1.27-1.51,1.09.33,2.12.89,3.08,1.53,3.34,2.2,6.77,4.23,10.54,5.48,3.4,1.09,6.87,1.77,10.39.7,2.68-.81,5.33-1.72,7.86-2.92,5.43-2.6,10.78-5.41,16.33-8.21,2.79,4.17,2.6,6.66-.96,9.84Zm-14.69,60.56c1.29.2,2.51.26,3.67.61,2.64.76,5.19.39,7.7-.55.74-.28,1.48-.59,2.6-1.05-1.94,4.8-4.58,6.79-7.88,6.29-2.86-.41-5.78-2.84-6.09-5.3Zm-8.29-12.09c8.9,5.41,17.24,5,24.95-3.1-1.11,6.81-5.98,10.56-13.31,10.63-5.96.07-10.83-3.08-11.63-7.53Zm-14.01-25.16c2.34,1.79,4.58,3.25,6.53,5.04,4.06,3.73,8.64,6.24,13.9,7.31,4.52.94,8.67-.09,12.09-3.47,1.79-1.77,3.47-3.64,5.13-5.54,1.27-1.44,2.42-2.99,3.64-4.5.17.07.35.11.52.15.31,2.01.7,4.04.11,6.05-2.4,8.05-7.12,13.9-14.97,16.43-4.32,1.4-8.45.37-12.29-2.05-4.02-2.55-7.01-6.13-9.69-10.11-1.33-1.96-2.73-3.88-4.04-5.85-.63-.92-1.22-1.9-.94-3.47Zm-13.49-21.59s0-.04.02-.07c.11-.15.22-.31.35-.44.52-.55,1.22-.76,2.01-.35.63.33,1.31.72,1.83,1.24,2.55,2.42,5.19,4.74,7.53,7.36,3.67,4.1,7.99,7.11,12.85,9.28,2.95,1.29,6.07,1.75,9.15.65,2.23-.81,4.45-1.75,6.55-2.88,4.21-2.29,8.27-4.85,11.74-8.34.22.07.42.15.63.22-.15,1.51-.15,3.03-.41,4.5-1.38,7.14-5.96,11.37-11.92,14.38-3.03,1.55-6.02,2.14-9.19.46-.96-.48-2.01-.72-3.01-1.09-6.05-2.14-11.11-5.81-15.41-10.67-1.85-2.07-3.82-3.99-5.78-5.96-2.05-2.03-4.15-4.06-6.18-6.09-.11-.09-.2-.15-.26-.24-.11-.11-.2-.2-.28-.31-.04-.55-.11-1.09-.22-1.66Zm2.25-37.82c1-.2,2.07-.15,3.1-.04.2.02.39.04.57.07.09.02.15.02.24.04,1.88.26,3.71.76,5.57,1.03.94.15,1.88.26,2.84.33.44.04.87.09,1.33.11.22,0,.41.02.63,0,3.25.11,6.53-.31,9.73-1.64,3.95-1.62,8.05-2.95,12.07-4.41.09-.02.15-.04.24-.09.68-.22,1.4-.44,2.2-.72.59.94,1.22,1.75,1.68,2.62.28.55.48,1.03.59,1.48.48,1.66-.04,2.84-1.83,3.99-.52.35-1.03.68-1.55,1.03-2.53,1.66-5.13,3.27-7.86,4.5-4.04,1.86-8.25,2.99-12.59,2.86-1.07-.02-2.12-.13-3.19-.31-.48-.07-1-.17-1.51-.28-3.19-.76-6.35-1.62-9.49-2.58-1.22-.37-2.29-1.03-3.21-1.94-.09-.09-.15-.15-.22-.24-.39-.39-.72-.83-1.03-1.31-1.27-2.07-.59-3.99,1.68-4.5Zm-2.86-12.09c0-.76.2-1.53.33-2.51.72-.04,1.2-.09,1.68-.11,5.17-.02,10.28-.46,15.37-1.31,2.18-.37,4.39-.81,6.57-1.33,3.67-.87,7.27-2.01,10.96-2.9h.07c1.09.35,1.94,1.22,2.44,2.44.85,2.1.35,4.02-1.83,5.41-2.36,1.46-4.82,2.71-7.33,3.82-4.17,1.81-8.45,2.44-12.79,2.68v.07c-3.3.17-6.57.15-9.89.33-3.78.2-5.65-2.47-5.56-6.59Zm-.02-9.23c-.15-1.57.72-2.53,1.83-3.12,1.72-.92,3.6-1.79,5.5-2.12,3.71-.68,7.4-1.29,11.02-2.31,2.23-.63,4.39-1.42,6.5-2.47h.02c.26.15.5.37.72.65.96,1.2,1.57,2.6,1.2,4.26-.37,1.66-1.57,2.27-2.95,2.51-2.47.44-4.95.89-7.42,1.35,0,.09,0-.09,0,0-2.58.44-5.15,1.09-7.73,1.46-1.62.24-3.23.35-4.87.46-.2,0-.41.02-.61.04-1.03.04-2.03.11-3.06.17-.11-.28-.15-.57-.17-.81v-.09Zm-.35-17.02c.17-1.66,1.11-3.01,2.58-4.06,2.16-1.55,4.63-2.07,7.2-2.25,1.94-.09,3.84.2,5.17,1.81,2.51,3.08,3.36,6.63,2.1,10.54-.22.63-.81,1.44-1.35,1.59-2.97.72-5.91,1.37-8.9,1.79-2.12.31-3.86-.87-4.91-2.75-.17-.35-.37-.72-.52-1.09-.04-.09-.07-.15-.11-.24,1.22-.83,2.27-1.99,2.34-5.96-1.24-.5-2.42.55-3.58.61Zm-14.47-.33c-.74-.24-1.46-.57-2.2-.55-.57,1.9-.26,3.43.44,4.3.35.41.7.79,1.07,1.16-.02.11-.07.2-.11.31-.07.17-.13.35-.22.52-1.2,2.82-3.19,4.28-6.26,4.32-2.77-.72-5.56-1.37-8.29-2.23-.55-.17-1.07-1.03-1.27-1.68-.07-.17-.11-.33-.15-.5,0-.02,0-.04-.02-.07-.2-.68-.28-1.35-.33-2.03.02-.02,0-.04,0-.07-.15-2.25.48-4.41,1.66-6.46,1.05-1.86,2.62-2.79,4.63-2.97,2.4-.22,4.76.24,6.98,1.22,2.36,1.05,3.71,2.64,4.08,4.71Zm-.17,17.22c-.04.28-.09.57-.17.87-.55.02-1.11.13-1.66.09-.11,0-.2-.02-.31-.02-.17-.02-.37-.02-.55-.04-2.01-.11-4.02-.24-6.02-.52-2.38-.37-4.78-.96-7.18-1.33-.02-.07,0,.07,0,0-2.51-.44-5.04-.87-7.55-1.31-.46-.09-.92-.17-1.35-.35-1.96-.76-2.68-2.55-1.94-4.74.46-1.42,1.07-2.23,1.88-2.55h.02c.22.04.44.13.68.22,2.12.76,4.23,1.51,6.37,2.2,1.29.44,2.58.83,3.91,1.2,2.2.61,4.56.63,6.79,1.2,1.79.44,3.6,1.13,5.26,2.01,1.13.59,1.92,1.55,1.83,2.95v.13Zm-.2,11.04c-.46,3.12-1.86,4.52-4.85,4.91-1.2.17-2.44.04-3.67,0-2.1-.11-4.17-.31-6.24-.35v-.04c-6.4-.13-12.44-1.88-18.2-4.89-1.05-.55-2.05-1.22-2.99-1.99-1.59-1.31-2.03-2.9-1.46-4.71.46-1.4,1.46-2.4,2.73-2.75h.02c.9.17,1.79.46,2.68.72,5.06,1.46,10.17,2.82,15.37,3.58,1.05.17,2.1.31,3.12.41,4.32.44,8.66.72,13.51,1.11,0,1.31.17,2.68-.02,3.99Zm-1.09,14.95c-.26.44-.55.81-.9,1.18-.07.09-.13.15-.22.24-.92.98-2.05,1.7-3.34,2.07-3.4.96-6.83,2.01-10.32,2.6-.04.02-.11.04-.15.04-1.05.17-2.12.28-3.21.31h-.09c-1.44.04-2.88-.04-4.28-.2-5.57-.65-10.61-2.88-15.3-5.98-.55-.37-1.11-.74-1.66-1.13-2.79-2.01-3.62-3.32-2.77-5.46v-.02c.26-.72.72-1.53,1.35-2.49.17-.26.42-.5.83-1,.74.26,1.44.46,2.1.7.2.07.37.13.57.2,4.56,1.64,9.17,3.3,13.71,4.95,2.18.79,4.43,1.13,6.68,1.05h.2c.31-.02.57-.07.87-.09.41-.04.87-.09,1.29-.15.42-.04.85-.11,1.27-.15,2.58-.33,5.13-.76,7.7-1.09.2-.02.39-.04.61-.07.26-.04.52-.07.79-.09.83-.09,1.68-.11,2.49.02,2.44.44,3.16,2.42,1.79,4.56Zm-12.9,48.41c-3.73,3.78-7.81,7.07-12.68,9.1-1.92.81-3.91,1.33-5.78,2.14-2.44,1.05-4.82.94-7.14-.28-2.2-1.18-4.41-2.31-6.39-3.84-4.98-3.82-7.07-9.19-7.12-16.15,1.31,1.07,2.14,1.72,2.97,2.42,4.56,3.73,9.45,6.77,14.91,8.86,2.2.87,4.43,1.03,6.74.55,6-1.24,10.8-4.74,15.15-9.06,2.66-2.66,5.33-5.35,8.03-7.94.72-.7,1.57-1.24,2.42-1.75.63-.37,1.24-.31,1.72.07.15.09.31.22.44.37-.04.2-.09.41-.11.61-.11.61-.17,1.2-.17,1.79-.17.17-.37.37-.57.55-.52.57-1.09,1.11-1.64,1.66-3.6,3.64-7.16,7.29-10.78,10.91Zm-35.99,42.89c.41.13.7.2.96.33,3.23,1.51,6.53,2.07,10,.87.83-.31,1.83-.13,2.84-.2-.72,2.79-4.06,5.15-7.03,5.19-2.95.07-5.63-2.34-6.77-6.2Zm-2.88-13.75c7.81,7.51,16.11,7.86,25.23,2.29-1.59,3.99-4.34,6.46-7.79,7.27-2.77.65-5.5.52-8.27,0-3.1-.57-5.52-2.12-7.16-4.93-.61-1.03-1.16-2.07-1.68-3.14-.2-.46-.22-.98-.33-1.48Zm-2.73-24.25c.85,1.05,1.4,1.75,1.99,2.42,2.44,2.77,4.82,5.61,7.4,8.25,2.44,2.51,5.54,3.64,8.99,3.51,6.18-.2,11.33-3.03,16.06-6.94,2.34-1.94,4.78-3.78,7.18-5.65.13.13.31.24.46.35-.33.85-.5,1.79-.98,2.49-2.27,3.36-4.58,6.72-7.01,9.95-2.31,3.06-5.09,5.63-8.45,7.38-4.63,2.36-9.25,2.53-13.97.11-5.89-3.03-9.56-7.99-11.68-14.3-.79-2.29-.59-4.67,0-7.57Z"/><path class="cls-2" d="m244.13,792c.25.96.59,1.98.76,3.03.35,2.04.77,4.08.83,6.13.05,1.41-.02,2.71.9,3.24-.19,1.11-.66,2.06-.37,2.59.68,1.25.47,2.41.32,3.67-.1.81.1,1.66.18,2.6,1.36-.18,2.36-.31,3.83-.5-1.04.87-1.83,1.27-2.22,1.91-.52.85.56,1.37.76,2,.89,2.81,1.49,5.71,2.15,8.59.33,1.44,1.06,2.24,2.81,1.97-.16-1.93.29-3.76-.48-5.75-.64-1.64-.37-3.64-.49-5.48-.02-.34.17-.94.05-1-1.9-1.04-1.07-3.37-2.32-4.77-.57-.64-.55-1.82-.78-2.76-.27-1.12-1.07-2.56-.65-3.29.76-1.32.12-2.21-.11-3.3-.52-2.46-1.11-4.93-1.44-7.42-.37-2.77-1.16-3.18-3.75-1.45Z"/><path class="cls-2" d="m261.08,812.88c-1.28,1-2.85.76-4.3,1.08-.64.14-1.51.39-1.78.87-.44.8.54,1.07.99,1.59.84.98,1.47,2.18,2.05,3.35.61,1.22,1.05,2.52,1.83,3.72.82-1.44,1-2.72.05-4.13-.78-1.17-1.59-2.43-1.12-4.16,1.32,0,2.16.54,2.63,1.76.54,1.41,1.11,2.81,1.7,4.21.13.29.41.52.82,1,.58-1.43.7-2.59-.02-3.69-1.02-1.56-1.63-3.18-1.08-5.16-.73-.15-1.3-.28-1.88-.4,0,0,.11-.05.11-.05Z"/><path class="cls-2" d="m264.74,812.35c-.2-.58-.29-1.22-.62-1.72-1.31-2.03-2.67-4.02-4.07-5.99-.28-.4-.82-.61-1.35-.99-.36.49-.65.88-1,1.36-.41-.36-.8-.7-1.19-1.04,0,0,.07-.04.07-.04-1.37.88-1.04,1.9-.18,2.89,1.23,1.43,2.35,2.88,2.6,4.85.15,1.14,1.15,1.19,2.07,1.2,0,0-.11.05-.11.05.25-.54.5-1.08.62-1.35,1.17.27,2.21.5,3.25.74,0,0-.1.03-.1.03Z"/><path class="cls-2" d="m254.14,801.53c-.41-1.04-.98-2.05-1.19-3.13-.36-1.85-.5-3.75-.75-5.76l-3.13-.99c.24,1,.45,1.73.58,2.47.43,2.4.83,4.8,1.24,7.2.12.71.13,1.47.41,2.11.18.41.74.89,1.16.9.41.02,1.04-.41,1.22-.8.29-.63.3-1.39.42-2.1,0,0,.04.1.04.1Z"/><path class="cls-2" d="m254.09,801.43c.17.49.36.97.5,1.47.3,1.06.97,1.37,1.99,1.03,0,0-.07.04-.07.04-.14-1.56-.28-3.11-.43-4.66.09-.02.19-.03.28-.05.45,1,.9,2.01,1.35,3.01.72-2.12-.38-3.82-.78-5.84-1.12-.2-2.22-.4-3.34-.61.19,2.06.37,3.89.54,5.71,0,0-.04-.11-.04-.11Z"/><path class="cls-2" d="m255.47,813.24c1.31-.17,1.85-.73,1.47-1.68-.78-1.89-1.62-3.76-2.61-5.55-.22-.4-1.15-.41-2.09-.71.47,3.18,1.91,5.49,3.23,7.94Z"/><path class="cls-2" d="m253.71,790.49c-.65.18-1.3.36-1.98.55.89,1.39,1.74,2.69,2.64,4.1,1.23.17,1.56-.74,1.77-1.74.19-.94-.33-1.5-1.08-1.95-.49-.3-.96-.64-1.42-.97.01,0,.06,0,.06,0Z"/><path class="cls-2" d="m264.84,812.32c-.42.28-.85.56-1.2.8,1.04,1.86,1.98,3.56,2.92,5.25.14-.04.28-.07.42-.11,0-.49.1-1.01-.01-1.47-.33-1.27-.7-2.54-1.17-3.77-.12-.31-.7-.45-1.06-.67,0,0,.11-.03.11-.03Z"/><path class="cls-2" d="m196.22,141.62c1.46.96,3.23,1.72,4.95,2.01,3.19.52,6.46.92,9.69.87,6.74-.09,13.29,1.22,19.84,2.55,2.66.55,5.3,1.13,7.97,1.62,3.6.65,6.94,1.94,10.04,3.97.44-.57.74-.96,1.22-1.57.33,1.16.59,2.16.89,3.32-2.33,1.2-4.8,1.09-7.18,1.29,0,0,.22,2.27,1.77,2.75.15.04.33.07.48.09.59.11,1.18.2,1.77.15,1.16-.09,2.29-.48,3.4-.83,2.92-.89,5.7-.68,8.38.83.79.44,1.66.85,2.51.92.7.04,1.75-.26,2.07-.76.33-.52.15-1.62-.2-2.23-.48-.83-1.27-1.53-2.05-2.12-2.01-1.55-4.08-2.97-6.11-4.47-1.27-.94-2.66-1.05-4.39-.63.15-.52.24-.89.37-1.31-.17-.15-.35-.37-.59-.46-9.17-3.47-18.49-6.15-28.39-6.5-4.43-.15-8.82-.72-13.25-.94-4.47-.22-8.16-2.01-11.33-5.09-1.07-1.03-2.25-1.94-3.43-2.92-1.88,3.16-1.13,7.73,1.55,9.47Z"/><path class="cls-2" d="m268.41,301.72c2.28-.13,3.72-1.66,5.24-3.08,1.03-.96,2.1-1.88,3.19-2.85.75.66,1.22,1.07,1.69,1.48,2.36,2.05,4.86,2.22,7.42.43,2.07-1.45,3.41-3.48,4.23-5.83.6-1.7.16-3.25-1.14-4.46-1.26-1.17-2.55-2.3-3.93-3.32-3.49-2.58-5.83-5.94-6.79-10.14-1.33-5.81-2.51-11.65-3.71-17.48-2.09-10.2-2.96-20.56-3.84-30.92-.92-10.81-1.76-21.62-2.41-32.45-.29-4.77.12-9.57-.05-14.35-.16-4.68-.55-9.37-1.06-14.03-.24-2.14-1.48-3-3.81-3.05-1.25-.02-2.11-.33-3.05-1.25-2.27-2.2-5.08-2.61-8.05-1.65-6.47,2.1-9.55,7.73-7.79,14.32.87,3.25,2.46,5.9,5.69,7.5,2.87,1.42,4.8,3.83,5.33,7.1,1.3,8.02,2.77,16.03,3.78,24.08,1.58,12.55,2.93,25.13,4.2,37.72.9,8.9,1.47,17.84,2.29,26.74.38,4.15-.58,7.86-2.79,11.35-.96,1.52-1.81,3.13-2.56,4.76-.75,1.64-.72,3.31.34,4.99.38-.05.73-.06,1.04-.16,1.98-.64,2.13-.56,3.41,1,1.02,1.24,2.14,2.4,3.21,3.59l-.08-.05Z"/><g class="cls-5"><path class="cls-1" d="m317.65,392.48c.11.24.22.46.31.7-.02-.11-.04-.22-.04-.35s-.11-.24-.26-.35Z"/><path class="cls-1" d="m318.48,406.23s.05.01.05,0h0s-.02.01-.03.02c-.02,0-.02-.01-.03-.03Z"/><path class="cls-1" d="m318.51,406.26s-.03,0-.04.01l-.04-.06s.03,0,.05.02c.02,0,.05.01.05,0h0s-.02.01-.03.02Z"/><path class="cls-1" d="m331.06,426.09c.63,3.09,2.41,5.59,4.28,8.03.68.89,1.29,1.76.98,3.04.29.07.57.17.86.23.31.06.62.11,1.06.17.26,1.61.24,3.24.85,4.63.56,1.33,1.79,2.39,2.96,3.87-.77.51-1.41,1.02-2.12,1.38-.78.39-1.42.03-1.79-.89-.33-.84-.52-1.74-.95-2.52-.64-1.15-1.28-2.43-2.2-3.28-.92-.86-.63-2.15-1.28-2.68-.82-.65-1.47-1.18-1.68-2.24-.51-2.54-1.88-4.6-3.65-6.49-1.01-1.07-2.31-2.12-1.87-4.02-2-.35-2.71-1.87-3.25-3.72-1.59-5.44-3.75-8.56-8.39-12.22.12.8.12,1.44.32,2.02,1.08,3.16,2.55,6.14,4.69,8.79.66.81,1.21,1.79,1.6,2.76.51,1.32.06,2.38-.89,3.12-1.33,1.05-2.89.45-3.06-1.42-.26-2.95-1.76-5.41-3.03-7.96-.84-1.68-2-3.21-3.04-4.79-.59-.91-1.4-1.81-.85-2.87.55-1.06,1.52-1.77,2.75-1.39.97.3,1.38-.14,2.04-.49.92-.49,2.02-.62,3.06-.89.64.92,1.58,1.81,1.84,2.79,1.07,4.1,3.68,7.2,6.31,10.27,1.79,2.09,1.98,2.3,1.95,4.82,1.44-.33,2.21.52,2.49,1.95Z"/><path class="cls-1" d="m265.08,307.21c.22.65.55,1.37,1,1.9,2.71,3.16,4.15,6.96,5.39,10.85,2.36,7.4,4.71,14.82,6.9,22.28,2.05,7.01,3.56,14.21,5.94,21.13,2.92,8.51,6.55,16.81,9.8,25.23.96,2.42,1.75,4.91,2.62,7.38.37,1.09.61,2.27,1.09,3.32.81,1.77,1.22,2.07,2.6,1.46.02.15.07.31.09.48.52,2.47,1.48,3.56,3.69,4.19.87,3.32,1,3.43,3.78,3.16l-.11-.02c1.29-.41,1.05-2.49,2.68-2.55-.68-1.53-1.31-2.95-1.92-4.37.15-.07.31-.13.48-.2.41.96.79,1.94,1.24,2.88.85,1.81,2.42,2.47,3.93,1.68,1.62-.85,1.75-2.12.46-4.02-.65-.98-1.29-1.96-1.85-2.99-.46-.81-.83-1.35-1.22-1.68h.09l.63.09,1.79.24.5.07c.09.02.15.04.24.04l.68.09.61.09c.07,0,.13.02.17.02h.02l.11.02c-.02.44,0,.85.17,1.18.48.98,1.68,1.57,2.68,2.42-.35.41-.48.81-.48,1.22,0,.85.59,1.7,1.27,2.55.81.61,1.64,1.16,2.4,1.81,3.43,2.97,5.57,6.74,6.77,11.13.5,1.86,1.33,3.4,3.45,3.47-.26,1.64.74,2.49,1.72,3.47.96,1,1.94,2.12,2.58,3.36,1,1.96.59,4.65,2.97,5.96-.13,1.79,1.35,2.64,2.14,3.88.41.68.96,1.48.96,2.18,0,1.66.98,2.9,1.72,4.08.59.92,1.29,1.57,1.27,2.77,0,.94.68,1.48,1.51,1.44,1-.07.94-.89.74-1.75-.63-2.75-1.55-5.39-3.12-7.81-.39-.59-.7-1.29-.85-1.96-.31-1.48.17-3.27-1.88-3.99-.07-.02.02-.48-.07-.7-.15-.57-.22-1.31-.59-1.7-2.12-2.16-3.06-4.8-3.64-7.68-.2-1.05-.83-2.03-1.27-3.06-.87.26-1.42.41-2.07.61.74-2.62.74-2.79-1.27-4.41-2.18-1.75-3.88-3.82-5.17-6.42-1.37-2.73-3.25-5.17-4.08-8.23-.39-1.46-1.18-1.77-2.49-1.55-.39.07-.76.24-1.57.48.92-1.68.26-2.84-.33-4.1-.39-.85-1.11-1.51-1.57-2.29-.02-.02-.02-.04-.02-.04-.22-.35-.37-.72-.42-1.13-.09-.24-.2-.46-.31-.7-1.68-4.15-3.54-8.23-5.04-12.46-2.1-6.05-4.08-12.16-5.7-18.35-3.78-14.56-8.67-28.68-15.5-42.12-1.75-3.45-2.77-7.22-3.97-10.91-.61-1.83-.52-3.75.24-5.59.2-.41.31-.85.37-1.31.28-1.88-.44-2.64-2.23-2.14-1.92.55-3.69,1.18-5.76.7-1.7-.39-1.44,1.42-1.92,2.47-.68-.15-1.33-.33-2.01-.48-1.37-.28-2.49.04-3.3,1.29-.87,1.31-1.99,2.03-3.6,1.48-.9,0-1.79,0-2.68.04-1.48.07-1.92.68-1.48,2.12Zm37.56,91.84c.24-.41.5-.81.76-1.24.09.41.31.85.63,1.29.52.72,1.35,1.35,1.24,2.95-1-1.16-1.86-2.07-2.64-2.99Zm-23.62-94.39c2.29,1.59,2.49,4.08,2.68,6.5.22,2.64.76,5.15,1.88,7.57,2.14,4.69,4.13,9.43,6.33,14.08,3.64,7.62,6.85,15.34,8.34,23.7,1.46,8.29,3.01,16.54,4.37,24.86.72,4.43,1.11,8.93,1.66,13.4-.11.04-.24.07-.37.09-.7-1.35-1.35-2.73-2.05-4.1-4.17-8.25-7.55-16.85-9.82-25.78-2.1-8.21-3.36-16.65-4.87-25.01-.79-4.43-1.24-8.95-1.99-13.4-.35-2.03-.63-4.28-1.7-5.94-1.92-2.99-2.51-6.18-2.58-9.56-.02-2.23-.22-4.28-1.94-5.91-.07-.07.02-.35.07-.5Z"/><path class="cls-1" d="m348.34,408.49c-1.96-1.44-3.55-2.71-5.23-3.79-.7-.45-1.6-.63-2.41-.73-1.22-.16-2.55.15-3.08-1.68-.02-.08-.09-.24-.1-.24-2.28.25-3.23-2.21-4.94-3.14-1.96-1.06-3.87-2.09-5.99-1.51-.35.09-.79-.07-1.28-.13-.69-1.53-.52-2.97-.43-4.36.08-1.23.72-1.54,1.87-1.06.63.26,1.23.67,1.81,1.07,2.4,1.61,4.88,2.79,7.63,2.85,1.12.02,1.97.59,2.89,1.5,2.15,2.12,4.46,4.05,6.76,5.99.52.43,1.23.62,1.87.86,1.9.71,2.36,1.61,1.55,3.27-.23.48-.67.83-.9,1.11Z"/><path class="cls-1" d="m305.94,409.45c1.34.09,2.12.64,2.36,2.22.62,3.96,2.2,7.58,5.09,10.69,1.24,1.33,1.35,2.03,1.13,4.22,1.02-.11,1.77.26,1.95,1.47.11.77.13,1.6.45,2.3.5,1.1,1.08,2.26,1.89,3.12,1.43,1.51,1.52,1.43.49,2.99.56-.17,1.13-.33,1.77-.52.33.98.54,1.83.9,2.62.37.8.89,1.55,1.43,2.47-.71.55-1.39,1.08-2.09,1.63-.93-1.64-1.77-3.04-2.52-4.48-.37-.73-.65-1.29-1.53-1.61-.46-.17-.85-1.08-1.1-1.7-.79-1.9-1.81-3.61-3.05-5.32-1.54-2.11-3.29-4.12-3.6-7.05-.32-2.99-2.13-5.8-4.08-8.33-2.19-2.84-2.17-3.15.6-4.7,0,0-.1,0-.1,0Z"/><path class="cls-1" d="m328.24,439.16c-1.47,1.04-3.03.85-3.51-1.77-.51-2.76-1.82-5.14-3.98-7.12-1.79-1.64-1.64-2.36.34-3.24,2.87-1.28,3.42-.99,3.85,2.42.3,2.4,1.15,4.33,3.03,6.02,1.83,1.64,1.79,2.68.27,3.69Z"/><path class="cls-1" d="m334.84,448.45c.37.36.94.68,1.11,1.12.44,1.14.66,2.34,1.03,3.51.26.83.43,1.69-.39,1.98-.99.35-1.61-.46-1.76-1.42-.22-1.46-1.05-2.37-2.11-3.26-.57-.48-1.15-1.21-1.36-1.91-.71-2.33-1.44-4.59-3.46-6.22-.28-.23-.36-.78-.58-1.29,1.07-.93,1.95-2.05,3.94-1.51-.08,2.68,1.14,4.87,2.99,6.86.42.45.39,1.36.58,2.14Z"/><path class="cls-1" d="m339.13,449.3c.9-1.55,2.17-1.49,3.32-1.68.59,1.77,1.13,3.39,1.67,5.02.27.82.35,1.64-.49,1.91-.94.3-1.64-.36-1.83-1.32-.32-1.62-.85-3.03-2.67-3.93Z"/><path class="cls-1" d="m321.74,397.71c-1.45-1.35-1.26-3.15-1.84-4.9,1.3-.29,2.38-.33,3.19.94.6.94-.03,2.67-1.35,3.96Z"/><path class="cls-1" d="m323.96,441.78c.75,1.53,1.2,2.57,1.77,3.55.46.8.7,1.53-.09,1.95-.71.38-1.18-.26-1.62-.88-.7-.97-1.46-1.9-2.4-3.1.79-.51,1.56-1.01,2.35-1.52Z"/></g><path class="cls-2" d="m70.75,291.87c.83,2.36,2.16,4.39,4.23,5.83,2.58,1.79,5.06,1.64,7.42-.44.48-.39.94-.81,1.7-1.46,1.07.96,2.14,1.88,3.16,2.84,1.53,1.42,2.95,2.95,5.22,3.1,1.05-1.18,2.16-2.31,3.16-3.54,1.27-1.57,1.42-1.66,3.4-1,.33.11.68.11,1.05.15,1.07-1.68,1.09-3.34.35-4.98-.76-1.64-1.62-3.25-2.58-4.78-2.2-3.47-3.16-7.2-2.79-11.35.83-8.9,1.4-17.83,2.29-26.74,1.29-12.59,2.64-25.16,4.21-37.71,1-8.05,2.49-16.06,3.78-24.09.55-3.27,2.47-5.67,5.33-7.09,3.23-1.59,4.82-4.26,5.7-7.51,1.77-6.59-1.31-12.22-7.79-14.32-2.97-.96-5.78-.55-8.05,1.66-.94.89-1.79,1.22-3.06,1.24-2.31.04-3.56.89-3.8,3.03-.52,4.67-.89,9.34-1.07,14.03-.15,4.78.24,9.58-.04,14.36-.65,10.83-1.48,21.63-2.4,32.43-.9,10.37-1.77,20.71-3.84,30.93-1.2,5.83-2.38,11.68-3.71,17.48-.96,4.21-3.32,7.57-6.79,10.15-1.37,1-2.68,2.14-3.93,3.32-1.31,1.2-1.75,2.75-1.16,4.45Z"/><path class="cls-1" d="m92.44,301.77l.09-.04h-.04l-.04.04Z"/><g class="cls-5"><path class="cls-1" d="m42.97,393.17c.09-.24.2-.48.31-.72-.15.13-.26.26-.26.37s-.02.24-.04.35Z"/><path class="cls-1" d="m42.44,406.23s-.05.01-.05,0h0s.02.01.03.02c.02,0,.02-.01.03-.03Z"/><path class="cls-1" d="m42.41,406.26s.03,0,.04.01l.04-.06s-.03,0-.05.02c-.02,0-.05.01-.05,0h0s.02.01.03.02Z"/><path class="cls-1" d="m29.86,426.09c-.63,3.09-2.41,5.59-4.28,8.03-.68.89-1.29,1.76-.98,3.04-.29.07-.57.17-.86.23-.31.06-.62.11-1.06.17-.26,1.61-.24,3.24-.85,4.63-.56,1.33-1.79,2.39-2.96,3.87.77.51,1.41,1.02,2.12,1.38.78.39,1.42.03,1.79-.89.33-.84.52-1.74.95-2.52.64-1.15,1.28-2.43,2.2-3.28.92-.86.63-2.15,1.28-2.68.82-.65,1.47-1.18,1.68-2.24.51-2.54,1.88-4.6,3.65-6.49,1.01-1.07,2.31-2.12,1.87-4.02,2-.35,2.71-1.87,3.25-3.72,1.59-5.44,3.75-8.56,8.39-12.22-.12.8-.12,1.44-.32,2.02-1.08,3.16-2.55,6.14-4.69,8.79-.66.81-1.21,1.79-1.6,2.76-.51,1.32-.06,2.38.89,3.12,1.33,1.05,2.89.45,3.06-1.42.26-2.95,1.76-5.41,3.03-7.96.84-1.68,2-3.21,3.04-4.79.59-.91,1.4-1.81.85-2.87-.55-1.06-1.52-1.77-2.75-1.39-.97.3-1.38-.14-2.04-.49-.92-.49-2.02-.62-3.06-.89-.64.92-1.58,1.81-1.84,2.79-1.07,4.1-3.68,7.2-6.31,10.27-1.79,2.09-1.98,2.3-1.95,4.82-1.44-.33-2.21.52-2.49,1.95Z"/><path class="cls-1" d="m13.29,448.91c.85.04,1.53-.5,1.53-1.44-.02-1.2.68-1.86,1.24-2.77.76-1.18,1.75-2.42,1.75-4.08,0-.7.52-1.51.96-2.18.76-1.24,2.25-2.1,2.12-3.88,2.4-1.31,1.99-3.99,2.99-5.96.63-1.24,1.59-2.36,2.58-3.36.96-.98,1.99-1.83,1.7-3.47,2.14-.07,2.95-1.62,3.47-3.47,1.2-4.39,3.34-8.16,6.77-11.13.76-.65,1.59-1.2,2.42-1.81h-.04c.7-.85,1.27-1.72,1.27-2.55,0-.41-.13-.83-.46-1.22.98-.85,2.2-1.44,2.68-2.42.17-.33.2-.74.17-1.18l.09-.02h.02s.11-.02.17-.02l.63-.09.68-.09c.09,0,.15-.02.24-.04l.48-.07,1.81-.24.63-.09h.09c-.39.33-.76.87-1.22,1.68-.57,1.03-1.2,2.01-1.86,2.99-1.29,1.9-1.18,3.16.44,4.02,1.51.79,3.08.13,3.95-1.68.44-.94.83-1.92,1.24-2.88.15.07.33.13.48.2-.63,1.42-1.24,2.84-1.92,4.37,1.64.07,1.4,2.14,2.66,2.55l-.09.02c2.77.26,2.88.15,3.78-3.16,2.2-.63,3.16-1.72,3.69-4.19.02-.17.07-.33.09-.48,1.37.61,1.81.31,2.6-1.46.48-1.05.72-2.23,1.09-3.32.85-2.47,1.66-4.95,2.6-7.38,3.27-8.42,6.87-16.72,9.82-25.23,2.38-6.92,3.86-14.12,5.94-21.13,2.18-7.46,4.54-14.88,6.9-22.28,1.22-3.88,2.66-7.68,5.39-10.85.44-.52.76-1.24.98-1.9.46-1.44,0-2.05-1.48-2.12-.89-.04-1.79-.04-2.68-.04-1.59.55-2.73-.17-3.58-1.48-.81-1.24-1.94-1.57-3.3-1.29-.68.15-1.35.33-2.01.48-.48-1.05-.22-2.86-1.92-2.47-2.1.48-3.86-.15-5.76-.7-1.81-.5-2.51.26-2.25,2.14.07.46.2.89.37,1.31.76,1.83.85,3.75.26,5.59-1.2,3.69-2.25,7.46-3.99,10.91-6.81,13.44-11.72,27.57-15.47,42.12-1.62,6.2-3.6,12.31-5.72,18.36-1.48,4.23-3.34,8.32-5.02,12.44-.11.24-.22.48-.31.72-.07.46-.24.87-.46,1.24,0,0-.02,0-.02.02-.48.74-1.16,1.4-1.53,2.2-.59,1.27-1.24,2.42-.33,4.1-.81-.24-1.18-.41-1.57-.48-1.31-.22-2.12.09-2.51,1.55-.81,3.06-2.71,5.5-4.06,8.23-1.29,2.6-2.99,4.67-5.17,6.42-2.03,1.62-2.01,1.79-1.29,4.41-.65-.2-1.2-.35-2.07-.61-.41,1.03-1.05,2.01-1.27,3.06-.59,2.88-1.51,5.52-3.62,7.68-.37.39-.44,1.13-.61,1.7-.07.22,0,.68-.07.7-2.03.72-1.55,2.51-1.86,3.99-.15.68-.48,1.37-.85,1.96-1.57,2.42-2.51,5.06-3.14,7.81-.2.85-.24,1.68.74,1.75Zm45.79-58.16c-.7,1.37-1.37,2.75-2.05,4.1-.13-.02-.26-.04-.39-.09.55-4.47.96-8.97,1.68-13.4,1.35-8.32,2.9-16.57,4.34-24.86,1.48-8.36,4.71-16.09,8.34-23.7,2.23-4.65,4.19-9.38,6.33-14.08,1.11-2.42,1.68-4.93,1.88-7.57.2-2.42.41-4.91,2.71-6.5.02.15.13.44.07.5-1.72,1.64-1.92,3.69-1.96,5.91-.04,3.38-.63,6.57-2.55,9.56-1.07,1.66-1.35,3.91-1.7,5.94-.76,4.45-1.2,8.97-1.99,13.4-1.51,8.36-2.79,16.81-4.87,25.01-2.29,8.93-5.65,17.53-9.82,25.78Zm-3.43,11.28c-.11-1.59.7-2.23,1.22-2.95.33-.46.57-.87.65-1.29.26.44.5.83.76,1.24-.79.92-1.64,1.83-2.64,2.99Zm-4.17-4.78c.5.07,1.03.22,1.55.37-.04.13-.13.26-.2.41-.33-.2-.57-.37-.83-.52-.2-.09-.35-.17-.52-.26Z"/><path class="cls-1" d="m12.59,408.49c1.96-1.44,3.55-2.71,5.23-3.79.7-.45,1.6-.63,2.41-.73,1.22-.16,2.55.15,3.08-1.68.02-.08.09-.24.1-.24,2.28.25,3.23-2.21,4.94-3.14,1.96-1.06,3.87-2.09,5.99-1.51.35.09.79-.07,1.28-.13.69-1.53.52-2.97.43-4.36-.08-1.23-.72-1.54-1.87-1.06-.63.26-1.23.67-1.81,1.07-2.4,1.61-4.88,2.79-7.63,2.85-1.12.02-1.97.59-2.89,1.5-2.15,2.12-4.46,4.05-6.76,5.99-.52.43-1.23.62-1.87.86-1.9.71-2.36,1.61-1.55,3.27.23.48.67.83.9,1.11Z"/><path class="cls-1" d="m54.98,409.45c-1.34.09-2.12.64-2.36,2.22-.62,3.96-2.2,7.58-5.09,10.69-1.24,1.33-1.35,2.03-1.13,4.22-1.02-.11-1.77.26-1.95,1.47-.11.77-.13,1.6-.45,2.3-.5,1.1-1.08,2.26-1.89,3.12-1.43,1.51-1.52,1.43-.49,2.99-.56-.17-1.13-.33-1.77-.52-.33.98-.54,1.83-.9,2.62-.37.8-.89,1.55-1.43,2.47.71.55,1.39,1.08,2.09,1.63.93-1.64,1.77-3.04,2.52-4.48.37-.73.65-1.29,1.53-1.61.46-.17.85-1.08,1.1-1.7.79-1.9,1.81-3.61,3.05-5.32,1.54-2.11,3.29-4.12,3.6-7.05.32-2.99,2.13-5.8,4.08-8.33,2.19-2.84,2.17-3.15-.6-4.7,0,0,.1,0,.1,0Z"/><path class="cls-1" d="m32.69,439.16c1.47,1.04,3.03.85,3.51-1.77.51-2.76,1.82-5.14,3.98-7.12,1.79-1.64,1.64-2.36-.34-3.24-2.87-1.28-3.42-.99-3.85,2.42-.3,2.4-1.15,4.33-3.03,6.02-1.83,1.64-1.79,2.68-.27,3.69Z"/><path class="cls-1" d="m26.08,448.45c-.37.36-.94.68-1.11,1.12-.44,1.14-.66,2.34-1.03,3.51-.26.83-.43,1.69.39,1.98.99.35,1.61-.46,1.76-1.42.22-1.46,1.05-2.37,2.11-3.26.57-.48,1.15-1.21,1.36-1.91.71-2.33,1.44-4.59,3.46-6.22.28-.23.36-.78.58-1.29-1.07-.93-1.95-2.05-3.94-1.51.08,2.68-1.14,4.87-2.99,6.86-.42.45-.39,1.36-.58,2.14Z"/><path class="cls-1" d="m21.8,449.3c-.9-1.55-2.17-1.49-3.32-1.68-.59,1.77-1.13,3.39-1.67,5.02-.27.82-.35,1.64.49,1.91.94.3,1.64-.36,1.83-1.32.32-1.62.85-3.03,2.67-3.93Z"/><path class="cls-1" d="m39.18,397.71c1.45-1.35,1.26-3.15,1.84-4.9-1.3-.29-2.38-.33-3.19.94-.6.94.03,2.67,1.35,3.96Z"/><path class="cls-1" d="m36.97,441.78c-.75,1.53-1.2,2.57-1.77,3.55-.46.8-.7,1.53.09,1.95.71.38,1.18-.26,1.62-.88.7-.97,1.46-1.9,2.4-3.1-.79-.51-1.56-1.01-2.35-1.52Z"/></g><path class="cls-2" d="m112.42,624.06c.59,2.53,1.2,5.17,1.09,7.73-.35,8.58-1.07,17.11-1.57,25.67-.35,6.02-.92,12.07-.83,18.09.15,9.32.81,18.66,1.24,28,.37,8.16.63,16.35,1.16,24.51.46,6.9,1.33,13.75,1.83,20.65.44,6.26.11,12.44-2.84,18.25-.76,1.51-1.05,3.32-1.31,5.04-.31,2.14.35,3.84,2.62,4.17-.48,1.96-1,3.73-1.31,5.54-.15.83-.04,1.75.15,2.58.33,1.27,1.13,1.79,2.4,1.16.46-.22.87-.48,1.29-.7,1.35-1.29,2.88-1.94,4.71-1.16.63.5,1.2,1.05,1.83,1.55-.7.24-1.42.37-2.2.44-2.23.15-4.15.98-5.83,2.34-.79-.22-1.48-.39-2.16-.59-2.79-.81-4.21.15-4.63,3.16,2.36-.79,5.13.98,7.29-1.22,1.16,1.22,2.58,1.22,4.04,1.13,1.31-.09,2.66-.33,3.82.61-4.76.13-6.42,2.86-4.15,6.81,1.77-.79,3.47-2.31,5.89-.65-1.16.17-2.01.26-2.86.46-4.02.92-5,3.06-3.1,6.66.87,1.64,1.31,3.3,1.03,5.19-.2,1.31-.89,2.9,1,3.73.13.07.02.65.07.98.07.59.15,1.18.24,1.81-2.64,1.51-2.68,1.77-.79,4.39-.22.52-.5,1.07-.65,1.68-.24.94.13,1.57,1.11,1.81,1.16.28,2.42-.26,2.92-1.31.26-.57.28-1.37.7-1.72,1.7-1.4,1.55-3.03.61-4.93,1.66-.33,2.71-1.07,2.47-2.77,2.27-1.62.68-2.9-.39-4.17-.96-1.13-1.13-2.36-.98-3.78.17-1.59.2-3.23.33-4.82.04-.48.13-1.22.44-1.37,1.2-.61.98-1.59.87-2.58-.35-2.88-1.64-4.93-4.74-5.41.96.04,1.92,0,2.86.15.72.09,1.37.46,2.07.59,2.2.39,3.38-.41,3.45-2.62.04-1.42-.17-2.9-.55-4.26-.72-2.53-2.29-3.36-4.15-2.23,0-.04-.02-.11-.02-.15-.35-1.94-.79-3.84-1.22-5.87.55.5,1.11.98,1.66,1.48,2.23,2.03,3.47,1.79,4.37-1.16.5-1.64.85-3.45.68-5.13-.46-4.06-1.18-8.1-1.99-12.09-1.83-9.19-3.27-18.38-2.77-27.81.59-11.37,1.03-22.76,1.46-34.16.46-12.44.76-24.9,1.31-37.36.35-7.68.61-15.36,2.53-22.89,1.77-6.98,3.21-14.01,7.42-20.14,1.68-2.42,1.96-5.37,1.68-8.56-1.46-.15-2.77-.26-4.71-.46,3.08-1.59,4.12-4.26,5.28-6.92,2.31-5.37,2.05-10.48-1.55-15.15-2.2-2.84-3.54-6.02-4.32-9.45-.81-3.54-1.68-7.03-2.29-10.56-4.28-23.81-6.35-47.8-6.33-72,.04-14.49-.41-29.01-.46-43.5-.02-3.67.26-7.46,1.24-10.96.87-3.03,1.4-5.78.35-8.8-1.29-3.6-.31-6.92,1.59-10.02,1.62-2.62,3.16-3.3,6.15-2.71,1.81.37,3.58.92,5.37,1.37,2.38.57,3.78-.17,3.88-2.53.24-4.63-.26-9.17-2.92-13.18-1.53-2.25-3.54-3.86-6.29-4.41-3.86-.81-5.5.46-5.61,4.41-.11,3.45-2.47,5.74-6.09,5.91-2.2-3.34-3.88-4.02-7.86-3.19-4.65.98-7.07,4.26-8.34,8.49-1.7,5.67-1.33,11.37.41,16.98.72,2.31,1.79,4.54,2.42,6.87.61,2.23,1.03,4.54,1.18,6.83.24,3.8.2,7.6.28,11.39.31,11.76.57,23.53.94,35.31.39,11.48.96,22.94,1.44,34.42.55,13.71,1.05,27.41,1.64,41.12.24,5.52-1.68,9.95-5.65,13.82-5.96,5.76-6.18,15.76-.83,21.93l6.2,1.7c.63-.31,1.29-.61,2.2-1.03-.44-1.05-.87-1.96-1.24-2.92-.96-2.44-1.92-4.89-2.82-7.33-1.9-5.19,3.19-12.07,9.47-11.68,6.55.39,10.39,3.43,11.72,10.35.48,2.64-.31,5.02-2.14,7.01-.79.85-1.62,1.68-2.4,2.55-1.55,1.72-1.57,2.86,0,4.52.46.46,1.05.85,1.77,1.35-2.55-.2-3.56-1.46-3.27-4.06.17-1.48.76-3.01,1.48-4.32,1.94-3.45,3.06-6.96,1.48-10.85-.39-.96-.94-1.96-1.7-2.64-4.8-4.39-13.03-2.25-15.19,3.84-.74,2.07-.35,4.06.41,5.98.57,1.42,1.4,2.77,2.14,4.12.5.94,1.11,1.83,1.57,2.77.5,1.05,1.24,2.34.26,3.25-.61.59-1.9.5-3.08.2l-6.33-1.16c-1.18.15-2.34.28-3.62.44.11.92.13,1.51.26,2.03,1.42,5.37,2.95,10.69,4.26,16.09Z"/><path class="cls-2" d="m117.6,792c-.25.96-.59,1.98-.76,3.03-.35,2.04-.77,4.08-.83,6.13-.05,1.41.02,2.71-.9,3.24.19,1.11.66,2.06.37,2.59-.68,1.25-.47,2.41-.32,3.67.1.81-.1,1.66-.18,2.6-1.36-.18-2.36-.31-3.83-.5,1.04.87,1.83,1.27,2.22,1.91.52.85-.56,1.37-.76,2-.89,2.81-1.49,5.71-2.15,8.59-.33,1.44-1.06,2.24-2.81,1.97.16-1.93-.29-3.76.48-5.75.64-1.64.37-3.64.49-5.48.02-.34-.17-.94-.05-1,1.9-1.04,1.07-3.37,2.32-4.77.57-.64.55-1.82.78-2.76.27-1.12,1.07-2.56.65-3.29-.76-1.32-.12-2.21.11-3.3.52-2.46,1.11-4.93,1.44-7.42.37-2.77,1.16-3.18,3.75-1.45Z"/><path class="cls-2" d="m100.64,812.88c1.28,1,2.85.76,4.3,1.08.64.14,1.51.39,1.78.87.44.8-.54,1.07-.99,1.59-.84.98-1.47,2.18-2.05,3.35-.61,1.22-1.05,2.52-1.83,3.72-.82-1.44-1-2.72-.05-4.13.78-1.17,1.59-2.43,1.12-4.16-1.32,0-2.16.54-2.63,1.76-.54,1.41-1.11,2.81-1.7,4.21-.13.29-.41.52-.82,1-.58-1.43-.7-2.59.02-3.69,1.02-1.56,1.63-3.18,1.08-5.16.73-.15,1.3-.28,1.88-.4,0,0-.11-.05-.11-.05Z"/><path class="cls-2" d="m96.98,812.35c.2-.58.29-1.22.62-1.72,1.31-2.03,2.67-4.02,4.07-5.99.28-.4.82-.61,1.35-.99.36.49.65.88,1,1.36.41-.36.8-.7,1.19-1.04,0,0-.07-.04-.07-.04,1.37.88,1.04,1.9.18,2.89-1.23,1.43-2.35,2.88-2.6,4.85-.15,1.14-1.15,1.19-2.07,1.2,0,0,.11.05.11.05-.25-.54-.5-1.08-.62-1.35-1.17.27-2.21.5-3.25.74,0,0,.1.03.1.03Z"/><path class="cls-2" d="m107.59,801.53c.41-1.04.98-2.05,1.19-3.13.36-1.85.5-3.75.75-5.76.93-.3,1.84-.58,3.13-.99-.24,1-.45,1.73-.58,2.47-.43,2.4-.83,4.8-1.24,7.2-.12.71-.13,1.47-.41,2.11-.18.41-.74.89-1.16.9-.41.02-1.04-.41-1.22-.8-.29-.63-.3-1.39-.42-2.1,0,0-.04.1-.04.1Z"/><path class="cls-2" d="m107.63,801.43c-.17.49-.36.97-.5,1.47-.3,1.06-.97,1.37-1.99,1.03,0,0,.07.04.07.04.14-1.56.28-3.11.43-4.66-.09-.02-.19-.03-.28-.05-.45,1-.9,2.01-1.35,3.01-.72-2.12.38-3.82.78-5.84,1.12-.2,2.22-.4,3.34-.61-.19,2.06-.37,3.89-.54,5.71,0,0,.04-.11.04-.11Z"/><path class="cls-2" d="m106.26,813.24c-1.31-.17-1.85-.73-1.47-1.68.78-1.89,1.62-3.76,2.61-5.55.22-.4,1.15-.41,2.09-.71-.47,3.18-1.91,5.49-3.23,7.94Z"/><path class="cls-2" d="m108.01,790.49c.65.18,1.3.36,1.98.55-.89,1.39-1.74,2.69-2.64,4.1-1.23.17-1.56-.74-1.77-1.74-.19-.94.33-1.5,1.08-1.95.49-.3.96-.64,1.42-.97-.01,0-.06,0-.06,0Z"/><path class="cls-2" d="m96.88,812.32c.42.28.85.56,1.2.8-1.04,1.86-1.98,3.56-2.92,5.25-.14-.04-.28-.07-.42-.11,0-.49-.1-1.01.01-1.47.33-1.27.7-2.54,1.17-3.77.12-.31.7-.45,1.06-.67,0,0-.11-.03-.11-.03Z"/><path class="cls-2" d="m171.99,239.31s0,.02.02.04v-.04s-.02,0-.02,0Z"/><path class="cls-2" d="m155.69,159.43c.04.68.13,1.35.33,2.03-.07-.68-.17-1.35-.33-2.03Z"/><path class="cls-2" d="m97.26,158.82c.33.5,1.37.81,2.07.76.85-.07,1.75-.48,2.51-.92,2.68-1.51,5.46-1.72,8.38-.83,1.11.35,2.27.74,3.43.83.7.04,1.42-.09,2.14-.22.11-.02.2-.02.28-.07,1.46-.41,1.33-2.73,1.33-2.73-2.31-.17-4.67-.11-6.94-1.27.31-1.16.59-2.16.89-3.32.48.61.81,1,1.24,1.57,3.1-2.03,6.44-3.32,10.02-3.97,2.66-.48,5.33-1.07,7.97-1.62,6.57-1.33,13.1-2.64,19.84-2.55,3.25.04,6.5-.35,9.71-.87,1.72-.28,3.47-1.05,4.95-2.01,2.68-1.75,3.43-6.31,1.53-9.47-1.16.98-2.36,1.9-3.4,2.92-3.19,3.08-6.88,4.87-11.35,5.09-4.41.22-8.82.79-13.25.94-9.89.35-19.23,3.03-28.39,6.5-.22.09-.39.31-.57.46.11.41.22.79.35,1.31-1.72-.41-3.1-.31-4.37.63-2.03,1.51-4.12,2.92-6.13,4.47-.79.59-1.55,1.29-2.05,2.12-.35.61-.5,1.7-.2,2.23Z"/><path class="cls-2" d="m181.18,93.13c-1.36.93-2.71.71-4.36-.73-2.04.96-3.36.53-4.29-1.4-1.65.78-1.87.74-3.4-.68-.66.84-1.4.46-2.13.07-.97-.53-1.15-1.45-1.13-2.45.01-.92-.02-1.84.06-2.76.07-.79.17-1.61.44-2.35.23-.64.24-1.19-.2-1.65-1.37-1.4-2.65-2.92-4.2-4.1-1.65-1.26-3.6-1.41-5.4-.12-.7.5-1.12.34-1.53-.28-.17-.25-.34-.49-.49-.75-1.38-2.53-2.74-5.08-4.15-7.59-.37-.65-.23-1.12.11-1.71.89-1.54,1.83-3.07,2.53-4.7,1.23-2.86,1.48-5.81.2-8.75-.17-.4-.48-.74-.72-1.1-.14.03-.28.06-.42.09-.08,1.1-.22,2.2-.22,3.3,0,1.11.12,2.22.18,3.32-.5-.18-.82-.42-1.08-.72-1.74-2.04-2.83-4.41-3.31-7.02-.33-1.81-.46-3.66-.65-5.49-.63-6.05-.48-12.08.99-18.01,2.3-9.28,7.52-16.33,16.29-20.39,9.54-4.41,19.45-4.79,29.43-1.74,8.01,2.45,14.17,7.32,18.03,14.85,2.7,5.26,3.82,10.95,3.9,16.81.05,3.95-.21,7.92-.54,11.86-.28,3.38-1.46,6.48-3.67,9.14-.24.29-.4.66-.6.99-.14-.09-.27-.17-.41-.26-.08-2.21.54-4.49-.46-6.66-.35.31-.59.63-.76.99-.99,2.11-1.07,4.3-.57,6.54.59,2.6,1.81,4.9,3.29,7.08.4.59.46,1.07.05,1.7-.68,1.05-1.25,2.16-1.85,3.26-.91,1.64-1.8,3.29-2.71,4.92-.38.68-.81.9-1.56.35-1.79-1.31-3.78-1.14-5.41.07-1.59,1.19-2.88,2.8-4.23,4.3-.25.27-.3.92-.17,1.29.7,2,.23,4.08.44,6.1.01.11-.05.23-.08.35-.38,1.42-1.9,2.03-3.12,1.27-1.28,1.27-1.79,1.38-3.37.73-1.16,1.89-2.3,2.24-4.32,1.32-1.63,1.41-2.73,1.59-4.44.71Zm-8.66-27.7c2.19-.6,2.67-1.15,2.84-3.38.09-1.21.1-2.44-.02-3.64-.24-2.55-1.69-4.23-4.1-4.98-3.26-1.01-6.62-1.41-10.04-1.28-1.46.06-2.64.7-3.28,2.08-1.53,3.28-1.55,6.59-.14,9.93.66,1.58,1.88,2.33,3.53,2.42.83.05,1.66,0,2.5,0,2.97.16,5.86-.38,8.71-1.16Zm29.4,1.04c1.04-.12,1.85-.66,2.35-1.59,1.91-3.53,1.86-7.12.22-10.71-.61-1.34-1.83-1.95-3.25-2.02-3.48-.18-6.88.33-10.2,1.34-2.07.63-3.37,2.08-3.83,4.2-.41,1.91-.31,3.85.07,5.76.22,1.09,1.15,1.47,2.06,1.76,3.02.95,6.11,1.53,9.3,1.51,1.1-.09,2.19-.14,3.29-.27Zm-20.02,7.48c.11.73.15,1.48.18,2.22.03.72.4,1.14,1.1,1.13.79-.02,1.6-.09,2.36-.29.26-.07.53-.6.56-.94.08-1.35-.39-2.59-1.15-3.68-.89-1.26-1.45-2.63-1.83-4.12-.24-.93-.7-1.83-1.2-2.66-.49-.83-.9-.83-1.38-.02-.52.88-.99,1.84-1.27,2.82-.41,1.41-1.02,2.7-1.77,3.96-.59,1-.93,2.17-1.23,3.3-.24.93.09,1.3,1.02,1.51.29.06.58.12.88.16,1.61.2,2.09-.2,2.22-1.82.07-.83.16-1.66.29-2.48.05-.32.26-.62.39-.93.12,0,.25,0,.37,0,.16.61.36,1.22.45,1.84Z"/><path class="cls-4" d="m67.01,290.55s17.74,15.8,42.84,11.59c2.01-7.7,3.67-15.54,4.93-23.55,0,0,.85-42.06-1.96-69.8-3.71-5.7-5.37-11.63-5.57-17.57-.83-25.03,24.47-50.37,34.13-59.1-2.1,1.59-4.43,3.01-6.92,4.21-7.46,3.58-15.12,6.81-22.87,9.58-25.95,9.36-34.83,22.65-31.86,49.15l.02.02c.07.79.17,1.59.28,2.4,4.23,31.17.87,61.18-11.89,90.29-.41.92-.79,1.83-1.13,2.77Z"/></svg>