<?xml version="1.0" encoding="UTF-8"?><svg id="Lag_1" xmlns="http://www.w3.org/2000/svg" viewBox="0 0 379.23 868.85"><defs><style>.cls-1,.cls-2,.cls-3{fill:#fff;}.cls-4{fill:red;opacity:.39;}.cls-5,.cls-6,.cls-2{opacity:.22;}.cls-6,.cls-7{fill:none;}.cls-3{opacity:.15;}</style></defs><path class="cls-3" d="m379.22,433.57v.02c.02.23.02.43-.02.59-.16.91-.59,1.51-1.16,1.85-1.19.75-2.95.43-3.97-.05-5.41-2.4-11.74-2.76-16.19-8.59-.11-.11-.23-.27-.34-.41-.07.23-.14.48-.23.71-.3.91-.55,1.8-.71,2.67-.69,3.13-.59,5.96-.05,8.63.8,3.86,2.56,7.35,4.34,10.85.09.21.21.39.3.59,3.56,6.9,7.4,13.68,10.62,20.74,3.86,8.43,3.81,13.34-4.39,14.46-.75.09-1.58.16-2.42.18-1.44.02-8.77-2.86-11.37-2.24-2.24.55-3.54.71-4.87.23-.57-.23-1.28-.57-1.83-1.12l-.16-.23c-.98-1.19-6.03-7.61-7.24-10.12l-13.86-19.41-.14-.23-.14-.18c-7.19-10.35-14.71-21.54-18.91-30.47-.18-.43-.37-.87-.57-1.32-.62-1.46-1.39-2.86-2.06-4.29-14.92-32.62-30.49-65.01-39.56-100.02-2.1-8.06-3.84-16.26-5.16-24.65-.07,24.87.82,49.59,4.45,73.89.98,6.62,2.35,13.22,3.86,19.8,1.46,6.4,3.04,12.79,4.55,19.19,2.97,12.4,5.62,24.83,6.42,37.39,2.35,36.5-.09,73.3-.55,109.98-.34,26.29-1.19,52.56-1.01,78.85.09,16.86,3.47,33.85,2.15,50.55-2.38,29.56-7.49,58.93-10.92,88.44-2.76,23.98-1.42,47.74,8.98,70.05,3.47,7.45,14.71,14.18,7.63,22.38-4.43,5.12-15.26,5.94-23.37,6.4-20.81,1.23-24.46-4.11-23.39-25.56,1.3-26.52-3.88-53.17,1.16-79.71.48-2.65-.84-5.66-1.42-8.47-7.31-36.32-18.55-72.13-13.54-110,.53-3.93-1.12-8.13-1.87-12.17-6.72-36-13.93-71.9-20.03-107.99-3.2-18.96-4.45-38.24-6.67-57.97-2.15.09-2.88.14-5.94.27-3.06-.14-3.79-.18-5.94-.27-2.22,19.73-3.47,39.01-6.67,57.97-6.1,36.09-13.32,71.99-20.03,107.99-.75,4.04-2.4,8.25-1.87,12.17,5,37.87-6.24,73.68-13.54,110-.57,2.81-1.9,5.82-1.42,8.47,5.05,26.54-.14,53.2,1.16,79.71,1.07,21.45-2.58,26.79-23.39,25.56-8.11-.46-18.93-1.28-23.37-6.4-7.08-8.2,4.16-14.94,7.63-22.38,10.39-22.32,11.74-46.07,8.98-70.05-3.43-29.51-8.54-58.88-10.92-88.44-1.32-16.7,2.06-33.69,2.15-50.55.18-26.29-.66-52.56-1.01-78.85-.46-36.68-2.9-73.48-.55-109.98.8-12.56,3.45-24.99,6.42-37.39,1.51-6.4,3.08-12.79,4.55-19.19,1.51-6.58,2.88-13.18,3.86-19.8,3.63-24.3,4.52-49.02,4.45-73.89-1.32,8.38-3.06,16.58-5.16,24.65-9.07,35.02-24.65,67.4-39.56,100.02-.66,1.44-1.44,2.83-2.06,4.29-.21.46-.39.89-.57,1.32-4.2,8.93-11.72,20.12-18.91,30.47l-.14.18-.14.23-13.86,19.41c-1.21,2.51-6.26,8.93-7.24,10.12l-.16.23c-.55.55-1.26.89-1.83,1.12-1.32.48-2.63.32-4.87-.23-2.6-.62-9.94,2.26-11.37,2.24-.85-.02-1.67-.09-2.42-.18-8.2-1.12-8.25-6.03-4.39-14.46,3.22-7.06,7.06-13.84,10.62-20.74.09-.21.21-.39.3-.59,1.78-3.49,3.54-6.99,4.34-10.85.55-2.67.64-5.5-.05-8.63-.16-.87-.41-1.76-.71-2.67-.09-.23-.16-.48-.23-.71-.11.14-.23.3-.34.41-4.45,5.82-10.78,6.19-16.19,8.59-1.03.48-2.79.8-3.97.05-.57-.34-1-.94-1.16-1.85-.05-.16-.05-.37-.02-.59v-.02c.11-1.23,1.03-2.92,1.99-3.54,11.92-7.61,18.16-23.43,34.9-24.26,3.31-.16,5.62-1.19,7.47-2.9l.3-.3c.16-.14.3-.27.46-.43.02-.05.07-.09.11-.14,1.76-1.92,3.15-4.07,3.68-6.01,5.53-20.19,9.36-40.82,13.98-61.26,2.31-10.16,3.61-20.83,7.22-30.45.37-.98.75-1.94,1.19-2.9,13.36-30.47,16.88-61.88,12.45-94.49-.11-.85-.23-1.69-.3-2.51l-.02-.02c-3.11-27.73,6.19-41.64,33.35-51.44,8.11-2.9,16.13-6.28,23.94-10.03,2.6-1.26,5.05-2.74,7.24-4.41.07-.07.14-.14.21-.18,1.21-.91,2.33-1.9,3.4-2.97.16-.14.25-.21.25-.21.85-.85,1.64-1.71,2.42-2.6,8.25-9.75,11.21-22.93,8.11-35.52l-.02-.02c-1.39-5.6-4-11.05-7.88-16.06-5.87-7.56-9.52-21.06-3.54-27.87.98-1.14-.32-5.44-.55-8.29-1.3-15.46-.57-30.61,15.33-38.67,7.9-4.04,15.97-6.1,23.94-6.1s16.03,2.06,23.94,6.1c15.9,8.06,16.63,23.21,15.33,38.67-.23,2.86-1.53,7.15-.55,8.29,5.98,6.81,2.33,20.31-3.54,27.87-3.88,5-6.49,10.46-7.88,16.06l-.02.02c-3.11,12.59-.14,25.76,8.11,35.52.78.89,1.58,1.76,2.42,2.6,0,0,.09.07.25.21,1.07,1.07,2.19,2.06,3.4,2.97.07.05.14.11.21.18,2.19,1.67,4.64,3.15,7.24,4.41,7.81,3.75,15.83,7.13,23.94,10.03,27.16,9.8,36.45,23.71,33.35,51.44l-.02.02c-.07.82-.18,1.67-.3,2.51-4.43,32.62-.91,64.02,12.45,94.49.43.96.82,1.92,1.19,2.9,3.61,9.62,4.91,20.28,7.22,30.45,4.61,20.44,8.45,41.07,13.98,61.26.53,1.94,1.92,4.09,3.68,6.01.05.05.09.09.11.14.16.16.3.3.46.43l.3.3c1.85,1.71,4.16,2.74,7.47,2.9,16.74.82,22.98,16.65,34.9,24.26.96.62,1.87,2.31,1.99,3.54Z"/><path class="cls-7" d="m151.57,135.33c-.5.41-1.71,1.44-3.4,2.97"/><path class="cls-7" d="m154.24,132.52l-.02-.02"/><path class="cls-7" d="m112.23,200.34c0-.18,0-.34-.02-.53"/><path class="cls-7" d="m231.08,138.3c-1.69-1.53-2.9-2.56-3.4-2.97"/><path class="cls-7" d="m225.02,132.5l-.02.02"/><path class="cls-7" d="m267.03,199.81c-.02.18-.02.34-.02.53"/><path class="cls-7" d="m151.48,134.92c-.5.41-1.71,1.44-3.4,2.97"/><path class="cls-7" d="m154.16,132.11l-.02-.02"/><path class="cls-7" d="m112.15,199.92c0-.18,0-.34-.02-.53"/><path class="cls-7" d="m230.99,137.89c-1.69-1.53-2.9-2.56-3.4-2.97"/><line class="cls-7" x1="271.92" y1="404.23" x2="271.9" y2="404.23"/><path class="cls-7" d="m224.94,132.09l-.02.02"/><path class="cls-7" d="m266.95,199.4c-.02.18-.02.34-.02.53"/><path class="cls-6" d="m112.99,199.96c0-.18,0-.34-.02-.53"/><path class="cls-6" d="m267.78,199.43c-.02.18-.02.34-.02.53"/><path class="cls-2" d="m153.73,436.55c-.11,2.47-1.58,3.24-4.07,2.65-1.87-.48-3.72-1.05-5.62-1.44-3.13-.62-4.75.09-6.44,2.83-1.99,3.24-3.01,6.72-1.67,10.48,1.1,3.15.55,6.03-.37,9.2-1.03,3.65-1.32,7.63-1.3,11.47.05,15.17.53,30.36.48,45.52-.02,25.33,2.12,50.43,6.6,75.35.66,3.7,1.58,7.35,2.4,11.06.85,3.59,2.22,6.92,4.55,9.89,3.77,4.89,4.04,10.23,1.62,15.85-1.21,2.79-2.31,5.57-5.53,7.24,2.03.21,3.4.32,4.93.48.3,3.33,0,6.42-1.76,8.95-4.41,6.42-5.92,13.77-7.77,21.08-2.01,7.88-2.28,15.92-2.65,23.96-.57,13.04-.89,26.08-1.37,39.1-.46,11.92-.91,23.85-1.53,35.75-.53,9.87.98,19.48,2.9,29.1.85,4.18,1.6,8.41,2.08,12.65.18,1.76-.18,3.65-.71,5.37-.94,3.08-2.24,3.33-4.57,1.21-.57-.53-1.16-1.03-1.76-1.55.48,2.12.94,4.11,1.3,6.14,0,.05.02.11.02.16,1.94-1.19,3.59-.32,4.34,2.33.39,1.42.59,2.97.57,4.45-.09,2.31-1.3,3.15-3.61,2.74-.73-.14-1.42-.53-2.17-.62-.98-.16-1.99-.11-2.99-.16,3.24.5,4.59,2.65,4.96,5.66.11,1.03.34,2.06-.91,2.7-.32.16-.41.94-.46,1.44-.14,1.67-.16,3.38-.34,5.05-.16,1.48.02,2.76,1.03,3.95,1.12,1.32,2.79,2.67.41,4.36.25,1.78-.85,2.56-2.58,2.9.98,1.99,1.14,3.7-.64,5.16-.43.37-.46,1.21-.75,1.8-.5,1.1-1.83,1.67-3.06,1.37-1.01-.25-1.42-.91-1.14-1.9.16-.64.46-1.21.69-1.76-1.99-2.74-1.94-3.02.82-4.59-.09-.66-.18-1.28-.25-1.9-.05-.34.07-.96-.07-1.03-2.01-.87-1.28-2.54-1.05-3.91.3-1.99-.16-3.72-1.07-5.44-1.99-3.77-.96-6.01,3.24-6.97.89-.21,1.78-.3,2.99-.48-2.54-1.74-4.32-.14-6.17.69-2.38-4.13-.64-6.99,4.34-7.13-1.21-.98-2.63-.73-4.02-.64-1.51.09-2.99.09-4.2-1.19-2.26,2.31-5.16.46-7.63,1.28.43-3.15,1.92-4.16,4.82-3.31.73.21,1.46.39,2.28.62,1.74-1.42,3.77-2.28,6.1-2.44.8-.07,1.58-.21,2.31-.46-.66-.53-1.26-1.1-1.92-1.62-1.94-.82-3.52-.14-4.93,1.21-.43.23-.87.5-1.35.73-1.32.66-2.17.11-2.51-1.21-.21-.87-.34-1.83-.18-2.7.34-1.9.89-3.75,1.39-5.8-2.38-.34-3.06-2.12-2.74-4.36.27-1.8.55-3.7,1.37-5.28,3.08-6.08,3.43-12.54,2.95-19.09-.5-7.22-1.44-14.39-1.9-21.61-.55-8.54-.82-17.11-1.21-25.65-.46-9.78-1.14-19.55-1.3-29.3-.09-6.3.5-12.63.87-18.94.53-8.95,1.28-17.88,1.64-26.86.11-2.67-.53-5.44-1.16-8.09-1.35-5.64-2.95-11.21-4.43-16.83-.14-.55-.16-1.16-.27-2.12,1.35-.16,2.56-.3,3.79-.46l6.62,1.21c1.23.32,2.56.41,3.22-.21,1.03-.96.25-2.31-.27-3.4-.48-.98-1.12-1.92-1.64-2.9-.78-1.42-1.64-2.83-2.24-4.32-.8-2.01-1.21-4.09-.43-6.26,2.26-6.37,10.87-8.61,15.9-4.02.8.71,1.37,1.76,1.76,2.76,1.67,4.07.5,7.74-1.53,11.35-.75,1.37-1.37,2.97-1.55,4.52-.3,2.72.75,4.04,3.43,4.25-.75-.53-1.37-.94-1.85-1.42-1.64-1.74-1.62-2.92,0-4.73.82-.91,1.69-1.78,2.51-2.67,1.92-2.08,2.74-4.57,2.24-7.33-1.39-7.24-5.41-10.42-12.27-10.83-6.58-.41-11.9,6.78-9.94,12.22.96,2.56,1.96,5.12,2.97,7.67.39,1.01.82,1.96,1.3,3.06-.98.43-1.64.75-2.31,1.07l-6.49-1.78c-5.6-6.46-5.37-16.93.87-22.96,4.16-4.04,6.17-8.68,5.89-14.46-.59-14.34-1.12-28.69-1.69-43.03-.5-12.01-1.1-24.01-1.51-36.02-.41-12.33-.66-24.65-.98-36.96-.09-3.97-.05-7.95-.32-11.92-.16-2.4-.57-4.82-1.21-7.15-.66-2.44-1.78-4.77-2.54-7.19-1.83-5.87-2.22-11.83-.43-17.77,1.32-4.43,3.86-7.86,8.73-8.89,4.16-.87,5.92-.16,8.22,3.33,3.79-.18,6.26-2.58,6.37-6.19.11-4.13,1.8-5.46,5.87-4.61,2.88.57,4.98,2.26,6.56,4.61,2.81,4.2,3.33,8.95,3.08,13.8Z"/><path class="cls-2" d="m244.55,367.39c-6.85-4.39-14.46-4.96-22.13-3.02-5.69,1.44-8.41,6.74-7.22,12.63.09.46.11.94.18,1.39.14.39.27.78.43,1.16.41,1.05.98,2.06,1.21,3.15.98,4.71,1.8,9.46,2.79,14.18,1.39,6.46-.16,12.2-4.11,17.36-1.03,1.35-2.03,2.76-3.29,3.88-4.02,3.59-8.18,7.04-12.27,10.53-1.87,1.6-3.81,3.11-5.55,4.84-.89.91-1.62,1.78-3.04,1.69-1.96-.09-3.97.16-5.64-1.26-3.43-2.86-6.78-5.73-10.28-8.47-4.84-3.84-9.39-7.97-12.7-13.25-2.22-3.54-3.65-7.42-3.06-11.58,1.1-7.49,2.08-15.03,4.66-22.16,2.44-6.83-1.69-13.34-8.11-14.5-6.17-1.1-12.29-.8-18.07,1.85-6.69,3.04-10.03,8.36-10.1,15.71-.05,3.08.53,6.08,1.71,8.86,1.76,4.18,3.79,8.25,5.6,12.4,1.85,4.23,4.8,7.47,8.59,9.98,1.17.78,2.4,1.51,3.63,2.19,4.25,2.44,6.62,6.1,7.04,11.01.09,1.21.3,2.44.25,3.68-.16,6.69.94,13.22,2.97,19.55.96,2.92,2.24,5.87,3.93,8.43,3.04,4.57,8.11,5.71,13.02,3.22,1.58-.8,3.15-1.85,4.29-3.17,1.94-2.28,3.56-4.87,5.25-7.35.57-.85.98-1.8,1.44-2.67h8.09c1.1,1.92,2.08,3.86,3.24,5.69,1.83,2.92,4.04,5.5,7.1,7.22,5.18,2.88,10.6,1.69,13.98-3.2,1.01-1.46,1.99-3.06,2.49-4.75,1.32-4.52,2.67-9.09,3.45-13.73.73-4.45.75-9.04,1.14-13.57.32-3.79,2.06-6.85,5.18-9.04,1.62-1.14,3.27-2.26,4.96-3.31,3.75-2.4,6.72-5.46,8.61-9.55,1.16-2.49,2.56-4.89,3.61-7.4,1.32-3.24,2.67-6.51,3.49-9.87,1.87-7.74-.73-14.87-6.78-18.78Zm-72.11,83.55c-1.55.82-2.86.82-3.7-.69-2.24-3.88-4.2-7.95-6.21-11.97-.25-.48-.16-1.12-.21-1.44.02-3.49,1.58-4.96,4.82-4.48,4.27.59,7.97,2.1,9.71,6.6,1.58,4.13-.48,9.91-4.41,11.97Zm44.43-10.74c-1.28,3.02-2.97,5.89-4.52,8.82-.21.41-.5.8-.8,1.16-1.23,1.42-2.35,1.6-4,.66-2.67-1.46-5.02-5.66-4.98-8.79.14-3.49,3.02-8.06,6.58-8.73,1.67-.3,3.31-.89,4.98-1.01,2.06-.11,3.33.89,3.47,2.95.09,1.62-.09,3.45-.73,4.93Z"/><path class="cls-2" d="m260.79,270.27c-.34-3.97-1.55-7.72-2.4-11.56-.82-3.81-.75-7.83-1.07-11.76-.02-.27-.18-.53-.16-.8.05-.78.05-1.58.25-2.33,1.26-5.46.85-10.71-1.94-15.6-.5-.94-.82-1.71-.34-2.74.71-1.48.5-3.01-.16-4.43-.8-1.78-1.69-3.54-2.63-5.25-.78-1.48-1.64-2.92-2.28-4,1.44-5,.85-9.09-1.37-12.52-.89-1.37-2.03-2.63-3.43-3.79.21-1.6.48-2.74.48-3.88-.02-4.55-2.08-8.13-5.37-10.9-1.94-1.62-3.15-3.54-4.34-5.78-2.42-4.52-5.76-7.95-11.4-7.58-.02-.71-.11-1.42-.09-2.12.16-2.7-1.01-4.68-2.95-6.26-.02-.02-.05-.05-.07-.05-.78-.66-1.6-1.28-2.47-1.8-5.62-3.43-11.63-5.73-18.04-6.9-.66-.11-1.26-.18-1.87-.18h-.02c-.14,0-.3,0-.43.02,1.8-1.51,2.03-2.83,1.87-6.14-1.23.32-2.35.73-3.47.87-.64.07-1.51.3-1.67-1.53-.07-.62.62-1.6,1.07-2.65-.25-3.04-.94-6.4-.34-9.02,1.51-1.48,2.74-2.44,3.84-3.84.75-.94,1.05-2.58.32-4.55-1.48.46-2.97.94-4.43,1.39-.89-3.97-.89-4.04.39-5.98-.02-.55-.05-1.1-.07-1.64,3.59-.32,6.67-1.71,8.91-4.87,2.08-2.9,4.13-5.85,6.19-8.77.78-1.12,1.03-2.38,1-3.72-.07-1.9-.07-3.79-.11-5.71-.05-2.95.18-5.85,1.42-8.59.16-.34,0-.85-.02-1.26-.46.02-1-.07-1.39.14-1.19.62-1.96,1.64-2.19,2.97-.34,2.22-.59,4.43-.96,6.65-.46,2.79-1.35,5.39-3.4,7.42-.21.23-.48.41-.96.78.11-.55.18-.82.21-1.07,0-.69.09-1.39-.05-2.06-.09-.37-.48-.89-.82-.96-.34-.09-.8.25-1.19.48-.21.11-.27.43-.48.55-.21.14-.57.3-.71.21-1.1-.78-1.92-.07-2.79.46-.3.18-.66.23-1.01.3-.59.09-1.19.14-1.78.25-.39.07-.75.25-1.16.3-.66.05-1.37-.09-1.83.64-.07.11-.39.14-.57.14-1.64-.07-3.27-.21-4.89-.18-.8,0-1.6.39-2.17-.48-.07-.09-.3-.09-.43-.11-.8-.21-1.6-.39-2.4-.57-.3-.07-.66-.21-.89-.09-.69.3-1.14.02-1.71-.34-.57-.32-1.42-.71-1.92-.5-.75.3-1.1.25-1.55-.37-.34-.46-.85-1.05-1.46-.64-.41.27-.73.91-.8,1.44-.09.75.05,1.58.09,2.54-.32-.25-.55-.41-.75-.59-2.15-2.01-2.97-4.64-3.47-7.4-.37-1.99-.48-4.02-.78-6.01-.25-1.64-.94-3.06-2.51-3.81-.37-.16-.94-.16-1.26.05-.18.11-.16.78-.05,1.14.3,1.14.8,2.24,1.03,3.38.75,3.38.41,6.83.3,10.23-.07,2.08.48,3.81,1.74,5.48,1.71,2.28,3.33,4.64,4.93,7.03,1.96,2.95,4.59,4.89,8.15,5.32.43.05.89.09,1.32.11-.09,1.07.14,1.92.73,2.4.32.25.62.55.87.8.11,4.11-.02,4.43-1.64,4.07-1.16-.25-2.33-.5-3.75-.8.16,6.21,1.71,7.77,3.18,9.5.55,2.33,1.12,2.67.78,4.86-.46,2.72-.41,2.92.85,4.13.53.48.73.96.48,2.44-1.3-.37-2.58-.69-3.86-1.07-.5-.16-1.03-.87-1.32.59-.27,1.32-.07,2.56.43,3.31.71,1.03,1.44,1.99,2.22,2.67.09.09.18.16.27.25h-.46c-.59,0-1.19.09-1.78.25-3.59.94-7.24,1.71-10.64,3.13-3.34,1.37-6.46,3.31-9.55,5.25-.25.18-.53.37-.78.55-1.76,1.42-2.74,3.45-2.6,6.01.05.75-.16,1.53-.21,2.03-1.6.16-3.13-.11-4.18.5-3.29,1.99-6.4,4.32-7.79,8.29-.53,1.58-1.51,2.7-2.76,3.77-4.64,4-7.56,8.82-5.66,15.71-.84.82-1.83,1.6-2.6,2.54-.5.55-.91,1.1-1.23,1.69-1.94,3.04-2.38,6.53-1.55,10.14.37,1.53.21,2.47-.46,3.63-1.26,2.17-2.49,4.34-3.61,6.56-.89,1.8-1.28,3.68-.48,5.71.21.62,0,1.6-.34,2.22-2.86,5.09-3.29,10.46-1.85,16.1.16.66.14,1.39.09,2.08-.23,3.4-.48,6.81-.75,10.21-.05.71.02,1.48-.23,2.1-1.46,3.4-2.01,7.04-2.58,10.69-.43,2.92-.37,5.82.62,8.52,1.21,3.27,1.39,6.62,1.67,10.03.21,3.06.62,6.14,2.12,8.82.87,1.55,1.21,3.13,1.39,4.84.41,3.61,1.37,7.06,3.18,10.19,2.4,4.07,6.12,5.37,10.19,3.2,2.19-1.16,4.18-2.83,5.92-4.66,2.12-2.22,3.84-4.84,5.73-7.29.87-1.1,1.76-2.19,2.67-3.27,1-1.19,2.28-2.22,3.06-3.54,5.34-9.25,10.03-18.84,14.14-28.78,1.21-2.95,2.65-5.85,4.41-8.47,1.69-2.49,3.63-4.8,5.57-7.13.16-.21.32-.39.48-.57.23,2.06-.11,3.95-.62,5.89-.41,1.55-.18,2.79.91,3.38.43.25.84.57,1.23.82.16,4.27-.05,4.59-2.38,4.23-1.64-.27-3.31-.53-5.34-.82.23,6.42,2.44,8.02,4.52,9.82.8,2.42,1.62,2.76,1.12,5.03-.64,2.81-.57,3.02,1.23,4.27.73.53,1.03,1.01.66,2.54-1.85-.37-3.7-.69-5.53-1.1-.71-.16-1.46-.89-1.9.62-.39,1.37-.07,2.63.64,3.4,1,1.07,2.06,2.06,3.17,2.76,1.76,1.14,2.17,1.9,1.94,4.75-.09,1.26-.39,2.49-.69,3.68-.41,1.67-.07,2.74.94,3.36.55.34,1.39.23,1.16,1.96-2.33,1.46-4.68-.98-7.26-.23.16,6.6,3.77,6.03,6.42,8.04-.16,1.62-.25,3.38-.55,5.05-.57,3.17-.62,3.13,1.23,4.61.34.25.55.89,1.21,2.01-3.08-.55-5.62-1.01-7.99-1.42-.66,2.15-.27,3.54.59,4.48.87.96,1.78,2.12,2.76,2.33,2.06.46,2.44,2.76,2.58,5.18.11,1.71-.23,3.54-.53,5.25-.53,2.88-.57,3.17,1.23,4.32,1.3.85,1.3,1.94.87,3.54-3.38-.64-6.65-1.26-9.94-1.87-.8-.16-1.71-.62-2.12.98-.41,1.69.39,2.81,1.16,3.36,1.62,1.14,3.31,1.96,5,2.83.64.34,1.32.48,2.08.73-.71,4.68-1,8.93.07,13.25,1.07,4.41,3.52,6.74,5.76,9.23-1.21.98-2.51,1.39-3.08,2.67-.78,1.69-1.44,3.56-2.01,5.48-.62-.5-1.26-1.03-1.9-1.6-.64-.55-1.14-1.26-1.76-1.85-1.37-1.3-2.67-2.7-4.13-3.86-.94-.78-2.06-1.37-3.2-1.8-1.48-.55-2.58-.07-3.31,1.35-.37.73-.73,1.6-.75,2.4-.05,3.4-.27,6.83.11,10.19.39,3.45,1.71,6.6,5.07,8.41,1.21.64,1.6,1.83,1.69,3.11.09,1.32.02,2.67.3,3.95.3,1.35.75,2.72,1.44,3.93,1.21,2.12,2.56,4.18,4,6.17.69.94,1.62,1.85,2.65,2.33,1.35.62,2.17,1.53,2.6,2.83,1.03,3.11,2.01,6.24,2.97,9.39.5,1.6,2.79,3.7,4.25,3.75,1.62.07,4.34-1.9,4.82-3.43.94-3.06,1.83-6.12,2.95-9.11.39-1.07,1.16-2.44,2.1-2.79,1.99-.75,2.99-2.19,3.97-3.84.96-1.62,1.99-3.2,3.08-4.75,1.05-1.51,1.67-3.15,1.67-5.03,0-.85.05-1.69.09-2.56.07-1.8.66-3.27,2.42-4.16,1.67-.87,2.79-2.38,3.29-4.11.68-2.33,1.26-4.75,1.46-7.17.23-2.54,0-5.09-.02-7.65-.16-.39-.3-.78-.43-1.16-2.08-2.33-3.22-2.54-5.8-.89-1.05.66-2.01,1.44-2.9,2.26-1.23,1.16-2.35,2.47-3.56,3.68l-.39.39c-.18-.57-.32-1.14-.48-1.74-.66-2.54-1.85-3.81-3.54-4.02-.34-.05-.69-.25-1.58-.57,6.3-5.18,7.97-12.88,6.19-22.82.82-.27,1.46-.37,2.06-.69,1.46-.78,2.92-1.55,4.29-2.58.8-.57,1.62-1.6,1.32-3.27-.32-1.92-1.37-1.37-2.24-1.19-.89.18-1.76.37-2.65.5-2.24.39-4.48.73-6.62,1.1-1.19-2.92.82-3.06,1.35-4.45-.68-4.29-1.26-8.57-.05-12.72,4.57-2.38,5.48-3.84,4.71-7.63-2.31-.23-4.61,1.62-7.4.55.82-1.01,1.35-1.62,1.83-2.22q-.71-6.33-.27-8.57c1.9-1.32,3.63-2.33,5.23-3.75,1.07-.94,1.51-2.58.66-4.66-2.49-.02-4.91,1.85-7.77.25.75-1.07,1.28-1.83,1.69-2.42-.18-3.06-.37-5.96-.53-8.77,6.37-2.79,7.06-3.61,6.76-8.31-1.76.34-3.36.75-4.96.89-.91.07-2.15.3-2.4-1.58-.09-.66.89-1.67,1.53-2.74-.37-3.15-1.3-6.62-.46-9.34,2.15-1.53,3.88-2.54,5.48-3.97,1.1-.98,1.48-2.65.46-4.71-2.12.48-4.27.98-6.35,1.44-1.28-4.09-1.26-4.18.55-6.19-.14-3.02-.46-5.94-.34-8.84v-.39h.02c.14.14.25.27.39.43l.07.07.05.05c4.23,5.07,8.15,10.3,10.6,16.7,3.63,9.52,8.31,18.55,13.29,27.39.73,1.32,1.6,2.56,2.56,3.7,1.21,1.48,2.67,2.76,3.86,4.27,1.85,2.24,3.43,4.77,5.39,6.85,1.83,1.87,3.88,3.63,6.12,4.84,4.07,2.22,7.93.96,10.14-3.2,1.28-2.4,2.22-5.09,2.79-7.77.69-3.06,1.39-6.01,2.47-8.95,1.07-2.97,1.14-6.33,1.69-9.5.37-2.1.62-4.23,1.19-6.28.8-2.88,1.23-5.76.96-8.77Zm-8.11-39.33c3.06,4.27,2.92,6.99-.62,10.21-5.3,4.82-11.17,8.73-17.77,11.17-5.37,1.96-10.76,1.42-15.55-1.92-5.28-3.65-10.39-7.63-15.55-11.51-.8-.62-1.55-1.44-2.03-2.35-.62-1.23.11-2.24,1.44-1.87.96.27,1.85.89,2.74,1.39,2.88,1.62,5.64,3.45,8.61,4.84,5.87,2.81,11.92,3.29,17.93.41,6.08-2.9,12.13-5.94,18.16-8.91.85-.43,1.67-.94,2.65-1.46Zm-4.41-13.68c.34.53.64,1.07.87,1.64.96,2.35.69,3.59-1.3,5.16-3.79,2.99-7.9,5.41-12.36,7.17-4.29,1.69-8.75,2.63-13.91,2.76-5.23-.62-10.96-1.64-16.45-3.93-1.8-.75-3.27-1.96-4.36-3.68-1.6-2.51-.62-4.91,2.31-5.21,1.67-.16,3.4.09,5.09.32,2.4.32,4.73.91,7.13,1.21.07,0,.11.02.18.02.48.05,1,.09,1.48.14.69.05,1.35.09,2.03.09h.53c3.7.05,7.38-.5,10.96-1.94,1.21-.48,2.42-.96,3.63-1.42,3.47-1.3,6.99-2.51,10.46-3.77,2.31-.85,2.42-.78,3.7,1.42Zm-116.49,1.76c.09-.25.23-.5.34-.73,1.58-3.29,1.74-3.36,5.12-2.12,2.92,1.07,5.85,2.1,8.77,3.17h.02c2.17.78,4.36,1.58,6.53,2.38,2.92,1.1,5.87,1.35,8.84,1.26.64,0,1.3-.05,1.96-.09.5-.02,1-.07,1.53-.14.55-.05,1.1-.09,1.67-.16,2.24-.25,4.41-.89,6.6-1.19,1.62-.21,3.27-.39,4.86-.18,2.76.34,3.81,2.74,2.17,5.07-1.01,1.37-2.35,2.76-3.84,3.45-5.69,2.72-11.79,3.68-17.15,4.29-10.32-.46-18.68-4.16-26.2-10.07-1.85-1.46-2.1-2.67-1.23-4.93Zm-3.65,12.06c5.8,2.92,11.4,5.87,17.08,8.59,2.65,1.26,5.41,2.22,8.22,3.06,3.68,1.12,7.31.41,10.87-.73,3.95-1.3,7.54-3.43,11.03-5.73,1-.66,2.08-1.26,3.22-1.6,1.07-.32,1.69.46,1.32,1.58-.23.71-.69,1.48-1.28,1.92-5.85,4.41-11.51,9.09-17.68,13-4.48,2.86-9.71,2.92-14.69,1.01-6.33-2.44-11.97-6.21-17.11-10.78-3.72-3.33-3.93-5.94-1-10.3Zm10,79.24c-3.45.53-6.21-1.55-8.25-6.58,1.17.48,1.94.8,2.72,1.1,2.63.98,5.3,1.37,8.06.57,1.21-.37,2.49-.43,3.84-.64-.32,2.58-3.38,5.12-6.37,5.55Zm2.88-10.32c-7.67-.07-12.77-4-13.93-11.12,8.06,8.47,16.79,8.91,26.11,3.24-.85,4.66-5.94,7.95-12.17,7.88Zm25.86-30.58c-1.37,2.06-2.83,4.07-4.23,6.12-2.81,4.16-5.94,7.9-10.14,10.58-4.02,2.54-8.34,3.61-12.86,2.15-8.22-2.65-13.16-8.77-15.67-17.2-.62-2.1-.21-4.23.11-6.33.18-.05.37-.09.55-.16,1.28,1.58,2.49,3.2,3.81,4.71,1.74,1.99,3.49,3.95,5.37,5.8,3.59,3.54,7.93,4.61,12.65,3.63,5.5-1.12,10.3-3.75,14.55-7.65,2.03-1.87,4.39-3.4,6.83-5.28.3,1.64-.32,2.67-.98,3.63Zm14.87-24.49c-.09.11-.18.21-.3.32-.07.09-.16.16-.27.25-2.12,2.12-4.32,4.25-6.46,6.37-2.06,2.06-4.11,4.07-6.05,6.24-4.5,5.09-9.8,8.93-16.13,11.17-1.05.39-2.15.64-3.15,1.14-3.31,1.76-6.44,1.14-9.62-.48-6.24-3.15-11.03-7.58-12.47-15.05-.27-1.53-.27-3.13-.43-4.71.23-.07.43-.16.66-.23,3.63,3.65,7.88,6.33,12.29,8.73,2.19,1.19,4.52,2.17,6.85,3.02,3.22,1.14,6.49.66,9.57-.69,5.09-2.26,9.62-5.41,13.45-9.71,2.44-2.74,5.21-5.16,7.88-7.7.55-.55,1.26-.96,1.92-1.3.82-.43,1.55-.21,2.1.37.14.14.25.3.37.46.02.02.02.05.02.07-.11.59-.18,1.16-.23,1.74Zm-.37-36.61c-.32.5-.66.96-1.07,1.37-.07.09-.14.16-.23.25-.96.96-2.08,1.64-3.36,2.03-3.29,1.01-6.6,1.9-9.94,2.7-.53.11-1.07.23-1.58.3-1.12.18-2.22.3-3.34.32-4.54.14-8.95-1.05-13.18-2.99-2.86-1.28-5.57-2.97-8.22-4.71-.55-.37-1.07-.71-1.62-1.07-1.87-1.21-2.42-2.44-1.92-4.18.11-.48.32-.98.62-1.55.48-.91,1.14-1.76,1.76-2.74.85.3,1.6.53,2.31.75.09.05.16.07.25.09,4.2,1.53,8.5,2.92,12.63,4.61,3.36,1.39,6.78,1.83,10.19,1.71.23.02.43,0,.66,0,.48-.02.94-.07,1.39-.11,1-.07,1.99-.18,2.97-.34,1.94-.27,3.86-.8,5.82-1.07.09-.02.16-.02.25-.05.18-.02.39-.05.59-.07,1.07-.11,2.19-.16,3.24.05,2.38.53,3.08,2.54,1.76,4.71Zm-4.59-10.46c-3.47-.18-6.9-.16-10.35-.34v-.07c-4.54-.25-9.02-.91-13.38-2.81-2.63-1.16-5.21-2.47-7.67-4-2.28-1.46-2.81-3.47-1.92-5.66.53-1.28,1.42-2.19,2.56-2.56h.07c3.86.94,7.63,2.12,11.47,3.04,2.28.55,4.59,1.01,6.88,1.39,5.32.89,10.67,1.35,16.08,1.37.5.02,1,.07,1.76.11.14,1.03.34,1.83.34,2.63.09,4.32-1.87,7.1-5.82,6.9Zm5.85-16.47c-.02.25-.07.55-.18.85-1.07-.07-2.12-.14-3.2-.18-.21-.02-.43-.05-.64-.05-1.71-.11-3.4-.23-5.09-.48-2.7-.39-5.39-1.07-8.09-1.53,0-.09,0,.09,0,0-2.58-.48-5.18-.96-7.77-1.42-1.44-.25-2.7-.89-3.08-2.63-.39-1.74.25-3.2,1.26-4.45.23-.3.48-.53.75-.69h.02c2.22,1.1,4.48,1.92,6.81,2.58,3.79,1.07,7.65,1.71,11.53,2.42,1.99.34,3.95,1.26,5.76,2.22,1.17.62,2.08,1.62,1.92,3.27v.09Zm-3.38-18.55c.07,4.16,1.16,5.37,2.44,6.24-.05.09-.07.16-.11.25-.16.39-.37.78-.55,1.14-1.1,1.96-2.92,3.2-5.14,2.88-3.13-.43-6.21-1.12-9.32-1.87-.57-.16-1.19-1.01-1.42-1.67-1.32-4.09-.43-7.81,2.19-11.03,1.39-1.69,3.38-1.99,5.41-1.9,2.7.18,5.28.73,7.54,2.35,1.53,1.1,2.51,2.51,2.7,4.25-1.21-.07-2.44-1.16-3.75-.64Zm23.16-4.64c2.33-1.03,4.8-1.51,7.31-1.28,2.1.18,3.75,1.16,4.84,3.11,1.23,2.15,1.9,4.41,1.74,6.76,0,.02-.02.05,0,.07-.05.71-.14,1.42-.34,2.12-.02.02-.02.05-.02.07-.05.18-.09.34-.16.53-.21.69-.75,1.58-1.32,1.76-2.86.89-5.78,1.58-8.68,2.33-3.22-.05-5.3-1.58-6.56-4.52-.09-.18-.16-.37-.23-.55-.05-.11-.09-.21-.11-.32.39-.39.75-.78,1.12-1.21.73-.91,1.05-2.51.46-4.5-.78-.02-1.53.32-2.31.57.39-2.17,1.8-3.84,4.27-4.93Zm-4.09,22.82c-.09-1.46.73-2.47,1.92-3.08,1.74-.91,3.63-1.64,5.51-2.1,2.33-.59,4.8-.62,7.1-1.26,1.39-.39,2.74-.8,4.09-1.26,2.24-.73,4.45-1.51,6.67-2.31.25-.09.48-.18.71-.23h.02c.85.34,1.48,1.19,1.96,2.67.78,2.28.02,4.16-2.03,4.96-.46.18-.94.27-1.42.37-2.63.46-5.28.91-7.9,1.37,0,.07.02-.07,0,0-2.51.39-5.03,1.01-7.51,1.39-2.1.3-4.2.43-6.3.55-.18.02-.39.02-.57.05-.11,0-.21.02-.32.02-.57.05-1.16-.07-1.74-.09-.09-.32-.14-.62-.18-.91v-.14Zm.18,7.51c5.07-.41,9.62-.71,14.14-1.16,1.07-.11,2.17-.25,3.27-.43,5.44-.8,10.78-2.22,16.08-3.75.94-.27,1.87-.57,2.81-.75h.02c1.32.37,2.38,1.42,2.86,2.88.59,1.9.14,3.56-1.53,4.93-.98.8-2.03,1.51-3.13,2.08-6.03,3.15-12.36,4.98-19.05,5.12v.05c-2.17.05-4.34.25-6.53.37-1.28.05-2.58.18-3.84,0-3.13-.41-4.59-1.87-5.07-5.14-.21-1.37-.02-2.81-.02-4.18Zm3.04,15.05c.85-.14,1.74-.11,2.6-.02.27.02.55.05.82.09.23.02.43.05.64.07,2.7.34,5.37.8,8.06,1.14.43.05.89.11,1.32.16.43.07.91.11,1.35.16.32.02.59.07.91.09h.21c2.35.09,4.71-.27,6.99-1.1,4.75-1.74,9.57-3.47,14.34-5.18.21-.07.39-.14.59-.21.69-.25,1.42-.46,2.19-.73.43.53.69.78.87,1.05.66,1.01,1.14,1.85,1.42,2.6v.02c.89,2.24.02,3.61-2.9,5.71-.57.41-1.16.8-1.74,1.19-4.91,3.24-10.19,5.57-16.01,6.26-1.46.16-2.97.25-4.48.21h-.09c-1.14-.02-2.26-.14-3.36-.32-.05,0-.11-.02-.16-.05-3.65-.62-7.24-1.71-10.8-2.72-1.35-.39-2.54-1.14-3.49-2.17-.09-.09-.16-.16-.23-.25-.37-.39-.66-.78-.94-1.23-1.44-2.24-.69-4.32,1.87-4.77Zm.34,44.01c-.57-.57-1.16-1.14-1.71-1.74-.21-.18-.41-.39-.59-.57,0-.62-.07-1.23-.18-1.87-.02-.21-.07-.43-.11-.64.14-.16.3-.3.46-.39.5-.39,1.14-.46,1.8-.07.89.53,1.78,1.1,2.54,1.83,2.83,2.72,5.62,5.53,8.41,8.31,4.55,4.52,9.57,8.18,15.85,9.48,2.42.5,4.75.34,7.06-.57,5.71-2.19,10.83-5.37,15.6-9.27.87-.73,1.74-1.42,3.11-2.54-.05,7.29-2.24,12.91-7.45,16.9-2.08,1.6-4.39,2.79-6.69,4.02-2.42,1.28-4.91,1.39-7.47.3-1.96-.85-4.04-1.39-6.05-2.24-5.09-2.12-9.36-5.57-13.27-9.52-3.79-3.79-7.51-7.61-11.28-11.42Zm41.87,62.79c-3.11-.05-6.6-2.51-7.35-5.44,1.05.07,2.1-.11,2.97.21,3.63,1.26,7.08.66,10.46-.91.27-.14.57-.21,1-.34-1.19,4.04-4,6.56-7.08,6.49Zm9.75-19.32c-.55,1.12-1.12,2.22-1.76,3.29-1.71,2.95-4.25,4.57-7.49,5.16-2.9.55-5.76.69-8.66,0-3.61-.85-6.49-3.43-8.15-7.61,9.55,5.82,18.23,5.46,26.4-2.4-.11.53-.14,1.07-.34,1.55Zm3.2-19c-2.22,6.6-6.05,11.79-12.22,14.96-4.93,2.54-9.78,2.35-14.62-.11-3.52-1.83-6.42-4.52-8.84-7.72-2.54-3.38-4.96-6.9-7.33-10.42-.5-.73-.69-1.71-1.03-2.6.16-.11.34-.23.48-.37,2.51,1.96,5.07,3.88,7.51,5.92,4.96,4.09,10.35,7.06,16.81,7.26,3.61.14,6.85-1.05,9.41-3.68,2.7-2.76,5.18-5.73,7.74-8.63.62-.71,1.19-1.44,2.08-2.54.62,3.04.82,5.53,0,7.93Z"/><path class="cls-2" d="m123.75,828.86c-.26,1.01-.61,2.07-.8,3.17-.36,2.13-.8,4.27-.87,6.42-.05,1.48.02,2.83-.94,3.39.19,1.16.69,2.15.39,2.71-.71,1.31-.5,2.52-.33,3.84.1.85-.11,1.74-.19,2.72-1.42-.18-2.47-.32-4.01-.52,1.09.91,1.91,1.33,2.32,2,.54.88-.58,1.43-.8,2.1-.93,2.94-1.56,5.98-2.25,8.99-.35,1.5-1.11,2.34-2.95,2.06.16-2.02-.31-3.94.5-6.02.67-1.72.39-3.81.51-5.74.02-.36-.18-.98-.05-1.05,1.99-1.08,1.11-3.53,2.42-5,.6-.67.58-1.9.82-2.89.28-1.17,1.12-2.68.68-3.44-.79-1.39-.13-2.32.12-3.46.55-2.58,1.16-5.15,1.51-7.76.39-2.9,1.21-3.33,3.92-1.51Z"/><path class="cls-2" d="m106,850.71c1.34,1.05,2.99.8,4.5,1.14.67.15,1.58.41,1.86.91.46.83-.57,1.12-1.03,1.66-.88,1.03-1.54,2.28-2.15,3.5-.64,1.28-1.1,2.64-1.91,3.89-.86-1.5-1.04-2.84-.06-4.32.81-1.22,1.66-2.55,1.17-4.35-1.39,0-2.26.56-2.75,1.84-.56,1.48-1.16,2.95-1.78,4.4-.13.31-.43.54-.86,1.05-.6-1.5-.73-2.71.02-3.86,1.07-1.63,1.71-3.33,1.13-5.4.76-.16,1.36-.29,1.97-.41,0,0-.12-.05-.12-.05Z"/><path class="cls-2" d="m102.17,850.16c.21-.6.31-1.28.64-1.8,1.37-2.12,2.79-4.21,4.26-6.27.3-.42.86-.64,1.41-1.04.38.52.68.93,1.05,1.42.43-.38.84-.73,1.25-1.08,0,0-.07-.04-.07-.04,1.43.92,1.09,1.98.19,3.03-1.29,1.49-2.46,3.01-2.72,5.08-.15,1.2-1.2,1.24-2.17,1.26,0,0,.12.05.11.05-.26-.57-.52-1.13-.65-1.41-1.22.28-2.31.53-3.4.77,0,0,.1.03.1.03Z"/><path class="cls-2" d="m113.27,838.83c.43-1.09,1.03-2.15,1.25-3.28.38-1.94.52-3.92.79-6.03.98-.31,1.93-.61,3.27-1.04-.25,1.05-.47,1.81-.61,2.58-.45,2.51-.87,5.03-1.3,7.54-.13.74-.14,1.54-.43,2.21-.19.43-.78.93-1.21.95-.43.02-1.09-.42-1.28-.84-.31-.66-.31-1.46-.44-2.2,0,0-.04.1-.04.1Z"/><path class="cls-2" d="m113.31,838.73c-.17.51-.37,1.02-.52,1.54-.31,1.11-1.01,1.44-2.09,1.08,0,0,.08.04.07.04.14-1.63.3-3.26.45-4.88-.1-.02-.2-.03-.29-.05-.47,1.05-.94,2.1-1.42,3.15-.76-2.22.4-4,.82-6.11,1.17-.21,2.32-.42,3.5-.64-.2,2.16-.38,4.07-.56,5.98,0,0,.05-.11.05-.11Z"/><path class="cls-2" d="m111.88,851.08c-1.37-.17-1.94-.77-1.53-1.76.81-1.98,1.7-3.94,2.73-5.81.23-.42,1.21-.43,2.18-.74-.49,3.33-2,5.75-3.38,8.31Z"/><path class="cls-2" d="m113.72,827.28c.68.19,1.36.38,2.07.58-.94,1.45-1.82,2.82-2.77,4.29-1.28.18-1.63-.77-1.85-1.82-.2-.98.34-1.57,1.13-2.04.52-.31,1-.67,1.49-1.01-.01,0-.07,0-.07,0Z"/><path class="cls-2" d="m102.07,850.13c.44.3.89.59,1.26.84-1.08,1.95-2.07,3.72-3.06,5.5-.14-.04-.29-.08-.43-.11,0-.51-.11-1.06.02-1.54.34-1.33.73-2.66,1.23-3.94.13-.33.73-.47,1.11-.7,0,0-.11-.04-.11-.04Z"/><path class="cls-2" d="m173.89,148.21c-1.53,1.01-3.38,1.8-5.18,2.1-3.33.55-6.76.96-10.14.91-7.06-.09-13.91,1.28-20.76,2.67-2.79.57-5.55,1.19-8.34,1.69-3.77.69-7.26,2.03-10.51,4.16-.46-.59-.78-1.01-1.28-1.64-.34,1.21-.62,2.26-.94,3.47,2.44,1.26,5.02,1.14,7.51,1.35,0,0-.23,2.38-1.85,2.88-.16.05-.34.07-.5.09-.62.11-1.23.21-1.85.16-1.21-.09-2.4-.5-3.56-.87-3.06-.94-5.96-.71-8.77.87-.82.46-1.74.89-2.63.96-.73.05-1.83-.27-2.17-.8-.34-.55-.16-1.69.21-2.33.5-.87,1.32-1.6,2.15-2.22,2.1-1.62,4.27-3.11,6.4-4.68,1.32-.98,2.79-1.1,4.59-.66-.16-.55-.25-.94-.39-1.37.18-.16.37-.39.62-.48,9.59-3.63,19.35-6.44,29.72-6.81,4.64-.16,9.23-.75,13.86-.98,4.68-.23,8.54-2.1,11.85-5.32,1.12-1.07,2.35-2.03,3.59-3.06,1.96,3.31,1.19,8.09-1.62,9.91Z"/><path class="cls-2" d="m98.34,315.76c-2.38-.13-3.89-1.74-5.48-3.23-1.08-1-2.19-1.96-3.33-2.98-.78.69-1.27,1.12-1.76,1.54-2.47,2.15-5.09,2.32-7.77.45-2.17-1.52-3.57-3.64-4.43-6.1-.62-1.78-.17-3.4,1.2-4.66,1.31-1.22,2.67-2.41,4.11-3.47,3.65-2.7,6.1-6.22,7.11-10.62,1.39-6.08,2.63-12.19,3.88-18.3,2.19-10.68,3.1-21.52,4.02-32.36.96-11.31,1.84-22.63,2.53-33.96.3-4.99-.13-10.02.05-15.02.17-4.9.57-9.8,1.11-14.68.25-2.24,1.55-3.14,3.99-3.19,1.31-.02,2.21-.35,3.19-1.31,2.37-2.3,5.31-2.74,8.43-1.73,6.78,2.19,9.99,8.09,8.15,14.99-.91,3.4-2.58,6.18-5.95,7.85-3,1.49-5.02,4-5.58,7.44-1.36,8.4-2.9,16.77-3.96,25.21-1.65,13.13-3.06,26.3-4.4,39.47-.94,9.32-1.53,18.67-2.4,27.99-.4,4.34.61,8.23,2.91,11.88,1.01,1.59,1.89,3.27,2.68,4.98.79,1.71.76,3.47-.36,5.22-.39-.06-.76-.06-1.09-.17-2.07-.67-2.23-.59-3.56,1.04-1.06,1.3-2.24,2.51-3.36,3.76l.09-.06Z"/><g class="cls-5"><path class="cls-1" d="m46.8,410.74c-.11.25-.23.48-.32.73.02-.11.05-.23.05-.37,0-.11.11-.25.27-.37Z"/><path class="cls-1" d="m45.93,425.14s-.05.01-.06,0h0s.03.01.03.02c.02,0,.02-.02.03-.03Z"/><path class="cls-1" d="m45.9,425.16s.03,0,.04.01l.04-.06s-.03,0-.05.03c-.03,0-.05.01-.06,0h0s.03.01.03.02Z"/><path class="cls-1" d="m32.77,445.92c-.66,3.24-2.52,5.85-4.47,8.4-.72.93-1.35,1.84-1.02,3.18-.31.08-.6.17-.9.24-.32.06-.65.11-1.11.18-.28,1.69-.25,3.39-.89,4.85-.59,1.39-1.87,2.5-3.1,4.05.81.54,1.48,1.07,2.22,1.44.81.41,1.49.03,1.88-.94.35-.88.54-1.82.99-2.64.67-1.2,1.34-2.54,2.3-3.44.96-.9.66-2.25,1.34-2.81.85-.68,1.54-1.24,1.76-2.35.54-2.66,1.97-4.81,3.82-6.79,1.05-1.12,2.41-2.22,1.95-4.21,2.1-.36,2.84-1.95,3.4-3.89,1.66-5.69,3.92-8.96,8.78-12.79-.13.84-.12,1.5-.34,2.11-1.13,3.31-2.67,6.43-4.91,9.2-.69.85-1.27,1.87-1.68,2.89-.53,1.38-.06,2.49.93,3.27,1.39,1.1,3.02.47,3.2-1.49.27-3.09,1.84-5.67,3.17-8.33.87-1.76,2.09-3.36,3.18-5.02.62-.95,1.46-1.9.89-3s-1.59-1.85-2.87-1.45c-1.01.32-1.44-.15-2.14-.51-.96-.52-2.12-.65-3.2-.93-.67.96-1.65,1.89-1.92,2.92-1.11,4.29-3.85,7.53-6.6,10.74-1.88,2.19-2.07,2.41-2.04,5.05-1.5-.35-2.31.54-2.61,2.04Z"/><path class="cls-1" d="m100.27,319.29c-.94-.05-1.87-.05-2.81-.05-1.69.57-2.86-.18-3.77-1.55-.84-1.3-2.01-1.64-3.45-1.35-.71.16-1.39.34-2.1.5-.5-1.1-.23-2.99-2.01-2.58-2.17.5-4.02-.16-6.03-.73-1.87-.53-2.63.27-2.33,2.24.07.48.18.94.39,1.37.8,1.92.89,3.93.25,5.85-1.26,3.86-2.33,7.81-4.16,11.42-7.15,14.07-12.27,28.85-16.22,44.08-1.69,6.49-3.77,12.88-5.96,19.21-1.58,4.43-3.52,8.7-5.28,13.04-.11.25-.23.48-.32.73-.05.43-.21.82-.43,1.19,0,0,0,.02-.02.05-.48.82-1.23,1.51-1.65,2.4-.62,1.32-1.3,2.54-.34,4.29-.85-.25-1.23-.43-1.64-.5-1.37-.23-2.19.09-2.6,1.62-.87,3.2-2.83,5.76-4.27,8.61-1.35,2.72-3.13,4.89-5.41,6.72-2.1,1.69-2.1,1.87-1.32,4.61-.69-.21-1.26-.37-2.17-.64-.46,1.07-1.12,2.1-1.32,3.2-.62,3.01-1.6,5.78-3.81,8.04-.39.41-.46,1.19-.62,1.78-.09.23,0,.71-.07.73-2.15.75-1.64,2.63-1.96,4.18-.16.71-.48,1.44-.89,2.06-1.64,2.54-2.6,5.3-3.27,8.18-.21.89-.27,1.76.78,1.83.87.05,1.58-.53,1.58-1.51-.02-1.26.71-1.94,1.32-2.9.78-1.23,1.8-2.54,1.8-4.27,0-.73.57-1.58,1-2.28.82-1.3,2.38-2.19,2.24-4.07,2.49-1.37,2.06-4.18,3.11-6.24.66-1.3,1.69-2.47,2.7-3.52,1.03-1.03,2.08-1.92,1.8-3.63,2.22-.07,3.08-1.69,3.61-3.63,1.26-4.59,3.49-8.54,7.08-11.65.8-.69,1.67-1.26,2.51-1.9.71-.89,1.32-1.78,1.32-2.67,0-.43-.14-.85-.5-1.28,1.05-.89,2.31-1.51,2.81-2.54.18-.34.21-.78.18-1.23l.11-.02h.02s.11-.02.18-.02l.64-.09.71-.09c.09,0,.16-.02.25-.05l.53-.07,1.87-.25.66-.09h.09c-.41.34-.8.91-1.28,1.76-.59,1.07-1.26,2.1-1.94,3.13-1.35,1.99-1.21,3.31.48,4.2,1.58.82,3.22.14,4.11-1.76.48-.98.87-2.01,1.3-3.02.18.07.34.14.5.21-.64,1.48-1.3,2.97-2.01,4.57,1.71.07,1.46,2.24,2.81,2.67l-.11.02c2.9.27,3.04.16,3.95-3.31,2.31-.66,3.31-1.8,3.86-4.39.02-.18.07-.34.09-.5,1.44.64,1.87.32,2.72-1.53.5-1.1.75-2.33,1.14-3.47.91-2.58,1.74-5.18,2.74-7.72,3.4-8.82,7.19-17.5,10.26-26.4,2.49-7.24,4.07-14.78,6.21-22.11,2.28-7.81,4.75-15.58,7.22-23.32,1.3-4.07,2.81-8.04,5.64-11.35.48-.55.82-1.3,1.05-1.99.46-1.51,0-2.15-1.55-2.22Zm-40.52,101.46c-.11-1.67.75-2.33,1.3-3.08.34-.46.57-.91.66-1.35.27.46.55.87.8,1.3-.82.96-1.71,1.92-2.76,3.13Zm27.55-101.39c-1.8,1.71-2.01,3.86-2.03,6.19-.07,3.54-.69,6.88-2.7,10-1.12,1.74-1.42,4.09-1.78,6.21-.78,4.66-1.26,9.39-2.08,14.02-1.58,8.75-2.9,17.59-5.09,26.18-2.38,9.34-5.92,18.34-10.28,26.98-.73,1.44-1.42,2.88-2.15,4.29-.14-.02-.27-.05-.39-.09.57-4.68.98-9.39,1.74-14.02,1.42-8.7,3.04-17.34,4.57-26.02,1.55-8.75,4.91-16.83,8.72-24.81,2.31-4.87,4.39-9.82,6.62-14.73,1.16-2.54,1.74-5.16,1.96-7.93.21-2.54.41-5.14,2.81-6.81.05.16.14.46.07.53Z"/><path class="cls-1" d="m14.69,427.5c2.06-1.51,3.72-2.83,5.48-3.97.74-.47,1.68-.66,2.52-.77,1.27-.17,2.67.15,3.23-1.76.03-.09.09-.25.11-.25,2.39.26,3.38-2.31,5.17-3.28,2.05-1.11,4.05-2.19,6.27-1.59.36.1.83-.08,1.34-.14.72-1.6.55-3.1.45-4.56-.09-1.28-.75-1.61-1.96-1.11-.66.27-1.28.71-1.9,1.12-2.51,1.68-5.11,2.92-7.98,2.98-1.17.02-2.06.62-3.02,1.57-2.25,2.21-4.67,4.24-7.07,6.27-.54.46-1.29.65-1.96.9-1.99.74-2.46,1.69-1.62,3.43.24.5.7.87.95,1.16Z"/><path class="cls-1" d="m59.05,428.51c-1.4.1-2.22.68-2.47,2.33-.65,4.14-2.3,7.93-5.33,11.18-1.29,1.39-1.41,2.12-1.19,4.42-1.07-.12-1.85.27-2.04,1.54-.12.81-.13,1.67-.47,2.41-.52,1.15-1.13,2.37-1.98,3.27-1.5,1.58-1.59,1.49-.51,3.13-.59-.17-1.18-.35-1.85-.55-.35,1.03-.57,1.91-.95,2.74-.39.84-.93,1.62-1.5,2.58.74.58,1.45,1.13,2.19,1.7.97-1.71,1.86-3.18,2.63-4.69.39-.76.68-1.35,1.6-1.68.48-.17.88-1.13,1.16-1.78.82-1.99,1.89-3.78,3.19-5.57,1.61-2.21,3.44-4.31,3.77-7.37.34-3.13,2.22-6.07,4.27-8.72,2.29-2.98,2.27-3.29-.62-4.92,0,0,.11,0,.11,0Z"/><path class="cls-1" d="m35.72,459.6c1.54,1.09,3.17.89,3.68-1.85.54-2.89,1.9-5.38,4.16-7.46,1.87-1.72,1.72-2.47-.36-3.4-3-1.34-3.58-1.04-4.03,2.54-.31,2.52-1.2,4.53-3.17,6.3-1.91,1.72-1.87,2.8-.28,3.86Z"/><path class="cls-1" d="m28.81,469.32c-.39.38-.99.71-1.16,1.18-.46,1.19-.69,2.45-1.08,3.67-.27.87-.45,1.77.41,2.07,1.03.37,1.69-.48,1.84-1.48.23-1.53,1.1-2.48,2.21-3.42.6-.51,1.2-1.27,1.42-2,.74-2.44,1.51-4.8,3.62-6.51.3-.24.38-.81.61-1.36-1.12-.97-2.04-2.15-4.13-1.58.08,2.8-1.2,5.1-3.13,7.18-.43.47-.4,1.42-.61,2.24Z"/><path class="cls-1" d="m24.33,470.21c-.94-1.63-2.27-1.56-3.48-1.75-.62,1.85-1.18,3.55-1.75,5.25-.28.85-.36,1.72.51,2,.98.31,1.71-.37,1.91-1.39.34-1.69.89-3.18,2.79-4.12Z"/><path class="cls-1" d="m42.52,416.22c1.51-1.41,1.32-3.3,1.93-5.13-1.36-.3-2.49-.35-3.34.98-.63.98.03,2.79,1.41,4.14Z"/><path class="cls-1" d="m40.2,462.34c-.79,1.6-1.26,2.69-1.85,3.72-.49.84-.73,1.6.1,2.04.74.39,1.23-.27,1.7-.92.73-1.02,1.53-1.99,2.51-3.25-.83-.53-1.63-1.05-2.46-1.59Z"/></g><path class="cls-2" d="m305.2,305.45c-.87,2.47-2.26,4.59-4.43,6.1-2.7,1.87-5.3,1.71-7.77-.46-.5-.41-.98-.85-1.78-1.53-1.12,1.01-2.24,1.96-3.31,2.97-1.6,1.48-3.08,3.08-5.46,3.24-1.1-1.23-2.26-2.42-3.31-3.7-1.32-1.64-1.48-1.74-3.56-1.05-.34.11-.71.11-1.1.16-1.12-1.76-1.14-3.49-.37-5.21.8-1.71,1.69-3.4,2.7-5,2.31-3.63,3.31-7.54,2.92-11.88-.87-9.32-1.46-18.66-2.4-27.98-1.35-13.18-2.76-26.34-4.41-39.47-1.05-8.43-2.6-16.81-3.95-25.22-.57-3.43-2.58-5.94-5.57-7.42-3.38-1.67-5.05-4.45-5.96-7.86-1.85-6.9,1.37-12.79,8.15-14.98,3.11-1.01,6.05-.57,8.43,1.74.98.94,1.87,1.28,3.2,1.3,2.42.05,3.72.94,3.97,3.17.55,4.89.94,9.78,1.12,14.69.16,5-.25,10.03.05,15.03.69,11.33,1.55,22.64,2.51,33.94.94,10.85,1.85,21.68,4.02,32.37,1.26,6.1,2.49,12.22,3.88,18.3,1,4.41,3.47,7.93,7.1,10.62,1.44,1.05,2.81,2.24,4.11,3.47,1.37,1.26,1.83,2.88,1.21,4.66Z"/><path class="cls-1" d="m282.49,315.82l-.09-.05h.05l.05.05Z"/><g class="cls-5"><path class="cls-1" d="m334.27,411.47c-.09-.25-.21-.5-.32-.75.16.14.27.27.27.39,0,.14.02.25.05.37Z"/><path class="cls-1" d="m334.82,425.14s.05.01.06,0h0s-.03.01-.03.02c-.02,0-.02-.02-.03-.03Z"/><path class="cls-1" d="m334.85,425.16s-.03,0-.04.01l-.04-.06s.03,0,.05.03c.03,0,.05.01.06,0h0s-.03.01-.03.02Z"/><path class="cls-1" d="m347.98,445.92c.66,3.24,2.52,5.85,4.47,8.4.72.93,1.35,1.84,1.02,3.18.31.08.6.17.9.24.32.06.65.11,1.11.18.28,1.69.25,3.39.89,4.85.59,1.39,1.87,2.5,3.1,4.05-.81.54-1.48,1.07-2.22,1.44-.81.41-1.49.03-1.88-.94-.35-.88-.54-1.82-.99-2.64-.67-1.2-1.34-2.54-2.3-3.44-.96-.9-.66-2.25-1.34-2.81-.85-.68-1.54-1.24-1.76-2.35-.54-2.66-1.97-4.81-3.82-6.79-1.05-1.12-2.41-2.22-1.95-4.21-2.1-.36-2.84-1.95-3.4-3.89-1.66-5.69-3.92-8.96-8.78-12.79.13.84.12,1.5.34,2.11,1.13,3.31,2.67,6.43,4.91,9.2.69.85,1.27,1.87,1.68,2.89.53,1.38.06,2.49-.93,3.27-1.39,1.1-3.02.47-3.2-1.49-.27-3.09-1.84-5.67-3.17-8.33-.87-1.76-2.09-3.36-3.18-5.02-.62-.95-1.46-1.9-.89-3,.58-1.11,1.59-1.85,2.87-1.45,1.01.32,1.44-.15,2.14-.51.96-.52,2.12-.65,3.2-.93.67.96,1.65,1.89,1.92,2.92,1.11,4.29,3.85,7.53,6.6,10.74,1.88,2.19,2.07,2.41,2.04,5.05,1.5-.35,2.31.54,2.61,2.04Z"/><path class="cls-1" d="m366.11,467.98c-.66-2.88-1.64-5.64-3.29-8.18-.39-.62-.73-1.35-.89-2.06-.32-1.55.18-3.43-1.94-4.18-.07-.02,0-.5-.07-.73-.18-.59-.25-1.37-.64-1.78-2.22-2.26-3.17-5.03-3.79-8.04-.23-1.1-.89-2.12-1.32-3.2-.91.27-1.48.43-2.17.64.75-2.74.78-2.92-1.35-4.61-2.28-1.83-4.07-4-5.41-6.72-1.42-2.86-3.4-5.41-4.25-8.61-.41-1.53-1.26-1.85-2.63-1.62-.41.07-.8.25-1.64.5.96-1.76.27-2.97-.34-4.29-.39-.85-1.1-1.53-1.6-2.31,0-.02-.02-.02-.02-.02-.23-.39-.41-.82-.48-1.3-.09-.25-.21-.5-.32-.75-1.76-4.32-3.7-8.59-5.25-13.02-2.22-6.33-4.29-12.72-5.98-19.21-3.93-15.23-9.07-30.01-16.19-44.08-1.83-3.61-2.92-7.56-4.18-11.42-.62-1.92-.53-3.93.27-5.85.18-.43.32-.89.39-1.37.27-1.96-.46-2.76-2.35-2.24-1.99.57-3.84,1.23-6.03.73-1.78-.41-1.51,1.48-2.01,2.58-.69-.16-1.39-.34-2.1-.5-1.42-.3-2.6.05-3.45,1.35-.89,1.37-2.08,2.12-3.75,1.55-.94,0-1.87,0-2.81.05-1.55.07-2.03.71-1.55,2.22.23.69.57,1.44,1.03,1.99,2.86,3.31,4.36,7.29,5.64,11.35,2.47,7.74,4.93,15.51,7.22,23.32,2.17,7.33,3.72,14.87,6.21,22.11,3.08,8.91,6.85,17.59,10.28,26.4.98,2.54,1.83,5.14,2.72,7.72.39,1.14.64,2.38,1.14,3.47.82,1.85,1.28,2.17,2.72,1.53.02.16.07.32.09.5.55,2.58,1.55,3.72,3.86,4.39.94,3.47,1.05,3.59,3.95,3.31l-.09-.02c1.32-.43,1.07-2.6,2.79-2.67-.71-1.6-1.35-3.08-2.01-4.57.16-.07.34-.14.5-.21.43,1.01.85,2.03,1.3,3.02.91,1.9,2.56,2.58,4.13,1.76,1.69-.89,1.8-2.22.46-4.2-.69-1.03-1.35-2.06-1.94-3.13-.48-.85-.87-1.42-1.28-1.76h.09l.66.09,1.9.25.5.07c.09.02.16.05.25.05l.71.09.66.09c.07,0,.14.02.18.02h.02l.09.02c-.02.46,0,.89.18,1.23.5,1.03,1.78,1.64,2.81,2.54-.34.41-.48.85-.48,1.28,0,.87.59,1.78,1.32,2.67h-.05c.87.64,1.74,1.21,2.54,1.9,3.59,3.11,5.82,7.06,7.08,11.65.55,1.94,1.39,3.56,3.63,3.63-.3,1.71.78,2.6,1.78,3.63,1.03,1.05,2.03,2.22,2.7,3.52,1.05,2.06.62,4.87,3.13,6.24-.14,1.87,1.42,2.76,2.22,4.07.46.71,1.01,1.55,1.01,2.28,0,1.74,1.03,3.04,1.83,4.27.59.96,1.32,1.64,1.3,2.9,0,.98.71,1.55,1.6,1.51,1.03-.07.98-.94.78-1.83Zm-58.98-86.02c-2.17-8.59-3.52-17.43-5.09-26.18-.82-4.64-1.28-9.36-2.08-14.02-.37-2.12-.66-4.48-1.78-6.21-2.01-3.13-2.63-6.46-2.67-10-.05-2.33-.25-4.48-2.06-6.19-.07-.07.05-.37.07-.53,2.4,1.67,2.63,4.27,2.83,6.81.21,2.76.8,5.39,1.96,7.93,2.24,4.91,4.29,9.87,6.62,14.73,3.79,7.97,7.17,16.06,8.73,24.81,1.51,8.68,3.13,17.31,4.55,26.02.75,4.64,1.19,9.34,1.76,14.02-.14.05-.27.07-.41.09-.71-1.42-1.42-2.86-2.15-4.29-4.36-8.63-7.88-17.63-10.28-26.98Zm11.1,35.65c.27-.43.53-.85.8-1.3.09.43.34.87.69,1.35.55.75,1.39,1.42,1.28,3.08-1.05-1.21-1.94-2.17-2.76-3.13Zm6.58-1.6c-.27.16-.53.34-.87.55-.07-.16-.16-.3-.21-.43.55-.16,1.1-.32,1.62-.39-.18.09-.34.18-.55.27Z"/><path class="cls-1" d="m366.06,427.5c-2.06-1.51-3.72-2.83-5.48-3.97-.74-.47-1.68-.66-2.52-.77-1.27-.17-2.67.15-3.23-1.76-.03-.09-.09-.25-.11-.25-2.39.26-3.38-2.31-5.17-3.28-2.05-1.11-4.05-2.19-6.27-1.59-.36.1-.83-.08-1.34-.14-.72-1.6-.55-3.1-.45-4.56.09-1.28.75-1.61,1.96-1.11.66.27,1.28.71,1.9,1.12,2.51,1.68,5.11,2.92,7.98,2.98,1.17.02,2.06.62,3.02,1.57,2.25,2.21,4.67,4.24,7.07,6.27.54.46,1.29.65,1.96.9,1.99.74,2.46,1.69,1.62,3.43-.24.5-.7.87-.95,1.16Z"/><path class="cls-1" d="m321.7,428.51c1.4.1,2.22.68,2.47,2.33.65,4.14,2.3,7.93,5.33,11.18,1.29,1.39,1.41,2.12,1.19,4.42,1.07-.12,1.85.27,2.04,1.54.12.81.13,1.67.47,2.41.52,1.15,1.13,2.37,1.98,3.27,1.5,1.58,1.59,1.49.51,3.13.59-.17,1.18-.35,1.85-.55.35,1.03.57,1.91.95,2.74.39.84.93,1.62,1.5,2.58-.74.58-1.45,1.13-2.19,1.7-.97-1.71-1.86-3.18-2.63-4.69-.39-.76-.68-1.35-1.6-1.68-.48-.17-.88-1.13-1.16-1.78-.82-1.99-1.89-3.78-3.19-5.57-1.61-2.21-3.44-4.31-3.77-7.37-.34-3.13-2.22-6.07-4.27-8.72-2.29-2.98-2.27-3.29.62-4.92,0,0-.11,0-.11,0Z"/><path class="cls-1" d="m345.03,459.6c-1.54,1.09-3.17.89-3.68-1.85-.54-2.89-1.9-5.38-4.16-7.46-1.87-1.72-1.72-2.47.36-3.4,3-1.34,3.58-1.04,4.03,2.54.31,2.52,1.2,4.53,3.17,6.3,1.91,1.72,1.87,2.8.28,3.86Z"/><path class="cls-1" d="m351.94,469.32c.39.38.99.71,1.16,1.18.46,1.19.69,2.45,1.08,3.67.27.87.45,1.77-.41,2.07-1.03.37-1.69-.48-1.84-1.48-.23-1.53-1.1-2.48-2.21-3.42-.6-.51-1.2-1.27-1.42-2-.74-2.44-1.51-4.8-3.62-6.51-.3-.24-.38-.81-.61-1.36,1.12-.97,2.04-2.15,4.13-1.58-.08,2.8,1.2,5.1,3.13,7.18.43.47.4,1.42.61,2.24Z"/><path class="cls-1" d="m356.42,470.21c.94-1.63,2.27-1.56,3.48-1.75.62,1.85,1.18,3.55,1.75,5.25.28.85.36,1.72-.51,2-.98.31-1.71-.37-1.91-1.39-.34-1.69-.89-3.18-2.79-4.12Z"/><path class="cls-1" d="m338.23,416.22c-1.51-1.41-1.32-3.3-1.93-5.13,1.36-.3,2.49-.35,3.34.98.63.98-.03,2.79-1.41,4.14Z"/><path class="cls-1" d="m340.54,462.34c.79,1.6,1.26,2.69,1.85,3.72.49.84.73,1.6-.1,2.04-.74.39-1.23-.27-1.7-.92-.73-1.02-1.53-1.99-2.51-3.25.83-.53,1.63-1.05,2.46-1.59Z"/></g><path class="cls-2" d="m261.59,653.1c-.62,2.65-1.26,5.41-1.14,8.09.37,8.98,1.12,17.91,1.64,26.86.37,6.3.96,12.63.87,18.94-.16,9.75-.85,19.53-1.3,29.3-.39,8.54-.66,17.11-1.21,25.65-.48,7.22-1.39,14.39-1.92,21.61-.46,6.56-.11,13.02,2.97,19.09.8,1.58,1.1,3.47,1.37,5.28.32,2.24-.37,4.02-2.74,4.36.5,2.06,1.05,3.91,1.37,5.8.16.87.05,1.83-.16,2.7-.34,1.32-1.19,1.87-2.51,1.21-.48-.23-.91-.5-1.35-.73-1.42-1.35-3.02-2.03-4.93-1.21-.66.53-1.26,1.1-1.92,1.62.73.25,1.48.39,2.31.46,2.33.16,4.34,1.03,6.1,2.44.82-.23,1.55-.41,2.26-.62,2.92-.85,4.41.16,4.84,3.31-2.47-.82-5.37,1.03-7.63-1.28-1.21,1.28-2.7,1.28-4.23,1.19-1.37-.09-2.79-.34-4,.64,4.98.14,6.72,2.99,4.34,7.13-1.85-.82-3.63-2.42-6.17-.69,1.21.18,2.1.27,2.99.48,4.2.96,5.23,3.2,3.24,6.97-.91,1.71-1.37,3.45-1.07,5.44.21,1.37.94,3.04-1.05,3.91-.14.07-.02.69-.07,1.03-.07.62-.16,1.23-.25,1.9,2.76,1.58,2.81,1.85.82,4.59.23.55.53,1.12.69,1.76.25.98-.14,1.64-1.16,1.9-1.21.3-2.54-.27-3.06-1.37-.27-.59-.3-1.44-.73-1.8-1.78-1.46-1.62-3.17-.64-5.16-1.74-.34-2.83-1.12-2.58-2.9-2.38-1.69-.71-3.04.41-4.36,1.01-1.19,1.19-2.47,1.03-3.95-.18-1.67-.21-3.38-.34-5.05-.05-.5-.14-1.28-.46-1.44-1.26-.64-1.03-1.67-.91-2.7.37-3.02,1.71-5.16,4.96-5.66-1.01.05-2.01,0-2.99.16-.75.09-1.44.48-2.17.62-2.31.41-3.54-.43-3.61-2.74-.05-1.48.18-3.04.57-4.45.75-2.65,2.4-3.52,4.34-2.33,0-.05.02-.11.02-.16.37-2.03.82-4.02,1.28-6.14-.57.53-1.16,1.03-1.74,1.55-2.33,2.12-3.63,1.87-4.57-1.21-.53-1.71-.89-3.61-.71-5.37.48-4.25,1.23-8.47,2.08-12.65,1.92-9.62,3.43-19.23,2.9-29.1-.62-11.9-1.07-23.82-1.53-35.75-.48-13.02-.8-26.06-1.37-39.1-.37-8.04-.64-16.08-2.65-23.96-1.85-7.31-3.36-14.66-7.77-21.08-1.76-2.54-2.06-5.62-1.76-8.95,1.53-.16,2.9-.27,4.93-.48-3.22-1.67-4.32-4.45-5.53-7.24-2.42-5.62-2.15-10.96,1.62-15.85,2.31-2.97,3.7-6.3,4.52-9.89.85-3.7,1.76-7.35,2.4-11.06,4.48-24.92,6.65-50.02,6.62-75.35-.05-15.17.43-30.36.48-45.52.02-3.84-.27-7.81-1.3-11.47-.91-3.17-1.46-6.05-.37-9.2,1.35-3.77.32-7.24-1.67-10.48-1.69-2.74-3.31-3.45-6.44-2.83-1.9.39-3.75.96-5.62,1.44-2.49.59-3.95-.18-4.07-2.65-.25-4.84.27-9.59,3.06-13.8,1.6-2.35,3.7-4.04,6.58-4.61,4.04-.85,5.76.48,5.87,4.61.11,3.61,2.58,6.01,6.37,6.19,2.31-3.49,4.07-4.2,8.22-3.33,4.87,1.03,7.4,4.45,8.73,8.89,1.78,5.94,1.39,11.9-.43,17.77-.75,2.42-1.87,4.75-2.54,7.19-.64,2.33-1.07,4.75-1.23,7.15-.25,3.97-.21,7.95-.3,11.92-.32,12.31-.59,24.62-.98,36.96-.41,12.01-1.01,24.01-1.51,36.02-.57,14.34-1.1,28.69-1.71,43.03-.25,5.78,1.76,10.42,5.92,14.46,6.24,6.03,6.46,16.49.87,22.96l-6.49,1.78c-.66-.32-1.35-.64-2.31-1.07.46-1.1.91-2.06,1.3-3.06,1.01-2.56,2.01-5.12,2.95-7.67,1.99-5.44-3.33-12.63-9.91-12.22-6.85.41-10.87,3.59-12.27,10.83-.5,2.76.32,5.25,2.24,7.33.82.89,1.69,1.76,2.51,2.67,1.62,1.8,1.64,2.99,0,4.73-.48.48-1.1.89-1.85,1.42,2.67-.21,3.72-1.53,3.43-4.25-.18-1.55-.8-3.15-1.55-4.52-2.03-3.61-3.2-7.29-1.55-11.35.41-1.01.98-2.06,1.78-2.76,5.02-4.59,13.64-2.35,15.9,4.02.78,2.17.37,4.25-.43,6.26-.59,1.48-1.46,2.9-2.24,4.32-.53.98-1.16,1.92-1.64,2.9-.53,1.1-1.3,2.44-.27,3.4.64.62,1.99.53,3.22.21l6.62-1.21c1.23.16,2.44.3,3.79.46-.11.96-.14,1.58-.27,2.12-1.48,5.62-3.08,11.19-4.45,16.83Z"/><path class="cls-2" d="m256.17,828.86c.26,1.01.61,2.07.8,3.17.36,2.13.8,4.27.87,6.42.05,1.48-.02,2.83.94,3.39-.19,1.16-.69,2.15-.39,2.71.71,1.31.5,2.52.33,3.84-.1.85.11,1.74.19,2.72,1.42-.18,2.47-.32,4.01-.52-1.09.91-1.91,1.33-2.32,2-.54.88.58,1.43.8,2.1.93,2.94,1.56,5.98,2.25,8.99.35,1.5,1.11,2.34,2.95,2.06-.16-2.02.31-3.94-.5-6.02-.67-1.72-.39-3.81-.51-5.74-.02-.36.18-.98.05-1.05-1.99-1.08-1.11-3.53-2.42-5-.6-.67-.58-1.9-.82-2.89-.28-1.17-1.12-2.68-.68-3.44.79-1.39.13-2.32-.12-3.46-.55-2.58-1.16-5.15-1.51-7.76-.39-2.9-1.21-3.33-3.92-1.51Z"/><path class="cls-2" d="m273.91,850.71c-1.34,1.05-2.99.8-4.5,1.14-.67.15-1.58.41-1.86.91-.46.83.57,1.12,1.03,1.66.88,1.03,1.54,2.28,2.15,3.5.64,1.28,1.1,2.64,1.91,3.89.86-1.5,1.04-2.84.06-4.32-.81-1.22-1.66-2.55-1.17-4.35,1.39,0,2.26.56,2.75,1.84.56,1.48,1.16,2.95,1.78,4.4.13.31.43.54.86,1.05.6-1.5.73-2.71-.02-3.86-1.07-1.63-1.71-3.33-1.13-5.4-.76-.16-1.36-.29-1.97-.41,0,0,.12-.05.12-.05Z"/><path class="cls-2" d="m277.74,850.16c-.21-.6-.31-1.28-.64-1.8-1.37-2.12-2.79-4.21-4.26-6.27-.3-.42-.86-.64-1.41-1.04-.38.52-.68.93-1.05,1.42-.43-.38-.84-.73-1.25-1.08,0,0,.07-.04.07-.04-1.43.92-1.09,1.98-.19,3.03,1.29,1.49,2.46,3.01,2.72,5.08.15,1.2,1.2,1.24,2.17,1.26,0,0-.12.05-.11.05.26-.57.52-1.13.65-1.41,1.22.28,2.31.53,3.4.77,0,0-.1.03-.1.03Z"/><path class="cls-2" d="m266.64,838.83c-.43-1.09-1.03-2.15-1.25-3.28-.38-1.94-.52-3.92-.79-6.03-.98-.31-1.93-.61-3.27-1.04.25,1.05.47,1.81.61,2.58.45,2.51.87,5.03,1.3,7.54.13.74.14,1.54.43,2.21.19.43.78.93,1.21.95.43.02,1.09-.42,1.28-.84.31-.66.31-1.46.44-2.2,0,0,.04.1.04.1Z"/><path class="cls-2" d="m266.6,838.73c.17.51.37,1.02.52,1.54.31,1.11,1.01,1.44,2.09,1.08,0,0-.08.04-.07.04-.14-1.63-.3-3.26-.45-4.88.1-.02.2-.03.29-.05.47,1.05.94,2.1,1.42,3.15.76-2.22-.4-4-.82-6.11-1.17-.21-2.32-.42-3.5-.64.2,2.16.38,4.07.56,5.98,0,0-.05-.11-.05-.11Z"/><path class="cls-2" d="m268.03,851.08c1.37-.17,1.94-.77,1.53-1.76-.81-1.98-1.7-3.94-2.73-5.81-.23-.42-1.21-.43-2.18-.74.49,3.33,2,5.75,3.38,8.31Z"/><path class="cls-2" d="m266.2,827.28c-.68.19-1.36.38-2.07.58.94,1.45,1.82,2.82,2.77,4.29,1.28.18,1.63-.77,1.85-1.82.2-.98-.34-1.57-1.13-2.04-.52-.31-1-.67-1.49-1.01.01,0,.07,0,.07,0Z"/><path class="cls-2" d="m277.85,850.13c-.44.3-.89.59-1.26.84,1.08,1.95,2.07,3.72,3.06,5.5.14-.04.29-.08.43-.11,0-.51.11-1.06-.02-1.54-.34-1.33-.73-2.66-1.23-3.94-.13-.33-.73-.47-1.11-.7,0,0,.11-.04.11-.04Z"/><path class="cls-2" d="m199.24,250.45s0,.02-.02.05v-.05h.02Z"/><path class="cls-2" d="m216.3,166.85c-.05.71-.14,1.42-.34,2.12.07-.71.18-1.42.34-2.12Z"/><path class="cls-2" d="m277.45,166.21c-.34.53-1.44.85-2.17.8-.89-.07-1.83-.5-2.63-.96-2.81-1.58-5.71-1.8-8.77-.87-1.16.37-2.38.78-3.59.87-.73.05-1.48-.09-2.24-.23-.11-.02-.21-.02-.3-.07-1.53-.43-1.39-2.86-1.39-2.86,2.42-.18,4.89-.11,7.26-1.32-.32-1.21-.62-2.26-.94-3.47-.5.64-.85,1.05-1.3,1.64-3.24-2.12-6.74-3.47-10.48-4.16-2.79-.5-5.57-1.12-8.34-1.69-6.88-1.39-13.7-2.76-20.76-2.67-3.4.05-6.81-.37-10.16-.91-1.8-.3-3.63-1.1-5.18-2.1-2.81-1.83-3.59-6.6-1.6-9.91,1.21,1.03,2.47,1.99,3.56,3.06,3.33,3.22,7.2,5.09,11.88,5.32,4.61.23,9.23.82,13.86.98,10.35.37,20.12,3.17,29.72,6.81.23.09.41.32.59.48-.11.43-.23.82-.37,1.37,1.8-.43,3.24-.32,4.57.66,2.12,1.58,4.32,3.06,6.42,4.68.82.62,1.62,1.35,2.15,2.22.37.64.53,1.78.21,2.33Z"/><path class="cls-2" d="m184.98,96.72c-2.12.96-3.31.59-4.52-1.39-1.65.68-2.18.56-3.52-.77-1.27.8-2.86.16-3.26-1.33-.03-.12-.1-.25-.09-.36.22-2.12-.27-4.29.46-6.39.14-.39.08-1.07-.18-1.35-1.41-1.56-2.76-3.25-4.43-4.5-1.71-1.27-3.79-1.45-5.66-.08-.79.58-1.23.35-1.63-.37-.95-1.71-1.88-3.44-2.83-5.15-.63-1.14-1.23-2.31-1.94-3.41-.43-.66-.37-1.16.05-1.78,1.55-2.28,2.84-4.69,3.45-7.4.53-2.34.45-4.64-.59-6.85-.18-.37-.43-.71-.8-1.03-1.04,2.27-.4,4.66-.48,6.97-.14.09-.28.18-.43.27-.21-.35-.38-.72-.63-1.03-2.31-2.78-3.54-6.03-3.84-9.56-.34-4.12-.62-8.27-.56-12.41.08-6.13,1.25-12.08,4.08-17.59,4.04-7.88,10.49-12.98,18.87-15.54,10.45-3.19,20.82-2.79,30.8,1.82,9.18,4.24,14.64,11.63,17.05,21.34,1.54,6.21,1.69,12.51,1.03,18.85-.2,1.92-.33,3.85-.68,5.74-.5,2.74-1.65,5.22-3.46,7.35-.27.31-.6.57-1.13.75.07-1.16.2-2.32.19-3.48,0-1.15-.15-2.3-.23-3.45-.15-.03-.29-.06-.44-.09-.26.38-.57.74-.76,1.15-1.35,3.08-1.08,6.17.21,9.16.73,1.71,1.71,3.31,2.65,4.92.36.62.5,1.11.12,1.79-1.48,2.63-2.9,5.3-4.34,7.95-.15.27-.34.52-.51.78-.43.65-.87.82-1.6.29-1.88-1.35-3.92-1.2-5.65.12-1.62,1.23-2.97,2.82-4.39,4.29-.47.48-.46,1.05-.21,1.73.28.77.39,1.63.46,2.46.08.96.05,1.92.06,2.88.02,1.04-.17,2.01-1.19,2.56-.75.41-1.53.81-2.22-.07-1.61,1.48-1.83,1.52-3.56.71-.97,2.02-2.35,2.48-4.49,1.47-1.73,1.5-3.15,1.74-4.57.76-1.79.92-2.94.74-4.65-.74Zm22.83-27.03c.87,0,1.74.04,2.61,0,1.73-.1,3-.89,3.69-2.54,1.47-3.49,1.46-6.95-.15-10.39-.68-1.45-1.91-2.12-3.44-2.18-3.57-.14-7.09.28-10.5,1.34-2.52.78-4.04,2.54-4.29,5.21-.12,1.26-.11,2.55-.02,3.81.17,2.34.68,2.91,2.97,3.54,2.98.82,6,1.38,9.12,1.22Zm-36.44.15c3.34.02,6.57-.59,9.73-1.58.95-.3,1.93-.7,2.16-1.84.4-2,.51-4.02.07-6.03-.48-2.22-1.85-3.74-4.01-4.4-3.47-1.06-7.04-1.59-10.68-1.41-1.48.08-2.76.71-3.4,2.11-1.72,3.76-1.77,7.51.23,11.21.52.96,1.37,1.54,2.45,1.66,1.14.13,2.29.19,3.44.28Zm17.98,5.62c.13,0,.26,0,.39,0,.14.32.35.63.41.97.14.86.24,1.72.3,2.59.13,1.69.63,2.12,2.32,1.91.31-.04.61-.1.92-.17.98-.22,1.33-.6,1.07-1.58-.31-1.19-.67-2.41-1.29-3.46-.78-1.33-1.42-2.67-1.85-4.15-.3-1.03-.78-2.03-1.33-2.95-.5-.85-.92-.84-1.44.02-.52.87-1,1.81-1.25,2.78-.4,1.56-.99,2.99-1.92,4.31-.8,1.14-1.29,2.43-1.21,3.85.02.35.31.91.58.98.8.21,1.64.29,2.47.31.73.02,1.12-.42,1.15-1.18.04-.78.07-1.56.19-2.33.1-.65.31-1.28.47-1.92Z"/><path class="cls-4" d="m183.7,467.11c-2.22,19.73-3.47,39.01-6.67,57.97-6.1,36.09-13.32,71.99-20.03,107.99,0,0-21.7,16.03-54.59-1.9.18-26.29-.66-52.56-1-78.85-.46-36.68-2.9-73.48-.55-109.98.8-12.56,3.45-24.99,6.42-37.39,52.28,6.9,76.43,62.15,76.43,62.15Z"/></svg>