<?xml version="1.0" encoding="UTF-8"?><svg id="Lag_1" xmlns="http://www.w3.org/2000/svg" viewBox="0 0 406.59 931.53"><defs><style>.cls-1,.cls-2,.cls-3{fill:#fff;}.cls-4{fill:red;opacity:.39;}.cls-5,.cls-6,.cls-2{opacity:.22;}.cls-6,.cls-7{fill:none;}.cls-3{opacity:.15;}</style></defs><path class="cls-3" d="m406.58,464.84v.02c.02.24.02.47-.02.64-.17.98-.64,1.62-1.25,1.98-1.27.81-3.16.47-4.26-.05-5.8-2.57-12.59-2.96-17.36-9.21-.12-.12-.24-.29-.37-.44-.07.25-.15.51-.25.76-.32.98-.59,1.93-.76,2.87-.73,3.35-.64,6.39-.05,9.26.86,4.14,2.74,7.89,4.65,11.63.1.22.22.42.32.64,3.82,7.4,7.93,14.67,11.39,22.24,4.14,9.04,4.09,14.3-4.7,15.5-.81.1-1.69.17-2.6.2-1.54.02-9.4-3.06-12.2-2.4-2.4.59-3.8.76-5.22.25-.61-.25-1.37-.61-1.96-1.2l-.17-.25c-1.05-1.27-6.47-8.15-7.76-10.85l-14.86-20.82-.15-.25-.15-.2c-7.71-11.09-15.77-23.09-20.28-32.67-.2-.47-.39-.93-.61-1.42-.66-1.57-1.49-3.06-2.2-4.6-15.99-34.97-32.69-69.69-42.41-107.24-2.25-8.64-4.11-17.44-5.53-26.42-.07,26.67.88,53.16,4.78,79.22,1.05,7.1,2.52,14.18,4.14,21.23,1.57,6.86,3.26,13.71,4.87,20.57,3.18,13.3,6.02,26.62,6.88,40.09,2.52,39.13-.1,78.58-.59,117.91-.37,28.19-1.27,56.35-1.08,84.53.1,18.07,3.72,36.29,2.3,54.19-2.55,31.69-8.03,63.18-11.71,94.82-2.96,25.71-1.52,51.18,9.62,75.11,3.72,7.98,15.77,15.21,8.18,24-4.75,5.49-16.36,6.37-25.05,6.86-22.31,1.32-26.23-4.41-25.08-27.4,1.4-28.43-4.16-57.01,1.25-85.47.51-2.84-.91-6.07-1.52-9.09-7.84-38.94-19.89-77.34-14.52-117.94.56-4.21-1.2-8.72-2.01-13.05-7.2-38.59-14.94-77.09-21.48-115.78-3.43-20.33-4.78-40.99-7.15-62.15-2.3.1-3.09.15-6.37.29-3.28-.15-4.07-.2-6.37-.29-2.38,21.16-3.72,41.83-7.15,62.15-6.54,38.69-14.28,77.19-21.48,115.78-.81,4.33-2.57,8.84-2.01,13.05,5.36,40.6-6.69,79-14.52,117.94-.61,3.01-2.03,6.24-1.52,9.09,5.41,28.46-.15,57.03,1.25,85.47,1.15,22.99-2.77,28.73-25.08,27.4-8.69-.49-20.3-1.37-25.05-6.86-7.59-8.79,4.46-16.02,8.18-24,11.14-23.93,12.59-49.39,9.62-75.11-3.67-31.64-9.16-63.13-11.71-94.82-1.42-17.9,2.2-36.12,2.3-54.19.2-28.19-.71-56.35-1.08-84.53-.49-39.33-3.11-78.78-.59-117.91.86-13.47,3.7-26.79,6.88-40.09,1.62-6.86,3.31-13.71,4.87-20.57,1.62-7.05,3.09-14.13,4.14-21.23,3.89-26.06,4.85-52.55,4.78-79.22-1.42,8.99-3.28,17.78-5.53,26.42-9.72,37.54-26.42,72.27-42.41,107.24-.71,1.54-1.54,3.04-2.2,4.6-.22.49-.42.96-.61,1.42-4.51,9.57-12.56,21.57-20.28,32.67l-.15.2-.15.25-14.86,20.82c-1.3,2.69-6.71,9.57-7.76,10.85l-.17.25c-.59.59-1.35.95-1.96,1.2-1.42.51-2.82.34-5.22-.25-2.79-.66-10.65,2.42-12.2,2.4-.91-.02-1.79-.1-2.6-.2-8.79-1.2-8.84-6.47-4.7-15.5,3.45-7.57,7.57-14.84,11.39-22.24.1-.22.22-.42.32-.64,1.91-3.75,3.8-7.49,4.65-11.63.59-2.86.69-5.9-.05-9.26-.17-.93-.44-1.89-.76-2.87-.1-.24-.17-.51-.24-.76-.12.15-.24.32-.37.44-4.78,6.24-11.56,6.64-17.36,9.21-1.1.51-2.99.86-4.26.05-.61-.37-1.08-1-1.25-1.98-.05-.17-.05-.39-.02-.64v-.02c.12-1.32,1.1-3.13,2.13-3.8,12.78-8.15,19.47-25.13,37.42-26.01,3.55-.17,6.02-1.27,8.01-3.11l.32-.32c.17-.15.32-.29.49-.47.02-.05.07-.1.12-.15,1.89-2.06,3.38-4.36,3.94-6.44,5.93-21.65,10.04-43.76,14.99-65.68,2.47-10.9,3.87-22.33,7.74-32.64.39-1.05.81-2.08,1.27-3.11,14.33-32.67,18.1-66.34,13.35-101.31-.12-.91-.24-1.81-.32-2.69l-.02-.02c-3.33-29.73,6.64-44.64,35.75-55.15,8.69-3.11,17.29-6.73,25.66-10.75,2.79-1.35,5.41-2.94,7.76-4.73.07-.07.15-.15.22-.2,1.3-.98,2.5-2.03,3.65-3.18.17-.15.27-.22.27-.22.91-.91,1.76-1.84,2.6-2.79,8.84-10.46,12.02-24.59,8.69-38.08l-.02-.02c-1.49-6-4.29-11.85-8.45-17.22-6.29-8.11-10.21-22.58-3.8-29.88,1.05-1.22-.34-5.83-.59-8.89-1.4-16.58-.61-32.82,16.43-41.46,8.47-4.33,17.12-6.54,25.66-6.54s17.19,2.2,25.66,6.54c17.04,8.64,17.83,24.88,16.43,41.46-.24,3.06-1.64,7.66-.59,8.89,6.42,7.3,2.5,21.77-3.8,29.88-4.16,5.36-6.95,11.22-8.45,17.22l-.02.02c-3.33,13.49-.15,27.62,8.69,38.08.83.96,1.69,1.89,2.6,2.79,0,0,.1.07.27.22,1.15,1.15,2.35,2.2,3.65,3.18.07.05.15.12.22.2,2.35,1.79,4.97,3.38,7.76,4.73,8.38,4.02,16.97,7.64,25.66,10.75,29.12,10.51,39.08,25.42,35.75,55.15l-.02.02c-.07.88-.2,1.79-.32,2.69-4.75,34.97-.98,68.64,13.35,101.31.47,1.03.88,2.06,1.27,3.11,3.87,10.31,5.26,21.75,7.74,32.64,4.95,21.92,9.06,44.03,14.99,65.68.56,2.08,2.06,4.38,3.94,6.44.05.05.1.1.12.15.17.17.32.32.49.47l.32.32c1.98,1.84,4.46,2.94,8.01,3.11,17.95.88,24.64,17.85,37.42,26.01,1.03.66,2.01,2.47,2.13,3.8Z"/><path class="cls-7" d="m162.5,145.1c-.54.44-1.84,1.54-3.65,3.18"/><path class="cls-7" d="m165.37,142.08l-.02-.02"/><path class="cls-7" d="m120.33,214.79c0-.2,0-.37-.02-.56"/><path class="cls-7" d="m247.75,148.28c-1.81-1.64-3.11-2.74-3.65-3.18"/><path class="cls-7" d="m241.26,142.06l-.02.02"/><path class="cls-7" d="m286.29,214.23c-.02.2-.02.37-.02.56"/><path class="cls-7" d="m162.41,144.65c-.54.44-1.84,1.54-3.65,3.18"/><path class="cls-7" d="m165.28,141.64l-.02-.02"/><path class="cls-7" d="m120.24,214.35c0-.2,0-.37-.02-.56"/><path class="cls-7" d="m247.66,147.83c-1.81-1.64-3.11-2.74-3.65-3.18"/><line class="cls-7" x1="291.54" y1="433.4" x2="291.52" y2="433.4"/><path class="cls-7" d="m241.17,141.61l-.02.02"/><path class="cls-7" d="m286.2,213.78c-.02.2-.02.37-.02.56"/><path class="cls-6" d="m121.14,214.38c0-.2,0-.37-.02-.56"/><path class="cls-6" d="m287.1,213.82c-.02.2-.02.37-.02.56"/><path class="cls-2" d="m164.82,468.04c-.12,2.64-1.69,3.48-4.36,2.84-2.01-.51-3.99-1.13-6.02-1.54-3.35-.66-5.09.1-6.91,3.04-2.13,3.48-3.23,7.2-1.79,11.24,1.18,3.38.59,6.47-.39,9.87-1.1,3.92-1.42,8.18-1.4,12.29.05,16.26.56,32.55.51,48.81-.02,27.16,2.28,54.07,7.08,80.79.71,3.97,1.69,7.89,2.57,11.85.91,3.84,2.38,7.42,4.87,10.6,4.04,5.24,4.33,10.97,1.74,17-1.3,2.99-2.47,5.98-5.93,7.76,2.18.22,3.65.34,5.29.51.32,3.58,0,6.88-1.89,9.6-4.73,6.88-6.34,14.77-8.33,22.6-2.16,8.45-2.45,17.07-2.84,25.69-.61,13.98-.96,27.97-1.47,41.92-.49,12.78-.98,25.57-1.64,38.32-.56,10.58,1.05,20.89,3.11,31.2.91,4.48,1.71,9.01,2.23,13.57.2,1.89-.2,3.92-.76,5.75-1,3.31-2.4,3.58-4.9,1.3-.61-.56-1.25-1.1-1.89-1.67.51,2.28,1,4.41,1.4,6.59,0,.05.02.12.02.17,2.08-1.27,3.84-.34,4.65,2.5.42,1.52.64,3.18.61,4.78-.1,2.47-1.4,3.38-3.87,2.94-.78-.15-1.52-.56-2.33-.66-1.05-.17-2.13-.12-3.21-.17,3.48.54,4.92,2.84,5.31,6.07.12,1.1.37,2.2-.98,2.89-.34.17-.44,1-.49,1.54-.15,1.79-.17,3.62-.37,5.41-.17,1.59.02,2.96,1.1,4.24,1.2,1.42,2.99,2.87.44,4.68.27,1.91-.91,2.74-2.77,3.11,1.05,2.13,1.22,3.97-.69,5.53-.47.39-.49,1.3-.81,1.93-.54,1.18-1.96,1.79-3.28,1.47-1.08-.27-1.52-.98-1.22-2.03.17-.69.49-1.3.73-1.89-2.13-2.94-2.08-3.23.88-4.92-.1-.71-.2-1.37-.27-2.03-.05-.37.07-1.03-.07-1.1-2.16-.93-1.37-2.72-1.13-4.19.32-2.13-.17-3.99-1.15-5.83-2.13-4.04-1.03-6.44,3.48-7.47.96-.22,1.91-.32,3.21-.51-2.72-1.86-4.63-.15-6.61.73-2.55-4.43-.69-7.49,4.65-7.64-1.3-1.05-2.82-.78-4.31-.69-1.62.1-3.21.1-4.51-1.27-2.42,2.47-5.53.49-8.18,1.37.47-3.38,2.06-4.46,5.17-3.55.78.22,1.57.42,2.45.66,1.86-1.52,4.04-2.45,6.54-2.62.86-.07,1.69-.22,2.47-.49-.71-.56-1.35-1.18-2.06-1.74-2.08-.88-3.77-.15-5.29,1.3-.47.24-.93.54-1.44.78-1.42.71-2.33.12-2.69-1.3-.22-.93-.37-1.96-.2-2.89.37-2.03.96-4.02,1.49-6.22-2.55-.37-3.28-2.28-2.94-4.68.29-1.93.59-3.97,1.47-5.66,3.31-6.51,3.67-13.44,3.16-20.47-.54-7.74-1.54-15.43-2.03-23.17-.59-9.16-.88-18.34-1.3-27.5-.49-10.48-1.22-20.96-1.4-31.42-.1-6.76.54-13.54.93-20.3.56-9.6,1.37-19.17,1.76-28.8.12-2.87-.56-5.83-1.25-8.67-1.44-6.05-3.16-12.02-4.75-18.05-.15-.59-.17-1.25-.29-2.28,1.44-.17,2.74-.32,4.07-.49l7.1,1.3c1.32.34,2.74.44,3.45-.22,1.1-1.03.27-2.47-.29-3.65-.51-1.05-1.2-2.06-1.76-3.11-.83-1.52-1.76-3.04-2.4-4.63-.86-2.16-1.3-4.38-.47-6.71,2.42-6.83,11.66-9.23,17.04-4.31.86.76,1.47,1.89,1.89,2.96,1.79,4.36.54,8.3-1.64,12.17-.81,1.47-1.47,3.18-1.67,4.85-.32,2.91.81,4.33,3.67,4.55-.81-.56-1.47-1-1.98-1.52-1.76-1.86-1.74-3.13,0-5.07.88-.98,1.81-1.91,2.69-2.87,2.06-2.23,2.94-4.9,2.4-7.86-1.49-7.76-5.8-11.17-13.15-11.61-7.05-.44-12.76,7.27-10.65,13.1,1.03,2.74,2.11,5.49,3.18,8.23.42,1.08.88,2.11,1.4,3.28-1.05.47-1.76.81-2.47,1.15l-6.95-1.91c-6-6.93-5.75-18.15.93-24.61,4.46-4.33,6.61-9.31,6.32-15.5-.64-15.38-1.2-30.76-1.81-46.14-.54-12.88-1.18-25.74-1.62-38.62-.44-13.22-.71-26.42-1.05-39.62-.1-4.26-.05-8.52-.34-12.78-.17-2.57-.61-5.17-1.3-7.66-.71-2.62-1.91-5.12-2.72-7.71-1.96-6.29-2.38-12.69-.47-19.05,1.42-4.75,4.14-8.42,9.35-9.53,4.46-.93,6.34-.17,8.82,3.58,4.07-.2,6.71-2.77,6.83-6.64.12-4.43,1.93-5.85,6.29-4.95,3.09.61,5.34,2.42,7.03,4.95,3.01,4.51,3.58,9.6,3.31,14.79Z"/><path class="cls-2" d="m262.2,393.9c-7.35-4.7-15.5-5.31-23.73-3.23-6.1,1.54-9.01,7.22-7.74,13.54.1.49.12,1,.2,1.49.15.42.29.83.47,1.25.44,1.13,1.05,2.2,1.3,3.38,1.05,5.04,1.93,10.14,2.99,15.21,1.49,6.93-.17,13.08-4.41,18.61-1.1,1.44-2.18,2.96-3.53,4.16-4.31,3.84-8.77,7.54-13.15,11.29-2.01,1.71-4.09,3.33-5.95,5.19-.95.98-1.74,1.91-3.26,1.81-2.11-.1-4.26.17-6.05-1.35-3.67-3.06-7.27-6.15-11.02-9.09-5.19-4.11-10.07-8.55-13.62-14.2-2.38-3.8-3.92-7.96-3.28-12.42,1.18-8.03,2.23-16.11,5-23.75,2.62-7.32-1.81-14.3-8.69-15.55-6.61-1.18-13.17-.86-19.37,1.98-7.18,3.26-10.75,8.96-10.82,16.85-.05,3.31.56,6.51,1.84,9.5,1.89,4.48,4.07,8.84,6,13.3,1.98,4.53,5.14,8.01,9.21,10.7,1.25.83,2.57,1.62,3.89,2.35,4.56,2.62,7.1,6.54,7.54,11.8.1,1.3.32,2.62.27,3.94-.17,7.18,1,14.18,3.18,20.96,1.03,3.13,2.4,6.29,4.21,9.04,3.26,4.9,8.69,6.12,13.96,3.45,1.69-.86,3.38-1.98,4.6-3.4,2.08-2.45,3.82-5.22,5.63-7.89.61-.91,1.05-1.93,1.54-2.87h8.67c1.18,2.06,2.23,4.14,3.48,6.1,1.96,3.13,4.33,5.9,7.62,7.74,5.56,3.09,11.36,1.81,14.99-3.43,1.08-1.57,2.13-3.28,2.67-5.09,1.42-4.85,2.87-9.75,3.7-14.72.78-4.78.81-9.7,1.22-14.55.34-4.07,2.2-7.35,5.56-9.7,1.74-1.22,3.5-2.42,5.31-3.55,4.02-2.57,7.2-5.85,9.23-10.24,1.25-2.67,2.74-5.24,3.87-7.93,1.42-3.48,2.86-6.98,3.75-10.58,2.01-8.3-.78-15.94-7.27-20.13Zm-77.31,89.58c-1.67.88-3.06.88-3.97-.73-2.4-4.16-4.51-8.52-6.66-12.83-.27-.51-.17-1.2-.22-1.54.02-3.75,1.69-5.31,5.17-4.8,4.58.64,8.55,2.25,10.41,7.08,1.69,4.43-.51,10.63-4.73,12.83Zm47.63-11.51c-1.37,3.23-3.18,6.32-4.85,9.45-.22.44-.54.86-.86,1.25-1.32,1.52-2.52,1.71-4.29.71-2.86-1.57-5.39-6.07-5.34-9.43.15-3.75,3.23-8.64,7.05-9.35,1.79-.32,3.55-.95,5.34-1.08,2.2-.12,3.58.96,3.72,3.16.1,1.74-.1,3.7-.78,5.29Z"/><path class="cls-2" d="m279.61,289.77c-.37-4.26-1.67-8.28-2.57-12.39-.88-4.09-.81-8.4-1.15-12.61-.02-.29-.2-.56-.17-.86.05-.83.05-1.69.27-2.5,1.35-5.85.91-11.49-2.08-16.73-.54-1-.88-1.84-.37-2.94.76-1.59.54-3.23-.17-4.75-.86-1.91-1.81-3.8-2.82-5.63-.83-1.59-1.76-3.13-2.45-4.29,1.54-5.36.91-9.75-1.47-13.42-.96-1.47-2.18-2.82-3.67-4.07.22-1.71.51-2.94.51-4.16-.02-4.87-2.23-8.72-5.76-11.68-2.08-1.74-3.38-3.8-4.65-6.2-2.6-4.85-6.17-8.52-12.22-8.13-.02-.76-.12-1.52-.1-2.28.17-2.89-1.08-5.02-3.16-6.71-.02-.02-.05-.05-.07-.05-.83-.71-1.71-1.37-2.64-1.93-6.02-3.67-12.46-6.15-19.35-7.4-.71-.12-1.35-.2-2.01-.2h-.02c-.15,0-.32,0-.47.02,1.93-1.62,2.18-3.04,2.01-6.59-1.32.34-2.52.78-3.72.93-.69.07-1.62.32-1.79-1.64-.07-.66.66-1.71,1.15-2.84-.27-3.26-1-6.86-.37-9.67,1.62-1.59,2.94-2.62,4.11-4.11.81-1,1.13-2.77.34-4.87-1.59.49-3.18,1-4.75,1.49-.96-4.26-.96-4.33.42-6.42-.02-.59-.05-1.18-.07-1.76,3.84-.34,7.15-1.84,9.55-5.22,2.23-3.11,4.43-6.27,6.64-9.4.83-1.2,1.1-2.55,1.08-3.99-.07-2.03-.07-4.07-.12-6.12-.05-3.16.2-6.27,1.52-9.21.17-.37,0-.91-.02-1.35-.49.02-1.08-.07-1.49.15-1.27.66-2.11,1.76-2.35,3.18-.37,2.38-.64,4.75-1.03,7.13-.49,2.99-1.45,5.78-3.65,7.96-.22.24-.51.44-1.03.83.12-.59.2-.88.22-1.15,0-.73.1-1.49-.05-2.2-.1-.39-.51-.95-.88-1.03-.37-.1-.86.27-1.27.51-.22.12-.29.47-.51.59-.22.15-.61.32-.76.22-1.18-.83-2.06-.07-2.99.49-.32.2-.71.24-1.08.32-.64.1-1.27.15-1.91.27-.42.07-.81.27-1.25.32-.71.05-1.47-.1-1.96.69-.07.12-.42.15-.61.15-1.76-.07-3.5-.22-5.24-.2-.86,0-1.71.42-2.33-.51-.07-.1-.32-.1-.47-.12-.86-.22-1.71-.42-2.57-.61-.32-.07-.71-.22-.95-.1-.73.32-1.22.02-1.84-.37-.61-.34-1.52-.76-2.06-.54-.81.32-1.18.27-1.67-.39-.37-.49-.91-1.13-1.57-.69-.44.29-.78.98-.86,1.54-.1.81.05,1.69.1,2.72-.34-.27-.59-.44-.81-.64-2.3-2.16-3.18-4.97-3.72-7.93-.39-2.13-.51-4.31-.83-6.44-.27-1.76-1-3.28-2.69-4.09-.39-.17-1-.17-1.35.05-.2.12-.17.83-.05,1.22.32,1.22.86,2.4,1.1,3.62.81,3.62.44,7.32.32,10.97-.07,2.23.51,4.09,1.86,5.88,1.84,2.45,3.58,4.97,5.29,7.54,2.11,3.16,4.92,5.24,8.74,5.71.47.05.95.1,1.42.12-.1,1.15.15,2.06.78,2.57.34.27.66.59.93.86.12,4.41-.02,4.75-1.76,4.36-1.25-.27-2.5-.54-4.02-.86.17,6.66,1.84,8.33,3.4,10.19.59,2.5,1.2,2.87.83,5.22-.49,2.91-.44,3.13.91,4.43.56.51.78,1.03.51,2.62-1.4-.39-2.77-.73-4.14-1.15-.54-.17-1.1-.93-1.42.64-.29,1.42-.07,2.74.47,3.55.76,1.1,1.54,2.13,2.38,2.87.1.1.2.17.29.27h-.49c-.64,0-1.27.1-1.91.27-3.84,1-7.76,1.84-11.41,3.35-3.58,1.47-6.93,3.55-10.24,5.63-.27.2-.56.39-.83.59-1.89,1.52-2.94,3.7-2.79,6.44.05.81-.17,1.64-.22,2.18-1.71.17-3.36-.12-4.48.54-3.53,2.13-6.86,4.63-8.35,8.89-.56,1.69-1.62,2.89-2.96,4.04-4.97,4.29-8.11,9.45-6.07,16.85-.91.88-1.96,1.71-2.79,2.72-.54.59-.98,1.18-1.32,1.81-2.08,3.26-2.55,7-1.67,10.87.39,1.64.22,2.64-.49,3.89-1.35,2.33-2.67,4.65-3.87,7.03-.96,1.93-1.37,3.94-.51,6.12.22.66,0,1.71-.37,2.38-3.06,5.46-3.53,11.22-1.98,17.26.17.71.15,1.49.1,2.23-.24,3.65-.51,7.3-.81,10.95-.05.76.03,1.59-.24,2.25-1.57,3.65-2.16,7.54-2.77,11.46-.47,3.13-.39,6.24.66,9.13,1.3,3.5,1.49,7.1,1.79,10.75.22,3.28.66,6.59,2.28,9.45.93,1.67,1.3,3.35,1.49,5.19.44,3.87,1.47,7.57,3.4,10.92,2.57,4.36,6.56,5.75,10.92,3.43,2.35-1.25,4.48-3.04,6.34-5,2.28-2.38,4.11-5.19,6.15-7.81.93-1.18,1.89-2.35,2.86-3.5,1.08-1.27,2.45-2.38,3.28-3.8,5.73-9.92,10.75-20.2,15.16-30.86,1.3-3.16,2.84-6.27,4.73-9.09,1.81-2.67,3.89-5.14,5.98-7.64.17-.22.34-.42.51-.61.25,2.2-.12,4.24-.66,6.32-.44,1.67-.2,2.99.98,3.62.47.27.91.61,1.32.88.17,4.58-.05,4.92-2.55,4.53-1.76-.29-3.55-.56-5.73-.88.25,6.88,2.62,8.6,4.85,10.53.86,2.6,1.74,2.96,1.2,5.39-.69,3.01-.61,3.23,1.32,4.58.78.56,1.1,1.08.71,2.72-1.98-.39-3.97-.73-5.93-1.18-.76-.17-1.57-.96-2.03.66-.42,1.47-.07,2.82.69,3.65,1.08,1.15,2.2,2.2,3.4,2.96,1.89,1.22,2.33,2.03,2.08,5.09-.1,1.35-.42,2.67-.73,3.94-.44,1.79-.07,2.94,1,3.6.59.37,1.49.24,1.25,2.11-2.5,1.57-5.02-1.05-7.79-.24.17,7.08,4.04,6.47,6.88,8.62-.17,1.74-.27,3.62-.59,5.41-.61,3.4-.66,3.35,1.32,4.95.37.27.59.96,1.3,2.16-3.31-.59-6.02-1.08-8.57-1.52-.71,2.3-.29,3.8.64,4.8.93,1.03,1.91,2.28,2.96,2.5,2.2.49,2.62,2.96,2.77,5.56.12,1.84-.24,3.8-.56,5.63-.56,3.09-.61,3.4,1.32,4.63,1.4.91,1.4,2.08.93,3.8-3.62-.69-7.13-1.35-10.65-2.01-.86-.17-1.84-.66-2.28,1.05-.44,1.81.42,3.01,1.25,3.6,1.74,1.22,3.55,2.11,5.36,3.04.69.37,1.42.51,2.23.78-.76,5.02-1.08,9.58.07,14.2,1.15,4.73,3.77,7.22,6.17,9.89-1.3,1.05-2.69,1.49-3.31,2.87-.83,1.81-1.54,3.82-2.15,5.88-.66-.54-1.35-1.1-2.03-1.71-.69-.59-1.22-1.35-1.89-1.98-1.47-1.4-2.86-2.89-4.43-4.14-1-.83-2.2-1.47-3.43-1.93-1.59-.59-2.77-.07-3.55,1.44-.39.78-.78,1.71-.81,2.57-.05,3.65-.29,7.32.12,10.92.42,3.7,1.84,7.08,5.44,9.01,1.3.69,1.71,1.96,1.81,3.33.1,1.42.02,2.87.32,4.24.32,1.44.81,2.91,1.54,4.21,1.3,2.28,2.74,4.48,4.29,6.61.73,1,1.74,1.98,2.84,2.5,1.44.66,2.33,1.64,2.79,3.04,1.1,3.33,2.16,6.69,3.18,10.06.54,1.71,2.99,3.97,4.55,4.02,1.74.07,4.65-2.03,5.17-3.67,1-3.28,1.96-6.56,3.16-9.77.42-1.15,1.25-2.62,2.25-2.99,2.13-.81,3.21-2.35,4.26-4.11,1.03-1.74,2.13-3.43,3.31-5.09,1.13-1.62,1.79-3.38,1.79-5.39,0-.91.05-1.81.1-2.74.07-1.93.71-3.5,2.6-4.46,1.79-.93,2.99-2.55,3.53-4.41.73-2.5,1.35-5.09,1.57-7.69.25-2.72,0-5.46-.02-8.2-.17-.42-.32-.83-.47-1.25-2.23-2.5-3.45-2.72-6.22-.96-1.13.71-2.15,1.54-3.11,2.42-1.32,1.25-2.52,2.64-3.82,3.94l-.42.42c-.2-.61-.34-1.22-.51-1.86-.71-2.72-1.98-4.09-3.8-4.31-.37-.05-.73-.27-1.69-.61,6.76-5.56,8.55-13.81,6.64-24.46.88-.29,1.57-.39,2.2-.73,1.57-.83,3.13-1.67,4.6-2.77.86-.61,1.74-1.71,1.42-3.5-.34-2.06-1.47-1.47-2.4-1.27-.96.2-1.89.39-2.84.54-2.4.42-4.8.78-7.1,1.18-1.27-3.13.88-3.28,1.44-4.78-.73-4.6-1.35-9.18-.05-13.64,4.9-2.55,5.88-4.11,5.04-8.18-2.47-.24-4.95,1.74-7.93.59.88-1.08,1.45-1.74,1.96-2.38q-.76-6.78-.29-9.18c2.03-1.42,3.89-2.5,5.61-4.02,1.15-1,1.62-2.77.71-5-2.67-.02-5.26,1.98-8.33.27.81-1.15,1.37-1.96,1.81-2.6-.2-3.28-.39-6.39-.56-9.4,6.83-2.99,7.57-3.87,7.25-8.91-1.89.37-3.6.81-5.31.96-.98.07-2.3.32-2.57-1.69-.1-.71.95-1.79,1.64-2.94-.39-3.38-1.4-7.1-.49-10.02,2.3-1.64,4.16-2.72,5.88-4.26,1.18-1.05,1.59-2.84.49-5.04-2.28.51-4.58,1.05-6.81,1.54-1.37-4.38-1.35-4.48.59-6.64-.15-3.23-.49-6.37-.37-9.48v-.42h.02c.15.15.27.29.42.47l.07.07.05.05c4.53,5.44,8.74,11.04,11.36,17.9,3.89,10.21,8.91,19.88,14.25,29.36.78,1.42,1.71,2.74,2.74,3.97,1.3,1.59,2.86,2.96,4.14,4.58,1.98,2.4,3.67,5.12,5.78,7.35,1.96,2.01,4.16,3.89,6.56,5.19,4.36,2.38,8.5,1.03,10.87-3.43,1.37-2.57,2.38-5.46,2.99-8.33.73-3.28,1.49-6.44,2.64-9.6,1.15-3.18,1.22-6.78,1.81-10.19.39-2.25.66-4.53,1.27-6.73.86-3.09,1.32-6.17,1.03-9.4Zm-8.69-42.17c3.28,4.58,3.13,7.49-.66,10.95-5.68,5.17-11.98,9.35-19.05,11.97-5.76,2.11-11.53,1.52-16.68-2.06-5.66-3.92-11.14-8.18-16.68-12.34-.86-.66-1.67-1.54-2.18-2.52-.66-1.32.12-2.4,1.54-2.01,1.03.29,1.98.96,2.94,1.49,3.09,1.74,6.05,3.7,9.23,5.19,6.29,3.01,12.78,3.53,19.22.44,6.51-3.11,13-6.37,19.47-9.55.91-.47,1.79-1,2.84-1.57Zm-4.73-14.67c.37.56.69,1.15.93,1.76,1.03,2.52.73,3.84-1.4,5.53-4.06,3.21-8.47,5.8-13.25,7.69-4.6,1.81-9.38,2.82-14.91,2.96-5.61-.66-11.75-1.76-17.63-4.21-1.93-.81-3.5-2.11-4.68-3.94-1.71-2.69-.66-5.27,2.47-5.58,1.79-.17,3.65.1,5.46.34,2.57.34,5.07.98,7.64,1.3.07,0,.12.02.2.02.51.05,1.08.1,1.59.15.73.05,1.45.1,2.18.1h.56c3.97.05,7.91-.54,11.75-2.08,1.3-.51,2.6-1.03,3.89-1.52,3.72-1.4,7.49-2.69,11.22-4.04,2.47-.91,2.6-.83,3.97,1.52Zm-124.89,1.89c.1-.27.25-.54.37-.78,1.69-3.53,1.86-3.6,5.49-2.28,3.13,1.15,6.27,2.25,9.4,3.4h.02c2.33.83,4.68,1.69,7,2.55,3.13,1.18,6.29,1.44,9.48,1.35.69,0,1.4-.05,2.11-.1.54-.02,1.08-.07,1.64-.15.59-.05,1.18-.1,1.79-.17,2.4-.27,4.73-.96,7.08-1.27,1.74-.22,3.5-.42,5.22-.2,2.96.37,4.09,2.94,2.33,5.44-1.08,1.47-2.52,2.96-4.11,3.7-6.1,2.91-12.64,3.94-18.39,4.6-11.07-.49-20.03-4.46-28.09-10.8-1.98-1.57-2.25-2.87-1.32-5.29Zm-3.92,12.93c6.22,3.13,12.22,6.29,18.32,9.21,2.84,1.35,5.8,2.38,8.82,3.28,3.94,1.2,7.84.44,11.66-.78,4.24-1.4,8.08-3.67,11.83-6.15,1.08-.71,2.23-1.35,3.45-1.71,1.15-.34,1.81.49,1.42,1.69-.25.76-.73,1.59-1.37,2.06-6.27,4.73-12.34,9.75-18.95,13.93-4.8,3.06-10.41,3.13-15.75,1.08-6.78-2.62-12.83-6.66-18.34-11.56-3.99-3.58-4.21-6.37-1.08-11.04Zm10.73,84.95c-3.7.56-6.66-1.67-8.84-7.05,1.25.51,2.08.86,2.91,1.18,2.82,1.05,5.68,1.47,8.64.61,1.3-.39,2.67-.47,4.11-.69-.34,2.77-3.62,5.49-6.83,5.95Zm3.09-11.07c-8.23-.07-13.69-4.29-14.94-11.93,8.64,9.09,18,9.55,27.99,3.48-.91,5-6.37,8.52-13.05,8.45Zm27.72-32.79c-1.47,2.2-3.04,4.36-4.53,6.56-3.01,4.46-6.37,8.47-10.87,11.34-4.31,2.72-8.94,3.87-13.79,2.3-8.82-2.84-14.1-9.4-16.8-18.44-.66-2.25-.22-4.53.12-6.78.2-.05.39-.1.59-.17,1.37,1.69,2.67,3.43,4.09,5.04,1.86,2.13,3.75,4.24,5.76,6.22,3.84,3.8,8.5,4.95,13.57,3.89,5.9-1.2,11.04-4.02,15.6-8.2,2.18-2.01,4.7-3.65,7.32-5.66.32,1.76-.34,2.87-1.05,3.89Zm15.94-26.25c-.1.12-.2.22-.32.34-.07.1-.17.17-.29.27-2.28,2.28-4.63,4.55-6.93,6.83-2.2,2.2-4.41,4.36-6.49,6.69-4.82,5.46-10.51,9.58-17.29,11.98-1.13.42-2.3.69-3.38,1.22-3.55,1.89-6.91,1.22-10.31-.51-6.69-3.38-11.83-8.13-13.37-16.14-.29-1.64-.29-3.35-.47-5.04.24-.07.47-.17.71-.24,3.89,3.92,8.45,6.78,13.17,9.35,2.35,1.27,4.85,2.33,7.35,3.23,3.45,1.22,6.96.71,10.26-.73,5.46-2.42,10.31-5.8,14.42-10.41,2.62-2.94,5.58-5.53,8.45-8.25.59-.59,1.35-1.03,2.06-1.4.88-.47,1.67-.22,2.25.39.15.15.27.32.39.49.02.02.02.05.02.07-.12.64-.2,1.25-.24,1.86Zm-.39-39.26c-.34.54-.71,1.03-1.15,1.47-.07.1-.15.17-.24.27-1.03,1.03-2.23,1.76-3.6,2.18-3.53,1.08-7.08,2.03-10.65,2.89-.56.12-1.15.24-1.69.32-1.2.2-2.38.32-3.58.34-4.87.15-9.6-1.13-14.13-3.21-3.06-1.37-5.98-3.18-8.82-5.04-.59-.39-1.15-.76-1.74-1.15-2.01-1.3-2.6-2.62-2.06-4.48.12-.51.34-1.05.66-1.67.51-.98,1.22-1.89,1.89-2.94.91.32,1.71.56,2.47.81.1.05.17.07.27.1,4.51,1.64,9.11,3.13,13.54,4.95,3.6,1.49,7.27,1.96,10.92,1.84.24.02.47,0,.71,0,.51-.02,1-.07,1.49-.12,1.08-.07,2.13-.2,3.18-.37,2.08-.29,4.14-.86,6.24-1.15.1-.02.17-.02.27-.05.2-.02.42-.05.64-.07,1.15-.12,2.35-.17,3.48.05,2.55.56,3.31,2.72,1.89,5.04Zm-4.92-11.22c-3.72-.2-7.4-.17-11.09-.37v-.07c-4.87-.27-9.67-.98-14.35-3.01-2.82-1.25-5.58-2.64-8.23-4.29-2.45-1.57-3.01-3.72-2.06-6.07.56-1.37,1.52-2.35,2.74-2.74h.07c4.14,1,8.18,2.28,12.29,3.26,2.45.59,4.92,1.08,7.37,1.49,5.71.96,11.44,1.44,17.24,1.47.54.02,1.08.07,1.89.12.15,1.1.37,1.96.37,2.82.1,4.63-2.01,7.62-6.24,7.4Zm6.27-17.66c-.02.27-.07.59-.2.91-1.15-.07-2.28-.15-3.43-.2-.22-.02-.47-.05-.69-.05-1.84-.12-3.65-.24-5.46-.51-2.89-.42-5.78-1.15-8.67-1.64,0-.1,0,.1,0,0-2.77-.51-5.56-1.03-8.33-1.52-1.54-.27-2.89-.96-3.31-2.82-.42-1.86.27-3.43,1.35-4.78.25-.32.51-.56.81-.73h.02c2.38,1.18,4.8,2.06,7.3,2.77,4.06,1.15,8.2,1.84,12.37,2.6,2.13.37,4.24,1.35,6.17,2.38,1.25.66,2.23,1.74,2.06,3.5v.1Zm-3.62-19.88c.07,4.46,1.25,5.75,2.62,6.69-.05.1-.07.17-.12.27-.17.42-.39.83-.59,1.22-1.18,2.11-3.13,3.43-5.51,3.09-3.36-.47-6.66-1.2-9.99-2.01-.61-.17-1.27-1.08-1.52-1.79-1.42-4.38-.47-8.38,2.35-11.83,1.49-1.81,3.62-2.13,5.8-2.03,2.89.2,5.66.78,8.08,2.52,1.64,1.18,2.69,2.69,2.89,4.55-1.3-.07-2.62-1.25-4.02-.69Zm24.83-4.97c2.5-1.1,5.14-1.62,7.84-1.37,2.25.2,4.02,1.25,5.19,3.33,1.32,2.3,2.03,4.73,1.86,7.25,0,.02-.02.05,0,.07-.05.76-.15,1.52-.37,2.28-.02.02-.02.05-.02.07-.05.2-.1.37-.17.56-.22.73-.81,1.69-1.42,1.89-3.06.96-6.2,1.69-9.31,2.5-3.45-.05-5.68-1.69-7.03-4.85-.1-.2-.17-.39-.25-.59-.05-.12-.1-.22-.12-.34.42-.42.81-.83,1.2-1.3.78-.98,1.13-2.69.49-4.82-.83-.02-1.64.34-2.47.61.42-2.33,1.93-4.11,4.58-5.29Zm-4.38,24.46c-.1-1.57.78-2.64,2.06-3.31,1.86-.98,3.89-1.76,5.9-2.25,2.5-.64,5.14-.66,7.62-1.35,1.49-.42,2.94-.86,4.38-1.35,2.4-.78,4.78-1.62,7.15-2.47.27-.1.51-.2.76-.24h.02c.91.37,1.59,1.27,2.11,2.87.83,2.45.02,4.46-2.18,5.31-.49.2-1,.29-1.52.39-2.82.49-5.66.98-8.47,1.47,0,.07.02-.07,0,0-2.69.42-5.39,1.08-8.06,1.49-2.25.32-4.51.47-6.76.59-.2.02-.42.02-.61.05-.12,0-.22.02-.34.02-.61.05-1.25-.07-1.86-.1-.1-.34-.15-.66-.2-.98v-.15Zm.2,8.06c5.44-.44,10.31-.76,15.16-1.25,1.15-.12,2.33-.27,3.5-.47,5.83-.86,11.56-2.38,17.24-4.02,1-.29,2.01-.61,3.01-.81h.02c1.42.39,2.55,1.52,3.06,3.09.64,2.03.15,3.82-1.64,5.29-1.05.86-2.18,1.62-3.35,2.23-6.46,3.38-13.25,5.34-20.42,5.49v.05c-2.33.05-4.65.27-7,.39-1.37.05-2.77.2-4.11,0-3.35-.44-4.92-2.01-5.44-5.51-.22-1.47-.02-3.01-.02-4.48Zm3.26,16.14c.91-.15,1.86-.12,2.79-.02.29.02.59.05.88.1.25.02.47.05.69.07,2.89.37,5.75.86,8.64,1.22.47.05.95.12,1.42.17.47.07.98.12,1.44.17.34.02.64.07.98.1h.22c2.52.1,5.04-.29,7.49-1.18,5.09-1.86,10.26-3.72,15.38-5.56.22-.07.42-.15.64-.22.73-.27,1.52-.49,2.35-.78.47.56.73.83.93,1.13.71,1.08,1.22,1.98,1.52,2.79v.02c.95,2.4.02,3.87-3.11,6.12-.61.44-1.25.86-1.86,1.27-5.26,3.48-10.92,5.98-17.17,6.71-1.57.17-3.18.27-4.8.22h-.1c-1.22-.02-2.42-.15-3.6-.34-.05,0-.12-.02-.17-.05-3.92-.66-7.76-1.84-11.58-2.91-1.45-.42-2.72-1.22-3.75-2.33-.1-.1-.17-.17-.24-.27-.39-.42-.71-.83-1-1.32-1.54-2.4-.73-4.63,2.01-5.12Zm.37,47.19c-.61-.61-1.25-1.22-1.84-1.86-.22-.2-.44-.42-.64-.61,0-.66-.07-1.32-.2-2.01-.02-.22-.07-.47-.12-.69.15-.17.32-.32.49-.42.54-.42,1.22-.49,1.93-.07.96.56,1.91,1.18,2.72,1.96,3.04,2.91,6.02,5.93,9.01,8.91,4.87,4.85,10.26,8.77,17,10.16,2.6.54,5.09.37,7.57-.61,6.12-2.35,11.61-5.75,16.73-9.94.93-.78,1.86-1.52,3.33-2.72-.05,7.81-2.4,13.84-7.98,18.12-2.23,1.71-4.7,2.99-7.18,4.31-2.6,1.37-5.27,1.49-8.01.32-2.11-.91-4.33-1.49-6.49-2.4-5.46-2.28-10.04-5.98-14.23-10.21-4.07-4.07-8.06-8.15-12.1-12.24Zm44.89,67.32c-3.33-.05-7.08-2.69-7.89-5.83,1.13.07,2.25-.12,3.18.22,3.89,1.35,7.59.71,11.22-.98.29-.15.61-.22,1.08-.37-1.27,4.33-4.29,7.03-7.59,6.95Zm10.46-20.72c-.59,1.2-1.2,2.38-1.89,3.53-1.84,3.16-4.55,4.9-8.03,5.53-3.11.59-6.17.73-9.28,0-3.87-.91-6.96-3.67-8.74-8.15,10.24,6.24,19.54,5.85,28.31-2.57-.12.56-.15,1.15-.37,1.67Zm3.43-20.37c-2.38,7.08-6.49,12.64-13.1,16.04-5.29,2.72-10.48,2.52-15.67-.12-3.77-1.96-6.88-4.85-9.48-8.28-2.72-3.62-5.31-7.4-7.86-11.17-.54-.78-.73-1.84-1.1-2.79.17-.12.37-.24.51-.39,2.69,2.11,5.44,4.16,8.06,6.34,5.31,4.38,11.09,7.57,18.02,7.79,3.87.15,7.35-1.13,10.09-3.94,2.89-2.96,5.56-6.15,8.3-9.26.66-.76,1.27-1.54,2.23-2.72.66,3.26.88,5.93,0,8.5Z"/><path class="cls-2" d="m132.67,888.65c-.28,1.08-.66,2.22-.86,3.4-.39,2.28-.86,4.58-.94,6.88-.05,1.59.02,3.04-1.01,3.63.21,1.25.74,2.31.41,2.91-.76,1.4-.53,2.7-.36,4.12.11.91-.12,1.86-.2,2.91-1.53-.2-2.65-.34-4.3-.56,1.17.97,2.05,1.42,2.49,2.14.58.95-.63,1.53-.85,2.25-1,3.15-1.67,6.41-2.42,9.64-.37,1.61-1.19,2.51-3.16,2.21.18-2.17-.33-4.22.54-6.45.72-1.84.42-4.08.55-6.15.02-.39-.2-1.05-.05-1.13,2.13-1.16,1.2-3.79,2.6-5.36.64-.72.62-2.04.87-3.09.3-1.25,1.2-2.87.73-3.69-.85-1.49-.14-2.48.12-3.71.59-2.77,1.24-5.53,1.62-8.32.42-3.1,1.3-3.57,4.21-1.62Z"/><path class="cls-2" d="m113.65,912.08c1.43,1.12,3.2.86,4.82,1.22.72.16,1.7.44,2,.98.49.89-.61,1.2-1.11,1.78-.95,1.1-1.65,2.44-2.3,3.76-.68,1.37-1.18,2.83-2.05,4.17-.92-1.61-1.12-3.05-.06-4.63.87-1.31,1.78-2.73,1.25-4.67-1.49,0-2.43.6-2.95,1.97-.6,1.59-1.24,3.16-1.91,4.72-.14.33-.46.58-.92,1.12-.65-1.61-.79-2.91.02-4.14,1.15-1.75,1.83-3.57,1.21-5.79.81-.17,1.46-.31,2.11-.44,0,0-.13-.06-.13-.06Z"/><path class="cls-2" d="m109.54,911.49c.22-.65.33-1.37.69-1.93,1.47-2.27,2.99-4.51,4.56-6.72.32-.44.92-.69,1.51-1.11.41.55.73.99,1.12,1.52.46-.4.9-.79,1.34-1.16,0,0-.08-.04-.08-.04,1.53.99,1.17,2.13.2,3.25-1.38,1.6-2.63,3.23-2.92,5.44-.16,1.28-1.29,1.33-2.32,1.35,0,0,.13.06.12.05-.28-.61-.56-1.21-.7-1.51-1.31.3-2.48.56-3.65.83,0,0,.11.04.11.04Z"/><path class="cls-2" d="m121.44,899.35c.46-1.17,1.1-2.3,1.34-3.52.41-2.08.56-4.2.84-6.47,1.05-.33,2.07-.66,3.51-1.11-.27,1.13-.5,1.94-.65,2.77-.48,2.69-.93,5.39-1.39,8.08-.14.8-.15,1.65-.46,2.37-.2.46-.84.99-1.3,1.01-.46.02-1.17-.46-1.37-.9-.33-.71-.33-1.56-.48-2.36,0,0-.05.11-.05.11Z"/><path class="cls-2" d="m121.49,899.24c-.19.55-.4,1.09-.56,1.65-.34,1.19-1.09,1.54-2.24,1.16,0,0,.08.05.07.04.15-1.75.32-3.49.48-5.23-.11-.02-.21-.03-.32-.05-.51,1.13-1.01,2.25-1.52,3.38-.81-2.38.43-4.28.88-6.55,1.25-.23,2.49-.45,3.75-.68-.22,2.31-.41,4.37-.6,6.41,0,0,.05-.12.05-.12Z"/><path class="cls-2" d="m119.95,912.48c-1.47-.19-2.08-.82-1.64-1.88.87-2.12,1.82-4.22,2.93-6.23.25-.45,1.29-.47,2.34-.8-.53,3.57-2.14,6.16-3.62,8.91Z"/><path class="cls-2" d="m121.92,886.96c.73.2,1.45.41,2.22.62-1,1.56-1.95,3.02-2.96,4.6-1.38.19-1.75-.83-1.98-1.95-.22-1.05.37-1.69,1.21-2.19.55-.33,1.07-.72,1.6-1.09-.01,0-.07,0-.07,0Z"/><path class="cls-2" d="m109.43,911.46c.48.32.95.63,1.35.9-1.16,2.09-2.22,3.99-3.28,5.89-.16-.04-.31-.08-.47-.12,0-.55-.12-1.13.02-1.65.37-1.43.78-2.85,1.32-4.23.14-.35.78-.5,1.19-.75-.01,0-.12-.04-.12-.04Z"/><path class="cls-2" d="m186.43,158.9c-1.64,1.08-3.62,1.93-5.56,2.25-3.58.59-7.25,1.03-10.87.98-7.57-.1-14.91,1.37-22.26,2.87-2.99.61-5.95,1.27-8.94,1.81-4.04.73-7.79,2.18-11.26,4.46-.49-.64-.83-1.08-1.37-1.76-.37,1.3-.66,2.42-1,3.72,2.62,1.35,5.39,1.22,8.06,1.44,0,0-.25,2.55-1.98,3.09-.17.05-.37.07-.54.1-.66.12-1.32.22-1.98.17-1.3-.1-2.57-.54-3.82-.93-3.28-1-6.39-.76-9.4.93-.88.49-1.86.95-2.82,1.03-.78.05-1.96-.29-2.33-.86-.37-.59-.17-1.81.22-2.5.54-.93,1.42-1.71,2.3-2.38,2.25-1.74,4.58-3.33,6.86-5.02,1.42-1.05,2.99-1.18,4.92-.71-.17-.59-.27-1-.42-1.47.2-.17.39-.42.66-.51,10.29-3.89,20.74-6.91,31.86-7.3,4.97-.17,9.89-.81,14.86-1.05,5.02-.24,9.16-2.25,12.71-5.71,1.2-1.15,2.52-2.18,3.84-3.28,2.11,3.55,1.27,8.67-1.74,10.63Z"/><path class="cls-2" d="m105.43,338.55c-2.55-.14-4.17-1.87-5.88-3.46-1.15-1.08-2.35-2.11-3.57-3.2-.84.74-1.37,1.2-1.89,1.66-2.65,2.3-5.45,2.49-8.33.48-2.33-1.63-3.83-3.9-4.75-6.54-.67-1.91-.18-3.64,1.28-5,1.41-1.31,2.87-2.58,4.41-3.73,3.91-2.89,6.54-6.66,7.62-11.38,1.49-6.52,2.82-13.07,4.16-19.62,2.34-11.45,3.32-23.07,4.31-34.69,1.03-12.13,1.98-24.26,2.71-36.41.32-5.35-.13-10.74.05-16.11.18-5.26.61-10.51,1.19-15.74.26-2.4,1.66-3.37,4.28-3.42,1.4-.03,2.37-.37,3.42-1.4,2.54-2.47,5.7-2.93,9.04-1.85,7.26,2.35,10.71,8.67,8.74,16.07-.97,3.64-2.76,6.62-6.38,8.42-3.22,1.6-5.38,4.29-5.98,7.97-1.46,9-3.11,17.98-4.24,27.02-1.77,14.08-3.29,28.2-4.72,42.32-1.01,9.99-1.64,20.01-2.57,30.01-.43,4.65.65,8.82,3.13,12.73,1.08,1.71,2.03,3.51,2.88,5.34.85,1.84.81,3.72-.38,5.6-.42-.06-.82-.06-1.17-.18-2.22-.72-2.39-.63-3.82,1.12-1.14,1.39-2.4,2.69-3.61,4.03l.09-.06Z"/><g class="cls-5"><path class="cls-1" d="m50.17,440.38c-.12.27-.25.51-.34.78.02-.12.05-.24.05-.39,0-.12.12-.27.29-.39Z"/><path class="cls-1" d="m49.24,455.81s-.05.02-.06,0h0s.03.01.04.02c.02,0,.02-.02.03-.03Z"/><path class="cls-1" d="m49.21,455.83s.04,0,.05.01l.04-.07s-.03.01-.06.03c-.03,0-.05.02-.06,0h0s.03.01.04.02Z"/><path class="cls-1" d="m35.13,478.09c-.71,3.47-2.7,6.27-4.8,9.01-.77,1-1.45,1.98-1.1,3.41-.33.08-.64.19-.96.26-.35.07-.7.12-1.19.2-.3,1.81-.27,3.63-.95,5.2-.63,1.49-2.01,2.68-3.33,4.34.87.58,1.59,1.14,2.38,1.55.87.44,1.6.03,2.01-1,.37-.95.58-1.95,1.06-2.83.72-1.29,1.44-2.72,2.47-3.68,1.03-.96.71-2.42,1.44-3.01.92-.73,1.65-1.33,1.89-2.52.58-2.85,2.11-5.16,4.1-7.28,1.13-1.21,2.59-2.38,2.09-4.51,2.25-.39,3.04-2.09,3.65-4.17,1.78-6.1,4.21-9.6,9.41-13.71-.14.9-.13,1.61-.36,2.26-1.21,3.55-2.86,6.89-5.27,9.86-.74.91-1.36,2-1.8,3.1-.57,1.48-.07,2.67,1,3.5,1.49,1.18,3.24.51,3.43-1.59.29-3.31,1.97-6.07,3.4-8.93.94-1.89,2.24-3.61,3.41-5.38.67-1.02,1.57-2.03.95-3.22-.62-1.19-1.71-1.98-3.08-1.55-1.08.34-1.54-.16-2.29-.55-1.03-.55-2.27-.69-3.43-.99-.72,1.03-1.77,2.03-2.06,3.13-1.2,4.6-4.13,8.07-7.08,11.52-2.01,2.34-2.22,2.58-2.19,5.41-1.61-.38-2.48.58-2.8,2.19Z"/><path class="cls-1" d="m107.5,342.32c-1-.05-2.01-.05-3.01-.05-1.81.61-3.06-.2-4.04-1.67-.91-1.4-2.16-1.76-3.7-1.44-.76.17-1.49.37-2.25.54-.54-1.18-.25-3.21-2.16-2.77-2.33.54-4.31-.17-6.46-.78-2.01-.56-2.82.29-2.5,2.4.07.51.2,1,.42,1.47.86,2.06.96,4.21.27,6.27-1.35,4.14-2.5,8.38-4.46,12.24-7.66,15.09-13.15,30.93-17.39,47.26-1.81,6.95-4.04,13.81-6.39,20.59-1.69,4.75-3.77,9.33-5.66,13.98-.12.27-.25.51-.34.78-.05.47-.22.88-.47,1.27,0,0,0,.02-.02.05-.51.88-1.32,1.62-1.76,2.57-.66,1.42-1.4,2.72-.37,4.6-.91-.27-1.32-.47-1.76-.54-1.47-.24-2.35.1-2.79,1.74-.93,3.43-3.04,6.17-4.58,9.23-1.45,2.91-3.36,5.24-5.8,7.2-2.25,1.81-2.25,2.01-1.42,4.95-.73-.22-1.35-.39-2.33-.69-.49,1.15-1.2,2.25-1.42,3.43-.66,3.23-1.71,6.2-4.09,8.62-.42.44-.49,1.27-.66,1.91-.1.24,0,.76-.07.78-2.3.81-1.76,2.82-2.11,4.48-.17.76-.51,1.54-.95,2.2-1.76,2.72-2.79,5.68-3.5,8.77-.22.95-.29,1.89.83,1.96.93.05,1.69-.56,1.69-1.62-.02-1.35.76-2.08,1.42-3.11.83-1.32,1.93-2.72,1.93-4.58,0-.78.61-1.69,1.08-2.45.88-1.4,2.55-2.35,2.4-4.36,2.67-1.47,2.2-4.48,3.33-6.69.71-1.4,1.81-2.64,2.89-3.77,1.1-1.1,2.23-2.06,1.93-3.89,2.38-.07,3.31-1.81,3.87-3.89,1.35-4.92,3.75-9.16,7.59-12.49.86-.73,1.79-1.35,2.69-2.03.76-.96,1.42-1.91,1.42-2.87,0-.47-.15-.91-.54-1.37,1.13-.96,2.47-1.62,3.01-2.72.2-.37.22-.83.2-1.32l.12-.02h.02s.12-.02.2-.02l.69-.1.76-.1c.1,0,.17-.02.27-.05l.56-.07,2.01-.27.71-.1h.1c-.44.37-.86.98-1.37,1.89-.64,1.15-1.35,2.25-2.08,3.35-1.45,2.13-1.3,3.55.51,4.51,1.69.88,3.45.15,4.41-1.89.51-1.05.93-2.16,1.4-3.23.2.07.37.15.54.22-.69,1.59-1.4,3.18-2.16,4.9,1.84.07,1.57,2.4,3.01,2.87l-.12.02c3.11.29,3.26.17,4.24-3.55,2.47-.71,3.55-1.93,4.14-4.7.02-.2.07-.37.1-.54,1.54.69,2.01.34,2.91-1.64.54-1.18.81-2.5,1.22-3.72.98-2.77,1.86-5.56,2.94-8.28,3.65-9.45,7.71-18.76,11-28.31,2.67-7.76,4.36-15.84,6.66-23.71,2.45-8.38,5.09-16.7,7.74-25,1.4-4.36,3.01-8.62,6.05-12.17.51-.59.88-1.4,1.13-2.13.49-1.62,0-2.3-1.67-2.38Zm-43.44,108.78c-.12-1.79.81-2.5,1.4-3.31.37-.49.61-.98.71-1.44.29.49.59.93.86,1.4-.88,1.03-1.84,2.06-2.96,3.36Zm29.53-108.71c-1.93,1.84-2.15,4.14-2.18,6.64-.07,3.8-.73,7.37-2.89,10.73-1.2,1.86-1.52,4.38-1.91,6.66-.83,5-1.35,10.06-2.23,15.04-1.69,9.38-3.11,18.86-5.46,28.06-2.55,10.02-6.34,19.66-11.02,28.92-.78,1.54-1.52,3.09-2.3,4.6-.15-.02-.29-.05-.42-.1.61-5.02,1.05-10.06,1.86-15.04,1.52-9.33,3.26-18.59,4.9-27.89,1.67-9.38,5.26-18.05,9.35-26.59,2.47-5.22,4.7-10.53,7.1-15.8,1.25-2.72,1.86-5.53,2.11-8.5.22-2.72.44-5.51,3.01-7.3.05.17.15.49.07.56Z"/><path class="cls-1" d="m15.75,458.34c2.2-1.62,3.99-3.04,5.87-4.25.79-.51,1.8-.7,2.71-.82,1.37-.18,2.86.17,3.46-1.88.03-.09.1-.27.11-.27,2.56.28,3.62-2.48,5.55-3.52,2.2-1.19,4.34-2.34,6.72-1.7.39.11.89-.08,1.44-.15.77-1.72.59-3.33.48-4.89-.09-1.38-.8-1.73-2.1-1.19-.71.29-1.38.76-2.03,1.2-2.69,1.8-5.48,3.13-8.56,3.2-1.26.03-2.21.67-3.24,1.68-2.41,2.37-5.01,4.54-7.58,6.72-.58.49-1.38.69-2.1.96-2.13.8-2.64,1.81-1.74,3.67.26.54.75.93,1.01,1.25Z"/><path class="cls-1" d="m63.31,459.42c-1.5.1-2.38.72-2.65,2.49-.69,4.44-2.47,8.5-5.72,11.99-1.39,1.49-1.51,2.28-1.27,4.74-1.15-.13-1.99.29-2.18,1.65-.13.87-.14,1.79-.51,2.58-.56,1.23-1.21,2.54-2.12,3.5-1.61,1.7-1.7,1.6-.55,3.36-.63-.19-1.26-.37-1.98-.59-.37,1.1-.61,2.05-1.01,2.94-.41.9-1,1.74-1.61,2.77.8.62,1.56,1.21,2.34,1.82,1.04-1.84,1.99-3.41,2.82-5.03.42-.81.73-1.45,1.72-1.81.51-.19.95-1.21,1.24-1.91.88-2.13,2.03-4.05,3.42-5.97,1.72-2.37,3.69-4.63,4.04-7.91.36-3.36,2.39-6.51,4.57-9.35,2.46-3.19,2.44-3.53-.67-5.27,0,0,.11-.01.11-.01Z"/><path class="cls-1" d="m38.3,492.75c1.65,1.17,3.4.96,3.94-1.99.57-3.1,2.04-5.77,4.46-7.99,2.01-1.84,1.84-2.65-.38-3.64-3.22-1.43-3.84-1.11-4.32,2.72-.34,2.7-1.29,4.86-3.4,6.76-2.05,1.84-2.01,3-.3,4.14Z"/><path class="cls-1" d="m30.89,503.18c-.42.4-1.06.76-1.25,1.26-.49,1.28-.74,2.63-1.15,3.93-.29.93-.48,1.9.44,2.22,1.11.39,1.81-.52,1.97-1.59.25-1.64,1.18-2.66,2.36-3.66.64-.54,1.29-1.36,1.53-2.14.8-2.62,1.62-5.15,3.88-6.98.32-.26.41-.87.65-1.45-1.2-1.04-2.19-2.3-4.43-1.69.09,3.01-1.28,5.46-3.36,7.7-.47.5-.43,1.53-.65,2.4Z"/><path class="cls-1" d="m26.08,504.13c-1.01-1.74-2.43-1.67-3.73-1.88-.66,1.99-1.27,3.81-1.87,5.63-.3.92-.39,1.85.55,2.14,1.05.33,1.84-.4,2.05-1.49.36-1.82.96-3.4,2.99-4.41Z"/><path class="cls-1" d="m45.59,446.25c1.62-1.51,1.42-3.54,2.07-5.5-1.45-.32-2.67-.37-3.58,1.05-.67,1.05.04,2.99,1.51,4.44Z"/><path class="cls-1" d="m43.1,495.69c-.85,1.72-1.35,2.89-1.98,3.99-.52.9-.78,1.72.1,2.19.79.42,1.32-.29,1.82-.99.78-1.09,1.64-2.13,2.69-3.48-.89-.57-1.75-1.13-2.63-1.7Z"/></g><path class="cls-2" d="m327.21,327.48c-.93,2.64-2.42,4.92-4.75,6.54-2.89,2.01-5.68,1.84-8.33-.49-.54-.44-1.05-.91-1.91-1.64-1.2,1.08-2.4,2.11-3.55,3.18-1.71,1.59-3.31,3.31-5.85,3.48-1.18-1.32-2.42-2.6-3.55-3.97-1.42-1.76-1.59-1.86-3.82-1.13-.37.12-.76.12-1.18.17-1.2-1.89-1.22-3.75-.39-5.58.86-1.84,1.81-3.65,2.89-5.36,2.47-3.89,3.55-8.08,3.13-12.73-.93-9.99-1.57-20.01-2.57-30-1.44-14.13-2.96-28.24-4.73-42.32-1.13-9.04-2.79-18.02-4.24-27.04-.61-3.67-2.77-6.37-5.98-7.96-3.62-1.79-5.41-4.78-6.39-8.42-1.98-7.4,1.47-13.71,8.74-16.06,3.33-1.08,6.49-.61,9.04,1.86,1.05,1,2.01,1.37,3.43,1.4,2.6.05,3.99,1,4.26,3.4.59,5.24,1,10.48,1.2,15.75.17,5.36-.27,10.75.05,16.11.73,12.15,1.67,24.27,2.69,36.39,1,11.63,1.98,23.24,4.31,34.7,1.35,6.54,2.67,13.1,4.16,19.62,1.08,4.73,3.72,8.5,7.62,11.39,1.54,1.13,3.01,2.4,4.41,3.72,1.47,1.35,1.96,3.09,1.3,5Z"/><path class="cls-1" d="m302.87,338.6l-.1-.05h.05l.05.05Z"/><g class="cls-5"><path class="cls-1" d="m358.38,441.15c-.1-.27-.22-.54-.34-.81.17.15.29.29.29.42,0,.15.02.27.05.39Z"/><path class="cls-1" d="m358.97,455.81s.05.02.06,0h0s-.03.01-.04.02c-.02,0-.02-.02-.03-.03Z"/><path class="cls-1" d="m359,455.83s-.04,0-.05.01l-.04-.07s.03.01.06.03c.03,0,.05.02.06,0h0s-.03.01-.04.02Z"/><path class="cls-1" d="m373.09,478.09c.71,3.47,2.7,6.27,4.8,9.01.77,1,1.45,1.98,1.1,3.41.33.08.64.19.96.26.35.07.7.12,1.19.2.3,1.81.27,3.63.95,5.2.63,1.49,2.01,2.68,3.33,4.34-.87.58-1.59,1.14-2.38,1.55-.87.44-1.6.03-2.01-1-.37-.95-.58-1.95-1.06-2.83-.72-1.29-1.44-2.72-2.47-3.68-1.03-.96-.71-2.42-1.44-3.01-.92-.73-1.65-1.33-1.89-2.52-.58-2.85-2.11-5.16-4.1-7.28-1.13-1.21-2.59-2.38-2.09-4.51-2.25-.39-3.04-2.09-3.65-4.17-1.78-6.1-4.21-9.6-9.41-13.71.14.9.13,1.61.36,2.26,1.21,3.55,2.86,6.89,5.27,9.86.74.91,1.36,2,1.8,3.1.57,1.48.07,2.67-1,3.5-1.49,1.18-3.24.51-3.43-1.59-.29-3.31-1.97-6.07-3.4-8.93-.94-1.89-2.24-3.61-3.41-5.38-.67-1.02-1.57-2.03-.95-3.22s1.71-1.98,3.08-1.55c1.08.34,1.54-.16,2.29-.55,1.03-.55,2.27-.69,3.43-.99.72,1.03,1.77,2.03,2.06,3.13,1.2,4.6,4.13,8.07,7.08,11.52,2.01,2.34,2.22,2.58,2.19,5.41,1.61-.38,2.48.58,2.8,2.19Z"/><path class="cls-1" d="m392.52,501.74c-.71-3.09-1.76-6.05-3.53-8.77-.42-.66-.78-1.44-.96-2.2-.34-1.67.2-3.67-2.08-4.48-.07-.02,0-.54-.07-.78-.2-.64-.27-1.47-.69-1.91-2.38-2.42-3.4-5.39-4.07-8.62-.24-1.18-.96-2.28-1.42-3.43-.98.29-1.59.47-2.33.69.81-2.94.83-3.13-1.44-4.95-2.45-1.96-4.36-4.29-5.8-7.2-1.52-3.06-3.65-5.8-4.55-9.23-.44-1.64-1.35-1.98-2.82-1.74-.44.07-.86.27-1.76.54,1.03-1.89.29-3.18-.37-4.6-.42-.91-1.18-1.64-1.71-2.47,0-.02-.02-.02-.02-.02-.24-.42-.44-.88-.51-1.4-.1-.27-.22-.54-.34-.81-1.89-4.63-3.97-9.21-5.63-13.96-2.38-6.78-4.6-13.64-6.42-20.6-4.21-16.33-9.72-32.18-17.36-47.26-1.96-3.87-3.13-8.11-4.48-12.24-.66-2.06-.56-4.21.29-6.27.2-.47.34-.96.42-1.47.29-2.11-.49-2.96-2.52-2.4-2.13.61-4.11,1.32-6.46.78-1.91-.44-1.62,1.59-2.16,2.77-.73-.17-1.49-.37-2.25-.54-1.52-.32-2.79.05-3.7,1.44-.96,1.47-2.23,2.28-4.02,1.67-1,0-2.01,0-3.01.05-1.67.07-2.18.76-1.67,2.38.24.73.61,1.54,1.1,2.13,3.06,3.55,4.68,7.81,6.05,12.17,2.64,8.3,5.29,16.63,7.74,25,2.33,7.86,3.99,15.94,6.66,23.71,3.31,9.55,7.35,18.86,11.02,28.31,1.05,2.72,1.96,5.51,2.91,8.28.42,1.22.69,2.55,1.22,3.72.88,1.98,1.37,2.33,2.91,1.64.02.17.07.34.1.54.59,2.77,1.67,3.99,4.14,4.7,1,3.72,1.13,3.84,4.24,3.55l-.1-.02c1.42-.47,1.15-2.79,2.99-2.87-.76-1.71-1.44-3.31-2.16-4.9.17-.07.37-.15.54-.22.47,1.08.91,2.18,1.4,3.23.98,2.03,2.74,2.77,4.43,1.89,1.81-.95,1.93-2.38.49-4.51-.73-1.1-1.44-2.2-2.08-3.35-.51-.91-.93-1.52-1.37-1.89h.1l.71.1,2.03.27.54.07c.1.02.17.05.27.05l.76.1.71.1c.07,0,.15.02.2.02h.02l.1.02c-.02.49,0,.96.2,1.32.54,1.1,1.91,1.76,3.01,2.72-.37.44-.51.91-.51,1.37,0,.93.64,1.91,1.42,2.87h-.05c.93.69,1.86,1.3,2.72,2.03,3.84,3.33,6.24,7.57,7.59,12.49.59,2.08,1.49,3.82,3.89,3.89-.32,1.84.83,2.79,1.91,3.89,1.1,1.13,2.18,2.38,2.89,3.77,1.13,2.2.66,5.22,3.35,6.69-.15,2.01,1.52,2.96,2.38,4.36.49.76,1.08,1.67,1.08,2.45,0,1.86,1.1,3.26,1.96,4.58.64,1.03,1.42,1.76,1.4,3.11,0,1.05.76,1.67,1.71,1.62,1.1-.07,1.05-1,.83-1.96Zm-63.23-92.22c-2.33-9.21-3.77-18.68-5.46-28.06-.88-4.97-1.37-10.04-2.23-15.04-.39-2.28-.71-4.8-1.91-6.66-2.16-3.35-2.82-6.93-2.87-10.73-.05-2.5-.27-4.8-2.2-6.64-.07-.07.05-.39.07-.56,2.57,1.79,2.82,4.58,3.04,7.3.22,2.96.86,5.78,2.11,8.5,2.4,5.27,4.6,10.58,7.1,15.8,4.07,8.55,7.69,17.22,9.35,26.59,1.62,9.31,3.35,18.56,4.87,27.89.81,4.97,1.27,10.02,1.89,15.04-.15.05-.29.07-.44.1-.76-1.52-1.52-3.06-2.3-4.6-4.68-9.26-8.45-18.91-11.02-28.92Zm11.9,38.23c.29-.47.56-.91.86-1.4.1.47.37.93.73,1.44.59.81,1.49,1.52,1.37,3.31-1.13-1.3-2.08-2.33-2.96-3.35Zm7.05-1.71c-.29.17-.56.37-.93.59-.07-.17-.17-.32-.22-.47.59-.17,1.18-.34,1.74-.42-.2.1-.37.2-.59.29Z"/><path class="cls-1" d="m392.47,458.34c-2.2-1.62-3.99-3.04-5.87-4.25-.79-.51-1.8-.7-2.71-.82-1.37-.18-2.86.17-3.46-1.88-.03-.09-.1-.27-.11-.27-2.56.28-3.62-2.48-5.55-3.52-2.2-1.19-4.34-2.34-6.72-1.7-.39.11-.89-.08-1.44-.15-.77-1.72-.59-3.33-.48-4.89.09-1.38.8-1.73,2.1-1.19.71.29,1.38.76,2.03,1.2,2.69,1.8,5.48,3.13,8.56,3.2,1.26.03,2.21.67,3.24,1.68,2.41,2.37,5.01,4.54,7.58,6.72.58.49,1.38.69,2.1.96,2.13.8,2.64,1.81,1.74,3.67-.26.54-.75.93-1.01,1.25Z"/><path class="cls-1" d="m344.9,459.42c1.5.1,2.38.72,2.65,2.49.69,4.44,2.47,8.5,5.72,11.99,1.39,1.49,1.51,2.28,1.27,4.74,1.15-.13,1.99.29,2.18,1.65.13.87.14,1.79.51,2.58.56,1.23,1.21,2.54,2.12,3.5,1.61,1.7,1.7,1.6.55,3.36.63-.19,1.26-.37,1.98-.59.37,1.1.61,2.05,1.01,2.94.41.9,1,1.74,1.61,2.77-.8.62-1.56,1.21-2.34,1.82-1.04-1.84-1.99-3.41-2.82-5.03-.42-.81-.73-1.45-1.72-1.81-.51-.19-.95-1.21-1.24-1.91-.88-2.13-2.03-4.05-3.42-5.97-1.72-2.37-3.69-4.63-4.04-7.91-.36-3.36-2.39-6.51-4.57-9.35-2.46-3.19-2.44-3.53.67-5.27,0,0-.11-.01-.11-.01Z"/><path class="cls-1" d="m369.92,492.75c-1.65,1.17-3.4.96-3.94-1.99-.57-3.1-2.04-5.77-4.46-7.99-2.01-1.84-1.84-2.65.38-3.64,3.22-1.43,3.84-1.11,4.32,2.72.34,2.7,1.29,4.86,3.4,6.76,2.05,1.84,2.01,3,.3,4.14Z"/><path class="cls-1" d="m377.33,503.18c.42.4,1.06.76,1.25,1.26.49,1.28.74,2.63,1.15,3.93.29.93.48,1.9-.44,2.22-1.11.39-1.81-.52-1.97-1.59-.25-1.64-1.18-2.66-2.36-3.66-.64-.54-1.29-1.36-1.53-2.14-.8-2.62-1.62-5.15-3.88-6.98-.32-.26-.41-.87-.65-1.45,1.2-1.04,2.19-2.3,4.43-1.69-.09,3.01,1.28,5.46,3.36,7.7.47.5.43,1.53.65,2.4Z"/><path class="cls-1" d="m382.14,504.13c1.01-1.74,2.43-1.67,3.73-1.88.66,1.99,1.27,3.81,1.87,5.63.3.92.39,1.85-.55,2.14-1.05.33-1.84-.4-2.05-1.49-.36-1.82-.96-3.4-2.99-4.41Z"/><path class="cls-1" d="m362.63,446.25c-1.62-1.51-1.42-3.54-2.07-5.5,1.45-.32,2.67-.37,3.58,1.05.67,1.05-.04,2.99-1.51,4.44Z"/><path class="cls-1" d="m365.11,495.69c.85,1.72,1.35,2.89,1.98,3.99.52.9.78,1.72-.1,2.19-.79.42-1.32-.29-1.82-.99-.78-1.09-1.64-2.13-2.69-3.48.89-.57,1.75-1.13,2.63-1.7Z"/></g><path class="cls-2" d="m280.46,700.22c-.66,2.84-1.35,5.8-1.22,8.67.39,9.62,1.2,19.2,1.76,28.8.39,6.76,1.03,13.54.93,20.3-.17,10.46-.91,20.94-1.4,31.42-.42,9.16-.71,18.34-1.3,27.5-.51,7.74-1.49,15.43-2.06,23.17-.49,7.03-.12,13.96,3.18,20.47.86,1.69,1.18,3.72,1.47,5.66.34,2.4-.39,4.31-2.94,4.68.54,2.2,1.13,4.19,1.47,6.22.17.93.05,1.96-.17,2.89-.37,1.42-1.27,2.01-2.69,1.3-.51-.24-.98-.54-1.44-.78-1.52-1.44-3.23-2.18-5.29-1.3-.71.56-1.35,1.18-2.06,1.74.78.27,1.59.42,2.47.49,2.5.17,4.65,1.1,6.54,2.62.88-.24,1.67-.44,2.42-.66,3.13-.91,4.73.17,5.19,3.55-2.64-.88-5.75,1.1-8.18-1.37-1.3,1.37-2.89,1.37-4.53,1.27-1.47-.1-2.99-.37-4.29.69,5.34.15,7.2,3.21,4.65,7.64-1.98-.88-3.89-2.6-6.61-.73,1.3.2,2.25.29,3.21.51,4.51,1.03,5.61,3.43,3.48,7.47-.98,1.84-1.47,3.7-1.15,5.83.22,1.47,1,3.26-1.13,4.19-.15.07-.02.73-.07,1.1-.07.66-.17,1.32-.27,2.03,2.96,1.69,3.01,1.98.88,4.92.24.59.56,1.2.73,1.89.27,1.05-.15,1.76-1.25,2.03-1.3.32-2.72-.29-3.28-1.47-.29-.64-.32-1.54-.78-1.93-1.91-1.57-1.74-3.4-.69-5.53-1.86-.37-3.04-1.2-2.77-3.11-2.55-1.81-.76-3.26.44-4.68,1.08-1.27,1.27-2.64,1.1-4.24-.2-1.79-.22-3.62-.37-5.41-.05-.54-.15-1.37-.49-1.54-1.35-.69-1.1-1.79-.98-2.89.39-3.23,1.84-5.53,5.31-6.07-1.08.05-2.16,0-3.21.17-.81.1-1.54.51-2.33.66-2.47.44-3.8-.47-3.87-2.94-.05-1.59.2-3.26.61-4.78.81-2.84,2.57-3.77,4.65-2.5,0-.05.02-.12.02-.17.39-2.18.88-4.31,1.37-6.59-.61.56-1.25,1.1-1.86,1.67-2.5,2.28-3.89,2.01-4.9-1.3-.56-1.84-.95-3.87-.76-5.75.51-4.56,1.32-9.09,2.23-13.57,2.06-10.31,3.67-20.62,3.11-31.2-.66-12.76-1.15-25.54-1.64-38.32-.51-13.96-.86-27.94-1.47-41.92-.39-8.62-.69-17.24-2.84-25.69-1.98-7.84-3.6-15.72-8.33-22.6-1.89-2.72-2.2-6.02-1.89-9.6,1.64-.17,3.11-.29,5.29-.51-3.45-1.79-4.63-4.78-5.93-7.76-2.6-6.02-2.3-11.75,1.74-17,2.47-3.18,3.97-6.76,4.85-10.6.91-3.97,1.89-7.89,2.57-11.85,4.8-26.72,7.13-53.63,7.1-80.79-.05-16.26.47-32.55.51-48.81.02-4.11-.29-8.38-1.4-12.29-.98-3.4-1.57-6.49-.39-9.87,1.44-4.04.34-7.76-1.79-11.24-1.81-2.94-3.55-3.7-6.91-3.04-2.03.42-4.02,1.03-6.02,1.54-2.67.64-4.24-.2-4.36-2.84-.27-5.19.29-10.29,3.28-14.79,1.71-2.52,3.97-4.33,7.05-4.95,4.33-.91,6.17.51,6.29,4.95.12,3.87,2.77,6.44,6.83,6.64,2.47-3.75,4.36-4.51,8.82-3.58,5.22,1.1,7.93,4.78,9.35,9.53,1.91,6.37,1.49,12.76-.47,19.05-.81,2.6-2.01,5.09-2.72,7.71-.69,2.5-1.15,5.09-1.32,7.66-.27,4.26-.22,8.52-.32,12.78-.34,13.2-.64,26.4-1.05,39.62-.44,12.88-1.08,25.74-1.62,38.62-.61,15.38-1.18,30.76-1.84,46.14-.27,6.2,1.89,11.17,6.34,15.5,6.69,6.47,6.93,17.68.93,24.61l-6.95,1.91c-.71-.34-1.44-.69-2.47-1.15.49-1.18.98-2.2,1.4-3.28,1.08-2.74,2.16-5.49,3.16-8.23,2.13-5.83-3.58-13.54-10.63-13.1-7.35.44-11.66,3.84-13.15,11.61-.54,2.96.34,5.63,2.4,7.86.88.95,1.81,1.89,2.69,2.87,1.74,1.93,1.76,3.21,0,5.07-.51.51-1.18.96-1.98,1.52,2.87-.22,3.99-1.64,3.67-4.55-.2-1.67-.86-3.38-1.67-4.85-2.18-3.87-3.43-7.81-1.67-12.17.44-1.08,1.05-2.2,1.91-2.96,5.39-4.92,14.62-2.52,17.04,4.31.83,2.33.39,4.55-.47,6.71-.64,1.59-1.57,3.11-2.4,4.63-.56,1.05-1.25,2.06-1.76,3.11-.56,1.18-1.4,2.62-.29,3.65.69.66,2.13.56,3.45.22l7.1-1.3c1.32.17,2.62.32,4.07.49-.12,1.03-.15,1.69-.29,2.28-1.59,6.02-3.31,12-4.78,18.05Z"/><path class="cls-2" d="m274.65,888.65c.28,1.08.66,2.22.86,3.4.39,2.28.86,4.58.94,6.88.05,1.59-.02,3.04,1.01,3.63-.21,1.25-.74,2.31-.41,2.91.76,1.4.53,2.7.36,4.12-.11.91.12,1.86.2,2.91,1.53-.2,2.65-.34,4.3-.56-1.17.97-2.05,1.42-2.49,2.14-.58.95.63,1.53.85,2.25,1,3.15,1.67,6.41,2.42,9.64.37,1.61,1.19,2.51,3.16,2.21-.18-2.17.33-4.22-.54-6.45-.72-1.84-.42-4.08-.55-6.15-.02-.39.2-1.05.05-1.13-2.13-1.16-1.2-3.79-2.6-5.36-.64-.72-.62-2.04-.87-3.09-.3-1.25-1.2-2.87-.73-3.69.85-1.49.14-2.48-.12-3.71-.59-2.77-1.24-5.53-1.62-8.32-.42-3.1-1.3-3.57-4.21-1.62Z"/><path class="cls-2" d="m293.67,912.08c-1.43,1.12-3.2.86-4.82,1.22-.72.16-1.7.44-2,.98-.49.89.61,1.2,1.11,1.78.95,1.1,1.65,2.44,2.3,3.76.68,1.37,1.18,2.83,2.05,4.17.92-1.61,1.12-3.05.06-4.63-.87-1.31-1.78-2.73-1.25-4.67,1.49,0,2.43.6,2.95,1.97.6,1.59,1.24,3.16,1.91,4.72.14.33.46.58.92,1.12.65-1.61.79-2.91-.02-4.14-1.15-1.75-1.83-3.57-1.21-5.79-.81-.17-1.46-.31-2.11-.44,0,0,.13-.06.13-.06Z"/><path class="cls-2" d="m297.78,911.49c-.22-.65-.33-1.37-.69-1.93-1.47-2.27-2.99-4.51-4.56-6.72-.32-.44-.92-.69-1.51-1.11-.41.55-.73.99-1.12,1.52-.46-.4-.9-.79-1.34-1.16,0,0,.08-.04.08-.04-1.53.99-1.17,2.13-.2,3.25,1.38,1.6,2.63,3.23,2.92,5.44.16,1.28,1.29,1.33,2.32,1.35,0,0-.13.06-.12.05.28-.61.56-1.21.7-1.51,1.31.3,2.48.56,3.65.83,0,0-.11.04-.11.04Z"/><path class="cls-2" d="m285.88,899.35c-.46-1.17-1.1-2.3-1.34-3.52-.41-2.08-.56-4.2-.84-6.47-1.05-.33-2.07-.66-3.51-1.11.27,1.13.5,1.94.65,2.77.48,2.69.93,5.39,1.39,8.08.14.8.15,1.65.46,2.37.2.46.84.99,1.3,1.01.46.02,1.17-.46,1.37-.9.33-.71.33-1.56.48-2.36,0,0,.05.11.05.11Z"/><path class="cls-2" d="m285.83,899.24c.19.55.4,1.09.56,1.65.34,1.19,1.09,1.54,2.24,1.16,0,0-.08.05-.07.04-.15-1.75-.32-3.49-.48-5.23.11-.02.21-.03.32-.05.51,1.13,1.01,2.25,1.52,3.38.81-2.38-.43-4.28-.88-6.55-1.25-.23-2.49-.45-3.75-.68.22,2.31.41,4.37.6,6.41,0,0-.05-.12-.05-.12Z"/><path class="cls-2" d="m287.37,912.48c1.47-.19,2.08-.82,1.64-1.88-.87-2.12-1.82-4.22-2.93-6.23-.25-.45-1.29-.47-2.34-.8.53,3.57,2.14,6.16,3.62,8.91Z"/><path class="cls-2" d="m285.4,886.96c-.73.2-1.45.41-2.22.62,1,1.56,1.95,3.02,2.96,4.6,1.38.19,1.75-.83,1.98-1.95.22-1.05-.37-1.69-1.21-2.19-.55-.33-1.07-.72-1.6-1.09.01,0,.07,0,.07,0Z"/><path class="cls-2" d="m297.89,911.46c-.48.32-.95.63-1.35.9,1.16,2.09,2.22,3.99,3.28,5.89.16-.04.31-.08.47-.12,0-.55.12-1.13-.02-1.65-.37-1.43-.78-2.85-1.32-4.23-.14-.35-.78-.5-1.19-.75.01,0,.12-.04.12-.04Z"/><path class="cls-2" d="m213.61,268.52s0,.02-.02.05v-.05h.02Z"/><path class="cls-2" d="m231.9,178.89c-.05.76-.15,1.52-.37,2.28.07-.76.2-1.52.37-2.28Z"/><path class="cls-2" d="m297.46,178.2c-.37.56-1.54.91-2.33.86-.95-.07-1.96-.54-2.82-1.03-3.01-1.69-6.12-1.93-9.4-.93-1.25.39-2.55.83-3.84.93-.78.05-1.59-.1-2.4-.24-.12-.02-.22-.02-.32-.07-1.64-.47-1.49-3.06-1.49-3.06,2.6-.2,5.24-.12,7.79-1.42-.34-1.3-.66-2.42-1-3.72-.54.69-.91,1.13-1.4,1.76-3.48-2.28-7.22-3.72-11.24-4.46-2.99-.54-5.98-1.2-8.94-1.81-7.37-1.49-14.69-2.96-22.26-2.87-3.65.05-7.3-.39-10.9-.98-1.93-.32-3.89-1.18-5.56-2.25-3.01-1.96-3.84-7.08-1.71-10.63,1.3,1.1,2.64,2.13,3.82,3.28,3.58,3.45,7.71,5.46,12.73,5.71,4.95.24,9.89.88,14.86,1.05,11.09.39,21.57,3.4,31.86,7.3.25.1.44.34.64.51-.12.47-.25.88-.39,1.47,1.93-.47,3.48-.34,4.9.71,2.28,1.69,4.63,3.28,6.88,5.02.88.66,1.74,1.44,2.3,2.38.39.69.56,1.91.22,2.5Z"/><path class="cls-2" d="m198.33,103.7c-2.27,1.03-3.55.64-4.85-1.49-1.77.72-2.34.6-3.78-.82-1.37.86-3.07.17-3.5-1.42-.03-.13-.1-.26-.09-.39.24-2.27-.29-4.6.49-6.85.15-.42.09-1.15-.19-1.45-1.52-1.68-2.96-3.49-4.75-4.82-1.83-1.37-4.06-1.55-6.07-.08-.85.62-1.32.37-1.75-.4-1.02-1.84-2.02-3.69-3.04-5.52-.68-1.23-1.32-2.48-2.08-3.65-.46-.71-.4-1.25.06-1.91,1.67-2.44,3.04-5.03,3.7-7.94.57-2.51.48-4.97-.64-7.34-.19-.4-.46-.76-.85-1.11-1.12,2.44-.43,4.99-.52,7.48-.15.1-.31.19-.46.29-.22-.37-.4-.78-.68-1.11-2.47-2.98-3.8-6.46-4.11-10.25-.37-4.42-.66-8.87-.6-13.3.09-6.57,1.34-12.95,4.37-18.86,4.33-8.45,11.24-13.92,20.23-16.66,11.21-3.42,22.32-3,33.03,1.95,9.84,4.55,15.7,12.47,18.28,22.88,1.65,6.65,1.81,13.41,1.11,20.21-.21,2.06-.36,4.13-.73,6.16-.54,2.93-1.76,5.59-3.71,7.88-.29.34-.65.61-1.21.81.07-1.24.21-2.49.21-3.73,0-1.24-.16-2.47-.25-3.7-.16-.03-.31-.07-.47-.1-.27.41-.62.79-.81,1.24-1.44,3.3-1.16,6.61.22,9.82.78,1.83,1.83,3.55,2.84,5.28.39.67.54,1.19.13,1.92-1.59,2.82-3.1,5.68-4.66,8.52-.16.29-.36.56-.55.84-.47.69-.93.87-1.72.31-2.02-1.45-4.2-1.28-6.06.13-1.73,1.32-3.18,3.02-4.71,4.6-.5.51-.49,1.13-.23,1.85.3.83.42,1.75.5,2.64.09,1.02.05,2.06.07,3.09.02,1.12-.18,2.15-1.27,2.74-.81.44-1.64.87-2.38-.08-1.72,1.59-1.96,1.63-3.82.76-1.04,2.17-2.52,2.66-4.81,1.58-1.86,1.61-3.37,1.87-4.9.82-1.92.99-3.16.79-4.98-.79Zm24.47-28.98c.93,0,1.87.04,2.8,0,1.86-.1,3.22-.95,3.96-2.72,1.58-3.74,1.56-7.45-.16-11.14-.73-1.56-2.05-2.28-3.69-2.34-3.83-.15-7.6.3-11.26,1.43-2.7.84-4.33,2.72-4.59,5.59-.13,1.35-.12,2.73-.02,4.09.19,2.5.73,3.12,3.18,3.79,3.2.87,6.44,1.48,9.77,1.3Zm-39.07.16c3.58.02,7.04-.63,10.43-1.7,1.02-.32,2.06-.75,2.31-1.98.43-2.14.54-4.31.08-6.46-.51-2.38-1.98-4.01-4.3-4.72-3.72-1.13-7.55-1.7-11.45-1.51-1.59.08-2.95.76-3.64,2.27-1.85,4.03-1.9,8.06.24,12.01.56,1.03,1.46,1.65,2.63,1.78,1.22.14,2.46.2,3.69.3Zm19.28,6.03c.14,0,.28,0,.42,0,.15.35.38.68.44,1.04.15.92.25,1.85.33,2.78.14,1.81.68,2.27,2.49,2.04.33-.04.66-.11.98-.18,1.05-.23,1.42-.64,1.15-1.69-.33-1.27-.72-2.58-1.38-3.7-.84-1.42-1.52-2.86-1.98-4.45-.32-1.1-.84-2.17-1.43-3.16-.54-.91-.99-.9-1.54.03-.56.93-1.07,1.94-1.34,2.99-.43,1.67-1.06,3.21-2.05,4.63-.86,1.22-1.38,2.61-1.29,4.13.02.38.33.98.62,1.06.85.23,1.76.31,2.65.33.78.02,1.2-.45,1.23-1.26.04-.83.08-1.67.2-2.49.11-.7.33-1.38.51-2.06Z"/><path class="cls-4" d="m325.76,446.5c.71,1.54,1.54,3.04,2.2,4.6.22.49.42.95.61,1.42,4.51,9.58,12.56,21.57,20.28,32.67l.15.2.15.24,14.86,20.82c1.3,2.69,6.71,9.58,7.76,10.85l.17.24c.59.59,1.35.95,1.96,1.2,1.42.51,2.82.34,5.22-.24,2.79-.66,10.65,2.42,12.2,2.4.91-.02,1.79-.1,2.6-.2,8.79-1.2,8.84-6.47,4.7-15.5-3.45-7.57-7.57-14.84-11.39-22.24-.1-.22-.22-.42-.32-.64-1.91-3.75-3.8-7.49-4.65-11.63-.59-2.87-.69-5.9.05-9.26.17-.93.44-1.89.76-2.87.1-.24.17-.51.25-.76.12.15.24.32.37.44,4.78,6.24,11.56,6.64,17.36,9.21,1.1.51,2.99.86,4.26.05.61-.37,1.08-1,1.25-1.98.05-.17.05-.39.02-.64v-.02c-.12-1.32-1.1-3.13-2.13-3.8-12.78-8.15-19.47-25.13-37.42-26.01-3.55-.17-6.02-1.27-8.01-3.11l-.32-.32c-.17-.15-.32-.29-.49-.47-.02-.05-.07-.1-.12-.15,0,0-23.51-3.45-32.32,15.48Z"/></svg>