<?xml version="1.0" encoding="UTF-8"?><svg id="Lag_1" xmlns="http://www.w3.org/2000/svg" viewBox="0 0 348.4 798.2"><defs><style>.cls-1,.cls-2,.cls-3{fill:#fff;}.cls-4{fill:red;opacity:.39;}.cls-5,.cls-6,.cls-2{opacity:.22;}.cls-6,.cls-7{fill:none;}.cls-3{opacity:.15;}</style></defs><path class="cls-3" d="m348.38,398.31v.02c.02.21.02.4-.02.55-.15.84-.55,1.38-1.07,1.7-1.09.69-2.71.4-3.65-.04-4.97-2.2-10.79-2.54-14.88-7.89-.1-.1-.21-.25-.31-.38-.06.21-.13.44-.21.65-.27.84-.5,1.66-.65,2.46-.63,2.87-.55,5.48-.04,7.93.73,3.55,2.35,6.76,3.99,9.97.08.19.19.36.27.55,3.27,6.34,6.8,12.57,9.76,19.05,3.55,7.74,3.5,12.25-4.03,13.28-.69.08-1.45.15-2.22.17-1.32.02-8.06-2.62-10.45-2.06-2.06.5-3.25.65-4.47.21-.52-.21-1.17-.52-1.68-1.03l-.15-.21c-.9-1.09-5.54-6.99-6.65-9.3l-12.74-17.84-.13-.21-.13-.17c-6.61-9.51-13.51-19.79-17.37-27.99-.17-.4-.34-.8-.52-1.22-.57-1.34-1.28-2.62-1.89-3.94-13.7-29.96-28.01-59.72-36.34-91.89-1.93-7.41-3.53-14.94-4.74-22.64-.06,22.85.76,45.56,4.09,67.88.9,6.09,2.16,12.15,3.55,18.19,1.34,5.88,2.79,11.75,4.18,17.63,2.73,11.39,5.16,22.81,5.9,34.35,2.16,33.53-.08,67.34-.5,101.04-.31,24.15-1.09,48.28-.92,72.44.08,15.49,3.19,31.1,1.97,46.44-2.18,27.15-6.88,54.14-10.03,81.25-2.54,22.03-1.3,43.86,8.25,64.36,3.19,6.84,13.51,13.03,7.01,20.56-4.07,4.7-14.02,5.46-21.47,5.88-19.12,1.13-22.47-3.78-21.49-23.48,1.2-24.36-3.57-48.85,1.07-73.23.44-2.43-.78-5.2-1.3-7.78-6.71-33.36-17.04-66.27-12.44-101.06.48-3.61-1.03-7.47-1.72-11.18-6.17-33.07-12.8-66.06-18.4-99.21-2.94-17.42-4.09-35.13-6.13-53.26-1.97.08-2.64.13-5.46.25-2.81-.13-3.48-.17-5.46-.25-2.04,18.13-3.19,35.84-6.13,53.26-5.6,33.15-12.23,66.14-18.4,99.21-.69,3.71-2.2,7.58-1.72,11.18,4.6,34.79-5.73,67.69-12.44,101.06-.52,2.58-1.74,5.35-1.3,7.78,4.64,24.38-.13,48.87,1.07,73.23.99,19.7-2.37,24.61-21.49,23.48-7.45-.42-17.4-1.18-21.47-5.88-6.5-7.53,3.82-13.72,7.01-20.56,9.55-20.5,10.79-42.32,8.25-64.36-3.15-27.11-7.85-54.1-10.03-81.25-1.22-15.34,1.89-30.95,1.97-46.44.17-24.15-.61-48.28-.92-72.44-.42-33.7-2.66-67.5-.5-101.04.73-11.54,3.17-22.96,5.9-34.35,1.38-5.88,2.83-11.75,4.18-17.63,1.38-6.04,2.64-12.11,3.55-18.19,3.34-22.33,4.15-45.03,4.09-67.88-1.22,7.7-2.81,15.23-4.74,22.64-8.33,32.17-22.64,61.92-36.34,91.89-.61,1.32-1.32,2.6-1.89,3.94-.19.42-.36.82-.52,1.22-3.86,8.2-10.76,18.49-17.37,27.99l-.13.17-.13.21-12.74,17.84c-1.11,2.31-5.75,8.2-6.65,9.3l-.15.21c-.5.5-1.15.82-1.68,1.03-1.22.44-2.41.29-4.47-.21-2.39-.57-9.13,2.08-10.45,2.06-.78-.02-1.53-.08-2.22-.17-7.53-1.03-7.57-5.54-4.03-13.28,2.96-6.48,6.48-12.72,9.76-19.05.08-.19.19-.36.27-.55,1.64-3.21,3.25-6.42,3.99-9.97.5-2.45.59-5.06-.04-7.93-.15-.8-.38-1.62-.65-2.46-.08-.21-.15-.44-.21-.65-.11.13-.21.27-.31.38-4.09,5.35-9.9,5.69-14.88,7.89-.94.44-2.56.73-3.65.04-.52-.31-.92-.86-1.07-1.7-.04-.15-.04-.34-.02-.55v-.02c.11-1.13.94-2.69,1.83-3.25,10.95-6.99,16.68-21.53,32.06-22.28,3.04-.15,5.16-1.09,6.86-2.66l.27-.27c.15-.13.27-.25.42-.4.02-.04.06-.08.11-.13,1.62-1.76,2.9-3.74,3.38-5.52,5.08-18.55,8.6-37.5,12.84-56.28,2.12-9.34,3.32-19.14,6.63-27.97.34-.9.69-1.78,1.09-2.66,12.28-27.99,15.51-56.84,11.44-86.81-.1-.78-.21-1.55-.27-2.31l-.02-.02c-2.85-25.47,5.69-38.25,30.64-47.26,7.45-2.66,14.81-5.77,21.99-9.21,2.39-1.15,4.64-2.52,6.65-4.05.06-.06.13-.13.19-.17,1.11-.84,2.14-1.74,3.13-2.73.15-.13.23-.19.23-.19.78-.78,1.51-1.57,2.22-2.39,7.58-8.96,10.3-21.07,7.45-32.63l-.02-.02c-1.28-5.14-3.67-10.16-7.24-14.75-5.39-6.95-8.75-19.35-3.25-25.6.9-1.05-.29-4.99-.5-7.62-1.2-14.21-.52-28.12,14.08-35.53,7.26-3.71,14.67-5.6,21.99-5.6s14.73,1.89,21.99,5.6c14.6,7.41,15.28,21.32,14.08,35.53-.21,2.62-1.41,6.57-.5,7.62,5.5,6.25,2.14,18.65-3.25,25.6-3.57,4.6-5.96,9.61-7.24,14.75l-.02.02c-2.85,11.56-.13,23.67,7.45,32.63.71.82,1.45,1.62,2.22,2.39,0,0,.08.06.23.19.99.99,2.01,1.89,3.13,2.73.06.04.13.11.19.17,2.01,1.53,4.26,2.9,6.65,4.05,7.18,3.44,14.54,6.55,21.99,9.21,24.95,9,33.49,21.78,30.64,47.26l-.02.02c-.06.76-.17,1.53-.27,2.31-4.07,29.96-.84,58.82,11.44,86.81.4.88.76,1.76,1.09,2.66,3.32,8.83,4.51,18.63,6.63,27.97,4.24,18.78,7.76,37.73,12.84,56.28.48,1.78,1.76,3.76,3.38,5.52.04.04.08.08.11.13.15.15.27.27.42.4l.27.27c1.7,1.57,3.82,2.52,6.86,2.66,15.38.76,21.11,15.3,32.06,22.28.88.57,1.72,2.12,1.83,3.25Z"/><path class="cls-7" d="m139.24,124.33c-.46.38-1.57,1.32-3.13,2.73"/><path class="cls-7" d="m141.7,121.75l-.02-.02"/><path class="cls-7" d="m103.11,184.05c0-.17,0-.31-.02-.48"/><path class="cls-7" d="m212.29,127.06c-1.55-1.41-2.66-2.35-3.13-2.73"/><path class="cls-7" d="m206.72,121.73l-.02.02"/><path class="cls-7" d="m245.31,183.56c-.02.17-.02.31-.02.48"/><path class="cls-7" d="m139.17,123.95c-.46.38-1.57,1.32-3.13,2.73"/><path class="cls-7" d="m141.62,121.37l-.02-.02"/><path class="cls-7" d="m103.03,183.67c0-.17,0-.31-.02-.48"/><path class="cls-7" d="m212.21,126.67c-1.55-1.41-2.66-2.35-3.13-2.73"/><path class="cls-7" d="m206.65,121.34l-.02.02"/><path class="cls-7" d="m245.24,183.18c-.02.17-.02.31-.02.48"/><path class="cls-6" d="m103.8,183.7c0-.17,0-.31-.02-.48"/><path class="cls-6" d="m246.01,183.22c-.02.17-.02.31-.02.48"/><path class="cls-2" d="m141.23,401.05c-.1,2.27-1.45,2.98-3.74,2.43-1.72-.44-3.42-.97-5.16-1.32-2.87-.57-4.36.08-5.92,2.6-1.83,2.98-2.77,6.17-1.53,9.63,1.01,2.9.5,5.54-.34,8.46-.94,3.36-1.22,7.01-1.2,10.53.04,13.93.48,27.89.44,41.82-.02,23.27,1.95,46.33,6.06,69.22.61,3.4,1.45,6.76,2.2,10.16.78,3.29,2.04,6.36,4.18,9.09,3.46,4.49,3.71,9.4,1.49,14.56-1.11,2.56-2.12,5.12-5.08,6.65,1.87.19,3.13.29,4.53.44.27,3.06,0,5.9-1.62,8.23-4.05,5.9-5.43,12.65-7.13,19.37-1.85,7.24-2.1,14.63-2.43,22.01-.52,11.98-.82,23.96-1.26,35.92-.42,10.95-.84,21.91-1.41,32.84-.48,9.06.9,17.9,2.66,26.73.78,3.84,1.47,7.72,1.91,11.62.17,1.62-.17,3.36-.65,4.93-.86,2.83-2.06,3.06-4.2,1.11-.52-.48-1.07-.94-1.62-1.43.44,1.95.86,3.78,1.2,5.64,0,.04.02.11.02.15,1.78-1.09,3.29-.29,3.99,2.14.36,1.3.55,2.73.52,4.09-.08,2.12-1.2,2.9-3.32,2.52-.67-.13-1.3-.48-1.99-.57-.9-.15-1.83-.1-2.75-.15,2.98.46,4.22,2.43,4.55,5.2.11.94.31,1.89-.84,2.48-.29.15-.38.86-.42,1.32-.13,1.53-.15,3.11-.31,4.64-.15,1.36.02,2.54.94,3.63,1.03,1.22,2.56,2.46.38,4.01.23,1.64-.78,2.35-2.37,2.66.9,1.83,1.05,3.4-.59,4.74-.4.34-.42,1.11-.69,1.66-.46,1.01-1.68,1.53-2.81,1.26-.92-.23-1.3-.84-1.05-1.74.15-.59.42-1.11.63-1.62-1.83-2.52-1.78-2.77.76-4.22-.08-.61-.17-1.18-.23-1.74-.04-.31.06-.88-.06-.94-1.85-.8-1.18-2.33-.97-3.59.27-1.83-.15-3.42-.99-4.99-1.83-3.46-.88-5.52,2.98-6.4.82-.19,1.64-.27,2.75-.44-2.33-1.59-3.97-.13-5.67.63-2.18-3.8-.59-6.42,3.99-6.55-1.11-.9-2.41-.67-3.69-.59-1.38.08-2.75.08-3.86-1.09-2.08,2.12-4.74.42-7.01,1.18.4-2.9,1.76-3.82,4.43-3.04.67.19,1.34.36,2.1.57,1.59-1.3,3.46-2.1,5.6-2.25.73-.06,1.45-.19,2.12-.42-.61-.48-1.15-1.01-1.76-1.49-1.78-.76-3.23-.13-4.53,1.11-.4.21-.8.46-1.24.67-1.22.61-1.99.1-2.31-1.11-.19-.8-.31-1.68-.17-2.48.31-1.74.82-3.44,1.28-5.33-2.18-.31-2.81-1.95-2.52-4.01.25-1.66.5-3.4,1.26-4.85,2.83-5.58,3.15-11.52,2.71-17.54-.46-6.63-1.32-13.22-1.74-19.85-.5-7.85-.76-15.72-1.11-23.56-.42-8.98-1.05-17.96-1.2-26.92-.08-5.79.46-11.6.8-17.4.48-8.23,1.18-16.43,1.51-24.68.11-2.46-.48-4.99-1.07-7.43-1.24-5.18-2.71-10.3-4.07-15.46-.13-.5-.15-1.07-.25-1.95,1.24-.15,2.35-.27,3.48-.42l6.09,1.11c1.13.29,2.35.38,2.96-.19.94-.88.23-2.12-.25-3.13-.44-.9-1.03-1.76-1.51-2.66-.71-1.3-1.51-2.6-2.06-3.97-.73-1.85-1.11-3.76-.4-5.75,2.08-5.85,9.99-7.91,14.6-3.69.73.65,1.26,1.62,1.62,2.54,1.53,3.74.46,7.11-1.41,10.43-.69,1.26-1.26,2.73-1.43,4.15-.27,2.5.69,3.71,3.15,3.9-.69-.48-1.26-.86-1.7-1.3-1.51-1.59-1.49-2.69,0-4.34.76-.84,1.55-1.64,2.31-2.46,1.76-1.91,2.52-4.2,2.06-6.74-1.28-6.65-4.97-9.57-11.27-9.95-6.04-.38-10.93,6.23-9.13,11.23.88,2.35,1.8,4.7,2.73,7.05.36.92.76,1.8,1.2,2.81-.9.4-1.51.69-2.12.99l-5.96-1.64c-5.14-5.94-4.93-15.55.8-21.09,3.82-3.71,5.67-7.97,5.41-13.28-.55-13.18-1.03-26.36-1.55-39.53-.46-11.04-1.01-22.05-1.38-33.09-.38-11.33-.61-22.64-.9-33.95-.08-3.65-.04-7.3-.29-10.95-.15-2.2-.52-4.43-1.11-6.57-.61-2.25-1.64-4.39-2.33-6.61-1.68-5.39-2.04-10.87-.4-16.33,1.22-4.07,3.55-7.22,8.02-8.16,3.82-.8,5.43-.15,7.55,3.06,3.48-.17,5.75-2.37,5.85-5.69.1-3.8,1.66-5.01,5.39-4.24,2.64.52,4.57,2.08,6.02,4.24,2.58,3.86,3.06,8.23,2.83,12.67Z"/><path class="cls-2" d="m224.67,337.52c-6.3-4.03-13.28-4.55-20.33-2.77-5.23,1.32-7.72,6.19-6.63,11.6.08.42.11.86.17,1.28.13.36.25.71.4,1.07.38.97.9,1.89,1.11,2.9.9,4.32,1.66,8.69,2.56,13.03,1.28,5.94-.15,11.21-3.78,15.95-.94,1.24-1.87,2.54-3.02,3.57-3.69,3.29-7.51,6.46-11.27,9.67-1.72,1.47-3.5,2.85-5.1,4.45-.82.84-1.49,1.64-2.79,1.55-1.8-.08-3.65.15-5.18-1.15-3.15-2.62-6.23-5.27-9.44-7.78-4.45-3.53-8.62-7.32-11.67-12.17-2.04-3.25-3.36-6.82-2.81-10.64,1.01-6.88,1.91-13.81,4.28-20.35,2.25-6.27-1.55-12.25-7.45-13.32-5.67-1.01-11.29-.73-16.6,1.7-6.15,2.79-9.21,7.68-9.28,14.44-.04,2.83.48,5.58,1.57,8.14,1.62,3.84,3.48,7.58,5.14,11.39,1.7,3.88,4.41,6.86,7.89,9.17,1.07.71,2.2,1.38,3.34,2.01,3.9,2.25,6.09,5.6,6.46,10.11.08,1.11.27,2.25.23,3.38-.15,6.15.86,12.15,2.73,17.96.88,2.69,2.06,5.39,3.61,7.74,2.79,4.2,7.45,5.25,11.96,2.96,1.45-.73,2.9-1.7,3.95-2.92,1.78-2.1,3.27-4.47,4.83-6.76.52-.78.9-1.66,1.32-2.46h7.43c1.01,1.76,1.91,3.55,2.98,5.22,1.68,2.69,3.71,5.06,6.53,6.63,4.76,2.64,9.74,1.55,12.84-2.94.92-1.34,1.83-2.81,2.29-4.36,1.22-4.15,2.46-8.35,3.17-12.61.67-4.09.69-8.31,1.05-12.46.29-3.48,1.89-6.3,4.76-8.31,1.49-1.05,3-2.08,4.55-3.04,3.44-2.2,6.17-5.02,7.91-8.77,1.07-2.29,2.35-4.49,3.32-6.8,1.22-2.98,2.45-5.98,3.21-9.06,1.72-7.11-.67-13.66-6.23-17.25Zm-66.25,76.76c-1.43.76-2.62.76-3.4-.63-2.06-3.57-3.86-7.3-5.71-11-.23-.44-.15-1.03-.19-1.32.02-3.21,1.45-4.55,4.43-4.11,3.92.55,7.32,1.93,8.92,6.06,1.45,3.8-.44,9.11-4.05,11Zm40.81-9.86c-1.18,2.77-2.73,5.41-4.15,8.1-.19.38-.46.73-.73,1.07-1.13,1.3-2.16,1.47-3.67.61-2.45-1.34-4.62-5.2-4.57-8.08.13-3.21,2.77-7.41,6.04-8.02,1.53-.27,3.04-.82,4.57-.92,1.89-.1,3.06.82,3.19,2.71.08,1.49-.08,3.17-.67,4.53Z"/><path class="cls-2" d="m239.59,248.3c-.31-3.65-1.43-7.09-2.2-10.62-.76-3.5-.69-7.2-.99-10.81-.02-.25-.17-.48-.15-.73.04-.71.04-1.45.23-2.14,1.15-5.02.78-9.84-1.78-14.33-.46-.86-.76-1.57-.32-2.52.65-1.36.46-2.77-.15-4.07-.73-1.64-1.55-3.25-2.41-4.83-.71-1.36-1.51-2.69-2.1-3.67,1.32-4.6.78-8.35-1.26-11.5-.82-1.26-1.87-2.41-3.15-3.48.19-1.47.44-2.52.44-3.57-.02-4.18-1.91-7.47-4.93-10.01-1.78-1.49-2.9-3.25-3.99-5.31-2.22-4.15-5.29-7.3-10.47-6.97-.02-.65-.11-1.3-.08-1.95.15-2.48-.92-4.3-2.71-5.75-.02-.02-.04-.04-.06-.04-.71-.61-1.47-1.18-2.27-1.66-5.16-3.15-10.68-5.27-16.58-6.34-.61-.11-1.15-.17-1.72-.17h-.02c-.13,0-.27,0-.4.02,1.66-1.38,1.87-2.6,1.72-5.64-1.13.29-2.16.67-3.19.8-.59.06-1.38.27-1.53-1.41-.06-.57.57-1.47.99-2.43-.23-2.79-.86-5.88-.31-8.29,1.38-1.36,2.52-2.25,3.53-3.53.69-.86.97-2.37.29-4.18-1.36.42-2.73.86-4.07,1.28-.82-3.65-.82-3.71.36-5.5-.02-.5-.04-1.01-.06-1.51,3.29-.29,6.13-1.57,8.18-4.47,1.91-2.66,3.8-5.37,5.69-8.06.71-1.03.94-2.18.92-3.42-.06-1.74-.06-3.48-.1-5.25-.04-2.71.17-5.37,1.3-7.89.15-.31,0-.78-.02-1.15-.42.02-.92-.06-1.28.13-1.09.57-1.8,1.51-2.01,2.73-.31,2.04-.55,4.07-.88,6.11-.42,2.56-1.24,4.95-3.13,6.82-.19.21-.44.38-.88.71.1-.5.17-.76.19-.99,0-.63.08-1.28-.04-1.89-.08-.34-.44-.82-.76-.88-.32-.08-.73.23-1.09.44-.19.1-.25.4-.44.5-.19.13-.52.27-.65.19-1.01-.71-1.76-.06-2.56.42-.27.17-.61.21-.92.27-.55.08-1.09.13-1.64.23-.36.06-.69.23-1.07.27-.61.04-1.26-.08-1.68.59-.06.1-.36.13-.52.13-1.51-.06-3-.19-4.49-.17-.73,0-1.47.36-1.99-.44-.06-.08-.27-.08-.4-.1-.73-.19-1.47-.36-2.2-.52-.27-.06-.61-.19-.82-.08-.63.27-1.05.02-1.57-.31-.52-.29-1.3-.65-1.76-.46-.69.27-1.01.23-1.43-.34-.32-.42-.78-.97-1.34-.59-.38.25-.67.84-.73,1.32-.08.69.04,1.45.08,2.33-.29-.23-.5-.38-.69-.55-1.97-1.85-2.73-4.26-3.19-6.8-.34-1.83-.44-3.69-.71-5.52-.23-1.51-.86-2.81-2.31-3.5-.34-.15-.86-.15-1.15.04-.17.11-.15.71-.04,1.05.27,1.05.73,2.06.94,3.11.69,3.11.38,6.27.27,9.4-.06,1.91.44,3.5,1.59,5.04,1.57,2.1,3.06,4.26,4.53,6.46,1.8,2.71,4.22,4.49,7.49,4.89.4.04.82.08,1.22.1-.08.99.13,1.76.67,2.2.29.23.57.5.8.73.11,3.78-.02,4.07-1.51,3.74-1.07-.23-2.14-.46-3.44-.73.15,5.71,1.57,7.13,2.92,8.73.5,2.14,1.03,2.46.71,4.47-.42,2.5-.38,2.69.78,3.8.48.44.67.88.44,2.25-1.2-.34-2.37-.63-3.55-.99-.46-.15-.94-.8-1.22.55-.25,1.22-.06,2.35.4,3.04.65.94,1.32,1.83,2.04,2.46.08.08.17.15.25.23h-.42c-.55,0-1.09.08-1.64.23-3.29.86-6.65,1.57-9.78,2.87-3.06,1.26-5.94,3.04-8.77,4.83-.23.17-.48.34-.71.5-1.62,1.3-2.52,3.17-2.39,5.52.04.69-.15,1.41-.19,1.87-1.47.15-2.87-.1-3.84.46-3.02,1.83-5.88,3.97-7.16,7.62-.48,1.45-1.38,2.48-2.54,3.46-4.26,3.67-6.95,8.1-5.2,14.44-.78.76-1.68,1.47-2.39,2.33-.46.5-.84,1.01-1.13,1.55-1.78,2.79-2.18,6-1.43,9.32.34,1.41.19,2.27-.42,3.34-1.15,1.99-2.29,3.99-3.32,6.02-.82,1.66-1.18,3.38-.44,5.25.19.57,0,1.47-.31,2.04-2.62,4.68-3.02,9.61-1.7,14.79.15.61.13,1.28.08,1.91-.21,3.13-.44,6.25-.69,9.38-.04.65.02,1.36-.21,1.93-1.34,3.13-1.85,6.46-2.37,9.82-.4,2.69-.34,5.35.57,7.83,1.11,3,1.28,6.09,1.53,9.21.19,2.81.57,5.64,1.95,8.1.8,1.43,1.11,2.87,1.28,4.45.38,3.32,1.26,6.48,2.92,9.36,2.2,3.74,5.62,4.93,9.36,2.94,2.01-1.07,3.84-2.6,5.43-4.28,1.95-2.04,3.53-4.45,5.27-6.69.8-1.01,1.62-2.01,2.45-3,.92-1.09,2.1-2.04,2.81-3.25,4.91-8.5,9.21-17.31,12.99-26.44,1.11-2.71,2.43-5.37,4.05-7.78,1.55-2.29,3.34-4.41,5.12-6.55.15-.19.29-.36.44-.52.21,1.89-.1,3.63-.57,5.41-.38,1.43-.17,2.56.84,3.11.4.23.78.52,1.13.76.15,3.92-.04,4.22-2.18,3.88-1.51-.25-3.04-.48-4.91-.76.21,5.9,2.25,7.37,4.15,9.02.73,2.22,1.49,2.54,1.03,4.62-.59,2.58-.52,2.77,1.13,3.92.67.48.94.92.61,2.33-1.7-.34-3.4-.63-5.08-1.01-.65-.15-1.34-.82-1.74.57-.36,1.26-.06,2.41.59,3.13.92.99,1.89,1.89,2.92,2.54,1.62,1.05,1.99,1.74,1.78,4.36-.08,1.15-.36,2.29-.63,3.38-.38,1.53-.06,2.52.86,3.08.5.31,1.28.21,1.07,1.8-2.14,1.34-4.3-.9-6.67-.21.15,6.06,3.46,5.54,5.9,7.39-.15,1.49-.23,3.11-.5,4.64-.52,2.92-.57,2.87,1.13,4.24.31.23.5.82,1.11,1.85-2.83-.5-5.16-.92-7.34-1.3-.61,1.97-.25,3.25.55,4.11.8.88,1.64,1.95,2.54,2.14,1.89.42,2.24,2.54,2.37,4.76.11,1.57-.21,3.25-.48,4.83-.48,2.64-.52,2.92,1.13,3.97,1.2.78,1.2,1.78.8,3.25-3.11-.59-6.11-1.15-9.13-1.72-.73-.15-1.57-.57-1.95.9-.38,1.55.36,2.58,1.07,3.08,1.49,1.05,3.04,1.8,4.6,2.6.59.31,1.22.44,1.91.67-.65,4.3-.92,8.2.06,12.17.99,4.05,3.23,6.19,5.29,8.48-1.11.9-2.31,1.28-2.83,2.46-.71,1.55-1.32,3.27-1.85,5.04-.57-.46-1.15-.94-1.74-1.47-.59-.5-1.05-1.15-1.62-1.7-1.26-1.2-2.45-2.48-3.8-3.55-.86-.71-1.89-1.26-2.94-1.66-1.36-.5-2.37-.06-3.04,1.24-.34.67-.67,1.47-.69,2.2-.04,3.13-.25,6.27.11,9.36.36,3.17,1.57,6.06,4.66,7.72,1.11.59,1.47,1.68,1.55,2.85.08,1.22.02,2.46.27,3.63.27,1.24.69,2.5,1.32,3.61,1.11,1.95,2.35,3.84,3.67,5.67.63.86,1.49,1.7,2.43,2.14,1.24.57,1.99,1.41,2.39,2.6.94,2.85,1.85,5.73,2.73,8.62.46,1.47,2.56,3.4,3.9,3.44,1.49.06,3.99-1.74,4.43-3.15.86-2.81,1.68-5.62,2.71-8.37.36-.99,1.07-2.25,1.93-2.56,1.83-.69,2.75-2.01,3.65-3.53.88-1.49,1.83-2.94,2.83-4.36.97-1.38,1.53-2.9,1.53-4.62,0-.78.04-1.55.08-2.35.06-1.66.61-3,2.22-3.82,1.53-.8,2.56-2.18,3.02-3.78.63-2.14,1.15-4.36,1.34-6.59.21-2.33,0-4.68-.02-7.03-.15-.36-.27-.71-.4-1.07-1.91-2.14-2.96-2.33-5.33-.82-.97.61-1.85,1.32-2.66,2.08-1.13,1.07-2.16,2.27-3.27,3.38l-.36.36c-.17-.52-.29-1.05-.44-1.59-.61-2.33-1.7-3.5-3.25-3.69-.31-.04-.63-.23-1.45-.52,5.79-4.76,7.32-11.83,5.69-20.96.76-.25,1.34-.34,1.89-.63,1.34-.71,2.69-1.43,3.95-2.37.73-.52,1.49-1.47,1.22-3-.29-1.76-1.26-1.26-2.06-1.09-.82.17-1.62.34-2.43.46-2.06.36-4.11.67-6.09,1.01-1.09-2.69.76-2.81,1.24-4.09-.63-3.94-1.15-7.87-.04-11.69,4.2-2.18,5.04-3.53,4.32-7.01-2.12-.21-4.24,1.49-6.8.5.76-.92,1.24-1.49,1.68-2.04q-.65-5.81-.25-7.87c1.74-1.22,3.34-2.14,4.81-3.44.99-.86,1.39-2.37.61-4.28-2.29-.02-4.51,1.7-7.13.23.69-.99,1.18-1.68,1.55-2.22-.17-2.81-.34-5.48-.48-8.06,5.85-2.56,6.48-3.32,6.21-7.64-1.62.31-3.08.69-4.55.82-.84.06-1.97.27-2.2-1.45-.08-.61.82-1.53,1.41-2.52-.34-2.9-1.2-6.09-.42-8.58,1.97-1.41,3.57-2.33,5.04-3.65,1.01-.9,1.36-2.43.42-4.32-1.95.44-3.92.9-5.83,1.32-1.18-3.76-1.15-3.84.5-5.69-.13-2.77-.42-5.46-.31-8.12v-.36h.02c.13.13.23.25.36.4l.06.06.04.04c3.88,4.66,7.49,9.46,9.74,15.34,3.34,8.75,7.64,17.04,12.21,25.16.67,1.22,1.47,2.35,2.35,3.4,1.11,1.36,2.45,2.54,3.55,3.92,1.7,2.06,3.15,4.39,4.95,6.3,1.68,1.72,3.57,3.34,5.62,4.45,3.74,2.04,7.28.88,9.32-2.94,1.18-2.2,2.04-4.68,2.56-7.13.63-2.81,1.28-5.52,2.27-8.23.99-2.73,1.05-5.81,1.55-8.73.34-1.93.57-3.88,1.09-5.77.73-2.64,1.13-5.29.88-8.06Zm-7.45-36.13c2.81,3.92,2.69,6.42-.57,9.38-4.87,4.43-10.26,8.02-16.33,10.26-4.93,1.8-9.88,1.3-14.29-1.76-4.85-3.36-9.55-7.01-14.29-10.58-.73-.57-1.43-1.32-1.87-2.16-.57-1.13.1-2.06,1.32-1.72.88.25,1.7.82,2.52,1.28,2.64,1.49,5.18,3.17,7.91,4.45,5.39,2.58,10.95,3.02,16.47.38,5.58-2.66,11.14-5.46,16.68-8.18.78-.4,1.53-.86,2.43-1.34Zm-4.05-12.57c.32.48.59.99.8,1.51.88,2.16.63,3.29-1.2,4.74-3.48,2.75-7.26,4.97-11.35,6.59-3.95,1.55-8.04,2.41-12.78,2.54-4.81-.57-10.07-1.51-15.11-3.61-1.66-.69-3-1.8-4.01-3.38-1.47-2.31-.57-4.51,2.12-4.78,1.53-.15,3.13.08,4.68.29,2.2.29,4.34.84,6.55,1.11.06,0,.11.02.17.02.44.04.92.08,1.36.13.63.04,1.24.08,1.87.08h.48c3.4.04,6.78-.46,10.07-1.78,1.11-.44,2.22-.88,3.34-1.3,3.19-1.2,6.42-2.31,9.61-3.46,2.12-.78,2.22-.71,3.4,1.3Zm-107.02,1.62c.08-.23.21-.46.32-.67,1.45-3.02,1.59-3.08,4.7-1.95,2.69.99,5.37,1.93,8.06,2.92h.02c1.99.71,4.01,1.45,6,2.18,2.69,1.01,5.39,1.24,8.12,1.15.59,0,1.2-.04,1.8-.08.46-.02.92-.06,1.41-.13.5-.04,1.01-.08,1.53-.15,2.06-.23,4.05-.82,6.06-1.09,1.49-.19,3-.36,4.47-.17,2.54.31,3.5,2.52,1.99,4.66-.92,1.26-2.16,2.54-3.53,3.17-5.22,2.5-10.83,3.38-15.76,3.94-9.48-.42-17.16-3.82-24.07-9.25-1.7-1.34-1.93-2.46-1.13-4.53Zm-3.36,11.08c5.33,2.69,10.47,5.39,15.7,7.89,2.43,1.15,4.97,2.04,7.55,2.81,3.38,1.03,6.72.38,9.99-.67,3.63-1.2,6.92-3.15,10.14-5.27.92-.61,1.91-1.15,2.96-1.47.99-.29,1.55.42,1.22,1.45-.21.65-.63,1.36-1.18,1.76-5.37,4.05-10.58,8.35-16.24,11.94-4.11,2.62-8.92,2.69-13.49.92-5.81-2.25-11-5.71-15.72-9.9-3.42-3.06-3.61-5.46-.92-9.46Zm9.19,72.79c-3.17.48-5.71-1.43-7.58-6.04,1.07.44,1.78.73,2.5,1.01,2.41.9,4.87,1.26,7.41.52,1.11-.34,2.29-.4,3.53-.59-.29,2.37-3.11,4.7-5.85,5.1Zm2.64-9.48c-7.05-.06-11.73-3.67-12.8-10.22,7.41,7.78,15.42,8.18,23.98,2.98-.78,4.28-5.46,7.3-11.18,7.24Zm23.75-28.1c-1.26,1.89-2.6,3.74-3.88,5.62-2.58,3.82-5.46,7.26-9.32,9.72-3.69,2.33-7.66,3.32-11.81,1.97-7.55-2.43-12.09-8.06-14.39-15.8-.57-1.93-.19-3.88.11-5.81.17-.04.34-.08.5-.15,1.18,1.45,2.29,2.94,3.5,4.32,1.59,1.83,3.21,3.63,4.93,5.33,3.29,3.25,7.28,4.24,11.62,3.34,5.06-1.03,9.46-3.44,13.37-7.03,1.87-1.72,4.03-3.13,6.27-4.85.27,1.51-.29,2.46-.9,3.34Zm13.66-22.49c-.08.1-.17.19-.27.29-.06.08-.15.15-.25.23-1.95,1.95-3.97,3.9-5.94,5.85-1.89,1.89-3.78,3.74-5.56,5.73-4.13,4.68-9,8.2-14.81,10.26-.97.36-1.97.59-2.9,1.05-3.04,1.62-5.92,1.05-8.83-.44-5.73-2.9-10.13-6.97-11.46-13.83-.25-1.41-.25-2.87-.4-4.32.21-.06.4-.15.61-.21,3.34,3.36,7.24,5.81,11.29,8.02,2.01,1.09,4.15,1.99,6.3,2.77,2.96,1.05,5.96.61,8.79-.63,4.68-2.08,8.83-4.97,12.36-8.92,2.25-2.52,4.78-4.74,7.24-7.07.5-.5,1.15-.88,1.76-1.2.76-.4,1.43-.19,1.93.34.13.13.23.27.34.42.02.02.02.04.02.06-.11.55-.17,1.07-.21,1.59Zm-.34-33.64c-.29.46-.61.88-.99,1.26-.06.08-.13.15-.21.23-.88.88-1.91,1.51-3.09,1.87-3.02.92-6.06,1.74-9.13,2.48-.48.1-.99.21-1.45.27-1.03.17-2.04.27-3.06.29-4.18.13-8.23-.97-12.11-2.75-2.62-1.18-5.12-2.73-7.55-4.32-.5-.34-.99-.65-1.49-.99-1.72-1.11-2.22-2.25-1.76-3.84.11-.44.29-.9.57-1.43.44-.84,1.05-1.62,1.62-2.52.78.27,1.47.48,2.12.69.08.04.15.06.23.08,3.86,1.41,7.81,2.69,11.6,4.24,3.09,1.28,6.23,1.68,9.36,1.57.21.02.4,0,.61,0,.44-.02.86-.06,1.28-.1.92-.06,1.83-.17,2.73-.31,1.78-.25,3.55-.73,5.35-.99.08-.02.15-.02.23-.04.17-.02.36-.04.55-.06.99-.1,2.01-.15,2.98.04,2.18.48,2.83,2.33,1.62,4.32Zm-4.22-9.61c-3.19-.17-6.34-.15-9.51-.31v-.06c-4.18-.23-8.29-.84-12.3-2.58-2.41-1.07-4.78-2.27-7.05-3.67-2.1-1.34-2.58-3.19-1.76-5.2.48-1.18,1.3-2.01,2.35-2.35h.06c3.55.86,7.01,1.95,10.53,2.79,2.1.5,4.22.92,6.32,1.28,4.89.82,9.8,1.24,14.77,1.26.46.02.92.06,1.62.1.13.94.31,1.68.31,2.41.08,3.97-1.72,6.53-5.35,6.34Zm5.37-15.13c-.02.23-.06.5-.17.78-.99-.06-1.95-.13-2.94-.17-.19-.02-.4-.04-.59-.04-1.57-.1-3.13-.21-4.68-.44-2.48-.36-4.95-.99-7.43-1.41,0-.08,0,.08,0,0-2.37-.44-4.76-.88-7.13-1.3-1.32-.23-2.48-.82-2.83-2.41-.36-1.59.23-2.94,1.15-4.09.21-.27.44-.48.69-.63h.02c2.04,1.01,4.11,1.76,6.25,2.37,3.48.99,7.03,1.57,10.6,2.22,1.83.31,3.63,1.15,5.29,2.04,1.07.57,1.91,1.49,1.76,3v.08Zm-3.11-17.04c.06,3.82,1.07,4.93,2.25,5.73-.04.08-.06.15-.11.23-.15.36-.34.71-.5,1.05-1.01,1.8-2.69,2.94-4.72,2.64-2.87-.4-5.71-1.03-8.56-1.72-.52-.15-1.09-.92-1.3-1.53-1.22-3.76-.4-7.18,2.01-10.13,1.28-1.55,3.11-1.83,4.97-1.74,2.48.17,4.85.67,6.92,2.16,1.41,1.01,2.31,2.31,2.48,3.9-1.11-.06-2.24-1.07-3.44-.59Zm21.28-4.26c2.14-.94,4.41-1.38,6.72-1.18,1.93.17,3.44,1.07,4.45,2.85,1.13,1.97,1.74,4.05,1.59,6.21,0,.02-.02.04,0,.06-.04.65-.13,1.3-.31,1.95-.02.02-.02.04-.02.06-.04.17-.08.31-.15.48-.19.63-.69,1.45-1.22,1.62-2.62.82-5.31,1.45-7.97,2.14-2.96-.04-4.87-1.45-6.02-4.15-.08-.17-.15-.34-.21-.5-.04-.1-.08-.19-.1-.29.36-.36.69-.71,1.03-1.11.67-.84.97-2.31.42-4.13-.71-.02-1.41.29-2.12.52.36-1.99,1.66-3.53,3.92-4.53Zm-3.76,20.96c-.08-1.34.67-2.27,1.76-2.83,1.59-.84,3.34-1.51,5.06-1.93,2.14-.55,4.41-.57,6.53-1.15,1.28-.36,2.52-.73,3.76-1.15,2.06-.67,4.09-1.38,6.13-2.12.23-.08.44-.17.65-.21h.02c.78.31,1.36,1.09,1.8,2.46.71,2.1.02,3.82-1.87,4.55-.42.17-.86.25-1.3.34-2.41.42-4.85.84-7.26,1.26,0,.06.02-.06,0,0-2.31.36-4.62.92-6.9,1.28-1.93.27-3.86.4-5.79.5-.17.02-.36.02-.52.04-.11,0-.19.02-.29.02-.52.04-1.07-.06-1.59-.08-.08-.29-.13-.57-.17-.84v-.13Zm.17,6.9c4.66-.38,8.83-.65,12.99-1.07.99-.1,1.99-.23,3-.4,4.99-.73,9.9-2.04,14.77-3.44.86-.25,1.72-.52,2.58-.69h.02c1.22.34,2.18,1.3,2.62,2.64.55,1.74.13,3.27-1.41,4.53-.9.73-1.87,1.38-2.87,1.91-5.54,2.9-11.35,4.57-17.5,4.7v.04c-1.99.04-3.99.23-6,.34-1.18.04-2.37.17-3.53,0-2.87-.38-4.22-1.72-4.66-4.72-.19-1.26-.02-2.58-.02-3.84Zm2.79,13.83c.78-.13,1.59-.1,2.39-.02.25.02.5.04.76.08.21.02.4.04.59.06,2.48.31,4.93.73,7.41,1.05.4.04.82.1,1.22.15.4.06.84.1,1.24.15.29.02.55.06.84.08h.19c2.16.08,4.32-.25,6.42-1.01,4.36-1.59,8.79-3.19,13.18-4.76.19-.06.36-.13.55-.19.63-.23,1.3-.42,2.01-.67.4.48.63.71.8.97.61.92,1.05,1.7,1.3,2.39v.02c.82,2.06.02,3.32-2.66,5.25-.52.38-1.07.73-1.59,1.09-4.51,2.98-9.36,5.12-14.71,5.75-1.34.15-2.73.23-4.11.19h-.08c-1.05-.02-2.08-.13-3.08-.29-.04,0-.11-.02-.15-.04-3.36-.57-6.65-1.57-9.93-2.5-1.24-.36-2.33-1.05-3.21-1.99-.08-.08-.15-.15-.21-.23-.34-.36-.61-.71-.86-1.13-1.32-2.06-.63-3.97,1.72-4.39Zm.31,40.44c-.52-.52-1.07-1.05-1.57-1.59-.19-.17-.38-.36-.55-.52,0-.57-.06-1.13-.17-1.72-.02-.19-.06-.4-.11-.59.13-.15.27-.27.42-.36.46-.36,1.05-.42,1.66-.06.82.48,1.64,1.01,2.33,1.68,2.6,2.5,5.16,5.08,7.72,7.64,4.18,4.15,8.79,7.51,14.56,8.71,2.22.46,4.36.31,6.48-.52,5.25-2.01,9.95-4.93,14.33-8.52.8-.67,1.6-1.3,2.85-2.33-.04,6.69-2.06,11.86-6.84,15.53-1.91,1.47-4.03,2.56-6.15,3.69-2.22,1.18-4.51,1.28-6.86.27-1.8-.78-3.71-1.28-5.56-2.06-4.68-1.95-8.6-5.12-12.19-8.75-3.48-3.48-6.9-6.99-10.37-10.49Zm38.46,57.68c-2.85-.04-6.06-2.31-6.76-4.99.97.06,1.93-.1,2.73.19,3.34,1.15,6.51.61,9.61-.84.25-.13.52-.19.92-.31-1.09,3.71-3.67,6.02-6.51,5.96Zm8.96-17.75c-.5,1.03-1.03,2.04-1.62,3.02-1.57,2.71-3.9,4.2-6.88,4.74-2.66.5-5.29.63-7.95,0-3.32-.78-5.96-3.15-7.49-6.99,8.77,5.35,16.74,5.02,24.26-2.2-.1.48-.13.99-.31,1.43Zm2.94-17.46c-2.04,6.06-5.56,10.83-11.23,13.74-4.53,2.33-8.98,2.16-13.43-.1-3.23-1.68-5.9-4.15-8.12-7.09-2.33-3.11-4.55-6.34-6.74-9.57-.46-.67-.63-1.57-.94-2.39.15-.1.31-.21.44-.34,2.31,1.8,4.66,3.57,6.9,5.43,4.55,3.76,9.51,6.48,15.44,6.67,3.32.13,6.3-.97,8.65-3.38,2.48-2.54,4.76-5.27,7.11-7.93.57-.65,1.09-1.32,1.91-2.33.57,2.79.76,5.08,0,7.28Z"/><path class="cls-2" d="m113.68,761.46c-.24.92-.56,1.9-.73,2.91-.33,1.96-.74,3.92-.8,5.9-.04,1.36.02,2.6-.87,3.11.18,1.07.63,1.98.36,2.49-.65,1.2-.46,2.31-.31,3.53.1.78-.1,1.6-.17,2.5-1.31-.17-2.27-.29-3.69-.48,1,.83,1.76,1.22,2.14,1.83.5.81-.54,1.31-.73,1.92-.86,2.7-1.43,5.49-2.07,8.26-.32,1.38-1.02,2.15-2.71,1.9.15-1.86-.28-3.62.46-5.53.61-1.58.36-3.5.47-5.27.02-.33-.17-.9-.05-.97,1.83-1,1.02-3.24,2.23-4.59.55-.62.53-1.75.75-2.65.26-1.07,1.03-2.46.63-3.16-.73-1.27-.12-2.13.11-3.18.5-2.37,1.07-4.74,1.39-7.13.36-2.66,1.11-3.06,3.6-1.39Z"/><path class="cls-2" d="m97.38,781.53c1.23.96,2.74.73,4.13,1.04.62.14,1.46.38,1.71.84.42.77-.52,1.03-.95,1.53-.81.95-1.42,2.09-1.98,3.22-.58,1.18-1.01,2.43-1.76,3.58-.79-1.38-.96-2.61-.05-3.97.75-1.12,1.53-2.34,1.07-4-1.27,0-2.08.52-2.53,1.69-.52,1.36-1.06,2.71-1.63,4.04-.12.28-.4.5-.79.96-.56-1.38-.67-2.49.02-3.55.98-1.5,1.57-3.06,1.04-4.96.7-.15,1.25-.27,1.81-.38,0,0-.11-.05-.11-.05Z"/><path class="cls-2" d="m93.86,781.03c.19-.56.28-1.18.59-1.66,1.26-1.95,2.57-3.87,3.91-5.76.27-.38.79-.59,1.3-.95.35.47.63.85.96,1.3.4-.35.77-.67,1.15-1,0,0-.07-.04-.07-.04,1.31.85,1,1.82.17,2.78-1.19,1.37-2.26,2.76-2.5,4.66-.14,1.1-1.1,1.14-1.99,1.16,0,0,.11.05.1.05-.24-.52-.48-1.04-.6-1.29-1.12.26-2.12.48-3.12.71,0,0,.09.03.09.03Z"/><path class="cls-2" d="m104.06,770.62c.39-1,.94-1.97,1.15-3.01.35-1.78.48-3.6.72-5.54.9-.29,1.77-.56,3.01-.95-.23.97-.43,1.66-.56,2.37-.41,2.31-.8,4.62-1.19,6.93-.12.68-.13,1.41-.39,2.03-.17.4-.72.85-1.11.87-.39.02-1-.39-1.18-.77-.28-.61-.29-1.34-.41-2.02,0,0-.04.09-.04.09Z"/><path class="cls-2" d="m104.1,770.53c-.16.47-.34.94-.48,1.41-.29,1.02-.93,1.32-1.92.99,0,0,.07.04.06.04.13-1.5.27-2.99.41-4.48-.09-.01-.18-.03-.27-.04-.43.96-.87,1.93-1.3,2.89-.69-2.04.37-3.67.75-5.61,1.07-.2,2.13-.39,3.21-.59-.19,1.98-.35,3.74-.52,5.49,0,0,.04-.1.04-.1Z"/><path class="cls-2" d="m102.78,781.88c-1.26-.16-1.78-.7-1.41-1.62.75-1.82,1.56-3.62,2.51-5.34.21-.39,1.11-.4,2.01-.68-.45,3.06-1.83,5.28-3.11,7.63Z"/><path class="cls-2" d="m104.47,760.01c.62.17,1.25.35,1.9.53-.86,1.33-1.67,2.59-2.54,3.94-1.18.16-1.5-.71-1.7-1.67-.19-.9.32-1.45,1.03-1.88.47-.28.92-.62,1.37-.93-.01,0-.06,0-.06,0Z"/><path class="cls-2" d="m93.77,781c.41.27.82.54,1.15.77-1,1.79-1.9,3.42-2.81,5.05-.13-.03-.27-.07-.4-.1,0-.47-.1-.97.01-1.41.32-1.22.67-2.45,1.13-3.62.12-.3.67-.43,1.02-.64,0,0-.1-.03-.1-.03Z"/><path class="cls-2" d="m159.75,136.16c-1.41.92-3.11,1.66-4.76,1.93-3.06.5-6.21.88-9.32.84-6.48-.08-12.78,1.18-19.07,2.46-2.56.52-5.1,1.09-7.66,1.55-3.46.63-6.67,1.87-9.65,3.82-.42-.55-.71-.92-1.18-1.51-.32,1.11-.57,2.08-.86,3.19,2.24,1.15,4.62,1.05,6.9,1.24,0,0-.21,2.18-1.7,2.64-.15.04-.32.06-.46.08-.57.1-1.13.19-1.7.15-1.11-.08-2.2-.46-3.27-.8-2.81-.86-5.48-.65-8.06.8-.76.42-1.59.82-2.41.88-.67.04-1.68-.25-1.99-.73-.32-.5-.15-1.55.19-2.14.46-.8,1.22-1.47,1.97-2.04,1.93-1.49,3.92-2.85,5.87-4.3,1.22-.9,2.56-1.01,4.22-.61-.15-.5-.23-.86-.36-1.26.17-.15.34-.36.57-.44,8.81-3.34,17.77-5.92,27.3-6.25,4.26-.15,8.48-.69,12.74-.9,4.3-.21,7.85-1.93,10.89-4.89,1.03-.99,2.16-1.87,3.29-2.81,1.8,3.04,1.09,7.43-1.49,9.11Z"/><path class="cls-2" d="m90.34,290.09c-2.19-.12-3.58-1.6-5.04-2.97-.99-.92-2.02-1.8-3.06-2.74-.72.63-1.17,1.03-1.62,1.42-2.27,1.97-4.67,2.13-7.14.41-1.99-1.39-3.28-3.34-4.07-5.6-.57-1.64-.16-3.12,1.1-4.28,1.21-1.12,2.46-2.21,3.78-3.19,3.35-2.48,5.6-5.71,6.53-9.75,1.28-5.58,2.42-11.2,3.57-16.81,2.01-9.81,2.85-19.77,3.69-29.72.88-10.39,1.69-20.79,2.32-31.2.28-4.58-.12-9.2.05-13.8.16-4.5.52-9.01,1.02-13.49.23-2.06,1.42-2.89,3.66-2.93,1.2-.02,2.03-.32,2.93-1.2,2.18-2.11,4.88-2.51,7.74-1.59,6.22,2.02,9.18,7.43,7.49,13.77-.83,3.12-2.37,5.68-5.47,7.21-2.76,1.37-4.61,3.68-5.12,6.83-1.25,7.71-2.66,15.41-3.64,23.16-1.52,12.07-2.81,24.16-4.04,36.26-.87,8.56-1.41,17.15-2.2,25.71-.37,3.99.56,7.56,2.68,10.91.92,1.46,1.74,3.01,2.46,4.58.73,1.58.69,3.19-.33,4.8-.36-.05-.7-.05-1-.15-1.9-.62-2.05-.54-3.27.96-.98,1.19-2.06,2.3-3.09,3.45l.08-.05Z"/><g class="cls-5"><path class="cls-1" d="m42.99,377.34c-.11.23-.21.44-.29.67.02-.11.04-.21.04-.34,0-.1.11-.23.25-.34Z"/><path class="cls-1" d="m42.2,390.57s-.04.01-.05,0h0s.02.01.03.02c.01,0,.02-.01.03-.02Z"/><path class="cls-1" d="m42.17,390.59s.03,0,.04.01l.04-.06s-.03,0-.05.02c-.02,0-.04.01-.05,0h0s.02.01.03.02Z"/><path class="cls-1" d="m30.1,409.66c-.6,2.97-2.32,5.37-4.11,7.72-.66.86-1.24,1.69-.94,2.93-.28.07-.55.16-.82.22-.3.06-.6.1-1.02.17-.25,1.55-.23,3.11-.82,4.45-.54,1.27-1.72,2.3-2.85,3.72.74.49,1.36.98,2.04,1.32.75.37,1.37.03,1.72-.86.32-.81.5-1.67.91-2.42.61-1.11,1.23-2.33,2.12-3.16.89-.83.6-2.07,1.23-2.58.79-.63,1.41-1.14,1.62-2.16.49-2.44,1.81-4.42,3.51-6.24.97-1.03,2.22-2.04,1.79-3.87,1.93-.34,2.61-1.79,3.13-3.58,1.53-5.23,3.6-8.23,8.06-11.75-.12.77-.11,1.38-.31,1.94-1.04,3.04-2.45,5.9-4.51,8.45-.63.78-1.16,1.72-1.54,2.66-.49,1.27-.06,2.29.86,3,1.28,1.01,2.78.43,2.94-1.37.25-2.84,1.69-5.21,2.91-7.65.8-1.62,1.92-3.09,2.92-4.61.57-.87,1.34-1.74.81-2.76-.53-1.02-1.46-1.7-2.64-1.33-.93.29-1.32-.13-1.96-.47-.88-.47-1.94-.59-2.94-.85-.62.89-1.52,1.74-1.77,2.68-1.02,3.94-3.54,6.92-6.07,9.87-1.72,2.01-1.9,2.21-1.88,4.64-1.38-.32-2.12.5-2.4,1.87Z"/><path class="cls-1" d="m92.12,293.33c-.86-.04-1.72-.04-2.58-.04-1.55.52-2.62-.17-3.46-1.43-.78-1.2-1.85-1.51-3.17-1.24-.65.15-1.28.31-1.93.46-.46-1.01-.21-2.75-1.85-2.37-1.99.46-3.69-.15-5.54-.67-1.72-.48-2.41.25-2.14,2.06.06.44.17.86.36,1.26.73,1.76.82,3.61.23,5.37-1.15,3.55-2.14,7.18-3.82,10.49-6.57,12.93-11.27,26.5-14.9,40.5-1.55,5.96-3.46,11.83-5.48,17.65-1.45,4.07-3.23,7.99-4.85,11.98-.11.23-.21.44-.29.67-.04.4-.19.76-.4,1.09,0,0,0,.02-.02.04-.44.76-1.13,1.38-1.51,2.2-.57,1.22-1.2,2.33-.31,3.94-.78-.23-1.13-.4-1.51-.46-1.26-.21-2.01.08-2.39,1.49-.8,2.94-2.6,5.29-3.92,7.91-1.24,2.5-2.87,4.49-4.97,6.17-1.93,1.55-1.93,1.72-1.22,4.24-.63-.19-1.15-.34-1.99-.59-.42.99-1.03,1.93-1.22,2.94-.57,2.77-1.47,5.31-3.5,7.39-.36.38-.42,1.09-.57,1.64-.08.21,0,.65-.06.67-1.97.69-1.51,2.41-1.8,3.84-.15.65-.44,1.32-.82,1.89-1.51,2.33-2.39,4.87-3,7.51-.19.82-.25,1.62.71,1.68.8.04,1.45-.48,1.45-1.38-.02-1.15.65-1.78,1.22-2.66.71-1.13,1.66-2.33,1.66-3.92,0-.67.52-1.45.92-2.1.76-1.2,2.18-2.01,2.06-3.74,2.29-1.26,1.89-3.84,2.85-5.73.61-1.2,1.55-2.27,2.48-3.23.94-.94,1.91-1.76,1.66-3.34,2.04-.06,2.83-1.55,3.32-3.34,1.15-4.22,3.21-7.85,6.5-10.7.73-.63,1.53-1.15,2.31-1.74.65-.82,1.22-1.64,1.22-2.46,0-.4-.13-.78-.46-1.18.97-.82,2.12-1.38,2.58-2.33.17-.31.19-.71.17-1.13l.11-.02h.02s.11-.02.17-.02l.59-.08.65-.08c.08,0,.15-.02.23-.04l.48-.06,1.72-.23.61-.08h.08c-.38.31-.73.84-1.18,1.62-.55.99-1.15,1.93-1.78,2.87-1.24,1.83-1.11,3.04.44,3.86,1.45.76,2.96.13,3.78-1.62.44-.9.8-1.85,1.2-2.77.17.06.32.13.46.19-.59,1.36-1.2,2.73-1.85,4.2,1.57.06,1.34,2.06,2.58,2.46l-.11.02c2.66.25,2.79.15,3.63-3.04,2.12-.61,3.04-1.66,3.55-4.03.02-.17.06-.31.08-.46,1.32.59,1.72.29,2.5-1.41.46-1.01.69-2.14,1.05-3.19.84-2.37,1.59-4.76,2.52-7.09,3.13-8.1,6.61-16.07,9.42-24.26,2.29-6.65,3.74-13.58,5.71-20.31,2.1-7.18,4.36-14.31,6.63-21.42,1.2-3.74,2.58-7.39,5.18-10.43.44-.5.76-1.2.97-1.83.42-1.38,0-1.97-1.43-2.04Zm-37.23,93.21c-.1-1.53.69-2.14,1.2-2.83.32-.42.52-.84.61-1.24.25.42.5.8.73,1.2-.76.88-1.57,1.76-2.54,2.87Zm25.31-93.15c-1.66,1.57-1.85,3.55-1.87,5.69-.06,3.25-.63,6.32-2.48,9.19-1.03,1.59-1.3,3.76-1.64,5.71-.71,4.28-1.15,8.62-1.91,12.88-1.45,8.04-2.66,16.16-4.68,24.05-2.18,8.58-5.43,16.85-9.44,24.78-.67,1.32-1.3,2.64-1.97,3.94-.13-.02-.25-.04-.36-.08.52-4.3.9-8.62,1.6-12.88,1.3-7.99,2.79-15.93,4.2-23.9,1.43-8.04,4.51-15.46,8.02-22.79,2.12-4.47,4.03-9.02,6.09-13.53,1.07-2.33,1.59-4.74,1.8-7.28.19-2.33.38-4.72,2.58-6.25.04.15.13.42.06.48Z"/><path class="cls-1" d="m13.49,392.74c1.89-1.39,3.42-2.6,5.03-3.64.68-.44,1.54-.6,2.32-.71,1.17-.15,2.45.14,2.97-1.61.02-.08.08-.23.1-.23,2.19.24,3.1-2.13,4.75-3.02,1.89-1.02,3.72-2.01,5.76-1.46.33.09.76-.07,1.23-.13.66-1.47.5-2.85.41-4.19-.08-1.18-.69-1.48-1.8-1.02-.61.25-1.18.65-1.74,1.03-2.31,1.54-4.69,2.69-7.33,2.74-1.08.02-1.89.57-2.78,1.44-2.06,2.03-4.29,3.89-6.5,5.76-.5.42-1.18.59-1.8.82-1.82.68-2.26,1.55-1.49,3.15.22.46.64.8.87,1.07Z"/><path class="cls-1" d="m54.25,393.66c-1.29.09-2.04.62-2.27,2.14-.59,3.81-2.11,7.28-4.9,10.27-1.19,1.28-1.3,1.95-1.09,4.06-.98-.11-1.7.25-1.87,1.41-.11.74-.12,1.53-.43,2.21-.48,1.05-1.03,2.17-1.82,3-1.38,1.45-1.46,1.37-.47,2.88-.54-.16-1.08-.32-1.7-.5-.32.95-.52,1.76-.87,2.52-.36.77-.86,1.49-1.38,2.37.68.53,1.33,1.04,2.01,1.56.89-1.58,1.71-2.92,2.42-4.31.36-.7.63-1.24,1.47-1.55.44-.16.81-1.04,1.06-1.64.76-1.83,1.74-3.47,2.93-5.12,1.48-2.03,3.16-3.96,3.46-6.77.31-2.88,2.04-5.57,3.92-8.01,2.1-2.73,2.09-3.03-.57-4.52,0,0,.1,0,.1,0Z"/><path class="cls-1" d="m32.82,422.22c1.41,1,2.91.82,3.38-1.7.49-2.65,1.75-4.95,3.82-6.85,1.72-1.58,1.58-2.27-.33-3.12-2.76-1.23-3.29-.95-3.7,2.33-.29,2.31-1.11,4.16-2.91,5.79-1.76,1.58-1.72,2.57-.26,3.55Z"/><path class="cls-1" d="m26.47,431.16c-.36.35-.91.65-1.07,1.08-.42,1.1-.64,2.25-.99,3.37-.25.8-.41,1.62.38,1.9.95.34,1.55-.44,1.69-1.36.21-1.41,1.01-2.28,2.03-3.14.55-.47,1.1-1.17,1.31-1.84.68-2.24,1.39-4.41,3.33-5.98.27-.22.35-.75.56-1.24-1.02-.89-1.88-1.97-3.79-1.45.07,2.58-1.1,4.68-2.88,6.6-.4.43-.37,1.31-.56,2.06Z"/><path class="cls-1" d="m22.35,431.97c-.87-1.49-2.08-1.43-3.19-1.61-.57,1.7-1.09,3.26-1.6,4.83-.26.78-.33,1.58.47,1.84.9.29,1.57-.34,1.76-1.27.31-1.56.82-2.92,2.57-3.78Z"/><path class="cls-1" d="m39.06,382.37c1.39-1.3,1.21-3.03,1.77-4.71-1.25-.28-2.29-.32-3.07.9-.57.9.03,2.56,1.3,3.81Z"/><path class="cls-1" d="m36.93,424.74c-.72,1.47-1.15,2.47-1.7,3.41-.45.77-.67,1.47.09,1.87.68.36,1.13-.25,1.56-.85.67-.94,1.41-1.83,2.31-2.98-.76-.49-1.5-.97-2.26-1.46Z"/></g><path class="cls-2" d="m280.38,280.61c-.8,2.27-2.08,4.22-4.07,5.6-2.48,1.72-4.87,1.57-7.13-.42-.46-.38-.9-.78-1.64-1.41-1.03.92-2.06,1.8-3.04,2.73-1.47,1.36-2.83,2.83-5.02,2.98-1.01-1.13-2.08-2.22-3.04-3.4-1.22-1.51-1.36-1.59-3.27-.97-.32.1-.65.1-1.01.15-1.03-1.62-1.05-3.21-.34-4.78.73-1.57,1.55-3.13,2.48-4.6,2.12-3.34,3.04-6.92,2.69-10.91-.8-8.56-1.34-17.14-2.2-25.7-1.24-12.11-2.54-24.19-4.05-36.26-.97-7.74-2.39-15.44-3.63-23.17-.52-3.15-2.37-5.46-5.12-6.82-3.11-1.53-4.64-4.09-5.48-7.22-1.7-6.34,1.26-11.75,7.49-13.77,2.85-.92,5.56-.52,7.74,1.59.9.86,1.72,1.18,2.94,1.2,2.22.04,3.42.86,3.65,2.92.5,4.49.86,8.98,1.03,13.49.15,4.6-.23,9.21.04,13.81.63,10.41,1.43,20.79,2.31,31.18.86,9.97,1.7,19.91,3.69,29.73,1.15,5.6,2.29,11.23,3.57,16.81.92,4.05,3.19,7.28,6.53,9.76,1.32.97,2.58,2.06,3.78,3.19,1.26,1.15,1.68,2.64,1.11,4.28Z"/><path class="cls-1" d="m259.52,290.14l-.08-.04h.04l.04.04Z"/><g class="cls-5"><path class="cls-1" d="m307.09,378.01c-.08-.23-.19-.46-.29-.69.15.13.25.25.25.36,0,.13.02.23.04.34Z"/><path class="cls-1" d="m307.59,390.57s.04.01.05,0h0s-.02.01-.03.02c-.01,0-.02-.01-.03-.02Z"/><path class="cls-1" d="m307.62,390.59s-.03,0-.04.01l-.04-.06s.03,0,.05.02c.02,0,.04.01.05,0h0s-.02.01-.03.02Z"/><path class="cls-1" d="m319.68,409.66c.6,2.97,2.32,5.37,4.11,7.72.66.86,1.24,1.69.94,2.93.28.07.55.16.82.22.3.06.6.1,1.02.17.25,1.55.23,3.11.82,4.45.54,1.27,1.72,2.3,2.85,3.72-.74.49-1.36.98-2.04,1.32-.75.37-1.37.03-1.72-.86-.32-.81-.5-1.67-.91-2.42-.61-1.11-1.23-2.33-2.12-3.16-.89-.83-.6-2.07-1.23-2.58-.79-.63-1.41-1.14-1.62-2.16-.49-2.44-1.81-4.42-3.51-6.24-.97-1.03-2.22-2.04-1.79-3.87-1.93-.34-2.61-1.79-3.13-3.58-1.53-5.23-3.6-8.23-8.06-11.75.12.77.11,1.38.31,1.94,1.04,3.04,2.45,5.9,4.51,8.45.63.78,1.16,1.72,1.54,2.66.49,1.27.06,2.29-.86,3-1.28,1.01-2.78.43-2.94-1.37-.25-2.84-1.69-5.21-2.91-7.65-.8-1.62-1.92-3.09-2.92-4.61-.57-.87-1.34-1.74-.81-2.76.53-1.02,1.46-1.7,2.64-1.33.93.29,1.32-.13,1.96-.47.88-.47,1.94-.59,2.94-.85.62.89,1.52,1.74,1.77,2.68,1.02,3.94,3.54,6.92,6.07,9.87,1.72,2.01,1.9,2.21,1.88,4.64,1.38-.32,2.12.5,2.4,1.87Z"/><path class="cls-1" d="m336.34,429.92c-.61-2.64-1.51-5.18-3.02-7.51-.36-.57-.67-1.24-.82-1.89-.29-1.43.17-3.15-1.78-3.84-.06-.02,0-.46-.06-.67-.17-.55-.23-1.26-.59-1.64-2.04-2.08-2.92-4.62-3.48-7.39-.21-1.01-.82-1.95-1.22-2.94-.84.25-1.36.4-1.99.59.69-2.52.71-2.69-1.24-4.24-2.1-1.68-3.74-3.67-4.97-6.17-1.3-2.62-3.13-4.97-3.9-7.91-.38-1.41-1.15-1.7-2.41-1.49-.38.06-.73.23-1.51.46.88-1.62.25-2.73-.31-3.94-.36-.78-1.01-1.41-1.47-2.12,0-.02-.02-.02-.02-.02-.21-.36-.38-.76-.44-1.2-.08-.23-.19-.46-.29-.69-1.62-3.97-3.4-7.89-4.83-11.96-2.04-5.81-3.94-11.69-5.5-17.65-3.61-14-8.33-27.57-14.88-40.5-1.68-3.32-2.69-6.95-3.84-10.49-.57-1.76-.48-3.61.25-5.37.17-.4.29-.82.36-1.26.25-1.8-.42-2.54-2.16-2.06-1.83.52-3.53,1.13-5.54.67-1.64-.38-1.38,1.36-1.85,2.37-.63-.15-1.28-.31-1.93-.46-1.3-.27-2.39.04-3.17,1.24-.82,1.26-1.91,1.95-3.44,1.43-.86,0-1.72,0-2.58.04-1.43.06-1.87.65-1.43,2.04.21.63.52,1.32.94,1.83,2.62,3.04,4.01,6.69,5.18,10.43,2.27,7.11,4.53,14.25,6.63,21.42,1.99,6.74,3.42,13.66,5.71,20.31,2.83,8.18,6.3,16.16,9.44,24.26.9,2.33,1.68,4.72,2.5,7.09.36,1.05.59,2.18,1.05,3.19.76,1.7,1.18,1.99,2.5,1.41.02.15.06.29.08.46.5,2.37,1.43,3.42,3.55,4.03.86,3.19.97,3.29,3.63,3.04l-.08-.02c1.22-.4.99-2.39,2.56-2.46-.65-1.47-1.24-2.83-1.85-4.2.15-.06.31-.13.46-.19.4.92.78,1.87,1.2,2.77.84,1.74,2.35,2.37,3.8,1.62,1.55-.82,1.66-2.04.42-3.86-.63-.94-1.24-1.89-1.78-2.87-.44-.78-.8-1.3-1.18-1.62h.08l.61.08,1.74.23.46.06c.08.02.15.04.23.04l.65.08.61.08c.06,0,.13.02.17.02h.02l.08.02c-.02.42,0,.82.17,1.13.46.94,1.64,1.51,2.58,2.33-.31.38-.44.78-.44,1.18,0,.8.55,1.64,1.22,2.46h-.04c.8.59,1.59,1.11,2.33,1.74,3.29,2.85,5.35,6.48,6.5,10.7.5,1.78,1.28,3.27,3.34,3.34-.27,1.57.71,2.39,1.64,3.34.94.97,1.87,2.04,2.48,3.23.97,1.89.57,4.47,2.87,5.73-.13,1.72,1.3,2.54,2.04,3.74.42.65.92,1.43.92,2.1,0,1.59.94,2.79,1.68,3.92.55.88,1.22,1.51,1.2,2.66,0,.9.65,1.43,1.47,1.38.94-.06.9-.86.71-1.68Zm-54.18-79.02c-1.99-7.89-3.23-16.01-4.68-24.05-.76-4.26-1.18-8.6-1.91-12.88-.34-1.95-.61-4.11-1.64-5.71-1.85-2.87-2.41-5.94-2.46-9.19-.04-2.14-.23-4.11-1.89-5.69-.06-.06.04-.34.06-.48,2.2,1.53,2.41,3.92,2.6,6.25.19,2.54.73,4.95,1.8,7.28,2.06,4.51,3.94,9.06,6.09,13.53,3.48,7.32,6.59,14.75,8.02,22.79,1.38,7.97,2.87,15.91,4.18,23.9.69,4.26,1.09,8.58,1.62,12.88-.13.04-.25.06-.38.08-.65-1.3-1.3-2.62-1.97-3.94-4.01-7.93-7.24-16.2-9.44-24.78Zm10.2,32.76c.25-.4.48-.78.73-1.2.08.4.31.8.63,1.24.5.69,1.28,1.3,1.18,2.83-.97-1.11-1.78-1.99-2.54-2.87Zm6.04-1.47c-.25.15-.48.31-.8.5-.06-.15-.15-.27-.19-.4.5-.15,1.01-.29,1.49-.36-.17.08-.31.17-.5.25Z"/><path class="cls-1" d="m336.29,392.74c-1.89-1.39-3.42-2.6-5.03-3.64-.68-.44-1.54-.6-2.32-.71-1.17-.15-2.45.14-2.97-1.61-.02-.08-.08-.23-.1-.23-2.19.24-3.1-2.13-4.75-3.02-1.89-1.02-3.72-2.01-5.76-1.46-.33.09-.76-.07-1.23-.13-.66-1.47-.5-2.85-.41-4.19.08-1.18.69-1.48,1.8-1.02.61.25,1.18.65,1.74,1.03,2.31,1.54,4.69,2.69,7.33,2.74,1.08.02,1.89.57,2.78,1.44,2.06,2.03,4.29,3.89,6.5,5.76.5.42,1.18.59,1.8.82,1.82.68,2.26,1.55,1.49,3.15-.22.46-.64.8-.87,1.07Z"/><path class="cls-1" d="m295.54,393.66c1.29.09,2.04.62,2.27,2.14.59,3.81,2.11,7.28,4.9,10.27,1.19,1.28,1.3,1.95,1.09,4.06.98-.11,1.7.25,1.87,1.41.11.74.12,1.53.43,2.21.48,1.05,1.03,2.17,1.82,3,1.38,1.45,1.46,1.37.47,2.88.54-.16,1.08-.32,1.7-.5.32.95.52,1.76.87,2.52.36.77.86,1.49,1.38,2.37-.68.53-1.33,1.04-2.01,1.56-.89-1.58-1.71-2.92-2.42-4.31-.36-.7-.63-1.24-1.47-1.55-.44-.16-.81-1.04-1.06-1.64-.76-1.83-1.74-3.47-2.93-5.12-1.48-2.03-3.16-3.96-3.46-6.77-.31-2.88-2.04-5.57-3.92-8.01-2.1-2.73-2.09-3.03.57-4.52,0,0-.1,0-.1,0Z"/><path class="cls-1" d="m316.97,422.22c-1.41,1-2.91.82-3.38-1.7-.49-2.65-1.75-4.95-3.82-6.85-1.72-1.58-1.58-2.27.33-3.12,2.76-1.23,3.29-.95,3.7,2.33.29,2.31,1.11,4.16,2.91,5.79,1.76,1.58,1.72,2.57.26,3.55Z"/><path class="cls-1" d="m323.32,431.16c.36.35.91.65,1.07,1.08.42,1.1.64,2.25.99,3.37.25.8.41,1.62-.38,1.9-.95.34-1.55-.44-1.69-1.36-.21-1.41-1.01-2.28-2.03-3.14-.55-.47-1.1-1.17-1.31-1.84-.68-2.24-1.39-4.41-3.33-5.98-.27-.22-.35-.75-.56-1.24,1.02-.89,1.88-1.97,3.79-1.45-.07,2.58,1.1,4.68,2.88,6.6.4.43.37,1.31.56,2.06Z"/><path class="cls-1" d="m327.44,431.97c.87-1.49,2.08-1.43,3.19-1.61.57,1.7,1.09,3.26,1.6,4.83.26.78.33,1.58-.47,1.84-.9.29-1.57-.34-1.76-1.27-.31-1.56-.82-2.92-2.57-3.78Z"/><path class="cls-1" d="m310.72,382.37c-1.39-1.3-1.21-3.03-1.77-4.71,1.25-.28,2.29-.32,3.07.9.57.9-.03,2.56-1.3,3.81Z"/><path class="cls-1" d="m312.85,424.74c.72,1.47,1.15,2.47,1.7,3.41.45.77.67,1.47-.09,1.87-.68.36-1.13-.25-1.56-.85-.67-.94-1.41-1.83-2.31-2.98.76-.49,1.5-.97,2.26-1.46Z"/></g><path class="cls-2" d="m240.32,599.99c-.57,2.43-1.15,4.97-1.05,7.43.34,8.25,1.03,16.45,1.51,24.68.34,5.79.88,11.6.8,17.4-.15,8.96-.78,17.94-1.2,26.92-.36,7.85-.61,15.72-1.11,23.56-.44,6.63-1.28,13.22-1.76,19.85-.42,6.02-.1,11.96,2.73,17.54.73,1.45,1.01,3.19,1.26,4.85.29,2.06-.34,3.69-2.52,4.01.46,1.89.97,3.59,1.26,5.33.15.8.04,1.68-.15,2.48-.31,1.22-1.09,1.72-2.31,1.11-.44-.21-.84-.46-1.24-.67-1.3-1.24-2.77-1.87-4.53-1.11-.61.48-1.15,1.01-1.76,1.49.67.23,1.36.36,2.12.42,2.14.15,3.99.94,5.6,2.25.76-.21,1.43-.38,2.08-.57,2.69-.78,4.05.15,4.45,3.04-2.27-.76-4.93.94-7.01-1.18-1.11,1.18-2.48,1.18-3.88,1.09-1.26-.08-2.56-.31-3.67.59,4.57.13,6.17,2.75,3.99,6.55-1.7-.76-3.34-2.22-5.67-.63,1.11.17,1.93.25,2.75.44,3.86.88,4.81,2.94,2.98,6.4-.84,1.57-1.26,3.17-.99,4.99.19,1.26.86,2.79-.97,3.59-.13.06-.02.63-.06.94-.06.57-.15,1.13-.23,1.74,2.54,1.45,2.58,1.7.76,4.22.21.5.48,1.03.63,1.62.23.9-.13,1.51-1.07,1.74-1.11.27-2.33-.25-2.81-1.26-.25-.55-.27-1.32-.67-1.66-1.64-1.34-1.49-2.92-.59-4.74-1.59-.31-2.6-1.03-2.37-2.66-2.18-1.55-.65-2.79.38-4.01.92-1.09,1.09-2.27.94-3.63-.17-1.53-.19-3.11-.31-4.64-.04-.46-.13-1.18-.42-1.32-1.15-.59-.94-1.53-.84-2.48.34-2.77,1.57-4.74,4.55-5.2-.92.04-1.85,0-2.75.15-.69.08-1.32.44-1.99.57-2.12.38-3.25-.4-3.32-2.52-.04-1.36.17-2.79.52-4.09.69-2.43,2.2-3.23,3.99-2.14,0-.04.02-.1.02-.15.34-1.87.76-3.69,1.18-5.64-.52.48-1.07.94-1.59,1.43-2.14,1.95-3.34,1.72-4.2-1.11-.48-1.57-.82-3.32-.65-4.93.44-3.9,1.13-7.78,1.91-11.62,1.76-8.83,3.15-17.67,2.66-26.73-.57-10.93-.99-21.89-1.41-32.84-.44-11.96-.73-23.94-1.26-35.92-.34-7.39-.59-14.77-2.43-22.01-1.7-6.71-3.08-13.47-7.13-19.37-1.62-2.33-1.89-5.16-1.62-8.23,1.41-.15,2.66-.25,4.53-.44-2.96-1.53-3.97-4.09-5.08-6.65-2.22-5.16-1.97-10.07,1.49-14.56,2.12-2.73,3.4-5.79,4.15-9.09.78-3.4,1.62-6.76,2.2-10.16,4.11-22.89,6.11-45.95,6.09-69.22-.04-13.93.4-27.89.44-41.82.02-3.53-.25-7.18-1.2-10.53-.84-2.92-1.34-5.56-.34-8.46,1.24-3.46.29-6.65-1.53-9.63-1.55-2.52-3.04-3.17-5.92-2.6-1.74.36-3.44.88-5.16,1.32-2.29.55-3.63-.17-3.74-2.43-.23-4.45.25-8.81,2.81-12.67,1.47-2.16,3.4-3.71,6.04-4.24,3.71-.78,5.29.44,5.39,4.24.11,3.32,2.37,5.52,5.85,5.69,2.12-3.21,3.74-3.86,7.55-3.06,4.47.94,6.8,4.09,8.02,8.16,1.64,5.46,1.28,10.93-.4,16.33-.69,2.22-1.72,4.36-2.33,6.61-.59,2.14-.99,4.36-1.13,6.57-.23,3.65-.19,7.3-.27,10.95-.29,11.31-.55,22.62-.9,33.95-.38,11.04-.92,22.05-1.38,33.09-.52,13.18-1.01,26.36-1.57,39.53-.23,5.31,1.62,9.57,5.43,13.28,5.73,5.54,5.94,15.15.8,21.09l-5.96,1.64c-.61-.29-1.24-.59-2.12-.99.42-1.01.84-1.89,1.2-2.81.92-2.35,1.85-4.7,2.71-7.05,1.83-4.99-3.06-11.6-9.11-11.23-6.3.38-9.99,3.29-11.27,9.95-.46,2.54.29,4.83,2.06,6.74.76.82,1.55,1.62,2.31,2.46,1.49,1.66,1.51,2.75,0,4.34-.44.44-1.01.82-1.7,1.3,2.46-.19,3.42-1.41,3.15-3.9-.17-1.43-.73-2.9-1.43-4.15-1.87-3.32-2.94-6.69-1.43-10.43.38-.92.9-1.89,1.64-2.54,4.62-4.22,12.53-2.16,14.6,3.69.71,1.99.34,3.9-.4,5.75-.55,1.36-1.34,2.66-2.06,3.97-.48.9-1.07,1.76-1.51,2.66-.48,1.01-1.2,2.25-.25,3.13.59.57,1.83.48,2.96.19l6.09-1.11c1.13.15,2.25.27,3.48.42-.1.88-.13,1.45-.25,1.95-1.36,5.16-2.83,10.28-4.09,15.46Z"/><path class="cls-2" d="m235.34,761.46c.24.92.56,1.9.73,2.91.33,1.96.74,3.92.8,5.9.04,1.36-.02,2.6.87,3.11-.18,1.07-.63,1.98-.36,2.49.65,1.2.46,2.31.31,3.53-.1.78.1,1.6.17,2.5,1.31-.17,2.27-.29,3.69-.48-1,.83-1.76,1.22-2.14,1.83-.5.81.54,1.31.73,1.92.86,2.7,1.43,5.49,2.07,8.26.32,1.38,1.02,2.15,2.71,1.9-.15-1.86.28-3.62-.46-5.53-.61-1.58-.36-3.5-.47-5.27-.02-.33.17-.9.05-.97-1.83-1-1.02-3.24-2.23-4.59-.55-.62-.53-1.75-.75-2.65-.26-1.07-1.03-2.46-.63-3.16.73-1.27.12-2.13-.11-3.18-.5-2.37-1.07-4.74-1.39-7.13-.36-2.66-1.11-3.06-3.6-1.39Z"/><path class="cls-2" d="m251.64,781.53c-1.23.96-2.74.73-4.13,1.04-.62.14-1.46.38-1.71.84-.42.77.52,1.03.95,1.53.81.95,1.42,2.09,1.98,3.22.58,1.18,1.01,2.43,1.76,3.58.79-1.38.96-2.61.05-3.97-.75-1.12-1.53-2.34-1.07-4,1.27,0,2.08.52,2.53,1.69.52,1.36,1.06,2.71,1.63,4.04.12.28.4.5.79.96.56-1.38.67-2.49-.02-3.55-.98-1.5-1.57-3.06-1.04-4.96-.7-.15-1.25-.27-1.81-.38,0,0,.11-.05.11-.05Z"/><path class="cls-2" d="m255.16,781.03c-.19-.56-.28-1.18-.59-1.66-1.26-1.95-2.57-3.87-3.91-5.76-.27-.38-.79-.59-1.3-.95-.35.47-.63.85-.96,1.3-.4-.35-.77-.67-1.15-1,0,0,.07-.04.07-.04-1.31.85-1,1.82-.17,2.78,1.19,1.37,2.26,2.76,2.5,4.66.14,1.1,1.1,1.14,1.99,1.16,0,0-.11.05-.1.05.24-.52.48-1.04.6-1.29,1.12.26,2.12.48,3.12.71,0,0-.09.03-.09.03Z"/><path class="cls-2" d="m244.96,770.62c-.39-1-.94-1.97-1.15-3.01-.35-1.78-.48-3.6-.72-5.54-.9-.29-1.77-.56-3.01-.95.23.97.43,1.66.56,2.37.41,2.31.8,4.62,1.19,6.93.12.68.13,1.41.39,2.03.17.4.72.85,1.11.87.39.02,1-.39,1.18-.77.28-.61.29-1.34.41-2.02,0,0,.04.09.04.09Z"/><path class="cls-2" d="m244.92,770.53c.16.47.34.94.48,1.41.29,1.02.93,1.32,1.92.99,0,0-.07.04-.06.04-.13-1.5-.27-2.99-.41-4.48.09-.01.18-.03.27-.04.43.96.87,1.93,1.3,2.89.69-2.04-.37-3.67-.75-5.61-1.07-.2-2.13-.39-3.21-.59.19,1.98.35,3.74.52,5.49,0,0-.04-.1-.04-.1Z"/><path class="cls-2" d="m246.24,781.88c1.26-.16,1.78-.7,1.41-1.62-.75-1.82-1.56-3.62-2.51-5.34-.21-.39-1.11-.4-2.01-.68.45,3.06,1.83,5.28,3.11,7.63Z"/><path class="cls-2" d="m244.55,760.01c-.62.17-1.25.35-1.9.53.86,1.33,1.67,2.59,2.54,3.94,1.18.16,1.5-.71,1.7-1.67.19-.9-.32-1.45-1.03-1.88-.47-.28-.92-.62-1.37-.93.01,0,.06,0,.06,0Z"/><path class="cls-2" d="m255.25,781c-.41.27-.82.54-1.15.77,1,1.79,1.9,3.42,2.81,5.05.13-.03.27-.07.4-.1,0-.47.1-.97-.01-1.41-.32-1.22-.67-2.45-1.13-3.62-.12-.3-.67-.43-1.02-.64,0,0,.1-.03.1-.03Z"/><path class="cls-2" d="m183.04,230.08s0,.02-.02.04v-.04h.02Z"/><path class="cls-2" d="m198.71,153.28c-.04.65-.13,1.3-.31,1.95.06-.65.17-1.3.31-1.95Z"/><path class="cls-2" d="m254.88,152.69c-.31.48-1.32.78-1.99.73-.82-.06-1.68-.46-2.41-.88-2.58-1.45-5.25-1.66-8.06-.8-1.07.34-2.18.71-3.29.8-.67.04-1.36-.08-2.06-.21-.11-.02-.19-.02-.27-.06-1.41-.4-1.28-2.62-1.28-2.62,2.22-.17,4.49-.1,6.67-1.22-.29-1.11-.57-2.08-.86-3.19-.46.59-.78.97-1.2,1.51-2.98-1.95-6.19-3.19-9.63-3.82-2.56-.46-5.12-1.03-7.66-1.55-6.32-1.28-12.59-2.54-19.07-2.46-3.13.04-6.25-.34-9.34-.84-1.66-.27-3.34-1.01-4.76-1.93-2.58-1.68-3.29-6.06-1.47-9.11,1.11.94,2.27,1.83,3.27,2.81,3.06,2.96,6.61,4.68,10.91,4.89,4.24.21,8.48.76,12.74.9,9.51.34,18.49,2.92,27.3,6.25.21.08.38.29.55.44-.11.4-.21.76-.34,1.26,1.66-.4,2.98-.29,4.2.61,1.95,1.45,3.97,2.81,5.9,4.3.76.57,1.49,1.24,1.97,2.04.34.59.48,1.64.19,2.14Z"/><path class="cls-2" d="m169.94,88.86c-1.94.88-3.04.55-4.16-1.27-1.51.62-2.01.51-3.24-.7-1.17.74-2.63.14-3-1.22-.03-.11-.09-.23-.08-.33.21-1.95-.25-3.94.42-5.87.13-.36.07-.98-.16-1.24-1.3-1.44-2.54-2.99-4.07-4.13-1.57-1.17-3.48-1.33-5.2-.07-.72.53-1.13.32-1.5-.34-.87-1.57-1.73-3.16-2.6-4.73-.58-1.05-1.13-2.12-1.78-3.13-.39-.61-.34-1.07.05-1.63,1.43-2.09,2.6-4.31,3.17-6.8.49-2.15.41-4.26-.54-6.29-.16-.34-.39-.65-.73-.95-.96,2.09-.36,4.28-.44,6.41-.13.08-.26.17-.39.25-.19-.32-.35-.67-.58-.95-2.12-2.55-3.26-5.54-3.53-8.78-.32-3.79-.57-7.6-.52-11.4.08-5.63,1.15-11.1,3.75-16.16,3.71-7.24,9.63-11.93,17.33-14.28,9.6-2.93,19.12-2.57,28.3,1.67,8.43,3.9,13.45,10.68,15.66,19.6,1.41,5.7,1.55,11.49.95,17.31-.18,1.76-.31,3.54-.62,5.28-.46,2.51-1.51,4.79-3.18,6.75-.25.29-.55.52-1.03.69.06-1.07.18-2.13.18-3.2,0-1.06-.14-2.12-.22-3.17-.13-.03-.27-.06-.4-.08-.23.35-.53.68-.69,1.06-1.24,2.83-.99,5.66.19,8.41.67,1.57,1.57,3.04,2.43,4.52.33.57.46,1.02.11,1.65-1.36,2.42-2.66,4.87-3.99,7.3-.14.25-.31.48-.47.72-.4.6-.8.75-1.47.26-1.73-1.24-3.6-1.1-5.19.11-1.48,1.13-2.72,2.59-4.04,3.94-.43.44-.42.97-.19,1.59.26.71.36,1.5.43,2.26.08.88.04,1.77.06,2.65.01.96-.15,1.84-1.09,2.35-.69.38-1.41.75-2.04-.07-1.48,1.36-1.68,1.4-3.27.65-.89,1.86-2.16,2.28-4.12,1.35-1.59,1.38-2.89,1.6-4.19.7-1.65.85-2.7.68-4.27-.68Zm20.97-24.83c.8,0,1.6.04,2.4,0,1.59-.09,2.76-.82,3.39-2.33,1.35-3.21,1.34-6.39-.14-9.54-.62-1.33-1.75-1.95-3.16-2-3.28-.13-6.52.25-9.65,1.23-2.31.72-3.71,2.33-3.94,4.79-.11,1.16-.1,2.34-.02,3.5.16,2.15.62,2.67,2.73,3.25,2.74.75,5.52,1.27,8.38,1.12Zm-33.48.14c3.07.02,6.04-.54,8.94-1.45.88-.28,1.77-.64,1.98-1.69.37-1.84.46-3.7.07-5.54-.44-2.04-1.7-3.44-3.68-4.04-3.19-.97-6.47-1.46-9.81-1.29-1.36.07-2.53.65-3.12,1.94-1.58,3.45-1.63,6.9.21,10.29.48.89,1.25,1.41,2.26,1.52,1.05.12,2.11.17,3.16.26Zm16.52,5.17c.12,0,.24,0,.36,0,.13.3.33.58.38.89.13.79.22,1.58.28,2.38.12,1.55.58,1.95,2.13,1.75.28-.04.56-.09.84-.15.9-.2,1.22-.55.98-1.45-.28-1.09-.62-2.21-1.18-3.17-.72-1.22-1.3-2.45-1.7-3.81-.28-.94-.72-1.86-1.22-2.71-.46-.78-.85-.77-1.32.02-.48.8-.92,1.66-1.15,2.56-.37,1.43-.91,2.75-1.76,3.96-.73,1.05-1.19,2.23-1.11,3.54.02.32.28.84.53.9.73.2,1.51.26,2.27.28.67.02,1.03-.39,1.06-1.08.03-.71.07-1.43.17-2.14.09-.6.29-1.18.44-1.77Z"/><path class="cls-4" d="m105.67,290.58c-8.33,32.17-22.64,61.92-36.34,91.89-7.55-16.22-27.7-13.26-27.7-13.26,1.62-1.76,2.9-3.74,3.38-5.52,5.08-18.55,8.6-37.5,12.84-56.28,2.12-9.34,3.32-19.14,6.63-27.97,0,0,17.06,15.19,41.19,11.14Z"/></svg>