<?xml version="1.0" encoding="UTF-8"?><svg id="Lag_1" xmlns="http://www.w3.org/2000/svg" viewBox="0 0 384.19 880.21"><defs><style>.cls-1,.cls-2,.cls-3{fill:#fff;}.cls-4{fill:#0098ff;opacity:.39;}.cls-5,.cls-6,.cls-2{opacity:.22;}.cls-6,.cls-7{fill:none;}.cls-3{opacity:.15;}</style></defs><path class="cls-3" d="m384.18,439.24v.02c.02.23.02.44-.02.6-.16.93-.6,1.53-1.18,1.87-1.2.76-2.99.44-4.03-.05-5.48-2.43-11.89-2.8-16.41-8.7-.12-.12-.23-.28-.35-.42-.07.23-.14.49-.23.72-.3.93-.56,1.83-.72,2.71-.69,3.17-.6,6.04-.05,8.75.81,3.91,2.59,7.45,4.4,10.99.09.21.21.39.3.6,3.61,6.99,7.5,13.86,10.76,21.01,3.91,8.54,3.86,13.51-4.44,14.65-.76.09-1.6.16-2.45.19-1.46.02-8.89-2.89-11.52-2.27-2.27.56-3.59.72-4.93.23-.58-.23-1.3-.58-1.85-1.13l-.16-.23c-1-1.2-6.11-7.71-7.34-10.25l-14.05-19.67-.14-.23-.14-.19c-7.29-10.48-14.9-21.82-19.16-30.87-.18-.44-.37-.88-.58-1.34-.62-1.48-1.41-2.89-2.08-4.35-15.11-33.04-30.89-65.86-40.08-101.33-2.13-8.17-3.89-16.48-5.23-24.97-.07,25.2.83,50.24,4.51,74.86,1,6.71,2.38,13.4,3.91,20.06,1.48,6.48,3.08,12.96,4.6,19.44,3.01,12.56,5.69,25.15,6.5,37.88,2.38,36.98-.09,74.25-.56,111.42-.35,26.63-1.2,53.24-1.02,79.88.09,17.08,3.52,34.29,2.18,51.21-2.41,29.94-7.59,59.7-11.06,89.6-2.8,24.3-1.43,48.36,9.09,70.97,3.52,7.54,14.9,14.37,7.73,22.68-4.49,5.18-15.46,6.02-23.67,6.48-21.08,1.25-24.78-4.17-23.7-25.89,1.32-26.87-3.93-53.87,1.18-80.76.49-2.68-.86-5.74-1.43-8.58-7.4-36.79-18.79-73.08-13.72-111.44.53-3.98-1.13-8.24-1.9-12.33-6.8-36.47-14.12-72.84-20.29-109.4-3.24-19.21-4.51-38.74-6.76-58.73-2.18.09-2.92.14-6.02.28-3.1-.14-3.84-.19-6.02-.28-2.24,19.99-3.52,39.52-6.76,58.73-6.18,36.56-13.49,72.94-20.29,109.4-.76,4.1-2.43,8.35-1.9,12.33,5.07,38.37-6.32,74.65-13.72,111.44-.58,2.85-1.92,5.9-1.43,8.58,5.11,26.89-.14,53.89,1.18,80.76,1.09,21.73-2.61,27.14-23.69,25.89-8.21-.46-19.18-1.3-23.67-6.48-7.17-8.31,4.21-15.13,7.73-22.68,10.53-22.61,11.89-46.67,9.09-70.97-3.47-29.9-8.65-59.65-11.06-89.6-1.34-16.92,2.08-34.13,2.18-51.21.19-26.63-.67-53.24-1.02-79.88-.46-37.16-2.94-74.44-.56-111.42.81-12.73,3.49-25.31,6.5-37.88,1.53-6.48,3.12-12.96,4.6-19.44,1.53-6.66,2.92-13.35,3.91-20.06,3.68-24.62,4.58-49.66,4.51-74.86-1.34,8.49-3.1,16.8-5.23,24.97-9.19,35.47-24.97,68.29-40.08,101.33-.67,1.46-1.46,2.87-2.08,4.35-.21.46-.39.9-.58,1.34-4.26,9.05-11.87,20.39-19.16,30.87l-.14.19-.14.23-14.05,19.67c-1.23,2.55-6.34,9.05-7.34,10.25l-.16.23c-.56.56-1.27.9-1.85,1.13-1.34.49-2.66.32-4.93-.23-2.64-.62-10.07,2.29-11.52,2.27-.86-.02-1.69-.09-2.45-.19-8.31-1.13-8.35-6.11-4.44-14.65,3.26-7.15,7.15-14.02,10.76-21.01.09-.21.21-.39.3-.6,1.8-3.54,3.59-7.08,4.4-10.99.56-2.71.65-5.58-.05-8.75-.16-.88-.42-1.78-.72-2.71-.09-.23-.16-.49-.23-.72-.12.14-.23.3-.35.42-4.51,5.9-10.92,6.27-16.41,8.7-1.04.49-2.82.81-4.03.05-.58-.35-1.02-.95-1.18-1.87-.05-.16-.05-.37-.02-.6v-.02c.12-1.25,1.04-2.96,2.01-3.59,12.08-7.71,18.4-23.74,35.36-24.57,3.36-.16,5.69-1.2,7.57-2.94l.3-.3c.16-.14.3-.28.46-.44.02-.05.07-.09.12-.14,1.78-1.94,3.19-4.12,3.73-6.09,5.6-20.46,9.49-41.35,14.16-62.06,2.34-10.3,3.66-21.1,7.31-30.85.37-.99.76-1.97,1.2-2.94,13.54-30.87,17.1-62.68,12.61-95.73-.12-.86-.23-1.71-.3-2.55l-.02-.02c-3.15-28.09,6.27-42.18,33.78-52.11,8.21-2.94,16.34-6.36,24.25-10.16,2.64-1.27,5.11-2.78,7.34-4.47.07-.07.14-.14.21-.19,1.23-.93,2.36-1.92,3.45-3.01.16-.14.25-.21.25-.21.86-.86,1.67-1.74,2.45-2.64,8.35-9.88,11.36-23.23,8.21-35.98l-.02-.02c-1.41-5.67-4.05-11.2-7.98-16.27-5.95-7.66-9.65-21.33-3.59-28.23.99-1.16-.32-5.51-.56-8.4-1.32-15.67-.58-31.01,15.53-39.18,8.01-4.1,16.17-6.18,24.25-6.18s16.24,2.08,24.25,6.18c16.11,8.17,16.85,23.51,15.53,39.18-.23,2.89-1.55,7.24-.56,8.4,6.06,6.9,2.36,20.57-3.59,28.23-3.93,5.07-6.57,10.6-7.98,16.27l-.02.02c-3.15,12.75-.14,26.1,8.21,35.98.79.9,1.6,1.78,2.45,2.64,0,0,.09.07.25.21,1.09,1.09,2.22,2.08,3.45,3.01.07.05.14.12.21.19,2.22,1.69,4.7,3.19,7.34,4.47,7.91,3.79,16.04,7.22,24.25,10.16,27.51,9.93,36.93,24.02,33.78,52.11l-.02.02c-.07.83-.19,1.69-.3,2.55-4.49,33.04-.93,64.86,12.61,95.73.44.97.83,1.94,1.2,2.94,3.66,9.74,4.97,20.55,7.31,30.85,4.67,20.71,8.56,41.6,14.16,62.06.53,1.97,1.94,4.14,3.73,6.09.05.05.09.09.12.14.16.16.3.3.46.44l.3.3c1.87,1.74,4.21,2.78,7.57,2.94,16.96.83,23.28,16.87,35.36,24.57.97.62,1.9,2.34,2.01,3.59Z"/><path class="cls-7" d="m153.55,137.1c-.51.42-1.74,1.46-3.45,3.01"/><path class="cls-7" d="m156.26,134.26l-.02-.02"/><path class="cls-7" d="m113.7,202.96c0-.19,0-.35-.02-.53"/><path class="cls-7" d="m234.1,140.11c-1.71-1.55-2.94-2.59-3.45-3.01"/><path class="cls-7" d="m227.97,134.23l-.02.02"/><path class="cls-7" d="m270.52,202.43c-.02.19-.02.35-.02.53"/><path class="cls-7" d="m153.47,136.68c-.51.42-1.74,1.46-3.45,3.01"/><path class="cls-7" d="m156.17,133.84l-.02-.02"/><path class="cls-7" d="m113.62,202.54c0-.19,0-.35-.02-.53"/><path class="cls-7" d="m234.01,139.69c-1.71-1.55-2.94-2.59-3.45-3.01"/><line class="cls-7" x1="275.48" y1="409.52" x2="275.46" y2="409.52"/><path class="cls-7" d="m227.88,133.81l-.02.02"/><path class="cls-7" d="m270.44,202.01c-.02.19-.02.35-.02.53"/><path class="cls-6" d="m114.47,202.57c0-.19,0-.35-.02-.53"/><path class="cls-6" d="m271.28,202.04c-.02.19-.02.35-.02.53"/><path class="cls-2" d="m155.74,442.26c-.12,2.5-1.6,3.29-4.12,2.68-1.9-.49-3.77-1.06-5.69-1.46-3.17-.62-4.81.09-6.53,2.87-2.01,3.29-3.05,6.8-1.69,10.62,1.11,3.19.56,6.11-.37,9.33-1.04,3.7-1.34,7.73-1.32,11.62.05,15.36.53,30.75.49,46.12-.02,25.66,2.15,51.09,6.69,76.34.67,3.75,1.6,7.45,2.43,11.2.86,3.63,2.24,7.01,4.6,10.02,3.82,4.95,4.1,10.37,1.64,16.06-1.23,2.82-2.34,5.65-5.6,7.34,2.06.21,3.45.32,5,.49.3,3.38,0,6.5-1.78,9.07-4.47,6.5-5.99,13.95-7.87,21.36-2.04,7.98-2.31,16.13-2.68,24.27-.58,13.21-.9,26.43-1.39,39.62-.46,12.08-.93,24.16-1.55,36.21-.53,10,.99,19.74,2.94,29.48.86,4.23,1.62,8.52,2.11,12.82.19,1.78-.19,3.7-.72,5.44-.95,3.12-2.27,3.38-4.63,1.23-.58-.53-1.18-1.04-1.78-1.57.49,2.15.95,4.17,1.32,6.22,0,.05.02.12.02.16,1.97-1.2,3.63-.32,4.4,2.36.39,1.43.6,3.01.58,4.51-.09,2.34-1.32,3.19-3.66,2.78-.74-.14-1.43-.53-2.2-.62-.99-.16-2.01-.12-3.03-.16,3.29.51,4.65,2.68,5.02,5.74.12,1.04.35,2.08-.93,2.73-.32.16-.42.95-.46,1.46-.14,1.69-.16,3.42-.35,5.11-.16,1.5.02,2.8,1.04,4,1.13,1.34,2.82,2.71.42,4.42.25,1.8-.86,2.59-2.61,2.94,1,2.01,1.16,3.75-.65,5.23-.44.37-.46,1.23-.76,1.83-.51,1.11-1.85,1.69-3.1,1.39-1.02-.25-1.43-.93-1.16-1.92.16-.65.46-1.23.69-1.78-2.01-2.78-1.97-3.05.83-4.65-.09-.67-.19-1.3-.25-1.92-.05-.35.07-.97-.07-1.04-2.04-.88-1.3-2.57-1.06-3.96.3-2.01-.16-3.77-1.09-5.51-2.01-3.82-.97-6.09,3.29-7.06.9-.21,1.8-.3,3.03-.49-2.57-1.76-4.37-.14-6.25.69-2.41-4.19-.65-7.08,4.4-7.22-1.23-.99-2.66-.74-4.07-.65-1.53.09-3.03.09-4.26-1.2-2.29,2.34-5.23.46-7.73,1.3.44-3.19,1.94-4.21,4.88-3.36.74.21,1.48.39,2.31.62,1.76-1.43,3.82-2.31,6.18-2.48.81-.07,1.6-.21,2.34-.46-.67-.53-1.27-1.11-1.94-1.64-1.97-.83-3.56-.14-5,1.23-.44.23-.88.51-1.37.74-1.34.67-2.2.12-2.55-1.23-.21-.88-.35-1.85-.19-2.73.35-1.92.9-3.79,1.41-5.88-2.41-.35-3.1-2.15-2.78-4.42.28-1.83.56-3.75,1.39-5.35,3.12-6.16,3.47-12.7,2.98-19.34-.51-7.31-1.46-14.58-1.92-21.89-.56-8.65-.83-17.33-1.23-25.99-.46-9.9-1.16-19.81-1.32-29.69-.09-6.39.51-12.8.88-19.18.53-9.07,1.3-18.12,1.67-27.21.12-2.71-.53-5.51-1.18-8.19-1.37-5.72-2.99-11.36-4.49-17.05-.14-.56-.16-1.18-.28-2.15,1.37-.16,2.59-.3,3.84-.46l6.71,1.23c1.25.32,2.59.42,3.26-.21,1.04-.97.25-2.34-.28-3.45-.49-1-1.13-1.94-1.67-2.94-.79-1.43-1.67-2.87-2.27-4.37-.81-2.04-1.23-4.14-.44-6.34,2.29-6.46,11.01-8.72,16.11-4.07.81.72,1.39,1.78,1.78,2.8,1.69,4.12.51,7.84-1.55,11.5-.76,1.39-1.39,3.01-1.57,4.58-.3,2.75.76,4.1,3.47,4.3-.76-.53-1.39-.95-1.87-1.43-1.67-1.76-1.64-2.96,0-4.79.83-.93,1.71-1.8,2.55-2.71,1.94-2.11,2.78-4.63,2.27-7.43-1.41-7.34-5.48-10.55-12.43-10.97-6.66-.42-12.06,6.87-10.07,12.38.97,2.59,1.99,5.18,3.01,7.77.39,1.02.83,1.99,1.32,3.1-.99.44-1.67.76-2.34,1.09l-6.57-1.8c-5.67-6.55-5.44-17.15.88-23.26,4.21-4.1,6.25-8.79,5.97-14.65-.6-14.53-1.13-29.06-1.71-43.6-.51-12.17-1.11-24.32-1.53-36.49-.42-12.5-.67-24.97-.99-37.44-.09-4.03-.05-8.05-.32-12.08-.16-2.43-.58-4.88-1.23-7.24-.67-2.48-1.8-4.84-2.57-7.29-1.85-5.95-2.24-11.99-.44-18,1.34-4.49,3.91-7.96,8.84-9,4.21-.88,5.99-.16,8.33,3.38,3.84-.19,6.34-2.61,6.46-6.27.12-4.19,1.83-5.53,5.95-4.67,2.92.58,5.04,2.29,6.64,4.67,2.85,4.26,3.38,9.07,3.12,13.98Z"/><path class="cls-2" d="m247.75,372.2c-6.94-4.44-14.65-5.02-22.42-3.05-5.76,1.46-8.52,6.83-7.31,12.8.09.46.12.95.19,1.41.14.39.28.79.44,1.18.42,1.06.99,2.08,1.23,3.19.99,4.77,1.83,9.58,2.82,14.37,1.41,6.55-.16,12.36-4.17,17.59-1.04,1.37-2.06,2.8-3.33,3.93-4.07,3.63-8.28,7.13-12.43,10.67-1.9,1.62-3.86,3.15-5.62,4.91-.9.93-1.64,1.8-3.08,1.71-1.99-.09-4.03.16-5.71-1.27-3.47-2.89-6.87-5.81-10.41-8.58-4.91-3.89-9.51-8.08-12.87-13.42-2.25-3.59-3.7-7.52-3.1-11.73,1.11-7.59,2.11-15.23,4.72-22.45,2.48-6.92-1.71-13.51-8.21-14.69-6.25-1.11-12.45-.81-18.3,1.87-6.78,3.08-10.16,8.47-10.23,15.92-.05,3.12.53,6.16,1.74,8.98,1.78,4.23,3.84,8.35,5.67,12.56,1.87,4.28,4.86,7.57,8.7,10.11,1.18.79,2.43,1.53,3.68,2.22,4.3,2.48,6.71,6.18,7.13,11.15.09,1.23.3,2.48.25,3.73-.16,6.78.95,13.4,3.01,19.81.97,2.96,2.27,5.95,3.98,8.54,3.08,4.63,8.21,5.78,13.19,3.26,1.6-.81,3.19-1.87,4.35-3.22,1.97-2.31,3.61-4.93,5.32-7.45.58-.86.99-1.83,1.46-2.71h8.19c1.11,1.94,2.11,3.91,3.29,5.76,1.85,2.96,4.1,5.58,7.2,7.31,5.25,2.92,10.74,1.71,14.16-3.24,1.02-1.48,2.01-3.1,2.52-4.81,1.34-4.58,2.71-9.21,3.49-13.91.74-4.51.76-9.16,1.16-13.74.32-3.84,2.08-6.94,5.25-9.16,1.64-1.16,3.31-2.29,5.02-3.36,3.8-2.43,6.8-5.53,8.72-9.67,1.18-2.52,2.59-4.95,3.66-7.5,1.34-3.29,2.71-6.59,3.54-10,1.9-7.84-.74-15.06-6.87-19.02Zm-73.05,84.64c-1.57.83-2.89.83-3.75-.69-2.27-3.93-4.26-8.05-6.29-12.13-.25-.49-.16-1.13-.21-1.46.02-3.54,1.6-5.02,4.88-4.54,4.33.6,8.08,2.13,9.83,6.69,1.6,4.19-.49,10.04-4.47,12.13Zm45.01-10.88c-1.3,3.05-3.01,5.97-4.58,8.93-.21.42-.51.81-.81,1.18-1.25,1.43-2.38,1.62-4.05.67-2.71-1.48-5.09-5.74-5.04-8.91.14-3.54,3.05-8.17,6.66-8.84,1.69-.3,3.36-.9,5.04-1.02,2.08-.12,3.38.9,3.52,2.99.09,1.64-.09,3.49-.74,5Z"/><path class="cls-2" d="m264.21,273.81c-.35-4.03-1.57-7.82-2.43-11.71-.83-3.86-.76-7.94-1.09-11.92-.02-.28-.18-.53-.16-.81.05-.79.05-1.6.25-2.36,1.27-5.53.86-10.85-1.97-15.8-.51-.95-.83-1.74-.35-2.78.72-1.5.51-3.05-.16-4.49-.81-1.8-1.71-3.59-2.66-5.32-.79-1.5-1.67-2.96-2.31-4.05,1.46-5.07.86-9.21-1.39-12.68-.9-1.39-2.06-2.66-3.47-3.84.21-1.62.49-2.78.49-3.93-.02-4.6-2.11-8.24-5.44-11.04-1.97-1.64-3.19-3.59-4.4-5.85-2.45-4.58-5.83-8.05-11.55-7.68-.02-.72-.12-1.43-.09-2.15.16-2.73-1.02-4.74-2.99-6.34-.02-.02-.05-.05-.07-.05-.79-.67-1.62-1.3-2.5-1.83-5.69-3.47-11.78-5.81-18.28-6.99-.67-.12-1.27-.19-1.9-.19h-.02c-.14,0-.3,0-.44.02,1.83-1.53,2.06-2.87,1.9-6.22-1.25.32-2.38.74-3.52.88-.65.07-1.53.3-1.69-1.55-.07-.62.62-1.62,1.09-2.68-.25-3.08-.95-6.48-.35-9.14,1.53-1.5,2.78-2.48,3.89-3.89.76-.95,1.06-2.61.32-4.6-1.5.46-3.01.95-4.49,1.41-.9-4.03-.9-4.1.39-6.06-.02-.56-.05-1.11-.07-1.67,3.63-.32,6.76-1.74,9.02-4.93,2.11-2.94,4.19-5.92,6.27-8.89.79-1.13,1.04-2.41,1.02-3.77-.07-1.92-.07-3.84-.12-5.78-.05-2.98.18-5.92,1.43-8.7.16-.35,0-.86-.02-1.27-.46.02-1.02-.07-1.41.14-1.2.62-1.99,1.67-2.22,3.01-.35,2.24-.6,4.49-.97,6.73-.46,2.82-1.37,5.46-3.45,7.52-.21.23-.49.42-.97.79.12-.56.18-.83.21-1.09,0-.69.09-1.41-.05-2.08-.09-.37-.49-.9-.83-.97-.35-.09-.81.25-1.2.49-.21.12-.28.44-.49.56-.21.14-.58.3-.72.21-1.11-.79-1.94-.07-2.82.46-.3.19-.67.23-1.02.3-.6.09-1.2.14-1.8.25-.39.07-.76.25-1.18.3-.67.05-1.39-.09-1.85.65-.07.12-.39.14-.58.14-1.67-.07-3.31-.21-4.95-.19-.81,0-1.62.39-2.2-.49-.07-.09-.3-.09-.44-.12-.81-.21-1.62-.39-2.43-.58-.3-.07-.67-.21-.9-.09-.69.3-1.16.02-1.74-.35-.58-.32-1.43-.72-1.94-.51-.76.3-1.11.25-1.57-.37-.35-.46-.86-1.06-1.48-.65-.42.28-.74.93-.81,1.46-.09.76.05,1.6.09,2.57-.32-.25-.56-.42-.76-.6-2.17-2.04-3.01-4.7-3.52-7.5-.37-2.01-.49-4.07-.79-6.09-.25-1.67-.95-3.1-2.55-3.86-.37-.16-.95-.16-1.27.05-.19.12-.16.79-.05,1.16.3,1.16.81,2.27,1.04,3.42.76,3.42.42,6.92.3,10.37-.07,2.11.49,3.86,1.76,5.55,1.74,2.31,3.38,4.7,5,7.13,1.99,2.99,4.65,4.95,8.26,5.39.44.05.9.09,1.34.12-.09,1.09.14,1.94.74,2.43.32.25.62.56.88.81.12,4.17-.02,4.49-1.67,4.12-1.18-.25-2.36-.51-3.8-.81.16,6.29,1.74,7.87,3.22,9.63.56,2.36,1.13,2.71.79,4.93-.46,2.75-.42,2.96.86,4.19.53.49.74.97.49,2.48-1.32-.37-2.61-.69-3.91-1.09-.51-.16-1.04-.88-1.34.6-.28,1.34-.07,2.59.44,3.36.72,1.04,1.46,2.01,2.24,2.71.09.09.19.16.28.25h-.46c-.6,0-1.2.09-1.8.25-3.63.95-7.34,1.74-10.78,3.17-3.38,1.39-6.55,3.36-9.67,5.32-.25.19-.53.37-.79.56-1.78,1.43-2.78,3.49-2.64,6.09.05.76-.16,1.55-.21,2.06-1.62.16-3.17-.12-4.23.51-3.33,2.01-6.48,4.37-7.89,8.4-.53,1.6-1.53,2.73-2.8,3.82-4.7,4.05-7.66,8.93-5.74,15.92-.86.83-1.85,1.62-2.64,2.57-.51.56-.93,1.11-1.25,1.71-1.97,3.08-2.41,6.62-1.57,10.27.37,1.55.21,2.5-.46,3.68-1.27,2.2-2.52,4.4-3.66,6.64-.9,1.83-1.3,3.73-.49,5.78.21.62,0,1.62-.35,2.24-2.89,5.16-3.33,10.6-1.87,16.31.16.67.14,1.41.09,2.11-.23,3.45-.49,6.9-.76,10.34-.05.72.02,1.5-.23,2.13-1.48,3.45-2.04,7.13-2.62,10.83-.44,2.96-.37,5.9.62,8.63,1.23,3.31,1.41,6.71,1.69,10.16.21,3.1.62,6.22,2.15,8.93.88,1.57,1.23,3.17,1.41,4.91.42,3.66,1.39,7.15,3.22,10.32,2.43,4.12,6.2,5.44,10.32,3.24,2.22-1.18,4.23-2.87,5.99-4.72,2.15-2.24,3.89-4.91,5.81-7.38.88-1.11,1.78-2.22,2.71-3.31,1.02-1.2,2.31-2.24,3.1-3.59,5.41-9.37,10.16-19.09,14.32-29.16,1.23-2.98,2.68-5.92,4.47-8.58,1.71-2.52,3.68-4.86,5.65-7.22.16-.21.32-.39.49-.58.23,2.08-.12,4-.62,5.97-.42,1.57-.18,2.82.93,3.42.44.25.86.58,1.25.83.16,4.33-.05,4.65-2.41,4.28-1.67-.28-3.36-.53-5.41-.83.23,6.5,2.48,8.12,4.58,9.95.81,2.45,1.64,2.8,1.13,5.09-.65,2.85-.58,3.05,1.25,4.33.74.53,1.04,1.02.67,2.57-1.87-.37-3.75-.69-5.6-1.11-.72-.16-1.48-.9-1.92.62-.39,1.39-.07,2.66.65,3.45,1.02,1.09,2.08,2.08,3.22,2.8,1.78,1.16,2.2,1.92,1.97,4.81-.09,1.27-.39,2.52-.69,3.73-.42,1.69-.07,2.78.95,3.4.55.35,1.41.23,1.18,1.99-2.36,1.48-4.74-.99-7.36-.23.16,6.69,3.82,6.11,6.5,8.15-.16,1.64-.25,3.42-.56,5.11-.58,3.22-.62,3.17,1.25,4.67.35.25.56.9,1.23,2.04-3.12-.56-5.69-1.02-8.1-1.43-.67,2.18-.28,3.59.6,4.54.88.97,1.8,2.15,2.8,2.36,2.08.46,2.48,2.8,2.61,5.25.12,1.74-.23,3.59-.53,5.32-.53,2.92-.58,3.22,1.25,4.37,1.32.86,1.32,1.97.88,3.59-3.42-.65-6.73-1.27-10.07-1.9-.81-.16-1.74-.62-2.15.99-.42,1.71.39,2.85,1.18,3.4,1.64,1.16,3.36,1.99,5.07,2.87.65.35,1.34.49,2.11.74-.72,4.74-1.02,9.05.07,13.42,1.09,4.47,3.56,6.83,5.83,9.35-1.23.99-2.55,1.41-3.12,2.71-.79,1.71-1.46,3.61-2.04,5.55-.62-.51-1.27-1.04-1.92-1.62-.65-.56-1.16-1.27-1.78-1.87-1.39-1.32-2.71-2.73-4.19-3.91-.95-.79-2.08-1.39-3.24-1.83-1.5-.56-2.61-.07-3.36,1.37-.37.74-.74,1.62-.76,2.43-.05,3.45-.28,6.92.12,10.32.39,3.49,1.74,6.69,5.14,8.52,1.23.65,1.62,1.85,1.71,3.15.09,1.34.02,2.71.3,4,.3,1.37.76,2.75,1.46,3.98,1.23,2.15,2.59,4.23,4.05,6.25.69.95,1.64,1.87,2.68,2.36,1.36.62,2.2,1.55,2.64,2.87,1.04,3.15,2.04,6.32,3.01,9.51.51,1.62,2.82,3.75,4.3,3.79,1.64.07,4.4-1.92,4.88-3.47.95-3.1,1.85-6.2,2.99-9.23.39-1.09,1.18-2.48,2.13-2.82,2.01-.76,3.03-2.22,4.03-3.89.97-1.64,2.01-3.24,3.12-4.81,1.06-1.53,1.69-3.19,1.69-5.09,0-.86.05-1.71.09-2.59.07-1.83.67-3.31,2.45-4.21,1.69-.88,2.82-2.41,3.33-4.17.69-2.36,1.27-4.81,1.48-7.27.23-2.57,0-5.16-.02-7.75-.16-.39-.3-.79-.44-1.18-2.11-2.36-3.26-2.57-5.88-.9-1.06.67-2.04,1.46-2.94,2.29-1.25,1.18-2.38,2.5-3.61,3.73l-.39.39c-.19-.58-.32-1.16-.49-1.76-.67-2.57-1.87-3.86-3.59-4.07-.35-.05-.69-.25-1.6-.58,6.39-5.25,8.08-13.05,6.27-23.12.83-.28,1.48-.37,2.08-.69,1.48-.79,2.96-1.57,4.35-2.61.81-.58,1.64-1.62,1.34-3.31-.32-1.94-1.39-1.39-2.27-1.2-.9.19-1.78.37-2.68.51-2.27.39-4.54.74-6.71,1.11-1.2-2.96.83-3.1,1.36-4.51-.69-4.35-1.27-8.68-.05-12.89,4.63-2.41,5.55-3.89,4.77-7.73-2.34-.23-4.67,1.64-7.5.56.83-1.02,1.37-1.64,1.85-2.24q-.72-6.41-.28-8.68c1.92-1.34,3.68-2.36,5.3-3.79,1.09-.95,1.53-2.61.67-4.72-2.52-.02-4.97,1.87-7.87.25.76-1.09,1.3-1.85,1.71-2.45-.19-3.1-.37-6.04-.53-8.89,6.46-2.82,7.15-3.66,6.85-8.42-1.78.35-3.4.76-5.02.9-.93.07-2.17.3-2.43-1.6-.09-.67.9-1.69,1.55-2.78-.37-3.19-1.32-6.71-.46-9.46,2.17-1.55,3.93-2.57,5.55-4.03,1.11-.99,1.5-2.68.46-4.77-2.15.49-4.33.99-6.43,1.46-1.3-4.14-1.27-4.23.55-6.27-.14-3.05-.46-6.02-.35-8.96v-.39h.02c.14.14.25.28.39.44l.07.07.05.05c4.28,5.14,8.26,10.44,10.74,16.92,3.68,9.65,8.42,18.79,13.47,27.74.74,1.34,1.62,2.59,2.59,3.75,1.23,1.5,2.71,2.8,3.91,4.33,1.87,2.27,3.47,4.84,5.46,6.94,1.85,1.9,3.93,3.68,6.2,4.91,4.12,2.24,8.03.97,10.27-3.24,1.3-2.43,2.24-5.16,2.82-7.87.69-3.1,1.41-6.09,2.5-9.07,1.09-3.01,1.16-6.41,1.71-9.63.37-2.13.62-4.28,1.2-6.36.81-2.92,1.25-5.83.97-8.89Zm-8.21-39.85c3.1,4.33,2.96,7.08-.62,10.34-5.37,4.88-11.32,8.84-18,11.32-5.44,1.99-10.9,1.43-15.76-1.94-5.35-3.7-10.53-7.73-15.76-11.66-.81-.62-1.57-1.46-2.06-2.38-.62-1.25.12-2.27,1.46-1.9.97.28,1.87.9,2.78,1.41,2.92,1.64,5.71,3.49,8.72,4.91,5.95,2.85,12.08,3.33,18.16.42,6.15-2.94,12.29-6.02,18.4-9.02.86-.44,1.69-.95,2.68-1.48Zm-4.47-13.86c.35.53.65,1.09.88,1.67.97,2.38.69,3.63-1.32,5.23-3.84,3.03-8.01,5.48-12.52,7.27-4.35,1.71-8.86,2.66-14.09,2.8-5.3-.62-11.11-1.67-16.66-3.98-1.83-.76-3.31-1.99-4.42-3.73-1.62-2.55-.62-4.98,2.34-5.28,1.69-.16,3.45.09,5.16.32,2.43.32,4.79.93,7.22,1.23.07,0,.12.02.19.02.49.05,1.02.09,1.5.14.69.05,1.37.09,2.06.09h.53c3.75.05,7.47-.51,11.11-1.97,1.23-.49,2.45-.97,3.68-1.43,3.52-1.32,7.08-2.55,10.6-3.82,2.34-.86,2.45-.79,3.75,1.43Zm-118.01,1.78c.09-.25.23-.51.35-.74,1.6-3.33,1.76-3.4,5.18-2.15,2.96,1.09,5.92,2.13,8.89,3.22h.02c2.2.79,4.42,1.6,6.62,2.41,2.96,1.11,5.95,1.37,8.95,1.27.65,0,1.32-.05,1.99-.09.51-.02,1.02-.07,1.55-.14.56-.05,1.11-.09,1.69-.16,2.27-.25,4.47-.9,6.69-1.2,1.64-.21,3.31-.39,4.93-.19,2.8.35,3.86,2.78,2.2,5.14-1.02,1.39-2.38,2.8-3.89,3.49-5.76,2.75-11.94,3.73-17.38,4.35-10.46-.46-18.93-4.21-26.54-10.2-1.87-1.48-2.13-2.71-1.25-5Zm-3.7,12.22c5.88,2.96,11.55,5.95,17.31,8.7,2.68,1.27,5.48,2.24,8.33,3.1,3.73,1.13,7.41.42,11.01-.74,4-1.32,7.64-3.47,11.18-5.81,1.02-.67,2.11-1.27,3.26-1.62,1.09-.32,1.71.46,1.34,1.6-.23.72-.69,1.5-1.3,1.94-5.92,4.47-11.66,9.21-17.91,13.17-4.54,2.89-9.83,2.96-14.88,1.02-6.41-2.48-12.13-6.29-17.33-10.92-3.77-3.38-3.98-6.02-1.02-10.44Zm10.13,80.27c-3.49.53-6.29-1.57-8.35-6.66,1.18.49,1.97.81,2.75,1.11,2.66.99,5.37,1.39,8.17.58,1.23-.37,2.52-.44,3.89-.65-.32,2.61-3.42,5.18-6.46,5.62Zm2.92-10.46c-7.77-.07-12.93-4.05-14.12-11.27,8.17,8.58,17.01,9.02,26.45,3.29-.86,4.72-6.02,8.05-12.33,7.98Zm26.19-30.98c-1.39,2.08-2.87,4.12-4.28,6.2-2.85,4.21-6.02,8.01-10.27,10.71-4.07,2.57-8.45,3.66-13.03,2.18-8.33-2.68-13.33-8.89-15.87-17.42-.62-2.13-.21-4.28.12-6.41.18-.05.37-.09.56-.16,1.3,1.6,2.52,3.24,3.86,4.77,1.76,2.01,3.54,4,5.44,5.88,3.63,3.59,8.03,4.67,12.82,3.68,5.58-1.13,10.44-3.79,14.74-7.75,2.06-1.9,4.44-3.45,6.92-5.35.3,1.67-.32,2.71-.99,3.68Zm15.06-24.81c-.09.12-.19.21-.3.32-.07.09-.16.16-.28.25-2.15,2.15-4.37,4.3-6.55,6.46-2.08,2.08-4.17,4.12-6.13,6.32-4.56,5.16-9.93,9.05-16.34,11.32-1.06.39-2.17.65-3.19,1.16-3.36,1.78-6.53,1.16-9.74-.49-6.32-3.19-11.18-7.68-12.63-15.25-.28-1.55-.28-3.17-.44-4.77.23-.07.44-.16.67-.23,3.68,3.7,7.98,6.41,12.45,8.84,2.22,1.2,4.58,2.2,6.94,3.05,3.26,1.16,6.57.67,9.7-.69,5.16-2.29,9.74-5.48,13.63-9.83,2.48-2.78,5.28-5.23,7.98-7.8.56-.56,1.27-.97,1.94-1.32.83-.44,1.57-.21,2.13.37.14.14.25.3.37.46.02.02.02.05.02.07-.12.6-.18,1.18-.23,1.76Zm-.37-37.09c-.32.51-.67.97-1.09,1.39-.07.09-.14.16-.23.25-.97.97-2.11,1.67-3.4,2.06-3.33,1.02-6.69,1.92-10.07,2.73-.53.12-1.09.23-1.6.3-1.13.19-2.24.3-3.38.32-4.6.14-9.07-1.06-13.35-3.03-2.89-1.3-5.65-3.01-8.33-4.77-.56-.37-1.09-.72-1.64-1.09-1.9-1.23-2.45-2.48-1.94-4.23.12-.49.32-.99.62-1.57.49-.93,1.16-1.78,1.78-2.78.86.3,1.62.53,2.34.76.09.05.16.07.25.09,4.26,1.55,8.61,2.96,12.8,4.67,3.4,1.41,6.87,1.85,10.32,1.74.23.02.44,0,.67,0,.49-.02.95-.07,1.41-.12,1.02-.07,2.01-.19,3.01-.35,1.97-.28,3.91-.81,5.9-1.09.09-.02.16-.02.25-.05.19-.02.39-.05.6-.07,1.09-.12,2.22-.16,3.29.05,2.41.53,3.12,2.57,1.78,4.77Zm-4.65-10.6c-3.52-.19-6.99-.16-10.48-.35v-.07c-4.6-.25-9.14-.93-13.56-2.85-2.66-1.18-5.28-2.5-7.77-4.05-2.31-1.48-2.85-3.52-1.94-5.74.53-1.3,1.43-2.22,2.59-2.59h.07c3.91.95,7.73,2.15,11.62,3.08,2.31.56,4.65,1.02,6.97,1.41,5.39.9,10.81,1.37,16.29,1.39.51.02,1.02.07,1.78.12.14,1.04.35,1.85.35,2.66.09,4.37-1.9,7.2-5.9,6.99Zm5.92-16.68c-.02.25-.07.56-.18.86-1.09-.07-2.15-.14-3.24-.19-.21-.02-.44-.05-.65-.05-1.74-.12-3.45-.23-5.16-.49-2.73-.39-5.46-1.09-8.19-1.55,0-.09,0,.09,0,0-2.61-.49-5.25-.97-7.87-1.43-1.46-.25-2.73-.9-3.12-2.66-.39-1.76.25-3.24,1.27-4.51.23-.3.49-.53.76-.69h.02c2.24,1.11,4.54,1.94,6.9,2.61,3.84,1.09,7.75,1.74,11.69,2.45,2.01.35,4,1.27,5.83,2.24,1.18.62,2.11,1.64,1.94,3.31v.09Zm-3.42-18.79c.07,4.21,1.18,5.44,2.48,6.32-.05.09-.07.16-.12.25-.16.39-.37.79-.56,1.16-1.11,1.99-2.96,3.24-5.21,2.92-3.17-.44-6.29-1.13-9.44-1.9-.58-.16-1.2-1.02-1.43-1.69-1.34-4.14-.44-7.91,2.22-11.18,1.41-1.71,3.42-2.01,5.48-1.92,2.73.19,5.35.74,7.64,2.38,1.55,1.11,2.55,2.55,2.73,4.3-1.23-.07-2.48-1.18-3.79-.65Zm23.46-4.7c2.36-1.04,4.86-1.53,7.41-1.3,2.13.19,3.79,1.18,4.91,3.15,1.25,2.18,1.92,4.47,1.76,6.85,0,.02-.02.05,0,.07-.05.72-.14,1.43-.35,2.15-.02.02-.02.05-.02.07-.05.19-.09.35-.16.53-.21.69-.76,1.6-1.34,1.78-2.89.9-5.85,1.6-8.79,2.36-3.26-.05-5.37-1.6-6.64-4.58-.09-.19-.16-.37-.23-.56-.05-.12-.09-.21-.12-.32.39-.39.76-.79,1.13-1.23.74-.93,1.06-2.55.46-4.56-.79-.02-1.55.32-2.34.58.39-2.2,1.83-3.89,4.33-5Zm-4.14,23.12c-.09-1.48.74-2.5,1.94-3.12,1.76-.93,3.68-1.67,5.58-2.13,2.36-.6,4.86-.62,7.2-1.27,1.41-.39,2.78-.81,4.14-1.27,2.27-.74,4.51-1.53,6.76-2.34.25-.09.49-.19.72-.23h.02c.86.35,1.5,1.2,1.99,2.71.79,2.31.02,4.21-2.06,5.02-.46.19-.95.28-1.43.37-2.66.46-5.35.93-8.01,1.39,0,.07.02-.07,0,0-2.55.39-5.09,1.02-7.61,1.41-2.13.3-4.26.44-6.39.56-.19.02-.39.02-.58.05-.12,0-.21.02-.32.02-.58.05-1.18-.07-1.76-.09-.09-.32-.14-.62-.18-.93v-.14Zm.18,7.61c5.14-.42,9.74-.72,14.32-1.18,1.09-.12,2.2-.25,3.31-.44,5.51-.81,10.92-2.24,16.29-3.79.95-.28,1.9-.58,2.85-.76h.02c1.34.37,2.41,1.43,2.89,2.92.6,1.92.14,3.61-1.55,5-.99.81-2.06,1.53-3.17,2.11-6.11,3.19-12.52,5.04-19.3,5.18v.05c-2.2.05-4.4.25-6.62.37-1.3.05-2.62.19-3.89,0-3.17-.42-4.65-1.9-5.14-5.21-.21-1.39-.02-2.85-.02-4.23Zm3.08,15.25c.86-.14,1.76-.12,2.64-.02.28.02.55.05.83.09.23.02.44.05.65.07,2.73.35,5.44.81,8.17,1.16.44.05.9.12,1.34.16.44.07.93.12,1.36.16.32.02.6.07.93.09h.21c2.38.09,4.77-.28,7.08-1.11,4.81-1.76,9.7-3.52,14.53-5.25.21-.07.39-.14.6-.21.69-.25,1.43-.46,2.22-.74.44.53.69.79.88,1.06.67,1.02,1.16,1.87,1.43,2.64v.02c.9,2.27.02,3.66-2.94,5.78-.58.42-1.18.81-1.76,1.2-4.97,3.29-10.32,5.65-16.22,6.34-1.48.16-3.01.25-4.54.21h-.09c-1.16-.02-2.29-.14-3.4-.32-.05,0-.12-.02-.16-.05-3.7-.62-7.34-1.74-10.94-2.75-1.37-.39-2.57-1.16-3.54-2.2-.09-.09-.16-.16-.23-.25-.37-.39-.67-.79-.95-1.25-1.46-2.27-.69-4.37,1.9-4.84Zm.35,44.59c-.58-.58-1.18-1.16-1.74-1.76-.21-.19-.42-.39-.6-.58,0-.62-.07-1.25-.19-1.9-.02-.21-.07-.44-.12-.65.14-.16.3-.3.46-.39.51-.39,1.16-.46,1.83-.07.9.53,1.8,1.11,2.57,1.85,2.87,2.75,5.69,5.6,8.52,8.42,4.6,4.58,9.7,8.28,16.06,9.6,2.45.51,4.81.35,7.15-.58,5.78-2.22,10.97-5.44,15.8-9.39.88-.74,1.76-1.43,3.15-2.57-.05,7.38-2.27,13.07-7.54,17.12-2.11,1.62-4.44,2.82-6.78,4.07-2.45,1.3-4.98,1.41-7.57.3-1.99-.86-4.1-1.41-6.13-2.27-5.16-2.15-9.49-5.65-13.44-9.65-3.84-3.84-7.61-7.71-11.43-11.57Zm42.42,63.61c-3.15-.05-6.69-2.55-7.45-5.51,1.06.07,2.13-.12,3.01.21,3.68,1.27,7.17.67,10.6-.93.28-.14.58-.21,1.02-.35-1.2,4.1-4.05,6.64-7.17,6.57Zm9.88-19.58c-.56,1.13-1.13,2.24-1.78,3.33-1.74,2.98-4.3,4.63-7.59,5.23-2.94.56-5.83.69-8.77,0-3.66-.86-6.57-3.47-8.26-7.71,9.67,5.9,18.47,5.53,26.75-2.43-.12.53-.14,1.09-.35,1.57Zm3.24-19.25c-2.24,6.69-6.13,11.94-12.38,15.16-5,2.57-9.9,2.38-14.81-.12-3.56-1.85-6.5-4.58-8.95-7.82-2.57-3.42-5.02-6.99-7.43-10.55-.51-.74-.69-1.74-1.04-2.64.16-.12.35-.23.49-.37,2.55,1.99,5.14,3.93,7.61,5.99,5.02,4.14,10.48,7.15,17.03,7.36,3.66.14,6.94-1.06,9.53-3.73,2.73-2.8,5.25-5.81,7.84-8.75.62-.72,1.2-1.46,2.11-2.57.62,3.08.83,5.6,0,8.03Z"/><path class="cls-2" d="m125.36,839.7c-.26,1.02-.62,2.1-.81,3.21-.37,2.16-.81,4.33-.89,6.5-.05,1.5.02,2.87-.95,3.43.2,1.18.7,2.18.39,2.75-.72,1.33-.5,2.55-.34,3.89.11.86-.11,1.76-.19,2.75-1.44-.19-2.5-.32-4.07-.53,1.11.92,1.94,1.34,2.36,2.02.55.9-.59,1.45-.81,2.12-.94,2.98-1.58,6.05-2.28,9.1-.35,1.52-1.12,2.38-2.98,2.09.17-2.05-.31-3.99.51-6.1.68-1.74.39-3.86.52-5.81.02-.36-.18-.99-.05-1.06,2.02-1.1,1.13-3.58,2.46-5.06.61-.68.59-1.93.83-2.92.29-1.18,1.14-2.71.69-3.49-.8-1.4-.13-2.35.12-3.5.56-2.61,1.17-5.22,1.53-7.86.4-2.93,1.23-3.37,3.98-1.53Z"/><path class="cls-2" d="m107.39,861.83c1.35,1.06,3.03.81,4.56,1.15.68.15,1.61.42,1.89.93.47.84-.58,1.13-1.05,1.68-.89,1.04-1.56,2.31-2.18,3.55-.64,1.3-1.12,2.68-1.94,3.94-.87-1.52-1.06-2.88-.06-4.38.82-1.24,1.68-2.58,1.18-4.41-1.4,0-2.29.57-2.78,1.86-.57,1.5-1.17,2.98-1.8,4.46-.13.31-.44.55-.87,1.06-.61-1.52-.74-2.75.02-3.91,1.08-1.65,1.73-3.38,1.15-5.47.77-.16,1.38-.29,2-.42,0,0-.12-.05-.12-.05Z"/><path class="cls-2" d="m103.51,861.28c.21-.61.31-1.3.65-1.83,1.39-2.15,2.83-4.27,4.31-6.35.3-.42.87-.65,1.43-1.05.39.52.69.94,1.06,1.44.44-.38.85-.74,1.27-1.1,0,0-.08-.04-.08-.04,1.45.93,1.11,2.01.19,3.07-1.31,1.51-2.49,3.05-2.76,5.14-.15,1.21-1.22,1.26-2.2,1.28,0,0,.12.05.12.05-.27-.57-.53-1.14-.66-1.43-1.24.28-2.34.53-3.45.78l.1.03Z"/><path class="cls-2" d="m114.75,849.8c.43-1.1,1.04-2.18,1.26-3.32.38-1.96.53-3.97.8-6.11.99-.31,1.95-.62,3.32-1.05-.25,1.07-.47,1.83-.61,2.62-.45,2.54-.88,5.09-1.31,7.64-.13.75-.14,1.56-.43,2.24-.19.44-.79.94-1.23.96-.44.02-1.1-.43-1.3-.85-.31-.67-.32-1.48-.45-2.23l-.04.1Z"/><path class="cls-2" d="m114.8,849.7c-.18.52-.38,1.03-.53,1.56-.32,1.12-1.03,1.46-2.11,1.1,0,0,.08.04.07.04.15-1.65.3-3.3.45-4.95-.1-.02-.2-.03-.3-.05-.48,1.06-.96,2.13-1.43,3.19-.77-2.25.41-4.05.83-6.19,1.18-.22,2.35-.43,3.54-.65-.21,2.19-.39,4.12-.57,6.06,0,0,.05-.11.05-.11Z"/><path class="cls-2" d="m113.34,862.21c-1.39-.18-1.97-.78-1.55-1.78.82-2,1.72-3.99,2.77-5.88.24-.43,1.22-.44,2.21-.75-.5,3.37-2.02,5.82-3.42,8.42Z"/><path class="cls-2" d="m115.21,838.1c.69.19,1.37.38,2.09.59-.95,1.47-1.84,2.85-2.8,4.35-1.3.18-1.65-.78-1.87-1.84-.21-.99.35-1.59,1.14-2.07.52-.31,1.01-.68,1.51-1.03-.01,0-.07,0-.07,0Z"/><path class="cls-2" d="m103.4,861.24c.45.3.9.6,1.27.85-1.1,1.97-2.1,3.77-3.1,5.57-.15-.04-.29-.08-.44-.11,0-.52-.11-1.07.02-1.56.35-1.35.74-2.7,1.24-3.99.13-.33.74-.48,1.12-.71-.01,0-.11-.04-.11-.04Z"/><path class="cls-2" d="m176.16,150.15c-1.55,1.02-3.42,1.83-5.25,2.13-3.38.56-6.85.97-10.27.93-7.15-.09-14.09,1.3-21.03,2.71-2.82.58-5.62,1.2-8.45,1.71-3.82.69-7.36,2.06-10.64,4.21-.46-.6-.79-1.02-1.3-1.67-.35,1.23-.62,2.29-.95,3.52,2.48,1.27,5.09,1.16,7.61,1.37,0,0-.23,2.41-1.87,2.92-.16.05-.35.07-.51.09-.62.12-1.25.21-1.87.16-1.23-.09-2.43-.51-3.61-.88-3.1-.95-6.04-.72-8.89.88-.83.46-1.76.9-2.66.97-.74.05-1.85-.28-2.2-.81-.35-.56-.16-1.71.21-2.36.51-.88,1.34-1.62,2.17-2.24,2.13-1.64,4.33-3.15,6.48-4.74,1.34-.99,2.82-1.11,4.65-.67-.16-.56-.25-.95-.39-1.39.19-.16.37-.39.62-.49,9.72-3.68,19.6-6.53,30.1-6.9,4.7-.16,9.35-.76,14.05-1,4.74-.23,8.65-2.13,12.01-5.39,1.13-1.09,2.38-2.06,3.63-3.1,1.99,3.36,1.2,8.19-1.64,10.04Z"/><path class="cls-2" d="m99.62,319.89c-2.41-.14-3.94-1.76-5.56-3.27-1.09-1.02-2.22-1.99-3.38-3.02-.79.7-1.29,1.13-1.79,1.56-2.5,2.18-5.15,2.35-7.87.46-2.2-1.54-3.61-3.68-4.49-6.18-.63-1.8-.17-3.44,1.21-4.72,1.33-1.24,2.71-2.44,4.17-3.52,3.7-2.73,6.18-6.3,7.2-10.76,1.41-6.16,2.66-12.35,3.93-18.54,2.21-10.82,3.14-21.8,4.07-32.78.97-11.46,1.87-22.92,2.56-34.4.3-5.05-.13-10.15.05-15.22.17-4.97.58-9.93,1.12-14.87.25-2.27,1.57-3.18,4.04-3.23,1.33-.02,2.24-.35,3.24-1.32,2.4-2.33,5.38-2.77,8.54-1.75,6.86,2.22,10.12,8.19,8.25,15.18-.92,3.44-2.61,6.26-6.03,7.95-3.04,1.51-5.09,4.06-5.65,7.53-1.38,8.51-2.93,16.99-4.01,25.54-1.67,13.31-3.1,26.65-4.46,39.99-.96,9.44-1.55,18.91-2.43,28.36-.41,4.4.62,8.34,2.95,12.03,1.02,1.61,1.92,3.32,2.72,5.05.8,1.74.77,3.51-.36,5.29-.4-.06-.77-.06-1.11-.17-2.1-.68-2.26-.6-3.61,1.06-1.08,1.32-2.27,2.54-3.41,3.81l.09-.06Z"/><g class="cls-5"><path class="cls-1" d="m47.41,416.12c-.12.25-.23.49-.32.74.02-.12.05-.23.05-.37,0-.12.12-.25.28-.37Z"/><path class="cls-1" d="m46.53,430.7s-.05.01-.06,0h0s.03.01.03.02c.02,0,.02-.02.03-.03Z"/><path class="cls-1" d="m46.5,430.72s.03,0,.04.01l.04-.06s-.03,0-.06.03c-.03,0-.05.01-.06,0h0s.03.01.03.02Z"/><path class="cls-1" d="m33.19,451.75c-.67,3.28-2.55,5.92-4.53,8.51-.73.95-1.37,1.87-1.04,3.23-.31.08-.61.18-.91.24-.33.07-.66.11-1.12.19-.28,1.71-.25,3.43-.9,4.91-.6,1.41-1.9,2.54-3.14,4.1.82.54,1.5,1.08,2.25,1.46.82.41,1.51.03,1.9-.95.35-.89.55-1.84,1-2.67.68-1.22,1.36-2.57,2.33-3.48.98-.91.67-2.28,1.36-2.84.87-.69,1.56-1.25,1.78-2.38.54-2.69,2-4.87,3.87-6.88,1.07-1.14,2.45-2.25,1.98-4.26,2.12-.37,2.88-1.98,3.45-3.94,1.68-5.76,3.97-9.08,8.89-12.95-.13.85-.12,1.52-.34,2.14-1.15,3.35-2.7,6.51-4.98,9.32-.7.86-1.28,1.89-1.7,2.93-.54,1.4-.06,2.53.94,3.31,1.41,1.11,3.06.48,3.24-1.51.27-3.13,1.86-5.74,3.21-8.44.89-1.78,2.12-3.41,3.22-5.08.63-.96,1.48-1.92.9-3.04s-1.61-1.87-2.91-1.47c-1.02.32-1.46-.15-2.17-.52-.98-.52-2.14-.65-3.24-.94-.68.98-1.68,1.92-1.95,2.95-1.13,4.35-3.9,7.63-6.69,10.88-1.9,2.21-2.1,2.44-2.07,5.11-1.52-.36-2.34.55-2.64,2.07Z"/><path class="cls-1" d="m101.58,323.47c-.95-.05-1.9-.05-2.85-.05-1.71.58-2.89-.19-3.82-1.57-.86-1.32-2.04-1.67-3.49-1.37-.72.16-1.41.35-2.13.51-.51-1.11-.23-3.03-2.04-2.61-2.2.51-4.07-.16-6.11-.74-1.9-.53-2.66.28-2.36,2.27.07.49.19.95.39,1.39.81,1.94.9,3.98.25,5.92-1.27,3.91-2.36,7.91-4.21,11.57-7.24,14.25-12.43,29.23-16.43,44.66-1.71,6.57-3.82,13.05-6.04,19.46-1.6,4.49-3.56,8.82-5.35,13.21-.12.25-.23.49-.32.74-.05.44-.21.83-.44,1.2,0,0,0,.02-.02.05-.49.83-1.25,1.53-1.67,2.43-.62,1.34-1.32,2.57-.35,4.35-.86-.25-1.25-.44-1.67-.51-1.39-.23-2.22.09-2.64,1.64-.88,3.24-2.87,5.83-4.33,8.72-1.37,2.75-3.17,4.95-5.48,6.8-2.13,1.71-2.13,1.9-1.34,4.67-.69-.21-1.27-.37-2.2-.65-.46,1.09-1.13,2.13-1.34,3.24-.62,3.05-1.62,5.85-3.86,8.15-.39.42-.46,1.2-.62,1.8-.09.23,0,.72-.07.74-2.18.76-1.67,2.66-1.99,4.23-.16.72-.49,1.46-.9,2.08-1.67,2.57-2.64,5.37-3.31,8.28-.21.9-.28,1.78.79,1.85.88.05,1.6-.53,1.6-1.53-.02-1.27.72-1.97,1.34-2.94.79-1.25,1.83-2.57,1.83-4.33,0-.74.58-1.6,1.02-2.31.83-1.32,2.41-2.22,2.27-4.12,2.52-1.39,2.08-4.23,3.15-6.32.67-1.32,1.71-2.5,2.73-3.56,1.04-1.04,2.11-1.94,1.83-3.68,2.24-.07,3.12-1.71,3.66-3.68,1.27-4.65,3.54-8.65,7.17-11.8.81-.69,1.69-1.27,2.55-1.92.72-.9,1.34-1.8,1.34-2.71,0-.44-.14-.86-.51-1.3,1.06-.9,2.34-1.53,2.85-2.57.19-.35.21-.79.19-1.25l.12-.02h.02s.12-.02.18-.02l.65-.09.72-.09c.09,0,.16-.02.25-.05l.53-.07,1.9-.25.67-.09h.09c-.42.35-.81.93-1.3,1.78-.6,1.09-1.27,2.13-1.97,3.17-1.37,2.01-1.23,3.36.49,4.26,1.6.83,3.26.14,4.17-1.78.49-.99.88-2.04,1.32-3.05.19.07.35.14.51.21-.65,1.5-1.32,3.01-2.04,4.63,1.74.07,1.48,2.27,2.85,2.71l-.12.02c2.94.28,3.08.16,4-3.36,2.34-.67,3.36-1.83,3.91-4.44.02-.19.07-.35.09-.51,1.46.65,1.9.32,2.75-1.55.51-1.11.76-2.36,1.16-3.52.93-2.61,1.76-5.25,2.78-7.82,3.45-8.93,7.29-17.72,10.39-26.75,2.52-7.34,4.12-14.97,6.29-22.4,2.31-7.91,4.81-15.78,7.31-23.63,1.32-4.12,2.85-8.15,5.71-11.5.49-.56.83-1.32,1.06-2.01.46-1.53,0-2.18-1.57-2.24Zm-41.05,102.79c-.12-1.69.76-2.36,1.32-3.12.35-.46.58-.93.67-1.37.28.46.56.88.81,1.32-.83.97-1.74,1.94-2.8,3.17Zm27.91-102.72c-1.83,1.74-2.04,3.91-2.06,6.27-.07,3.59-.69,6.97-2.73,10.14-1.13,1.76-1.43,4.14-1.81,6.29-.79,4.72-1.27,9.51-2.11,14.21-1.6,8.86-2.94,17.82-5.16,26.52-2.41,9.46-5.99,18.58-10.41,27.33-.74,1.46-1.43,2.92-2.17,4.35-.14-.02-.28-.05-.39-.09.58-4.74,1-9.51,1.76-14.21,1.43-8.82,3.08-17.56,4.63-26.36,1.57-8.86,4.97-17.05,8.84-25.13,2.34-4.93,4.44-9.95,6.71-14.93,1.18-2.57,1.76-5.23,1.99-8.03.21-2.57.42-5.21,2.85-6.9.05.16.14.46.07.53Z"/><path class="cls-1" d="m14.88,433.09c2.08-1.53,3.77-2.87,5.55-4.02.75-.48,1.7-.67,2.56-.78,1.29-.17,2.7.16,3.27-1.78.03-.09.09-.25.11-.25,2.42.27,3.42-2.34,5.24-3.32,2.08-1.12,4.1-2.21,6.35-1.61.37.1.84-.08,1.36-.14.73-1.62.56-3.14.45-4.62-.09-1.3-.76-1.63-1.99-1.12-.67.28-1.3.72-1.92,1.13-2.54,1.7-5.17,2.96-8.09,3.02-1.19.02-2.09.63-3.06,1.59-2.28,2.24-4.73,4.29-7.16,6.35-.55.46-1.31.65-1.98.91-2.01.75-2.5,1.71-1.64,3.47.25.51.71.88.96,1.18Z"/><path class="cls-1" d="m59.82,434.11c-1.42.1-2.25.68-2.51,2.36-.66,4.2-2.33,8.03-5.4,11.33-1.31,1.41-1.43,2.15-1.2,4.48-1.08-.12-1.88.28-2.06,1.56-.12.82-.14,1.69-.48,2.44-.53,1.16-1.14,2.4-2,3.31-1.52,1.6-1.61,1.51-.52,3.17-.6-.18-1.19-.35-1.87-.55-.35,1.04-.57,1.94-.96,2.77-.39.85-.95,1.64-1.52,2.62.75.59,1.47,1.14,2.22,1.72.98-1.74,1.88-3.22,2.67-4.75.4-.77.69-1.37,1.62-1.71.49-.18.9-1.14,1.17-1.81.83-2.02,1.92-3.83,3.24-5.64,1.63-2.24,3.48-4.37,3.82-7.47.34-3.18,2.25-6.15,4.32-8.83,2.32-3.01,2.3-3.34-.63-4.98,0,0,.11,0,.11,0Z"/><path class="cls-1" d="m36.19,465.61c1.56,1.1,3.21.91,3.73-1.88.54-2.93,1.93-5.45,4.22-7.55,1.9-1.74,1.74-2.51-.36-3.44-3.04-1.35-3.63-1.05-4.08,2.57-.32,2.55-1.22,4.59-3.21,6.39-1.94,1.74-1.9,2.84-.29,3.92Z"/><path class="cls-1" d="m29.19,475.46c-.39.38-1,.72-1.18,1.19-.46,1.21-.7,2.48-1.09,3.72-.28.88-.45,1.79.42,2.1,1.05.37,1.71-.49,1.86-1.5.23-1.55,1.11-2.51,2.23-3.46.61-.51,1.22-1.29,1.44-2.02.75-2.47,1.53-4.86,3.67-6.6.3-.24.38-.82.62-1.37-1.13-.99-2.07-2.18-4.18-1.6.08,2.84-1.21,5.16-3.17,7.27-.44.47-.41,1.44-.62,2.27Z"/><path class="cls-1" d="m24.64,476.36c-.96-1.65-2.3-1.58-3.52-1.78-.62,1.88-1.2,3.6-1.77,5.32-.28.86-.37,1.74.52,2.03.99.31,1.74-.38,1.94-1.4.34-1.72.9-3.22,2.83-4.17Z"/><path class="cls-1" d="m43.08,421.66c1.53-1.43,1.34-3.34,1.95-5.19-1.37-.3-2.53-.35-3.38.99-.63.99.03,2.83,1.43,4.2Z"/><path class="cls-1" d="m40.73,468.38c-.8,1.62-1.27,2.73-1.87,3.77-.49.85-.74,1.62.1,2.07.75.4,1.25-.27,1.72-.94.74-1.03,1.55-2.02,2.54-3.29-.84-.54-1.65-1.07-2.49-1.61Z"/></g><path class="cls-2" d="m309.19,309.44c-.88,2.5-2.29,4.65-4.49,6.18-2.73,1.9-5.37,1.74-7.87-.46-.51-.42-.99-.86-1.8-1.55-1.13,1.02-2.27,1.99-3.36,3.01-1.62,1.5-3.12,3.12-5.53,3.29-1.11-1.25-2.29-2.45-3.36-3.75-1.34-1.67-1.5-1.76-3.61-1.06-.35.12-.72.12-1.11.16-1.13-1.78-1.16-3.54-.37-5.28.81-1.74,1.71-3.45,2.73-5.07,2.34-3.68,3.36-7.64,2.96-12.03-.88-9.44-1.48-18.91-2.43-28.35-1.36-13.35-2.8-26.68-4.47-39.99-1.06-8.54-2.64-17.03-4-25.55-.58-3.47-2.61-6.02-5.65-7.52-3.42-1.69-5.11-4.51-6.04-7.96-1.87-6.99,1.39-12.96,8.26-15.18,3.15-1.02,6.13-.58,8.54,1.76,1,.95,1.9,1.3,3.24,1.32,2.45.05,3.77.95,4.03,3.22.56,4.95.95,9.9,1.13,14.88.16,5.07-.25,10.16.05,15.23.69,11.48,1.57,22.93,2.55,34.39.95,10.99,1.87,21.96,4.07,32.79,1.27,6.18,2.52,12.38,3.93,18.53,1.02,4.47,3.52,8.03,7.2,10.76,1.46,1.06,2.85,2.27,4.17,3.52,1.39,1.27,1.85,2.92,1.23,4.72Z"/><path class="cls-1" d="m286.19,319.95l-.09-.05h.05l.05.05Z"/><g class="cls-5"><path class="cls-1" d="m338.64,416.85c-.09-.25-.21-.51-.32-.76.16.14.28.28.28.39,0,.14.02.25.05.37Z"/><path class="cls-1" d="m339.2,430.7s.05.01.06,0h0s-.03.01-.03.02c-.02,0-.02-.02-.03-.03Z"/><path class="cls-1" d="m339.23,430.72s-.03,0-.04.01l-.04-.06s.03,0,.06.03c.03,0,.05.01.06,0h0s-.03.01-.03.02Z"/><path class="cls-1" d="m352.53,451.75c.67,3.28,2.55,5.92,4.53,8.51.73.95,1.37,1.87,1.04,3.23.31.08.61.18.91.24.33.07.66.11,1.12.19.28,1.71.25,3.43.9,4.91.6,1.41,1.9,2.54,3.14,4.1-.82.54-1.5,1.08-2.25,1.46-.82.41-1.51.03-1.9-.95-.35-.89-.55-1.84-1-2.67-.68-1.22-1.36-2.57-2.33-3.48-.98-.91-.67-2.28-1.36-2.84-.87-.69-1.56-1.25-1.78-2.38-.54-2.69-2-4.87-3.87-6.88-1.07-1.14-2.45-2.25-1.98-4.26-2.12-.37-2.88-1.98-3.45-3.94-1.68-5.76-3.97-9.08-8.89-12.95.13.85.12,1.52.34,2.14,1.15,3.35,2.7,6.51,4.98,9.32.7.86,1.28,1.89,1.7,2.93.54,1.4.06,2.53-.94,3.31-1.41,1.11-3.06.48-3.24-1.51-.27-3.13-1.86-5.74-3.21-8.44-.89-1.78-2.12-3.41-3.22-5.08-.63-.96-1.48-1.92-.9-3.04.58-1.12,1.61-1.87,2.91-1.47,1.02.32,1.46-.15,2.17-.52.98-.52,2.14-.65,3.24-.94.68.98,1.68,1.92,1.95,2.95,1.13,4.35,3.9,7.63,6.69,10.88,1.9,2.21,2.1,2.44,2.07,5.11,1.52-.36,2.34.55,2.64,2.07Z"/><path class="cls-1" d="m370.89,474.1c-.67-2.92-1.67-5.72-3.33-8.28-.39-.62-.74-1.37-.9-2.08-.32-1.57.19-3.47-1.97-4.23-.07-.02,0-.51-.07-.74-.19-.6-.25-1.39-.65-1.8-2.24-2.29-3.22-5.09-3.84-8.15-.23-1.11-.9-2.15-1.34-3.24-.93.28-1.5.44-2.2.65.76-2.78.79-2.96-1.37-4.67-2.31-1.85-4.12-4.05-5.48-6.8-1.43-2.89-3.45-5.48-4.3-8.72-.42-1.55-1.27-1.87-2.66-1.64-.42.07-.81.25-1.67.51.97-1.78.28-3.01-.35-4.35-.39-.86-1.11-1.55-1.62-2.34,0-.02-.02-.02-.02-.02-.23-.39-.42-.83-.49-1.32-.09-.25-.21-.51-.32-.76-1.78-4.37-3.75-8.7-5.32-13.19-2.24-6.41-4.35-12.89-6.06-19.46-3.98-15.43-9.19-30.41-16.41-44.66-1.85-3.66-2.96-7.66-4.23-11.57-.62-1.94-.53-3.98.28-5.92.19-.44.32-.9.39-1.39.28-1.99-.46-2.8-2.38-2.27-2.01.58-3.89,1.25-6.11.74-1.8-.42-1.53,1.5-2.04,2.61-.69-.16-1.41-.35-2.13-.51-1.43-.3-2.64.05-3.49,1.37-.9,1.39-2.11,2.15-3.79,1.57-.95,0-1.9,0-2.85.05-1.57.07-2.06.72-1.57,2.24.23.69.58,1.46,1.04,2.01,2.89,3.36,4.42,7.38,5.72,11.5,2.5,7.84,5,15.71,7.31,23.63,2.2,7.43,3.77,15.06,6.29,22.4,3.12,9.02,6.94,17.82,10.41,26.75.99,2.57,1.85,5.21,2.75,7.82.39,1.16.65,2.41,1.16,3.52.83,1.87,1.3,2.2,2.75,1.55.02.16.07.32.09.51.56,2.61,1.57,3.77,3.91,4.44.95,3.52,1.06,3.63,4,3.36l-.09-.02c1.34-.44,1.09-2.64,2.82-2.71-.72-1.62-1.37-3.12-2.04-4.63.16-.07.35-.14.51-.21.44,1.02.86,2.06,1.32,3.05.93,1.92,2.59,2.61,4.19,1.78,1.71-.9,1.83-2.24.46-4.26-.69-1.04-1.37-2.08-1.97-3.17-.49-.86-.88-1.43-1.3-1.78h.09l.67.09,1.92.25.51.07c.09.02.16.05.25.05l.72.09.67.09c.07,0,.14.02.19.02h.02l.09.02c-.02.46,0,.9.19,1.25.51,1.04,1.8,1.67,2.85,2.57-.35.42-.49.86-.49,1.3,0,.88.6,1.8,1.34,2.71h-.05c.88.65,1.76,1.23,2.57,1.92,3.63,3.15,5.9,7.15,7.17,11.8.56,1.97,1.41,3.61,3.68,3.68-.3,1.74.79,2.64,1.8,3.68,1.04,1.06,2.06,2.24,2.73,3.56,1.06,2.08.62,4.93,3.17,6.32-.14,1.9,1.43,2.8,2.24,4.12.46.72,1.02,1.57,1.02,2.31,0,1.76,1.04,3.08,1.85,4.33.6.97,1.34,1.67,1.32,2.94,0,.99.72,1.57,1.62,1.53,1.04-.07.99-.95.79-1.85Zm-59.75-87.14c-2.2-8.7-3.56-17.66-5.16-26.52-.83-4.7-1.3-9.49-2.11-14.21-.37-2.15-.67-4.54-1.8-6.29-2.04-3.17-2.66-6.55-2.71-10.14-.05-2.36-.25-4.54-2.08-6.27-.07-.07.05-.37.07-.53,2.43,1.69,2.66,4.33,2.87,6.9.21,2.8.81,5.46,1.99,8.03,2.27,4.98,4.35,10,6.71,14.93,3.84,8.08,7.27,16.27,8.84,25.13,1.53,8.79,3.17,17.54,4.6,26.36.76,4.7,1.2,9.46,1.78,14.21-.14.05-.28.07-.42.09-.72-1.43-1.43-2.89-2.18-4.35-4.42-8.75-7.98-17.86-10.41-27.33Zm11.25,36.12c.28-.44.53-.86.81-1.32.09.44.35.88.69,1.37.56.76,1.41,1.43,1.3,3.12-1.06-1.23-1.97-2.2-2.8-3.17Zm6.66-1.62c-.28.16-.53.35-.88.56-.07-.16-.16-.3-.21-.44.56-.16,1.11-.32,1.64-.39-.19.09-.35.19-.56.28Z"/><path class="cls-1" d="m370.85,433.09c-2.08-1.53-3.77-2.87-5.55-4.02-.75-.48-1.7-.67-2.56-.78-1.29-.17-2.7.16-3.27-1.78-.03-.09-.09-.25-.11-.25-2.42.27-3.42-2.34-5.24-3.32-2.08-1.12-4.1-2.21-6.35-1.61-.37.1-.84-.08-1.36-.14-.73-1.62-.56-3.14-.45-4.62.09-1.3.76-1.63,1.99-1.12.67.28,1.3.72,1.92,1.13,2.54,1.7,5.17,2.96,8.09,3.02,1.19.02,2.09.63,3.06,1.59,2.28,2.24,4.73,4.29,7.16,6.35.55.46,1.31.65,1.98.91,2.01.75,2.5,1.71,1.64,3.47-.25.51-.71.88-.96,1.18Z"/><path class="cls-1" d="m325.9,434.11c1.42.1,2.25.68,2.51,2.36.66,4.2,2.33,8.03,5.4,11.33,1.31,1.41,1.43,2.15,1.2,4.48,1.08-.12,1.88.28,2.06,1.56.12.82.14,1.69.48,2.44.53,1.16,1.14,2.4,2,3.31,1.52,1.6,1.61,1.51.52,3.17.6-.18,1.19-.35,1.87-.55.35,1.04.57,1.94.96,2.77.39.85.95,1.64,1.52,2.62-.75.59-1.47,1.14-2.22,1.72-.98-1.74-1.88-3.22-2.67-4.75-.4-.77-.69-1.37-1.62-1.71-.49-.18-.9-1.14-1.17-1.81-.83-2.02-1.92-3.83-3.24-5.64-1.63-2.24-3.48-4.37-3.82-7.47-.34-3.18-2.25-6.15-4.32-8.83-2.32-3.01-2.3-3.34.63-4.98,0,0-.11,0-.11,0Z"/><path class="cls-1" d="m349.54,465.61c-1.56,1.1-3.21.91-3.73-1.88-.54-2.93-1.93-5.45-4.22-7.55-1.9-1.74-1.74-2.51.36-3.44,3.04-1.35,3.63-1.05,4.08,2.57.32,2.55,1.22,4.59,3.21,6.39,1.94,1.74,1.9,2.84.29,3.92Z"/><path class="cls-1" d="m356.54,475.46c.39.38,1,.72,1.18,1.19.46,1.21.7,2.48,1.09,3.72.28.88.45,1.79-.42,2.1-1.05.37-1.71-.49-1.86-1.5-.23-1.55-1.11-2.51-2.23-3.46-.61-.51-1.22-1.29-1.44-2.02-.75-2.47-1.53-4.86-3.67-6.6-.3-.24-.38-.82-.62-1.37,1.13-.99,2.07-2.18,4.18-1.6-.08,2.84,1.21,5.16,3.17,7.27.44.47.41,1.44.62,2.27Z"/><path class="cls-1" d="m361.08,476.36c.96-1.65,2.3-1.58,3.52-1.78.62,1.88,1.2,3.6,1.77,5.32.28.86.37,1.74-.52,2.03-.99.31-1.74-.38-1.94-1.4-.34-1.72-.9-3.22-2.83-4.17Z"/><path class="cls-1" d="m342.65,421.66c-1.53-1.43-1.34-3.34-1.95-5.19,1.37-.3,2.53-.35,3.38.99.63.99-.03,2.83-1.43,4.2Z"/><path class="cls-1" d="m345,468.38c.8,1.62,1.27,2.73,1.87,3.77.49.85.74,1.62-.1,2.07-.75.4-1.25-.27-1.72-.94-.74-1.03-1.55-2.02-2.54-3.29.84-.54,1.65-1.07,2.49-1.61Z"/></g><path class="cls-2" d="m265.01,661.64c-.62,2.68-1.27,5.48-1.16,8.19.37,9.09,1.13,18.14,1.67,27.21.37,6.39.97,12.8.88,19.18-.16,9.88-.86,19.78-1.32,29.69-.39,8.65-.67,17.33-1.23,25.99-.49,7.31-1.41,14.58-1.94,21.89-.46,6.64-.12,13.19,3.01,19.34.81,1.6,1.11,3.52,1.39,5.35.32,2.27-.37,4.07-2.78,4.42.51,2.08,1.06,3.96,1.39,5.88.16.88.05,1.85-.16,2.73-.35,1.34-1.2,1.9-2.55,1.23-.49-.23-.93-.51-1.37-.74-1.43-1.37-3.05-2.06-5-1.23-.67.53-1.27,1.11-1.94,1.64.74.25,1.5.39,2.34.46,2.36.16,4.4,1.04,6.18,2.48.83-.23,1.57-.42,2.29-.62,2.96-.86,4.47.16,4.91,3.36-2.5-.83-5.44,1.04-7.73-1.3-1.23,1.3-2.73,1.3-4.28,1.2-1.39-.09-2.82-.35-4.05.65,5.04.14,6.8,3.03,4.4,7.22-1.87-.83-3.68-2.45-6.25-.69,1.23.19,2.13.28,3.03.49,4.26.97,5.3,3.24,3.29,7.06-.93,1.74-1.39,3.49-1.09,5.51.21,1.39.95,3.08-1.06,3.96-.14.07-.02.69-.07,1.04-.07.62-.16,1.25-.25,1.92,2.8,1.6,2.85,1.87.83,4.65.23.56.53,1.13.69,1.78.25.99-.14,1.67-1.18,1.92-1.23.3-2.57-.28-3.1-1.39-.28-.6-.3-1.46-.74-1.83-1.8-1.48-1.64-3.22-.65-5.23-1.76-.35-2.87-1.13-2.61-2.94-2.41-1.71-.72-3.08.42-4.42,1.02-1.2,1.2-2.5,1.04-4-.19-1.69-.21-3.42-.35-5.11-.05-.51-.14-1.3-.46-1.46-1.27-.65-1.04-1.69-.93-2.73.37-3.05,1.74-5.23,5.02-5.74-1.02.05-2.04,0-3.03.16-.76.09-1.46.49-2.2.62-2.34.42-3.59-.44-3.66-2.78-.05-1.5.19-3.08.58-4.51.76-2.68,2.43-3.56,4.4-2.36,0-.05.02-.12.02-.16.37-2.06.83-4.07,1.3-6.22-.58.53-1.18,1.04-1.76,1.57-2.36,2.15-3.68,1.9-4.63-1.23-.53-1.74-.9-3.66-.72-5.44.49-4.3,1.25-8.58,2.11-12.82,1.94-9.74,3.47-19.48,2.94-29.48-.62-12.06-1.09-24.13-1.55-36.21-.49-13.19-.81-26.4-1.39-39.62-.37-8.15-.65-16.29-2.68-24.27-1.87-7.4-3.4-14.86-7.87-21.36-1.78-2.57-2.08-5.69-1.78-9.07,1.55-.16,2.94-.28,5-.49-3.26-1.69-4.37-4.51-5.6-7.34-2.45-5.69-2.18-11.11,1.64-16.06,2.34-3.01,3.75-6.39,4.58-10.02.86-3.75,1.78-7.45,2.43-11.2,4.54-25.25,6.73-50.68,6.71-76.34-.05-15.36.44-30.75.49-46.12.02-3.89-.28-7.91-1.32-11.62-.93-3.22-1.48-6.13-.37-9.33,1.37-3.82.32-7.34-1.69-10.62-1.71-2.78-3.36-3.49-6.53-2.87-1.92.39-3.79.97-5.69,1.46-2.52.6-4-.19-4.12-2.68-.25-4.91.28-9.72,3.1-13.98,1.62-2.38,3.75-4.1,6.66-4.67,4.1-.86,5.83.49,5.95,4.67.12,3.66,2.61,6.09,6.46,6.27,2.34-3.54,4.12-4.26,8.33-3.38,4.93,1.04,7.5,4.51,8.84,9,1.8,6.02,1.41,12.06-.44,18-.76,2.45-1.9,4.81-2.57,7.29-.65,2.36-1.09,4.81-1.25,7.24-.25,4.03-.21,8.05-.3,12.08-.32,12.47-.6,24.94-.99,37.44-.42,12.17-1.02,24.32-1.53,36.49-.58,14.53-1.11,29.06-1.74,43.6-.25,5.85,1.78,10.55,5.99,14.65,6.32,6.11,6.55,16.71.88,23.26l-6.57,1.8c-.67-.32-1.37-.65-2.34-1.09.46-1.11.93-2.08,1.32-3.1,1.02-2.59,2.04-5.18,2.98-7.77,2.01-5.51-3.38-12.8-10.04-12.38-6.94.42-11.01,3.63-12.43,10.97-.51,2.8.32,5.32,2.27,7.43.83.9,1.71,1.78,2.55,2.71,1.64,1.83,1.67,3.03,0,4.79-.49.49-1.11.9-1.87,1.43,2.71-.21,3.77-1.55,3.47-4.3-.19-1.57-.81-3.19-1.57-4.58-2.06-3.66-3.24-7.38-1.57-11.5.42-1.02.99-2.08,1.8-2.8,5.09-4.65,13.81-2.38,16.11,4.07.79,2.2.37,4.3-.44,6.34-.6,1.5-1.48,2.94-2.27,4.37-.53.99-1.18,1.94-1.67,2.94-.53,1.11-1.32,2.48-.28,3.45.65.62,2.01.53,3.26.21l6.71-1.23c1.25.16,2.48.3,3.84.46-.12.97-.14,1.6-.28,2.15-1.5,5.69-3.12,11.34-4.51,17.05Z"/><path class="cls-2" d="m259.52,839.7c.26,1.02.62,2.1.81,3.21.37,2.16.81,4.33.89,6.5.05,1.5-.02,2.87.95,3.43-.2,1.18-.7,2.18-.39,2.75.72,1.33.5,2.55.34,3.89-.11.86.11,1.76.19,2.75,1.44-.19,2.5-.32,4.07-.53-1.11.92-1.94,1.34-2.36,2.02-.55.9.59,1.45.81,2.12.94,2.98,1.58,6.05,2.28,9.1.35,1.52,1.12,2.38,2.98,2.09-.17-2.05.31-3.99-.51-6.1-.68-1.74-.39-3.86-.52-5.81-.02-.36.18-.99.05-1.06-2.02-1.1-1.13-3.58-2.46-5.06-.61-.68-.59-1.93-.83-2.92-.29-1.18-1.14-2.71-.69-3.49.8-1.4.13-2.35-.12-3.5-.56-2.61-1.17-5.22-1.53-7.86-.4-2.93-1.23-3.37-3.98-1.53Z"/><path class="cls-2" d="m277.49,861.83c-1.35,1.06-3.03.81-4.56,1.15-.68.15-1.61.42-1.89.93-.47.84.58,1.13,1.05,1.68.89,1.04,1.56,2.31,2.18,3.55.64,1.3,1.12,2.68,1.94,3.94.87-1.52,1.06-2.88.06-4.38-.82-1.24-1.68-2.58-1.18-4.41,1.4,0,2.29.57,2.78,1.86.57,1.5,1.17,2.98,1.8,4.46.13.31.44.55.87,1.06.61-1.52.74-2.75-.02-3.91-1.08-1.65-1.73-3.38-1.15-5.47-.77-.16-1.38-.29-2-.42,0,0,.12-.05.12-.05Z"/><path class="cls-2" d="m281.38,861.28c-.21-.61-.31-1.3-.65-1.83-1.39-2.15-2.83-4.27-4.31-6.35-.3-.42-.87-.65-1.43-1.05-.39.52-.69.94-1.06,1.44-.44-.38-.85-.74-1.27-1.1,0,0,.08-.04.08-.04-1.45.93-1.11,2.01-.19,3.07,1.31,1.51,2.49,3.05,2.76,5.14.15,1.21,1.22,1.26,2.2,1.28,0,0-.12.05-.12.05.27-.57.53-1.14.66-1.43,1.24.28,2.34.53,3.45.78,0,0-.1.03-.1.03Z"/><path class="cls-2" d="m270.13,849.8c-.43-1.1-1.04-2.18-1.26-3.32-.38-1.96-.53-3.97-.8-6.11-.99-.31-1.95-.62-3.32-1.05.25,1.07.47,1.83.61,2.62.45,2.54.88,5.09,1.31,7.64.13.75.14,1.56.43,2.24.19.44.79.94,1.23.96.44.02,1.1-.43,1.3-.85.31-.67.32-1.48.45-2.23l.04.1Z"/><path class="cls-2" d="m270.09,849.7c.18.52.38,1.03.53,1.56.32,1.12,1.03,1.46,2.11,1.1,0,0-.08.04-.07.04-.15-1.65-.3-3.3-.45-4.95.1-.02.2-.03.3-.05.48,1.06.96,2.13,1.43,3.19.77-2.25-.41-4.05-.83-6.19-1.18-.22-2.35-.43-3.54-.65.21,2.19.39,4.12.57,6.06,0,0-.05-.11-.05-.11Z"/><path class="cls-2" d="m271.54,862.21c1.39-.18,1.97-.78,1.55-1.78-.82-2-1.72-3.99-2.77-5.88-.24-.43-1.22-.44-2.21-.75.5,3.37,2.02,5.82,3.42,8.42Z"/><path class="cls-2" d="m269.68,838.1c-.69.19-1.37.38-2.09.59.95,1.47,1.84,2.85,2.8,4.35,1.3.18,1.65-.78,1.87-1.84.21-.99-.35-1.59-1.14-2.07-.52-.31-1.01-.68-1.51-1.03.01,0,.07,0,.07,0Z"/><path class="cls-2" d="m281.48,861.24c-.45.3-.9.6-1.27.85,1.1,1.97,2.1,3.77,3.1,5.57.15-.04.29-.08.44-.11,0-.52.11-1.07-.02-1.56-.35-1.35-.74-2.7-1.24-3.99-.13-.33-.74-.48-1.12-.71.01,0,.11-.04.11-.04Z"/><path class="cls-2" d="m201.84,253.72s0,.02-.02.05v-.05h.02Z"/><path class="cls-2" d="m219.13,169.03c-.05.72-.14,1.43-.35,2.15.07-.72.19-1.43.35-2.15Z"/><path class="cls-2" d="m281.07,168.38c-.35.53-1.46.86-2.2.81-.9-.07-1.85-.51-2.66-.97-2.85-1.6-5.78-1.83-8.89-.88-1.18.37-2.41.79-3.63.88-.74.05-1.5-.09-2.27-.23-.12-.02-.21-.02-.3-.07-1.55-.44-1.41-2.89-1.41-2.89,2.45-.19,4.95-.12,7.36-1.34-.32-1.23-.62-2.29-.95-3.52-.51.65-.86,1.06-1.32,1.67-3.29-2.15-6.83-3.52-10.62-4.21-2.82-.51-5.65-1.13-8.45-1.71-6.97-1.41-13.88-2.8-21.03-2.71-3.45.05-6.9-.37-10.3-.93-1.83-.3-3.68-1.11-5.25-2.13-2.85-1.85-3.63-6.69-1.62-10.04,1.23,1.04,2.5,2.01,3.61,3.1,3.38,3.26,7.29,5.16,12.03,5.39,4.67.23,9.35.83,14.05,1,10.48.37,20.39,3.22,30.1,6.9.23.09.42.32.6.49-.12.44-.23.83-.37,1.39,1.83-.44,3.29-.32,4.63.67,2.15,1.6,4.37,3.1,6.5,4.74.83.62,1.64,1.37,2.18,2.24.37.65.53,1.8.21,2.36Z"/><path class="cls-2" d="m187.4,97.99c-2.14.97-3.35.6-4.58-1.4-1.67.68-2.21.57-3.57-.78-1.29.81-2.9.16-3.3-1.34-.03-.12-.1-.25-.09-.37.23-2.15-.28-4.34.47-6.47.14-.4.08-1.08-.18-1.37-1.43-1.58-2.8-3.29-4.49-4.56-1.73-1.29-3.84-1.47-5.74-.08-.8.58-1.25.35-1.65-.37-.96-1.74-1.91-3.48-2.87-5.22-.64-1.16-1.25-2.34-1.96-3.45-.44-.67-.37-1.18.05-1.8,1.57-2.31,2.87-4.75,3.49-7.5.54-2.37.45-4.7-.6-6.94-.18-.38-.43-.72-.81-1.05-1.06,2.3-.4,4.72-.49,7.06-.14.09-.29.18-.43.28-.21-.35-.38-.73-.64-1.04-2.34-2.81-3.59-6.11-3.89-9.69-.35-4.18-.63-8.38-.57-12.57.09-6.21,1.27-12.24,4.13-17.82,4.09-7.99,10.62-13.15,19.11-15.75,10.59-3.24,21.09-2.83,31.21,1.85,9.3,4.3,14.83,11.78,17.27,21.62,1.56,6.29,1.71,12.67,1.04,19.09-.2,1.94-.34,3.9-.69,5.82-.51,2.77-1.67,5.28-3.51,7.45-.27.32-.61.58-1.14.76.07-1.17.2-2.35.19-3.52,0-1.17-.15-2.33-.24-3.5-.15-.03-.29-.06-.44-.09-.26.39-.58.75-.77,1.17-1.36,3.12-1.09,6.25.21,9.28.74,1.73,1.73,3.35,2.68,4.99.36.63.51,1.12.12,1.82-1.5,2.67-2.93,5.37-4.4,8.05-.15.28-.34.53-.52.79-.44.66-.88.83-1.63.29-1.91-1.37-3.97-1.21-5.72.12-1.64,1.25-3,2.86-4.45,4.34-.47.49-.46,1.07-.21,1.75.29.78.4,1.65.47,2.49.08.97.05,1.95.06,2.92.02,1.06-.17,2.03-1.2,2.59-.76.42-1.55.82-2.25-.07-1.63,1.5-1.86,1.54-3.61.72-.98,2.05-2.39,2.51-4.55,1.49-1.76,1.52-3.19,1.76-4.63.77-1.82.93-2.98.75-4.71-.75Zm23.12-27.38c.88,0,1.77.04,2.65,0,1.75-.1,3.04-.9,3.74-2.57,1.49-3.53,1.47-7.04-.15-10.52-.69-1.47-1.93-2.15-3.48-2.21-3.62-.14-7.18.28-10.64,1.35-2.55.79-4.09,2.57-4.34,5.28-.12,1.28-.11,2.58-.02,3.86.18,2.37.69,2.95,3.01,3.58,3.02.83,6.08,1.4,9.24,1.23Zm-36.92.15c3.38.02,6.66-.59,9.86-1.6.97-.3,1.95-.71,2.18-1.87.41-2.03.51-4.08.08-6.11-.48-2.25-1.87-3.79-4.06-4.46-3.52-1.07-7.13-1.61-10.82-1.42-1.5.08-2.79.72-3.44,2.14-1.74,3.81-1.79,7.61.23,11.35.53.98,1.38,1.56,2.49,1.68,1.16.13,2.32.19,3.48.28Zm18.22,5.7c.13,0,.26,0,.39,0,.14.33.36.64.42.98.14.87.24,1.75.31,2.63.13,1.71.64,2.15,2.35,1.93.31-.04.62-.1.93-.17.99-.22,1.34-.61,1.09-1.6-.31-1.2-.68-2.44-1.3-3.5-.79-1.34-1.44-2.7-1.87-4.2-.3-1.04-.79-2.05-1.35-2.99-.51-.86-.94-.85-1.46.02-.53.88-1.02,1.83-1.27,2.82-.41,1.58-1,3.03-1.94,4.37-.81,1.15-1.31,2.46-1.22,3.9.02.36.31.92.59,1,.81.22,1.66.29,2.51.31.74.02,1.13-.43,1.17-1.2.04-.79.07-1.58.19-2.36.1-.66.32-1.3.48-1.95Z"/><path class="cls-4" d="m270.53,202.94c-.97,19.88,28.02,4.67,29.16,4.1l.02-.02c3.15-28.09-6.27-42.18-33.78-52.11-8.21-2.94-16.34-6.36-24.25-10.16-2.64-1.27-5.11-2.78-7.34-4.47,10.25,9.26,37.07,36.12,36.19,62.66Z"/></svg>