<?xml version="1.0" encoding="UTF-8"?><svg id="Lag_1" xmlns="http://www.w3.org/2000/svg" viewBox="0 0 362.37 830.21"><defs><style>.cls-1,.cls-2,.cls-3{fill:#fff;}.cls-4{fill:red;opacity:.39;}.cls-5,.cls-6,.cls-2{opacity:.22;}.cls-6,.cls-7{fill:none;}.cls-3{opacity:.15;}</style></defs><path class="cls-3" d="m362.36,414.29v.02c.02.22.02.41-.02.57-.15.87-.57,1.44-1.11,1.77-1.13.72-2.82.41-3.8-.04-5.17-2.29-11.22-2.64-15.47-8.21-.11-.11-.22-.26-.33-.39-.07.22-.13.46-.22.68-.28.87-.52,1.72-.68,2.55-.65,2.99-.57,5.7-.04,8.25.76,3.69,2.44,7.03,4.15,10.37.09.2.2.37.28.57,3.4,6.59,7.07,13.07,10.15,19.82,3.69,8.05,3.64,12.75-4.19,13.82-.72.09-1.51.15-2.31.17-1.38.02-8.38-2.73-10.87-2.14-2.14.52-3.38.68-4.65.22-.55-.22-1.22-.55-1.75-1.07l-.15-.22c-.94-1.13-5.76-7.27-6.92-9.67l-13.25-18.55-.13-.22-.13-.17c-6.87-9.89-14.06-20.58-18.07-29.11-.17-.41-.35-.83-.55-1.27-.59-1.4-1.33-2.73-1.96-4.1-14.25-31.17-29.14-62.11-37.8-95.57-2.01-7.7-3.67-15.54-4.93-23.55-.07,23.77.79,47.38,4.26,70.6.94,6.33,2.25,12.64,3.69,18.92,1.4,6.11,2.9,12.22,4.34,18.33,2.84,11.85,5.37,23.72,6.13,35.73,2.25,34.88-.09,70.04-.52,105.09-.33,25.12-1.13,50.22-.96,75.34.09,16.11,3.32,32.35,2.05,48.3-2.27,28.24-7.16,56.31-10.43,84.51-2.64,22.92-1.35,45.61,8.58,66.94,3.32,7.12,14.06,13.55,7.29,21.39-4.23,4.89-14.58,5.67-22.33,6.11-19.88,1.18-23.37-3.93-22.35-24.42,1.24-25.34-3.71-50.81,1.11-76.17.46-2.53-.81-5.41-1.35-8.1-6.98-34.7-17.72-68.92-12.94-105.11.5-3.75-1.07-7.77-1.79-11.63-6.42-34.4-13.31-68.71-19.14-103.19-3.06-18.12-4.26-36.54-6.37-55.39-2.05.09-2.75.13-5.67.26-2.92-.13-3.62-.17-5.67-.26-2.12,18.86-3.32,37.28-6.37,55.39-5.83,34.48-12.72,68.79-19.14,103.19-.72,3.86-2.29,7.88-1.79,11.63,4.78,36.19-5.96,70.41-12.94,105.11-.55,2.68-1.81,5.57-1.35,8.1,4.82,25.36-.13,50.83,1.11,76.17,1.03,20.49-2.47,25.6-22.35,24.42-7.75-.44-18.09-1.22-22.33-6.11-6.77-7.84,3.97-14.27,7.29-21.39,9.93-21.32,11.22-44.02,8.58-66.94-3.27-28.2-8.16-56.27-10.43-84.51-1.27-15.95,1.96-32.19,2.05-48.3.17-25.12-.63-50.22-.96-75.34-.44-35.05-2.77-70.21-.52-105.09.76-12,3.3-23.88,6.13-35.73,1.44-6.11,2.95-12.22,4.34-18.33,1.44-6.29,2.75-12.59,3.69-18.92,3.47-23.22,4.32-46.84,4.26-70.6-1.27,8.01-2.92,15.85-4.93,23.55-8.66,33.46-23.55,64.41-37.8,95.57-.63,1.37-1.37,2.71-1.96,4.1-.2.44-.37.85-.55,1.27-4.02,8.53-11.2,19.23-18.07,29.11l-.13.17-.13.22-13.25,18.55c-1.16,2.4-5.98,8.53-6.92,9.67l-.15.22c-.52.52-1.2.85-1.75,1.07-1.27.46-2.51.31-4.65-.22-2.49-.59-9.49,2.16-10.87,2.14-.81-.02-1.59-.09-2.31-.17-7.83-1.07-7.88-5.76-4.19-13.82,3.08-6.74,6.74-13.23,10.15-19.82.09-.2.2-.37.28-.57,1.7-3.34,3.38-6.68,4.15-10.37.52-2.55.61-5.26-.04-8.25-.15-.83-.39-1.68-.68-2.55-.09-.22-.15-.46-.22-.68-.11.13-.22.28-.33.39-4.26,5.57-10.3,5.91-15.47,8.21-.98.46-2.66.76-3.8.04-.55-.33-.96-.89-1.11-1.77-.04-.15-.04-.35-.02-.57v-.02c.11-1.18.98-2.79,1.9-3.38,11.39-7.27,17.35-22.39,33.35-23.18,3.16-.15,5.37-1.13,7.14-2.77l.28-.28c.15-.13.28-.26.44-.41.02-.04.07-.09.11-.13,1.68-1.83,3.01-3.88,3.51-5.74,5.28-19.29,8.95-39,13.36-58.54,2.2-9.71,3.45-19.9,6.9-29.09.35-.94.72-1.86,1.13-2.77,12.77-29.11,16.13-59.12,11.89-90.29-.11-.81-.22-1.62-.28-2.4l-.02-.02c-2.97-26.5,5.91-39.79,31.86-49.15,7.75-2.77,15.41-6,22.87-9.58,2.49-1.2,4.82-2.62,6.92-4.21.07-.07.13-.13.2-.17,1.16-.87,2.23-1.81,3.25-2.84.15-.13.24-.2.24-.2.81-.81,1.57-1.64,2.31-2.49,7.88-9.32,10.72-21.91,7.75-33.94l-.02-.02c-1.33-5.35-3.82-10.56-7.53-15.34-5.61-7.22-9.1-20.12-3.38-26.63.94-1.09-.31-5.19-.52-7.92-1.24-14.78-.55-29.25,14.64-36.95,7.55-3.86,15.26-5.83,22.87-5.83s15.32,1.96,22.87,5.83c15.19,7.7,15.89,22.17,14.64,36.95-.22,2.73-1.46,6.83-.52,7.92,5.72,6.5,2.23,19.4-3.38,26.63-3.71,4.78-6.2,10-7.53,15.34l-.02.02c-2.97,12.03-.13,24.62,7.75,33.94.74.85,1.51,1.68,2.31,2.49,0,0,.09.07.24.2,1.03,1.03,2.1,1.96,3.25,2.84.07.04.13.11.2.17,2.1,1.59,4.43,3.01,6.92,4.21,7.46,3.58,15.12,6.81,22.87,9.58,25.95,9.36,34.83,22.65,31.86,49.15l-.02.02c-.07.79-.17,1.59-.28,2.4-4.23,31.17-.87,61.18,11.89,90.29.41.92.79,1.83,1.13,2.77,3.45,9.19,4.69,19.38,6.9,29.09,4.41,19.53,8.08,39.24,13.36,58.54.5,1.86,1.83,3.91,3.51,5.74.04.04.09.09.11.13.15.15.28.28.44.41l.28.28c1.77,1.64,3.97,2.62,7.14,2.77,16,.79,21.96,15.91,33.35,23.18.92.59,1.79,2.2,1.9,3.38Z"/><path class="cls-7" d="m144.83,129.31c-.48.39-1.64,1.37-3.25,2.84"/><path class="cls-7" d="m147.38,126.63l-.02-.02"/><path class="cls-7" d="m107.24,191.43c0-.17,0-.33-.02-.5"/><path class="cls-7" d="m220.8,132.15c-1.62-1.46-2.77-2.44-3.25-2.84"/><path class="cls-7" d="m215.02,126.61l-.02.02"/><path class="cls-7" d="m255.15,190.93c-.02.17-.02.33-.02.5"/><path class="cls-7" d="m144.75,128.92c-.48.39-1.64,1.37-3.25,2.84"/><path class="cls-7" d="m147.3,126.23l-.02-.02"/><path class="cls-7" d="m107.17,191.03c0-.17,0-.33-.02-.5"/><path class="cls-7" d="m220.72,131.76c-1.62-1.46-2.77-2.44-3.25-2.84"/><path class="cls-7" d="m214.94,126.21l-.02.02"/><path class="cls-7" d="m255.07,190.53c-.02.17-.02.33-.02.5"/><path class="cls-6" d="m107.96,191.07c0-.17,0-.33-.02-.5"/><path class="cls-6" d="m255.87,190.56c-.02.17-.02.33-.02.5"/><path class="cls-2" d="m146.9,417.13c-.11,2.36-1.51,3.1-3.88,2.53-1.79-.46-3.56-1-5.37-1.37-2.99-.59-4.54.09-6.15,2.71-1.9,3.1-2.88,6.42-1.59,10.02,1.05,3.01.52,5.76-.35,8.8-.98,3.49-1.27,7.29-1.24,10.96.04,14.49.5,29.01.46,43.5-.02,24.2,2.03,48.19,6.31,72,.63,3.54,1.51,7.03,2.29,10.56.81,3.43,2.12,6.61,4.34,9.45,3.6,4.67,3.86,9.78,1.55,15.15-1.16,2.66-2.2,5.33-5.28,6.92,1.94.2,3.25.31,4.71.46.28,3.19,0,6.13-1.68,8.56-4.21,6.13-5.65,13.16-7.42,20.14-1.92,7.53-2.18,15.21-2.53,22.89-.55,12.46-.85,24.92-1.31,37.36-.44,11.39-.87,22.79-1.46,34.16-.5,9.43.94,18.62,2.77,27.81.81,3.99,1.53,8.03,1.99,12.09.17,1.68-.17,3.49-.68,5.13-.89,2.95-2.14,3.19-4.37,1.16-.55-.5-1.11-.98-1.68-1.48.46,2.03.89,3.93,1.24,5.87,0,.04.02.11.02.15,1.86-1.13,3.43-.31,4.15,2.23.37,1.35.57,2.84.55,4.26-.09,2.2-1.24,3.01-3.45,2.62-.7-.13-1.35-.5-2.07-.59-.94-.15-1.9-.11-2.86-.15,3.1.48,4.39,2.53,4.74,5.41.11.98.33,1.96-.87,2.58-.31.15-.39.89-.44,1.37-.13,1.59-.15,3.23-.33,4.82-.15,1.42.02,2.64.98,3.78,1.07,1.27,2.66,2.55.39,4.17.24,1.7-.81,2.44-2.47,2.77.94,1.9,1.09,3.54-.61,4.93-.41.35-.44,1.16-.72,1.72-.48,1.05-1.75,1.59-2.92,1.31-.96-.24-1.35-.87-1.09-1.81.15-.61.44-1.16.65-1.68-1.9-2.62-1.86-2.88.79-4.39-.09-.63-.17-1.22-.24-1.81-.04-.33.07-.92-.07-.98-1.92-.83-1.22-2.42-1-3.73.28-1.9-.15-3.56-1.03-5.19-1.9-3.6-.92-5.74,3.1-6.66.85-.2,1.7-.28,2.86-.46-2.42-1.66-4.12-.13-5.89.65-2.27-3.95-.61-6.68,4.15-6.81-1.16-.94-2.51-.7-3.84-.61-1.44.09-2.86.09-4.02-1.13-2.16,2.2-4.93.44-7.29,1.22.41-3.01,1.83-3.97,4.61-3.16.7.2,1.4.37,2.18.59,1.66-1.35,3.6-2.18,5.83-2.34.76-.07,1.51-.2,2.2-.44-.63-.5-1.2-1.05-1.83-1.55-1.86-.79-3.36-.13-4.71,1.16-.41.22-.83.48-1.29.7-1.27.63-2.07.11-2.4-1.16-.2-.83-.33-1.75-.17-2.58.33-1.81.85-3.58,1.33-5.54-2.27-.33-2.92-2.03-2.62-4.17.26-1.72.52-3.54,1.31-5.04,2.95-5.81,3.27-11.98,2.82-18.25-.48-6.9-1.37-13.75-1.81-20.65-.52-8.16-.79-16.35-1.16-24.51-.44-9.34-1.09-18.68-1.24-28-.09-6.02.48-12.07.83-18.09.5-8.56,1.22-17.09,1.57-25.67.11-2.55-.5-5.19-1.11-7.73-1.29-5.39-2.82-10.72-4.23-16.09-.13-.52-.15-1.11-.26-2.03,1.29-.15,2.44-.28,3.62-.44l6.33,1.16c1.18.31,2.44.39,3.08-.2.98-.92.24-2.2-.26-3.25-.46-.94-1.07-1.83-1.57-2.77-.74-1.35-1.57-2.71-2.14-4.12-.76-1.92-1.16-3.91-.41-5.98,2.16-6.09,10.39-8.23,15.19-3.84.76.68,1.31,1.68,1.68,2.64,1.59,3.88.48,7.4-1.46,10.85-.72,1.31-1.31,2.84-1.48,4.32-.28,2.6.72,3.86,3.27,4.06-.72-.5-1.31-.89-1.77-1.35-1.57-1.66-1.55-2.79,0-4.52.79-.87,1.62-1.7,2.4-2.55,1.83-1.99,2.62-4.37,2.14-7.01-1.33-6.92-5.17-9.95-11.72-10.35-6.29-.39-11.37,6.48-9.49,11.68.92,2.44,1.88,4.89,2.84,7.33.37.96.79,1.88,1.24,2.92-.94.41-1.57.72-2.2,1.03l-6.2-1.7c-5.35-6.18-5.13-16.17.83-21.93,3.97-3.86,5.89-8.29,5.63-13.82-.57-13.71-1.07-27.41-1.62-41.12-.48-11.48-1.05-22.94-1.44-34.42-.39-11.79-.63-23.55-.94-35.31-.09-3.8-.04-7.6-.31-11.39-.15-2.29-.55-4.61-1.16-6.83-.63-2.34-1.7-4.56-2.42-6.87-1.75-5.61-2.12-11.31-.41-16.98,1.27-4.23,3.69-7.51,8.34-8.49,3.97-.83,5.65-.15,7.86,3.19,3.62-.17,5.98-2.47,6.09-5.91.11-3.95,1.72-5.22,5.61-4.41,2.75.55,4.76,2.16,6.26,4.41,2.68,4.02,3.19,8.56,2.95,13.18Z"/><path class="cls-2" d="m233.68,351.06c-6.55-4.19-13.82-4.74-21.15-2.88-5.43,1.37-8.03,6.44-6.9,12.07.09.44.11.89.17,1.33.13.37.26.74.41,1.11.39,1,.94,1.96,1.16,3.01.94,4.5,1.72,9.04,2.66,13.55,1.33,6.18-.15,11.65-3.93,16.59-.98,1.29-1.94,2.64-3.14,3.71-3.84,3.43-7.81,6.72-11.72,10.06-1.79,1.53-3.65,2.97-5.3,4.63-.85.87-1.55,1.7-2.9,1.62-1.88-.09-3.8.15-5.39-1.2-3.27-2.73-6.48-5.48-9.82-8.1-4.63-3.67-8.97-7.62-12.13-12.66-2.12-3.38-3.49-7.09-2.92-11.07,1.05-7.16,1.99-14.36,4.45-21.17,2.34-6.53-1.62-12.75-7.75-13.86-5.89-1.05-11.74-.76-17.26,1.77-6.39,2.9-9.58,7.99-9.65,15.02-.04,2.95.5,5.81,1.64,8.47,1.68,3.99,3.62,7.88,5.35,11.85,1.77,4.04,4.58,7.14,8.21,9.54,1.11.74,2.29,1.44,3.47,2.1,4.06,2.34,6.33,5.83,6.72,10.52.09,1.16.28,2.34.24,3.51-.15,6.39.89,12.64,2.84,18.68.92,2.79,2.14,5.61,3.75,8.05,2.9,4.37,7.75,5.46,12.44,3.08,1.51-.76,3.01-1.77,4.1-3.03,1.86-2.18,3.4-4.65,5.02-7.03.55-.81.94-1.72,1.37-2.55h7.73c1.05,1.83,1.99,3.69,3.1,5.43,1.75,2.79,3.86,5.26,6.79,6.9,4.95,2.75,10.13,1.62,13.36-3.06.96-1.4,1.9-2.92,2.38-4.54,1.27-4.32,2.55-8.69,3.3-13.12.7-4.26.72-8.64,1.09-12.96.31-3.62,1.96-6.55,4.95-8.64,1.55-1.09,3.12-2.16,4.74-3.16,3.58-2.29,6.42-5.22,8.23-9.12,1.11-2.38,2.44-4.67,3.45-7.07,1.27-3.1,2.55-6.22,3.34-9.43,1.79-7.4-.7-14.21-6.48-17.94Zm-68.9,79.84c-1.48.79-2.73.79-3.54-.65-2.14-3.71-4.02-7.6-5.94-11.44-.24-.46-.15-1.07-.2-1.37.02-3.34,1.51-4.74,4.6-4.28,4.08.57,7.62,2.01,9.28,6.31,1.51,3.95-.46,9.47-4.21,11.44Zm42.45-10.26c-1.22,2.88-2.84,5.63-4.32,8.42-.2.39-.48.76-.76,1.11-1.18,1.35-2.25,1.53-3.82.63-2.55-1.4-4.8-5.41-4.76-8.4.13-3.34,2.88-7.7,6.29-8.34,1.59-.28,3.16-.85,4.76-.96,1.96-.11,3.19.85,3.32,2.82.09,1.55-.09,3.3-.7,4.71Z"/><path class="cls-2" d="m249.2,258.25c-.33-3.8-1.48-7.38-2.29-11.04-.79-3.64-.72-7.49-1.03-11.24-.02-.26-.17-.5-.15-.76.04-.74.04-1.51.24-2.23,1.2-5.22.81-10.24-1.85-14.91-.48-.89-.79-1.64-.33-2.62.68-1.42.48-2.88-.15-4.23-.76-1.7-1.62-3.38-2.51-5.02-.74-1.42-1.57-2.79-2.18-3.82,1.38-4.78.81-8.69-1.31-11.96-.85-1.31-1.94-2.51-3.27-3.62.2-1.53.46-2.62.46-3.71-.02-4.34-1.99-7.77-5.13-10.41-1.86-1.55-3.01-3.38-4.15-5.52-2.31-4.32-5.5-7.6-10.89-7.25-.02-.68-.11-1.35-.09-2.03.15-2.58-.96-4.47-2.82-5.98-.02-.02-.04-.04-.07-.04-.74-.63-1.53-1.22-2.36-1.72-5.37-3.27-11.11-5.48-17.24-6.59-.63-.11-1.2-.17-1.79-.17h-.02c-.13,0-.28,0-.41.02,1.72-1.44,1.94-2.71,1.79-5.87-1.18.31-2.25.7-3.32.83-.61.07-1.44.28-1.59-1.46-.07-.59.59-1.53,1.03-2.53-.24-2.9-.9-6.11-.33-8.62,1.44-1.42,2.62-2.34,3.67-3.67.72-.89,1-2.47.31-4.34-1.42.44-2.84.89-4.23,1.33-.85-3.8-.85-3.86.37-5.72-.02-.52-.04-1.05-.07-1.57,3.43-.31,6.37-1.64,8.51-4.65,1.99-2.77,3.95-5.59,5.91-8.38.74-1.07.98-2.27.96-3.56-.07-1.81-.07-3.62-.11-5.46-.04-2.82.17-5.59,1.35-8.21.15-.33,0-.81-.02-1.2-.44.02-.96-.07-1.33.13-1.13.59-1.88,1.57-2.1,2.84-.33,2.12-.57,4.23-.92,6.35-.44,2.66-1.29,5.15-3.25,7.09-.2.22-.46.39-.92.74.11-.52.17-.79.2-1.03,0-.65.09-1.33-.04-1.96-.09-.35-.46-.85-.79-.92-.33-.09-.76.24-1.13.46-.2.11-.26.41-.46.52-.2.13-.55.28-.68.2-1.05-.74-1.83-.07-2.66.44-.28.17-.63.22-.96.28-.57.09-1.13.13-1.7.24-.37.07-.72.24-1.11.28-.63.04-1.31-.09-1.75.61-.07.11-.37.13-.55.13-1.57-.07-3.12-.2-4.67-.17-.76,0-1.53.37-2.07-.46-.07-.09-.28-.09-.41-.11-.76-.2-1.53-.37-2.29-.55-.28-.07-.63-.2-.85-.09-.65.28-1.09.02-1.64-.33-.55-.31-1.35-.68-1.83-.48-.72.28-1.05.24-1.48-.35-.33-.44-.81-1-1.4-.61-.39.26-.7.87-.76,1.37-.09.72.04,1.51.09,2.42-.31-.24-.52-.39-.72-.57-2.05-1.92-2.84-4.43-3.32-7.07-.35-1.9-.46-3.84-.74-5.74-.24-1.57-.9-2.92-2.4-3.64-.35-.15-.9-.15-1.2.04-.17.11-.15.74-.04,1.09.28,1.09.76,2.14.98,3.23.72,3.23.39,6.53.28,9.78-.07,1.99.46,3.64,1.66,5.24,1.64,2.18,3.19,4.43,4.71,6.72,1.88,2.82,4.39,4.67,7.79,5.09.41.04.85.09,1.27.11-.09,1.03.13,1.83.7,2.29.31.24.59.52.83.76.11,3.93-.02,4.23-1.57,3.88-1.11-.24-2.23-.48-3.58-.76.15,5.94,1.64,7.42,3.03,9.08.52,2.23,1.07,2.55.74,4.65-.44,2.6-.39,2.79.81,3.95.5.46.7.92.46,2.34-1.24-.35-2.47-.65-3.69-1.03-.48-.15-.98-.83-1.27.57-.26,1.27-.07,2.44.41,3.16.68.98,1.38,1.9,2.12,2.55.09.09.17.15.26.24h-.44c-.57,0-1.13.09-1.7.24-3.43.89-6.92,1.64-10.17,2.99-3.19,1.31-6.18,3.16-9.12,5.02-.24.17-.5.35-.74.52-1.68,1.35-2.62,3.3-2.49,5.74.04.72-.15,1.46-.2,1.94-1.53.15-2.99-.11-3.99.48-3.14,1.9-6.11,4.12-7.44,7.92-.5,1.51-1.44,2.58-2.64,3.6-4.43,3.82-7.22,8.42-5.41,15.02-.81.79-1.75,1.53-2.49,2.42-.48.52-.87,1.05-1.18,1.62-1.86,2.9-2.27,6.24-1.48,9.69.35,1.46.2,2.36-.44,3.47-1.2,2.07-2.38,4.15-3.45,6.26-.85,1.72-1.22,3.51-.46,5.46.2.59,0,1.53-.33,2.12-2.73,4.87-3.14,10-1.77,15.39.15.63.13,1.33.09,1.99-.22,3.25-.46,6.5-.72,9.76-.04.68.02,1.42-.22,2.01-1.4,3.25-1.92,6.72-2.47,10.21-.41,2.79-.35,5.57.59,8.14,1.16,3.12,1.33,6.33,1.59,9.58.2,2.92.59,5.87,2.03,8.42.83,1.48,1.16,2.99,1.33,4.63.39,3.45,1.31,6.74,3.03,9.73,2.29,3.88,5.85,5.13,9.73,3.06,2.1-1.11,3.99-2.71,5.65-4.45,2.03-2.12,3.67-4.63,5.48-6.96.83-1.05,1.68-2.1,2.55-3.12.96-1.13,2.18-2.12,2.92-3.38,5.11-8.84,9.58-18.01,13.51-27.5,1.16-2.82,2.53-5.59,4.21-8.1,1.62-2.38,3.47-4.58,5.33-6.81.15-.2.31-.37.46-.55.22,1.96-.11,3.78-.59,5.63-.39,1.48-.17,2.66.87,3.23.41.24.81.55,1.18.79.15,4.08-.04,4.39-2.27,4.04-1.57-.26-3.16-.5-5.11-.79.22,6.13,2.34,7.66,4.32,9.38.76,2.31,1.55,2.64,1.07,4.8-.61,2.68-.55,2.88,1.18,4.08.7.5.98.96.63,2.42-1.77-.35-3.54-.65-5.28-1.05-.68-.15-1.4-.85-1.81.59-.37,1.31-.07,2.51.61,3.25.96,1.03,1.96,1.96,3.03,2.64,1.68,1.09,2.07,1.81,1.86,4.54-.09,1.2-.37,2.38-.65,3.51-.39,1.59-.07,2.62.9,3.21.52.33,1.33.22,1.11,1.88-2.23,1.4-4.47-.94-6.94-.22.15,6.31,3.6,5.76,6.13,7.68-.15,1.55-.24,3.23-.52,4.82-.55,3.03-.59,2.99,1.18,4.41.33.24.52.85,1.16,1.92-2.95-.52-5.37-.96-7.64-1.35-.63,2.05-.26,3.38.57,4.28.83.92,1.7,2.03,2.64,2.23,1.96.44,2.33,2.64,2.47,4.95.11,1.64-.22,3.38-.5,5.02-.5,2.75-.55,3.03,1.18,4.12,1.24.81,1.24,1.86.83,3.38-3.23-.61-6.35-1.2-9.49-1.79-.76-.15-1.64-.59-2.03.94-.39,1.62.37,2.68,1.11,3.21,1.55,1.09,3.17,1.88,4.78,2.71.61.33,1.27.46,1.99.7-.68,4.47-.96,8.53.07,12.66,1.03,4.21,3.36,6.44,5.5,8.82-1.16.94-2.4,1.33-2.95,2.55-.74,1.62-1.37,3.4-1.92,5.24-.59-.48-1.2-.98-1.81-1.53-.61-.52-1.09-1.2-1.68-1.77-1.31-1.24-2.55-2.58-3.95-3.69-.9-.74-1.96-1.31-3.06-1.72-1.42-.52-2.47-.07-3.16,1.29-.35.7-.7,1.53-.72,2.29-.04,3.25-.26,6.53.11,9.73.37,3.3,1.64,6.31,4.85,8.03,1.16.61,1.53,1.75,1.62,2.97.09,1.27.02,2.55.28,3.78.28,1.29.72,2.6,1.37,3.75,1.16,2.03,2.44,3.99,3.82,5.89.65.89,1.55,1.77,2.53,2.23,1.29.59,2.07,1.46,2.49,2.71.98,2.97,1.92,5.96,2.84,8.97.48,1.53,2.66,3.54,4.06,3.58,1.55.07,4.15-1.81,4.61-3.27.89-2.92,1.75-5.85,2.82-8.71.37-1.03,1.11-2.34,2.01-2.66,1.9-.72,2.86-2.1,3.8-3.67.92-1.55,1.9-3.06,2.95-4.54,1-1.44,1.59-3.01,1.59-4.8,0-.81.04-1.62.09-2.44.07-1.72.63-3.12,2.31-3.97,1.59-.83,2.66-2.27,3.14-3.93.65-2.23,1.2-4.54,1.4-6.85.22-2.42,0-4.87-.02-7.31-.15-.37-.28-.74-.41-1.11-1.99-2.23-3.08-2.42-5.54-.85-1,.63-1.92,1.37-2.77,2.16-1.18,1.11-2.25,2.36-3.4,3.51l-.37.37c-.17-.55-.31-1.09-.46-1.66-.63-2.42-1.77-3.64-3.38-3.84-.33-.04-.65-.24-1.51-.55,6.02-4.95,7.62-12.31,5.91-21.8.79-.26,1.4-.35,1.96-.65,1.4-.74,2.79-1.48,4.1-2.47.76-.55,1.55-1.53,1.27-3.12-.31-1.83-1.31-1.31-2.14-1.13-.85.17-1.68.35-2.53.48-2.14.37-4.28.7-6.33,1.05-1.13-2.79.79-2.92,1.29-4.26-.65-4.1-1.2-8.18-.04-12.16,4.37-2.27,5.24-3.67,4.5-7.29-2.2-.22-4.41,1.55-7.07.52.79-.96,1.29-1.55,1.75-2.12q-.68-6.05-.26-8.18c1.81-1.27,3.47-2.23,5-3.58,1.03-.89,1.44-2.47.63-4.45-2.38-.02-4.69,1.77-7.42.24.72-1.03,1.22-1.75,1.62-2.31-.17-2.92-.35-5.7-.5-8.38,6.09-2.66,6.74-3.45,6.46-7.94-1.68.33-3.21.72-4.74.85-.87.07-2.05.28-2.29-1.51-.09-.63.85-1.59,1.46-2.62-.35-3.01-1.24-6.33-.44-8.93,2.05-1.46,3.71-2.42,5.24-3.8,1.05-.94,1.42-2.53.44-4.5-2.03.46-4.08.94-6.07,1.37-1.22-3.91-1.2-3.99.52-5.91-.13-2.88-.44-5.67-.33-8.45v-.37h.02c.13.13.24.26.37.41l.07.07.04.04c4.04,4.85,7.79,9.84,10.13,15.95,3.47,9.1,7.94,17.72,12.7,26.17.7,1.27,1.53,2.44,2.44,3.54,1.16,1.42,2.55,2.64,3.69,4.08,1.77,2.14,3.27,4.56,5.15,6.55,1.75,1.79,3.71,3.47,5.85,4.63,3.88,2.12,7.57.92,9.69-3.06,1.22-2.29,2.12-4.87,2.66-7.42.65-2.92,1.33-5.74,2.36-8.56,1.03-2.84,1.09-6.05,1.62-9.08.35-2.01.59-4.04,1.13-6,.76-2.75,1.18-5.5.92-8.38Zm-7.75-37.58c2.92,4.08,2.79,6.68-.59,9.76-5.06,4.61-10.67,8.34-16.98,10.67-5.13,1.88-10.28,1.35-14.86-1.83-5.04-3.49-9.93-7.29-14.86-11-.76-.59-1.48-1.37-1.94-2.25-.59-1.18.11-2.14,1.37-1.79.92.26,1.77.85,2.62,1.33,2.75,1.55,5.39,3.3,8.23,4.63,5.61,2.68,11.39,3.14,17.13.39,5.81-2.77,11.59-5.67,17.35-8.51.81-.41,1.59-.89,2.53-1.4Zm-4.21-13.07c.33.5.61,1.03.83,1.57.92,2.25.65,3.43-1.24,4.93-3.62,2.86-7.55,5.17-11.81,6.85-4.1,1.62-8.36,2.51-13.29,2.64-5-.59-10.48-1.57-15.71-3.75-1.72-.72-3.12-1.88-4.17-3.51-1.53-2.4-.59-4.69,2.2-4.98,1.59-.15,3.25.09,4.87.31,2.29.31,4.52.87,6.81,1.16.07,0,.11.02.17.02.46.04.96.09,1.42.13.65.04,1.29.09,1.94.09h.5c3.54.04,7.05-.48,10.48-1.86,1.16-.46,2.31-.92,3.47-1.35,3.32-1.24,6.68-2.4,10-3.6,2.2-.81,2.31-.74,3.54,1.35Zm-111.31,1.68c.09-.24.22-.48.33-.7,1.51-3.14,1.66-3.21,4.89-2.03,2.79,1.03,5.59,2.01,8.38,3.03h.02c2.07.74,4.17,1.51,6.24,2.27,2.79,1.05,5.61,1.29,8.45,1.2.61,0,1.24-.04,1.88-.09.48-.02.96-.07,1.46-.13.52-.04,1.05-.09,1.59-.15,2.14-.24,4.21-.85,6.31-1.13,1.55-.2,3.12-.37,4.65-.17,2.64.33,3.64,2.62,2.07,4.85-.96,1.31-2.25,2.64-3.67,3.3-5.43,2.6-11.26,3.51-16.39,4.1-9.87-.44-17.85-3.97-25.03-9.62-1.77-1.4-2.01-2.55-1.18-4.71Zm-3.49,11.52c5.54,2.79,10.89,5.61,16.33,8.21,2.53,1.2,5.17,2.12,7.86,2.92,3.51,1.07,6.98.39,10.39-.7,3.78-1.24,7.2-3.27,10.54-5.48.96-.63,1.99-1.2,3.08-1.53,1.03-.31,1.62.44,1.27,1.51-.22.68-.65,1.42-1.22,1.83-5.59,4.21-11,8.69-16.89,12.42-4.28,2.73-9.28,2.79-14.03.96-6.05-2.34-11.44-5.94-16.35-10.3-3.56-3.19-3.75-5.67-.96-9.84Zm9.56,75.71c-3.3.5-5.94-1.48-7.88-6.29,1.11.46,1.86.76,2.6,1.05,2.51.94,5.06,1.31,7.7.55,1.16-.35,2.38-.41,3.67-.61-.31,2.47-3.23,4.89-6.09,5.3Zm2.75-9.87c-7.33-.07-12.2-3.82-13.31-10.63,7.7,8.1,16.04,8.51,24.95,3.1-.81,4.45-5.67,7.6-11.63,7.53Zm24.71-29.22c-1.31,1.96-2.71,3.88-4.04,5.85-2.68,3.97-5.67,7.55-9.69,10.11-3.84,2.42-7.97,3.45-12.29,2.05-7.86-2.53-12.57-8.38-14.97-16.43-.59-2.01-.2-4.04.11-6.05.17-.04.35-.09.52-.15,1.22,1.51,2.38,3.06,3.64,4.5,1.66,1.9,3.34,3.78,5.13,5.54,3.43,3.38,7.57,4.41,12.09,3.47,5.26-1.07,9.84-3.58,13.9-7.31,1.94-1.79,4.19-3.25,6.53-5.04.28,1.57-.31,2.55-.94,3.47Zm14.21-23.4c-.09.11-.17.2-.28.31-.07.09-.15.15-.26.24-2.03,2.03-4.13,4.06-6.18,6.09-1.96,1.96-3.93,3.88-5.78,5.96-4.3,4.87-9.36,8.53-15.41,10.67-1,.37-2.05.61-3.01,1.09-3.17,1.68-6.15,1.09-9.19-.46-5.96-3.01-10.54-7.25-11.92-14.38-.26-1.46-.26-2.99-.41-4.5.22-.07.41-.15.63-.22,3.47,3.49,7.53,6.05,11.74,8.34,2.1,1.13,4.32,2.07,6.55,2.88,3.08,1.09,6.2.63,9.15-.65,4.87-2.16,9.19-5.17,12.85-9.28,2.34-2.62,4.98-4.93,7.53-7.36.52-.52,1.2-.92,1.83-1.24.79-.41,1.48-.2,2.01.35.13.13.24.28.35.44.02.02.02.04.02.07-.11.57-.17,1.11-.22,1.66Zm-.35-34.99c-.31.48-.63.92-1.03,1.31-.07.09-.13.15-.22.24-.92.92-1.99,1.57-3.21,1.94-3.14.96-6.31,1.81-9.49,2.58-.5.11-1.03.22-1.51.28-1.07.17-2.12.28-3.19.31-4.34.13-8.56-1-12.59-2.86-2.73-1.22-5.33-2.84-7.86-4.5-.52-.35-1.03-.68-1.55-1.03-1.79-1.16-2.31-2.34-1.83-3.99.11-.46.31-.94.59-1.48.46-.87,1.09-1.68,1.68-2.62.81.28,1.53.5,2.2.72.09.04.15.07.24.09,4.02,1.46,8.12,2.79,12.07,4.41,3.21,1.33,6.48,1.75,9.73,1.64.22.02.41,0,.63,0,.46-.02.9-.07,1.33-.11.96-.07,1.9-.17,2.84-.33,1.86-.26,3.69-.76,5.57-1.03.09-.02.15-.02.24-.04.17-.02.37-.04.57-.07,1.03-.11,2.1-.15,3.1.04,2.27.5,2.95,2.42,1.68,4.5Zm-4.39-10c-3.32-.17-6.59-.15-9.89-.33v-.07c-4.34-.24-8.62-.87-12.79-2.68-2.51-1.11-4.98-2.36-7.33-3.82-2.18-1.4-2.68-3.32-1.83-5.41.5-1.22,1.35-2.1,2.44-2.44h.07c3.69.89,7.29,2.03,10.96,2.9,2.18.52,4.39.96,6.57,1.33,5.09.85,10.19,1.29,15.37,1.31.48.02.96.07,1.68.11.13.98.33,1.75.33,2.51.09,4.12-1.79,6.79-5.56,6.59Zm5.59-15.74c-.02.24-.07.52-.17.81-1.03-.07-2.03-.13-3.06-.17-.2-.02-.41-.04-.61-.04-1.64-.11-3.25-.22-4.87-.46-2.58-.37-5.15-1.03-7.73-1.46,0-.09,0,.09,0,0-2.47-.46-4.95-.92-7.42-1.35-1.37-.24-2.58-.85-2.95-2.51-.37-1.66.24-3.06,1.2-4.26.22-.28.46-.5.72-.65h.02c2.12,1.05,4.28,1.83,6.5,2.47,3.62,1.03,7.31,1.64,11.02,2.31,1.9.33,3.78,1.2,5.5,2.12,1.11.59,1.99,1.55,1.83,3.12v.09Zm-3.23-17.72c.07,3.97,1.11,5.13,2.34,5.96-.04.09-.07.15-.11.24-.15.37-.35.74-.52,1.09-1.05,1.88-2.79,3.06-4.91,2.75-2.99-.41-5.94-1.07-8.9-1.79-.55-.15-1.13-.96-1.35-1.59-1.27-3.91-.42-7.46,2.1-10.54,1.33-1.62,3.23-1.9,5.17-1.81,2.58.17,5.04.7,7.2,2.25,1.46,1.05,2.4,2.4,2.58,4.06-1.16-.07-2.33-1.11-3.58-.61Zm22.13-4.43c2.23-.98,4.58-1.44,6.98-1.22,2.01.17,3.58,1.11,4.63,2.97,1.18,2.05,1.81,4.21,1.66,6.46,0,.02-.02.04,0,.07-.04.68-.13,1.35-.33,2.03-.02.02-.02.04-.02.07-.04.17-.09.33-.15.5-.2.65-.72,1.51-1.27,1.68-2.73.85-5.52,1.51-8.29,2.23-3.08-.04-5.06-1.51-6.26-4.32-.09-.17-.15-.35-.22-.52-.04-.11-.09-.2-.11-.31.37-.37.72-.74,1.07-1.16.7-.87,1-2.4.44-4.3-.74-.02-1.46.31-2.2.55.37-2.07,1.72-3.67,4.08-4.71Zm-3.91,21.8c-.09-1.4.7-2.36,1.83-2.95,1.66-.87,3.47-1.57,5.26-2.01,2.23-.57,4.58-.59,6.79-1.2,1.33-.37,2.62-.76,3.91-1.2,2.14-.7,4.26-1.44,6.37-2.2.24-.09.46-.17.68-.22h.02c.81.33,1.42,1.13,1.88,2.55.74,2.18.02,3.97-1.94,4.74-.44.17-.89.26-1.35.35-2.51.44-5.04.87-7.55,1.31,0,.07.02-.07,0,0-2.4.37-4.8.96-7.18,1.33-2.01.28-4.02.41-6.02.52-.17.02-.37.02-.55.04-.11,0-.2.02-.31.02-.55.04-1.11-.07-1.66-.09-.09-.31-.13-.59-.17-.87v-.13Zm.17,7.18c4.85-.39,9.19-.68,13.51-1.11,1.03-.11,2.07-.24,3.12-.41,5.19-.76,10.3-2.12,15.37-3.58.89-.26,1.79-.55,2.68-.72h.02c1.27.35,2.27,1.35,2.73,2.75.57,1.81.13,3.4-1.46,4.71-.94.76-1.94,1.44-2.99,1.99-5.76,3.01-11.81,4.76-18.2,4.89v.04c-2.07.04-4.15.24-6.24.35-1.22.04-2.47.17-3.67,0-2.99-.39-4.39-1.79-4.85-4.91-.2-1.31-.02-2.68-.02-3.99Zm2.9,14.38c.81-.13,1.66-.11,2.49-.02.26.02.52.04.79.09.22.02.41.04.61.07,2.58.33,5.13.76,7.7,1.09.41.04.85.11,1.27.15.41.07.87.11,1.29.15.31.02.57.07.87.09h.2c2.25.09,4.5-.26,6.68-1.05,4.54-1.66,9.14-3.32,13.71-4.95.2-.07.37-.13.57-.2.65-.24,1.35-.44,2.1-.7.41.5.65.74.83,1,.63.96,1.09,1.77,1.35,2.49v.02c.85,2.14.02,3.45-2.77,5.46-.55.39-1.11.76-1.66,1.13-4.69,3.1-9.73,5.33-15.3,5.98-1.4.15-2.84.24-4.28.2h-.09c-1.09-.02-2.16-.13-3.21-.31-.04,0-.11-.02-.15-.04-3.49-.59-6.92-1.64-10.32-2.6-1.29-.37-2.42-1.09-3.34-2.07-.09-.09-.15-.15-.22-.24-.35-.37-.63-.74-.9-1.18-1.37-2.14-.65-4.12,1.79-4.56Zm.33,42.06c-.55-.55-1.11-1.09-1.64-1.66-.2-.17-.39-.37-.57-.55,0-.59-.07-1.18-.17-1.79-.02-.2-.07-.41-.11-.61.13-.15.28-.28.44-.37.48-.37,1.09-.44,1.72-.07.85.5,1.7,1.05,2.42,1.75,2.71,2.6,5.37,5.28,8.03,7.94,4.34,4.32,9.14,7.81,15.15,9.06,2.31.48,4.54.33,6.74-.55,5.46-2.1,10.35-5.13,14.91-8.86.83-.7,1.66-1.35,2.97-2.42-.04,6.96-2.14,12.33-7.12,16.15-1.99,1.53-4.19,2.66-6.39,3.84-2.31,1.22-4.69,1.33-7.14.28-1.88-.81-3.86-1.33-5.78-2.14-4.87-2.03-8.95-5.33-12.68-9.1-3.62-3.62-7.18-7.27-10.78-10.91Zm40.01,60c-2.97-.04-6.31-2.4-7.03-5.19,1,.07,2.01-.11,2.84.2,3.47,1.2,6.77.63,10-.87.26-.13.55-.2.96-.33-1.13,3.86-3.82,6.26-6.77,6.2Zm9.32-18.46c-.52,1.07-1.07,2.12-1.68,3.14-1.64,2.82-4.06,4.37-7.16,4.93-2.77.52-5.5.65-8.27,0-3.45-.81-6.2-3.27-7.79-7.27,9.12,5.57,17.42,5.22,25.23-2.29-.11.5-.13,1.03-.33,1.48Zm3.06-18.16c-2.12,6.31-5.78,11.26-11.68,14.3-4.71,2.42-9.34,2.25-13.97-.11-3.36-1.75-6.13-4.32-8.45-7.38-2.42-3.23-4.74-6.59-7.01-9.95-.48-.7-.65-1.64-.98-2.49.15-.11.33-.22.46-.35,2.4,1.88,4.85,3.71,7.18,5.65,4.74,3.91,9.89,6.74,16.06,6.94,3.45.13,6.55-1,8.99-3.51,2.58-2.64,4.95-5.48,7.4-8.25.59-.68,1.13-1.37,1.99-2.42.59,2.9.79,5.28,0,7.57Z"/><path class="cls-2" d="m118.24,792c-.25.96-.59,1.98-.76,3.03-.35,2.04-.77,4.08-.83,6.13-.05,1.41.02,2.71-.9,3.24.19,1.11.66,2.06.37,2.59-.68,1.25-.47,2.41-.32,3.67.1.81-.1,1.66-.18,2.6-1.36-.18-2.36-.31-3.83-.5,1.04.87,1.83,1.27,2.22,1.91.52.85-.56,1.37-.76,2-.89,2.81-1.49,5.71-2.15,8.59-.33,1.44-1.06,2.24-2.81,1.97.16-1.93-.29-3.76.48-5.75.64-1.64.37-3.64.49-5.48.02-.34-.17-.94-.05-1,1.9-1.04,1.07-3.37,2.32-4.77.57-.64.55-1.82.78-2.76.27-1.12,1.07-2.56.65-3.29-.76-1.32-.12-2.21.11-3.3.52-2.46,1.11-4.93,1.44-7.42.37-2.77,1.16-3.18,3.75-1.45Z"/><path class="cls-2" d="m101.29,812.88c1.28,1,2.85.76,4.3,1.08.64.14,1.51.39,1.78.87.44.8-.54,1.07-.99,1.59-.84.98-1.47,2.18-2.05,3.35-.61,1.22-1.05,2.52-1.83,3.72-.82-1.44-1-2.72-.05-4.13.78-1.17,1.59-2.43,1.12-4.16-1.32,0-2.16.54-2.63,1.76-.54,1.41-1.11,2.81-1.7,4.21-.13.29-.41.52-.82,1-.58-1.43-.7-2.59.02-3.69,1.02-1.56,1.63-3.18,1.08-5.16.73-.15,1.3-.28,1.88-.4,0,0-.11-.05-.11-.05Z"/><path class="cls-2" d="m97.63,812.35c.2-.58.29-1.22.62-1.72,1.31-2.03,2.67-4.02,4.07-5.99.28-.4.82-.61,1.35-.99.36.49.65.88,1,1.36.41-.36.8-.7,1.19-1.04,0,0-.07-.04-.07-.04,1.37.88,1.04,1.9.18,2.89-1.23,1.43-2.35,2.88-2.6,4.85-.15,1.14-1.15,1.19-2.07,1.2,0,0,.11.05.11.05-.25-.54-.5-1.08-.62-1.35-1.17.27-2.21.5-3.25.74,0,0,.1.03.1.03Z"/><path class="cls-2" d="m108.23,801.53c.41-1.04.98-2.05,1.19-3.13.36-1.85.5-3.75.75-5.76l3.13-.99c-.24,1-.45,1.73-.58,2.47-.43,2.4-.83,4.8-1.24,7.2-.12.71-.13,1.47-.41,2.11-.18.41-.74.89-1.16.9-.41.02-1.04-.41-1.22-.8-.29-.63-.3-1.39-.42-2.1,0,0-.04.1-.04.1Z"/><path class="cls-2" d="m108.28,801.43c-.17.49-.36.97-.5,1.47-.3,1.06-.97,1.37-1.99,1.03,0,0,.07.04.07.04.14-1.56.28-3.11.43-4.66-.09-.02-.19-.03-.28-.05-.45,1-.9,2.01-1.35,3.01-.72-2.12.38-3.82.78-5.84,1.12-.2,2.22-.4,3.34-.61-.19,2.06-.37,3.89-.54,5.71,0,0,.04-.11.04-.11Z"/><path class="cls-2" d="m106.9,813.24c-1.31-.17-1.85-.73-1.47-1.68.78-1.89,1.62-3.76,2.61-5.55.22-.4,1.15-.41,2.09-.71-.47,3.18-1.91,5.49-3.23,7.94Z"/><path class="cls-2" d="m108.66,790.49c.65.18,1.3.36,1.98.55-.89,1.39-1.74,2.69-2.64,4.1-1.23.17-1.56-.74-1.77-1.74-.19-.94.33-1.5,1.08-1.95.49-.3.96-.64,1.42-.97-.01,0-.06,0-.06,0Z"/><path class="cls-2" d="m97.53,812.32c.42.28.85.56,1.2.8-1.04,1.86-1.98,3.56-2.92,5.25-.14-.04-.28-.07-.42-.11,0-.49-.1-1.01.01-1.47.33-1.27.7-2.54,1.17-3.77.12-.31.7-.45,1.06-.67,0,0-.11-.03-.11-.03Z"/><path class="cls-2" d="m166.15,141.62c-1.46.96-3.23,1.72-4.95,2.01-3.19.52-6.46.92-9.69.87-6.74-.09-13.29,1.22-19.84,2.55-2.66.55-5.3,1.13-7.97,1.62-3.6.65-6.94,1.94-10.04,3.97-.44-.57-.74-.96-1.22-1.57-.33,1.16-.59,2.16-.89,3.32,2.33,1.2,4.8,1.09,7.18,1.29,0,0-.22,2.27-1.77,2.75-.15.04-.33.07-.48.09-.59.11-1.18.2-1.77.15-1.16-.09-2.29-.48-3.4-.83-2.92-.89-5.7-.68-8.38.83-.79.44-1.66.85-2.51.92-.7.04-1.75-.26-2.07-.76-.33-.52-.15-1.62.2-2.23.48-.83,1.27-1.53,2.05-2.12,2.01-1.55,4.08-2.97,6.11-4.47,1.27-.94,2.66-1.05,4.39-.63-.15-.52-.24-.89-.37-1.31.17-.15.35-.37.59-.46,9.17-3.47,18.49-6.15,28.39-6.5,4.43-.15,8.82-.72,13.25-.94,4.47-.22,8.16-2.01,11.33-5.09,1.07-1.03,2.25-1.94,3.43-2.92,1.88,3.16,1.13,7.73-1.55,9.47Z"/><path class="cls-2" d="m93.96,301.72c-2.28-.13-3.72-1.66-5.24-3.08-1.03-.96-2.1-1.88-3.19-2.85-.75.66-1.22,1.07-1.69,1.48-2.36,2.05-4.86,2.22-7.42.43-2.07-1.45-3.41-3.48-4.23-5.83-.6-1.7-.16-3.25,1.14-4.46,1.26-1.17,2.55-2.3,3.93-3.32,3.49-2.58,5.83-5.94,6.79-10.14,1.33-5.81,2.51-11.65,3.71-17.48,2.09-10.2,2.96-20.56,3.84-30.92.92-10.81,1.76-21.62,2.41-32.45.29-4.77-.12-9.57.05-14.35.16-4.68.55-9.37,1.06-14.03.24-2.14,1.48-3,3.81-3.05,1.25-.02,2.11-.33,3.05-1.25,2.27-2.2,5.08-2.61,8.05-1.65,6.47,2.1,9.55,7.73,7.79,14.32-.87,3.25-2.46,5.9-5.69,7.5-2.87,1.42-4.8,3.83-5.33,7.1-1.3,8.02-2.77,16.03-3.78,24.08-1.58,12.55-2.93,25.13-4.2,37.72-.9,8.9-1.47,17.84-2.29,26.74-.38,4.15.58,7.86,2.79,11.35.96,1.52,1.81,3.13,2.56,4.76.75,1.64.72,3.31-.34,4.99-.38-.05-.73-.06-1.04-.16-1.98-.64-2.13-.56-3.41,1-1.02,1.24-2.14,2.4-3.21,3.59l.08-.05Z"/><g class="cls-5"><path class="cls-1" d="m44.72,392.48c-.11.24-.22.46-.31.7.02-.11.04-.22.04-.35,0-.11.11-.24.26-.35Z"/><path class="cls-1" d="m43.89,406.23s-.05.01-.05,0h0s.02.01.03.02c.02,0,.02-.01.03-.03Z"/><path class="cls-1" d="m43.86,406.26s.03,0,.04.01l.04-.06s-.03,0-.05.02c-.02,0-.05.01-.05,0h0s.02.01.03.02Z"/><path class="cls-1" d="m31.31,426.09c-.63,3.09-2.41,5.59-4.28,8.03-.68.89-1.29,1.76-.98,3.04-.29.07-.57.17-.86.23-.31.06-.62.11-1.06.17-.26,1.61-.24,3.24-.85,4.63-.56,1.33-1.79,2.39-2.96,3.87.77.51,1.41,1.02,2.12,1.38.78.39,1.42.03,1.79-.89.33-.84.52-1.74.95-2.52.64-1.15,1.28-2.43,2.2-3.28.92-.86.63-2.15,1.28-2.68.82-.65,1.47-1.18,1.68-2.24.51-2.54,1.88-4.6,3.65-6.49,1.01-1.07,2.31-2.12,1.87-4.02,2-.35,2.71-1.87,3.25-3.72,1.59-5.44,3.75-8.56,8.39-12.22-.12.8-.12,1.44-.32,2.02-1.08,3.16-2.55,6.14-4.69,8.79-.66.81-1.21,1.79-1.6,2.76-.51,1.32-.06,2.38.89,3.12,1.33,1.05,2.89.45,3.06-1.42.26-2.95,1.76-5.41,3.03-7.96.84-1.68,2-3.21,3.04-4.79.59-.91,1.4-1.81.85-2.87-.55-1.06-1.52-1.77-2.75-1.39-.97.3-1.38-.14-2.04-.49-.92-.49-2.02-.62-3.06-.89-.64.92-1.58,1.81-1.84,2.79-1.07,4.1-3.68,7.2-6.31,10.27-1.79,2.09-1.98,2.3-1.95,4.82-1.44-.33-2.21.52-2.49,1.95Z"/><path class="cls-1" d="m95.81,305.09c-.9-.04-1.79-.04-2.68-.04-1.62.55-2.73-.17-3.6-1.48-.81-1.24-1.92-1.57-3.3-1.29-.68.15-1.33.33-2.01.48-.48-1.05-.22-2.86-1.92-2.47-2.07.48-3.84-.15-5.76-.7-1.79-.5-2.51.26-2.23,2.14.07.46.17.89.37,1.31.76,1.83.85,3.75.24,5.59-1.2,3.69-2.23,7.46-3.97,10.91-6.83,13.44-11.72,27.57-15.5,42.12-1.62,6.2-3.6,12.31-5.7,18.35-1.51,4.23-3.36,8.32-5.04,12.46-.11.24-.22.46-.31.7-.04.41-.2.79-.42,1.13,0,0,0,.02-.02.04-.46.79-1.18,1.44-1.57,2.29-.59,1.27-1.24,2.42-.33,4.1-.81-.24-1.18-.41-1.57-.48-1.31-.22-2.1.09-2.49,1.55-.83,3.06-2.71,5.5-4.08,8.23-1.29,2.6-2.99,4.67-5.17,6.42-2.01,1.62-2.01,1.79-1.27,4.41-.65-.2-1.2-.35-2.07-.61-.44,1.03-1.07,2.01-1.27,3.06-.59,2.88-1.53,5.52-3.64,7.68-.37.39-.44,1.13-.59,1.7-.09.22,0,.68-.07.7-2.05.72-1.57,2.51-1.88,3.99-.15.68-.46,1.37-.85,1.96-1.57,2.42-2.49,5.06-3.12,7.81-.2.85-.26,1.68.74,1.75.83.04,1.51-.5,1.51-1.44-.02-1.2.68-1.86,1.27-2.77.74-1.18,1.72-2.42,1.72-4.08,0-.7.55-1.51.96-2.18.79-1.24,2.27-2.1,2.14-3.88,2.38-1.31,1.96-3.99,2.97-5.96.63-1.24,1.62-2.36,2.58-3.36.98-.98,1.99-1.83,1.72-3.47,2.12-.07,2.95-1.62,3.45-3.47,1.2-4.39,3.34-8.16,6.77-11.13.76-.65,1.59-1.2,2.4-1.81.68-.85,1.27-1.7,1.27-2.55,0-.41-.13-.81-.48-1.22,1-.85,2.2-1.44,2.68-2.42.17-.33.2-.74.17-1.18l.11-.02h.02s.11-.02.17-.02l.61-.09.68-.09c.09,0,.15-.02.24-.04l.5-.07,1.79-.24.63-.09h.09c-.39.33-.76.87-1.22,1.68-.57,1.03-1.2,2.01-1.85,2.99-1.29,1.9-1.16,3.16.46,4.02,1.51.79,3.08.13,3.93-1.68.46-.94.83-1.92,1.24-2.88.17.07.33.13.48.2-.61,1.42-1.24,2.84-1.92,4.37,1.64.07,1.4,2.14,2.68,2.55l-.11.02c2.77.26,2.9.15,3.78-3.16,2.2-.63,3.17-1.72,3.69-4.19.02-.17.07-.33.09-.48,1.38.61,1.79.31,2.6-1.46.48-1.05.72-2.23,1.09-3.32.87-2.47,1.66-4.95,2.62-7.38,3.25-8.42,6.87-16.72,9.8-25.23,2.38-6.92,3.88-14.12,5.94-21.13,2.18-7.46,4.54-14.88,6.9-22.28,1.24-3.88,2.68-7.68,5.39-10.85.46-.52.79-1.24,1-1.9.44-1.44,0-2.05-1.48-2.12Zm-38.72,96.95c-.11-1.59.72-2.23,1.24-2.95.33-.44.55-.87.63-1.29.26.44.52.83.76,1.24-.79.92-1.64,1.83-2.64,2.99Zm26.32-96.88c-1.72,1.64-1.92,3.69-1.94,5.91-.07,3.38-.65,6.57-2.58,9.56-1.07,1.66-1.35,3.91-1.7,5.94-.74,4.45-1.2,8.97-1.99,13.4-1.51,8.36-2.77,16.81-4.87,25.01-2.27,8.93-5.65,17.53-9.82,25.78-.7,1.37-1.35,2.75-2.05,4.1-.13-.02-.26-.04-.37-.09.55-4.47.94-8.97,1.66-13.4,1.35-8.32,2.9-16.57,4.37-24.86,1.48-8.36,4.69-16.09,8.34-23.7,2.2-4.65,4.19-9.38,6.33-14.08,1.11-2.42,1.66-4.93,1.88-7.57.2-2.42.39-4.91,2.68-6.5.04.15.13.44.07.5Z"/><path class="cls-1" d="m14.03,408.49c1.96-1.44,3.55-2.71,5.23-3.79.7-.45,1.6-.63,2.41-.73,1.22-.16,2.55.15,3.08-1.68.02-.08.09-.24.1-.24,2.28.25,3.23-2.21,4.94-3.14,1.96-1.06,3.87-2.09,5.99-1.51.35.09.79-.07,1.28-.13.69-1.53.52-2.97.43-4.36-.08-1.23-.72-1.54-1.87-1.06-.63.26-1.23.67-1.81,1.07-2.4,1.61-4.88,2.79-7.63,2.85-1.12.02-1.97.59-2.89,1.5-2.15,2.12-4.46,4.05-6.76,5.99-.52.43-1.23.62-1.87.86-1.9.71-2.36,1.61-1.55,3.27.23.48.67.83.9,1.11Z"/><path class="cls-1" d="m56.43,409.45c-1.34.09-2.12.64-2.36,2.22-.62,3.96-2.2,7.58-5.09,10.69-1.24,1.33-1.35,2.03-1.13,4.22-1.02-.11-1.77.26-1.95,1.47-.11.77-.13,1.6-.45,2.3-.5,1.1-1.08,2.26-1.89,3.12-1.43,1.51-1.52,1.43-.49,2.99-.56-.17-1.13-.33-1.77-.52-.33.98-.54,1.83-.9,2.62-.37.8-.89,1.55-1.43,2.47.71.55,1.39,1.08,2.09,1.63.93-1.64,1.77-3.04,2.52-4.48.37-.73.65-1.29,1.53-1.61.46-.17.85-1.08,1.1-1.7.79-1.9,1.81-3.61,3.05-5.32,1.54-2.11,3.29-4.12,3.6-7.05.32-2.99,2.13-5.8,4.08-8.33,2.19-2.84,2.17-3.15-.6-4.7,0,0,.1,0,.1,0Z"/><path class="cls-1" d="m34.13,439.16c1.47,1.04,3.03.85,3.51-1.77.51-2.76,1.82-5.14,3.98-7.12,1.79-1.64,1.64-2.36-.34-3.24-2.87-1.28-3.42-.99-3.85,2.42-.3,2.4-1.15,4.33-3.03,6.02-1.83,1.64-1.79,2.68-.27,3.69Z"/><path class="cls-1" d="m27.53,448.45c-.37.36-.94.68-1.11,1.12-.44,1.14-.66,2.34-1.03,3.51-.26.83-.43,1.69.39,1.98.99.35,1.61-.46,1.76-1.42.22-1.46,1.05-2.37,2.11-3.26.57-.48,1.15-1.21,1.36-1.91.71-2.33,1.44-4.59,3.46-6.22.28-.23.36-.78.58-1.29-1.07-.93-1.95-2.05-3.94-1.51.08,2.68-1.14,4.87-2.99,6.86-.42.45-.39,1.36-.58,2.14Z"/><path class="cls-1" d="m23.24,449.3c-.9-1.55-2.17-1.49-3.32-1.68-.59,1.77-1.13,3.39-1.67,5.02-.27.82-.35,1.64.49,1.91.94.3,1.64-.36,1.83-1.32.32-1.62.85-3.03,2.67-3.93Z"/><path class="cls-1" d="m40.63,397.71c1.45-1.35,1.26-3.15,1.84-4.9-1.3-.29-2.38-.33-3.19.94-.6.94.03,2.67,1.35,3.96Z"/><path class="cls-1" d="m38.42,441.78c-.75,1.53-1.2,2.57-1.77,3.55-.46.8-.7,1.53.09,1.95.71.38,1.18-.26,1.62-.88.7-.97,1.46-1.9,2.4-3.1-.79-.51-1.56-1.01-2.35-1.52Z"/></g><path class="cls-2" d="m291.63,291.87c-.83,2.36-2.16,4.39-4.23,5.83-2.58,1.79-5.06,1.64-7.42-.44-.48-.39-.94-.81-1.7-1.46-1.07.96-2.14,1.88-3.16,2.84-1.53,1.42-2.95,2.95-5.22,3.1-1.05-1.18-2.16-2.31-3.16-3.54-1.27-1.57-1.42-1.66-3.4-1-.33.11-.68.11-1.05.15-1.07-1.68-1.09-3.34-.35-4.98.76-1.64,1.62-3.25,2.58-4.78,2.2-3.47,3.16-7.2,2.79-11.35-.83-8.9-1.4-17.83-2.29-26.74-1.29-12.59-2.64-25.16-4.21-37.71-1-8.05-2.49-16.06-3.78-24.09-.55-3.27-2.47-5.67-5.33-7.09-3.23-1.59-4.82-4.26-5.7-7.51-1.77-6.59,1.31-12.22,7.79-14.32,2.97-.96,5.78-.55,8.05,1.66.94.89,1.79,1.22,3.06,1.24,2.31.04,3.56.89,3.8,3.03.52,4.67.89,9.34,1.07,14.03.15,4.78-.24,9.58.04,14.36.65,10.83,1.48,21.63,2.4,32.43.9,10.37,1.77,20.71,3.84,30.93,1.2,5.83,2.38,11.68,3.71,17.48.96,4.21,3.32,7.57,6.79,10.15,1.37,1,2.68,2.14,3.93,3.32,1.31,1.2,1.75,2.75,1.16,4.45Z"/><path class="cls-1" d="m269.93,301.77l-.09-.04h.04l.04.04Z"/><g class="cls-5"><path class="cls-1" d="m319.4,393.17c-.09-.24-.2-.48-.31-.72.15.13.26.26.26.37,0,.13.02.24.04.35Z"/><path class="cls-1" d="m319.93,406.23s.05.01.05,0h0s-.02.01-.03.02c-.02,0-.02-.01-.03-.03Z"/><path class="cls-1" d="m319.96,406.26s-.03,0-.04.01l-.04-.06s.03,0,.05.02c.02,0,.05.01.05,0h0s-.02.01-.03.02Z"/><path class="cls-1" d="m332.51,426.09c.63,3.09,2.41,5.59,4.28,8.03.68.89,1.29,1.76.98,3.04.29.07.57.17.86.23.31.06.62.11,1.06.17.26,1.61.24,3.24.85,4.63.56,1.33,1.79,2.39,2.96,3.87-.77.51-1.41,1.02-2.12,1.38-.78.39-1.42.03-1.79-.89-.33-.84-.52-1.74-.95-2.52-.64-1.15-1.28-2.43-2.2-3.28-.92-.86-.63-2.15-1.28-2.68-.82-.65-1.47-1.18-1.68-2.24-.51-2.54-1.88-4.6-3.65-6.49-1.01-1.07-2.31-2.12-1.87-4.02-2-.35-2.71-1.87-3.25-3.72-1.59-5.44-3.75-8.56-8.39-12.22.12.8.12,1.44.32,2.02,1.08,3.16,2.55,6.14,4.69,8.79.66.81,1.21,1.79,1.6,2.76.51,1.32.06,2.38-.89,3.12-1.33,1.05-2.89.45-3.06-1.42-.26-2.95-1.76-5.41-3.03-7.96-.84-1.68-2-3.21-3.04-4.79-.59-.91-1.4-1.81-.85-2.87.55-1.06,1.52-1.77,2.75-1.39.97.3,1.38-.14,2.04-.49.92-.49,2.02-.62,3.06-.89.64.92,1.58,1.81,1.84,2.79,1.07,4.1,3.68,7.2,6.31,10.27,1.79,2.09,1.98,2.3,1.95,4.82,1.44-.33,2.21.52,2.49,1.95Z"/><path class="cls-1" d="m349.83,447.17c-.63-2.75-1.57-5.39-3.14-7.81-.37-.59-.7-1.29-.85-1.96-.31-1.48.17-3.27-1.86-3.99-.07-.02,0-.48-.07-.7-.17-.57-.24-1.31-.61-1.7-2.12-2.16-3.03-4.8-3.62-7.68-.22-1.05-.85-2.03-1.27-3.06-.87.26-1.42.41-2.07.61.72-2.62.74-2.79-1.29-4.41-2.18-1.75-3.88-3.82-5.17-6.42-1.35-2.73-3.25-5.17-4.06-8.23-.39-1.46-1.2-1.77-2.51-1.55-.39.07-.76.24-1.57.48.92-1.68.26-2.84-.33-4.1-.37-.81-1.05-1.46-1.53-2.2,0-.02-.02-.02-.02-.02-.22-.37-.39-.79-.46-1.24-.09-.24-.2-.48-.31-.72-1.68-4.12-3.54-8.21-5.02-12.44-2.12-6.05-4.1-12.16-5.72-18.36-3.75-14.56-8.66-28.68-15.47-42.12-1.75-3.45-2.79-7.22-3.99-10.91-.59-1.83-.5-3.75.26-5.59.17-.41.31-.85.37-1.31.26-1.88-.44-2.64-2.25-2.14-1.9.55-3.67,1.18-5.76.7-1.7-.39-1.44,1.42-1.92,2.47-.65-.15-1.33-.33-2.01-.48-1.35-.28-2.49.04-3.3,1.29-.85,1.31-1.99,2.03-3.58,1.48-.89,0-1.79,0-2.68.04-1.48.07-1.94.68-1.48,2.12.22.65.55,1.37.98,1.9,2.73,3.16,4.17,6.96,5.39,10.85,2.36,7.4,4.71,14.82,6.9,22.28,2.07,7.01,3.56,14.21,5.94,21.13,2.95,8.51,6.55,16.81,9.82,25.23.94,2.42,1.75,4.91,2.6,7.38.37,1.09.61,2.27,1.09,3.32.79,1.77,1.22,2.07,2.6,1.46.02.15.07.31.09.48.52,2.47,1.48,3.56,3.69,4.19.89,3.32,1,3.43,3.78,3.16l-.09-.02c1.27-.41,1.03-2.49,2.66-2.55-.68-1.53-1.29-2.95-1.92-4.37.15-.07.33-.13.48-.2.41.96.81,1.94,1.24,2.88.87,1.81,2.44,2.47,3.95,1.68,1.62-.85,1.72-2.12.44-4.02-.65-.98-1.29-1.96-1.86-2.99-.46-.81-.83-1.35-1.22-1.68h.09l.63.09,1.81.24.48.07c.09.02.15.04.24.04l.68.09.63.09c.07,0,.13.02.17.02h.02l.09.02c-.02.44,0,.85.17,1.18.48.98,1.7,1.57,2.68,2.42-.33.39-.46.81-.46,1.22,0,.83.57,1.7,1.27,2.55h-.04c.83.61,1.66,1.16,2.42,1.81,3.43,2.97,5.57,6.74,6.77,11.13.52,1.86,1.33,3.4,3.47,3.47-.28,1.64.74,2.49,1.7,3.47.98,1,1.94,2.12,2.58,3.36,1,1.96.59,4.65,2.99,5.96-.13,1.79,1.35,2.64,2.12,3.88.44.68.96,1.48.96,2.18,0,1.66.98,2.9,1.75,4.08.57.92,1.27,1.57,1.24,2.77,0,.94.68,1.48,1.53,1.44.98-.07.94-.89.74-1.75Zm-56.35-82.19c-2.07-8.21-3.36-16.65-4.87-25.01-.79-4.43-1.22-8.95-1.99-13.4-.35-2.03-.63-4.28-1.7-5.94-1.92-2.99-2.51-6.18-2.55-9.56-.04-2.23-.24-4.28-1.96-5.91-.07-.07.04-.35.07-.5,2.29,1.59,2.51,4.08,2.71,6.5.2,2.64.76,5.15,1.88,7.57,2.14,4.69,4.1,9.43,6.33,14.08,3.62,7.62,6.85,15.34,8.34,23.7,1.44,8.29,2.99,16.54,4.34,24.86.72,4.43,1.13,8.93,1.68,13.4-.13.04-.26.07-.39.09-.68-1.35-1.35-2.73-2.05-4.1-4.17-8.25-7.53-16.85-9.82-25.78Zm10.61,34.07c.26-.41.5-.81.76-1.24.09.41.33.83.65,1.29.52.72,1.33,1.35,1.22,2.95-1-1.16-1.86-2.07-2.64-2.99Zm6.29-1.53c-.26.15-.5.33-.83.52-.07-.15-.15-.28-.2-.41.52-.15,1.05-.31,1.55-.37-.17.09-.33.17-.52.26Z"/><path class="cls-1" d="m349.78,408.49c-1.96-1.44-3.55-2.71-5.23-3.79-.7-.45-1.6-.63-2.41-.73-1.22-.16-2.55.15-3.08-1.68-.02-.08-.09-.24-.1-.24-2.28.25-3.23-2.21-4.94-3.14-1.96-1.06-3.87-2.09-5.99-1.51-.35.09-.79-.07-1.28-.13-.69-1.53-.52-2.97-.43-4.36.08-1.23.72-1.54,1.87-1.06.63.26,1.23.67,1.81,1.07,2.4,1.61,4.88,2.79,7.63,2.85,1.12.02,1.97.59,2.89,1.5,2.15,2.12,4.46,4.05,6.76,5.99.52.43,1.23.62,1.87.86,1.9.71,2.36,1.61,1.55,3.27-.23.48-.67.83-.9,1.11Z"/><path class="cls-1" d="m307.39,409.45c1.34.09,2.12.64,2.36,2.22.62,3.96,2.2,7.58,5.09,10.69,1.24,1.33,1.35,2.03,1.13,4.22,1.02-.11,1.77.26,1.95,1.47.11.77.13,1.6.45,2.3.5,1.1,1.08,2.26,1.89,3.12,1.43,1.51,1.52,1.43.49,2.99.56-.17,1.13-.33,1.77-.52.33.98.54,1.83.9,2.62.37.8.89,1.55,1.43,2.47-.71.55-1.39,1.08-2.09,1.63-.93-1.64-1.77-3.04-2.52-4.48-.37-.73-.65-1.29-1.53-1.61-.46-.17-.85-1.08-1.1-1.7-.79-1.9-1.81-3.61-3.05-5.32-1.54-2.11-3.29-4.12-3.6-7.05-.32-2.99-2.13-5.8-4.08-8.33-2.19-2.84-2.17-3.15.6-4.7,0,0-.1,0-.1,0Z"/><path class="cls-1" d="m329.68,439.16c-1.47,1.04-3.03.85-3.51-1.77-.51-2.76-1.82-5.14-3.98-7.12-1.79-1.64-1.64-2.36.34-3.24,2.87-1.28,3.42-.99,3.85,2.42.3,2.4,1.15,4.33,3.03,6.02,1.83,1.64,1.79,2.68.27,3.69Z"/><path class="cls-1" d="m336.29,448.45c.37.36.94.68,1.11,1.12.44,1.14.66,2.34,1.03,3.51.26.83.43,1.69-.39,1.98-.99.35-1.61-.46-1.76-1.42-.22-1.46-1.05-2.37-2.11-3.26-.57-.48-1.15-1.21-1.36-1.91-.71-2.33-1.44-4.59-3.46-6.22-.28-.23-.36-.78-.58-1.29,1.07-.93,1.95-2.05,3.94-1.51-.08,2.68,1.14,4.87,2.99,6.86.42.45.39,1.36.58,2.14Z"/><path class="cls-1" d="m340.57,449.3c.9-1.55,2.17-1.49,3.32-1.68.59,1.77,1.13,3.39,1.67,5.02.27.82.35,1.64-.49,1.91-.94.3-1.64-.36-1.83-1.32-.32-1.62-.85-3.03-2.67-3.93Z"/><path class="cls-1" d="m323.19,397.71c-1.45-1.35-1.26-3.15-1.84-4.9,1.3-.29,2.38-.33,3.19.94.6.94-.03,2.67-1.35,3.96Z"/><path class="cls-1" d="m325.4,441.78c.75,1.53,1.2,2.57,1.77,3.55.46.8.7,1.53-.09,1.95-.71.38-1.18-.26-1.62-.88-.7-.97-1.46-1.9-2.4-3.1.79-.51,1.56-1.01,2.35-1.52Z"/></g><path class="cls-2" d="m249.95,624.06c-.59,2.53-1.2,5.17-1.09,7.73.35,8.58,1.07,17.11,1.57,25.67.35,6.02.92,12.07.83,18.09-.15,9.32-.81,18.66-1.24,28-.37,8.16-.63,16.35-1.16,24.51-.46,6.9-1.33,13.75-1.83,20.65-.44,6.26-.11,12.44,2.84,18.25.76,1.51,1.05,3.32,1.31,5.04.31,2.14-.35,3.84-2.62,4.17.48,1.96,1,3.73,1.31,5.54.15.83.04,1.75-.15,2.58-.33,1.27-1.13,1.79-2.4,1.16-.46-.22-.87-.48-1.29-.7-1.35-1.29-2.88-1.94-4.71-1.16-.63.5-1.2,1.05-1.83,1.55.7.24,1.42.37,2.2.44,2.23.15,4.15.98,5.83,2.34.79-.22,1.48-.39,2.16-.59,2.79-.81,4.21.15,4.63,3.16-2.36-.79-5.13.98-7.29-1.22-1.16,1.22-2.58,1.22-4.04,1.13-1.31-.09-2.66-.33-3.82.61,4.76.13,6.42,2.86,4.15,6.81-1.77-.79-3.47-2.31-5.89-.65,1.16.17,2.01.26,2.86.46,4.02.92,5,3.06,3.1,6.66-.87,1.64-1.31,3.3-1.03,5.19.2,1.31.89,2.9-1,3.73-.13.07-.02.65-.07.98-.07.59-.15,1.18-.24,1.81,2.64,1.51,2.68,1.77.79,4.39.22.52.5,1.07.65,1.68.24.94-.13,1.57-1.11,1.81-1.16.28-2.42-.26-2.92-1.31-.26-.57-.28-1.37-.7-1.72-1.7-1.4-1.55-3.03-.61-4.93-1.66-.33-2.71-1.07-2.47-2.77-2.27-1.62-.68-2.9.39-4.17.96-1.13,1.13-2.36.98-3.78-.17-1.59-.2-3.23-.33-4.82-.04-.48-.13-1.22-.44-1.37-1.2-.61-.98-1.59-.87-2.58.35-2.88,1.64-4.93,4.74-5.41-.96.04-1.92,0-2.86.15-.72.09-1.37.46-2.07.59-2.2.39-3.38-.41-3.45-2.62-.04-1.42.17-2.9.55-4.26.72-2.53,2.29-3.36,4.15-2.23,0-.04.02-.11.02-.15.35-1.94.79-3.84,1.22-5.87-.55.5-1.11.98-1.66,1.48-2.23,2.03-3.47,1.79-4.37-1.16-.5-1.64-.85-3.45-.68-5.13.46-4.06,1.18-8.1,1.99-12.09,1.83-9.19,3.27-18.38,2.77-27.81-.59-11.37-1.03-22.76-1.46-34.16-.46-12.44-.76-24.9-1.31-37.36-.35-7.68-.61-15.36-2.53-22.89-1.77-6.98-3.21-14.01-7.42-20.14-1.68-2.42-1.96-5.37-1.68-8.56,1.46-.15,2.77-.26,4.71-.46-3.08-1.59-4.12-4.26-5.28-6.92-2.31-5.37-2.05-10.48,1.55-15.15,2.2-2.84,3.54-6.02,4.32-9.45.81-3.54,1.68-7.03,2.29-10.56,4.28-23.81,6.35-47.8,6.33-72-.04-14.49.41-29.01.46-43.5.02-3.67-.26-7.46-1.24-10.96-.87-3.03-1.4-5.78-.35-8.8,1.29-3.6.31-6.92-1.59-10.02-1.62-2.62-3.16-3.3-6.15-2.71-1.81.37-3.58.92-5.37,1.37-2.38.57-3.78-.17-3.88-2.53-.24-4.63.26-9.17,2.92-13.18,1.53-2.25,3.54-3.86,6.29-4.41,3.86-.81,5.5.46,5.61,4.41.11,3.45,2.47,5.74,6.09,5.91,2.2-3.34,3.88-4.02,7.86-3.19,4.65.98,7.07,4.26,8.34,8.49,1.7,5.67,1.33,11.37-.41,16.98-.72,2.31-1.79,4.54-2.42,6.87-.61,2.23-1.03,4.54-1.18,6.83-.24,3.8-.2,7.6-.28,11.39-.31,11.76-.57,23.53-.94,35.31-.39,11.48-.96,22.94-1.44,34.42-.55,13.71-1.05,27.41-1.64,41.12-.24,5.52,1.68,9.95,5.65,13.82,5.96,5.76,6.18,15.76.83,21.93l-6.2,1.7c-.63-.31-1.29-.61-2.2-1.03.44-1.05.87-1.96,1.24-2.92.96-2.44,1.92-4.89,2.82-7.33,1.9-5.19-3.19-12.07-9.47-11.68-6.55.39-10.39,3.43-11.72,10.35-.48,2.64.31,5.02,2.14,7.01.79.85,1.62,1.68,2.4,2.55,1.55,1.72,1.57,2.86,0,4.52-.46.46-1.05.85-1.77,1.35,2.55-.2,3.56-1.46,3.27-4.06-.17-1.48-.76-3.01-1.48-4.32-1.94-3.45-3.06-6.96-1.48-10.85.39-.96.94-1.96,1.7-2.64,4.8-4.39,13.03-2.25,15.19,3.84.74,2.07.35,4.06-.41,5.98-.57,1.42-1.4,2.77-2.14,4.12-.5.94-1.11,1.83-1.57,2.77-.5,1.05-1.24,2.34-.26,3.25.61.59,1.9.5,3.08.2l6.33-1.16c1.18.15,2.34.28,3.62.44-.11.92-.13,1.51-.26,2.03-1.42,5.37-2.95,10.69-4.26,16.09Z"/><path class="cls-2" d="m244.78,792c.25.96.59,1.98.76,3.03.35,2.04.77,4.08.83,6.13.05,1.41-.02,2.71.9,3.24-.19,1.11-.66,2.06-.37,2.59.68,1.25.47,2.41.32,3.67-.1.81.1,1.66.18,2.6,1.36-.18,2.36-.31,3.83-.5-1.04.87-1.83,1.27-2.22,1.91-.52.85.56,1.37.76,2,.89,2.81,1.49,5.71,2.15,8.59.33,1.44,1.06,2.24,2.81,1.97-.16-1.93.29-3.76-.48-5.75-.64-1.64-.37-3.64-.49-5.48-.02-.34.17-.94.05-1-1.9-1.04-1.07-3.37-2.32-4.77-.57-.64-.55-1.82-.78-2.76-.27-1.12-1.07-2.56-.65-3.29.76-1.32.12-2.21-.11-3.3-.52-2.46-1.11-4.93-1.44-7.42-.37-2.77-1.16-3.18-3.75-1.45Z"/><path class="cls-2" d="m261.73,812.88c-1.28,1-2.85.76-4.3,1.08-.64.14-1.51.39-1.78.87-.44.8.54,1.07.99,1.59.84.98,1.47,2.18,2.05,3.35.61,1.22,1.05,2.52,1.83,3.72.82-1.44,1-2.72.05-4.13-.78-1.17-1.59-2.43-1.12-4.16,1.32,0,2.16.54,2.63,1.76.54,1.41,1.11,2.81,1.7,4.21.13.29.41.52.82,1,.58-1.43.7-2.59-.02-3.69-1.02-1.56-1.63-3.18-1.08-5.16-.73-.15-1.3-.28-1.88-.4,0,0,.11-.05.11-.05Z"/><path class="cls-2" d="m265.39,812.35c-.2-.58-.29-1.22-.62-1.72-1.31-2.03-2.67-4.02-4.07-5.99-.28-.4-.82-.61-1.35-.99-.36.49-.65.88-1,1.36-.41-.36-.8-.7-1.19-1.04,0,0,.07-.04.07-.04-1.37.88-1.04,1.9-.18,2.89,1.23,1.43,2.35,2.88,2.6,4.85.15,1.14,1.15,1.19,2.07,1.2,0,0-.11.05-.11.05.25-.54.5-1.08.62-1.35,1.17.27,2.21.5,3.25.74,0,0-.1.03-.1.03Z"/><path class="cls-2" d="m254.78,801.53c-.41-1.04-.98-2.05-1.19-3.13-.36-1.85-.5-3.75-.75-5.76-.93-.3-1.84-.58-3.13-.99.24,1,.45,1.73.58,2.47.43,2.4.83,4.8,1.24,7.2.12.71.13,1.47.41,2.11.18.41.74.89,1.16.9.41.02,1.04-.41,1.22-.8.29-.63.3-1.39.42-2.1,0,0,.04.1.04.1Z"/><path class="cls-2" d="m254.74,801.43c.17.49.36.97.5,1.47.3,1.06.97,1.37,1.99,1.03,0,0-.07.04-.07.04-.14-1.56-.28-3.11-.43-4.66.09-.02.19-.03.28-.05.45,1,.9,2.01,1.35,3.01.72-2.12-.38-3.82-.78-5.84-1.12-.2-2.22-.4-3.34-.61.19,2.06.37,3.89.54,5.71,0,0-.04-.11-.04-.11Z"/><path class="cls-2" d="m256.11,813.24c1.31-.17,1.85-.73,1.47-1.68-.78-1.89-1.62-3.76-2.61-5.55-.22-.4-1.15-.41-2.09-.71.47,3.18,1.91,5.49,3.23,7.94Z"/><path class="cls-2" d="m254.36,790.49c-.65.18-1.3.36-1.98.55.89,1.39,1.74,2.69,2.64,4.1,1.23.17,1.56-.74,1.77-1.74.19-.94-.33-1.5-1.08-1.95-.49-.3-.96-.64-1.42-.97.01,0,.06,0,.06,0Z"/><path class="cls-2" d="m265.49,812.32c-.42.28-.85.56-1.2.8,1.04,1.86,1.98,3.56,2.92,5.25.14-.04.28-.07.42-.11,0-.49.1-1.01-.01-1.47-.33-1.27-.7-2.54-1.17-3.77-.12-.31-.7-.45-1.06-.67,0,0,.11-.03.11-.03Z"/><path class="cls-2" d="m190.38,239.31s0,.02-.02.04v-.04h.02Z"/><path class="cls-2" d="m206.68,159.43c-.04.68-.13,1.35-.33,2.03.07-.68.17-1.35.33-2.03Z"/><path class="cls-2" d="m265.11,158.82c-.33.5-1.37.81-2.07.76-.85-.07-1.75-.48-2.51-.92-2.68-1.51-5.46-1.72-8.38-.83-1.11.35-2.27.74-3.43.83-.7.04-1.42-.09-2.14-.22-.11-.02-.2-.02-.28-.07-1.46-.41-1.33-2.73-1.33-2.73,2.31-.17,4.67-.11,6.94-1.27-.31-1.16-.59-2.16-.89-3.32-.48.61-.81,1-1.24,1.57-3.1-2.03-6.44-3.32-10.02-3.97-2.66-.48-5.33-1.07-7.97-1.62-6.57-1.33-13.1-2.64-19.84-2.55-3.25.04-6.5-.35-9.71-.87-1.72-.28-3.47-1.05-4.95-2.01-2.68-1.75-3.43-6.31-1.53-9.47,1.16.98,2.36,1.9,3.4,2.92,3.19,3.08,6.88,4.87,11.35,5.09,4.41.22,8.82.79,13.25.94,9.89.35,19.23,3.03,28.39,6.5.22.09.39.31.57.46-.11.41-.22.79-.35,1.31,1.72-.41,3.1-.31,4.37.63,2.03,1.51,4.12,2.92,6.13,4.47.79.59,1.55,1.29,2.05,2.12.35.61.5,1.7.2,2.23Z"/><path class="cls-2" d="m176.76,92.42c-2.02.92-3.16.57-4.32-1.32-1.57.65-2.09.53-3.37-.73-1.22.77-2.73.15-3.12-1.27-.03-.11-.09-.23-.08-.35.21-2.03-.26-4.1.44-6.1.13-.38.08-1.02-.17-1.29-1.35-1.49-2.64-3.11-4.23-4.3-1.63-1.22-3.62-1.39-5.41-.07-.75.55-1.18.33-1.56-.35-.91-1.64-1.8-3.28-2.71-4.92-.6-1.09-1.18-2.21-1.85-3.26-.41-.64-.35-1.11.05-1.7,1.49-2.17,2.71-4.48,3.29-7.08.51-2.24.43-4.43-.57-6.54-.17-.36-.41-.68-.76-.99-1,2.17-.38,4.45-.46,6.66-.14.09-.27.17-.41.26-.2-.33-.36-.69-.6-.99-2.21-2.65-3.39-5.76-3.67-9.14-.33-3.94-.59-7.91-.54-11.86.08-5.85,1.2-11.54,3.9-16.81,3.86-7.53,10.02-12.41,18.03-14.85,9.99-3.05,19.89-2.67,29.43,1.74,8.77,4.06,13.99,11.11,16.29,20.39,1.47,5.93,1.61,11.95.99,18.01-.19,1.83-.32,3.68-.65,5.49-.48,2.61-1.57,4.98-3.31,7.02-.26.3-.58.54-1.08.72.07-1.11.19-2.22.18-3.32,0-1.1-.14-2.2-.22-3.3-.14-.03-.28-.06-.42-.09-.24.37-.55.7-.72,1.1-1.29,2.94-1.03,5.89.2,8.75.7,1.63,1.64,3.16,2.53,4.7.34.59.48,1.06.11,1.71-1.41,2.51-2.77,5.06-4.15,7.59-.14.26-.32.5-.49.75-.42.62-.83.78-1.53.28-1.8-1.29-3.75-1.14-5.4.12-1.54,1.18-2.83,2.69-4.2,4.1-.45.46-.44,1.01-.2,1.65.27.74.37,1.56.44,2.35.08.91.04,1.84.06,2.76.02,1-.16,1.92-1.13,2.45-.72.39-1.46.78-2.13-.07-1.53,1.42-1.75,1.46-3.4.68-.93,1.93-2.25,2.37-4.29,1.4-1.66,1.44-3.01,1.66-4.36.73-1.71.88-2.81.7-4.44-.71Zm21.81-25.83c.83,0,1.67.04,2.5,0,1.65-.09,2.87-.85,3.53-2.42,1.41-3.33,1.39-6.64-.14-9.93-.65-1.39-1.82-2.03-3.28-2.08-3.41-.13-6.78.26-10.04,1.28-2.4.75-3.86,2.43-4.1,4.98-.11,1.21-.11,2.44-.02,3.64.17,2.23.65,2.78,2.84,3.38,2.85.78,5.74,1.32,8.71,1.16Zm-34.82.14c3.19.02,6.28-.56,9.3-1.51.91-.29,1.84-.67,2.06-1.76.38-1.91.48-3.84.07-5.76-.46-2.12-1.76-3.58-3.83-4.2-3.32-1.01-6.72-1.52-10.2-1.34-1.42.07-2.63.68-3.25,2.02-1.64,3.59-1.69,7.18.22,10.71.5.92,1.3,1.47,2.35,1.59,1.09.12,2.19.18,3.29.27Zm17.18,5.37c.12,0,.25,0,.37,0,.14.31.34.61.39.93.13.82.23,1.65.29,2.48.13,1.62.61,2.02,2.22,1.82.29-.04.59-.1.88-.16.93-.21,1.27-.57,1.02-1.51-.3-1.13-.64-2.3-1.23-3.3-.75-1.27-1.36-2.55-1.77-3.96-.29-.98-.75-1.94-1.27-2.82-.48-.81-.88-.8-1.38.02-.5.83-.96,1.73-1.2,2.66-.39,1.49-.95,2.86-1.83,4.12-.76,1.09-1.23,2.32-1.15,3.68.02.34.3.87.56.94.76.2,1.57.27,2.36.29.7.02,1.07-.41,1.1-1.13.03-.74.07-1.49.18-2.22.09-.62.3-1.23.45-1.84Z"/><path class="cls-4" d="m295.36,290.55s-17.74,15.8-42.84,11.59c-2.01-7.7-3.67-15.54-4.93-23.55,0,0-.85-42.06,1.96-69.8,3.71-5.7,5.37-11.63,5.57-17.57.83-25.03-24.47-50.37-34.13-59.1,2.1,1.59,4.43,3.01,6.92,4.21,7.46,3.58,15.12,6.81,22.87,9.58,25.95,9.36,34.83,22.65,31.86,49.15l-.02.02c-.07.79-.17,1.59-.28,2.4-4.23,31.17-.87,61.18,11.89,90.29.41.92.79,1.83,1.13,2.77Z"/></svg>