<?xml version="1.0" encoding="UTF-8"?><svg id="Lag_1" xmlns="http://www.w3.org/2000/svg" viewBox="0 0 391.14 896.12"><defs><style>.cls-1,.cls-2,.cls-3{fill:#fff;}.cls-4{fill:red;opacity:.39;}.cls-5,.cls-6,.cls-2{opacity:.22;}.cls-6,.cls-7{fill:none;}.cls-3{opacity:.15;}</style></defs><path class="cls-3" d="m391.12,447.18v.02c.02.24.02.45-.02.61-.17.94-.61,1.55-1.2,1.91-1.23.78-3.04.45-4.1-.05-5.58-2.47-12.11-2.85-16.7-8.86-.12-.12-.24-.28-.35-.42-.07.24-.14.49-.24.73-.31.94-.57,1.86-.73,2.76-.71,3.23-.61,6.15-.05,8.9.82,3.98,2.64,7.59,4.48,11.19.09.21.21.4.31.61,3.67,7.11,7.63,14.11,10.95,21.39,3.98,8.69,3.93,13.76-4.52,14.91-.78.09-1.63.16-2.5.19-1.48.02-9.05-2.94-11.73-2.31-2.31.57-3.65.73-5.02.24-.59-.24-1.32-.59-1.88-1.15l-.16-.24c-1.01-1.23-6.22-7.84-7.47-10.44l-14.3-20.02-.14-.24-.14-.19c-7.42-10.67-15.17-22.22-19.51-31.43-.19-.45-.38-.9-.59-1.37-.64-1.51-1.44-2.94-2.12-4.43-15.38-33.64-31.45-67.05-40.8-103.16-2.17-8.32-3.96-16.77-5.32-25.42-.07,25.65.85,51.14,4.59,76.21,1.01,6.83,2.43,13.64,3.98,20.42,1.51,6.6,3.13,13.19,4.69,19.79,3.06,12.79,5.8,25.61,6.62,38.56,2.43,37.65-.09,75.6-.57,113.43-.35,27.11-1.23,54.21-1.04,81.32.09,17.39,3.58,34.91,2.21,52.13-2.45,30.48-7.73,60.78-11.26,91.22-2.85,24.74-1.46,49.24,9.26,72.25,3.58,7.68,15.17,14.63,7.87,23.09-4.57,5.28-15.74,6.12-24.1,6.6-21.46,1.27-25.23-4.24-24.12-26.36,1.34-27.35-4-54.84,1.2-82.22.49-2.73-.87-5.84-1.46-8.74-7.54-37.46-19.13-74.4-13.97-113.45.54-4.05-1.15-8.39-1.93-12.56-6.93-37.13-14.37-74.16-20.66-111.38-3.3-19.55-4.59-39.44-6.88-59.79-2.21.09-2.97.14-6.12.28-3.16-.14-3.91-.19-6.13-.28-2.29,20.35-3.58,40.24-6.88,59.79-6.29,37.22-13.73,74.25-20.66,111.38-.78,4.17-2.47,8.5-1.93,12.56,5.16,39.06-6.43,76-13.97,113.45-.59,2.9-1.96,6.01-1.46,8.74,5.21,27.37-.14,54.87,1.2,82.22,1.11,22.12-2.66,27.63-24.12,26.36-8.36-.47-19.53-1.32-24.1-6.6-7.3-8.46,4.29-15.41,7.87-23.09,10.72-23.02,12.11-47.52,9.26-72.25-3.53-30.44-8.81-60.73-11.26-91.22-1.37-17.22,2.12-34.75,2.21-52.13.19-27.12-.68-54.21-1.04-81.32-.47-37.83-2.99-75.79-.57-113.43.82-12.96,3.56-25.77,6.62-38.56,1.55-6.6,3.18-13.19,4.69-19.79,1.55-6.78,2.97-13.59,3.98-20.42,3.75-25.07,4.66-50.56,4.59-76.21-1.37,8.65-3.16,17.1-5.32,25.42-9.35,36.11-25.42,69.52-40.8,103.16-.68,1.48-1.48,2.92-2.12,4.43-.21.47-.4.92-.59,1.37-4.33,9.21-12.09,20.75-19.51,31.43l-.14.19-.14.24-14.3,20.02c-1.25,2.59-6.45,9.21-7.47,10.44l-.16.24c-.57.57-1.3.92-1.88,1.15-1.37.49-2.71.33-5.02-.24-2.69-.64-10.25,2.33-11.73,2.31-.87-.02-1.72-.09-2.5-.19-8.46-1.15-8.5-6.22-4.52-14.91,3.32-7.28,7.28-14.28,10.95-21.39.09-.21.21-.4.31-.61,1.84-3.6,3.65-7.21,4.48-11.19.57-2.76.66-5.68-.05-8.9-.16-.9-.42-1.81-.73-2.76-.09-.24-.16-.49-.24-.73-.12.14-.24.31-.35.42-4.59,6.01-11.12,6.38-16.7,8.86-1.06.49-2.87.82-4.1.05-.59-.35-1.04-.97-1.2-1.91-.05-.17-.05-.38-.02-.61v-.02c.12-1.27,1.06-3.02,2.05-3.65,12.3-7.84,18.73-24.17,36-25.02,3.42-.16,5.8-1.23,7.7-2.99l.31-.31c.16-.14.31-.28.47-.45.02-.05.07-.09.12-.14,1.81-1.98,3.25-4.19,3.79-6.2,5.7-20.83,9.66-42.1,14.42-63.18,2.38-10.48,3.72-21.48,7.44-31.4.38-1.01.78-2,1.23-2.99,13.78-31.43,17.41-63.82,12.84-97.46-.12-.87-.24-1.74-.31-2.59l-.02-.02c-3.2-28.6,6.38-42.95,34.39-53.05,8.36-2.99,16.63-6.48,24.69-10.34,2.69-1.3,5.21-2.83,7.47-4.55.07-.07.14-.14.21-.19,1.25-.94,2.4-1.96,3.51-3.06.16-.14.26-.21.26-.21.87-.87,1.7-1.77,2.5-2.69,8.5-10.06,11.57-23.65,8.36-36.63l-.02-.02c-1.44-5.77-4.12-11.4-8.13-16.56-6.05-7.8-9.82-21.72-3.65-28.74,1.01-1.18-.33-5.61-.57-8.55-1.34-15.95-.59-31.57,15.81-39.88,8.15-4.17,16.47-6.29,24.69-6.29s16.54,2.12,24.69,6.29c16.4,8.32,17.15,23.93,15.81,39.88-.24,2.94-1.58,7.37-.57,8.55,6.17,7.02,2.4,20.94-3.65,28.74-4,5.16-6.69,10.79-8.13,16.56l-.02.02c-3.2,12.98-.14,26.57,8.36,36.63.8.92,1.63,1.81,2.5,2.69,0,0,.09.07.26.21,1.11,1.11,2.26,2.12,3.51,3.06.07.05.14.12.21.19,2.26,1.72,4.78,3.25,7.47,4.55,8.06,3.86,16.33,7.35,24.69,10.34,28.01,10.11,37.6,24.45,34.39,53.05l-.02.02c-.07.85-.19,1.72-.31,2.59-4.57,33.64-.94,66.03,12.84,97.46.45.99.85,1.98,1.23,2.99,3.72,9.92,5.06,20.92,7.44,31.4,4.76,21.08,8.72,42.36,14.42,63.18.54,2,1.98,4.22,3.79,6.2.05.05.09.09.12.14.17.16.31.31.47.45l.31.31c1.91,1.77,4.29,2.83,7.7,2.99,17.27.85,23.7,17.17,36,25.02.99.64,1.93,2.38,2.05,3.65Z"/><path class="cls-7" d="m156.32,139.58c-.52.42-1.77,1.48-3.51,3.06"/><path class="cls-7" d="m159.08,136.68l-.02-.02"/><path class="cls-7" d="m115.76,206.63c0-.19,0-.35-.02-.54"/><path class="cls-7" d="m238.33,142.64c-1.74-1.58-2.99-2.64-3.51-3.06"/><path class="cls-7" d="m232.09,136.66l-.02.02"/><path class="cls-7" d="m275.41,206.08c-.02.19-.02.35-.02.54"/><path class="cls-7" d="m156.24,139.15c-.52.42-1.77,1.48-3.51,3.06"/><path class="cls-7" d="m159,136.26l-.02-.02"/><path class="cls-7" d="m115.67,206.2c0-.19,0-.35-.02-.54"/><path class="cls-7" d="m238.24,142.22c-1.74-1.58-2.99-2.64-3.51-3.06"/><line class="cls-7" x1="280.46" y1="416.92" x2="280.44" y2="416.92"/><path class="cls-7" d="m232,136.23l-.02.02"/><path class="cls-7" d="m275.32,205.66c-.02.19-.02.35-.02.54"/><path class="cls-6" d="m116.54,206.23c0-.19,0-.35-.02-.54"/><path class="cls-6" d="m276.19,205.69c-.02.19-.02.35-.02.54"/><path class="cls-2" d="m158.56,450.25c-.12,2.54-1.63,3.35-4.19,2.73-1.93-.49-3.84-1.08-5.8-1.48-3.23-.64-4.9.09-6.64,2.92-2.05,3.35-3.11,6.93-1.72,10.81,1.13,3.25.57,6.22-.38,9.49-1.06,3.77-1.37,7.87-1.34,11.83.05,15.64.54,31.31.49,46.95-.02,26.13,2.19,52.02,6.81,77.72.68,3.82,1.63,7.59,2.47,11.4.87,3.7,2.29,7.14,4.69,10.2,3.89,5.04,4.17,10.55,1.67,16.35-1.25,2.87-2.38,5.75-5.7,7.47,2.1.21,3.51.33,5.09.49.31,3.44,0,6.62-1.81,9.23-4.55,6.62-6.1,14.21-8.01,21.74-2.07,8.13-2.36,16.42-2.73,24.71-.59,13.45-.92,26.9-1.41,40.33-.47,12.3-.94,24.59-1.58,36.87-.54,10.18,1.01,20.09,2.99,30.01.87,4.31,1.65,8.67,2.14,13.05.19,1.81-.19,3.77-.73,5.54-.97,3.18-2.31,3.44-4.71,1.25-.59-.54-1.2-1.06-1.81-1.6.49,2.19.97,4.24,1.34,6.34,0,.05.02.12.02.16,2-1.22,3.7-.33,4.48,2.4.4,1.46.61,3.06.59,4.59-.09,2.38-1.34,3.25-3.72,2.83-.75-.14-1.46-.54-2.24-.64-1.01-.16-2.05-.12-3.09-.16,3.35.52,4.74,2.73,5.11,5.84.12,1.06.35,2.12-.94,2.78-.33.16-.42.97-.47,1.48-.14,1.72-.16,3.49-.35,5.21-.16,1.53.02,2.85,1.06,4.08,1.15,1.37,2.87,2.76.42,4.5.26,1.84-.87,2.64-2.66,2.99,1.01,2.05,1.18,3.82-.66,5.32-.45.38-.47,1.25-.78,1.86-.52,1.13-1.88,1.72-3.16,1.41-1.04-.26-1.46-.94-1.18-1.96.16-.66.47-1.25.71-1.81-2.05-2.83-2-3.11.85-4.74-.09-.68-.19-1.32-.26-1.96-.05-.35.07-.99-.07-1.06-2.07-.9-1.32-2.61-1.08-4.03.31-2.05-.16-3.84-1.11-5.61-2.05-3.89-.99-6.2,3.35-7.19.92-.21,1.84-.31,3.09-.49-2.61-1.79-4.45-.14-6.36.71-2.45-4.26-.66-7.21,4.48-7.35-1.25-1.01-2.71-.75-4.15-.66-1.55.09-3.09.09-4.33-1.22-2.33,2.38-5.32.47-7.87,1.32.45-3.25,1.98-4.29,4.97-3.42.75.21,1.51.4,2.36.64,1.79-1.46,3.89-2.36,6.29-2.52.82-.07,1.63-.21,2.38-.47-.68-.54-1.3-1.13-1.98-1.67-2-.85-3.63-.14-5.09,1.25-.45.24-.9.52-1.39.75-1.37.68-2.24.12-2.59-1.25-.21-.9-.35-1.88-.19-2.78.35-1.96.92-3.86,1.44-5.98-2.45-.35-3.16-2.19-2.83-4.5.28-1.86.57-3.82,1.41-5.44,3.18-6.27,3.53-12.93,3.04-19.69-.52-7.44-1.48-14.84-1.96-22.29-.57-8.81-.85-17.64-1.25-26.46-.47-10.08-1.18-20.17-1.34-30.22-.09-6.5.52-13.03.9-19.53.54-9.23,1.32-18.45,1.7-27.7.12-2.76-.54-5.61-1.2-8.34-1.39-5.82-3.04-11.57-4.57-17.36-.14-.57-.16-1.2-.28-2.19,1.39-.16,2.64-.31,3.91-.47l6.83,1.25c1.27.33,2.64.42,3.32-.21,1.06-.99.26-2.38-.28-3.51-.49-1.01-1.15-1.98-1.7-2.99-.8-1.46-1.7-2.92-2.31-4.45-.82-2.07-1.25-4.22-.45-6.45,2.33-6.57,11.21-8.88,16.4-4.15.82.73,1.41,1.81,1.81,2.85,1.72,4.19.52,7.99-1.58,11.71-.78,1.41-1.41,3.06-1.6,4.66-.31,2.8.78,4.17,3.53,4.38-.78-.54-1.41-.97-1.91-1.46-1.7-1.79-1.67-3.02,0-4.88.85-.94,1.74-1.84,2.59-2.76,1.98-2.14,2.83-4.71,2.31-7.56-1.44-7.47-5.58-10.74-12.65-11.17-6.78-.42-12.27,7-10.25,12.6.99,2.64,2.03,5.28,3.06,7.92.4,1.04.85,2.03,1.34,3.16-1.01.45-1.7.78-2.38,1.11l-6.69-1.84c-5.77-6.67-5.54-17.46.9-23.68,4.29-4.17,6.36-8.95,6.08-14.91-.61-14.79-1.15-29.59-1.74-44.38-.52-12.39-1.13-24.76-1.55-37.15-.42-12.72-.68-25.42-1.01-38.12-.09-4.1-.05-8.2-.33-12.3-.16-2.47-.59-4.97-1.25-7.37-.68-2.52-1.84-4.92-2.62-7.42-1.88-6.05-2.29-12.2-.45-18.33,1.37-4.57,3.98-8.1,9-9.16,4.29-.9,6.1-.16,8.48,3.44,3.91-.19,6.45-2.66,6.57-6.38.12-4.26,1.86-5.63,6.05-4.76,2.97.59,5.14,2.33,6.76,4.76,2.9,4.33,3.44,9.23,3.18,14.23Z"/><path class="cls-2" d="m252.23,378.92c-7.07-4.52-14.91-5.11-22.83-3.11-5.87,1.48-8.67,6.95-7.44,13.03.09.47.12.97.19,1.44.14.4.28.8.45,1.2.42,1.08,1.01,2.12,1.25,3.25,1.01,4.85,1.86,9.75,2.87,14.63,1.44,6.67-.17,12.58-4.24,17.9-1.06,1.39-2.1,2.85-3.39,4-4.15,3.7-8.43,7.26-12.65,10.86-1.93,1.65-3.93,3.2-5.72,4.99-.92.94-1.67,1.84-3.13,1.74-2.03-.09-4.1.16-5.82-1.3-3.53-2.94-7-5.91-10.6-8.74-4.99-3.96-9.68-8.22-13.1-13.66-2.29-3.65-3.77-7.66-3.16-11.94,1.13-7.73,2.14-15.5,4.81-22.85,2.52-7.04-1.74-13.76-8.36-14.96-6.36-1.13-12.67-.82-18.63,1.91-6.9,3.13-10.34,8.62-10.41,16.21-.05,3.18.54,6.27,1.77,9.14,1.81,4.31,3.91,8.5,5.77,12.79,1.91,4.36,4.95,7.7,8.86,10.29,1.2.8,2.47,1.55,3.75,2.26,4.38,2.52,6.83,6.29,7.26,11.35.09,1.25.31,2.52.26,3.79-.17,6.9.97,13.64,3.06,20.17.99,3.02,2.31,6.05,4.05,8.69,3.13,4.71,8.36,5.89,13.43,3.32,1.63-.82,3.25-1.91,4.43-3.27,2-2.36,3.68-5.02,5.42-7.59.59-.87,1.01-1.86,1.48-2.76h8.34c1.13,1.98,2.14,3.98,3.35,5.87,1.88,3.02,4.17,5.68,7.33,7.44,5.35,2.97,10.93,1.74,14.42-3.3,1.04-1.51,2.05-3.16,2.57-4.9,1.37-4.66,2.76-9.38,3.56-14.16.75-4.59.78-9.33,1.18-13.99.33-3.91,2.12-7.07,5.35-9.33,1.67-1.18,3.37-2.33,5.11-3.42,3.86-2.47,6.93-5.63,8.88-9.85,1.2-2.57,2.64-5.04,3.72-7.63,1.37-3.35,2.76-6.71,3.6-10.18,1.93-7.99-.75-15.34-7-19.36Zm-74.37,86.17c-1.6.85-2.94.85-3.82-.71-2.31-4-4.33-8.2-6.41-12.34-.26-.49-.16-1.15-.21-1.48.02-3.6,1.63-5.11,4.97-4.62,4.41.61,8.22,2.17,10.01,6.81,1.63,4.26-.49,10.22-4.55,12.34Zm45.82-11.07c-1.32,3.11-3.06,6.08-4.66,9.09-.21.42-.52.82-.82,1.2-1.27,1.46-2.43,1.65-4.12.68-2.76-1.51-5.18-5.84-5.14-9.07.14-3.6,3.11-8.32,6.78-9,1.72-.31,3.42-.92,5.14-1.04,2.12-.12,3.44.92,3.58,3.04.09,1.67-.09,3.56-.75,5.09Z"/><path class="cls-2" d="m268.98,278.76c-.35-4.1-1.6-7.96-2.47-11.92-.85-3.93-.78-8.08-1.11-12.13-.02-.28-.19-.54-.16-.82.05-.8.05-1.63.26-2.4,1.3-5.63.87-11.05-2-16.09-.52-.97-.85-1.77-.35-2.83.73-1.53.52-3.11-.16-4.57-.82-1.84-1.74-3.65-2.71-5.42-.8-1.53-1.7-3.02-2.36-4.12,1.48-5.16.87-9.38-1.41-12.91-.92-1.41-2.1-2.71-3.53-3.91.21-1.65.49-2.83.49-4-.02-4.69-2.14-8.39-5.54-11.24-2-1.67-3.25-3.65-4.48-5.96-2.5-4.66-5.94-8.2-11.76-7.82-.02-.73-.12-1.46-.09-2.19.17-2.78-1.04-4.83-3.04-6.45-.02-.02-.05-.05-.07-.05-.8-.68-1.65-1.32-2.54-1.86-5.8-3.53-11.99-5.91-18.61-7.11-.68-.12-1.3-.19-1.93-.19h-.02c-.14,0-.31,0-.45.02,1.86-1.55,2.1-2.92,1.93-6.34-1.27.33-2.43.75-3.58.9-.66.07-1.55.31-1.72-1.58-.07-.64.64-1.65,1.11-2.73-.26-3.13-.97-6.6-.35-9.31,1.55-1.53,2.83-2.52,3.96-3.96.78-.97,1.08-2.66.33-4.69-1.53.47-3.06.97-4.57,1.44-.92-4.1-.92-4.17.4-6.17-.02-.57-.05-1.13-.07-1.7,3.7-.33,6.88-1.77,9.19-5.02,2.14-2.99,4.26-6.03,6.38-9.05.8-1.15,1.06-2.45,1.04-3.84-.07-1.96-.07-3.91-.12-5.89-.05-3.04.19-6.03,1.46-8.86.17-.35,0-.87-.02-1.3-.47.02-1.04-.07-1.44.14-1.23.64-2.03,1.7-2.26,3.06-.35,2.29-.61,4.57-.99,6.86-.47,2.87-1.39,5.56-3.51,7.66-.21.24-.49.42-.99.8.12-.57.19-.85.21-1.11,0-.71.09-1.44-.05-2.12-.09-.38-.49-.92-.85-.99-.35-.09-.82.26-1.23.49-.21.12-.28.45-.49.57-.21.14-.59.31-.73.21-1.13-.8-1.98-.07-2.87.47-.31.19-.68.24-1.04.31-.61.09-1.22.14-1.84.26-.4.07-.78.26-1.2.31-.68.05-1.41-.09-1.88.66-.07.12-.4.14-.59.14-1.7-.07-3.37-.21-5.04-.19-.82,0-1.65.4-2.24-.49-.07-.09-.31-.09-.45-.12-.82-.21-1.65-.4-2.47-.59-.31-.07-.68-.21-.92-.09-.71.31-1.18.02-1.77-.35-.59-.33-1.46-.73-1.98-.52-.78.31-1.13.26-1.6-.38-.35-.47-.87-1.08-1.51-.66-.42.28-.75.94-.82,1.48-.09.78.05,1.63.09,2.61-.33-.26-.57-.42-.78-.61-2.21-2.07-3.06-4.78-3.58-7.63-.38-2.05-.49-4.15-.8-6.2-.26-1.7-.97-3.16-2.59-3.93-.38-.16-.97-.16-1.3.05-.19.12-.17.8-.05,1.18.31,1.18.82,2.31,1.06,3.49.78,3.49.42,7.04.31,10.55-.07,2.14.49,3.93,1.79,5.65,1.77,2.36,3.44,4.78,5.09,7.26,2.03,3.04,4.74,5.04,8.41,5.49.45.05.92.09,1.37.12-.09,1.11.14,1.98.75,2.47.33.26.64.57.9.82.12,4.24-.02,4.57-1.7,4.19-1.2-.26-2.4-.52-3.86-.82.17,6.41,1.77,8.01,3.27,9.8.57,2.4,1.15,2.76.8,5.02-.47,2.8-.42,3.02.87,4.26.54.49.75.99.49,2.52-1.34-.38-2.66-.71-3.98-1.11-.52-.16-1.06-.9-1.37.61-.28,1.37-.07,2.64.45,3.42.73,1.06,1.48,2.05,2.29,2.76.09.09.19.16.28.26h-.47c-.61,0-1.23.09-1.84.26-3.7.97-7.47,1.77-10.98,3.23-3.44,1.41-6.67,3.42-9.85,5.42-.26.19-.54.38-.8.57-1.81,1.46-2.83,3.56-2.69,6.2.05.78-.17,1.58-.21,2.1-1.65.16-3.23-.12-4.31.52-3.39,2.05-6.6,4.45-8.03,8.55-.54,1.63-1.55,2.78-2.85,3.89-4.78,4.12-7.8,9.09-5.84,16.21-.87.85-1.88,1.65-2.69,2.62-.52.57-.94,1.13-1.27,1.74-2,3.13-2.45,6.74-1.6,10.46.38,1.58.21,2.54-.47,3.75-1.3,2.24-2.57,4.48-3.72,6.76-.92,1.86-1.32,3.79-.5,5.89.21.64,0,1.65-.35,2.29-2.94,5.25-3.39,10.79-1.91,16.61.17.68.14,1.44.09,2.14-.24,3.51-.49,7.02-.78,10.53-.05.73.02,1.53-.24,2.17-1.51,3.51-2.07,7.26-2.66,11.03-.45,3.02-.38,6.01.64,8.79,1.25,3.37,1.44,6.83,1.72,10.34.21,3.16.64,6.34,2.19,9.09.89,1.6,1.25,3.23,1.44,4.99.42,3.72,1.41,7.28,3.27,10.51,2.47,4.19,6.31,5.54,10.51,3.3,2.26-1.2,4.31-2.92,6.1-4.81,2.19-2.29,3.96-4.99,5.91-7.51.89-1.13,1.81-2.26,2.76-3.37,1.04-1.23,2.36-2.29,3.16-3.65,5.51-9.54,10.34-19.44,14.58-29.68,1.25-3.04,2.73-6.03,4.55-8.74,1.74-2.57,3.75-4.95,5.75-7.35.17-.21.33-.4.49-.59.24,2.12-.12,4.08-.64,6.08-.42,1.6-.19,2.87.94,3.49.45.26.87.59,1.27.85.17,4.41-.05,4.74-2.45,4.36-1.7-.28-3.42-.54-5.51-.85.24,6.62,2.52,8.27,4.66,10.13.82,2.5,1.67,2.85,1.15,5.18-.66,2.9-.59,3.11,1.27,4.41.75.54,1.06,1.04.68,2.61-1.91-.38-3.82-.71-5.7-1.13-.73-.16-1.51-.92-1.96.64-.4,1.41-.07,2.71.66,3.51,1.04,1.11,2.12,2.12,3.27,2.85,1.81,1.18,2.24,1.96,2,4.9-.09,1.3-.4,2.57-.71,3.79-.42,1.72-.07,2.83.97,3.46.56.35,1.44.24,1.2,2.03-2.4,1.51-4.83-1.01-7.49-.24.17,6.81,3.89,6.22,6.62,8.29-.17,1.67-.26,3.49-.57,5.21-.59,3.27-.64,3.23,1.27,4.76.35.26.57.92,1.25,2.07-3.18-.57-5.8-1.04-8.25-1.46-.68,2.21-.28,3.65.61,4.62.89.99,1.84,2.19,2.85,2.4,2.12.47,2.52,2.85,2.66,5.35.12,1.77-.24,3.65-.54,5.42-.54,2.97-.59,3.27,1.27,4.45,1.34.87,1.34,2,.89,3.65-3.49-.66-6.86-1.3-10.25-1.93-.82-.16-1.77-.64-2.19,1.01-.42,1.74.4,2.9,1.2,3.46,1.67,1.18,3.42,2.03,5.16,2.92.66.35,1.37.49,2.14.75-.73,4.83-1.04,9.21.07,13.66,1.11,4.55,3.63,6.95,5.94,9.52-1.25,1.01-2.59,1.44-3.18,2.76-.8,1.74-1.48,3.68-2.07,5.65-.64-.52-1.3-1.06-1.96-1.65-.66-.57-1.18-1.3-1.81-1.91-1.41-1.34-2.76-2.78-4.26-3.98-.97-.8-2.12-1.41-3.3-1.86-1.53-.57-2.66-.07-3.42,1.39-.38.75-.75,1.65-.78,2.47-.05,3.51-.28,7.04.12,10.51.4,3.56,1.77,6.81,5.23,8.67,1.25.66,1.65,1.88,1.74,3.2.09,1.37.02,2.76.31,4.08.31,1.39.78,2.8,1.48,4.05,1.25,2.19,2.64,4.31,4.12,6.36.71.97,1.67,1.91,2.73,2.4,1.39.64,2.24,1.58,2.69,2.92,1.06,3.2,2.07,6.43,3.06,9.68.52,1.65,2.87,3.82,4.38,3.86,1.67.07,4.48-1.96,4.97-3.53.97-3.16,1.88-6.31,3.04-9.4.4-1.11,1.2-2.52,2.17-2.87,2.05-.78,3.09-2.26,4.1-3.96.99-1.67,2.05-3.3,3.18-4.9,1.08-1.55,1.72-3.25,1.72-5.18,0-.87.05-1.74.09-2.64.07-1.86.68-3.37,2.5-4.29,1.72-.9,2.87-2.45,3.39-4.24.71-2.4,1.3-4.9,1.51-7.4.24-2.61,0-5.25-.02-7.89-.17-.4-.31-.8-.45-1.2-2.14-2.4-3.32-2.61-5.98-.92-1.08.68-2.07,1.48-2.99,2.33-1.27,1.2-2.43,2.54-3.68,3.79l-.4.4c-.19-.59-.33-1.18-.49-1.79-.68-2.61-1.91-3.93-3.65-4.15-.35-.05-.71-.26-1.63-.59,6.5-5.35,8.22-13.29,6.38-23.53.85-.28,1.51-.38,2.12-.71,1.51-.8,3.02-1.6,4.43-2.66.82-.59,1.67-1.65,1.37-3.37-.33-1.98-1.41-1.41-2.31-1.23-.92.19-1.81.38-2.73.52-2.31.4-4.62.75-6.83,1.13-1.23-3.02.85-3.16,1.39-4.59-.71-4.43-1.3-8.83-.05-13.12,4.71-2.45,5.65-3.96,4.85-7.87-2.38-.24-4.76,1.67-7.63.57.85-1.04,1.39-1.67,1.88-2.29q-.73-6.53-.28-8.83c1.96-1.37,3.75-2.4,5.39-3.86,1.11-.97,1.56-2.66.68-4.81-2.57-.02-5.06,1.91-8.01.26.78-1.11,1.32-1.88,1.74-2.5-.19-3.16-.38-6.15-.54-9.05,6.57-2.87,7.28-3.72,6.97-8.58-1.81.35-3.46.78-5.11.92-.94.07-2.21.31-2.47-1.63-.09-.68.92-1.72,1.58-2.83-.38-3.25-1.34-6.83-.47-9.64,2.21-1.58,4-2.61,5.65-4.1,1.13-1.01,1.53-2.73.47-4.85-2.19.49-4.41,1.01-6.55,1.48-1.32-4.22-1.3-4.31.56-6.38-.14-3.11-.47-6.13-.35-9.12v-.4h.02c.14.14.26.28.4.45l.07.07.05.05c4.36,5.23,8.41,10.62,10.93,17.22,3.75,9.82,8.57,19.13,13.71,28.25.75,1.37,1.65,2.64,2.64,3.82,1.25,1.53,2.76,2.85,3.98,4.41,1.91,2.31,3.53,4.92,5.56,7.07,1.88,1.93,4,3.75,6.31,4.99,4.19,2.29,8.17.99,10.46-3.3,1.32-2.47,2.29-5.25,2.87-8.01.71-3.16,1.44-6.2,2.54-9.23,1.11-3.06,1.18-6.53,1.74-9.8.38-2.17.64-4.36,1.23-6.48.82-2.97,1.27-5.94.99-9.05Zm-8.36-40.57c3.16,4.41,3.01,7.21-.64,10.53-5.47,4.97-11.52,9-18.33,11.52-5.54,2.03-11.1,1.46-16.04-1.98-5.44-3.77-10.72-7.87-16.04-11.87-.82-.64-1.6-1.48-2.1-2.43-.64-1.27.12-2.31,1.48-1.93.99.28,1.91.92,2.83,1.44,2.97,1.67,5.82,3.56,8.88,4.99,6.05,2.9,12.3,3.39,18.49.42,6.27-2.99,12.51-6.13,18.73-9.19.87-.45,1.72-.97,2.73-1.51Zm-4.55-14.11c.35.54.66,1.11.9,1.7.99,2.43.71,3.7-1.34,5.32-3.91,3.09-8.15,5.58-12.74,7.4-4.43,1.74-9.02,2.71-14.35,2.85-5.39-.64-11.31-1.7-16.96-4.05-1.86-.78-3.37-2.03-4.5-3.79-1.65-2.59-.64-5.06,2.38-5.37,1.72-.16,3.51.09,5.25.33,2.47.33,4.88.94,7.35,1.25.07,0,.12.02.19.02.49.05,1.04.09,1.53.14.71.05,1.39.09,2.1.09h.54c3.82.05,7.61-.52,11.31-2,1.25-.49,2.5-.99,3.75-1.46,3.58-1.34,7.21-2.59,10.79-3.89,2.38-.87,2.5-.8,3.82,1.46Zm-120.15,1.81c.09-.26.24-.52.35-.75,1.63-3.39,1.79-3.46,5.28-2.19,3.01,1.11,6.03,2.17,9.05,3.27h.02c2.24.8,4.5,1.63,6.74,2.45,3.02,1.13,6.05,1.39,9.12,1.3.66,0,1.34-.05,2.03-.09.52-.02,1.04-.07,1.58-.14.57-.05,1.13-.09,1.72-.16,2.31-.26,4.55-.92,6.81-1.23,1.67-.21,3.37-.4,5.02-.19,2.85.35,3.93,2.83,2.24,5.23-1.04,1.41-2.43,2.85-3.96,3.56-5.87,2.8-12.16,3.79-17.69,4.43-10.65-.47-19.27-4.29-27.02-10.39-1.91-1.51-2.17-2.76-1.27-5.09Zm-3.77,12.44c5.98,3.02,11.76,6.05,17.62,8.86,2.73,1.3,5.58,2.29,8.48,3.16,3.79,1.15,7.54.42,11.21-.75,4.08-1.34,7.77-3.53,11.38-5.91,1.04-.68,2.14-1.3,3.32-1.65,1.11-.33,1.74.47,1.37,1.63-.24.73-.71,1.53-1.32,1.98-6.03,4.55-11.87,9.38-18.23,13.4-4.62,2.94-10.01,3.02-15.15,1.04-6.53-2.52-12.34-6.41-17.64-11.12-3.84-3.44-4.05-6.12-1.04-10.62Zm10.32,81.72c-3.56.54-6.41-1.6-8.5-6.78,1.2.49,2,.82,2.8,1.13,2.71,1.01,5.47,1.41,8.32.59,1.25-.38,2.57-.45,3.96-.66-.33,2.66-3.49,5.28-6.57,5.72Zm2.97-10.65c-7.92-.07-13.17-4.12-14.37-11.47,8.32,8.74,17.32,9.19,26.93,3.35-.87,4.81-6.13,8.2-12.56,8.13Zm26.67-31.54c-1.41,2.12-2.92,4.19-4.36,6.31-2.9,4.29-6.12,8.15-10.46,10.91-4.15,2.61-8.6,3.72-13.26,2.21-8.48-2.73-13.57-9.05-16.16-17.74-.64-2.17-.21-4.36.12-6.53.19-.05.38-.09.57-.16,1.32,1.63,2.57,3.3,3.93,4.85,1.79,2.05,3.6,4.08,5.54,5.98,3.7,3.65,8.17,4.76,13.05,3.75,5.68-1.15,10.62-3.86,15.01-7.89,2.1-1.93,4.52-3.51,7.04-5.44.31,1.7-.33,2.76-1.01,3.75Zm15.34-25.25c-.09.12-.19.21-.31.33-.07.09-.17.16-.28.26-2.19,2.19-4.45,4.38-6.67,6.57-2.12,2.12-4.24,4.19-6.24,6.43-4.64,5.25-10.11,9.21-16.63,11.52-1.08.4-2.21.66-3.25,1.18-3.42,1.81-6.64,1.18-9.92-.49-6.43-3.25-11.38-7.82-12.86-15.52-.28-1.58-.28-3.23-.45-4.85.24-.07.45-.16.68-.24,3.75,3.77,8.13,6.53,12.67,9,2.26,1.23,4.66,2.24,7.07,3.11,3.32,1.18,6.69.68,9.87-.71,5.25-2.33,9.92-5.58,13.88-10.01,2.52-2.83,5.37-5.32,8.13-7.94.57-.57,1.3-.99,1.98-1.34.85-.45,1.6-.21,2.17.38.14.14.26.31.38.47.02.02.02.05.02.07-.12.61-.19,1.2-.24,1.79Zm-.38-37.76c-.33.52-.68.99-1.11,1.41-.07.09-.14.16-.24.26-.99.99-2.14,1.7-3.46,2.1-3.39,1.04-6.81,1.96-10.25,2.78-.54.12-1.11.24-1.63.31-1.15.19-2.29.31-3.44.33-4.69.14-9.23-1.08-13.59-3.09-2.94-1.32-5.75-3.06-8.48-4.85-.57-.38-1.11-.73-1.67-1.11-1.93-1.25-2.5-2.52-1.98-4.31.12-.49.33-1.01.64-1.6.49-.94,1.18-1.81,1.81-2.83.87.31,1.65.54,2.38.78.09.05.17.07.26.09,4.33,1.58,8.76,3.02,13.03,4.76,3.46,1.44,7,1.88,10.51,1.77.24.02.45,0,.68,0,.5-.02.97-.07,1.44-.12,1.04-.07,2.05-.19,3.06-.35,2-.28,3.98-.82,6.01-1.11.09-.02.16-.02.26-.05.19-.02.4-.05.61-.07,1.11-.12,2.26-.16,3.35.05,2.45.54,3.18,2.61,1.81,4.85Zm-4.73-10.79c-3.58-.19-7.11-.16-10.67-.35v-.07c-4.69-.26-9.31-.94-13.8-2.9-2.71-1.2-5.37-2.54-7.92-4.12-2.36-1.51-2.9-3.58-1.98-5.84.54-1.32,1.46-2.26,2.64-2.64h.07c3.98.97,7.87,2.19,11.83,3.13,2.36.57,4.74,1.04,7.09,1.44,5.49.92,11,1.39,16.58,1.41.52.02,1.04.07,1.81.12.14,1.06.35,1.88.35,2.71.09,4.45-1.93,7.33-6.01,7.11Zm6.03-16.99c-.02.26-.07.57-.19.87-1.11-.07-2.19-.14-3.3-.19-.21-.02-.45-.05-.66-.05-1.77-.12-3.51-.24-5.25-.49-2.78-.4-5.56-1.11-8.34-1.58,0-.09,0,.09,0,0-2.66-.49-5.35-.99-8.01-1.46-1.48-.26-2.78-.92-3.18-2.71-.4-1.79.26-3.3,1.3-4.59.24-.31.49-.54.78-.71h.02c2.29,1.13,4.62,1.98,7.02,2.66,3.91,1.11,7.89,1.77,11.9,2.5,2.05.35,4.08,1.3,5.94,2.29,1.2.64,2.14,1.67,1.98,3.37v.09Zm-3.49-19.13c.07,4.29,1.2,5.54,2.52,6.43-.05.09-.07.16-.12.26-.17.4-.38.8-.57,1.18-1.13,2.03-3.02,3.3-5.3,2.97-3.23-.45-6.41-1.15-9.61-1.93-.59-.16-1.23-1.04-1.46-1.72-1.37-4.22-.45-8.06,2.26-11.38,1.44-1.74,3.49-2.05,5.58-1.96,2.78.19,5.44.75,7.77,2.43,1.58,1.13,2.59,2.59,2.78,4.38-1.25-.07-2.52-1.2-3.86-.66Zm23.89-4.78c2.4-1.06,4.95-1.55,7.54-1.32,2.17.19,3.86,1.2,4.99,3.2,1.27,2.21,1.96,4.55,1.79,6.97,0,.02-.02.05,0,.07-.05.73-.14,1.46-.35,2.19-.02.02-.02.05-.02.07-.05.19-.09.35-.17.54-.21.71-.78,1.63-1.37,1.81-2.94.92-5.96,1.63-8.95,2.4-3.32-.05-5.47-1.63-6.76-4.66-.09-.19-.16-.38-.24-.57-.05-.12-.09-.21-.12-.33.4-.4.78-.8,1.15-1.25.75-.94,1.08-2.59.47-4.64-.8-.02-1.58.33-2.38.59.4-2.24,1.86-3.96,4.41-5.09Zm-4.22,23.53c-.09-1.51.75-2.54,1.98-3.18,1.79-.94,3.75-1.7,5.68-2.17,2.4-.61,4.95-.64,7.33-1.3,1.44-.4,2.83-.82,4.22-1.3,2.31-.75,4.59-1.55,6.88-2.38.26-.09.49-.19.73-.24h.02c.87.35,1.53,1.22,2.03,2.76.8,2.36.02,4.29-2.1,5.11-.47.19-.97.28-1.46.38-2.71.47-5.44.94-8.15,1.41,0,.07.02-.07,0,0-2.59.4-5.18,1.04-7.75,1.44-2.17.31-4.33.45-6.5.57-.19.02-.4.02-.59.05-.12,0-.21.02-.33.02-.59.05-1.2-.07-1.79-.09-.09-.33-.14-.64-.19-.94v-.14Zm.19,7.75c5.23-.42,9.92-.73,14.58-1.2,1.11-.12,2.24-.26,3.37-.45,5.61-.82,11.12-2.29,16.58-3.86.97-.28,1.93-.59,2.9-.78h.02c1.37.38,2.45,1.46,2.94,2.97.61,1.96.14,3.68-1.58,5.09-1.01.82-2.1,1.55-3.23,2.14-6.22,3.25-12.74,5.14-19.65,5.28v.05c-2.24.05-4.48.26-6.74.38-1.32.05-2.66.19-3.96,0-3.23-.42-4.73-1.93-5.23-5.3-.21-1.41-.02-2.9-.02-4.31Zm3.13,15.52c.87-.14,1.79-.12,2.69-.02.28.02.56.05.85.09.24.02.45.05.66.07,2.78.35,5.54.82,8.32,1.18.45.05.92.12,1.37.16.45.07.94.12,1.39.16.33.02.61.07.94.09h.21c2.43.09,4.85-.28,7.21-1.13,4.9-1.79,9.87-3.58,14.79-5.35.21-.07.4-.14.61-.21.71-.26,1.46-.47,2.26-.75.45.54.71.8.9,1.08.68,1.04,1.18,1.91,1.46,2.69v.02c.92,2.31.02,3.72-2.99,5.89-.59.42-1.2.82-1.79,1.22-5.06,3.35-10.51,5.75-16.51,6.45-1.51.16-3.06.26-4.62.21h-.09c-1.18-.02-2.33-.14-3.46-.33-.05,0-.12-.02-.17-.05-3.77-.64-7.47-1.77-11.14-2.8-1.39-.4-2.61-1.18-3.6-2.24-.09-.09-.16-.16-.24-.26-.38-.4-.68-.8-.97-1.27-1.48-2.31-.71-4.45,1.93-4.92Zm.35,45.4c-.59-.59-1.2-1.18-1.77-1.79-.21-.19-.42-.4-.61-.59,0-.64-.07-1.27-.19-1.93-.02-.21-.07-.45-.12-.66.14-.16.31-.31.47-.4.52-.4,1.18-.47,1.86-.07.92.54,1.84,1.13,2.62,1.88,2.92,2.8,5.8,5.7,8.67,8.57,4.69,4.66,9.87,8.43,16.35,9.78,2.5.52,4.9.35,7.28-.59,5.89-2.26,11.17-5.54,16.09-9.56.9-.75,1.79-1.46,3.2-2.61-.05,7.51-2.31,13.31-7.68,17.43-2.14,1.65-4.52,2.87-6.9,4.15-2.5,1.32-5.07,1.44-7.7.31-2.03-.87-4.17-1.44-6.24-2.31-5.25-2.19-9.66-5.75-13.69-9.82-3.91-3.91-7.75-7.84-11.64-11.78Zm43.18,64.76c-3.2-.05-6.81-2.59-7.59-5.61,1.08.07,2.17-.12,3.06.21,3.75,1.3,7.3.68,10.79-.94.28-.14.59-.21,1.04-.35-1.23,4.17-4.12,6.76-7.3,6.69Zm10.06-19.93c-.57,1.15-1.15,2.29-1.81,3.39-1.77,3.04-4.38,4.71-7.73,5.32-2.99.57-5.94.71-8.93,0-3.72-.87-6.69-3.53-8.41-7.84,9.85,6.01,18.8,5.63,27.23-2.47-.12.54-.14,1.11-.35,1.6Zm3.3-19.6c-2.29,6.81-6.24,12.16-12.6,15.43-5.09,2.62-10.08,2.43-15.08-.12-3.63-1.88-6.62-4.66-9.12-7.96-2.62-3.49-5.11-7.11-7.56-10.74-.52-.75-.71-1.77-1.06-2.69.16-.12.35-.24.49-.38,2.59,2.03,5.23,4,7.75,6.1,5.11,4.22,10.67,7.28,17.34,7.49,3.72.14,7.07-1.08,9.71-3.79,2.78-2.85,5.35-5.91,7.99-8.9.64-.73,1.23-1.48,2.14-2.61.64,3.13.85,5.7,0,8.17Z"/><path class="cls-2" d="m127.63,854.87c-.27,1.04-.63,2.14-.82,3.27-.37,2.2-.83,4.41-.9,6.62-.05,1.53.02,2.92-.97,3.49.2,1.2.71,2.22.4,2.8-.73,1.35-.51,2.6-.34,3.96.11.88-.11,1.79-.2,2.8-1.47-.19-2.55-.33-4.14-.53,1.13.93,1.97,1.37,2.4,2.06.56.91-.6,1.48-.82,2.16-.96,3.03-1.61,6.16-2.33,9.27-.36,1.55-1.14,2.42-3.04,2.13.17-2.09-.32-4.06.52-6.21.69-1.77.4-3.93.53-5.92.02-.37-.19-1.01-.05-1.08,2.05-1.12,1.15-3.64,2.5-5.15.62-.69.6-1.96.84-2.98.29-1.21,1.16-2.76.7-3.55-.82-1.43-.13-2.39.12-3.57.57-2.66,1.2-5.32,1.56-8.01.4-2.99,1.25-3.43,4.05-1.56Z"/><path class="cls-2" d="m109.33,877.41c1.38,1.08,3.08.82,4.64,1.17.7.15,1.63.43,1.92.94.48.86-.59,1.15-1.07,1.71-.91,1.06-1.59,2.35-2.22,3.61-.66,1.32-1.14,2.73-1.97,4.02-.89-1.55-1.08-2.93-.06-4.46.84-1.26,1.71-2.63,1.21-4.49-1.43,0-2.33.58-2.84,1.9-.58,1.53-1.19,3.04-1.84,4.54-.14.32-.45.56-.88,1.08-.62-1.55-.76-2.8.02-3.98,1.1-1.68,1.76-3.44,1.17-5.57.78-.17,1.41-.3,2.03-.43,0,0-.12-.05-.12-.05Z"/><path class="cls-2" d="m105.38,876.84c.21-.62.32-1.32.66-1.86,1.42-2.19,2.88-4.34,4.39-6.47.3-.43.88-.66,1.45-1.07.39.53.7.95,1.08,1.46.44-.39.86-.76,1.29-1.12,0,0-.08-.04-.08-.04,1.48.95,1.13,2.05.2,3.12-1.33,1.54-2.53,3.1-2.81,5.24-.16,1.24-1.24,1.28-2.23,1.3,0,0,.12.05.12.05-.27-.58-.54-1.17-.67-1.45-1.26.29-2.38.54-3.51.8,0,0,.11.03.11.03Z"/><path class="cls-2" d="m116.83,865.16c.44-1.12,1.06-2.21,1.29-3.38.39-2,.54-4.04.81-6.22,1.01-.32,1.99-.63,3.38-1.07-.26,1.08-.48,1.87-.62,2.67-.46,2.59-.89,5.18-1.34,7.78-.13.77-.14,1.59-.44,2.28-.19.45-.8.96-1.25.98-.44.02-1.12-.44-1.32-.86-.32-.68-.32-1.5-.46-2.27,0,0-.04.11-.04.11Z"/><path class="cls-2" d="m116.87,865.06c-.18.53-.38,1.05-.54,1.59-.32,1.14-1.05,1.48-2.15,1.12,0,0,.08.04.07.04.15-1.68.31-3.36.46-5.03-.1-.02-.2-.03-.3-.05-.49,1.08-.97,2.17-1.46,3.25-.78-2.29.41-4.12.84-6.3,1.2-.22,2.39-.44,3.61-.66-.21,2.23-.4,4.2-.58,6.16,0,0,.05-.11.05-.11Z"/><path class="cls-2" d="m115.39,877.8c-1.41-.18-2-.79-1.58-1.81.84-2.04,1.75-4.06,2.82-5.99.24-.44,1.24-.45,2.25-.77-.51,3.43-2.06,5.93-3.49,8.57Z"/><path class="cls-2" d="m117.29,853.25c.7.2,1.4.39,2.13.6-.96,1.5-1.87,2.91-2.85,4.42-1.32.18-1.68-.8-1.91-1.88-.21-1.01.35-1.62,1.16-2.11.53-.32,1.03-.69,1.54-1.04-.01,0-.07,0-.07,0Z"/><path class="cls-2" d="m105.27,876.81c.46.3.92.61,1.3.86-1.12,2.01-2.14,3.84-3.16,5.67-.15-.04-.3-.08-.45-.12,0-.53-.11-1.09.02-1.59.36-1.37.75-2.75,1.27-4.07.13-.34.75-.49,1.14-.72-.01,0-.12-.04-.12-.04Z"/><path class="cls-2" d="m179.34,152.86c-1.58,1.04-3.49,1.86-5.35,2.17-3.44.57-6.97.99-10.46.94-7.28-.09-14.35,1.32-21.41,2.76-2.87.59-5.72,1.23-8.6,1.74-3.89.71-7.49,2.1-10.84,4.29-.47-.61-.8-1.04-1.32-1.7-.35,1.25-.64,2.33-.97,3.58,2.52,1.3,5.18,1.18,7.75,1.39,0,0-.24,2.45-1.91,2.97-.17.05-.35.07-.52.09-.64.12-1.27.21-1.91.16-1.25-.09-2.47-.52-3.68-.9-3.16-.97-6.15-.73-9.05.9-.85.47-1.79.92-2.71.99-.75.05-1.88-.28-2.24-.82-.35-.57-.17-1.74.21-2.4.52-.9,1.37-1.65,2.21-2.29,2.17-1.67,4.41-3.2,6.6-4.83,1.37-1.01,2.87-1.13,4.74-.68-.17-.57-.26-.97-.4-1.41.19-.16.38-.4.64-.49,9.89-3.75,19.95-6.64,30.65-7.02,4.78-.16,9.52-.78,14.3-1.01,4.83-.24,8.81-2.17,12.23-5.49,1.15-1.11,2.43-2.1,3.7-3.16,2.03,3.42,1.23,8.34-1.67,10.22Z"/><path class="cls-2" d="m101.42,325.68c-2.46-.14-4.01-1.8-5.66-3.33-1.11-1.04-2.26-2.03-3.44-3.08-.81.71-1.31,1.15-1.82,1.59-2.55,2.22-5.25,2.4-8.01.46-2.24-1.56-3.68-3.75-4.57-6.29-.64-1.84-.18-3.5,1.23-4.81,1.36-1.26,2.76-2.48,4.24-3.58,3.76-2.78,6.29-6.41,7.33-10.95,1.43-6.27,2.71-12.57,4-18.87,2.25-11.01,3.2-22.2,4.15-33.37.99-11.66,1.9-23.34,2.61-35.02.31-5.15-.13-10.33.05-15.49.18-5.06.59-10.11,1.14-15.14.25-2.31,1.6-3.24,4.11-3.29,1.35-.02,2.28-.36,3.29-1.35,2.44-2.37,5.48-2.82,8.69-1.78,6.99,2.26,10.3,8.34,8.4,15.46-.94,3.51-2.66,6.37-6.14,8.1-3.1,1.54-5.18,4.13-5.75,7.67-1.4,8.66-2.99,17.3-4.08,26-1.7,13.55-3.16,27.13-4.54,40.71-.97,9.61-1.58,19.25-2.47,28.87-.41,4.48.63,8.49,3.01,12.25,1.04,1.64,1.95,3.38,2.77,5.14.81,1.77.78,3.58-.37,5.39-.41-.06-.78-.06-1.13-.17-2.13-.7-2.3-.61-3.68,1.08-1.1,1.34-2.31,2.59-3.47,3.88l.09-.06Z"/><g class="cls-5"><path class="cls-1" d="m48.27,423.64c-.12.26-.24.49-.33.75.02-.12.05-.24.05-.38,0-.12.12-.26.28-.38Z"/><path class="cls-1" d="m47.37,438.48s-.05.02-.06,0h0s.03.01.04.02c.02,0,.02-.02.03-.03Z"/><path class="cls-1" d="m47.34,438.51s.04,0,.05.01l.04-.07s-.03.01-.06.03c-.03,0-.05.02-.06,0h0s.03.01.04.02Z"/><path class="cls-1" d="m33.79,459.92c-.68,3.34-2.6,6.03-4.62,8.67-.74.96-1.4,1.9-1.06,3.28-.31.08-.62.18-.93.25-.33.07-.67.12-1.14.19-.29,1.74-.26,3.49-.92,5-.61,1.43-1.93,2.58-3.2,4.18.83.55,1.53,1.1,2.29,1.49.84.42,1.54.03,1.93-.96.36-.91.56-1.88,1.02-2.72.69-1.24,1.38-2.62,2.38-3.54.99-.93.68-2.32,1.38-2.89.88-.71,1.59-1.28,1.82-2.42.55-2.74,2.03-4.96,3.94-7,1.09-1.16,2.49-2.29,2.01-4.34,2.16-.38,2.93-2.01,3.51-4.02,1.71-5.87,4.05-9.24,9.05-13.19-.13.87-.13,1.55-.35,2.18-1.17,3.42-2.75,6.63-5.07,9.49-.71.87-1.31,1.93-1.73,2.98-.55,1.42-.06,2.57.96,3.37,1.44,1.13,3.12.49,3.3-1.53.28-3.19,1.9-5.84,3.27-8.59.9-1.81,2.16-3.47,3.28-5.17.64-.98,1.51-1.95.91-3.1-.6-1.14-1.64-1.91-2.96-1.5-1.04.33-1.49-.15-2.2-.53-.99-.53-2.18-.67-3.3-.96-.69.99-1.71,1.95-1.98,3.01-1.15,4.42-3.97,7.77-6.81,11.08-1.94,2.25-2.13,2.48-2.11,5.21-1.55-.36-2.38.56-2.69,2.1Z"/><path class="cls-1" d="m103.42,329.31c-.97-.05-1.93-.05-2.9-.05-1.74.59-2.94-.19-3.89-1.6-.87-1.34-2.07-1.7-3.56-1.39-.73.16-1.44.35-2.17.52-.52-1.13-.24-3.09-2.07-2.66-2.24.52-4.15-.16-6.22-.75-1.93-.54-2.71.28-2.4,2.31.07.49.19.97.4,1.41.82,1.98.92,4.05.26,6.03-1.3,3.98-2.4,8.06-4.29,11.78-7.37,14.51-12.65,29.75-16.73,45.47-1.74,6.69-3.89,13.29-6.15,19.81-1.63,4.57-3.63,8.98-5.44,13.45-.12.26-.24.49-.33.75-.05.45-.21.85-.45,1.22,0,0,0,.02-.02.05-.5.85-1.27,1.55-1.7,2.47-.64,1.37-1.34,2.61-.35,4.43-.87-.26-1.27-.45-1.7-.52-1.41-.24-2.26.09-2.69,1.67-.89,3.3-2.92,5.94-4.41,8.88-1.39,2.8-3.23,5.04-5.58,6.93-2.17,1.74-2.17,1.93-1.37,4.76-.71-.21-1.3-.38-2.24-.66-.47,1.11-1.15,2.17-1.37,3.3-.64,3.11-1.65,5.96-3.93,8.29-.4.42-.47,1.23-.64,1.84-.09.24,0,.73-.07.75-2.21.78-1.7,2.71-2.03,4.31-.17.73-.49,1.48-.92,2.12-1.7,2.61-2.69,5.47-3.37,8.43-.21.92-.28,1.81.8,1.88.89.05,1.63-.54,1.63-1.55-.02-1.3.73-2,1.37-2.99.8-1.27,1.86-2.61,1.86-4.41,0-.75.59-1.63,1.04-2.36.85-1.34,2.45-2.26,2.31-4.19,2.57-1.41,2.12-4.31,3.2-6.43.68-1.34,1.74-2.54,2.78-3.63,1.06-1.06,2.14-1.98,1.86-3.75,2.29-.07,3.18-1.74,3.72-3.75,1.3-4.74,3.6-8.81,7.3-12.01.82-.71,1.72-1.3,2.59-1.96.73-.92,1.37-1.84,1.37-2.76,0-.45-.14-.87-.52-1.32,1.08-.92,2.38-1.55,2.9-2.61.19-.35.21-.8.19-1.27l.12-.02h.02s.12-.02.19-.02l.66-.09.73-.09c.09,0,.17-.02.26-.05l.54-.07,1.93-.26.68-.09h.09c-.42.35-.82.94-1.32,1.81-.61,1.11-1.3,2.17-2,3.23-1.39,2.05-1.25,3.42.49,4.33,1.63.85,3.32.14,4.24-1.81.49-1.01.89-2.07,1.34-3.11.19.07.35.14.52.21-.66,1.53-1.34,3.06-2.07,4.71,1.77.07,1.51,2.31,2.9,2.76l-.12.02c2.99.28,3.13.16,4.08-3.42,2.38-.68,3.42-1.86,3.98-4.52.02-.19.07-.35.09-.52,1.48.66,1.93.33,2.8-1.58.52-1.13.78-2.4,1.18-3.58.94-2.66,1.79-5.35,2.83-7.96,3.51-9.09,7.42-18.05,10.58-27.23,2.57-7.47,4.19-15.24,6.41-22.8,2.36-8.06,4.9-16.07,7.44-24.05,1.34-4.19,2.9-8.29,5.82-11.71.5-.57.85-1.34,1.08-2.05.47-1.55,0-2.21-1.6-2.29Zm-41.79,104.64c-.12-1.72.78-2.4,1.34-3.18.35-.47.59-.94.68-1.39.28.47.57.9.82,1.34-.85.99-1.77,1.98-2.85,3.23Zm28.41-104.57c-1.86,1.77-2.07,3.98-2.1,6.38-.07,3.65-.71,7.09-2.78,10.32-1.15,1.79-1.46,4.22-1.84,6.41-.8,4.81-1.3,9.68-2.14,14.46-1.63,9.02-2.99,18.14-5.25,27-2.45,9.64-6.1,18.92-10.6,27.82-.75,1.48-1.46,2.97-2.21,4.43-.14-.02-.28-.05-.4-.09.59-4.83,1.01-9.68,1.79-14.46,1.46-8.98,3.13-17.88,4.71-26.83,1.6-9.02,5.06-17.36,9-25.58,2.38-5.02,4.52-10.13,6.83-15.19,1.2-2.61,1.79-5.32,2.03-8.17.21-2.61.42-5.3,2.9-7.02.05.16.14.47.07.54Z"/><path class="cls-1" d="m15.15,440.92c2.12-1.55,3.83-2.92,5.65-4.09.76-.49,1.73-.68,2.6-.79,1.31-.17,2.75.16,3.33-1.81.03-.09.09-.26.11-.26,2.46.27,3.49-2.39,5.34-3.39,2.12-1.14,4.17-2.25,6.46-1.64.37.1.85-.08,1.38-.14.74-1.65.57-3.2.46-4.7-.09-1.32-.77-1.66-2.02-1.14-.68.28-1.32.73-1.96,1.15-2.59,1.73-5.27,3.02-8.23,3.07-1.21.02-2.13.64-3.12,1.62-2.32,2.28-4.81,4.37-7.29,6.46-.56.47-1.33.67-2.02.92-2.05.77-2.54,1.74-1.67,3.53.25.52.72.89.98,1.2Z"/><path class="cls-1" d="m60.91,441.96c-1.44.1-2.29.7-2.55,2.4-.67,4.27-2.37,8.18-5.5,11.53-1.33,1.43-1.46,2.19-1.22,4.56-1.1-.12-1.91.28-2.1,1.58-.12.83-.14,1.72-.49,2.48-.54,1.18-1.16,2.44-2.04,3.37-1.54,1.63-1.64,1.54-.53,3.23-.61-.18-1.21-.36-1.91-.56-.36,1.06-.58,1.97-.97,2.82-.4.87-.96,1.67-1.55,2.66.77.6,1.5,1.16,2.26,1.75,1-1.77,1.91-3.28,2.72-4.84.4-.78.7-1.4,1.65-1.74.49-.18.91-1.16,1.19-1.84.85-2.05,1.95-3.9,3.29-5.74,1.66-2.28,3.55-4.45,3.89-7.6.35-3.23,2.29-6.26,4.4-8.99,2.36-3.07,2.34-3.4-.64-5.07,0,0,.11,0,.11,0Z"/><path class="cls-1" d="m36.84,474.02c1.58,1.12,3.27.92,3.79-1.91.55-2.98,1.96-5.55,4.29-7.69,1.93-1.77,1.77-2.55-.37-3.5-3.1-1.38-3.7-1.07-4.16,2.62-.32,2.6-1.24,4.67-3.27,6.5-1.97,1.77-1.93,2.89-.29,3.99Z"/><path class="cls-1" d="m29.71,484.05c-.4.39-1.02.73-1.2,1.21-.47,1.23-.72,2.53-1.11,3.78-.28.89-.46,1.82.42,2.14,1.07.38,1.74-.5,1.9-1.53.24-1.58,1.13-2.55,2.27-3.52.62-.52,1.24-1.31,1.47-2.06.77-2.52,1.56-4.95,3.74-6.72.31-.25.39-.84.63-1.4-1.15-1-2.11-2.21-4.26-1.63.08,2.89-1.24,5.26-3.23,7.4-.45.48-.42,1.47-.63,2.31Z"/><path class="cls-1" d="m25.09,484.97c-.97-1.68-2.34-1.6-3.58-1.81-.63,1.91-1.22,3.66-1.8,5.42-.29.88-.38,1.78.53,2.06,1.01.32,1.77-.39,1.97-1.43.35-1.75.92-3.28,2.88-4.24Z"/><path class="cls-1" d="m43.86,429.29c1.56-1.45,1.36-3.4,1.99-5.29-1.4-.31-2.57-.36-3.44,1.01-.64,1.01.03,2.88,1.46,4.27Z"/><path class="cls-1" d="m41.47,476.85c-.81,1.65-1.3,2.78-1.91,3.83-.5.86-.75,1.65.1,2.1.76.41,1.27-.28,1.75-.95.75-1.05,1.58-2.05,2.59-3.35-.85-.55-1.68-1.09-2.53-1.64Z"/></g><path class="cls-2" d="m314.78,315.04c-.89,2.54-2.33,4.74-4.57,6.29-2.78,1.93-5.47,1.77-8.01-.47-.52-.42-1.01-.87-1.84-1.58-1.15,1.04-2.31,2.03-3.42,3.06-1.65,1.53-3.18,3.18-5.63,3.35-1.13-1.27-2.33-2.5-3.42-3.82-1.37-1.7-1.53-1.79-3.67-1.08-.35.12-.73.12-1.13.16-1.15-1.81-1.18-3.6-.38-5.37.82-1.77,1.74-3.51,2.78-5.16,2.38-3.75,3.42-7.77,3.02-12.25-.89-9.61-1.51-19.25-2.47-28.86-1.39-13.59-2.85-27.16-4.55-40.71-1.08-8.69-2.69-17.34-4.08-26.01-.59-3.53-2.66-6.12-5.75-7.66-3.49-1.72-5.21-4.59-6.15-8.1-1.91-7.11,1.41-13.19,8.41-15.45,3.2-1.04,6.24-.59,8.69,1.79,1.01.97,1.93,1.32,3.3,1.34,2.5.05,3.84.97,4.1,3.27.57,5.04.97,10.08,1.15,15.15.16,5.16-.26,10.34.05,15.5.71,11.68,1.6,23.35,2.59,35.01.97,11.19,1.91,22.36,4.15,33.38,1.3,6.29,2.57,12.6,4,18.87,1.04,4.55,3.58,8.17,7.33,10.95,1.48,1.08,2.9,2.31,4.24,3.58,1.41,1.3,1.88,2.97,1.25,4.81Z"/><path class="cls-1" d="m291.36,325.73l-.09-.05h.05l.05.05Z"/><g class="cls-5"><path class="cls-1" d="m344.76,424.38c-.09-.26-.21-.52-.33-.78.16.14.28.28.28.4,0,.14.02.26.05.38Z"/><path class="cls-1" d="m345.33,438.48s.05.02.06,0h0s-.03.01-.04.02c-.02,0-.02-.02-.03-.03Z"/><path class="cls-1" d="m345.36,438.51s-.04,0-.05.01l-.04-.07s.03.01.06.03c.03,0,.05.02.06,0h0s-.03.01-.04.02Z"/><path class="cls-1" d="m358.9,459.92c.68,3.34,2.6,6.03,4.62,8.67.74.96,1.4,1.9,1.06,3.28.31.08.62.18.93.25.33.07.67.12,1.14.19.29,1.74.26,3.49.92,5,.61,1.43,1.93,2.58,3.2,4.18-.83.55-1.53,1.1-2.29,1.49-.84.42-1.54.03-1.93-.96-.36-.91-.56-1.88-1.02-2.72-.69-1.24-1.38-2.62-2.38-3.54-.99-.93-.68-2.32-1.38-2.89-.88-.71-1.59-1.28-1.82-2.42-.55-2.74-2.03-4.96-3.94-7-1.09-1.16-2.49-2.29-2.01-4.34-2.16-.38-2.93-2.01-3.51-4.02-1.71-5.87-4.05-9.24-9.05-13.19.13.87.13,1.55.35,2.18,1.17,3.42,2.75,6.63,5.07,9.49.71.87,1.31,1.93,1.73,2.98.55,1.42.06,2.57-.96,3.37-1.44,1.13-3.12.49-3.3-1.53-.28-3.19-1.9-5.84-3.27-8.59-.9-1.81-2.16-3.47-3.28-5.17-.64-.98-1.51-1.95-.91-3.1.6-1.14,1.64-1.91,2.96-1.5,1.04.33,1.49-.15,2.2-.53.99-.53,2.18-.67,3.3-.96.69.99,1.71,1.95,1.98,3.01,1.15,4.42,3.97,7.77,6.81,11.08,1.94,2.25,2.13,2.48,2.11,5.21,1.55-.36,2.38.56,2.69,2.1Z"/><path class="cls-1" d="m377.6,482.67c-.68-2.97-1.7-5.82-3.39-8.43-.4-.64-.75-1.39-.92-2.12-.33-1.6.19-3.53-2-4.31-.07-.02,0-.52-.07-.75-.19-.61-.26-1.41-.66-1.84-2.29-2.33-3.27-5.18-3.91-8.29-.24-1.13-.92-2.19-1.37-3.3-.94.28-1.53.45-2.24.66.78-2.83.8-3.02-1.39-4.76-2.36-1.88-4.19-4.12-5.58-6.93-1.46-2.94-3.51-5.58-4.38-8.88-.42-1.58-1.3-1.91-2.71-1.67-.42.07-.82.26-1.7.52.99-1.81.28-3.06-.35-4.43-.4-.87-1.13-1.58-1.65-2.38,0-.02-.02-.02-.02-.02-.24-.4-.42-.85-.49-1.34-.09-.26-.21-.52-.33-.78-1.81-4.45-3.82-8.86-5.42-13.43-2.29-6.53-4.43-13.12-6.17-19.81-4.05-15.71-9.35-30.95-16.7-45.47-1.88-3.72-3.02-7.8-4.31-11.78-.64-1.98-.54-4.05.28-6.03.19-.45.33-.92.4-1.41.28-2.03-.47-2.85-2.43-2.31-2.05.59-3.96,1.27-6.22.75-1.84-.42-1.55,1.53-2.07,2.66-.71-.16-1.44-.35-2.17-.52-1.46-.31-2.69.05-3.56,1.39-.92,1.41-2.14,2.19-3.86,1.6-.97,0-1.93,0-2.9.05-1.6.07-2.1.73-1.6,2.29.24.71.59,1.48,1.06,2.05,2.94,3.42,4.5,7.51,5.82,11.71,2.54,7.99,5.09,16,7.44,24.05,2.24,7.56,3.84,15.34,6.41,22.8,3.18,9.19,7.07,18.14,10.6,27.23,1.01,2.61,1.88,5.3,2.8,7.96.4,1.18.66,2.45,1.18,3.58.85,1.91,1.32,2.24,2.8,1.58.02.16.07.33.09.52.57,2.66,1.6,3.84,3.98,4.52.97,3.58,1.08,3.7,4.08,3.42l-.09-.02c1.37-.45,1.11-2.69,2.87-2.76-.73-1.65-1.39-3.18-2.07-4.71.16-.07.35-.14.52-.21.45,1.04.87,2.1,1.34,3.11.94,1.96,2.64,2.66,4.26,1.81,1.74-.92,1.86-2.29.47-4.33-.71-1.06-1.39-2.12-2-3.23-.49-.87-.9-1.46-1.32-1.81h.09l.68.09,1.96.26.52.07c.09.02.16.05.26.05l.73.09.68.09c.07,0,.14.02.19.02h.02l.09.02c-.02.47,0,.92.19,1.27.52,1.06,1.84,1.7,2.9,2.61-.35.42-.49.87-.49,1.32,0,.9.61,1.84,1.37,2.76h-.05c.9.66,1.79,1.25,2.61,1.96,3.7,3.2,6.01,7.28,7.3,12.01.57,2,1.44,3.68,3.75,3.75-.31,1.77.8,2.69,1.84,3.75,1.06,1.08,2.1,2.29,2.78,3.63,1.08,2.12.64,5.02,3.23,6.43-.14,1.93,1.46,2.85,2.29,4.19.47.73,1.04,1.6,1.04,2.36,0,1.79,1.06,3.13,1.88,4.41.61.99,1.37,1.7,1.34,2.99,0,1.01.73,1.6,1.65,1.55,1.06-.07,1.01-.97.8-1.88Zm-60.83-88.72c-2.24-8.86-3.63-17.97-5.25-27-.85-4.78-1.32-9.66-2.14-14.46-.38-2.19-.68-4.62-1.84-6.41-2.07-3.23-2.71-6.67-2.76-10.32-.05-2.4-.26-4.62-2.12-6.38-.07-.07.05-.38.07-.54,2.47,1.72,2.71,4.41,2.92,7.02.21,2.85.82,5.56,2.03,8.17,2.31,5.06,4.43,10.18,6.83,15.19,3.91,8.22,7.4,16.56,9,25.58,1.55,8.95,3.23,17.86,4.69,26.83.78,4.78,1.23,9.64,1.81,14.46-.14.05-.28.07-.42.09-.73-1.46-1.46-2.94-2.21-4.43-4.5-8.9-8.13-18.19-10.6-27.82Zm11.45,36.77c.28-.45.54-.87.82-1.34.09.45.35.9.71,1.39.57.78,1.44,1.46,1.32,3.18-1.08-1.25-2-2.24-2.85-3.23Zm6.78-1.65c-.28.16-.54.35-.9.57-.07-.16-.16-.31-.21-.45.57-.16,1.13-.33,1.67-.4-.19.09-.35.19-.57.28Z"/><path class="cls-1" d="m377.55,440.92c-2.12-1.55-3.83-2.92-5.65-4.09-.76-.49-1.73-.68-2.6-.79-1.31-.17-2.75.16-3.33-1.81-.03-.09-.09-.26-.11-.26-2.46.27-3.49-2.39-5.34-3.39-2.12-1.14-4.17-2.25-6.46-1.64-.37.1-.85-.08-1.38-.14-.74-1.65-.57-3.2-.46-4.7.09-1.32.77-1.66,2.02-1.14.68.28,1.32.73,1.96,1.15,2.59,1.73,5.27,3.02,8.23,3.07,1.21.02,2.13.64,3.12,1.62,2.32,2.28,4.81,4.37,7.29,6.46.56.47,1.33.67,2.02.92,2.05.77,2.54,1.74,1.67,3.53-.25.52-.72.89-.98,1.2Z"/><path class="cls-1" d="m331.79,441.96c1.44.1,2.29.7,2.55,2.4.67,4.27,2.37,8.18,5.5,11.53,1.33,1.43,1.46,2.19,1.22,4.56,1.1-.12,1.91.28,2.1,1.58.12.83.14,1.72.49,2.48.54,1.18,1.16,2.44,2.04,3.37,1.54,1.63,1.64,1.54.53,3.23.61-.18,1.21-.36,1.91-.56.36,1.06.58,1.97.97,2.82.4.87.96,1.67,1.55,2.66-.77.6-1.5,1.16-2.26,1.75-1-1.77-1.91-3.28-2.72-4.84-.4-.78-.7-1.4-1.65-1.74-.49-.18-.91-1.16-1.19-1.84-.85-2.05-1.95-3.9-3.29-5.74-1.66-2.28-3.55-4.45-3.89-7.6-.35-3.23-2.29-6.26-4.4-8.99-2.36-3.07-2.34-3.4.64-5.07,0,0-.11,0-.11,0Z"/><path class="cls-1" d="m355.86,474.02c-1.58,1.12-3.27.92-3.79-1.91-.55-2.98-1.96-5.55-4.29-7.69-1.93-1.77-1.77-2.55.37-3.5,3.1-1.38,3.7-1.07,4.16,2.62.32,2.6,1.24,4.67,3.27,6.5,1.97,1.77,1.93,2.89.29,3.99Z"/><path class="cls-1" d="m362.99,484.05c.4.39,1.02.73,1.2,1.21.47,1.23.72,2.53,1.11,3.78.28.89.46,1.82-.42,2.14-1.07.38-1.74-.5-1.9-1.53-.24-1.58-1.13-2.55-2.27-3.52-.62-.52-1.24-1.31-1.47-2.06-.77-2.52-1.56-4.95-3.74-6.72-.31-.25-.39-.84-.63-1.4,1.15-1,2.11-2.21,4.26-1.63-.08,2.89,1.24,5.26,3.23,7.4.45.48.42,1.47.63,2.31Z"/><path class="cls-1" d="m367.61,484.97c.97-1.68,2.34-1.6,3.58-1.81.63,1.91,1.22,3.66,1.8,5.42.29.88.38,1.78-.53,2.06-1.01.32-1.77-.39-1.97-1.43-.35-1.75-.92-3.28-2.88-4.24Z"/><path class="cls-1" d="m348.84,429.29c-1.56-1.45-1.36-3.4-1.99-5.29,1.4-.31,2.57-.36,3.44,1.01.64,1.01-.03,2.88-1.46,4.27Z"/><path class="cls-1" d="m351.23,476.85c.81,1.65,1.3,2.78,1.91,3.83.5.86.75,1.65-.1,2.1-.76.41-1.27-.28-1.75-.95-.75-1.05-1.58-2.05-2.59-3.35.85-.55,1.68-1.09,2.53-1.64Z"/></g><path class="cls-2" d="m269.8,673.6c-.64,2.73-1.3,5.58-1.18,8.34.38,9.26,1.15,18.47,1.7,27.7.38,6.5.99,13.03.9,19.53-.16,10.06-.87,20.14-1.34,30.22-.4,8.81-.68,17.64-1.25,26.46-.49,7.44-1.44,14.84-1.98,22.29-.47,6.76-.12,13.43,3.06,19.69.82,1.63,1.13,3.58,1.41,5.44.33,2.31-.38,4.15-2.83,4.5.52,2.12,1.08,4.03,1.41,5.98.16.9.05,1.88-.16,2.78-.35,1.37-1.23,1.93-2.59,1.25-.49-.24-.94-.52-1.39-.75-1.46-1.39-3.11-2.1-5.09-1.25-.68.54-1.3,1.13-1.98,1.67.75.26,1.53.4,2.38.47,2.4.16,4.48,1.06,6.29,2.52.85-.24,1.6-.42,2.33-.64,3.02-.87,4.55.16,4.99,3.42-2.54-.85-5.54,1.06-7.87-1.32-1.25,1.32-2.78,1.32-4.36,1.22-1.41-.09-2.87-.35-4.12.66,5.14.14,6.93,3.09,4.48,7.35-1.91-.85-3.75-2.5-6.36-.71,1.25.19,2.17.28,3.09.49,4.33.99,5.39,3.3,3.35,7.19-.94,1.77-1.41,3.56-1.11,5.61.21,1.41.97,3.13-1.08,4.03-.14.07-.02.71-.07,1.06-.07.64-.16,1.27-.26,1.96,2.85,1.63,2.9,1.91.85,4.74.24.57.54,1.15.71,1.81.26,1.01-.14,1.7-1.2,1.96-1.25.31-2.61-.28-3.16-1.41-.28-.61-.31-1.48-.75-1.86-1.84-1.51-1.67-3.27-.66-5.32-1.79-.35-2.92-1.15-2.66-2.99-2.45-1.74-.73-3.13.42-4.5,1.04-1.22,1.23-2.54,1.06-4.08-.19-1.72-.21-3.49-.35-5.21-.05-.52-.14-1.32-.47-1.48-1.3-.66-1.06-1.72-.94-2.78.38-3.11,1.77-5.32,5.11-5.84-1.04.05-2.07,0-3.09.16-.78.09-1.48.49-2.24.64-2.38.42-3.65-.45-3.72-2.83-.05-1.53.19-3.13.59-4.59.78-2.73,2.47-3.63,4.48-2.4,0-.05.02-.12.02-.16.38-2.1.85-4.15,1.32-6.34-.59.54-1.2,1.06-1.79,1.6-2.4,2.19-3.75,1.93-4.71-1.25-.54-1.77-.92-3.72-.73-5.54.49-4.38,1.27-8.74,2.14-13.05,1.98-9.92,3.53-19.84,2.99-30.01-.64-12.27-1.11-24.57-1.58-36.87-.49-13.43-.82-26.88-1.41-40.33-.38-8.29-.66-16.58-2.73-24.71-1.91-7.54-3.46-15.12-8.01-21.74-1.81-2.61-2.12-5.8-1.81-9.23,1.58-.16,2.99-.28,5.09-.49-3.32-1.72-4.45-4.59-5.7-7.47-2.5-5.8-2.21-11.31,1.67-16.35,2.38-3.06,3.82-6.5,4.66-10.2.87-3.82,1.81-7.59,2.47-11.4,4.62-25.7,6.86-51.59,6.83-77.72-.05-15.64.45-31.31.49-46.95.02-3.96-.28-8.06-1.34-11.83-.94-3.27-1.51-6.24-.38-9.49,1.39-3.89.33-7.47-1.72-10.81-1.74-2.83-3.42-3.56-6.64-2.92-1.96.4-3.86.99-5.8,1.48-2.57.61-4.08-.19-4.19-2.73-.26-4.99.28-9.89,3.16-14.23,1.65-2.43,3.82-4.17,6.78-4.76,4.17-.87,5.94.49,6.05,4.76.12,3.72,2.66,6.2,6.57,6.38,2.38-3.6,4.19-4.33,8.48-3.44,5.02,1.06,7.63,4.59,9,9.16,1.84,6.13,1.44,12.27-.45,18.33-.78,2.5-1.93,4.9-2.61,7.42-.66,2.4-1.11,4.9-1.27,7.37-.26,4.1-.21,8.2-.31,12.3-.33,12.7-.61,25.4-1.01,38.12-.42,12.39-1.04,24.76-1.55,37.15-.59,14.79-1.13,29.59-1.77,44.38-.26,5.96,1.81,10.74,6.1,14.91,6.43,6.22,6.67,17.01.9,23.68l-6.69,1.84c-.68-.33-1.39-.66-2.38-1.11.47-1.13.94-2.12,1.34-3.16,1.04-2.64,2.07-5.28,3.04-7.92,2.05-5.61-3.44-13.03-10.22-12.6-7.07.42-11.21,3.7-12.65,11.17-.52,2.85.33,5.42,2.31,7.56.85.92,1.74,1.81,2.59,2.76,1.67,1.86,1.7,3.09,0,4.88-.49.49-1.13.92-1.91,1.46,2.76-.21,3.84-1.58,3.53-4.38-.19-1.6-.82-3.25-1.6-4.66-2.1-3.72-3.3-7.51-1.6-11.71.42-1.04,1.01-2.12,1.84-2.85,5.18-4.74,14.06-2.43,16.4,4.15.8,2.24.38,4.38-.45,6.45-.61,1.53-1.51,2.99-2.31,4.45-.54,1.01-1.2,1.98-1.7,2.99-.54,1.13-1.34,2.52-.28,3.51.66.64,2.05.54,3.32.21l6.83-1.25c1.27.16,2.52.31,3.91.47-.12.99-.14,1.63-.28,2.19-1.53,5.8-3.18,11.54-4.59,17.36Z"/><path class="cls-2" d="m264.21,854.87c.27,1.04.63,2.14.82,3.27.37,2.2.83,4.41.9,6.62.05,1.53-.02,2.92.97,3.49-.2,1.2-.71,2.22-.4,2.8.73,1.35.51,2.6.34,3.96-.11.88.11,1.79.2,2.8,1.47-.19,2.55-.33,4.14-.53-1.13.93-1.97,1.37-2.4,2.06-.56.91.6,1.48.82,2.16.96,3.03,1.61,6.16,2.33,9.27.36,1.55,1.14,2.42,3.04,2.13-.17-2.09.32-4.06-.52-6.21-.69-1.77-.4-3.93-.53-5.92-.02-.37.19-1.01.05-1.08-2.05-1.12-1.15-3.64-2.5-5.15-.62-.69-.6-1.96-.84-2.98-.29-1.21-1.16-2.76-.7-3.55.82-1.43.13-2.39-.12-3.57-.57-2.66-1.2-5.32-1.56-8.01-.4-2.99-1.25-3.43-4.05-1.56Z"/><path class="cls-2" d="m282.51,877.41c-1.38,1.08-3.08.82-4.64,1.17-.7.15-1.63.43-1.92.94-.48.86.59,1.15,1.07,1.71.91,1.06,1.59,2.35,2.22,3.61.66,1.32,1.14,2.73,1.97,4.02.89-1.55,1.08-2.93.06-4.46-.84-1.26-1.71-2.63-1.21-4.49,1.43,0,2.33.58,2.84,1.9.58,1.53,1.19,3.04,1.84,4.54.14.32.45.56.88,1.08.62-1.55.76-2.8-.02-3.98-1.1-1.68-1.76-3.44-1.17-5.57-.78-.17-1.41-.3-2.03-.43,0,0,.12-.05.12-.05Z"/><path class="cls-2" d="m286.46,876.84c-.21-.62-.32-1.32-.66-1.86-1.42-2.19-2.88-4.34-4.39-6.47-.3-.43-.88-.66-1.45-1.07-.39.53-.7.95-1.08,1.46-.44-.39-.86-.76-1.29-1.12,0,0,.08-.04.08-.04-1.48.95-1.13,2.05-.2,3.12,1.33,1.54,2.53,3.1,2.81,5.24.16,1.24,1.24,1.28,2.23,1.3,0,0-.12.05-.12.05.27-.58.54-1.17.67-1.45,1.26.29,2.38.54,3.51.8,0,0-.11.03-.11.03Z"/><path class="cls-2" d="m275.01,865.16c-.44-1.12-1.06-2.21-1.29-3.38-.39-2-.54-4.04-.81-6.22-1.01-.32-1.99-.63-3.38-1.07.26,1.08.48,1.87.62,2.67.46,2.59.89,5.18,1.34,7.78.13.77.14,1.59.44,2.28.19.45.8.96,1.25.98.44.02,1.12-.44,1.32-.86.32-.68.32-1.5.46-2.27,0,0,.04.11.04.11Z"/><path class="cls-2" d="m274.97,865.06c.18.53.38,1.05.54,1.59.32,1.14,1.05,1.48,2.15,1.12,0,0-.08.04-.07.04-.15-1.68-.31-3.36-.46-5.03.1-.02.2-.03.3-.05.49,1.08.97,2.17,1.46,3.25.78-2.29-.41-4.12-.84-6.3-1.2-.22-2.39-.44-3.61-.66.21,2.23.4,4.2.58,6.16,0,0-.05-.11-.05-.11Z"/><path class="cls-2" d="m276.45,877.8c1.41-.18,2-.79,1.58-1.81-.84-2.04-1.75-4.06-2.82-5.99-.24-.44-1.24-.45-2.25-.77.51,3.43,2.06,5.93,3.49,8.57Z"/><path class="cls-2" d="m274.55,853.25c-.7.2-1.4.39-2.13.6.96,1.5,1.87,2.91,2.85,4.42,1.32.18,1.68-.8,1.91-1.88.21-1.01-.35-1.62-1.16-2.11-.53-.32-1.03-.69-1.54-1.04.01,0,.07,0,.07,0Z"/><path class="cls-2" d="m286.57,876.81c-.46.3-.92.61-1.3.86,1.12,2.01,2.14,3.84,3.16,5.67.15-.04.3-.08.45-.12,0-.53.11-1.09-.02-1.59-.36-1.37-.75-2.75-1.27-4.07-.13-.34-.75-.49-1.14-.72.01,0,.12-.04.12-.04Z"/><path class="cls-2" d="m205.49,258.31s0,.02-.02.05v-.05h.02Z"/><path class="cls-2" d="m223.09,172.09c-.05.73-.14,1.46-.35,2.19.07-.73.19-1.46.35-2.19Z"/><path class="cls-2" d="m286.15,171.43c-.35.54-1.48.87-2.24.82-.92-.07-1.88-.52-2.71-.99-2.9-1.63-5.89-1.86-9.05-.9-1.2.38-2.45.8-3.7.9-.75.05-1.53-.09-2.31-.24-.12-.02-.21-.02-.31-.07-1.58-.45-1.44-2.94-1.44-2.94,2.5-.19,5.04-.12,7.49-1.37-.33-1.25-.64-2.33-.97-3.58-.52.66-.87,1.08-1.34,1.7-3.35-2.19-6.95-3.58-10.81-4.29-2.87-.52-5.75-1.15-8.6-1.74-7.09-1.44-14.13-2.85-21.41-2.76-3.51.05-7.02-.38-10.48-.94-1.86-.31-3.75-1.13-5.35-2.17-2.9-1.88-3.7-6.81-1.65-10.22,1.25,1.06,2.54,2.05,3.68,3.16,3.44,3.32,7.42,5.25,12.25,5.49,4.76.24,9.52.85,14.3,1.01,10.67.38,20.75,3.27,30.65,7.02.24.09.42.33.61.49-.12.45-.24.85-.38,1.41,1.86-.45,3.35-.33,4.71.68,2.19,1.63,4.45,3.16,6.62,4.83.85.64,1.67,1.39,2.21,2.29.38.66.54,1.84.21,2.4Z"/><path class="cls-2" d="m190.79,99.76c-2.18.99-3.41.61-4.66-1.43-1.7.7-2.25.58-3.63-.79-1.31.83-2.95.16-3.36-1.37-.03-.12-.1-.25-.09-.37.23-2.19-.28-4.42.47-6.59.14-.41.08-1.1-.18-1.4-1.46-1.61-2.85-3.35-4.57-4.64-1.76-1.31-3.91-1.5-5.84-.08-.81.59-1.27.36-1.68-.38-.98-1.77-1.94-3.55-2.92-5.31-.65-1.18-1.27-2.38-2-3.51-.44-.69-.38-1.2.05-1.84,1.6-2.35,2.92-4.84,3.56-7.64.55-2.42.46-4.79-.61-7.06-.18-.38-.44-.73-.82-1.06-1.08,2.34-.41,4.8-.5,7.19-.15.09-.29.19-.44.28-.21-.36-.39-.75-.65-1.06-2.38-2.86-3.65-6.22-3.96-9.86-.35-4.25-.64-8.53-.58-12.8.09-6.32,1.29-12.46,4.21-18.14,4.17-8.13,10.82-13.39,19.46-16.03,10.78-3.29,21.47-2.88,31.77,1.88,9.47,4.38,15.1,11.99,17.58,22.01,1.59,6.4,1.74,12.9,1.06,19.44-.21,1.98-.34,3.97-.7,5.92-.52,2.82-1.7,5.38-3.57,7.58-.28.32-.62.59-1.16.78.07-1.2.2-2.39.2-3.59,0-1.19-.16-2.38-.24-3.56-.15-.03-.3-.06-.45-.09-.26.39-.59.76-.78,1.19-1.39,3.18-1.11,6.36.21,9.45.75,1.76,1.77,3.41,2.73,5.08.37.64.52,1.14.12,1.85-1.53,2.71-2.99,5.46-4.48,8.2-.15.28-.35.54-.53.81-.45.67-.9.84-1.65.3-1.94-1.4-4.04-1.23-5.83.12-1.67,1.27-3.06,2.91-4.53,4.42-.48.49-.47,1.08-.22,1.78.29.8.4,1.68.48,2.54.09.99.05,1.98.06,2.97.02,1.08-.17,2.07-1.22,2.64-.78.42-1.58.84-2.29-.07-1.66,1.53-1.89,1.57-3.67.73-1,2.09-2.43,2.56-4.63,1.52-1.79,1.55-3.25,1.79-4.71.79-1.85.95-3.04.76-4.79-.76Zm23.54-27.88c.9,0,1.8.04,2.7,0,1.79-.1,3.09-.92,3.81-2.62,1.52-3.6,1.5-7.17-.15-10.71-.7-1.5-1.97-2.19-3.55-2.25-3.68-.14-7.31.28-10.83,1.38-2.6.81-4.16,2.62-4.42,5.37-.12,1.3-.12,2.63-.02,3.93.18,2.41.7,3,3.06,3.65,3.07.84,6.19,1.43,9.4,1.25Zm-37.59.15c3.44.02,6.78-.61,10.04-1.63.98-.31,1.99-.72,2.22-1.9.42-2.06.52-4.15.08-6.22-.49-2.29-1.9-3.86-4.13-4.54-3.58-1.09-7.26-1.64-11.01-1.45-1.53.08-2.84.73-3.5,2.18-1.78,3.87-1.83,7.75.23,11.56.54.99,1.41,1.58,2.53,1.71,1.18.13,2.36.19,3.55.29Zm18.55,5.8c.13,0,.27,0,.4,0,.15.33.37.65.42,1,.15.88.24,1.78.31,2.67.14,1.74.65,2.19,2.4,1.97.32-.04.63-.1.95-.17,1.01-.23,1.37-.62,1.11-1.63-.32-1.22-.69-2.49-1.33-3.56-.81-1.37-1.46-2.75-1.91-4.28-.31-1.06-.81-2.09-1.37-3.04-.52-.87-.95-.87-1.49.03-.54.9-1.03,1.87-1.29,2.87-.42,1.61-1.02,3.09-1.98,4.45-.82,1.18-1.33,2.51-1.24,3.97.02.36.32.94.6,1.02.82.22,1.69.29,2.55.32.76.02,1.15-.44,1.19-1.22.04-.8.08-1.61.2-2.4.1-.67.32-1.32.49-1.98Z"/><path class="cls-4" d="m313.38,429.53c.68,1.48,1.48,2.92,2.12,4.43.21.47.4.92.59,1.37,4.33,9.21,12.09,20.75,19.51,31.43l.14.19.14.24,14.3,20.02c1.25,2.59,6.46,9.21,7.47,10.44l.17.24c.56.57,1.3.92,1.88,1.15,1.37.49,2.71.33,5.02-.24,2.69-.64,10.25,2.33,11.73,2.31.87-.02,1.72-.09,2.5-.19,8.46-1.15,8.5-6.22,4.52-14.91-3.32-7.28-7.28-14.28-10.95-21.39-.09-.21-.21-.4-.31-.61-1.84-3.6-3.65-7.21-4.48-11.19-.57-2.76-.66-5.68.05-8.9.16-.9.42-1.81.73-2.76.09-.24.17-.49.24-.73.12.14.24.31.35.42,4.59,6.01,11.12,6.38,16.7,8.86,1.06.49,2.87.82,4.1.05.59-.35,1.04-.97,1.2-1.91.05-.16.05-.38.02-.61v-.02c-.12-1.27-1.06-3.02-2.05-3.65-12.3-7.84-18.73-24.17-36-25.02-3.42-.16-5.8-1.23-7.7-2.99l-.31-.31c-.16-.14-.31-.28-.47-.45-.02-.05-.07-.09-.12-.14,0,0-22.62-3.32-31.1,14.89Z"/></svg>