<?xml version="1.0" encoding="UTF-8"?><svg id="Lag_1" xmlns="http://www.w3.org/2000/svg" viewBox="0 0 379.23 868.85"><defs><style>.cls-1,.cls-2,.cls-3{fill:#fff;}.cls-4{fill:red;opacity:.39;}.cls-5,.cls-6,.cls-2{opacity:.22;}.cls-6,.cls-7{fill:none;}.cls-3{opacity:.15;}</style></defs><path class="cls-3" d="m.02,433.57v.02c-.02.23-.02.43.02.59.16.91.59,1.51,1.16,1.85,1.19.75,2.95.43,3.97-.05,5.41-2.4,11.74-2.76,16.19-8.59.11-.11.23-.27.34-.41.07.23.14.48.23.71.3.91.55,1.8.71,2.67.69,3.13.59,5.96.05,8.63-.8,3.86-2.56,7.35-4.34,10.85-.09.21-.21.39-.3.59-3.56,6.9-7.4,13.68-10.62,20.74-3.86,8.43-3.81,13.34,4.39,14.46.75.09,1.58.16,2.42.18,1.44.02,8.77-2.86,11.37-2.24,2.24.55,3.54.71,4.87.23.57-.23,1.28-.57,1.83-1.12l.16-.23c.98-1.19,6.03-7.61,7.24-10.12l13.86-19.41.14-.23.14-.18c7.19-10.35,14.71-21.54,18.91-30.47.18-.43.37-.87.57-1.32.62-1.46,1.39-2.86,2.06-4.29,14.92-32.62,30.49-65.01,39.56-100.02,2.1-8.06,3.84-16.26,5.16-24.65.07,24.87-.82,49.59-4.45,73.89-.98,6.62-2.35,13.22-3.86,19.8-1.46,6.4-3.04,12.79-4.55,19.19-2.97,12.4-5.62,24.83-6.42,37.39-2.35,36.5.09,73.3.55,109.98.34,26.29,1.19,52.56,1.01,78.85-.09,16.86-3.47,33.85-2.15,50.55,2.38,29.56,7.49,58.93,10.92,88.44,2.76,23.98,1.42,47.74-8.98,70.05-3.47,7.45-14.71,14.18-7.63,22.38,4.43,5.12,15.26,5.94,23.37,6.4,20.81,1.23,24.46-4.11,23.39-25.56-1.3-26.52,3.88-53.17-1.16-79.71-.48-2.65.84-5.66,1.42-8.47,7.31-36.32,18.55-72.13,13.54-110-.53-3.93,1.12-8.13,1.87-12.17,6.72-36,13.93-71.9,20.03-107.99,3.2-18.96,4.45-38.24,6.67-57.97,2.15.09,2.88.14,5.94.27,3.06-.14,3.79-.18,5.94-.27,2.22,19.73,3.47,39.01,6.67,57.97,6.1,36.09,13.32,71.99,20.03,107.99.75,4.04,2.4,8.25,1.87,12.17-5,37.87,6.24,73.68,13.54,110,.57,2.81,1.9,5.82,1.42,8.47-5.05,26.54.14,53.2-1.16,79.71-1.07,21.45,2.58,26.79,23.39,25.56,8.11-.46,18.93-1.28,23.37-6.4,7.08-8.2-4.16-14.94-7.63-22.38-10.39-22.32-11.74-46.07-8.98-70.05,3.43-29.51,8.54-58.88,10.92-88.44,1.32-16.7-2.06-33.69-2.15-50.55-.18-26.29.66-52.56,1.01-78.85.46-36.68,2.9-73.48.55-109.98-.8-12.56-3.45-24.99-6.42-37.39-1.51-6.4-3.08-12.79-4.55-19.19-1.51-6.58-2.88-13.18-3.86-19.8-3.63-24.3-4.52-49.02-4.45-73.89,1.32,8.38,3.06,16.58,5.16,24.65,9.07,35.02,24.65,67.4,39.56,100.02.66,1.44,1.44,2.83,2.06,4.29.21.46.39.89.57,1.32,4.2,8.93,11.72,20.12,18.91,30.47l.14.18.14.23,13.86,19.41c1.21,2.51,6.26,8.93,7.24,10.12l.16.23c.55.55,1.26.89,1.83,1.12,1.32.48,2.63.32,4.87-.23,2.6-.62,9.94,2.26,11.37,2.24.85-.02,1.67-.09,2.42-.18,8.2-1.12,8.25-6.03,4.39-14.46-3.22-7.06-7.06-13.84-10.62-20.74-.09-.21-.21-.39-.3-.59-1.78-3.49-3.54-6.99-4.34-10.85-.55-2.67-.64-5.5.05-8.63.16-.87.41-1.76.71-2.67.09-.23.16-.48.23-.71.11.14.23.3.34.41,4.45,5.82,10.78,6.19,16.19,8.59,1.03.48,2.79.8,3.97.05.57-.34,1-.94,1.16-1.85.05-.16.05-.37.02-.59v-.02c-.11-1.23-1.03-2.92-1.99-3.54-11.92-7.61-18.16-23.43-34.9-24.26-3.31-.16-5.62-1.19-7.47-2.9l-.3-.3c-.16-.14-.3-.27-.46-.43-.02-.05-.07-.09-.11-.14-1.76-1.92-3.15-4.07-3.68-6.01-5.53-20.19-9.36-40.82-13.98-61.26-2.31-10.16-3.61-20.83-7.22-30.45-.37-.98-.75-1.94-1.19-2.9-13.36-30.47-16.88-61.88-12.45-94.49.11-.85.23-1.69.3-2.51l.02-.02c3.11-27.73-6.19-41.64-33.35-51.44-8.11-2.9-16.13-6.28-23.94-10.03-2.6-1.26-5.05-2.74-7.24-4.41-.07-.07-.14-.14-.21-.18-1.21-.91-2.33-1.9-3.4-2.97-.16-.14-.25-.21-.25-.21-.85-.85-1.64-1.71-2.42-2.6-8.25-9.75-11.21-22.93-8.11-35.52l.02-.02c1.39-5.6,4-11.05,7.88-16.06,5.87-7.56,9.52-21.06,3.54-27.87-.98-1.14.32-5.44.55-8.29,1.3-15.46.57-30.61-15.33-38.67C205.65,2.06,197.59,0,189.62,0s-16.03,2.06-23.94,6.1c-15.9,8.06-16.63,23.21-15.33,38.67.23,2.86,1.53,7.15.55,8.29-5.98,6.81-2.33,20.31,3.54,27.87,3.88,5,6.49,10.46,7.88,16.06l.02.02c3.11,12.59.14,25.76-8.11,35.52-.78.89-1.58,1.76-2.42,2.6,0,0-.09.07-.25.21-1.07,1.07-2.19,2.06-3.4,2.97-.07.05-.14.11-.21.18-2.19,1.67-4.64,3.15-7.24,4.41-7.81,3.75-15.83,7.13-23.94,10.03-27.16,9.8-36.45,23.71-33.35,51.44l.02.02c.07.82.18,1.67.3,2.51,4.43,32.62.91,64.02-12.45,94.49-.43.96-.82,1.92-1.19,2.9-3.61,9.62-4.91,20.28-7.22,30.45-4.61,20.44-8.45,41.07-13.98,61.26-.53,1.94-1.92,4.09-3.68,6.01-.05.05-.09.09-.11.14-.16.16-.3.3-.46.43l-.3.3c-1.85,1.71-4.16,2.74-7.47,2.9-16.74.82-22.98,16.65-34.9,24.26-.96.62-1.87,2.31-1.99,3.54Z"/><path class="cls-7" d="m227.67,135.33c.5.41,1.71,1.44,3.4,2.97"/><line class="cls-7" x1="271.98" y1="404.65" x2="272" y2="404.65"/><path class="cls-7" d="m225,132.52l.02-.02"/><path class="cls-7" d="m267,200.34c0-.18,0-.34.02-.53"/><path class="cls-7" d="m148.16,138.3c1.69-1.53,2.9-2.56,3.4-2.97"/><line class="cls-7" x1="107.23" y1="404.65" x2="107.25" y2="404.65"/><path class="cls-7" d="m154.21,132.5l.02.02"/><path class="cls-7" d="m112.21,199.81c.02.18.02.34.02.53"/><path class="cls-7" d="m227.75,134.92c.5.41,1.71,1.44,3.4,2.97"/><line class="cls-7" x1="272.06" y1="404.23" x2="272.08" y2="404.23"/><path class="cls-7" d="m225.08,132.11l.02-.02"/><path class="cls-7" d="m267.08,199.92c0-.18,0-.34.02-.53"/><path class="cls-7" d="m148.24,137.89c1.69-1.53,2.9-2.56,3.4-2.97"/><line class="cls-7" x1="107.31" y1="404.23" x2="107.33" y2="404.23"/><path class="cls-7" d="m154.29,132.09l.02.02"/><path class="cls-7" d="m112.29,199.4c.02.18.02.34.02.53"/><path class="cls-6" d="m266.25,199.96c0-.18,0-.34.02-.53"/><path class="cls-6" d="m111.45,199.43c.02.18.02.34.02.53"/><path class="cls-2" d="m225.5,436.55c.11,2.47,1.58,3.24,4.07,2.65,1.87-.48,3.72-1.05,5.62-1.44,3.13-.62,4.75.09,6.44,2.83,1.99,3.24,3.01,6.72,1.67,10.48-1.1,3.15-.55,6.03.37,9.2,1.03,3.65,1.32,7.63,1.3,11.47-.05,15.17-.53,30.36-.48,45.52.02,25.33-2.12,50.43-6.6,75.35-.66,3.7-1.58,7.35-2.4,11.06-.85,3.59-2.22,6.92-4.55,9.89-3.77,4.89-4.04,10.23-1.62,15.85,1.21,2.79,2.31,5.57,5.53,7.24-2.03.21-3.4.32-4.93.48-.3,3.33,0,6.42,1.76,8.95,4.41,6.42,5.92,13.77,7.77,21.08,2.01,7.88,2.28,15.92,2.65,23.96.57,13.04.89,26.08,1.37,39.1.46,11.92.91,23.85,1.53,35.75.53,9.87-.98,19.48-2.9,29.1-.85,4.18-1.6,8.41-2.08,12.65-.18,1.76.18,3.65.71,5.37.94,3.08,2.24,3.33,4.57,1.21.57-.53,1.16-1.03,1.76-1.55-.48,2.12-.94,4.11-1.3,6.14,0,.05-.02.11-.02.16-1.94-1.19-3.59-.32-4.34,2.33-.39,1.42-.59,2.97-.57,4.45.09,2.31,1.3,3.15,3.61,2.74.73-.14,1.42-.53,2.17-.62.98-.16,1.99-.11,2.99-.16-3.24.5-4.59,2.65-4.96,5.66-.11,1.03-.34,2.06.91,2.7.32.16.41.94.46,1.44.14,1.67.16,3.38.34,5.05.16,1.48-.02,2.76-1.03,3.95-1.12,1.32-2.79,2.67-.41,4.36-.25,1.78.85,2.56,2.58,2.9-.98,1.99-1.14,3.7.64,5.16.43.37.46,1.21.75,1.8.5,1.1,1.83,1.67,3.06,1.37,1.01-.25,1.42-.91,1.14-1.9-.16-.64-.46-1.21-.69-1.76,1.99-2.74,1.94-3.02-.82-4.59.09-.66.18-1.28.25-1.9.05-.34-.07-.96.07-1.03,2.01-.87,1.28-2.54,1.05-3.91-.3-1.99.16-3.72,1.07-5.44,1.99-3.77.96-6.01-3.24-6.97-.89-.21-1.78-.3-2.99-.48,2.54-1.74,4.32-.14,6.17.69,2.38-4.13.64-6.99-4.34-7.13,1.21-.98,2.63-.73,4.02-.64,1.51.09,2.99.09,4.2-1.19,2.26,2.31,5.16.46,7.63,1.28-.43-3.15-1.92-4.16-4.82-3.31-.73.21-1.46.39-2.28.62-1.74-1.42-3.77-2.28-6.1-2.44-.8-.07-1.58-.21-2.31-.46.66-.53,1.26-1.1,1.92-1.62,1.94-.82,3.52-.14,4.93,1.21.43.23.87.5,1.35.73,1.32.66,2.17.11,2.51-1.21.21-.87.34-1.83.18-2.7-.34-1.9-.89-3.75-1.39-5.8,2.38-.34,3.06-2.12,2.74-4.36-.27-1.8-.55-3.7-1.37-5.28-3.08-6.08-3.43-12.54-2.95-19.09.5-7.22,1.44-14.39,1.9-21.61.55-8.54.82-17.11,1.21-25.65.46-9.78,1.14-19.55,1.3-29.3.09-6.3-.5-12.63-.87-18.94-.53-8.95-1.28-17.88-1.64-26.86-.11-2.67.53-5.44,1.16-8.09,1.35-5.64,2.95-11.21,4.43-16.83.14-.55.16-1.16.27-2.12-1.35-.16-2.56-.3-3.79-.46l-6.62,1.21c-1.23.32-2.56.41-3.22-.21-1.03-.96-.25-2.31.27-3.4.48-.98,1.12-1.92,1.64-2.9.78-1.42,1.64-2.83,2.24-4.32.8-2.01,1.21-4.09.43-6.26-2.26-6.37-10.87-8.61-15.9-4.02-.8.71-1.37,1.76-1.76,2.76-1.67,4.07-.5,7.74,1.53,11.35.75,1.37,1.37,2.97,1.55,4.52.3,2.72-.75,4.04-3.43,4.25.75-.53,1.37-.94,1.85-1.42,1.64-1.74,1.62-2.92,0-4.73-.82-.91-1.69-1.78-2.51-2.67-1.92-2.08-2.74-4.57-2.24-7.33,1.39-7.24,5.41-10.42,12.27-10.83,6.58-.41,11.9,6.78,9.94,12.22-.96,2.56-1.96,5.12-2.97,7.67-.39,1.01-.82,1.96-1.3,3.06.98.43,1.64.75,2.31,1.07l6.49-1.78c5.6-6.46,5.37-16.93-.87-22.96-4.16-4.04-6.17-8.68-5.89-14.46.59-14.34,1.12-28.69,1.69-43.03.5-12.01,1.1-24.01,1.51-36.02.41-12.33.66-24.65.98-36.96.09-3.97.05-7.95.32-11.92.16-2.4.57-4.82,1.21-7.15.66-2.44,1.78-4.77,2.54-7.19,1.83-5.87,2.22-11.83.43-17.77-1.32-4.43-3.86-7.86-8.73-8.89-4.16-.87-5.92-.16-8.22,3.33-3.79-.18-6.26-2.58-6.37-6.19-.11-4.13-1.8-5.46-5.87-4.61-2.88.57-4.98,2.26-6.56,4.61-2.81,4.2-3.33,8.95-3.08,13.8Z"/><path class="cls-2" d="m127.9,386.17c.82,3.36,2.17,6.62,3.49,9.87,1.05,2.51,2.44,4.91,3.61,7.4,1.9,4.09,4.86,7.15,8.61,9.55,1.69,1.05,3.33,2.17,4.96,3.31,3.13,2.19,4.86,5.25,5.18,9.04.39,4.52.41,9.11,1.14,13.57.78,4.64,2.12,9.2,3.45,13.73.5,1.69,1.48,3.29,2.49,4.75,3.38,4.89,8.79,6.08,13.98,3.2,3.06-1.71,5.28-4.29,7.1-7.22,1.16-1.83,2.15-3.77,3.24-5.69h8.09c.46.87.87,1.83,1.44,2.67,1.69,2.49,3.31,5.07,5.25,7.35,1.14,1.32,2.72,2.38,4.29,3.17,4.91,2.49,9.98,1.35,13.02-3.22,1.69-2.56,2.97-5.5,3.93-8.43,2.03-6.33,3.13-12.86,2.97-19.55-.05-1.23.16-2.47.25-3.68.41-4.91,2.79-8.57,7.04-11.01,1.23-.69,2.47-1.42,3.63-2.19,3.79-2.51,6.74-5.76,8.59-9.98,1.8-4.16,3.84-8.22,5.6-12.4,1.19-2.79,1.76-5.78,1.71-8.86-.07-7.35-3.4-12.68-10.1-15.71-5.78-2.65-11.9-2.95-18.07-1.85-6.42,1.16-10.55,7.67-8.11,14.5,2.58,7.13,3.56,14.66,4.66,22.16.59,4.16-.84,8.04-3.06,11.58-3.31,5.28-7.86,9.41-12.7,13.25-3.49,2.74-6.85,5.62-10.28,8.47-1.67,1.42-3.68,1.16-5.64,1.26-1.42.09-2.15-.78-3.04-1.69-1.74-1.74-3.68-3.24-5.55-4.84-4.09-3.49-8.25-6.94-12.27-10.53-1.26-1.12-2.26-2.54-3.29-3.88-3.95-5.16-5.51-10.9-4.11-17.36.98-4.73,1.8-9.48,2.79-14.18.23-1.1.8-2.1,1.21-3.15.16-.39.3-.78.43-1.16.07-.46.09-.94.18-1.39,1.19-5.89-1.53-11.19-7.22-12.63-7.67-1.94-15.28-1.37-22.13,3.02-6.05,3.91-8.66,11.03-6.78,18.78Zm74.48,52.81c1.74-4.5,5.44-6.01,9.71-6.6,3.24-.48,4.8.98,4.82,4.48-.05.32.05.96-.21,1.44-2.01,4.02-3.97,8.09-6.21,11.97-.84,1.51-2.15,1.51-3.7.69-3.93-2.06-5.98-7.83-4.41-11.97Zm-40.75-3.7c.14-2.06,1.42-3.06,3.47-2.95,1.67.11,3.31.71,4.98,1.01,3.56.66,6.44,5.23,6.58,8.73.05,3.13-2.31,7.33-4.98,8.79-1.65.94-2.76.75-4-.66-.3-.37-.59-.75-.8-1.16-1.55-2.92-3.24-5.8-4.52-8.82-.64-1.48-.82-3.31-.73-4.93Z"/><path class="cls-2" d="m119.4,279.04c.57,2.06.82,4.18,1.19,6.28.55,3.17.62,6.53,1.69,9.5,1.07,2.95,1.78,5.89,2.47,8.95.57,2.67,1.51,5.37,2.79,7.77,2.22,4.16,6.08,5.41,10.14,3.2,2.24-1.21,4.29-2.97,6.12-4.84,1.96-2.08,3.54-4.61,5.39-6.85,1.19-1.51,2.65-2.79,3.86-4.27.96-1.14,1.83-2.38,2.56-3.7,4.98-8.84,9.66-17.86,13.29-27.39,2.44-6.4,6.37-11.63,10.6-16.7l.05-.05.07-.07c.14-.16.25-.3.39-.43h.02v.39c.11,2.9-.21,5.82-.34,8.84,1.8,2.01,1.83,2.1.55,6.19-2.08-.46-4.23-.96-6.35-1.44-1.03,2.06-.64,3.72.46,4.71,1.6,1.44,3.33,2.44,5.48,3.97.85,2.72-.09,6.19-.46,9.34.64,1.07,1.62,2.08,1.53,2.74-.25,1.87-1.48,1.64-2.4,1.58-1.6-.14-3.2-.55-4.96-.89-.3,4.71.39,5.53,6.76,8.31-.16,2.81-.34,5.71-.53,8.77.41.59.94,1.35,1.69,2.42-2.86,1.6-5.28-.27-7.77-.25-.85,2.08-.41,3.72.66,4.66,1.6,1.42,3.33,2.42,5.23,3.75q.43,2.24-.27,8.57c.48.59,1,1.21,1.83,2.22-2.79,1.07-5.09-.78-7.4-.55-.78,3.79.14,5.25,4.71,7.63,1.21,4.16.64,8.43-.05,12.72.53,1.39,2.54,1.53,1.35,4.45-2.15-.37-4.39-.71-6.62-1.1-.89-.14-1.76-.32-2.65-.5-.87-.18-1.92-.73-2.24,1.19-.3,1.67.53,2.7,1.32,3.27,1.37,1.03,2.83,1.8,4.29,2.58.59.32,1.23.41,2.06.69-1.78,9.94-.11,17.63,6.19,22.82-.89.32-1.23.53-1.58.57-1.69.21-2.88,1.48-3.54,4.02-.16.59-.3,1.16-.48,1.74l-.39-.39c-1.21-1.21-2.33-2.51-3.56-3.68-.89-.82-1.85-1.6-2.9-2.26-2.58-1.64-3.72-1.44-5.8.89-.14.39-.27.78-.43,1.16-.02,2.56-.25,5.12-.02,7.65.21,2.42.78,4.84,1.46,7.17.5,1.74,1.62,3.24,3.29,4.11,1.76.89,2.35,2.35,2.42,4.16.05.87.09,1.71.09,2.56,0,1.87.62,3.52,1.67,5.03,1.1,1.55,2.12,3.13,3.08,4.75.98,1.64,1.99,3.08,3.97,3.84.94.34,1.71,1.71,2.1,2.79,1.12,2.99,2.01,6.05,2.95,9.11.48,1.53,3.2,3.49,4.82,3.43,1.46-.05,3.75-2.15,4.25-3.75.96-3.15,1.94-6.28,2.97-9.39.43-1.3,1.26-2.22,2.6-2.83,1.03-.48,1.96-1.39,2.65-2.33,1.44-1.99,2.79-4.04,4-6.17.69-1.21,1.14-2.58,1.44-3.93.27-1.28.21-2.63.3-3.95.09-1.28.48-2.47,1.69-3.11,3.36-1.8,4.68-4.96,5.07-8.41.39-3.36.16-6.78.11-10.19-.02-.8-.39-1.67-.75-2.4-.73-1.42-1.83-1.9-3.31-1.35-1.14.43-2.26,1.03-3.2,1.8-1.46,1.16-2.76,2.56-4.13,3.86-.62.59-1.12,1.3-1.76,1.85-.64.57-1.28,1.1-1.9,1.6-.57-1.92-1.23-3.79-2.01-5.48-.57-1.28-1.87-1.69-3.08-2.67,2.24-2.49,4.68-4.82,5.76-9.23,1.07-4.32.78-8.57.07-13.25.75-.25,1.44-.39,2.08-.73,1.69-.87,3.38-1.69,5-2.83.78-.55,1.58-1.67,1.16-3.36-.41-1.6-1.32-1.14-2.12-.98-3.29.62-6.56,1.23-9.94,1.87-.43-1.6-.43-2.7.87-3.54,1.8-1.14,1.76-1.44,1.23-4.32-.3-1.71-.64-3.54-.53-5.25.14-2.42.53-4.73,2.58-5.18.98-.21,1.9-1.37,2.76-2.33.87-.94,1.26-2.33.59-4.48-2.37.41-4.91.87-7.99,1.42.66-1.12.87-1.76,1.21-2.01,1.85-1.48,1.8-1.44,1.23-4.61-.3-1.67-.39-3.43-.55-5.05,2.65-2.01,6.26-1.44,6.42-8.04-2.58-.75-4.93,1.69-7.26.23-.23-1.74.62-1.62,1.16-1.96,1.01-.62,1.35-1.69.94-3.36-.3-1.19-.59-2.42-.69-3.68-.23-2.86.18-3.61,1.94-4.75,1.12-.71,2.17-1.69,3.17-2.76.71-.78,1.03-2.03.64-3.4-.43-1.51-1.19-.78-1.9-.62-1.83.41-3.68.73-5.53,1.1-.37-1.53-.07-2.01.66-2.54,1.8-1.26,1.87-1.46,1.23-4.27-.5-2.26.32-2.6,1.12-5.03,2.08-1.8,4.29-3.4,4.52-9.82-2.03.3-3.7.55-5.34.82-2.33.37-2.54.05-2.38-4.23.39-.25.8-.57,1.23-.82,1.1-.59,1.32-1.83.91-3.38-.5-1.94-.85-3.84-.62-5.89.16.18.32.37.48.57,1.94,2.33,3.88,4.64,5.57,7.13,1.76,2.63,3.2,5.53,4.41,8.47,4.11,9.94,8.79,19.53,14.14,28.78.78,1.32,2.06,2.35,3.06,3.54.91,1.07,1.8,2.17,2.67,3.27,1.9,2.44,3.61,5.07,5.73,7.29,1.74,1.83,3.72,3.49,5.92,4.66,4.07,2.17,7.79.87,10.19-3.2,1.8-3.13,2.76-6.58,3.18-10.19.18-1.71.53-3.29,1.39-4.84,1.51-2.67,1.92-5.76,2.12-8.82.27-3.4.46-6.76,1.67-10.03.98-2.7,1.05-5.6.62-8.52-.57-3.65-1.12-7.29-2.58-10.69-.25-.62-.18-1.39-.23-2.1-.27-3.4-.53-6.81-.75-10.21-.05-.69-.07-1.42.09-2.08,1.44-5.64,1-11.01-1.85-16.1-.34-.62-.55-1.6-.34-2.22.8-2.03.41-3.91-.48-5.71-1.12-2.22-2.35-4.39-3.61-6.56-.66-1.16-.82-2.1-.46-3.63.82-3.61.39-7.1-1.55-10.14-.32-.59-.73-1.14-1.23-1.69-.78-.94-1.76-1.71-2.6-2.54,1.9-6.9-1.03-11.72-5.66-15.71-1.26-1.07-2.24-2.19-2.76-3.77-1.39-3.97-4.5-6.3-7.79-8.29-1.05-.62-2.58-.34-4.18-.5-.05-.5-.25-1.28-.21-2.03.14-2.56-.85-4.59-2.6-6.01-.25-.18-.53-.37-.78-.55-3.08-1.94-6.21-3.88-9.55-5.25-3.4-1.42-7.06-2.19-10.64-3.13-.59-.16-1.19-.25-1.78-.25h-.46c.09-.09.18-.16.27-.25.78-.69,1.51-1.64,2.22-2.67.5-.75.71-1.99.43-3.31-.3-1.46-.82-.75-1.32-.59-1.28.39-2.56.71-3.86,1.07-.25-1.48-.05-1.96.48-2.44,1.26-1.21,1.3-1.42.85-4.13-.34-2.19.23-2.54.78-4.86,1.46-1.74,3.02-3.29,3.18-9.5-1.42.3-2.58.55-3.75.8-1.62.37-1.76.05-1.64-4.07.25-.25.55-.55.87-.8.59-.48.82-1.32.73-2.4.43-.02.89-.07,1.32-.11,3.56-.43,6.19-2.38,8.15-5.32,1.6-2.4,3.22-4.75,4.93-7.03,1.26-1.67,1.8-3.4,1.74-5.48-.11-3.4-.46-6.85.3-10.23.23-1.14.73-2.24,1.03-3.38.11-.37.14-1.03-.05-1.14-.32-.21-.89-.21-1.26-.05-1.58.75-2.26,2.17-2.51,3.81-.3,1.99-.41,4.02-.78,6.01-.5,2.76-1.32,5.39-3.47,7.4-.21.18-.43.34-.75.59.05-.96.18-1.78.09-2.54-.07-.53-.39-1.16-.8-1.44-.62-.41-1.12.18-1.46.64-.46.62-.8.66-1.55.37-.5-.21-1.35.18-1.92.5-.57.37-1.03.64-1.71.34-.23-.11-.59.02-.89.09-.8.18-1.6.37-2.4.57-.14.02-.37.02-.43.11-.57.87-1.37.48-2.17.48-1.62-.02-3.24.11-4.89.18-.18,0-.5-.02-.57-.14-.46-.73-1.16-.59-1.83-.64-.41-.05-.78-.23-1.16-.3-.59-.11-1.19-.16-1.78-.25-.34-.07-.71-.11-1.01-.3-.87-.53-1.69-1.23-2.79-.46-.14.09-.5-.07-.71-.21-.21-.11-.27-.43-.48-.55-.39-.23-.84-.57-1.19-.48-.34.07-.73.59-.82.96-.14.66-.05,1.37-.05,2.06.02.25.09.53.21,1.07-.48-.37-.75-.55-.96-.78-2.06-2.03-2.95-4.64-3.4-7.42-.37-2.22-.62-4.43-.96-6.65-.23-1.32-1.01-2.35-2.19-2.97-.39-.21-.94-.11-1.39-.14-.02.41-.18.91-.02,1.26,1.23,2.74,1.46,5.64,1.42,8.59-.05,1.92-.05,3.81-.11,5.71-.02,1.35.23,2.6,1,3.72,2.06,2.92,4.11,5.87,6.19,8.77,2.24,3.15,5.32,4.55,8.91,4.87-.02.55-.05,1.1-.07,1.64,1.28,1.94,1.28,2.01.39,5.98-1.46-.46-2.95-.94-4.43-1.39-.73,1.96-.43,3.61.32,4.55,1.1,1.39,2.33,2.35,3.84,3.84.59,2.63-.09,5.98-.34,9.02.46,1.05,1.14,2.03,1.07,2.65-.16,1.83-1.03,1.6-1.67,1.53-1.12-.14-2.24-.55-3.47-.87-.16,3.31.07,4.64,1.87,6.14-.14-.02-.3-.02-.43-.02h-.02c-.62,0-1.21.07-1.87.18-6.42,1.16-12.43,3.47-18.04,6.9-.87.53-1.69,1.14-2.47,1.8-.02,0-.05.02-.07.05-1.94,1.58-3.11,3.56-2.95,6.26.02.71-.07,1.42-.09,2.12-5.64-.37-8.98,3.06-11.4,7.58-1.19,2.24-2.4,4.16-4.34,5.78-3.29,2.76-5.34,6.35-5.37,10.9,0,1.14.27,2.28.48,3.88-1.39,1.16-2.54,2.42-3.43,3.79-2.22,3.43-2.81,7.51-1.37,12.52-.64,1.07-1.51,2.51-2.28,4-.94,1.71-1.83,3.47-2.63,5.25-.66,1.42-.87,2.95-.16,4.43.48,1.03.16,1.8-.34,2.74-2.79,4.89-3.2,10.14-1.94,15.6.21.75.21,1.55.25,2.33.02.27-.14.53-.16.8-.32,3.93-.25,7.95-1.07,11.76-.84,3.84-2.06,7.58-2.4,11.56-.27,3.02.16,5.89.96,8.77Zm9.8-46.64c6.03,2.97,12.08,6.01,18.16,8.91,6.01,2.88,12.06,2.4,17.93-.41,2.97-1.39,5.73-3.22,8.61-4.84.89-.5,1.78-1.12,2.74-1.39,1.32-.37,2.06.64,1.44,1.87-.48.91-1.23,1.74-2.03,2.35-5.16,3.88-10.28,7.86-15.55,11.51-4.8,3.33-10.19,3.88-15.55,1.92-6.6-2.44-12.47-6.35-17.77-11.17-3.54-3.22-3.68-5.94-.62-10.21.98.53,1.8,1.03,2.65,1.46Zm5.46-16.56c3.47,1.26,6.99,2.47,10.46,3.77,1.21.46,2.42.94,3.63,1.42,3.59,1.44,7.26,1.99,10.96,1.94h.53c.69,0,1.35-.05,2.03-.09.48-.05,1-.09,1.48-.14.07,0,.11-.02.18-.02,2.4-.3,4.73-.89,7.13-1.21,1.69-.23,3.43-.48,5.09-.32,2.92.3,3.91,2.7,2.31,5.21-1.1,1.71-2.56,2.92-4.36,3.68-5.48,2.28-11.21,3.31-16.45,3.93-5.16-.14-9.62-1.07-13.91-2.76-4.45-1.76-8.57-4.18-12.36-7.17-1.99-1.58-2.26-2.81-1.3-5.16.23-.57.53-1.12.87-1.64,1.28-2.19,1.39-2.26,3.7-1.42Zm111.56,8.11c-7.51,5.92-15.87,9.62-26.2,10.07-5.37-.62-11.47-1.58-17.15-4.29-1.48-.69-2.83-2.08-3.84-3.45-1.64-2.33-.59-4.73,2.17-5.07,1.6-.21,3.24-.02,4.86.18,2.19.3,4.36.94,6.6,1.19.57.07,1.12.11,1.67.16.53.07,1.03.11,1.53.14.66.05,1.32.09,1.96.09,2.97.09,5.92-.16,8.84-1.26,2.17-.8,4.36-1.6,6.53-2.38h.02c2.92-1.07,5.85-2.1,8.77-3.17,3.38-1.23,3.54-1.16,5.12,2.12.11.23.25.48.34.73.87,2.26.62,3.47-1.23,4.93Zm3.88,17.43c-5.14,4.57-10.78,8.34-17.11,10.78-4.98,1.92-10.21,1.85-14.69-1.01-6.17-3.91-11.83-8.59-17.68-13-.59-.43-1.05-1.21-1.28-1.92-.37-1.12.25-1.9,1.32-1.58,1.14.34,2.22.94,3.22,1.6,3.49,2.31,7.08,4.43,11.03,5.73,3.56,1.14,7.19,1.85,10.87.73,2.81-.85,5.57-1.8,8.22-3.06,5.69-2.72,11.28-5.66,17.08-8.59,2.92,4.36,2.72,6.97-1,10.3Zm-15.37,63.38c1.35.21,2.63.27,3.84.64,2.76.8,5.44.41,8.06-.57.78-.3,1.55-.62,2.72-1.1-2.03,5.03-4.8,7.1-8.25,6.58-2.99-.43-6.05-2.97-6.37-5.55Zm-8.68-12.65c9.32,5.66,18.04,5.23,26.11-3.24-1.17,7.13-6.26,11.06-13.93,11.12-6.24.07-11.33-3.22-12.17-7.88Zm-14.66-26.34c2.44,1.87,4.8,3.4,6.83,5.28,4.25,3.91,9.04,6.53,14.55,7.65,4.73.98,9.07-.09,12.65-3.63,1.87-1.85,3.63-3.81,5.37-5.8,1.32-1.51,2.54-3.13,3.81-4.71.18.07.37.11.55.16.32,2.1.73,4.23.11,6.33-2.51,8.43-7.45,14.55-15.67,17.2-4.52,1.46-8.84.39-12.86-2.15-4.2-2.67-7.33-6.42-10.14-10.58-1.39-2.06-2.86-4.07-4.23-6.12-.66-.96-1.28-1.99-.98-3.63Zm-14.12-22.59s0-.05.02-.07c.11-.16.23-.32.37-.46.55-.57,1.28-.8,2.1-.37.66.34,1.37.75,1.92,1.3,2.67,2.54,5.44,4.96,7.88,7.7,3.84,4.29,8.36,7.45,13.45,9.71,3.08,1.35,6.35,1.83,9.57.69,2.33-.85,4.66-1.83,6.85-3.02,4.41-2.4,8.66-5.07,12.29-8.73.23.07.43.16.66.23-.16,1.58-.16,3.17-.43,4.71-1.44,7.47-6.24,11.9-12.47,15.05-3.18,1.62-6.3,2.24-9.62.48-1-.5-2.1-.75-3.15-1.14-6.33-2.24-11.63-6.08-16.13-11.17-1.94-2.17-4-4.18-6.05-6.24-2.15-2.12-4.34-4.25-6.46-6.37-.11-.09-.21-.16-.27-.25-.11-.11-.21-.21-.3-.32-.05-.57-.11-1.14-.23-1.74Zm2.35-39.58c1.05-.21,2.17-.16,3.24-.05.21.02.41.05.59.07.09.02.16.02.25.05,1.96.27,3.88.8,5.82,1.07.98.16,1.96.27,2.97.34.46.05.91.09,1.39.11.23,0,.43.02.66,0,3.4.11,6.83-.32,10.19-1.71,4.13-1.69,8.43-3.08,12.63-4.61.09-.02.16-.05.25-.09.71-.23,1.46-.46,2.31-.75.62.98,1.28,1.83,1.76,2.74.3.57.5,1.07.62,1.55.5,1.74-.05,2.97-1.92,4.18-.55.37-1.07.71-1.62,1.07-2.65,1.74-5.37,3.43-8.22,4.71-4.23,1.94-8.63,3.13-13.18,2.99-1.12-.02-2.22-.14-3.34-.32-.5-.07-1.05-.18-1.58-.3-3.33-.8-6.65-1.69-9.94-2.7-1.28-.39-2.4-1.07-3.36-2.03-.09-.09-.16-.16-.23-.25-.41-.41-.75-.87-1.07-1.37-1.32-2.17-.62-4.18,1.76-4.71Zm-2.99-12.65c0-.8.21-1.6.34-2.63.75-.05,1.26-.09,1.76-.11,5.41-.02,10.76-.48,16.08-1.37,2.28-.39,4.59-.85,6.88-1.39,3.84-.91,7.61-2.1,11.47-3.04h.07c1.14.37,2.03,1.28,2.56,2.56.89,2.19.37,4.2-1.92,5.66-2.47,1.53-5.05,2.83-7.67,4-4.36,1.9-8.84,2.56-13.38,2.81v.07c-3.45.18-6.88.16-10.35.34-3.95.21-5.92-2.58-5.82-6.9Zm-.02-9.66c-.16-1.64.75-2.65,1.92-3.27,1.8-.96,3.77-1.87,5.76-2.22,3.88-.71,7.74-1.35,11.53-2.42,2.33-.66,4.59-1.48,6.81-2.58h.02c.27.16.53.39.75.69,1,1.26,1.64,2.72,1.26,4.45-.39,1.74-1.65,2.38-3.08,2.63-2.58.46-5.18.94-7.77,1.42,0,.09,0-.09,0,0-2.7.46-5.39,1.14-8.09,1.53-1.69.25-3.38.37-5.09.48-.21,0-.43.02-.64.05-1.07.05-2.12.11-3.2.18-.11-.3-.16-.59-.18-.85v-.09Zm-.37-17.82c.18-1.74,1.16-3.15,2.7-4.25,2.26-1.62,4.84-2.17,7.54-2.35,2.03-.09,4.02.21,5.41,1.9,2.63,3.22,3.52,6.94,2.19,11.03-.23.66-.84,1.51-1.42,1.67-3.11.75-6.19,1.44-9.32,1.87-2.22.32-4.04-.91-5.14-2.88-.18-.37-.39-.75-.55-1.14-.05-.09-.07-.16-.11-.25,1.28-.87,2.38-2.08,2.44-6.24-1.3-.53-2.54.57-3.75.64Zm-15.14-.34c-.78-.25-1.53-.59-2.31-.57-.59,1.99-.27,3.59.46,4.5.37.43.73.82,1.12,1.21-.02.11-.07.21-.11.32-.07.18-.14.37-.23.55-1.26,2.95-3.33,4.48-6.56,4.52-2.9-.75-5.82-1.44-8.68-2.33-.57-.18-1.12-1.07-1.32-1.76-.07-.18-.11-.34-.16-.53,0-.02,0-.05-.02-.07-.21-.71-.3-1.42-.34-2.12.02-.02,0-.05,0-.07-.16-2.35.5-4.61,1.74-6.76,1.1-1.94,2.74-2.92,4.84-3.11,2.51-.23,4.98.25,7.31,1.28,2.47,1.1,3.88,2.76,4.27,4.93Zm-.18,18.02c-.05.3-.09.59-.18.91-.57.02-1.16.14-1.74.09-.11,0-.21-.02-.32-.02-.18-.02-.39-.02-.57-.05-2.1-.11-4.2-.25-6.3-.55-2.49-.39-5-1-7.51-1.39-.02-.07,0,.07,0,0-2.63-.46-5.28-.91-7.9-1.37-.48-.09-.96-.18-1.42-.37-2.06-.8-2.81-2.67-2.03-4.96.48-1.48,1.12-2.33,1.96-2.67h.02c.23.05.46.14.71.23,2.22.8,4.43,1.58,6.67,2.31,1.35.46,2.7.87,4.09,1.26,2.31.64,4.77.66,7.1,1.26,1.87.46,3.77,1.19,5.51,2.1,1.19.62,2.01,1.62,1.92,3.08v.14Zm-.21,11.56c-.48,3.27-1.94,4.73-5.07,5.14-1.26.18-2.56.05-3.84,0-2.19-.11-4.36-.32-6.53-.37v-.05c-6.69-.14-13.02-1.96-19.05-5.12-1.1-.57-2.15-1.28-3.13-2.08-1.67-1.37-2.12-3.04-1.53-4.93.48-1.46,1.53-2.51,2.86-2.88h.02c.94.18,1.87.48,2.81.75,5.3,1.53,10.64,2.95,16.08,3.75,1.1.18,2.19.32,3.27.43,4.52.46,9.07.75,14.14,1.16,0,1.37.18,2.81-.02,4.18Zm-1.14,15.65c-.27.46-.57.85-.94,1.23-.07.09-.14.16-.23.25-.96,1.03-2.15,1.78-3.49,2.17-3.56,1.01-7.15,2.1-10.8,2.72-.05.02-.11.05-.16.05-1.1.18-2.22.3-3.36.32h-.09c-1.51.05-3.02-.05-4.48-.21-5.82-.69-11.1-3.02-16.01-6.26-.57-.39-1.16-.78-1.74-1.19-2.92-2.1-3.79-3.47-2.9-5.71v-.02c.27-.75.75-1.6,1.42-2.6.18-.27.43-.53.87-1.05.78.27,1.51.48,2.19.73.21.07.39.14.59.21,4.77,1.71,9.59,3.45,14.34,5.18,2.28.82,4.64,1.19,6.99,1.1h.21c.32-.02.59-.07.91-.09.43-.05.91-.09,1.35-.16.43-.05.89-.11,1.32-.16,2.7-.34,5.37-.8,8.06-1.14.21-.02.41-.05.64-.07.27-.05.55-.07.82-.09.87-.09,1.76-.11,2.6.02,2.56.46,3.31,2.54,1.87,4.77Zm-13.5,50.66c-3.91,3.95-8.18,7.4-13.27,9.52-2.01.85-4.09,1.39-6.05,2.24-2.56,1.1-5.05.98-7.47-.3-2.31-1.23-4.61-2.42-6.69-4.02-5.21-4-7.4-9.62-7.45-16.9,1.37,1.12,2.24,1.8,3.11,2.54,4.77,3.91,9.89,7.08,15.6,9.27,2.31.91,4.64,1.07,7.06.57,6.28-1.3,11.31-4.96,15.85-9.48,2.79-2.79,5.57-5.6,8.41-8.31.75-.73,1.64-1.3,2.54-1.83.66-.39,1.3-.32,1.8.07.16.09.32.23.46.39-.05.21-.09.43-.11.64-.11.64-.18,1.26-.18,1.87-.18.18-.39.39-.59.57-.55.59-1.14,1.16-1.71,1.74-3.77,3.81-7.49,7.63-11.28,11.42Zm-37.66,44.88c.43.14.73.21,1,.34,3.38,1.58,6.83,2.17,10.46.91.87-.32,1.92-.14,2.97-.21-.75,2.92-4.25,5.39-7.35,5.44-3.08.07-5.89-2.44-7.08-6.49Zm-3.01-14.39c8.18,7.86,16.86,8.22,26.4,2.4-1.67,4.18-4.55,6.76-8.15,7.61-2.9.69-5.76.55-8.66,0-3.24-.59-5.78-2.22-7.49-5.16-.64-1.07-1.21-2.17-1.76-3.29-.21-.48-.23-1.03-.34-1.55Zm-2.86-25.38c.89,1.1,1.46,1.83,2.08,2.54,2.56,2.9,5.05,5.87,7.74,8.63,2.56,2.63,5.8,3.81,9.41,3.68,6.46-.21,11.85-3.17,16.81-7.26,2.44-2.03,5-3.95,7.51-5.92.14.14.32.25.48.37-.34.89-.53,1.87-1.03,2.6-2.38,3.52-4.8,7.04-7.33,10.42-2.42,3.2-5.32,5.89-8.84,7.72-4.84,2.47-9.69,2.65-14.62.11-6.17-3.17-10-8.36-12.22-14.96-.82-2.4-.62-4.89,0-7.93Z"/><path class="cls-2" d="m255.49,828.86c.26,1.01.61,2.07.8,3.17.36,2.13.8,4.27.87,6.42.05,1.48-.02,2.83.94,3.39-.19,1.16-.69,2.15-.39,2.71.71,1.31.5,2.52.33,3.84-.1.85.11,1.74.19,2.72,1.42-.18,2.47-.32,4.01-.52-1.09.91-1.91,1.33-2.32,2-.54.88.58,1.43.8,2.1.93,2.94,1.56,5.98,2.25,8.99.35,1.5,1.11,2.34,2.95,2.06-.16-2.02.31-3.94-.5-6.02-.67-1.72-.39-3.81-.51-5.74-.02-.36.18-.98.05-1.05-1.99-1.08-1.11-3.53-2.42-5-.6-.67-.58-1.9-.82-2.89-.28-1.17-1.12-2.68-.68-3.44.79-1.39.13-2.32-.12-3.46-.55-2.58-1.16-5.15-1.51-7.76-.39-2.9-1.21-3.33-3.92-1.51Z"/><path class="cls-2" d="m273.23,850.71c-1.34,1.05-2.99.8-4.5,1.14-.67.15-1.58.41-1.86.91-.46.83.57,1.12,1.03,1.66.88,1.03,1.54,2.28,2.15,3.5.64,1.28,1.1,2.64,1.91,3.89.86-1.5,1.04-2.84.06-4.32-.81-1.22-1.66-2.55-1.17-4.35,1.39,0,2.26.56,2.75,1.84.56,1.48,1.16,2.95,1.78,4.4.13.31.43.54.86,1.05.6-1.5.73-2.71-.02-3.86-1.07-1.63-1.71-3.33-1.13-5.4-.76-.16-1.36-.29-1.97-.41,0,0,.12-.05.12-.05Z"/><path class="cls-2" d="m277.06,850.16c-.21-.6-.31-1.28-.64-1.8-1.37-2.12-2.79-4.21-4.26-6.27-.3-.42-.86-.64-1.41-1.04-.38.52-.68.93-1.05,1.42-.43-.38-.84-.73-1.25-1.08,0,0,.07-.04.07-.04-1.43.92-1.09,1.98-.19,3.03,1.29,1.49,2.46,3.01,2.72,5.08.15,1.2,1.2,1.24,2.17,1.26,0,0-.12.05-.11.05.26-.57.52-1.13.65-1.41,1.22.28,2.31.53,3.4.77,0,0-.1.03-.1.03Z"/><path class="cls-2" d="m265.96,838.83c-.43-1.09-1.03-2.15-1.25-3.28-.38-1.94-.52-3.92-.79-6.03-.98-.31-1.93-.61-3.27-1.04.25,1.05.47,1.81.61,2.58.45,2.51.87,5.03,1.3,7.54.13.74.14,1.54.43,2.21.19.43.78.93,1.21.95.43.02,1.09-.42,1.28-.84.31-.66.31-1.46.44-2.2,0,0,.04.1.04.1Z"/><path class="cls-2" d="m265.92,838.73c.17.51.37,1.02.52,1.54.31,1.11,1.01,1.44,2.09,1.08,0,0-.08.04-.07.04-.14-1.63-.3-3.26-.45-4.88.1-.02.2-.03.29-.05.47,1.05.94,2.1,1.42,3.15.76-2.22-.4-4-.82-6.11-1.17-.21-2.32-.42-3.5-.64.2,2.16.38,4.07.56,5.98,0,0-.05-.11-.05-.11Z"/><path class="cls-2" d="m267.35,851.08c1.37-.17,1.94-.77,1.53-1.76-.81-1.98-1.7-3.94-2.73-5.81-.23-.42-1.21-.43-2.18-.74.49,3.33,2,5.75,3.38,8.31Z"/><path class="cls-2" d="m265.52,827.28c-.68.19-1.36.38-2.07.58.94,1.45,1.82,2.82,2.77,4.29,1.28.18,1.63-.77,1.85-1.82.2-.98-.34-1.57-1.13-2.04-.52-.31-1-.67-1.49-1.01.01,0,.07,0,.07,0Z"/><path class="cls-2" d="m277.17,850.13c-.44.3-.89.59-1.26.84,1.08,1.95,2.07,3.72,3.06,5.5.14-.04.29-.08.43-.11,0-.51.11-1.06-.02-1.54-.34-1.33-.73-2.66-1.23-3.94-.13-.33-.73-.47-1.11-.7,0,0,.11-.04.11-.04Z"/><path class="cls-2" d="m205.35,148.21c1.53,1.01,3.38,1.8,5.18,2.1,3.33.55,6.76.96,10.14.91,7.06-.09,13.91,1.28,20.76,2.67,2.79.57,5.55,1.19,8.34,1.69,3.77.69,7.26,2.03,10.51,4.16.46-.59.78-1.01,1.28-1.64.34,1.21.62,2.26.94,3.47-2.44,1.26-5.02,1.14-7.51,1.35,0,0,.23,2.38,1.85,2.88.16.05.34.07.5.09.62.11,1.23.21,1.85.16,1.21-.09,2.4-.5,3.56-.87,3.06-.94,5.96-.71,8.77.87.82.46,1.74.89,2.63.96.73.05,1.83-.27,2.17-.8.34-.55.16-1.69-.21-2.33-.5-.87-1.32-1.6-2.15-2.22-2.1-1.62-4.27-3.11-6.4-4.68-1.32-.98-2.79-1.1-4.59-.66.16-.55.25-.94.39-1.37-.18-.16-.37-.39-.62-.48-9.59-3.63-19.35-6.44-29.72-6.81-4.64-.16-9.23-.75-13.86-.98-4.68-.23-8.54-2.1-11.85-5.32-1.12-1.07-2.35-2.03-3.59-3.06-1.96,3.31-1.19,8.09,1.62,9.91Z"/><path class="cls-2" d="m280.9,315.76c2.38-.13,3.89-1.74,5.48-3.23,1.08-1,2.19-1.96,3.33-2.98.78.69,1.27,1.12,1.76,1.54,2.47,2.15,5.09,2.32,7.77.45,2.17-1.52,3.57-3.64,4.43-6.1.62-1.78.17-3.4-1.2-4.66-1.31-1.22-2.67-2.41-4.11-3.47-3.65-2.7-6.1-6.22-7.11-10.62-1.39-6.08-2.63-12.19-3.88-18.3-2.19-10.68-3.1-21.52-4.02-32.36-.96-11.31-1.84-22.63-2.53-33.96-.3-4.99.13-10.02-.05-15.02-.17-4.9-.57-9.8-1.11-14.68-.25-2.24-1.55-3.14-3.99-3.19-1.31-.02-2.21-.35-3.19-1.31-2.37-2.3-5.31-2.74-8.43-1.73-6.78,2.19-9.99,8.09-8.15,14.99.91,3.4,2.58,6.18,5.95,7.85,3,1.49,5.02,4,5.58,7.44,1.36,8.4,2.9,16.77,3.96,25.21,1.65,13.13,3.06,26.3,4.4,39.47.94,9.32,1.53,18.67,2.4,27.99.4,4.34-.61,8.23-2.91,11.88-1.01,1.59-1.89,3.27-2.68,4.98-.79,1.71-.76,3.47.36,5.22.39-.06.76-.06,1.09-.17,2.07-.67,2.23-.59,3.56,1.04,1.06,1.3,2.24,2.51,3.36,3.76l-.09-.06Z"/><g class="cls-5"><path class="cls-1" d="m332.44,410.74c.11.25.23.48.32.73-.02-.11-.05-.23-.05-.37s-.11-.25-.27-.37Z"/><path class="cls-1" d="m333.3,425.14s.05.01.06,0h0s-.03.01-.03.02c-.02,0-.02-.02-.03-.03Z"/><path class="cls-1" d="m333.33,425.16s-.03,0-.04.01l-.04-.06s.03,0,.05.03c.03,0,.05.01.06,0h0s-.03.01-.03.02Z"/><path class="cls-1" d="m346.47,445.92c.66,3.24,2.52,5.85,4.47,8.4.72.93,1.35,1.84,1.02,3.18.31.08.6.17.9.24.32.06.65.11,1.11.18.28,1.69.25,3.39.89,4.85.59,1.39,1.87,2.5,3.1,4.05-.81.54-1.48,1.07-2.22,1.44-.81.41-1.49.03-1.88-.94-.35-.88-.54-1.82-.99-2.64-.67-1.2-1.34-2.54-2.3-3.44-.96-.9-.66-2.25-1.34-2.81-.85-.68-1.54-1.24-1.76-2.35-.54-2.66-1.97-4.81-3.82-6.79-1.05-1.12-2.41-2.22-1.95-4.21-2.1-.36-2.84-1.95-3.4-3.89-1.66-5.69-3.92-8.96-8.78-12.79.13.84.12,1.5.34,2.11,1.13,3.31,2.67,6.43,4.91,9.2.69.85,1.27,1.87,1.68,2.89.53,1.38.06,2.49-.93,3.27-1.39,1.1-3.02.47-3.2-1.49-.27-3.09-1.84-5.67-3.17-8.33-.87-1.76-2.09-3.36-3.18-5.02-.62-.95-1.46-1.9-.89-3s1.59-1.85,2.87-1.45c1.01.32,1.44-.15,2.14-.51.96-.52,2.12-.65,3.2-.93.67.96,1.65,1.89,1.92,2.92,1.11,4.29,3.85,7.53,6.6,10.74,1.88,2.19,2.07,2.41,2.04,5.05,1.5-.35,2.31.54,2.61,2.04Z"/><path class="cls-1" d="m277.41,321.51c.23.69.57,1.44,1.05,1.99,2.83,3.31,4.34,7.29,5.64,11.35,2.47,7.74,4.93,15.51,7.22,23.32,2.15,7.33,3.72,14.87,6.21,22.11,3.06,8.91,6.85,17.59,10.26,26.4,1,2.54,1.83,5.14,2.74,7.72.39,1.14.64,2.38,1.14,3.47.85,1.85,1.28,2.17,2.72,1.53.02.16.07.32.09.5.55,2.58,1.55,3.72,3.86,4.39.91,3.47,1.05,3.59,3.95,3.31l-.11-.02c1.35-.43,1.1-2.6,2.81-2.67-.71-1.6-1.37-3.08-2.01-4.57.16-.07.32-.14.5-.21.43,1.01.82,2.03,1.3,3.02.89,1.9,2.54,2.58,4.11,1.76,1.69-.89,1.83-2.22.48-4.2-.69-1.03-1.35-2.06-1.94-3.13-.48-.85-.87-1.42-1.28-1.76h.09l.66.09,1.87.25.53.07c.09.02.16.05.25.05l.71.09.64.09c.07,0,.14.02.18.02h.02l.11.02c-.02.46,0,.89.18,1.23.5,1.03,1.76,1.64,2.81,2.54-.37.43-.5.85-.5,1.28,0,.89.62,1.78,1.32,2.67.85.64,1.71,1.21,2.51,1.9,3.59,3.11,5.82,7.06,7.08,11.65.53,1.94,1.39,3.56,3.61,3.63-.27,1.71.78,2.6,1.8,3.63,1,1.05,2.03,2.22,2.7,3.52,1.05,2.06.62,4.87,3.11,6.24-.14,1.87,1.42,2.76,2.24,4.07.43.71,1,1.55,1,2.28,0,1.74,1.03,3.04,1.8,4.27.62.96,1.35,1.64,1.32,2.9,0,.98.71,1.55,1.58,1.51,1.05-.07.98-.94.78-1.83-.66-2.88-1.62-5.64-3.27-8.18-.41-.62-.73-1.35-.89-2.06-.32-1.55.18-3.43-1.96-4.18-.07-.02.02-.5-.07-.73-.16-.59-.23-1.37-.62-1.78-2.21-2.26-3.2-5.03-3.81-8.04-.21-1.1-.87-2.12-1.32-3.2-.91.27-1.48.43-2.17.64.78-2.74.78-2.92-1.32-4.61-2.28-1.83-4.07-4-5.41-6.72-1.44-2.86-3.4-5.41-4.27-8.61-.41-1.53-1.23-1.85-2.6-1.62-.41.07-.8.25-1.64.5.96-1.76.27-2.97-.34-4.29-.41-.89-1.16-1.58-1.65-2.4-.02-.02-.02-.05-.02-.05-.23-.37-.39-.75-.43-1.19-.09-.25-.21-.48-.32-.73-1.76-4.34-3.7-8.61-5.28-13.04-2.19-6.33-4.27-12.72-5.96-19.21-3.95-15.23-9.07-30.01-16.22-44.08-1.83-3.61-2.9-7.56-4.16-11.42-.64-1.92-.55-3.93.25-5.85.21-.43.32-.89.39-1.37.3-1.96-.46-2.76-2.33-2.24-2.01.57-3.86,1.23-6.03.73-1.78-.41-1.51,1.48-2.01,2.58-.71-.16-1.39-.34-2.1-.5-1.44-.3-2.6.05-3.45,1.35-.91,1.37-2.08,2.12-3.77,1.55-.94,0-1.87,0-2.81.05-1.55.07-2.01.71-1.55,2.22Zm39.31,96.11c.25-.43.53-.85.8-1.3.09.43.32.89.66,1.35.55.75,1.42,1.42,1.3,3.08-1.05-1.21-1.94-2.17-2.76-3.13Zm-24.71-98.79c2.4,1.67,2.6,4.27,2.81,6.81.23,2.76.8,5.39,1.96,7.93,2.24,4.91,4.32,9.87,6.62,14.73,3.81,7.97,7.17,16.06,8.72,24.81,1.53,8.68,3.15,17.31,4.57,26.02.75,4.64,1.17,9.34,1.74,14.02-.11.05-.25.07-.39.09-.73-1.42-1.42-2.86-2.15-4.29-4.36-8.63-7.9-17.63-10.28-26.98-2.19-8.59-3.52-17.43-5.09-26.18-.82-4.64-1.3-9.36-2.08-14.02-.37-2.12-.66-4.48-1.78-6.21-2.01-3.13-2.63-6.46-2.7-10-.02-2.33-.23-4.48-2.03-6.19-.07-.07.02-.37.07-.53Z"/><path class="cls-1" d="m364.55,427.5c-2.06-1.51-3.72-2.83-5.48-3.97-.74-.47-1.68-.66-2.52-.77-1.27-.17-2.67.15-3.23-1.76-.03-.09-.09-.25-.11-.25-2.39.26-3.38-2.31-5.17-3.28-2.05-1.11-4.05-2.19-6.27-1.59-.36.1-.83-.08-1.34-.14-.72-1.6-.55-3.1-.45-4.56.09-1.28.75-1.61,1.96-1.11.66.27,1.28.71,1.9,1.12,2.51,1.68,5.11,2.92,7.98,2.98,1.17.02,2.06.62,3.02,1.57,2.25,2.21,4.67,4.24,7.07,6.27.54.46,1.29.65,1.96.9,1.99.74,2.46,1.69,1.62,3.43-.24.5-.7.87-.95,1.16Z"/><path class="cls-1" d="m320.18,428.51c1.4.1,2.22.68,2.47,2.33.65,4.14,2.3,7.93,5.33,11.18,1.29,1.39,1.41,2.12,1.19,4.42,1.07-.12,1.85.27,2.04,1.54.12.81.13,1.67.47,2.41.52,1.15,1.13,2.37,1.98,3.27,1.5,1.58,1.59,1.49.51,3.13.59-.17,1.18-.35,1.85-.55.35,1.03.57,1.91.95,2.74.39.84.93,1.62,1.5,2.58-.74.58-1.45,1.13-2.19,1.7-.97-1.71-1.86-3.18-2.63-4.69-.39-.76-.68-1.35-1.6-1.68-.48-.17-.88-1.13-1.16-1.78-.82-1.99-1.89-3.78-3.19-5.57-1.61-2.21-3.44-4.31-3.77-7.37-.34-3.13-2.22-6.07-4.27-8.72-2.29-2.98-2.27-3.29.62-4.92,0,0-.11,0-.11,0Z"/><path class="cls-1" d="m343.51,459.6c-1.54,1.09-3.17.89-3.68-1.85-.54-2.89-1.9-5.38-4.16-7.46-1.87-1.72-1.72-2.47.36-3.4,3-1.34,3.58-1.04,4.03,2.54.31,2.52,1.2,4.53,3.17,6.3,1.91,1.72,1.87,2.8.28,3.86Z"/><path class="cls-1" d="m350.43,469.32c.39.38.99.71,1.16,1.18.46,1.19.69,2.45,1.08,3.67.27.87.45,1.77-.41,2.07-1.03.37-1.69-.48-1.84-1.48-.23-1.53-1.1-2.48-2.21-3.42-.6-.51-1.2-1.27-1.42-2-.74-2.44-1.51-4.8-3.62-6.51-.3-.24-.38-.81-.61-1.36,1.12-.97,2.04-2.15,4.13-1.58-.08,2.8,1.2,5.1,3.13,7.18.43.47.4,1.42.61,2.24Z"/><path class="cls-1" d="m354.91,470.21c.94-1.63,2.27-1.56,3.48-1.75.62,1.85,1.18,3.55,1.75,5.25.28.85.36,1.72-.51,2-.98.31-1.71-.37-1.91-1.39-.34-1.69-.89-3.18-2.79-4.12Z"/><path class="cls-1" d="m336.71,416.22c-1.51-1.41-1.32-3.3-1.93-5.13,1.36-.3,2.49-.35,3.34.98.63.98-.03,2.79-1.41,4.14Z"/><path class="cls-1" d="m339.03,462.34c.79,1.6,1.26,2.69,1.85,3.72.49.84.73,1.6-.1,2.04-.74.39-1.23-.27-1.7-.92-.73-1.02-1.53-1.99-2.51-3.25.83-.53,1.63-1.05,2.46-1.59Z"/></g><path class="cls-2" d="m74.04,305.45c.87,2.47,2.26,4.59,4.43,6.1,2.7,1.87,5.3,1.71,7.77-.46.5-.41.98-.85,1.78-1.53,1.12,1.01,2.24,1.96,3.31,2.97,1.6,1.48,3.08,3.08,5.46,3.24,1.1-1.23,2.26-2.42,3.31-3.7,1.32-1.64,1.48-1.74,3.56-1.05.34.11.71.11,1.1.16,1.12-1.76,1.14-3.49.37-5.21-.8-1.71-1.69-3.4-2.7-5-2.31-3.63-3.31-7.54-2.92-11.88.87-9.32,1.46-18.66,2.4-27.98,1.35-13.18,2.76-26.34,4.41-39.47,1.05-8.43,2.6-16.81,3.95-25.22.57-3.43,2.58-5.94,5.57-7.42,3.38-1.67,5.05-4.45,5.96-7.86,1.85-6.9-1.37-12.79-8.15-14.98-3.11-1.01-6.05-.57-8.43,1.74-.98.94-1.87,1.28-3.2,1.3-2.42.05-3.72.94-3.97,3.17-.55,4.89-.94,9.78-1.12,14.69-.16,5,.25,10.03-.05,15.03-.69,11.33-1.55,22.64-2.51,33.94-.94,10.85-1.85,21.68-4.02,32.37-1.26,6.1-2.49,12.22-3.88,18.3-1,4.41-3.47,7.93-7.1,10.62-1.44,1.05-2.81,2.24-4.11,3.47-1.37,1.26-1.83,2.88-1.21,4.66Z"/><path class="cls-1" d="m96.74,315.82l.09-.05h-.05l-.05.05Z"/><g class="cls-5"><path class="cls-1" d="m44.97,411.47c.09-.25.21-.5.32-.75-.16.14-.27.27-.27.39s-.02.25-.05.37Z"/><path class="cls-1" d="m44.42,425.14s-.05.01-.06,0h0s.03.01.03.02c.02,0,.02-.02.03-.03Z"/><path class="cls-1" d="m44.39,425.16s.03,0,.04.01l.04-.06s-.03,0-.05.03c-.03,0-.05.01-.06,0h0s.03.01.03.02Z"/><path class="cls-1" d="m31.25,445.92c-.66,3.24-2.52,5.85-4.47,8.4-.72.93-1.35,1.84-1.02,3.18-.31.08-.6.17-.9.24-.32.06-.65.11-1.11.18-.28,1.69-.25,3.39-.89,4.85-.59,1.39-1.87,2.5-3.1,4.05.81.54,1.48,1.07,2.22,1.44.81.41,1.49.03,1.88-.94.35-.88.54-1.82.99-2.64.67-1.2,1.34-2.54,2.3-3.44.96-.9.66-2.25,1.34-2.81.85-.68,1.54-1.24,1.76-2.35.54-2.66,1.97-4.81,3.82-6.79,1.05-1.12,2.41-2.22,1.95-4.21,2.1-.36,2.84-1.95,3.4-3.89,1.66-5.69,3.92-8.96,8.78-12.79-.13.84-.12,1.5-.34,2.11-1.13,3.31-2.67,6.43-4.91,9.2-.69.85-1.27,1.87-1.68,2.89-.53,1.38-.06,2.49.93,3.27,1.39,1.1,3.02.47,3.2-1.49.27-3.09,1.84-5.67,3.17-8.33.87-1.76,2.09-3.36,3.18-5.02.62-.95,1.46-1.9.89-3-.58-1.11-1.59-1.85-2.87-1.45-1.01.32-1.44-.15-2.14-.51-.96-.52-2.12-.65-3.2-.93-.67.96-1.65,1.89-1.92,2.92-1.11,4.29-3.85,7.53-6.6,10.74-1.88,2.19-2.07,2.41-2.04,5.05-1.5-.35-2.31.54-2.61,2.04Z"/><path class="cls-1" d="m13.9,469.8c.89.05,1.6-.53,1.6-1.51-.02-1.26.71-1.94,1.3-2.9.8-1.23,1.83-2.54,1.83-4.27,0-.73.55-1.58,1.01-2.28.8-1.3,2.35-2.19,2.22-4.07,2.51-1.37,2.08-4.18,3.13-6.24.66-1.3,1.67-2.47,2.7-3.52,1.01-1.03,2.08-1.92,1.78-3.63,2.24-.07,3.08-1.69,3.63-3.63,1.26-4.59,3.49-8.54,7.08-11.65.8-.69,1.67-1.26,2.54-1.9h-.05c.73-.89,1.32-1.8,1.32-2.67,0-.43-.14-.87-.48-1.28,1.03-.89,2.31-1.51,2.81-2.54.18-.34.21-.78.18-1.23l.09-.02h.02s.11-.02.18-.02l.66-.09.71-.09c.09,0,.16-.02.25-.05l.5-.07,1.9-.25.66-.09h.09c-.41.34-.8.91-1.28,1.76-.59,1.07-1.26,2.1-1.94,3.13-1.35,1.99-1.23,3.31.46,4.2,1.58.82,3.22.14,4.13-1.76.46-.98.87-2.01,1.3-3.02.16.07.34.14.5.21-.66,1.48-1.3,2.97-2.01,4.57,1.71.07,1.46,2.24,2.79,2.67l-.09.02c2.9.27,3.02.16,3.95-3.31,2.31-.66,3.31-1.8,3.86-4.39.02-.18.07-.34.09-.5,1.44.64,1.9.32,2.72-1.53.5-1.1.75-2.33,1.14-3.47.89-2.58,1.74-5.18,2.72-7.72,3.43-8.82,7.19-17.5,10.28-26.4,2.49-7.24,4.04-14.78,6.21-22.11,2.28-7.81,4.75-15.58,7.22-23.32,1.28-4.07,2.79-8.04,5.64-11.35.46-.55.8-1.3,1.03-1.99.48-1.51,0-2.15-1.55-2.22-.94-.05-1.87-.05-2.81-.05-1.67.57-2.86-.18-3.75-1.55-.85-1.3-2.03-1.64-3.45-1.35-.71.16-1.42.34-2.1.5-.5-1.1-.23-2.99-2.01-2.58-2.19.5-4.04-.16-6.03-.73-1.9-.53-2.63.27-2.35,2.24.07.48.21.94.39,1.37.8,1.92.89,3.93.27,5.85-1.26,3.86-2.35,7.81-4.18,11.42-7.13,14.07-12.27,28.85-16.19,44.08-1.69,6.49-3.77,12.88-5.98,19.21-1.55,4.43-3.49,8.7-5.25,13.02-.11.25-.23.5-.32.75-.07.48-.25.91-.48,1.3,0,0-.02,0-.02.02-.5.78-1.21,1.46-1.6,2.31-.62,1.32-1.3,2.54-.34,4.29-.85-.25-1.23-.43-1.64-.5-1.37-.23-2.22.09-2.63,1.62-.85,3.2-2.83,5.76-4.25,8.61-1.35,2.72-3.13,4.89-5.41,6.72-2.12,1.69-2.1,1.87-1.35,4.61-.69-.21-1.26-.37-2.17-.64-.43,1.07-1.1,2.1-1.32,3.2-.62,3.02-1.58,5.78-3.79,8.04-.39.41-.46,1.19-.64,1.78-.07.23,0,.71-.07.73-2.12.75-1.62,2.63-1.94,4.18-.16.71-.5,1.44-.89,2.06-1.64,2.54-2.63,5.3-3.29,8.18-.21.89-.25,1.76.78,1.83Zm47.92-60.87c-.73,1.44-1.44,2.88-2.15,4.29-.14-.02-.27-.05-.41-.09.57-4.68,1.01-9.39,1.76-14.02,1.42-8.7,3.04-17.34,4.55-26.02,1.55-8.75,4.93-16.83,8.73-24.81,2.33-4.87,4.39-9.82,6.62-14.73,1.16-2.54,1.76-5.16,1.96-7.93.21-2.54.43-5.14,2.83-6.81.02.16.14.46.07.53-1.8,1.71-2.01,3.86-2.06,6.19-.05,3.54-.66,6.88-2.67,10-1.12,1.74-1.42,4.09-1.78,6.21-.8,4.66-1.26,9.39-2.08,14.02-1.58,8.75-2.92,17.59-5.09,26.18-2.4,9.34-5.92,18.34-10.28,26.98Zm-3.59,11.81c-.11-1.67.73-2.33,1.28-3.08.34-.48.59-.91.69-1.35.27.46.53.87.8,1.3-.82.96-1.71,1.92-2.76,3.13Zm-4.36-5c.53.07,1.07.23,1.62.39-.05.14-.14.27-.21.43-.34-.21-.59-.39-.87-.55-.21-.09-.37-.18-.55-.27Z"/><path class="cls-1" d="m13.17,427.5c2.06-1.51,3.72-2.83,5.48-3.97.74-.47,1.68-.66,2.52-.77,1.27-.17,2.67.15,3.23-1.76.03-.09.09-.25.11-.25,2.39.26,3.38-2.31,5.17-3.28,2.05-1.11,4.05-2.19,6.27-1.59.36.1.83-.08,1.34-.14.72-1.6.55-3.1.45-4.56-.09-1.28-.75-1.61-1.96-1.11-.66.27-1.28.71-1.9,1.12-2.51,1.68-5.11,2.92-7.98,2.98-1.17.02-2.06.62-3.02,1.57-2.25,2.21-4.67,4.24-7.07,6.27-.54.46-1.29.65-1.96.9-1.99.74-2.46,1.69-1.62,3.43.24.5.7.87.95,1.16Z"/><path class="cls-1" d="m57.54,428.51c-1.4.1-2.22.68-2.47,2.33-.65,4.14-2.3,7.93-5.33,11.18-1.29,1.39-1.41,2.12-1.19,4.42-1.07-.12-1.85.27-2.04,1.54-.12.81-.13,1.67-.47,2.41-.52,1.15-1.13,2.37-1.98,3.27-1.5,1.58-1.59,1.49-.51,3.13-.59-.17-1.18-.35-1.85-.55-.35,1.03-.57,1.91-.95,2.74-.39.84-.93,1.62-1.5,2.58.74.58,1.45,1.13,2.19,1.7.97-1.71,1.86-3.18,2.63-4.69.39-.76.68-1.35,1.6-1.68.48-.17.88-1.13,1.16-1.78.82-1.99,1.89-3.78,3.19-5.57,1.61-2.21,3.44-4.31,3.77-7.37.34-3.13,2.22-6.07,4.27-8.72,2.29-2.98,2.27-3.29-.62-4.92,0,0,.11,0,.11,0Z"/><path class="cls-1" d="m34.21,459.6c1.54,1.09,3.17.89,3.68-1.85.54-2.89,1.9-5.38,4.16-7.46,1.87-1.72,1.72-2.47-.36-3.4-3-1.34-3.58-1.04-4.03,2.54-.31,2.52-1.2,4.53-3.17,6.3-1.91,1.72-1.87,2.8-.28,3.86Z"/><path class="cls-1" d="m27.3,469.32c-.39.38-.99.71-1.16,1.18-.46,1.19-.69,2.45-1.08,3.67-.27.87-.45,1.77.41,2.07,1.03.37,1.69-.48,1.84-1.48.23-1.53,1.1-2.48,2.21-3.42.6-.51,1.2-1.27,1.42-2,.74-2.44,1.51-4.8,3.62-6.51.3-.24.38-.81.61-1.36-1.12-.97-2.04-2.15-4.13-1.58.08,2.8-1.2,5.1-3.13,7.18-.43.47-.4,1.42-.61,2.24Z"/><path class="cls-1" d="m22.81,470.21c-.94-1.63-2.27-1.56-3.48-1.75-.62,1.85-1.18,3.55-1.75,5.25-.28.85-.36,1.72.51,2,.98.31,1.71-.37,1.91-1.39.34-1.69.89-3.18,2.79-4.12Z"/><path class="cls-1" d="m41.01,416.22c1.51-1.41,1.32-3.3,1.93-5.13-1.36-.3-2.49-.35-3.34.98-.63.98.03,2.79,1.41,4.14Z"/><path class="cls-1" d="m38.69,462.34c-.79,1.6-1.26,2.69-1.85,3.72-.49.84-.73,1.6.1,2.04.74.39,1.23-.27,1.7-.92.73-1.02,1.53-1.99,2.51-3.25-.83-.53-1.63-1.05-2.46-1.59Z"/></g><path class="cls-2" d="m117.65,653.1c.62,2.65,1.26,5.41,1.14,8.09-.37,8.98-1.12,17.91-1.64,26.86-.37,6.3-.96,12.63-.87,18.94.16,9.75.85,19.53,1.3,29.3.39,8.54.66,17.11,1.21,25.65.48,7.22,1.39,14.39,1.92,21.61.46,6.56.11,13.02-2.97,19.09-.8,1.58-1.1,3.47-1.37,5.28-.32,2.24.37,4.02,2.74,4.36-.5,2.06-1.05,3.91-1.37,5.8-.16.87-.05,1.83.16,2.7.34,1.32,1.19,1.87,2.51,1.21.48-.23.91-.5,1.35-.73,1.42-1.35,3.02-2.03,4.93-1.21.66.53,1.26,1.1,1.92,1.62-.73.25-1.48.39-2.31.46-2.33.16-4.34,1.03-6.1,2.44-.82-.23-1.55-.41-2.26-.62-2.92-.85-4.41.16-4.84,3.31,2.47-.82,5.37,1.03,7.63-1.28,1.21,1.28,2.7,1.28,4.23,1.19,1.37-.09,2.79-.34,4,.64-4.98.14-6.72,2.99-4.34,7.13,1.85-.82,3.63-2.42,6.17-.69-1.21.18-2.1.27-2.99.48-4.2.96-5.23,3.2-3.24,6.97.91,1.71,1.37,3.45,1.07,5.44-.21,1.37-.94,3.04,1.05,3.91.14.07.02.69.07,1.03.07.62.16,1.23.25,1.9-2.76,1.58-2.81,1.85-.82,4.59-.23.55-.53,1.12-.69,1.76-.25.98.14,1.64,1.16,1.9,1.21.3,2.54-.27,3.06-1.37.27-.59.3-1.44.73-1.8,1.78-1.46,1.62-3.17.64-5.16,1.74-.34,2.83-1.12,2.58-2.9,2.38-1.69.71-3.04-.41-4.36-1.01-1.19-1.19-2.47-1.03-3.95.18-1.67.21-3.38.34-5.05.05-.5.14-1.28.46-1.44,1.26-.64,1.03-1.67.91-2.7-.37-3.02-1.71-5.16-4.96-5.66,1.01.05,2.01,0,2.99.16.75.09,1.44.48,2.17.62,2.31.41,3.54-.43,3.61-2.74.05-1.48-.18-3.04-.57-4.45-.75-2.65-2.4-3.52-4.34-2.33,0-.05-.02-.11-.02-.16-.37-2.03-.82-4.02-1.28-6.14.57.53,1.16,1.03,1.74,1.55,2.33,2.12,3.63,1.87,4.57-1.21.53-1.71.89-3.61.71-5.37-.48-4.25-1.23-8.47-2.08-12.65-1.92-9.62-3.43-19.23-2.9-29.1.62-11.9,1.07-23.82,1.53-35.75.48-13.02.8-26.06,1.37-39.1.37-8.04.64-16.08,2.65-23.96,1.85-7.31,3.36-14.66,7.77-21.08,1.76-2.54,2.06-5.62,1.76-8.95-1.53-.16-2.9-.27-4.93-.48,3.22-1.67,4.32-4.45,5.53-7.24,2.42-5.62,2.15-10.96-1.62-15.85-2.31-2.97-3.7-6.3-4.52-9.89-.85-3.7-1.76-7.35-2.4-11.06-4.48-24.92-6.65-50.02-6.62-75.35.05-15.17-.43-30.36-.48-45.52-.02-3.84.27-7.81,1.3-11.47.91-3.17,1.46-6.05.37-9.2-1.35-3.77-.32-7.24,1.67-10.48,1.69-2.74,3.31-3.45,6.44-2.83,1.9.39,3.75.96,5.62,1.44,2.49.59,3.95-.18,4.07-2.65.25-4.84-.27-9.59-3.06-13.8-1.6-2.35-3.7-4.04-6.58-4.61-4.04-.85-5.76.48-5.87,4.61-.11,3.61-2.58,6.01-6.37,6.19-2.31-3.49-4.07-4.2-8.22-3.33-4.87,1.03-7.4,4.45-8.73,8.89-1.78,5.94-1.39,11.9.43,17.77.75,2.42,1.87,4.75,2.54,7.19.64,2.33,1.07,4.75,1.23,7.15.25,3.97.21,7.95.3,11.92.32,12.31.59,24.62.98,36.96.41,12.01,1.01,24.01,1.51,36.02.57,14.34,1.1,28.69,1.71,43.03.25,5.78-1.76,10.42-5.92,14.46-6.24,6.03-6.46,16.49-.87,22.96l6.49,1.78c.66-.32,1.35-.64,2.31-1.07-.46-1.1-.91-2.06-1.3-3.06-1.01-2.56-2.01-5.12-2.95-7.67-1.99-5.44,3.33-12.63,9.91-12.22,6.85.41,10.87,3.59,12.27,10.83.5,2.76-.32,5.25-2.24,7.33-.82.89-1.69,1.76-2.51,2.67-1.62,1.8-1.64,2.99,0,4.73.48.48,1.1.89,1.85,1.42-2.67-.21-3.72-1.53-3.43-4.25.18-1.55.8-3.15,1.55-4.52,2.03-3.61,3.2-7.29,1.55-11.35-.41-1.01-.98-2.06-1.78-2.76-5.02-4.59-13.64-2.35-15.9,4.02-.78,2.17-.37,4.25.43,6.26.59,1.48,1.46,2.9,2.24,4.32.53.98,1.16,1.92,1.64,2.9.53,1.1,1.3,2.44.27,3.4-.64.62-1.99.53-3.22.21l-6.62-1.21c-1.23.16-2.44.3-3.79.46.11.96.14,1.58.27,2.12,1.48,5.62,3.08,11.19,4.45,16.83Z"/><path class="cls-2" d="m123.07,828.86c-.26,1.01-.61,2.07-.8,3.17-.36,2.13-.8,4.27-.87,6.42-.05,1.48.02,2.83-.94,3.39.19,1.16.69,2.15.39,2.71-.71,1.31-.5,2.52-.33,3.84.1.85-.11,1.74-.19,2.72-1.42-.18-2.47-.32-4.01-.52,1.09.91,1.91,1.33,2.32,2,.54.88-.58,1.43-.8,2.1-.93,2.94-1.56,5.98-2.25,8.99-.35,1.5-1.11,2.34-2.95,2.06.16-2.02-.31-3.94.5-6.02.67-1.72.39-3.81.51-5.74.02-.36-.18-.98-.05-1.05,1.99-1.08,1.11-3.53,2.42-5,.6-.67.58-1.9.82-2.89.28-1.17,1.12-2.68.68-3.44-.79-1.39-.13-2.32.12-3.46.55-2.58,1.16-5.15,1.51-7.76.39-2.9,1.21-3.33,3.92-1.51Z"/><path class="cls-2" d="m105.32,850.71c1.34,1.05,2.99.8,4.5,1.14.67.15,1.58.41,1.86.91.46.83-.57,1.12-1.03,1.66-.88,1.03-1.54,2.28-2.15,3.5-.64,1.28-1.1,2.64-1.91,3.89-.86-1.5-1.04-2.84-.06-4.32.81-1.22,1.66-2.55,1.17-4.35-1.39,0-2.26.56-2.75,1.84-.56,1.48-1.16,2.95-1.78,4.4-.13.31-.43.54-.86,1.05-.6-1.5-.73-2.71.02-3.86,1.07-1.63,1.71-3.33,1.13-5.4.76-.16,1.36-.29,1.97-.41,0,0-.12-.05-.12-.05Z"/><path class="cls-2" d="m101.49,850.16c.21-.6.31-1.28.64-1.8,1.37-2.12,2.79-4.21,4.26-6.27.3-.42.86-.64,1.41-1.04.38.52.68.93,1.05,1.42.43-.38.84-.73,1.25-1.08,0,0-.07-.04-.07-.04,1.43.92,1.09,1.98.19,3.03-1.29,1.49-2.46,3.01-2.72,5.08-.15,1.2-1.2,1.24-2.17,1.26,0,0,.12.05.11.05-.26-.57-.52-1.13-.65-1.41-1.22.28-2.31.53-3.4.77,0,0,.1.03.1.03Z"/><path class="cls-2" d="m112.59,838.83c.43-1.09,1.03-2.15,1.25-3.28.38-1.94.52-3.92.79-6.03.98-.31,1.93-.61,3.27-1.04-.25,1.05-.47,1.81-.61,2.58-.45,2.51-.87,5.03-1.3,7.54-.13.74-.14,1.54-.43,2.21-.19.43-.78.93-1.21.95-.43.02-1.09-.42-1.28-.84-.31-.66-.31-1.46-.44-2.2,0,0-.04.1-.04.1Z"/><path class="cls-2" d="m112.64,838.73c-.17.51-.37,1.02-.52,1.54-.31,1.11-1.01,1.44-2.09,1.08,0,0,.08.04.07.04.14-1.63.3-3.26.45-4.88-.1-.02-.2-.03-.29-.05-.47,1.05-.94,2.1-1.42,3.15-.76-2.22.4-4,.82-6.11,1.17-.21,2.32-.42,3.5-.64-.2,2.16-.38,4.07-.56,5.98,0,0,.05-.11.05-.11Z"/><path class="cls-2" d="m111.2,851.08c-1.37-.17-1.94-.77-1.53-1.76.81-1.98,1.7-3.94,2.73-5.81.23-.42,1.21-.43,2.18-.74-.49,3.33-2,5.75-3.38,8.31Z"/><path class="cls-2" d="m113.04,827.28c.68.19,1.36.38,2.07.58-.94,1.45-1.82,2.82-2.77,4.29-1.28.18-1.63-.77-1.85-1.82-.2-.98.34-1.57,1.13-2.04.52-.31,1-.67,1.49-1.01-.01,0-.07,0-.07,0Z"/><path class="cls-2" d="m101.39,850.13c.44.3.89.59,1.26.84-1.08,1.95-2.07,3.72-3.06,5.5-.14-.04-.29-.08-.43-.11,0-.51-.11-1.06.02-1.54.34-1.33.73-2.66,1.23-3.94.13-.33.73-.47,1.11-.7,0,0-.11-.04-.11-.04Z"/><path class="cls-2" d="m180,250.45s0,.02.02.05v-.05s-.02,0-.02,0Z"/><path class="cls-2" d="m162.93,166.85c.05.71.14,1.42.34,2.12-.07-.71-.18-1.42-.34-2.12Z"/><path class="cls-2" d="m101.79,166.21c.34.53,1.44.85,2.17.8.89-.07,1.83-.5,2.63-.96,2.81-1.58,5.71-1.8,8.77-.87,1.16.37,2.38.78,3.59.87.73.05,1.48-.09,2.24-.23.11-.02.21-.02.3-.07,1.53-.43,1.39-2.86,1.39-2.86-2.42-.18-4.89-.11-7.26-1.32.32-1.21.62-2.26.94-3.47.5.64.85,1.05,1.3,1.64,3.24-2.12,6.74-3.47,10.48-4.16,2.79-.5,5.57-1.12,8.34-1.69,6.88-1.39,13.7-2.76,20.76-2.67,3.4.05,6.81-.37,10.16-.91,1.8-.3,3.63-1.1,5.18-2.1,2.81-1.83,3.59-6.6,1.6-9.91-1.21,1.03-2.47,1.99-3.56,3.06-3.33,3.22-7.2,5.09-11.88,5.32-4.61.23-9.23.82-13.86.98-10.35.37-20.12,3.17-29.72,6.81-.23.09-.41.32-.59.48.11.43.23.82.37,1.37-1.8-.43-3.24-.32-4.57.66-2.12,1.58-4.32,3.06-6.42,4.68-.82.62-1.62,1.35-2.15,2.22-.37.64-.53,1.78-.21,2.33Z"/><path class="cls-2" d="m189.61,97.46c-1.42.98-2.83.74-4.57-.76-2.13,1.01-3.52.55-4.49-1.47-1.73.82-1.96.77-3.56-.71-.69.88-1.47.48-2.22.07-1.02-.55-1.2-1.52-1.19-2.56.01-.96-.02-1.93.06-2.88.07-.83.18-1.68.46-2.46.25-.67.26-1.25-.21-1.73-1.43-1.47-2.78-3.06-4.39-4.29-1.73-1.32-3.77-1.47-5.65-.12-.73.53-1.17.36-1.6-.29-.17-.26-.36-.51-.51-.78-1.45-2.65-2.86-5.32-4.34-7.95-.38-.68-.24-1.17.12-1.79.93-1.61,1.91-3.22,2.65-4.92,1.28-2.99,1.55-6.08.21-9.16-.18-.41-.5-.77-.76-1.15-.15.03-.29.06-.44.09-.08,1.15-.23,2.3-.23,3.45,0,1.16.12,2.32.19,3.48-.52-.18-.86-.44-1.13-.75-1.82-2.14-2.96-4.62-3.46-7.35-.35-1.89-.48-3.83-.68-5.74-.66-6.34-.51-12.64,1.03-18.85,2.4-9.71,7.87-17.1,17.05-21.34,9.99-4.62,20.35-5.02,30.8-1.82,8.38,2.56,14.83,7.66,18.87,15.54,2.82,5.51,3.99,11.46,4.08,17.59.06,4.13-.22,8.28-.56,12.41-.29,3.54-1.53,6.79-3.84,9.56-.25.31-.42.69-.63,1.03-.14-.09-.28-.18-.43-.27-.08-2.32.56-4.7-.48-6.97-.37.32-.62.66-.8,1.03-1.04,2.21-1.12,4.5-.59,6.85.61,2.72,1.89,5.13,3.45,7.4.42.62.48,1.11.05,1.78-.71,1.1-1.31,2.26-1.94,3.41-.95,1.72-1.88,3.44-2.83,5.15-.4.72-.84.95-1.63.37-1.88-1.37-3.96-1.2-5.66.08-1.67,1.25-3.02,2.94-4.43,4.5-.26.28-.31.96-.18,1.35.73,2.1.24,4.26.46,6.39.01.12-.05.24-.09.36-.4,1.48-1.99,2.13-3.26,1.33-1.34,1.32-1.88,1.44-3.52.77-1.22,1.98-2.41,2.34-4.52,1.39-1.7,1.48-2.85,1.66-4.65.74Zm-9.06-28.99c2.29-.63,2.79-1.2,2.97-3.54.09-1.27.1-2.55-.02-3.81-.25-2.67-1.77-4.43-4.29-5.21-3.41-1.06-6.93-1.47-10.5-1.34-1.53.06-2.76.73-3.44,2.18-1.6,3.44-1.62,6.9-.15,10.39.7,1.65,1.96,2.44,3.69,2.54.87.05,1.74,0,2.61,0,3.11.17,6.14-.4,9.12-1.22Zm30.77,1.08c1.09-.12,1.93-.69,2.45-1.66,2-3.69,1.95-7.45.23-11.21-.64-1.4-1.91-2.04-3.4-2.11-3.64-.18-7.2.35-10.68,1.41-2.16.66-3.53,2.18-4.01,4.4-.43,2-.33,4.03.07,6.03.23,1.14,1.2,1.54,2.16,1.84,3.16,1,6.39,1.6,9.73,1.58,1.15-.09,2.3-.15,3.44-.28Zm-20.95,7.83c.12.77.16,1.55.19,2.33.03.76.42,1.2,1.15,1.18.83-.02,1.68-.09,2.47-.31.27-.07.56-.63.58-.98.09-1.42-.41-2.71-1.21-3.85-.93-1.32-1.51-2.75-1.92-4.31-.25-.97-.73-1.91-1.25-2.78-.52-.86-.94-.87-1.44-.02-.55.93-1.03,1.92-1.33,2.95-.43,1.48-1.07,2.82-1.85,4.15-.62,1.05-.98,2.27-1.29,3.46-.25.98.1,1.36,1.07,1.58.3.07.61.13.92.17,1.69.21,2.19-.21,2.32-1.91.07-.87.16-1.73.3-2.59.06-.34.27-.65.41-.97.13,0,.26,0,.39,0,.16.64.37,1.27.47,1.92Z"/><path class="cls-4" d="m195.54,467.11c2.22,19.73,3.47,39.01,6.67,57.97,6.1,36.09,13.32,71.99,20.03,107.99,0,0,21.7,16.03,54.59-1.9-.18-26.29.66-52.56,1-78.85.46-36.68,2.9-73.48.55-109.98-.8-12.56-3.45-24.99-6.42-37.39-52.28,6.9-76.43,62.15-76.43,62.15Z"/></svg>