<?xml version="1.0" encoding="UTF-8"?><svg id="Lag_1" xmlns="http://www.w3.org/2000/svg" viewBox="0 0 383.12 877.76"><defs><style>.cls-1,.cls-2,.cls-3{fill:#fff;}.cls-4{fill:#0098ff;opacity:.39;}.cls-5,.cls-6,.cls-2{opacity:.22;}.cls-6,.cls-7{fill:none;}.cls-3{opacity:.15;}</style></defs><path class="cls-3" d="m383.11,438.01v.02c.02.23.02.44-.02.6-.16.92-.6,1.52-1.18,1.87-1.2.76-2.98.44-4.02-.05-5.47-2.42-11.86-2.79-16.36-8.68-.12-.12-.23-.28-.35-.42-.07.23-.14.48-.23.72-.3.92-.55,1.82-.72,2.7-.69,3.16-.6,6.02-.05,8.72.81,3.9,2.58,7.43,4.38,10.96.09.21.21.39.3.6,3.6,6.97,7.48,13.82,10.73,20.95,3.9,8.51,3.85,13.48-4.43,14.61-.76.09-1.59.16-2.45.18-1.45.02-8.86-2.88-11.49-2.26-2.26.55-3.58.72-4.92.23-.58-.23-1.29-.58-1.85-1.13l-.16-.23c-.99-1.2-6.09-7.68-7.31-10.22l-14.01-19.61-.14-.23-.14-.18c-7.27-10.45-14.86-21.76-19.11-30.78-.18-.44-.37-.88-.58-1.34-.62-1.48-1.41-2.88-2.08-4.34-15.07-32.95-30.81-65.67-39.97-101.05-2.12-8.15-3.88-16.43-5.21-24.9-.07,25.13.83,50.1,4.5,74.65.99,6.69,2.38,13.36,3.9,20.01,1.48,6.46,3.07,12.92,4.59,19.38,3,12.53,5.68,25.08,6.48,37.77,2.38,36.87-.09,74.05-.55,111.11-.35,26.56-1.2,53.1-1.02,79.65.09,17.03,3.51,34.2,2.17,51.07-2.4,29.86-7.57,59.53-11.03,89.35-2.79,24.23-1.43,48.23,9.07,70.77,3.51,7.52,14.86,14.33,7.71,22.61-4.48,5.17-15.41,6-23.61,6.46-21.02,1.25-24.71-4.15-23.63-25.82,1.32-26.79-3.92-53.72,1.18-80.53.48-2.68-.85-5.72-1.43-8.56-7.38-36.69-18.74-72.87-13.68-111.13.53-3.97-1.13-8.21-1.89-12.3-6.78-36.37-14.08-72.64-20.24-109.1-3.23-19.15-4.5-38.63-6.74-58.56-2.17.09-2.91.14-6,.28-3.09-.14-3.83-.18-6-.28-2.24,19.94-3.51,39.41-6.74,58.56-6.16,36.46-13.45,72.73-20.24,109.1-.76,4.08-2.42,8.33-1.89,12.3,5.05,38.26-6.3,74.44-13.68,111.13-.58,2.84-1.92,5.88-1.43,8.56,5.1,26.81-.14,53.74,1.18,80.53,1.08,21.67-2.61,27.07-23.63,25.82-8.19-.46-19.13-1.29-23.61-6.46-7.15-8.28,4.2-15.09,7.71-22.61,10.5-22.54,11.86-46.54,9.07-70.77-3.46-29.81-8.63-59.49-11.03-89.35-1.34-16.87,2.08-34.04,2.17-51.07.18-26.56-.67-53.1-1.02-79.65-.46-37.06-2.93-74.23-.55-111.11.81-12.69,3.48-25.24,6.48-37.77,1.52-6.46,3.12-12.92,4.59-19.38,1.52-6.65,2.91-13.31,3.9-20.01,3.67-24.55,4.57-49.52,4.5-74.65-1.34,8.47-3.09,16.75-5.21,24.9-9.16,35.37-24.9,68.09-39.97,101.05-.67,1.45-1.45,2.86-2.08,4.34-.21.46-.39.9-.58,1.34-4.25,9.02-11.84,20.33-19.11,30.78l-.14.18-.14.23-14.01,19.61c-1.22,2.54-6.32,9.02-7.31,10.22l-.16.23c-.55.55-1.27.9-1.85,1.13-1.34.48-2.65.32-4.92-.23-2.63-.62-10.04,2.28-11.49,2.26-.85-.02-1.68-.09-2.45-.18-8.28-1.13-8.33-6.09-4.43-14.61,3.25-7.13,7.13-13.98,10.73-20.95.09-.21.21-.39.3-.6,1.8-3.53,3.58-7.06,4.38-10.96.55-2.7.65-5.56-.05-8.72-.16-.88-.42-1.78-.72-2.7-.09-.23-.16-.48-.23-.72-.12.14-.23.3-.35.42-4.5,5.88-10.89,6.25-16.36,8.68-1.04.48-2.82.81-4.02.05-.58-.35-1.02-.95-1.18-1.87-.05-.16-.05-.37-.02-.6v-.02c.12-1.25,1.04-2.95,2.01-3.58,12.05-7.68,18.34-23.67,35.26-24.51,3.35-.16,5.68-1.2,7.55-2.93l.3-.3c.16-.14.3-.28.46-.44.02-.05.07-.09.12-.14,1.78-1.94,3.18-4.11,3.71-6.07,5.58-20.4,9.46-41.23,14.12-61.89,2.33-10.27,3.65-21.04,7.29-30.76.37-.99.76-1.96,1.2-2.93,13.5-30.78,17.05-62.51,12.58-95.46-.12-.85-.23-1.71-.3-2.54l-.02-.02c-3.14-28.01,6.25-42.07,33.69-51.96,8.19-2.93,16.29-6.35,24.18-10.13,2.63-1.27,5.1-2.77,7.31-4.45.07-.07.14-.14.21-.18,1.22-.92,2.35-1.92,3.44-3,.16-.14.25-.21.25-.21.85-.85,1.66-1.73,2.45-2.63,8.33-9.85,11.33-23.17,8.19-35.88l-.02-.02c-1.41-5.65-4.04-11.17-7.96-16.22-5.93-7.64-9.62-21.28-3.58-28.15.99-1.15-.32-5.49-.55-8.38-1.32-15.62-.58-30.92,15.48-39.07,7.98-4.08,16.13-6.16,24.18-6.16s16.2,2.08,24.18,6.16c16.06,8.15,16.8,23.44,15.48,39.07-.23,2.88-1.55,7.22-.55,8.38,6.05,6.88,2.35,20.51-3.58,28.15-3.92,5.05-6.55,10.57-7.96,16.22l-.02.02c-3.14,12.71-.14,26.03,8.19,35.88.78.9,1.59,1.78,2.45,2.63,0,0,.09.07.25.21,1.08,1.08,2.22,2.08,3.44,3,.07.05.14.12.21.18,2.22,1.68,4.68,3.18,7.31,4.45,7.89,3.78,15.99,7.2,24.18,10.13,27.44,9.9,36.83,23.95,33.69,51.96l-.02.02c-.07.83-.18,1.68-.3,2.54-4.48,32.95-.92,64.68,12.58,95.46.44.97.83,1.94,1.2,2.93,3.65,9.71,4.96,20.49,7.29,30.76,4.66,20.65,8.54,41.49,14.12,61.89.53,1.96,1.94,4.13,3.72,6.07.05.05.09.09.12.14.16.16.3.3.46.44l.3.3c1.87,1.73,4.2,2.77,7.55,2.93,16.91.83,23.21,16.82,35.26,24.51.97.62,1.89,2.33,2.01,3.58Z"/><path class="cls-7" d="m153.12,136.72c-.51.42-1.73,1.45-3.44,3"/><path class="cls-7" d="m155.82,133.88l-.02-.02"/><path class="cls-7" d="m113.38,202.39c0-.18,0-.35-.02-.53"/><path class="cls-7" d="m233.44,139.72c-1.71-1.55-2.93-2.58-3.44-3"/><path class="cls-7" d="m227.33,133.86l-.02.02"/><path class="cls-7" d="m269.76,201.86c-.02.18-.02.35-.02.53"/><path class="cls-7" d="m153.04,136.3c-.51.42-1.73,1.45-3.44,3"/><path class="cls-7" d="m155.74,133.46l-.02-.02"/><path class="cls-7" d="m113.3,201.97c0-.18,0-.35-.02-.53"/><path class="cls-7" d="m233.36,139.3c-1.71-1.55-2.93-2.58-3.44-3"/><path class="cls-7" d="m227.25,133.44l-.02.02"/><path class="cls-7" d="m269.68,201.44c-.02.18-.02.35-.02.53"/><path class="cls-6" d="m114.15,202.01c0-.18,0-.35-.02-.53"/><path class="cls-6" d="m270.53,201.48c-.02.18-.02.35-.02.53"/><path class="cls-2" d="m155.31,441.02c-.12,2.49-1.59,3.28-4.11,2.68-1.89-.48-3.76-1.06-5.68-1.45-3.16-.62-4.8.09-6.51,2.86-2.01,3.28-3.05,6.78-1.68,10.59,1.11,3.18.55,6.09-.37,9.3-1.04,3.69-1.34,7.71-1.32,11.58.05,15.32.53,30.67.48,45.99-.02,25.59,2.15,50.95,6.67,76.12.67,3.74,1.59,7.43,2.42,11.17.85,3.62,2.24,6.99,4.59,9.99,3.81,4.94,4.08,10.34,1.64,16.01-1.22,2.82-2.33,5.63-5.58,7.31,2.05.21,3.44.32,4.98.48.3,3.37,0,6.48-1.78,9.05-4.45,6.48-5.98,13.91-7.85,21.3-2.03,7.96-2.31,16.08-2.68,24.21-.58,13.18-.9,26.35-1.38,39.5-.46,12.05-.92,24.09-1.55,36.11-.53,9.97.99,19.68,2.93,29.4.85,4.22,1.62,8.49,2.1,12.78.18,1.78-.18,3.69-.72,5.42-.95,3.12-2.26,3.37-4.61,1.22-.58-.53-1.18-1.04-1.78-1.57.48,2.15.95,4.15,1.32,6.21,0,.05.02.12.02.16,1.96-1.2,3.62-.32,4.38,2.35.39,1.43.6,3,.58,4.5-.09,2.33-1.32,3.18-3.65,2.77-.74-.14-1.43-.53-2.19-.62-.99-.16-2.01-.12-3.02-.16,3.28.51,4.64,2.68,5.01,5.72.12,1.04.35,2.08-.92,2.72-.32.16-.42.95-.46,1.45-.14,1.68-.16,3.42-.35,5.1-.16,1.5.02,2.79,1.04,3.99,1.13,1.34,2.82,2.7.42,4.41.25,1.8-.85,2.58-2.61,2.93.99,2.01,1.15,3.74-.65,5.21-.44.37-.46,1.22-.76,1.82-.51,1.11-1.85,1.68-3.09,1.38-1.02-.25-1.43-.92-1.15-1.92.16-.65.46-1.22.69-1.78-2.01-2.77-1.96-3.05.83-4.64-.09-.67-.18-1.29-.25-1.92-.05-.35.07-.97-.07-1.04-2.03-.88-1.29-2.56-1.06-3.95.3-2.01-.16-3.76-1.08-5.49-2.01-3.81-.97-6.07,3.28-7.04.9-.21,1.8-.3,3.02-.48-2.56-1.75-4.36-.14-6.23.69-2.4-4.18-.65-7.06,4.38-7.2-1.22-.99-2.65-.74-4.06-.65-1.52.09-3.02.09-4.25-1.2-2.28,2.33-5.21.46-7.71,1.29.44-3.18,1.94-4.2,4.87-3.35.74.21,1.48.39,2.31.62,1.75-1.43,3.81-2.31,6.16-2.47.81-.07,1.59-.21,2.33-.46-.67-.53-1.27-1.11-1.94-1.64-1.96-.83-3.55-.14-4.98,1.22-.44.23-.88.51-1.36.74-1.34.67-2.19.12-2.54-1.22-.21-.88-.35-1.85-.18-2.72.35-1.92.9-3.78,1.41-5.86-2.4-.35-3.09-2.15-2.77-4.41.28-1.82.55-3.74,1.38-5.33,3.12-6.14,3.46-12.67,2.98-19.29-.51-7.29-1.45-14.54-1.92-21.83-.55-8.63-.83-17.28-1.22-25.91-.46-9.88-1.15-19.75-1.32-29.61-.09-6.37.51-12.76.88-19.13.53-9.05,1.29-18.07,1.66-27.14.12-2.7-.53-5.49-1.18-8.17-1.36-5.7-2.98-11.33-4.48-17.01-.14-.55-.16-1.18-.28-2.15,1.36-.16,2.58-.3,3.83-.46l6.69,1.22c1.25.32,2.58.42,3.25-.21,1.04-.97.25-2.33-.28-3.44-.48-.99-1.13-1.94-1.66-2.93-.78-1.43-1.66-2.86-2.26-4.36-.81-2.03-1.22-4.13-.44-6.32,2.28-6.44,10.98-8.7,16.06-4.06.81.72,1.38,1.78,1.78,2.79,1.68,4.11.51,7.82-1.55,11.47-.76,1.38-1.38,3-1.57,4.57-.3,2.75.76,4.08,3.46,4.29-.76-.53-1.38-.95-1.87-1.43-1.66-1.75-1.64-2.95,0-4.78.83-.92,1.71-1.8,2.54-2.7,1.94-2.1,2.77-4.61,2.26-7.41-1.41-7.31-5.47-10.52-12.39-10.94-6.65-.42-12.02,6.85-10.04,12.35.97,2.58,1.98,5.17,3,7.75.39,1.02.83,1.98,1.32,3.09-.99.44-1.66.76-2.33,1.08l-6.55-1.8c-5.65-6.53-5.42-17.1.88-23.19,4.2-4.08,6.23-8.77,5.95-14.61-.6-14.49-1.13-28.98-1.71-43.47-.51-12.14-1.11-24.25-1.52-36.39-.42-12.46-.67-24.9-.99-37.34-.09-4.02-.05-8.03-.32-12.05-.16-2.42-.58-4.87-1.22-7.22-.67-2.47-1.8-4.82-2.56-7.27-1.85-5.93-2.24-11.95-.44-17.95,1.34-4.48,3.9-7.94,8.81-8.98,4.2-.88,5.98-.16,8.31,3.37,3.83-.18,6.32-2.61,6.44-6.25.12-4.18,1.82-5.51,5.93-4.66,2.91.58,5.03,2.28,6.62,4.66,2.84,4.25,3.37,9.05,3.12,13.94Z"/><path class="cls-2" d="m247.06,371.16c-6.92-4.43-14.61-5.01-22.36-3.05-5.75,1.45-8.49,6.81-7.29,12.76.09.46.12.95.18,1.41.14.39.28.78.44,1.18.42,1.06.99,2.08,1.22,3.18.99,4.75,1.82,9.55,2.82,14.33,1.41,6.53-.16,12.32-4.15,17.54-1.04,1.36-2.05,2.79-3.32,3.92-4.06,3.62-8.26,7.11-12.39,10.64-1.89,1.62-3.85,3.14-5.61,4.89-.9.92-1.64,1.8-3.07,1.71-1.98-.09-4.01.16-5.7-1.27-3.46-2.88-6.85-5.79-10.38-8.56-4.89-3.88-9.48-8.05-12.83-13.38-2.24-3.58-3.69-7.5-3.09-11.7,1.11-7.57,2.1-15.18,4.71-22.38,2.47-6.9-1.71-13.48-8.19-14.65-6.23-1.11-12.41-.81-18.25,1.87-6.76,3.07-10.13,8.45-10.2,15.88-.05,3.12.53,6.14,1.73,8.95,1.78,4.22,3.83,8.33,5.65,12.53,1.87,4.27,4.85,7.55,8.68,10.08,1.18.78,2.42,1.52,3.67,2.22,4.29,2.47,6.69,6.16,7.11,11.12.09,1.22.3,2.47.25,3.72-.16,6.76.95,13.36,3,19.75.97,2.95,2.26,5.93,3.97,8.51,3.07,4.61,8.19,5.77,13.15,3.25,1.59-.81,3.18-1.87,4.34-3.21,1.96-2.31,3.6-4.91,5.31-7.43.58-.85.99-1.82,1.45-2.7h8.17c1.11,1.94,2.1,3.9,3.28,5.75,1.85,2.95,4.08,5.56,7.18,7.29,5.24,2.91,10.71,1.71,14.12-3.23,1.02-1.48,2.01-3.09,2.52-4.8,1.34-4.57,2.7-9.18,3.48-13.87.74-4.5.76-9.14,1.15-13.71.32-3.83,2.08-6.92,5.24-9.14,1.64-1.15,3.3-2.28,5.01-3.35,3.78-2.42,6.78-5.51,8.7-9.65,1.18-2.52,2.58-4.94,3.65-7.48,1.34-3.28,2.7-6.58,3.53-9.97,1.89-7.82-.74-15.02-6.85-18.97Zm-72.85,84.41c-1.57.83-2.88.83-3.74-.69-2.26-3.92-4.25-8.03-6.28-12.09-.25-.48-.16-1.13-.21-1.45.02-3.53,1.59-5.01,4.87-4.52,4.32.6,8.05,2.12,9.81,6.67,1.59,4.18-.48,10.01-4.45,12.09Zm44.88-10.85c-1.29,3.05-3,5.95-4.57,8.91-.21.42-.51.81-.81,1.18-1.25,1.43-2.38,1.62-4.04.67-2.7-1.48-5.08-5.72-5.03-8.88.14-3.53,3.05-8.15,6.65-8.81,1.68-.3,3.35-.9,5.03-1.02,2.08-.12,3.37.9,3.51,2.98.09,1.64-.09,3.48-.74,4.98Z"/><path class="cls-2" d="m263.47,273.04c-.35-4.02-1.57-7.8-2.42-11.68-.83-3.85-.76-7.91-1.09-11.88-.02-.28-.18-.53-.16-.81.05-.78.05-1.59.25-2.35,1.27-5.51.85-10.82-1.96-15.76-.51-.95-.83-1.73-.35-2.77.72-1.5.51-3.05-.16-4.48-.81-1.8-1.71-3.58-2.65-5.31-.78-1.5-1.66-2.95-2.31-4.04,1.45-5.05.85-9.18-1.38-12.65-.9-1.38-2.05-2.65-3.46-3.83.21-1.62.48-2.77.48-3.92-.02-4.59-2.1-8.21-5.42-11.01-1.96-1.64-3.18-3.58-4.38-5.84-2.45-4.57-5.81-8.03-11.51-7.66-.02-.72-.12-1.43-.09-2.15.16-2.72-1.02-4.73-2.98-6.32-.02-.02-.05-.05-.07-.05-.78-.67-1.62-1.29-2.49-1.82-5.68-3.46-11.74-5.79-18.23-6.97-.67-.12-1.27-.18-1.89-.18h-.02c-.14,0-.3,0-.44.02,1.82-1.52,2.05-2.86,1.89-6.21-1.25.32-2.38.74-3.51.88-.65.07-1.52.3-1.68-1.55-.07-.62.62-1.62,1.08-2.68-.25-3.07-.95-6.46-.35-9.11,1.52-1.5,2.77-2.47,3.88-3.88.76-.95,1.06-2.61.32-4.59-1.5.46-3,.95-4.48,1.41-.9-4.02-.9-4.08.39-6.05-.02-.55-.05-1.11-.07-1.66,3.62-.32,6.74-1.73,9-4.91,2.1-2.93,4.18-5.91,6.25-8.86.78-1.13,1.04-2.4,1.02-3.76-.07-1.92-.07-3.83-.11-5.77-.05-2.98.18-5.91,1.43-8.68.16-.35,0-.85-.02-1.27-.46.02-1.02-.07-1.41.14-1.2.62-1.98,1.66-2.22,3-.35,2.24-.6,4.48-.97,6.71-.46,2.82-1.36,5.45-3.44,7.5-.21.23-.48.42-.97.78.11-.55.18-.83.21-1.08,0-.69.09-1.41-.05-2.08-.09-.37-.48-.9-.83-.97-.35-.09-.81.25-1.2.48-.21.12-.28.44-.48.55-.21.14-.58.3-.72.21-1.11-.78-1.94-.07-2.82.46-.3.18-.67.23-1.02.3-.6.09-1.2.14-1.8.25-.39.07-.76.25-1.18.3-.67.05-1.38-.09-1.85.65-.07.12-.39.14-.58.14-1.66-.07-3.3-.21-4.94-.18-.81,0-1.62.39-2.19-.48-.07-.09-.3-.09-.44-.12-.81-.21-1.62-.39-2.42-.58-.3-.07-.67-.21-.9-.09-.69.3-1.15.02-1.73-.35-.58-.32-1.43-.72-1.94-.51-.76.3-1.11.25-1.57-.37-.35-.46-.85-1.06-1.48-.65-.42.28-.74.92-.81,1.45-.09.76.05,1.59.09,2.56-.32-.25-.55-.42-.76-.6-2.17-2.03-3-4.68-3.51-7.48-.37-2.01-.48-4.06-.78-6.07-.25-1.66-.95-3.09-2.54-3.85-.37-.16-.95-.16-1.27.05-.18.12-.16.78-.05,1.15.3,1.15.81,2.26,1.04,3.42.76,3.42.42,6.9.3,10.34-.07,2.1.48,3.85,1.75,5.54,1.73,2.31,3.37,4.68,4.98,7.11,1.98,2.98,4.64,4.94,8.24,5.38.44.05.9.09,1.34.12-.09,1.08.14,1.94.74,2.42.32.25.62.55.88.81.12,4.15-.02,4.48-1.66,4.11-1.18-.25-2.35-.51-3.78-.81.16,6.28,1.73,7.85,3.21,9.6.55,2.35,1.13,2.7.78,4.91-.46,2.75-.42,2.95.85,4.18.53.48.74.97.48,2.47-1.32-.37-2.61-.69-3.9-1.08-.51-.16-1.04-.88-1.34.6-.28,1.34-.07,2.58.44,3.35.72,1.04,1.45,2.01,2.24,2.7.09.09.18.16.28.25h-.46c-.6,0-1.2.09-1.8.25-3.62.95-7.32,1.73-10.75,3.16-3.37,1.38-6.53,3.35-9.65,5.31-.25.18-.53.37-.78.55-1.78,1.43-2.77,3.48-2.63,6.07.05.76-.16,1.55-.21,2.05-1.62.16-3.16-.12-4.22.51-3.32,2.01-6.46,4.36-7.87,8.38-.53,1.59-1.52,2.72-2.79,3.81-4.68,4.04-7.64,8.91-5.72,15.88-.85.83-1.85,1.62-2.63,2.56-.51.55-.92,1.11-1.25,1.71-1.96,3.07-2.4,6.6-1.57,10.25.37,1.55.21,2.49-.46,3.67-1.27,2.19-2.51,4.38-3.65,6.62-.9,1.82-1.29,3.72-.49,5.77.21.62,0,1.62-.35,2.24-2.88,5.15-3.32,10.57-1.87,16.27.16.67.14,1.41.09,2.1-.23,3.44-.48,6.88-.76,10.31-.05.72.02,1.5-.23,2.12-1.48,3.44-2.03,7.11-2.61,10.8-.44,2.95-.37,5.88.62,8.61,1.22,3.3,1.41,6.69,1.68,10.13.21,3.09.62,6.21,2.15,8.91.88,1.57,1.22,3.16,1.41,4.89.42,3.65,1.38,7.13,3.21,10.29,2.42,4.11,6.18,5.42,10.29,3.23,2.22-1.18,4.22-2.86,5.98-4.71,2.15-2.24,3.88-4.89,5.79-7.36.88-1.11,1.78-2.22,2.7-3.3,1.02-1.2,2.31-2.24,3.09-3.58,5.4-9.35,10.13-19.04,14.28-29.07,1.22-2.98,2.68-5.91,4.45-8.56,1.71-2.52,3.67-4.85,5.63-7.2.16-.21.32-.39.48-.58.23,2.08-.11,3.99-.62,5.95-.42,1.57-.18,2.82.92,3.42.44.25.85.58,1.25.83.16,4.32-.05,4.64-2.4,4.27-1.66-.28-3.35-.53-5.4-.83.23,6.48,2.47,8.1,4.57,9.92.81,2.45,1.64,2.79,1.13,5.08-.65,2.84-.58,3.05,1.25,4.32.74.53,1.04,1.02.67,2.56-1.87-.37-3.74-.69-5.58-1.11-.72-.16-1.48-.9-1.92.62-.39,1.38-.07,2.65.65,3.44,1.02,1.08,2.08,2.08,3.21,2.79,1.78,1.15,2.19,1.92,1.96,4.8-.09,1.27-.39,2.52-.69,3.72-.42,1.68-.07,2.77.95,3.39.55.35,1.41.23,1.18,1.98-2.35,1.48-4.73-.99-7.34-.23.16,6.67,3.81,6.09,6.48,8.12-.16,1.64-.25,3.42-.55,5.1-.58,3.21-.62,3.16,1.25,4.66.35.25.55.9,1.22,2.03-3.12-.55-5.68-1.02-8.08-1.43-.67,2.17-.28,3.58.6,4.52.88.97,1.8,2.15,2.79,2.35,2.08.46,2.47,2.79,2.61,5.24.12,1.73-.23,3.58-.53,5.31-.53,2.91-.58,3.21,1.25,4.36,1.32.85,1.32,1.96.88,3.58-3.42-.65-6.71-1.27-10.04-1.89-.81-.16-1.73-.62-2.15.99-.42,1.71.39,2.84,1.18,3.39,1.64,1.15,3.35,1.98,5.05,2.86.65.35,1.34.48,2.1.74-.72,4.73-1.02,9.02.07,13.38,1.08,4.45,3.55,6.81,5.81,9.32-1.22.99-2.54,1.41-3.12,2.7-.78,1.71-1.45,3.6-2.03,5.54-.62-.51-1.27-1.04-1.92-1.62-.65-.55-1.15-1.27-1.78-1.87-1.38-1.32-2.7-2.72-4.18-3.9-.95-.78-2.08-1.38-3.23-1.82-1.5-.55-2.61-.07-3.35,1.36-.37.74-.74,1.62-.76,2.42-.05,3.44-.28,6.9.12,10.29.39,3.48,1.73,6.67,5.12,8.49,1.22.65,1.62,1.85,1.71,3.14.09,1.34.02,2.7.3,3.99.3,1.36.76,2.75,1.45,3.97,1.22,2.15,2.58,4.22,4.04,6.23.69.95,1.64,1.87,2.68,2.35,1.36.62,2.19,1.55,2.63,2.86,1.04,3.14,2.03,6.3,3,9.48.51,1.62,2.82,3.74,4.29,3.78,1.64.07,4.38-1.92,4.87-3.46.95-3.09,1.85-6.18,2.98-9.21.39-1.08,1.18-2.47,2.12-2.82,2.01-.76,3.02-2.22,4.02-3.88.97-1.64,2.01-3.23,3.12-4.8,1.06-1.52,1.68-3.18,1.68-5.08,0-.85.05-1.71.09-2.58.07-1.82.67-3.3,2.45-4.2,1.68-.88,2.82-2.4,3.32-4.15.69-2.35,1.27-4.8,1.48-7.25.23-2.56,0-5.15-.02-7.73-.16-.39-.3-.78-.44-1.18-2.1-2.35-3.25-2.56-5.86-.9-1.06.67-2.03,1.45-2.93,2.28-1.25,1.18-2.38,2.49-3.6,3.72l-.39.39c-.18-.58-.32-1.15-.48-1.75-.67-2.56-1.87-3.85-3.58-4.06-.35-.05-.69-.25-1.59-.58,6.37-5.24,8.05-13.01,6.25-23.05.83-.28,1.48-.37,2.08-.69,1.48-.78,2.95-1.57,4.34-2.61.81-.58,1.64-1.62,1.34-3.3-.32-1.94-1.38-1.38-2.26-1.2-.9.18-1.78.37-2.68.51-2.26.39-4.52.74-6.69,1.11-1.2-2.95.83-3.09,1.36-4.5-.69-4.34-1.27-8.65-.05-12.85,4.61-2.4,5.54-3.88,4.75-7.71-2.33-.23-4.66,1.64-7.48.55.83-1.02,1.36-1.64,1.85-2.24q-.72-6.39-.28-8.65c1.92-1.34,3.67-2.35,5.28-3.78,1.08-.95,1.52-2.61.67-4.71-2.51-.02-4.96,1.87-7.85.25.76-1.08,1.29-1.85,1.71-2.45-.18-3.09-.37-6.02-.53-8.86,6.44-2.82,7.13-3.65,6.83-8.4-1.78.35-3.39.76-5.01.9-.92.07-2.17.3-2.42-1.59-.09-.67.9-1.68,1.55-2.77-.37-3.18-1.32-6.69-.46-9.44,2.17-1.55,3.92-2.56,5.54-4.02,1.11-.99,1.5-2.68.46-4.75-2.15.48-4.31.99-6.41,1.45-1.29-4.13-1.27-4.22.55-6.25-.14-3.05-.46-6-.35-8.93v-.39h.02c.14.14.25.28.39.44l.07.07.05.05c4.27,5.12,8.24,10.41,10.71,16.87,3.67,9.62,8.4,18.74,13.43,27.67.74,1.34,1.62,2.58,2.58,3.74,1.22,1.5,2.7,2.79,3.9,4.32,1.87,2.26,3.46,4.82,5.45,6.92,1.85,1.89,3.92,3.67,6.18,4.89,4.11,2.24,8.01.97,10.25-3.23,1.29-2.42,2.24-5.15,2.82-7.85.69-3.09,1.41-6.07,2.49-9.05,1.08-3,1.15-6.39,1.71-9.6.37-2.12.62-4.27,1.2-6.35.81-2.91,1.25-5.81.97-8.86Zm-8.19-39.74c3.09,4.32,2.95,7.06-.62,10.31-5.35,4.87-11.28,8.81-17.95,11.28-5.42,1.98-10.87,1.43-15.71-1.94-5.33-3.69-10.5-7.71-15.71-11.63-.81-.62-1.57-1.45-2.05-2.38-.62-1.25.11-2.26,1.45-1.89.97.28,1.87.9,2.77,1.41,2.91,1.64,5.7,3.48,8.7,4.89,5.93,2.84,12.05,3.32,18.11.42,6.14-2.93,12.25-6,18.34-9,.85-.44,1.68-.95,2.68-1.48Zm-4.45-13.82c.35.53.65,1.08.88,1.66.97,2.38.69,3.62-1.32,5.21-3.83,3.02-7.98,5.47-12.48,7.25-4.34,1.71-8.84,2.65-14.05,2.79-5.28-.62-11.08-1.66-16.61-3.97-1.82-.76-3.3-1.98-4.41-3.72-1.62-2.54-.62-4.96,2.33-5.26,1.68-.16,3.44.09,5.15.32,2.42.32,4.78.92,7.2,1.22.07,0,.12.02.18.02.48.05,1.02.09,1.5.14.69.05,1.36.09,2.05.09h.53c3.74.05,7.45-.51,11.08-1.96,1.22-.48,2.45-.97,3.67-1.43,3.51-1.32,7.06-2.54,10.57-3.81,2.33-.85,2.45-.78,3.74,1.43Zm-117.68,1.78c.09-.25.23-.51.35-.74,1.59-3.32,1.75-3.39,5.17-2.15,2.95,1.08,5.91,2.12,8.86,3.21h.02c2.19.78,4.41,1.59,6.6,2.4,2.95,1.11,5.93,1.36,8.93,1.27.65,0,1.32-.05,1.98-.09.51-.02,1.02-.07,1.55-.14.55-.05,1.11-.09,1.68-.16,2.26-.25,4.45-.9,6.67-1.2,1.64-.21,3.3-.39,4.91-.18,2.79.35,3.85,2.77,2.19,5.12-1.02,1.38-2.38,2.79-3.88,3.48-5.75,2.75-11.91,3.72-17.33,4.34-10.43-.46-18.88-4.2-26.47-10.18-1.87-1.48-2.12-2.7-1.25-4.98Zm-3.69,12.18c5.86,2.95,11.51,5.93,17.26,8.68,2.68,1.27,5.47,2.24,8.31,3.09,3.72,1.13,7.38.42,10.98-.74,3.99-1.32,7.61-3.46,11.15-5.79,1.02-.67,2.1-1.27,3.25-1.62,1.09-.32,1.71.46,1.34,1.59-.23.72-.69,1.5-1.29,1.94-5.91,4.45-11.63,9.18-17.86,13.13-4.52,2.88-9.81,2.95-14.84,1.02-6.39-2.47-12.09-6.28-17.28-10.89-3.76-3.37-3.97-6-1.02-10.41Zm10.11,80.05c-3.48.53-6.28-1.57-8.33-6.65,1.18.48,1.96.81,2.75,1.11,2.65.99,5.35,1.38,8.15.58,1.22-.37,2.51-.44,3.88-.65-.32,2.61-3.42,5.17-6.44,5.61Zm2.91-10.43c-7.75-.07-12.9-4.04-14.08-11.24,8.15,8.56,16.96,9,26.38,3.28-.85,4.71-6,8.03-12.3,7.96Zm26.12-30.9c-1.38,2.08-2.86,4.11-4.27,6.18-2.84,4.2-6,7.98-10.25,10.68-4.06,2.56-8.42,3.65-12.99,2.17-8.31-2.68-13.29-8.86-15.83-17.38-.62-2.12-.21-4.27.12-6.39.18-.05.37-.09.55-.16,1.29,1.59,2.51,3.23,3.85,4.75,1.75,2.01,3.53,3.99,5.42,5.86,3.62,3.58,8.01,4.66,12.78,3.67,5.56-1.13,10.41-3.78,14.7-7.73,2.05-1.89,4.43-3.44,6.9-5.33.3,1.66-.32,2.7-.99,3.67Zm15.02-24.74c-.09.12-.18.21-.3.32-.07.09-.16.16-.28.25-2.15,2.15-4.36,4.29-6.53,6.44-2.08,2.08-4.15,4.11-6.11,6.3-4.55,5.15-9.9,9.02-16.29,11.28-1.06.39-2.17.65-3.18,1.15-3.35,1.78-6.51,1.15-9.72-.48-6.3-3.18-11.14-7.66-12.6-15.21-.28-1.55-.28-3.16-.44-4.75.23-.07.44-.16.67-.23,3.67,3.69,7.96,6.39,12.41,8.81,2.22,1.2,4.57,2.19,6.92,3.05,3.25,1.15,6.55.67,9.67-.69,5.15-2.28,9.71-5.47,13.59-9.81,2.47-2.77,5.26-5.21,7.96-7.78.55-.55,1.27-.97,1.94-1.32.83-.44,1.57-.21,2.12.37.14.14.25.3.37.46.02.02.02.05.02.07-.12.6-.18,1.18-.23,1.75Zm-.37-36.99c-.32.51-.67.97-1.08,1.38-.07.09-.14.16-.23.25-.97.97-2.1,1.66-3.39,2.05-3.32,1.02-6.67,1.92-10.04,2.72-.53.12-1.08.23-1.59.3-1.13.18-2.24.3-3.37.32-4.59.14-9.05-1.06-13.31-3.02-2.88-1.29-5.63-3-8.31-4.75-.55-.37-1.08-.72-1.64-1.08-1.89-1.22-2.45-2.47-1.94-4.22.12-.48.32-.99.62-1.57.48-.92,1.15-1.78,1.78-2.77.85.3,1.62.53,2.33.76.09.05.16.07.25.09,4.25,1.55,8.58,2.95,12.76,4.66,3.39,1.41,6.85,1.85,10.29,1.73.23.02.44,0,.67,0,.49-.02.95-.07,1.41-.12,1.02-.07,2.01-.18,3-.35,1.96-.28,3.9-.81,5.88-1.08.09-.02.16-.02.25-.05.18-.02.39-.05.6-.07,1.08-.12,2.22-.16,3.28.05,2.4.53,3.12,2.56,1.78,4.75Zm-4.64-10.57c-3.51-.18-6.97-.16-10.45-.35v-.07c-4.59-.25-9.11-.92-13.52-2.84-2.65-1.18-5.26-2.49-7.75-4.04-2.31-1.48-2.84-3.51-1.94-5.72.53-1.29,1.43-2.22,2.58-2.58h.07c3.9.95,7.71,2.15,11.58,3.07,2.31.55,4.64,1.02,6.95,1.41,5.38.9,10.78,1.36,16.24,1.38.51.02,1.02.07,1.78.12.14,1.04.35,1.85.35,2.65.09,4.36-1.89,7.18-5.88,6.97Zm5.91-16.64c-.02.25-.07.55-.18.85-1.09-.07-2.15-.14-3.23-.18-.21-.02-.44-.05-.65-.05-1.73-.12-3.44-.23-5.15-.48-2.72-.39-5.45-1.08-8.17-1.55,0-.09,0,.09,0,0-2.61-.48-5.24-.97-7.85-1.43-1.45-.25-2.72-.9-3.12-2.65-.39-1.75.25-3.23,1.27-4.5.23-.3.48-.53.76-.69h.02c2.24,1.11,4.52,1.94,6.88,2.61,3.83,1.08,7.73,1.73,11.65,2.45,2.01.35,3.99,1.27,5.81,2.24,1.18.62,2.1,1.64,1.94,3.3v.09Zm-3.42-18.74c.07,4.2,1.18,5.42,2.47,6.3-.05.09-.07.16-.12.25-.16.39-.37.78-.55,1.15-1.11,1.98-2.95,3.23-5.19,2.91-3.16-.44-6.28-1.13-9.41-1.89-.58-.16-1.2-1.02-1.43-1.68-1.34-4.13-.44-7.89,2.22-11.15,1.41-1.71,3.42-2.01,5.47-1.92,2.72.18,5.33.74,7.61,2.38,1.55,1.11,2.54,2.54,2.72,4.29-1.22-.07-2.47-1.18-3.78-.65Zm23.4-4.68c2.35-1.04,4.85-1.52,7.38-1.29,2.12.18,3.78,1.18,4.89,3.14,1.25,2.17,1.92,4.45,1.75,6.83,0,.02-.02.05,0,.07-.05.72-.14,1.43-.35,2.15-.02.02-.02.05-.02.07-.05.18-.09.35-.16.53-.21.69-.76,1.59-1.34,1.78-2.88.9-5.84,1.59-8.77,2.35-3.25-.05-5.35-1.59-6.62-4.57-.09-.18-.16-.37-.23-.55-.05-.12-.09-.21-.11-.32.39-.39.76-.78,1.13-1.22.74-.92,1.06-2.54.46-4.55-.78-.02-1.55.32-2.33.58.39-2.19,1.82-3.88,4.31-4.98Zm-4.13,23.05c-.09-1.48.74-2.49,1.94-3.12,1.75-.92,3.67-1.66,5.56-2.12,2.35-.6,4.85-.62,7.18-1.27,1.41-.39,2.77-.81,4.13-1.27,2.26-.74,4.5-1.52,6.74-2.33.25-.09.48-.18.71-.23h.02c.85.35,1.5,1.2,1.98,2.7.78,2.31.02,4.2-2.05,5.01-.46.18-.95.28-1.43.37-2.65.46-5.33.92-7.98,1.38,0,.07.02-.07,0,0-2.54.39-5.08,1.02-7.59,1.41-2.12.3-4.25.44-6.37.55-.18.02-.39.02-.58.05-.12,0-.21.02-.32.02-.58.05-1.18-.07-1.75-.09-.09-.32-.14-.62-.18-.92v-.14Zm.18,7.59c5.12-.42,9.71-.72,14.28-1.18,1.08-.12,2.19-.25,3.3-.44,5.49-.81,10.89-2.24,16.24-3.78.95-.28,1.89-.58,2.84-.76h.02c1.34.37,2.4,1.43,2.88,2.91.6,1.92.14,3.6-1.55,4.98-.99.81-2.05,1.52-3.16,2.1-6.09,3.18-12.48,5.03-19.24,5.17v.05c-2.19.05-4.38.25-6.6.37-1.29.05-2.61.18-3.88,0-3.16-.42-4.64-1.89-5.12-5.19-.21-1.38-.02-2.84-.02-4.22Zm3.07,15.21c.85-.14,1.75-.12,2.63-.02.28.02.55.05.83.09.23.02.44.05.65.07,2.72.35,5.42.81,8.15,1.15.44.05.9.12,1.34.16.44.07.92.12,1.36.16.32.02.6.07.92.09h.21c2.38.09,4.75-.28,7.06-1.11,4.8-1.75,9.67-3.51,14.49-5.24.21-.07.39-.14.6-.21.69-.25,1.43-.46,2.22-.74.44.53.69.78.88,1.06.67,1.02,1.15,1.87,1.43,2.63v.02c.9,2.26.02,3.65-2.93,5.77-.58.42-1.18.81-1.75,1.2-4.96,3.28-10.29,5.63-16.18,6.32-1.48.16-3,.25-4.52.21h-.09c-1.15-.02-2.28-.14-3.39-.32-.05,0-.12-.02-.16-.05-3.69-.62-7.31-1.73-10.91-2.75-1.36-.39-2.56-1.15-3.53-2.19-.09-.09-.16-.16-.23-.25-.37-.39-.67-.78-.95-1.25-1.45-2.26-.69-4.36,1.89-4.82Zm.35,44.47c-.58-.58-1.18-1.15-1.73-1.75-.21-.18-.42-.39-.6-.58,0-.62-.07-1.25-.18-1.89-.02-.21-.07-.44-.12-.65.14-.16.3-.3.46-.39.51-.39,1.15-.46,1.82-.07.9.53,1.8,1.11,2.56,1.85,2.86,2.75,5.68,5.58,8.49,8.4,4.59,4.57,9.67,8.26,16.01,9.58,2.45.51,4.8.35,7.13-.58,5.77-2.22,10.94-5.42,15.76-9.37.88-.74,1.75-1.43,3.14-2.56-.05,7.36-2.26,13.04-7.52,17.08-2.1,1.62-4.43,2.82-6.76,4.06-2.45,1.29-4.96,1.41-7.55.3-1.98-.85-4.08-1.41-6.12-2.26-5.15-2.15-9.46-5.63-13.41-9.62-3.83-3.83-7.59-7.68-11.4-11.54Zm42.3,63.43c-3.14-.05-6.67-2.54-7.43-5.49,1.06.07,2.12-.12,3,.21,3.67,1.27,7.15.67,10.57-.92.28-.14.58-.21,1.02-.35-1.2,4.08-4.04,6.62-7.15,6.55Zm9.85-19.52c-.55,1.13-1.13,2.24-1.78,3.32-1.73,2.98-4.29,4.61-7.57,5.21-2.93.55-5.81.69-8.74,0-3.65-.85-6.55-3.46-8.24-7.68,9.65,5.88,18.41,5.51,26.67-2.42-.11.53-.14,1.08-.35,1.57Zm3.23-19.2c-2.24,6.67-6.11,11.91-12.34,15.11-4.98,2.56-9.88,2.38-14.77-.12-3.55-1.85-6.48-4.57-8.93-7.8-2.56-3.42-5.01-6.97-7.41-10.52-.51-.74-.69-1.73-1.04-2.63.16-.12.35-.23.48-.37,2.54,1.98,5.12,3.92,7.59,5.98,5.01,4.13,10.45,7.13,16.98,7.34,3.65.14,6.92-1.06,9.51-3.72,2.72-2.79,5.24-5.79,7.82-8.72.62-.72,1.2-1.45,2.1-2.56.62,3.07.83,5.58,0,8.01Z"/><path class="cls-2" d="m125.01,837.35c-.26,1.02-.62,2.09-.81,3.2-.37,2.15-.81,4.32-.88,6.49-.05,1.49.02,2.86-.95,3.42.2,1.17.7,2.18.39,2.74-.71,1.32-.5,2.54-.34,3.88.11.86-.11,1.75-.19,2.75-1.44-.19-2.5-.32-4.05-.52,1.1.92,1.93,1.34,2.35,2.02.55.89-.59,1.44-.8,2.12-.94,2.97-1.58,6.04-2.28,9.08-.35,1.52-1.12,2.37-2.98,2.09.17-2.04-.31-3.98.51-6.08.68-1.74.39-3.85.51-5.8.02-.36-.18-.99-.05-1.06,2.01-1.1,1.13-3.57,2.45-5.05.61-.68.58-1.92.82-2.92.29-1.18,1.13-2.7.69-3.48-.8-1.4-.13-2.34.12-3.49.55-2.61,1.17-5.21,1.53-7.84.39-2.93,1.22-3.36,3.96-1.53Z"/><path class="cls-2" d="m107.09,859.43c1.35,1.06,3.02.81,4.54,1.15.68.15,1.6.42,1.88.92.47.84-.58,1.13-1.04,1.68-.89,1.04-1.56,2.3-2.17,3.54-.64,1.29-1.12,2.67-1.93,3.93-.87-1.52-1.05-2.87-.06-4.37.82-1.23,1.68-2.57,1.18-4.4-1.4,0-2.29.57-2.78,1.86-.57,1.49-1.17,2.98-1.8,4.45-.13.31-.44.55-.87,1.06-.61-1.52-.74-2.74.02-3.9,1.08-1.65,1.73-3.37,1.14-5.45.77-.16,1.38-.29,1.99-.42,0,0-.12-.05-.12-.05Z"/><path class="cls-2" d="m103.22,858.87c.21-.61.31-1.29.65-1.82,1.39-2.14,2.82-4.25,4.3-6.33.3-.42.87-.65,1.42-1.05.39.52.69.93,1.06,1.43.44-.38.84-.74,1.26-1.09,0,0-.08-.04-.08-.04,1.45.93,1.1,2,.19,3.06-1.3,1.51-2.48,3.04-2.75,5.13-.15,1.21-1.21,1.26-2.19,1.27,0,0,.12.05.11.05-.27-.57-.53-1.14-.66-1.42-1.23.28-2.33.53-3.44.78,0,0,.1.03.1.03Z"/><path class="cls-2" d="m114.43,847.43c.43-1.1,1.04-2.17,1.26-3.31.38-1.96.53-3.96.79-6.1l3.31-1.05c-.25,1.06-.47,1.83-.61,2.61-.45,2.54-.88,5.08-1.31,7.62-.13.75-.14,1.55-.43,2.23-.19.44-.79.94-1.22.96-.43.02-1.1-.43-1.29-.85-.31-.67-.31-1.47-.45-2.22,0,0-.04.1-.04.1Z"/><path class="cls-2" d="m114.48,847.32c-.18.52-.38,1.03-.53,1.56-.32,1.12-1.02,1.45-2.11,1.09,0,0,.08.04.07.04.15-1.65.3-3.29.45-4.93-.1-.02-.2-.03-.3-.05-.48,1.06-.95,2.12-1.43,3.18-.76-2.24.41-4.04.82-6.17,1.18-.21,2.34-.43,3.53-.64-.21,2.18-.39,4.11-.57,6.04,0,0,.05-.11.05-.11Z"/><path class="cls-2" d="m113.03,859.81c-1.38-.18-1.96-.77-1.55-1.78.82-2,1.71-3.98,2.76-5.87.24-.43,1.22-.44,2.21-.75-.5,3.36-2.02,5.81-3.42,8.4Z"/><path class="cls-2" d="m114.88,835.76c.68.19,1.37.38,2.09.58-.94,1.47-1.83,2.85-2.79,4.33-1.3.18-1.65-.78-1.87-1.84-.21-.99.35-1.59,1.14-2.06.52-.31,1.01-.68,1.5-1.02-.01,0-.07,0-.07,0Z"/><path class="cls-2" d="m103.11,858.84c.45.3.9.6,1.27.85-1.1,1.97-2.09,3.76-3.09,5.55-.15-.04-.29-.08-.44-.11,0-.52-.11-1.07.02-1.55.35-1.35.74-2.69,1.24-3.98.13-.33.74-.48,1.12-.71-.01,0-.11-.04-.11-.04Z"/><path class="cls-2" d="m175.67,149.73c-1.55,1.02-3.42,1.82-5.24,2.12-3.37.55-6.83.97-10.25.92-7.13-.09-14.05,1.29-20.97,2.7-2.82.58-5.61,1.2-8.42,1.71-3.81.69-7.34,2.05-10.61,4.2-.46-.6-.78-1.02-1.29-1.66-.35,1.22-.62,2.28-.95,3.51,2.47,1.27,5.08,1.15,7.59,1.36,0,0-.23,2.4-1.87,2.91-.16.05-.35.07-.51.09-.62.12-1.25.21-1.87.16-1.22-.09-2.42-.51-3.6-.88-3.09-.95-6.02-.72-8.86.88-.83.46-1.75.9-2.65.97-.74.05-1.85-.28-2.19-.81-.35-.55-.16-1.71.21-2.35.51-.88,1.34-1.62,2.17-2.24,2.12-1.64,4.31-3.14,6.46-4.73,1.34-.99,2.82-1.11,4.64-.67-.16-.55-.25-.95-.39-1.38.18-.16.37-.39.62-.48,9.69-3.67,19.54-6.51,30.02-6.88,4.68-.16,9.32-.76,14.01-.99,4.73-.23,8.63-2.12,11.98-5.38,1.13-1.08,2.38-2.05,3.62-3.09,1.98,3.35,1.2,8.17-1.64,10.01Z"/><path class="cls-2" d="m99.34,319c-2.41-.14-3.93-1.76-5.54-3.26-1.09-1.01-2.22-1.98-3.37-3.01-.79.69-1.29,1.13-1.78,1.56-2.49,2.17-5.14,2.35-7.85.45-2.19-1.53-3.6-3.67-4.48-6.16-.63-1.8-.17-3.43,1.21-4.71,1.33-1.23,2.7-2.43,4.16-3.51,3.69-2.73,6.16-6.28,7.18-10.73,1.4-6.14,2.66-12.31,3.92-18.49,2.21-10.79,3.13-21.74,4.06-32.69.97-11.43,1.86-22.86,2.55-34.3.3-5.04-.13-10.12.05-15.18.17-4.95.58-9.9,1.12-14.83.25-2.26,1.56-3.17,4.03-3.22,1.32-.02,2.23-.35,3.23-1.32,2.39-2.32,5.37-2.76,8.51-1.75,6.84,2.22,10.09,8.17,8.23,15.14-.92,3.43-2.6,6.24-6.01,7.93-3.04,1.5-5.07,4.05-5.63,7.51-1.37,8.48-2.93,16.94-4,25.46-1.67,13.27-3.1,26.57-4.44,39.88-.95,9.41-1.55,18.86-2.42,28.28-.41,4.39.62,8.31,2.94,12,1.02,1.61,1.91,3.31,2.71,5.04.8,1.73.76,3.5-.36,5.28-.4-.06-.77-.06-1.1-.17-2.09-.68-2.25-.6-3.6,1.05-1.07,1.31-2.26,2.53-3.4,3.8l.09-.06Z"/><g class="cls-5"><path class="cls-1" d="m47.28,414.95c-.12.25-.23.48-.32.74.02-.12.05-.23.05-.37,0-.12.12-.25.28-.37Z"/><path class="cls-1" d="m46.4,429.49s-.05.01-.06,0h0s.03.01.03.02c.02,0,.02-.02.03-.03Z"/><path class="cls-1" d="m46.37,429.52s.03,0,.04.01l.04-.06s-.03,0-.06.03c-.03,0-.05.01-.06,0h0s.03.01.03.02Z"/><path class="cls-1" d="m33.1,450.49c-.66,3.27-2.55,5.91-4.52,8.49-.72.94-1.37,1.86-1.04,3.22-.31.08-.61.18-.91.24-.33.07-.66.11-1.12.18-.28,1.71-.25,3.42-.9,4.9-.6,1.4-1.89,2.53-3.13,4.09.82.54,1.5,1.08,2.24,1.46.82.41,1.5.03,1.9-.94.35-.89.55-1.84,1-2.67.67-1.22,1.35-2.56,2.33-3.47s.66-2.28,1.35-2.84c.86-.69,1.55-1.25,1.78-2.37.54-2.68,1.99-4.86,3.86-6.86,1.07-1.14,2.44-2.24,1.97-4.25,2.12-.37,2.87-1.97,3.44-3.93,1.68-5.75,3.96-9.05,8.87-12.92-.13.85-.12,1.52-.34,2.13-1.14,3.35-2.69,6.49-4.96,9.29-.7.86-1.28,1.89-1.7,2.92-.54,1.39-.06,2.52.94,3.3,1.41,1.11,3.06.48,3.23-1.5.27-3.12,1.86-5.72,3.2-8.42.88-1.78,2.11-3.4,3.21-5.07.63-.96,1.48-1.91.89-3.03-.58-1.12-1.61-1.87-2.9-1.46-1.02.32-1.45-.15-2.16-.52-.97-.52-2.14-.65-3.23-.94-.68.97-1.67,1.91-1.94,2.95-1.13,4.33-3.89,7.61-6.67,10.85-1.9,2.21-2.09,2.43-2.06,5.1-1.52-.35-2.33.55-2.64,2.06Z"/><path class="cls-1" d="m101.3,322.56c-.95-.05-1.89-.05-2.84-.05-1.71.58-2.88-.18-3.81-1.57-.85-1.32-2.03-1.66-3.48-1.36-.72.16-1.41.35-2.12.51-.51-1.11-.23-3.02-2.03-2.61-2.19.51-4.06-.16-6.09-.74-1.89-.53-2.65.28-2.35,2.26.07.48.18.95.39,1.38.81,1.94.9,3.97.25,5.91-1.27,3.9-2.35,7.89-4.2,11.54-7.22,14.21-12.39,29.14-16.38,44.53-1.71,6.55-3.81,13.01-6.02,19.41-1.59,4.48-3.55,8.79-5.33,13.18-.12.25-.23.48-.32.74-.05.44-.21.83-.44,1.2,0,0,0,.02-.02.05-.49.83-1.25,1.52-1.66,2.42-.62,1.34-1.31,2.56-.35,4.34-.85-.25-1.25-.44-1.66-.51-1.38-.23-2.22.09-2.63,1.64-.88,3.23-2.86,5.81-4.31,8.7-1.36,2.75-3.16,4.94-5.47,6.78-2.12,1.71-2.12,1.89-1.34,4.66-.69-.21-1.27-.37-2.19-.65-.46,1.08-1.13,2.12-1.34,3.23-.62,3.05-1.62,5.84-3.85,8.12-.39.42-.46,1.2-.62,1.8-.09.23,0,.72-.07.74-2.17.76-1.66,2.65-1.98,4.22-.16.72-.48,1.45-.9,2.08-1.66,2.56-2.63,5.35-3.3,8.26-.21.9-.28,1.78.78,1.85.88.05,1.59-.53,1.59-1.52-.02-1.27.72-1.96,1.34-2.93.78-1.25,1.82-2.56,1.82-4.32,0-.74.58-1.59,1.02-2.31.83-1.32,2.4-2.22,2.26-4.11,2.52-1.38,2.08-4.22,3.14-6.3.67-1.32,1.71-2.49,2.72-3.55,1.04-1.04,2.1-1.94,1.82-3.67,2.24-.07,3.11-1.71,3.65-3.67,1.27-4.64,3.53-8.63,7.15-11.77.81-.69,1.68-1.27,2.54-1.92.71-.9,1.34-1.8,1.34-2.7,0-.44-.14-.85-.51-1.29,1.06-.9,2.33-1.52,2.84-2.56.18-.35.21-.78.18-1.25l.12-.02h.02s.12-.02.18-.02l.65-.09.72-.09c.09,0,.16-.02.25-.05l.53-.07,1.89-.25.67-.09h.09c-.42.35-.81.92-1.29,1.78-.6,1.08-1.27,2.12-1.96,3.16-1.36,2.01-1.22,3.35.48,4.25,1.59.83,3.25.14,4.15-1.78.48-.99.88-2.03,1.31-3.05.18.07.35.14.51.21-.65,1.5-1.32,3-2.03,4.61,1.73.07,1.48,2.26,2.84,2.7l-.12.02c2.93.28,3.07.16,3.99-3.35,2.33-.67,3.35-1.82,3.9-4.43.02-.18.07-.35.09-.51,1.45.65,1.89.32,2.75-1.55.51-1.11.76-2.35,1.15-3.51.92-2.61,1.75-5.24,2.77-7.8,3.44-8.91,7.27-17.68,10.36-26.67,2.52-7.31,4.11-14.93,6.28-22.34,2.31-7.89,4.8-15.74,7.29-23.56,1.31-4.11,2.84-8.12,5.7-11.47.49-.55.83-1.32,1.06-2.01.46-1.52,0-2.17-1.57-2.24Zm-40.94,102.5c-.11-1.68.76-2.35,1.32-3.12.35-.46.58-.92.67-1.36.28.46.55.88.81,1.32-.83.97-1.73,1.94-2.79,3.16Zm27.83-102.43c-1.82,1.73-2.03,3.9-2.05,6.25-.07,3.58-.69,6.95-2.72,10.11-1.13,1.75-1.43,4.13-1.8,6.28-.78,4.71-1.27,9.48-2.1,14.17-1.59,8.84-2.93,17.77-5.15,26.44-2.4,9.44-5.98,18.53-10.38,27.25-.74,1.45-1.43,2.91-2.17,4.34-.14-.02-.28-.05-.39-.09.58-4.73.99-9.48,1.75-14.17,1.43-8.79,3.07-17.51,4.61-26.28,1.57-8.84,4.96-17.01,8.81-25.06,2.33-4.91,4.43-9.92,6.69-14.88,1.18-2.56,1.75-5.21,1.98-8.01.21-2.56.42-5.19,2.84-6.88.05.16.14.46.07.53Z"/><path class="cls-1" d="m14.84,431.88c2.08-1.52,3.76-2.86,5.53-4.01.74-.48,1.7-.66,2.55-.78,1.29-.17,2.7.16,3.26-1.78.03-.09.09-.25.11-.25,2.41.27,3.41-2.34,5.23-3.32,2.08-1.12,4.09-2.21,6.33-1.6.37.1.84-.08,1.36-.14.73-1.62.55-3.14.45-4.61-.09-1.3-.76-1.63-1.98-1.12-.67.28-1.3.71-1.92,1.13-2.54,1.7-5.16,2.95-8.06,3.01-1.18.02-2.08.63-3.05,1.58-2.27,2.24-4.72,4.28-7.14,6.33-.55.46-1.3.65-1.98.9-2.01.75-2.49,1.7-1.64,3.46.25.51.71.88.96,1.18Z"/><path class="cls-1" d="m59.66,432.9c-1.41.1-2.24.68-2.5,2.35-.65,4.18-2.32,8.01-5.39,11.3-1.31,1.4-1.43,2.15-1.2,4.47-1.08-.12-1.87.28-2.06,1.55-.12.82-.14,1.69-.48,2.43-.53,1.16-1.14,2.39-2,3.3-1.51,1.6-1.6,1.51-.52,3.16-.59-.18-1.19-.35-1.87-.55-.35,1.04-.57,1.93-.95,2.77-.39.85-.94,1.64-1.52,2.61.75.59,1.47,1.14,2.21,1.72.98-1.73,1.88-3.21,2.66-4.74.39-.77.69-1.37,1.62-1.7.48-.17.89-1.14,1.17-1.8.83-2.01,1.91-3.82,3.23-5.63,1.62-2.23,3.47-4.36,3.81-7.45.34-3.17,2.25-6.13,4.31-8.81,2.31-3.01,2.3-3.33-.63-4.97,0,0,.11,0,.11,0Z"/><path class="cls-1" d="m36.09,464.31c1.55,1.1,3.2.9,3.72-1.87.54-2.92,1.92-5.44,4.21-7.53,1.89-1.73,1.74-2.5-.36-3.43-3.04-1.35-3.62-1.05-4.07,2.56-.32,2.54-1.22,4.58-3.2,6.37-1.93,1.74-1.89,2.83-.29,3.9Z"/><path class="cls-1" d="m29.1,474.13c-.39.38-1,.72-1.18,1.19-.46,1.21-.7,2.48-1.09,3.71-.28.88-.45,1.79.41,2.09,1.04.37,1.71-.49,1.86-1.5.23-1.55,1.11-2.5,2.23-3.45.6-.51,1.21-1.28,1.44-2.02.75-2.46,1.52-4.85,3.66-6.58.3-.24.38-.82.62-1.37-1.13-.98-2.06-2.17-4.17-1.59.08,2.83-1.21,5.15-3.17,7.25-.44.47-.41,1.44-.62,2.26Z"/><path class="cls-1" d="m24.57,475.03c-.95-1.64-2.29-1.57-3.51-1.77-.62,1.87-1.2,3.59-1.76,5.31-.28.86-.37,1.74.52,2.02.99.31,1.73-.38,1.93-1.4.34-1.71.9-3.21,2.82-4.16Z"/><path class="cls-1" d="m42.96,420.49c1.53-1.42,1.34-3.33,1.95-5.18-1.37-.3-2.52-.35-3.37.99-.63.99.03,2.82,1.43,4.19Z"/><path class="cls-1" d="m40.62,467.07c-.8,1.62-1.27,2.72-1.87,3.75-.49.84-.74,1.62.1,2.06.75.4,1.24-.27,1.72-.93.74-1.03,1.55-2.01,2.54-3.28-.84-.54-1.65-1.06-2.48-1.6Z"/></g><path class="cls-2" d="m308.32,308.58c-.88,2.49-2.28,4.64-4.48,6.16-2.72,1.89-5.35,1.73-7.85-.46-.51-.42-.99-.85-1.8-1.55-1.13,1.02-2.26,1.98-3.35,3-1.62,1.5-3.12,3.12-5.52,3.28-1.11-1.25-2.28-2.45-3.35-3.74-1.34-1.66-1.5-1.75-3.6-1.06-.35.12-.72.12-1.11.16-1.13-1.78-1.15-3.53-.37-5.26.81-1.73,1.71-3.44,2.72-5.05,2.33-3.67,3.35-7.61,2.95-12-.88-9.41-1.48-18.85-2.42-28.27-1.36-13.31-2.79-26.61-4.45-39.87-1.06-8.51-2.63-16.98-3.99-25.47-.58-3.46-2.61-6-5.63-7.5-3.42-1.68-5.1-4.5-6.02-7.94-1.87-6.97,1.38-12.92,8.24-15.14,3.14-1.02,6.11-.58,8.51,1.75.99.95,1.89,1.29,3.23,1.32,2.45.05,3.76.95,4.02,3.21.55,4.94.95,9.88,1.13,14.84.16,5.05-.25,10.13.05,15.18.69,11.45,1.57,22.87,2.54,34.29.95,10.96,1.87,21.9,4.06,32.7,1.27,6.16,2.52,12.35,3.92,18.48,1.02,4.45,3.51,8.01,7.18,10.73,1.45,1.06,2.84,2.26,4.15,3.51,1.38,1.27,1.85,2.91,1.22,4.71Z"/><path class="cls-1" d="m285.39,319.05l-.09-.05h.05l.05.05Z"/><g class="cls-5"><path class="cls-1" d="m337.69,415.68c-.09-.25-.21-.51-.32-.76.16.14.28.28.28.39,0,.14.02.25.05.37Z"/><path class="cls-1" d="m338.25,429.49s.05.01.06,0h0s-.03.01-.03.02c-.02,0-.02-.02-.03-.03Z"/><path class="cls-1" d="m338.28,429.52s-.03,0-.04.01l-.04-.06s.03,0,.06.03c.03,0,.05.01.06,0h0s-.03.01-.03.02Z"/><path class="cls-1" d="m351.55,450.49c.66,3.27,2.55,5.91,4.52,8.49.72.94,1.37,1.86,1.04,3.22.31.08.61.18.91.24.33.07.66.11,1.12.18.28,1.71.25,3.42.9,4.9.6,1.4,1.89,2.53,3.13,4.09-.82.54-1.5,1.08-2.24,1.46-.82.41-1.5.03-1.9-.94-.35-.89-.55-1.84-1-2.67-.67-1.22-1.35-2.56-2.33-3.47-.97-.91-.66-2.28-1.35-2.84-.86-.69-1.55-1.25-1.78-2.37-.54-2.68-1.99-4.86-3.86-6.86-1.07-1.14-2.44-2.24-1.97-4.25-2.12-.37-2.87-1.97-3.44-3.93-1.68-5.75-3.96-9.05-8.87-12.92.13.85.12,1.52.34,2.13,1.14,3.35,2.69,6.49,4.96,9.29.7.86,1.28,1.89,1.7,2.92.54,1.39.06,2.52-.94,3.3-1.41,1.11-3.06.48-3.23-1.5-.27-3.12-1.86-5.72-3.2-8.42-.88-1.78-2.11-3.4-3.21-5.07-.63-.96-1.48-1.91-.89-3.03.58-1.12,1.61-1.87,2.9-1.46,1.02.32,1.45-.15,2.16-.52.97-.52,2.14-.65,3.23-.94.68.97,1.67,1.91,1.94,2.95,1.13,4.33,3.89,7.61,6.67,10.85,1.9,2.21,2.09,2.43,2.06,5.1,1.52-.35,2.33.55,2.64,2.06Z"/><path class="cls-1" d="m369.86,472.77c-.67-2.91-1.66-5.7-3.32-8.26-.39-.62-.74-1.36-.9-2.08-.32-1.57.18-3.46-1.96-4.22-.07-.02,0-.51-.07-.74-.18-.6-.25-1.38-.65-1.8-2.24-2.28-3.21-5.08-3.83-8.12-.23-1.11-.9-2.15-1.34-3.23-.92.28-1.5.44-2.19.65.76-2.77.78-2.95-1.36-4.66-2.31-1.85-4.11-4.04-5.47-6.78-1.43-2.88-3.44-5.47-4.29-8.7-.42-1.55-1.27-1.87-2.65-1.64-.42.07-.81.25-1.66.51.97-1.78.28-3-.35-4.34-.39-.85-1.11-1.55-1.62-2.33,0-.02-.02-.02-.02-.02-.23-.39-.42-.83-.48-1.32-.09-.25-.21-.51-.32-.76-1.78-4.36-3.74-8.68-5.31-13.15-2.24-6.39-4.34-12.85-6.05-19.41-3.97-15.39-9.16-30.32-16.36-44.53-1.85-3.65-2.95-7.64-4.22-11.54-.62-1.94-.53-3.97.28-5.91.18-.44.32-.9.39-1.38.28-1.98-.46-2.79-2.38-2.26-2.01.58-3.88,1.25-6.09.74-1.8-.42-1.52,1.5-2.03,2.61-.69-.16-1.41-.35-2.12-.51-1.43-.3-2.63.05-3.48,1.36-.9,1.38-2.1,2.15-3.78,1.57-.95,0-1.89,0-2.84.05-1.57.07-2.05.72-1.57,2.24.23.69.58,1.45,1.04,2.01,2.88,3.35,4.41,7.36,5.7,11.47,2.49,7.82,4.98,15.67,7.29,23.56,2.19,7.41,3.76,15.02,6.28,22.34,3.12,9,6.92,17.77,10.38,26.67.99,2.56,1.85,5.19,2.75,7.8.39,1.15.65,2.4,1.15,3.51.83,1.87,1.29,2.19,2.75,1.55.02.16.07.32.09.51.55,2.61,1.57,3.76,3.9,4.43.95,3.51,1.06,3.62,3.99,3.35l-.09-.02c1.34-.44,1.08-2.63,2.82-2.7-.72-1.62-1.36-3.12-2.03-4.61.16-.07.35-.14.51-.21.44,1.02.85,2.05,1.32,3.05.92,1.92,2.58,2.61,4.18,1.78,1.71-.9,1.82-2.24.46-4.25-.69-1.04-1.36-2.08-1.96-3.16-.48-.85-.88-1.43-1.29-1.78h.09l.67.09,1.92.25.51.07c.09.02.16.05.25.05l.72.09.67.09c.07,0,.14.02.18.02h.02l.09.02c-.02.46,0,.9.18,1.25.51,1.04,1.8,1.66,2.84,2.56-.35.42-.48.85-.48,1.29,0,.88.6,1.8,1.34,2.7h-.05c.88.65,1.75,1.22,2.56,1.92,3.62,3.14,5.88,7.13,7.15,11.77.55,1.96,1.41,3.6,3.67,3.67-.3,1.73.78,2.63,1.8,3.67,1.04,1.06,2.05,2.24,2.72,3.55,1.06,2.08.62,4.91,3.16,6.3-.14,1.89,1.43,2.79,2.24,4.11.46.72,1.02,1.57,1.02,2.31,0,1.75,1.04,3.07,1.85,4.32.6.97,1.34,1.66,1.32,2.93,0,.99.72,1.57,1.62,1.52,1.04-.07.99-.95.78-1.85Zm-59.58-86.9c-2.19-8.68-3.55-17.61-5.15-26.44-.83-4.68-1.29-9.46-2.1-14.17-.37-2.15-.67-4.52-1.8-6.28-2.03-3.16-2.65-6.53-2.7-10.11-.05-2.35-.25-4.52-2.08-6.25-.07-.07.05-.37.07-.53,2.42,1.68,2.65,4.32,2.86,6.88.21,2.79.81,5.45,1.98,8.01,2.26,4.96,4.34,9.97,6.69,14.88,3.83,8.05,7.25,16.22,8.81,25.06,1.52,8.77,3.16,17.49,4.59,26.28.76,4.68,1.2,9.44,1.78,14.17-.14.05-.28.07-.42.09-.72-1.43-1.43-2.88-2.17-4.34-4.41-8.72-7.96-17.81-10.38-27.25Zm11.21,36.02c.28-.44.53-.85.81-1.32.09.44.35.88.69,1.36.55.76,1.41,1.43,1.29,3.12-1.06-1.22-1.96-2.19-2.79-3.16Zm6.65-1.62c-.28.16-.53.35-.88.55-.07-.16-.16-.3-.21-.44.55-.16,1.11-.32,1.64-.39-.18.09-.35.18-.55.28Z"/><path class="cls-1" d="m369.81,431.88c-2.08-1.52-3.76-2.86-5.53-4.01-.74-.48-1.7-.66-2.55-.78-1.29-.17-2.7.16-3.26-1.78-.03-.09-.09-.25-.11-.25-2.41.27-3.41-2.34-5.23-3.32-2.08-1.12-4.09-2.21-6.33-1.6-.37.1-.84-.08-1.36-.14-.73-1.62-.55-3.14-.45-4.61.09-1.3.76-1.63,1.98-1.12.67.28,1.3.71,1.92,1.13,2.54,1.7,5.16,2.95,8.06,3.01,1.18.02,2.08.63,3.05,1.58,2.27,2.24,4.72,4.28,7.14,6.33.55.46,1.3.65,1.98.9,2.01.75,2.49,1.7,1.64,3.46-.25.51-.71.88-.96,1.18Z"/><path class="cls-1" d="m324.99,432.9c1.41.1,2.24.68,2.5,2.35.65,4.18,2.32,8.01,5.39,11.3,1.31,1.4,1.43,2.15,1.2,4.47,1.08-.12,1.87.28,2.06,1.55.12.82.14,1.69.48,2.43.53,1.16,1.14,2.39,2,3.3,1.51,1.6,1.6,1.51.52,3.16.59-.18,1.19-.35,1.87-.55.35,1.04.57,1.93.95,2.77.39.85.94,1.64,1.52,2.61l-2.21,1.72c-.98-1.73-1.88-3.21-2.66-4.74-.39-.77-.69-1.37-1.62-1.7-.48-.17-.89-1.14-1.17-1.8-.83-2.01-1.91-3.82-3.23-5.63-1.62-2.23-3.47-4.36-3.81-7.45-.34-3.17-2.25-6.13-4.31-8.81-2.31-3.01-2.3-3.33.63-4.97,0,0-.11,0-.11,0Z"/><path class="cls-1" d="m348.56,464.31c-1.55,1.1-3.2.9-3.72-1.87-.54-2.92-1.92-5.44-4.21-7.53-1.89-1.73-1.74-2.5.36-3.43,3.04-1.35,3.62-1.05,4.07,2.56.32,2.54,1.22,4.58,3.2,6.37,1.93,1.74,1.89,2.83.29,3.9Z"/><path class="cls-1" d="m355.55,474.13c.39.38,1,.72,1.18,1.19.46,1.21.7,2.48,1.09,3.71.28.88.45,1.79-.41,2.09-1.04.37-1.71-.49-1.86-1.5-.23-1.55-1.11-2.5-2.23-3.45-.6-.51-1.21-1.28-1.44-2.02-.75-2.46-1.52-4.85-3.66-6.58-.3-.24-.38-.82-.62-1.37,1.13-.98,2.06-2.17,4.17-1.59-.08,2.83,1.21,5.15,3.17,7.25.44.47.41,1.44.62,2.26Z"/><path class="cls-1" d="m360.07,475.03c.95-1.64,2.29-1.57,3.51-1.77.62,1.87,1.2,3.59,1.76,5.31.28.86.37,1.74-.52,2.02-.99.31-1.73-.38-1.93-1.4-.34-1.71-.9-3.21-2.82-4.16Z"/><path class="cls-1" d="m341.69,420.49c-1.53-1.42-1.34-3.33-1.95-5.18,1.37-.3,2.52-.35,3.37.99.63.99-.03,2.82-1.43,4.19Z"/><path class="cls-1" d="m344.03,467.07c.8,1.62,1.27,2.72,1.87,3.75.49.84.74,1.62-.1,2.06-.75.4-1.24-.27-1.72-.93-.74-1.03-1.55-2.01-2.54-3.28.84-.54,1.65-1.06,2.48-1.6Z"/></g><path class="cls-2" d="m264.27,659.79c-.62,2.68-1.27,5.47-1.15,8.17.37,9.07,1.13,18.09,1.66,27.14.37,6.37.97,12.76.88,19.13-.16,9.85-.85,19.73-1.32,29.61-.39,8.63-.67,17.28-1.22,25.91-.48,7.29-1.41,14.54-1.94,21.83-.46,6.62-.12,13.15,3,19.29.81,1.59,1.11,3.51,1.38,5.33.32,2.26-.37,4.06-2.77,4.41.51,2.08,1.06,3.95,1.38,5.86.16.88.05,1.85-.16,2.72-.35,1.34-1.2,1.89-2.54,1.22-.48-.23-.92-.51-1.36-.74-1.43-1.36-3.05-2.05-4.98-1.22-.67.53-1.27,1.11-1.94,1.64.74.25,1.5.39,2.33.46,2.35.16,4.38,1.04,6.16,2.47.83-.23,1.57-.42,2.28-.62,2.95-.85,4.45.16,4.89,3.35-2.49-.83-5.42,1.04-7.71-1.29-1.22,1.29-2.72,1.29-4.27,1.2-1.38-.09-2.82-.35-4.04.65,5.03.14,6.78,3.02,4.38,7.2-1.87-.83-3.67-2.45-6.23-.69,1.22.18,2.12.28,3.02.48,4.25.97,5.28,3.23,3.28,7.04-.92,1.73-1.38,3.48-1.08,5.49.21,1.38.95,3.07-1.06,3.95-.14.07-.02.69-.07,1.04-.07.62-.16,1.25-.25,1.92,2.79,1.59,2.84,1.87.83,4.64.23.55.53,1.13.69,1.78.25.99-.14,1.66-1.18,1.92-1.22.3-2.56-.28-3.09-1.38-.28-.6-.3-1.45-.74-1.82-1.8-1.48-1.64-3.21-.65-5.21-1.75-.35-2.86-1.13-2.61-2.93-2.4-1.71-.72-3.07.42-4.41,1.02-1.2,1.2-2.49,1.04-3.99-.18-1.68-.21-3.42-.35-5.1-.05-.51-.14-1.29-.46-1.45-1.27-.65-1.04-1.68-.92-2.72.37-3.05,1.73-5.21,5.01-5.72-1.02.05-2.03,0-3.02.16-.76.09-1.45.48-2.19.62-2.33.42-3.58-.44-3.65-2.77-.05-1.5.18-3.07.58-4.5.76-2.68,2.42-3.55,4.38-2.35,0-.05.02-.12.02-.16.37-2.05.83-4.06,1.29-6.21-.58.53-1.18,1.04-1.75,1.57-2.35,2.15-3.67,1.89-4.61-1.22-.53-1.73-.9-3.65-.72-5.42.48-4.29,1.25-8.56,2.1-12.78,1.94-9.71,3.46-19.43,2.93-29.4-.62-12.02-1.08-24.07-1.55-36.11-.48-13.15-.81-26.33-1.38-39.5-.37-8.12-.65-16.24-2.68-24.21-1.87-7.38-3.39-14.81-7.85-21.3-1.78-2.56-2.08-5.68-1.78-9.05,1.55-.16,2.93-.28,4.98-.48-3.25-1.68-4.36-4.5-5.58-7.31-2.45-5.68-2.17-11.08,1.64-16.01,2.33-3,3.74-6.37,4.57-9.99.85-3.74,1.78-7.43,2.42-11.17,4.52-25.17,6.71-50.53,6.69-76.12-.05-15.32.44-30.67.48-45.99.02-3.88-.28-7.89-1.32-11.58-.92-3.21-1.48-6.11-.37-9.3,1.36-3.81.32-7.31-1.68-10.59-1.71-2.77-3.35-3.48-6.51-2.86-1.92.39-3.78.97-5.68,1.45-2.52.6-3.99-.18-4.11-2.68-.25-4.89.28-9.69,3.09-13.94,1.62-2.38,3.74-4.08,6.65-4.66,4.08-.85,5.81.48,5.93,4.66.12,3.65,2.61,6.07,6.44,6.25,2.33-3.53,4.11-4.25,8.31-3.37,4.91,1.04,7.48,4.5,8.81,8.98,1.8,6,1.41,12.02-.44,17.95-.76,2.45-1.89,4.8-2.56,7.27-.65,2.35-1.08,4.8-1.25,7.22-.25,4.02-.21,8.03-.3,12.05-.32,12.44-.6,24.87-.99,37.34-.42,12.14-1.02,24.25-1.52,36.39-.58,14.49-1.11,28.98-1.73,43.47-.25,5.84,1.78,10.52,5.98,14.61,6.3,6.09,6.53,16.66.88,23.19l-6.55,1.8c-.67-.32-1.36-.65-2.33-1.08.46-1.11.92-2.08,1.32-3.09,1.02-2.58,2.03-5.17,2.98-7.75,2.01-5.49-3.37-12.76-10.01-12.35-6.92.42-10.98,3.62-12.39,10.94-.51,2.79.32,5.31,2.26,7.41.83.9,1.71,1.78,2.54,2.7,1.64,1.82,1.66,3.02,0,4.78-.48.48-1.11.9-1.87,1.43,2.7-.21,3.76-1.55,3.46-4.29-.18-1.57-.81-3.18-1.57-4.57-2.05-3.65-3.23-7.36-1.57-11.47.42-1.02.99-2.08,1.8-2.79,5.08-4.64,13.78-2.38,16.06,4.06.78,2.19.37,4.29-.44,6.32-.6,1.5-1.48,2.93-2.26,4.36-.53.99-1.18,1.94-1.66,2.93-.53,1.11-1.32,2.47-.28,3.44.65.62,2.01.53,3.25.21l6.69-1.22c1.25.16,2.47.3,3.83.46-.12.97-.14,1.59-.28,2.15-1.5,5.68-3.12,11.31-4.5,17.01Z"/><path class="cls-2" d="m258.79,837.35c.26,1.02.62,2.09.81,3.2.37,2.15.81,4.32.88,6.49.05,1.49-.02,2.86.95,3.42-.2,1.17-.7,2.18-.39,2.74.71,1.32.5,2.54.34,3.88-.11.86.11,1.75.19,2.75,1.44-.19,2.5-.32,4.05-.52-1.1.92-1.93,1.34-2.35,2.02-.55.89.59,1.44.8,2.12.94,2.97,1.58,6.04,2.28,9.08.35,1.52,1.12,2.37,2.98,2.09-.17-2.04.31-3.98-.51-6.08-.68-1.74-.39-3.85-.51-5.8-.02-.36.18-.99.05-1.06-2.01-1.1-1.13-3.57-2.45-5.05-.61-.68-.58-1.92-.82-2.92-.29-1.18-1.13-2.7-.69-3.48.8-1.4.13-2.34-.12-3.49-.55-2.61-1.17-5.21-1.53-7.84-.39-2.93-1.22-3.36-3.96-1.53Z"/><path class="cls-2" d="m276.72,859.43c-1.35,1.06-3.02.81-4.54,1.15-.68.15-1.6.42-1.88.92-.47.84.58,1.13,1.04,1.68.89,1.04,1.56,2.3,2.17,3.54.64,1.29,1.12,2.67,1.93,3.93.87-1.52,1.05-2.87.06-4.37-.82-1.23-1.68-2.57-1.18-4.4,1.4,0,2.29.57,2.78,1.86.57,1.49,1.17,2.98,1.8,4.45.13.31.44.55.87,1.06.61-1.52.74-2.74-.02-3.9-1.08-1.65-1.73-3.37-1.14-5.45-.77-.16-1.38-.29-1.99-.42,0,0,.12-.05.12-.05Z"/><path class="cls-2" d="m280.59,858.87c-.21-.61-.31-1.29-.65-1.82-1.39-2.14-2.82-4.25-4.3-6.33-.3-.42-.87-.65-1.42-1.05-.39.52-.69.93-1.06,1.43-.44-.38-.84-.74-1.26-1.09,0,0,.08-.04.08-.04-1.45.93-1.1,2-.19,3.06,1.3,1.51,2.48,3.04,2.75,5.13.15,1.21,1.21,1.26,2.19,1.27,0,0-.12.05-.11.05.27-.57.53-1.14.66-1.42,1.23.28,2.33.53,3.44.78,0,0-.1.03-.1.03Z"/><path class="cls-2" d="m269.37,847.43c-.43-1.1-1.04-2.17-1.26-3.31-.38-1.96-.53-3.96-.79-6.1-.99-.31-1.95-.62-3.31-1.05.25,1.06.47,1.83.61,2.61.45,2.54.88,5.08,1.31,7.62.13.75.14,1.55.43,2.23.19.44.79.94,1.22.96.43.02,1.1-.43,1.29-.85.31-.67.31-1.47.45-2.22,0,0,.04.1.04.1Z"/><path class="cls-2" d="m269.33,847.32c.18.52.38,1.03.53,1.56.32,1.12,1.02,1.45,2.11,1.09,0,0-.08.04-.07.04-.15-1.65-.3-3.29-.45-4.93.1-.02.2-.03.3-.05.48,1.06.95,2.12,1.43,3.18.76-2.24-.41-4.04-.82-6.17-1.18-.21-2.34-.43-3.53-.64.21,2.18.39,4.11.57,6.04,0,0-.05-.11-.05-.11Z"/><path class="cls-2" d="m270.78,859.81c1.38-.18,1.96-.77,1.55-1.78-.82-2-1.71-3.98-2.76-5.87-.24-.43-1.22-.44-2.21-.75.5,3.36,2.02,5.81,3.42,8.4Z"/><path class="cls-2" d="m268.92,835.76c-.68.19-1.37.38-2.09.58.94,1.47,1.83,2.85,2.79,4.33,1.3.18,1.65-.78,1.87-1.84.21-.99-.35-1.59-1.14-2.06-.52-.31-1.01-.68-1.5-1.02.01,0,.07,0,.07,0Z"/><path class="cls-2" d="m280.69,858.84c-.45.3-.9.6-1.27.85,1.1,1.97,2.09,3.76,3.09,5.55.15-.04.29-.08.44-.11,0-.52.11-1.07-.02-1.55-.35-1.35-.74-2.69-1.24-3.98-.13-.33-.74-.48-1.12-.71.01,0,.11-.04.11-.04Z"/><path class="cls-2" d="m201.28,253.01s0,.02-.02.05v-.05h.02Z"/><path class="cls-2" d="m218.52,168.56c-.05.72-.14,1.43-.35,2.15.07-.72.18-1.43.35-2.15Z"/><path class="cls-2" d="m280.29,167.91c-.35.53-1.45.85-2.19.81-.9-.07-1.85-.51-2.65-.97-2.84-1.59-5.77-1.82-8.86-.88-1.18.37-2.4.78-3.62.88-.74.05-1.5-.09-2.26-.23-.12-.02-.21-.02-.3-.07-1.55-.44-1.41-2.88-1.41-2.88,2.45-.18,4.94-.12,7.34-1.34-.32-1.22-.62-2.28-.95-3.51-.51.65-.85,1.06-1.32,1.66-3.28-2.15-6.81-3.51-10.59-4.2-2.82-.51-5.63-1.13-8.42-1.71-6.95-1.41-13.84-2.79-20.97-2.7-3.44.05-6.88-.37-10.27-.92-1.82-.3-3.67-1.11-5.24-2.12-2.84-1.85-3.62-6.67-1.62-10.01,1.22,1.04,2.49,2.01,3.6,3.09,3.37,3.25,7.27,5.15,12,5.38,4.66.23,9.32.83,14.01.99,10.45.37,20.33,3.21,30.02,6.88.23.09.42.32.6.48-.12.44-.23.83-.37,1.38,1.82-.44,3.28-.32,4.61.67,2.15,1.59,4.36,3.09,6.48,4.73.83.62,1.64,1.36,2.17,2.24.37.65.53,1.8.21,2.35Z"/><path class="cls-2" d="m186.88,97.71c-2.14.97-3.34.6-4.57-1.4-1.66.68-2.21.57-3.56-.77-1.29.81-2.89.16-3.29-1.34-.03-.12-.1-.25-.09-.37.23-2.14-.28-4.33.46-6.45.14-.4.08-1.08-.18-1.37-1.43-1.58-2.79-3.29-4.48-4.55-1.72-1.29-3.83-1.46-5.72-.08-.8.58-1.25.35-1.65-.37-.96-1.73-1.9-3.47-2.86-5.21-.64-1.16-1.24-2.34-1.96-3.44-.43-.67-.37-1.18.05-1.8,1.57-2.3,2.86-4.74,3.48-7.48.53-2.37.45-4.69-.6-6.92-.18-.38-.43-.72-.8-1.04-1.05,2.3-.4,4.7-.49,7.04-.14.09-.29.18-.43.28-.21-.35-.38-.73-.64-1.04-2.33-2.81-3.58-6.09-3.88-9.66-.35-4.17-.62-8.36-.57-12.54.08-6.19,1.27-12.21,4.12-17.77,4.08-7.96,10.6-13.12,19.06-15.7,10.56-3.23,21.03-2.82,31.12,1.84,9.27,4.29,14.79,11.75,17.22,21.56,1.55,6.27,1.71,12.64,1.04,19.04-.2,1.94-.34,3.89-.69,5.8-.5,2.76-1.66,5.27-3.5,7.43-.27.32-.61.58-1.14.76.07-1.17.2-2.34.19-3.51,0-1.16-.15-2.33-.24-3.49-.15-.03-.29-.06-.44-.09-.26.39-.58.74-.76,1.16-1.36,3.11-1.09,6.23.21,9.25.74,1.72,1.73,3.34,2.67,4.97.36.63.51,1.12.12,1.81-1.49,2.66-2.93,5.35-4.39,8.03-.15.28-.34.53-.51.79-.44.65-.88.82-1.62.29-1.9-1.37-3.96-1.21-5.71.12-1.63,1.24-3,2.85-4.44,4.33-.47.48-.46,1.06-.21,1.74.29.78.39,1.65.47,2.48.08.97.05,1.94.06,2.91.02,1.05-.17,2.03-1.2,2.59-.76.41-1.55.82-2.25-.07-1.62,1.5-1.85,1.54-3.6.72-.98,2.05-2.38,2.5-4.53,1.49-1.75,1.52-3.18,1.76-4.61.77-1.81.93-2.97.74-4.69-.75Zm23.06-27.31c.88,0,1.76.04,2.64,0,1.75-.1,3.03-.9,3.73-2.56,1.49-3.53,1.47-7.02-.15-10.49-.68-1.47-1.93-2.14-3.47-2.2-3.61-.14-7.16.28-10.61,1.35-2.54.79-4.08,2.57-4.33,5.26-.12,1.27-.11,2.58-.02,3.85.18,2.36.68,2.94,3,3.57,3.01.82,6.07,1.4,9.21,1.23Zm-36.82.15c3.37.02,6.64-.59,9.83-1.6.96-.3,1.95-.71,2.18-1.86.41-2.02.51-4.06.08-6.09-.48-2.24-1.86-3.78-4.05-4.45-3.51-1.07-7.11-1.61-10.79-1.42-1.5.08-2.78.72-3.43,2.14-1.74,3.79-1.79,7.59.23,11.32.53.97,1.38,1.55,2.48,1.68,1.15.13,2.32.19,3.47.28Zm18.17,5.68c.13,0,.26,0,.39,0,.14.33.36.64.41.98.14.87.24,1.74.31,2.62.13,1.71.64,2.14,2.35,1.92.31-.04.62-.1.93-.17.99-.22,1.34-.61,1.08-1.59-.31-1.2-.68-2.43-1.3-3.49-.79-1.34-1.43-2.7-1.87-4.19-.3-1.04-.79-2.05-1.34-2.98-.51-.86-.93-.85-1.46.02-.53.88-1.01,1.83-1.27,2.81-.41,1.58-1,3.02-1.94,4.36-.81,1.15-1.3,2.46-1.22,3.89.02.36.31.92.59.99.8.22,1.66.29,2.5.31.74.02,1.13-.43,1.16-1.19.04-.79.07-1.58.19-2.35.1-.66.31-1.3.48-1.94Z"/><path class="cls-4" d="m185.58,471.9c-2.24,19.94-3.51,39.41-6.74,58.56-6.16,36.46-13.45,72.73-20.24,109.1,0,0-21.92,16.2-55.15-1.92.18-26.56-.67-53.1-1.02-79.65-.46-37.06-2.93-74.23-.55-111.11.81-12.69,3.48-25.24,6.48-37.77,52.82,6.97,77.21,62.79,77.21,62.79Z"/></svg>