<?xml version="1.0" encoding="UTF-8"?><svg id="Lag_1" xmlns="http://www.w3.org/2000/svg" viewBox="0 0 385.45 883.09"><defs><style>.cls-1,.cls-2,.cls-3{fill:#fff;}.cls-4{fill:red;opacity:.39;}.cls-5,.cls-6,.cls-2{opacity:.22;}.cls-6,.cls-7{fill:none;}.cls-3{opacity:.15;}</style></defs><path class="cls-3" d="m385.43,440.67v.02c.02.23.02.44-.02.6-.16.93-.6,1.53-1.18,1.88-1.21.77-2.99.44-4.04-.05-5.5-2.44-11.93-2.81-16.46-8.73-.12-.12-.23-.28-.35-.42-.07.23-.14.49-.23.72-.3.93-.56,1.83-.72,2.72-.7,3.18-.6,6.06-.05,8.78.81,3.92,2.6,7.48,4.41,11.03.09.21.21.39.3.6,3.62,7.01,7.52,13.91,10.8,21.08,3.92,8.57,3.88,13.56-4.46,14.7-.77.09-1.6.16-2.46.19-1.46.02-8.91-2.9-11.56-2.28-2.28.56-3.6.72-4.95.23-.58-.23-1.3-.58-1.86-1.14l-.16-.23c-1-1.21-6.13-7.73-7.36-10.28l-14.09-19.73-.14-.23-.14-.19c-7.31-10.52-14.95-21.89-19.22-30.97-.19-.44-.37-.88-.58-1.35-.63-1.49-1.42-2.9-2.09-4.36-15.16-33.15-30.99-66.07-40.21-101.66-2.14-8.2-3.9-16.53-5.25-25.05-.07,25.28.84,50.4,4.53,75.1,1,6.73,2.39,13.44,3.92,20.13,1.49,6.5,3.09,13,4.62,19.5,3.02,12.61,5.71,25.23,6.52,38,2.39,37.1-.09,74.5-.56,111.78-.35,26.72-1.21,53.42-1.02,80.14.09,17.13,3.53,34.41,2.18,51.38-2.41,30.04-7.61,59.89-11.1,89.89-2.81,24.38-1.44,48.52,9.12,71.2,3.53,7.57,14.95,14.42,7.75,22.75-4.5,5.2-15.51,6.04-23.75,6.5-21.15,1.25-24.86-4.18-23.77-25.98,1.32-26.95-3.95-54.04,1.18-81.02.49-2.69-.86-5.76-1.44-8.61-7.43-36.91-18.85-73.31-13.77-111.8.53-3.99-1.14-8.26-1.9-12.37-6.83-36.59-14.16-73.08-20.36-109.76-3.25-19.27-4.53-38.86-6.78-58.92-2.18.09-2.93.14-6.04.28-3.11-.14-3.85-.19-6.04-.28-2.25,20.06-3.53,39.65-6.78,58.92-6.2,36.68-13.53,73.17-20.36,109.76-.77,4.11-2.44,8.38-1.9,12.37,5.08,38.49-6.34,74.89-13.77,111.8-.58,2.86-1.93,5.92-1.44,8.61,5.13,26.98-.14,54.07,1.18,81.02,1.09,21.8-2.62,27.23-23.77,25.98-8.24-.46-19.25-1.3-23.75-6.5-7.2-8.33,4.23-15.18,7.75-22.75,10.56-22.68,11.93-46.82,9.12-71.2-3.48-29.99-8.68-59.85-11.1-89.89-1.35-16.97,2.09-34.24,2.18-51.38.19-26.72-.67-53.42-1.02-80.14-.46-37.28-2.95-74.68-.56-111.78.81-12.77,3.51-25.4,6.52-38,1.53-6.5,3.13-13,4.62-19.5,1.53-6.69,2.93-13.4,3.92-20.13,3.69-24.7,4.6-49.82,4.53-75.1-1.35,8.52-3.11,16.85-5.25,25.05-9.22,35.59-25.05,68.51-40.21,101.66-.67,1.46-1.46,2.88-2.09,4.36-.21.46-.39.91-.58,1.35-4.27,9.08-11.91,20.45-19.22,30.97l-.14.19-.14.23-14.09,19.73c-1.23,2.55-6.36,9.08-7.36,10.28l-.16.23c-.56.56-1.28.91-1.86,1.14-1.35.49-2.67.32-4.95-.23-2.65-.63-10.1,2.3-11.56,2.28-.86-.02-1.69-.09-2.46-.19-8.33-1.14-8.38-6.13-4.46-14.7,3.27-7.17,7.17-14.07,10.8-21.08.09-.21.21-.39.3-.6,1.81-3.55,3.6-7.1,4.41-11.03.56-2.72.65-5.59-.05-8.78-.16-.88-.42-1.79-.72-2.72-.09-.23-.16-.49-.23-.72-.12.14-.23.3-.35.42-4.53,5.92-10.96,6.29-16.46,8.73-1.04.49-2.83.81-4.04.05-.58-.35-1.02-.95-1.18-1.88-.05-.16-.05-.37-.02-.6v-.02c.12-1.25,1.04-2.97,2.02-3.6,12.12-7.73,18.46-23.82,35.47-24.65,3.37-.16,5.71-1.21,7.59-2.95l.3-.3c.16-.14.3-.28.46-.44.02-.05.07-.09.12-.14,1.79-1.95,3.2-4.13,3.74-6.11,5.62-20.52,9.52-41.49,14.21-62.26,2.34-10.33,3.67-21.17,7.34-30.95.37-1,.77-1.97,1.21-2.95,13.58-30.97,17.16-62.89,12.65-96.04-.12-.86-.23-1.72-.3-2.55l-.02-.02c-3.16-28.18,6.29-42.32,33.89-52.28,8.24-2.95,16.39-6.38,24.33-10.19,2.65-1.28,5.13-2.79,7.36-4.48.07-.07.14-.14.21-.19,1.23-.93,2.37-1.93,3.46-3.02.16-.14.26-.21.26-.21.86-.86,1.67-1.74,2.46-2.65,8.38-9.91,11.4-23.31,8.24-36.1l-.02-.02c-1.42-5.69-4.06-11.24-8.01-16.32-5.97-7.68-9.68-21.4-3.6-28.32,1-1.16-.33-5.52-.56-8.43-1.32-15.72-.58-31.11,15.58-39.3,8.03-4.11,16.23-6.2,24.33-6.2s16.3,2.09,24.33,6.2c16.16,8.19,16.9,23.59,15.58,39.3-.23,2.9-1.56,7.27-.56,8.43,6.08,6.92,2.37,20.64-3.6,28.32-3.95,5.08-6.59,10.63-8.01,16.32l-.02.02c-3.16,12.79-.14,26.19,8.24,36.1.79.91,1.6,1.79,2.46,2.65,0,0,.09.07.26.21,1.09,1.09,2.23,2.09,3.46,3.02.07.05.14.12.21.19,2.23,1.69,4.71,3.2,7.36,4.48,7.94,3.81,16.09,7.24,24.33,10.19,27.6,9.96,37.05,24.1,33.89,52.28l-.02.02c-.07.84-.19,1.69-.3,2.55-4.5,33.15-.93,65.07,12.65,96.04.44.98.84,1.95,1.21,2.95,3.67,9.77,4.99,20.62,7.34,30.95,4.69,20.78,8.59,41.74,14.21,62.26.53,1.97,1.95,4.16,3.74,6.11.05.05.09.09.12.14.16.16.3.3.46.44l.3.3c1.88,1.74,4.23,2.79,7.59,2.95,17.02.84,23.35,16.92,35.47,24.65.98.63,1.9,2.34,2.02,3.6Z"/><path class="cls-7" d="m154.05,137.55c-.51.42-1.74,1.46-3.46,3.02"/><path class="cls-7" d="m156.77,134.69l-.02-.02"/><path class="cls-7" d="m114.07,203.62c0-.19,0-.35-.02-.53"/><path class="cls-7" d="m234.86,140.57c-1.72-1.56-2.95-2.6-3.46-3.02"/><path class="cls-7" d="m228.71,134.67l-.02.02"/><path class="cls-7" d="m271.4,203.09c-.02.19-.02.35-.02.53"/><path class="cls-7" d="m153.97,137.13c-.51.42-1.74,1.46-3.46,3.02"/><path class="cls-7" d="m156.68,134.27l-.02-.02"/><path class="cls-7" d="m113.99,203.2c0-.19,0-.35-.02-.53"/><path class="cls-7" d="m234.78,140.15c-1.72-1.56-2.95-2.6-3.46-3.02"/><line class="cls-7" x1="276.38" y1="410.86" x2="276.36" y2="410.86"/><path class="cls-7" d="m228.63,134.25l-.02.02"/><path class="cls-7" d="m271.32,202.66c-.02.19-.02.35-.02.53"/><path class="cls-6" d="m114.84,203.23c0-.19,0-.35-.02-.53"/><path class="cls-6" d="m272.17,202.7c-.02.19-.02.35-.02.53"/><path class="cls-2" d="m156.25,443.7c-.12,2.51-1.6,3.3-4.13,2.69-1.9-.49-3.78-1.07-5.71-1.46-3.18-.63-4.83.09-6.55,2.88-2.02,3.3-3.06,6.83-1.69,10.66,1.11,3.2.56,6.13-.37,9.36-1.04,3.71-1.35,7.75-1.32,11.65.05,15.41.53,30.85.49,46.27-.02,25.75,2.16,51.26,6.71,76.59.67,3.76,1.6,7.48,2.44,11.24.86,3.64,2.25,7.03,4.62,10.05,3.83,4.97,4.11,10.4,1.65,16.11-1.23,2.83-2.34,5.66-5.62,7.36,2.07.21,3.46.33,5.01.49.3,3.39,0,6.52-1.79,9.1-4.48,6.52-6.01,14-7.89,21.43-2.04,8.01-2.32,16.18-2.69,24.35-.58,13.26-.91,26.51-1.39,39.74-.46,12.12-.93,24.24-1.56,36.33-.53,10.03,1,19.8,2.95,29.58.86,4.25,1.62,8.54,2.11,12.86.19,1.79-.19,3.71-.72,5.46-.95,3.13-2.28,3.39-4.64,1.23-.58-.53-1.18-1.04-1.79-1.58.49,2.16.95,4.18,1.32,6.24,0,.05.02.12.02.16,1.97-1.21,3.64-.33,4.41,2.37.39,1.44.6,3.02.58,4.53-.09,2.34-1.32,3.2-3.67,2.79-.74-.14-1.44-.53-2.21-.63-1-.16-2.02-.12-3.04-.16,3.3.51,4.67,2.69,5.04,5.76.12,1.04.35,2.09-.93,2.74-.33.16-.42.95-.46,1.46-.14,1.69-.16,3.44-.35,5.13-.16,1.51.02,2.81,1.04,4.02,1.14,1.35,2.83,2.72.42,4.43.26,1.81-.86,2.6-2.62,2.95,1,2.02,1.16,3.76-.65,5.25-.44.37-.46,1.23-.77,1.83-.51,1.11-1.86,1.69-3.11,1.39-1.02-.26-1.44-.93-1.16-1.93.16-.65.46-1.23.7-1.79-2.02-2.79-1.97-3.06.84-4.67-.09-.67-.19-1.3-.26-1.93-.05-.35.07-.97-.07-1.04-2.04-.88-1.3-2.58-1.07-3.97.3-2.02-.16-3.78-1.09-5.53-2.02-3.83-.97-6.11,3.3-7.08.91-.21,1.81-.3,3.04-.49-2.58-1.76-4.39-.14-6.27.7-2.41-4.2-.65-7.1,4.41-7.24-1.23-1-2.67-.74-4.09-.65-1.53.09-3.04.09-4.27-1.21-2.3,2.34-5.25.46-7.75,1.3.44-3.2,1.95-4.23,4.9-3.37.74.21,1.49.39,2.32.63,1.76-1.44,3.83-2.32,6.2-2.48.81-.07,1.6-.21,2.34-.46-.67-.53-1.28-1.11-1.95-1.65-1.97-.84-3.58-.14-5.01,1.23-.44.23-.88.51-1.37.74-1.35.67-2.21.12-2.55-1.23-.21-.88-.35-1.86-.19-2.74.35-1.93.91-3.81,1.42-5.9-2.41-.35-3.11-2.16-2.79-4.43.28-1.83.56-3.76,1.39-5.36,3.13-6.18,3.48-12.75,2.99-19.41-.51-7.34-1.46-14.63-1.93-21.96-.56-8.68-.84-17.39-1.23-26.07-.46-9.94-1.16-19.87-1.32-29.79-.09-6.41.51-12.84.88-19.25.53-9.1,1.3-18.18,1.67-27.3.12-2.72-.53-5.53-1.18-8.22-1.37-5.73-2.99-11.4-4.5-17.11-.14-.56-.16-1.18-.28-2.16,1.37-.16,2.6-.3,3.85-.46l6.73,1.23c1.25.33,2.6.42,3.27-.21,1.04-.98.26-2.34-.28-3.46-.49-1-1.14-1.95-1.67-2.95-.79-1.44-1.67-2.88-2.28-4.39-.81-2.04-1.23-4.16-.44-6.36,2.3-6.48,11.05-8.75,16.16-4.09.81.72,1.39,1.79,1.79,2.81,1.69,4.13.51,7.87-1.56,11.54-.77,1.39-1.39,3.02-1.58,4.6-.3,2.76.77,4.11,3.48,4.32-.77-.53-1.39-.95-1.88-1.44-1.67-1.76-1.65-2.97,0-4.81.84-.93,1.72-1.81,2.55-2.72,1.95-2.11,2.79-4.64,2.28-7.45-1.42-7.36-5.5-10.59-12.47-11-6.69-.42-12.1,6.89-10.1,12.42.98,2.6,2,5.2,3.02,7.8.39,1.02.84,2,1.32,3.11-1,.44-1.67.77-2.34,1.09l-6.59-1.81c-5.69-6.57-5.46-17.2.88-23.33,4.23-4.11,6.27-8.82,5.99-14.7-.6-14.58-1.14-29.16-1.72-43.74-.51-12.21-1.11-24.4-1.53-36.61-.42-12.54-.67-25.05-1-37.56-.09-4.04-.05-8.08-.33-12.12-.16-2.44-.58-4.9-1.23-7.27-.67-2.48-1.81-4.85-2.58-7.31-1.86-5.97-2.25-12.03-.44-18.06,1.35-4.5,3.92-7.99,8.87-9.03,4.23-.88,6.01-.16,8.36,3.39,3.85-.19,6.36-2.62,6.48-6.29.12-4.2,1.83-5.55,5.97-4.69,2.93.58,5.06,2.3,6.66,4.69,2.86,4.27,3.39,9.1,3.13,14.02Z"/><path class="cls-2" d="m248.56,373.41c-6.96-4.46-14.7-5.04-22.5-3.06-5.78,1.46-8.54,6.85-7.34,12.84.09.46.12.95.19,1.42.14.39.28.79.44,1.18.42,1.07,1,2.09,1.23,3.2,1,4.78,1.83,9.61,2.83,14.42,1.42,6.57-.16,12.4-4.18,17.64-1.04,1.37-2.07,2.81-3.34,3.95-4.09,3.64-8.31,7.15-12.47,10.7-1.9,1.63-3.88,3.16-5.64,4.92-.91.93-1.65,1.81-3.09,1.72-2-.09-4.04.16-5.73-1.28-3.48-2.9-6.9-5.83-10.45-8.61-4.92-3.9-9.54-8.1-12.91-13.46-2.25-3.6-3.71-7.54-3.11-11.77,1.11-7.61,2.11-15.28,4.74-22.52,2.48-6.94-1.72-13.56-8.24-14.74-6.27-1.11-12.49-.81-18.36,1.88-6.8,3.09-10.19,8.5-10.26,15.97-.05,3.13.53,6.18,1.74,9.01,1.79,4.25,3.85,8.38,5.69,12.61,1.88,4.29,4.87,7.59,8.73,10.15,1.18.79,2.44,1.53,3.69,2.23,4.32,2.48,6.73,6.2,7.15,11.19.09,1.23.3,2.48.26,3.74-.16,6.8.95,13.44,3.02,19.87.97,2.97,2.28,5.97,3.99,8.57,3.09,4.64,8.24,5.8,13.23,3.27,1.6-.81,3.2-1.88,4.36-3.23,1.97-2.32,3.62-4.94,5.34-7.48.58-.86,1-1.83,1.46-2.72h8.22c1.11,1.95,2.11,3.92,3.3,5.78,1.86,2.97,4.11,5.59,7.22,7.34,5.27,2.92,10.77,1.72,14.21-3.25,1.02-1.49,2.02-3.11,2.53-4.83,1.35-4.6,2.72-9.24,3.51-13.95.74-4.53.77-9.19,1.16-13.79.33-3.85,2.09-6.96,5.27-9.19,1.65-1.16,3.32-2.3,5.04-3.37,3.81-2.44,6.83-5.55,8.75-9.7,1.18-2.53,2.6-4.97,3.67-7.52,1.35-3.3,2.72-6.62,3.55-10.03,1.9-7.87-.74-15.11-6.89-19.08Zm-73.29,84.92c-1.58.84-2.9.84-3.76-.7-2.28-3.95-4.27-8.08-6.32-12.16-.26-.49-.16-1.14-.21-1.46.02-3.55,1.6-5.04,4.9-4.55,4.34.6,8.1,2.14,9.87,6.71,1.6,4.2-.49,10.08-4.48,12.16Zm45.15-10.91c-1.3,3.06-3.02,5.99-4.6,8.96-.21.42-.51.81-.81,1.18-1.25,1.44-2.39,1.63-4.06.67-2.72-1.49-5.11-5.76-5.06-8.94.14-3.55,3.06-8.19,6.69-8.87,1.69-.3,3.37-.91,5.06-1.02,2.09-.12,3.39.91,3.53,2.99.09,1.65-.09,3.51-.74,5.01Z"/><path class="cls-2" d="m265.07,274.7c-.35-4.04-1.58-7.85-2.44-11.75-.84-3.88-.77-7.96-1.09-11.96-.02-.28-.19-.53-.16-.81.05-.79.05-1.6.26-2.37,1.28-5.55.86-10.89-1.97-15.86-.51-.95-.84-1.74-.35-2.79.72-1.51.51-3.06-.16-4.5-.81-1.81-1.72-3.6-2.67-5.34-.79-1.51-1.67-2.97-2.32-4.06,1.46-5.08.86-9.24-1.39-12.72-.91-1.39-2.07-2.67-3.48-3.85.21-1.62.49-2.79.49-3.95-.02-4.62-2.11-8.26-5.46-11.07-1.97-1.65-3.2-3.6-4.41-5.87-2.46-4.6-5.85-8.08-11.58-7.71-.02-.72-.12-1.44-.09-2.16.16-2.74-1.02-4.76-2.99-6.36-.02-.02-.05-.05-.07-.05-.79-.67-1.62-1.3-2.51-1.83-5.71-3.48-11.82-5.83-18.34-7.01-.67-.12-1.28-.19-1.9-.19h-.02c-.14,0-.3,0-.44.02,1.83-1.53,2.07-2.88,1.9-6.24-1.25.33-2.39.74-3.53.88-.65.07-1.53.3-1.69-1.56-.07-.63.63-1.62,1.09-2.69-.26-3.09-.95-6.5-.35-9.17,1.53-1.51,2.79-2.48,3.9-3.9.77-.95,1.07-2.62.32-4.62-1.51.46-3.02.95-4.5,1.42-.91-4.04-.91-4.11.39-6.08-.02-.56-.05-1.11-.07-1.67,3.64-.33,6.78-1.74,9.05-4.94,2.11-2.95,4.2-5.94,6.29-8.91.79-1.14,1.04-2.41,1.02-3.78-.07-1.93-.07-3.85-.12-5.8-.05-2.99.19-5.94,1.44-8.73.16-.35,0-.86-.02-1.28-.46.02-1.02-.07-1.42.14-1.21.63-2,1.67-2.23,3.02-.35,2.25-.6,4.5-.97,6.76-.46,2.83-1.37,5.48-3.46,7.54-.21.23-.49.42-.97.79.12-.56.19-.84.21-1.09,0-.7.09-1.42-.05-2.09-.09-.37-.49-.91-.84-.97-.35-.09-.81.26-1.21.49-.21.12-.28.44-.49.56-.21.14-.58.3-.72.21-1.11-.79-1.95-.07-2.83.46-.3.19-.67.23-1.02.3-.6.09-1.21.14-1.81.26-.4.07-.77.26-1.18.3-.67.05-1.39-.09-1.86.65-.07.12-.39.14-.58.14-1.67-.07-3.32-.21-4.97-.19-.81,0-1.62.39-2.21-.49-.07-.09-.3-.09-.44-.12-.81-.21-1.62-.39-2.44-.58-.3-.07-.67-.21-.91-.09-.7.3-1.16.02-1.74-.35-.58-.32-1.44-.72-1.95-.51-.77.3-1.11.26-1.58-.37-.35-.46-.86-1.07-1.49-.65-.42.28-.74.93-.81,1.46-.09.77.05,1.6.09,2.58-.33-.26-.56-.42-.77-.6-2.18-2.04-3.02-4.71-3.53-7.52-.37-2.02-.49-4.09-.79-6.11-.26-1.67-.95-3.11-2.55-3.88-.37-.16-.95-.16-1.28.05-.19.12-.16.79-.05,1.16.3,1.16.81,2.28,1.04,3.44.77,3.44.42,6.94.3,10.4-.07,2.11.49,3.88,1.76,5.57,1.74,2.32,3.39,4.71,5.01,7.15,2,2.99,4.67,4.97,8.29,5.41.44.05.91.09,1.35.12-.09,1.09.14,1.95.74,2.44.33.26.63.56.88.81.12,4.18-.02,4.5-1.67,4.13-1.18-.26-2.37-.51-3.81-.81.16,6.31,1.74,7.89,3.23,9.66.56,2.37,1.14,2.72.79,4.94-.46,2.76-.42,2.97.86,4.2.53.49.74.98.49,2.48-1.32-.37-2.62-.7-3.92-1.09-.51-.16-1.05-.88-1.35.6-.28,1.35-.07,2.6.44,3.37.72,1.04,1.46,2.02,2.25,2.72.09.09.19.16.28.26h-.46c-.6,0-1.21.09-1.81.26-3.64.95-7.36,1.74-10.82,3.18-3.39,1.39-6.57,3.37-9.7,5.34-.26.19-.53.37-.79.56-1.79,1.44-2.79,3.51-2.65,6.11.05.77-.16,1.56-.21,2.07-1.63.16-3.18-.12-4.25.51-3.34,2.02-6.5,4.39-7.92,8.43-.53,1.6-1.53,2.74-2.81,3.83-4.71,4.06-7.68,8.96-5.76,15.97-.86.84-1.86,1.63-2.65,2.58-.51.56-.93,1.11-1.25,1.72-1.97,3.09-2.41,6.64-1.58,10.31.37,1.56.21,2.51-.46,3.69-1.28,2.21-2.53,4.41-3.67,6.66-.91,1.83-1.3,3.74-.49,5.8.21.63,0,1.63-.35,2.25-2.9,5.18-3.34,10.63-1.88,16.37.16.67.14,1.42.09,2.11-.23,3.46-.49,6.92-.77,10.38-.05.72.02,1.51-.23,2.14-1.49,3.46-2.04,7.15-2.62,10.86-.44,2.97-.37,5.92.63,8.66,1.23,3.32,1.42,6.73,1.69,10.19.21,3.11.63,6.24,2.16,8.96.88,1.58,1.23,3.18,1.42,4.92.42,3.67,1.39,7.17,3.23,10.35,2.44,4.13,6.22,5.46,10.35,3.25,2.23-1.18,4.25-2.88,6.01-4.74,2.16-2.25,3.9-4.92,5.83-7.41.88-1.11,1.79-2.23,2.72-3.32,1.02-1.21,2.32-2.25,3.11-3.6,5.43-9.4,10.19-19.15,14.37-29.25,1.23-2.99,2.69-5.94,4.48-8.61,1.72-2.53,3.69-4.88,5.66-7.24.16-.21.33-.39.49-.58.23,2.09-.12,4.02-.63,5.99-.42,1.58-.19,2.83.93,3.44.44.26.86.58,1.25.84.16,4.34-.05,4.67-2.41,4.29-1.67-.28-3.37-.53-5.43-.84.23,6.52,2.48,8.15,4.6,9.98.81,2.46,1.65,2.81,1.14,5.11-.65,2.86-.58,3.06,1.25,4.34.74.53,1.04,1.02.67,2.58-1.88-.37-3.76-.7-5.62-1.11-.72-.16-1.49-.91-1.93.63-.39,1.39-.07,2.67.65,3.46,1.02,1.09,2.09,2.09,3.23,2.81,1.79,1.16,2.21,1.93,1.97,4.83-.09,1.28-.39,2.53-.7,3.74-.42,1.69-.07,2.79.95,3.41.56.35,1.42.23,1.18,2-2.37,1.49-4.76-1-7.38-.23.16,6.71,3.83,6.13,6.52,8.17-.16,1.65-.26,3.44-.56,5.13-.58,3.23-.63,3.18,1.25,4.69.35.26.56.91,1.23,2.04-3.13-.56-5.71-1.02-8.13-1.44-.67,2.18-.28,3.6.6,4.55.88.97,1.81,2.16,2.81,2.37,2.09.46,2.48,2.81,2.62,5.27.12,1.74-.23,3.6-.53,5.34-.53,2.93-.58,3.23,1.25,4.39,1.32.86,1.32,1.97.88,3.6-3.44-.65-6.76-1.28-10.1-1.9-.81-.16-1.74-.63-2.16,1-.42,1.72.39,2.86,1.18,3.41,1.65,1.16,3.37,2,5.08,2.88.65.35,1.35.49,2.11.74-.72,4.76-1.02,9.08.07,13.46,1.09,4.48,3.58,6.85,5.85,9.38-1.23,1-2.55,1.42-3.13,2.72-.79,1.72-1.46,3.62-2.04,5.57-.63-.51-1.28-1.04-1.93-1.63-.65-.56-1.16-1.28-1.79-1.88-1.39-1.32-2.72-2.74-4.2-3.92-.95-.79-2.09-1.39-3.25-1.83-1.51-.56-2.62-.07-3.37,1.37-.37.74-.74,1.63-.77,2.44-.05,3.46-.28,6.94.12,10.35.39,3.51,1.74,6.71,5.15,8.54,1.23.65,1.62,1.86,1.72,3.16.09,1.35.02,2.72.3,4.02.3,1.37.77,2.76,1.46,3.99,1.23,2.16,2.6,4.25,4.06,6.27.7.95,1.65,1.88,2.69,2.37,1.37.63,2.21,1.56,2.65,2.88,1.04,3.16,2.04,6.34,3.02,9.54.51,1.63,2.83,3.76,4.32,3.81,1.65.07,4.41-1.93,4.9-3.48.95-3.11,1.86-6.22,2.99-9.26.39-1.09,1.18-2.48,2.14-2.83,2.02-.77,3.04-2.23,4.04-3.9.97-1.65,2.02-3.25,3.13-4.83,1.07-1.53,1.69-3.2,1.69-5.11,0-.86.05-1.72.09-2.6.07-1.83.67-3.32,2.46-4.23,1.7-.88,2.83-2.41,3.34-4.18.7-2.37,1.28-4.83,1.49-7.29.23-2.58,0-5.18-.02-7.78-.16-.39-.3-.79-.44-1.18-2.11-2.37-3.27-2.58-5.9-.91-1.07.67-2.04,1.46-2.95,2.3-1.25,1.18-2.39,2.51-3.62,3.74l-.39.39c-.19-.58-.33-1.16-.49-1.76-.67-2.58-1.88-3.88-3.6-4.09-.35-.05-.7-.26-1.6-.58,6.41-5.27,8.1-13.09,6.29-23.19.84-.28,1.49-.37,2.09-.7,1.49-.79,2.97-1.58,4.36-2.62.81-.58,1.65-1.63,1.35-3.32-.33-1.95-1.39-1.39-2.28-1.21-.91.19-1.79.37-2.69.51-2.28.39-4.55.74-6.73,1.11-1.21-2.97.84-3.11,1.37-4.53-.7-4.36-1.28-8.71-.05-12.93,4.64-2.41,5.57-3.9,4.78-7.75-2.34-.23-4.69,1.65-7.52.56.84-1.02,1.37-1.65,1.86-2.25q-.72-6.43-.28-8.71c1.93-1.35,3.69-2.37,5.32-3.81,1.09-.95,1.53-2.62.67-4.74-2.53-.02-4.99,1.88-7.89.26.77-1.09,1.3-1.86,1.72-2.46-.19-3.11-.37-6.06-.53-8.91,6.48-2.83,7.17-3.67,6.87-8.45-1.79.35-3.41.77-5.04.91-.93.07-2.18.3-2.44-1.6-.09-.67.91-1.69,1.56-2.79-.37-3.2-1.32-6.73-.46-9.49,2.18-1.56,3.95-2.58,5.57-4.04,1.11-1,1.51-2.69.46-4.78-2.16.49-4.34,1-6.45,1.46-1.3-4.16-1.28-4.25.56-6.29-.14-3.06-.46-6.04-.35-8.98v-.39h.02c.14.14.26.28.4.44l.07.07.05.05c4.3,5.15,8.29,10.47,10.77,16.97,3.69,9.68,8.45,18.85,13.51,27.83.74,1.35,1.63,2.6,2.6,3.76,1.23,1.51,2.72,2.81,3.92,4.34,1.88,2.28,3.48,4.85,5.48,6.96,1.86,1.9,3.95,3.69,6.22,4.92,4.13,2.25,8.06.97,10.31-3.25,1.3-2.44,2.25-5.18,2.83-7.89.7-3.11,1.42-6.11,2.51-9.1,1.09-3.02,1.16-6.43,1.72-9.66.37-2.14.63-4.29,1.21-6.38.81-2.93,1.25-5.85.97-8.91Zm-8.24-39.98c3.11,4.34,2.97,7.1-.63,10.38-5.39,4.9-11.35,8.87-18.06,11.35-5.46,2-10.93,1.44-15.81-1.95-5.36-3.71-10.56-7.75-15.81-11.7-.81-.63-1.58-1.46-2.07-2.39-.63-1.25.12-2.28,1.46-1.9.97.28,1.88.91,2.79,1.42,2.92,1.65,5.73,3.51,8.75,4.92,5.97,2.86,12.12,3.34,18.22.42,6.18-2.95,12.33-6.04,18.46-9.05.86-.44,1.69-.95,2.69-1.49Zm-4.48-13.91c.35.53.65,1.09.88,1.67.97,2.39.7,3.64-1.32,5.25-3.85,3.04-8.03,5.5-12.56,7.29-4.36,1.72-8.89,2.67-14.14,2.81-5.32-.63-11.14-1.67-16.71-3.99-1.83-.77-3.32-2-4.43-3.74-1.63-2.55-.63-4.99,2.34-5.29,1.69-.16,3.46.09,5.18.33,2.44.33,4.81.93,7.24,1.23.07,0,.12.02.19.02.49.05,1.02.09,1.51.14.7.05,1.37.09,2.07.09h.53c3.76.05,7.5-.51,11.14-1.97,1.23-.49,2.46-.98,3.69-1.44,3.53-1.32,7.1-2.55,10.63-3.83,2.34-.86,2.46-.79,3.76,1.44Zm-118.4,1.79c.09-.26.23-.51.35-.74,1.6-3.34,1.76-3.41,5.2-2.16,2.97,1.09,5.94,2.14,8.91,3.23h.02c2.21.79,4.43,1.6,6.64,2.41,2.97,1.11,5.97,1.37,8.98,1.28.65,0,1.32-.05,2-.09.51-.02,1.02-.07,1.56-.14.56-.05,1.11-.09,1.69-.16,2.28-.26,4.48-.91,6.71-1.21,1.65-.21,3.32-.39,4.94-.19,2.81.35,3.88,2.79,2.21,5.15-1.02,1.39-2.39,2.81-3.9,3.51-5.78,2.76-11.98,3.74-17.43,4.36-10.49-.46-18.99-4.23-26.63-10.24-1.88-1.49-2.14-2.72-1.25-5.01Zm-3.71,12.26c5.9,2.97,11.58,5.97,17.36,8.73,2.69,1.28,5.5,2.25,8.36,3.11,3.74,1.14,7.43.42,11.05-.74,4.02-1.32,7.66-3.48,11.21-5.83,1.02-.67,2.11-1.28,3.27-1.63,1.09-.33,1.72.46,1.35,1.6-.23.72-.7,1.51-1.3,1.95-5.94,4.48-11.7,9.24-17.97,13.21-4.55,2.9-9.87,2.97-14.93,1.02-6.43-2.48-12.16-6.31-17.39-10.96-3.78-3.39-3.99-6.04-1.02-10.47Zm10.17,80.53c-3.51.53-6.31-1.58-8.38-6.69,1.18.49,1.97.81,2.76,1.11,2.67,1,5.39,1.39,8.2.58,1.23-.37,2.53-.44,3.9-.65-.32,2.62-3.44,5.2-6.48,5.64Zm2.93-10.49c-7.8-.07-12.98-4.06-14.16-11.31,8.2,8.61,17.06,9.05,26.54,3.3-.86,4.74-6.04,8.08-12.37,8.01Zm26.28-31.08c-1.39,2.09-2.88,4.13-4.3,6.22-2.86,4.23-6.04,8.03-10.31,10.75-4.09,2.58-8.47,3.67-13.07,2.18-8.36-2.69-13.37-8.91-15.93-17.48-.63-2.14-.21-4.29.12-6.43.19-.05.37-.09.56-.16,1.3,1.6,2.53,3.25,3.88,4.78,1.76,2.02,3.55,4.02,5.46,5.9,3.64,3.6,8.06,4.69,12.86,3.69,5.59-1.14,10.47-3.81,14.79-7.78,2.07-1.9,4.46-3.46,6.94-5.36.3,1.67-.32,2.72-1,3.69Zm15.11-24.89c-.09.12-.19.21-.3.33-.07.09-.16.16-.28.26-2.16,2.16-4.39,4.32-6.57,6.48-2.09,2.09-4.18,4.13-6.15,6.34-4.57,5.18-9.96,9.08-16.39,11.35-1.07.39-2.18.65-3.2,1.16-3.37,1.79-6.55,1.16-9.77-.49-6.34-3.2-11.21-7.71-12.68-15.3-.28-1.56-.28-3.18-.44-4.78.23-.07.44-.16.67-.23,3.69,3.71,8.01,6.43,12.49,8.87,2.23,1.21,4.6,2.21,6.96,3.06,3.27,1.16,6.59.67,9.73-.7,5.18-2.3,9.77-5.5,13.67-9.87,2.48-2.79,5.29-5.25,8.01-7.82.56-.56,1.28-.98,1.95-1.32.84-.44,1.58-.21,2.14.37.14.14.26.3.37.46.02.02.02.05.02.07-.12.6-.19,1.18-.23,1.76Zm-.37-37.21c-.32.51-.67.97-1.09,1.39-.07.09-.14.16-.23.26-.98.98-2.11,1.67-3.41,2.07-3.34,1.02-6.71,1.93-10.1,2.74-.53.12-1.09.23-1.6.3-1.14.19-2.25.3-3.39.33-4.62.14-9.1-1.07-13.39-3.04-2.9-1.3-5.66-3.02-8.36-4.78-.56-.37-1.09-.72-1.65-1.09-1.9-1.23-2.46-2.48-1.95-4.25.12-.49.33-1,.63-1.58.49-.93,1.16-1.79,1.79-2.79.86.3,1.62.53,2.34.77.09.05.16.07.26.09,4.27,1.56,8.64,2.97,12.84,4.69,3.41,1.42,6.9,1.86,10.35,1.74.23.02.44,0,.67,0,.49-.02.95-.07,1.42-.12,1.02-.07,2.02-.19,3.02-.35,1.97-.28,3.92-.81,5.92-1.09.09-.02.16-.02.26-.05.19-.02.4-.05.6-.07,1.09-.12,2.23-.16,3.3.05,2.41.53,3.13,2.58,1.79,4.78Zm-4.67-10.63c-3.53-.19-7.01-.16-10.52-.35v-.07c-4.62-.26-9.17-.93-13.6-2.86-2.67-1.18-5.29-2.51-7.8-4.06-2.32-1.49-2.86-3.53-1.95-5.76.53-1.3,1.44-2.23,2.6-2.6h.07c3.92.95,7.75,2.16,11.65,3.09,2.32.56,4.67,1.02,6.99,1.42,5.41.91,10.84,1.37,16.34,1.39.51.02,1.02.07,1.79.12.14,1.04.35,1.86.35,2.67.09,4.39-1.9,7.22-5.92,7.01Zm5.94-16.74c-.02.26-.07.56-.19.86-1.09-.07-2.16-.14-3.25-.19-.21-.02-.44-.05-.65-.05-1.74-.12-3.46-.23-5.18-.49-2.74-.39-5.48-1.09-8.22-1.56,0-.09,0,.09,0,0-2.62-.49-5.27-.97-7.89-1.44-1.46-.26-2.74-.91-3.13-2.67-.39-1.76.26-3.25,1.28-4.53.23-.3.49-.53.77-.7h.02c2.25,1.11,4.55,1.95,6.92,2.62,3.85,1.09,7.78,1.74,11.72,2.46,2.02.35,4.02,1.28,5.85,2.25,1.18.63,2.11,1.65,1.95,3.32v.09Zm-3.44-18.85c.07,4.23,1.18,5.46,2.48,6.34-.05.09-.07.16-.12.26-.16.39-.37.79-.56,1.16-1.11,2-2.97,3.25-5.22,2.93-3.18-.44-6.31-1.14-9.47-1.9-.58-.16-1.21-1.02-1.44-1.69-1.35-4.16-.44-7.94,2.23-11.21,1.42-1.72,3.44-2.02,5.5-1.93,2.74.19,5.36.74,7.66,2.39,1.56,1.11,2.55,2.55,2.74,4.32-1.23-.07-2.48-1.18-3.81-.65Zm23.54-4.71c2.37-1.04,4.88-1.53,7.43-1.3,2.14.19,3.81,1.18,4.92,3.16,1.25,2.18,1.93,4.48,1.76,6.87,0,.02-.02.05,0,.07-.05.72-.14,1.44-.35,2.16-.02.02-.02.05-.02.07-.05.19-.09.35-.16.53-.21.7-.77,1.6-1.35,1.79-2.9.91-5.87,1.6-8.82,2.37-3.27-.05-5.39-1.6-6.66-4.6-.09-.19-.16-.37-.23-.56-.05-.12-.09-.21-.12-.33.39-.39.77-.79,1.14-1.23.74-.93,1.07-2.55.46-4.57-.79-.02-1.56.33-2.34.58.39-2.21,1.83-3.9,4.34-5.01Zm-4.16,23.19c-.09-1.49.74-2.51,1.95-3.13,1.76-.93,3.69-1.67,5.6-2.14,2.37-.6,4.87-.63,7.22-1.28,1.42-.39,2.79-.81,4.16-1.28,2.28-.74,4.53-1.53,6.78-2.34.26-.09.49-.19.72-.23h.02c.86.35,1.51,1.21,2,2.72.79,2.32.02,4.23-2.07,5.04-.46.19-.95.28-1.44.37-2.67.46-5.36.93-8.03,1.39,0,.07.02-.07,0,0-2.55.39-5.11,1.02-7.64,1.42-2.14.3-4.27.44-6.41.56-.19.02-.4.02-.58.05-.12,0-.21.02-.33.02-.58.05-1.18-.07-1.76-.09-.09-.33-.14-.63-.19-.93v-.14Zm.19,7.64c5.15-.42,9.77-.72,14.37-1.18,1.09-.12,2.21-.26,3.32-.44,5.52-.81,10.96-2.25,16.34-3.81.95-.28,1.9-.58,2.86-.77h.02c1.35.37,2.41,1.44,2.9,2.93.6,1.93.14,3.62-1.56,5.01-1,.81-2.07,1.53-3.18,2.11-6.13,3.2-12.56,5.06-19.36,5.2v.05c-2.21.05-4.41.26-6.64.37-1.3.05-2.62.19-3.9,0-3.18-.42-4.67-1.9-5.15-5.22-.21-1.39-.02-2.86-.02-4.25Zm3.09,15.3c.86-.14,1.76-.12,2.65-.02.28.02.56.05.84.09.23.02.44.05.65.07,2.74.35,5.46.81,8.2,1.16.44.05.91.12,1.35.16.44.07.93.12,1.37.16.33.02.6.07.93.09h.21c2.39.09,4.78-.28,7.1-1.11,4.83-1.76,9.73-3.53,14.58-5.27.21-.07.39-.14.6-.21.7-.26,1.44-.46,2.23-.74.44.53.7.79.88,1.07.67,1.02,1.16,1.88,1.44,2.65v.02c.91,2.28.02,3.67-2.95,5.8-.58.42-1.18.81-1.76,1.21-4.99,3.3-10.35,5.66-16.27,6.36-1.49.16-3.02.26-4.55.21h-.09c-1.16-.02-2.3-.14-3.41-.33-.05,0-.12-.02-.16-.05-3.71-.63-7.36-1.74-10.98-2.76-1.37-.39-2.58-1.16-3.55-2.21-.09-.09-.16-.16-.23-.26-.37-.39-.67-.79-.95-1.25-1.46-2.28-.7-4.39,1.9-4.85Zm.35,44.74c-.58-.58-1.18-1.16-1.74-1.76-.21-.19-.42-.39-.6-.58,0-.63-.07-1.25-.19-1.9-.02-.21-.07-.44-.12-.65.14-.16.3-.3.46-.39.51-.39,1.16-.46,1.83-.07.91.53,1.81,1.11,2.58,1.86,2.88,2.76,5.71,5.62,8.54,8.45,4.62,4.6,9.73,8.31,16.11,9.63,2.46.51,4.83.35,7.17-.58,5.8-2.23,11-5.46,15.86-9.43.88-.74,1.76-1.44,3.16-2.58-.05,7.41-2.28,13.12-7.57,17.18-2.11,1.63-4.46,2.83-6.8,4.09-2.46,1.3-4.99,1.42-7.59.3-2-.86-4.11-1.42-6.15-2.28-5.18-2.16-9.52-5.66-13.49-9.68-3.85-3.85-7.64-7.73-11.47-11.61Zm42.55,63.82c-3.16-.05-6.71-2.55-7.48-5.53,1.07.07,2.14-.12,3.02.21,3.69,1.28,7.2.67,10.63-.93.28-.14.58-.21,1.02-.35-1.21,4.11-4.06,6.66-7.2,6.59Zm9.91-19.64c-.56,1.14-1.14,2.25-1.79,3.34-1.74,2.99-4.32,4.64-7.61,5.25-2.95.56-5.85.7-8.8,0-3.67-.86-6.59-3.48-8.29-7.73,9.7,5.92,18.53,5.55,26.84-2.44-.12.53-.14,1.09-.35,1.58Zm3.25-19.32c-2.25,6.71-6.15,11.98-12.42,15.21-5.01,2.58-9.94,2.39-14.86-.12-3.57-1.86-6.52-4.6-8.98-7.85-2.58-3.44-5.04-7.01-7.45-10.59-.51-.74-.7-1.74-1.04-2.65.16-.12.35-.23.49-.37,2.55,2,5.15,3.95,7.64,6.01,5.04,4.16,10.52,7.17,17.09,7.38,3.67.14,6.96-1.07,9.56-3.74,2.74-2.81,5.27-5.83,7.87-8.78.63-.72,1.21-1.46,2.11-2.58.63,3.09.84,5.62,0,8.06Z"/><path class="cls-2" d="m125.77,842.44c-.26,1.02-.62,2.11-.81,3.22-.37,2.17-.82,4.34-.89,6.53-.05,1.5.02,2.88-.96,3.44.2,1.18.7,2.19.39,2.76-.72,1.33-.5,2.56-.34,3.9.11.86-.11,1.77-.19,2.76-1.45-.19-2.51-.32-4.08-.53,1.11.92,1.94,1.35,2.36,2.03.55.9-.59,1.45-.81,2.13-.95,2.99-1.58,6.07-2.29,9.13-.35,1.53-1.13,2.38-2.99,2.1.17-2.06-.31-4,.51-6.12.68-1.75.39-3.87.52-5.83.02-.37-.18-.99-.05-1.07,2.02-1.1,1.13-3.59,2.46-5.08.61-.68.59-1.93.83-2.93.29-1.19,1.14-2.72.69-3.5-.81-1.41-.13-2.35.12-3.52.56-2.62,1.18-5.24,1.54-7.89.4-2.94,1.23-3.38,3.99-1.54Z"/><path class="cls-2" d="m107.74,864.65c1.36,1.06,3.04.81,4.57,1.15.69.15,1.61.42,1.89.93.47.85-.58,1.14-1.05,1.69-.9,1.05-1.57,2.31-2.19,3.56-.65,1.3-1.12,2.69-1.94,3.96-.87-1.53-1.06-2.89-.06-4.39.83-1.24,1.69-2.59,1.19-4.42-1.41,0-2.3.57-2.79,1.87-.57,1.5-1.18,2.99-1.81,4.47-.13.31-.44.55-.87,1.06-.61-1.53-.75-2.76.02-3.92,1.09-1.66,1.74-3.39,1.15-5.49.77-.16,1.39-.29,2-.42,0,0-.12-.05-.12-.05Z"/><path class="cls-2" d="m103.84,864.09c.21-.61.31-1.3.65-1.83,1.39-2.15,2.84-4.28,4.33-6.37.3-.42.87-.65,1.43-1.05.39.53.69.94,1.07,1.44.44-.38.85-.74,1.27-1.1,0,0-.08-.04-.08-.04,1.45.94,1.11,2.02.19,3.08-1.31,1.52-2.5,3.06-2.77,5.16-.16,1.22-1.22,1.26-2.2,1.28,0,0,.12.05.12.05-.27-.58-.53-1.15-.66-1.43-1.24.28-2.35.53-3.46.79,0,0,.1.03.1.03Z"/><path class="cls-2" d="m115.13,852.58c.44-1.11,1.04-2.18,1.27-3.33.39-1.97.53-3.99.8-6.13.99-.32,1.96-.62,3.33-1.06-.25,1.07-.48,1.84-.62,2.63-.46,2.55-.88,5.11-1.32,7.66-.13.76-.14,1.56-.43,2.25-.19.44-.79.94-1.23.96-.44.02-1.11-.43-1.3-.85-.31-.67-.32-1.48-.45-2.23,0,0-.04.1-.04.1Z"/><path class="cls-2" d="m115.17,852.47c-.18.52-.38,1.04-.53,1.57-.32,1.13-1.03,1.46-2.12,1.1,0,0,.08.04.07.04.15-1.66.3-3.31.46-4.96-.1-.02-.2-.03-.3-.05-.48,1.07-.96,2.13-1.44,3.2-.77-2.26.41-4.06.83-6.21,1.19-.22,2.36-.43,3.56-.65-.21,2.19-.39,4.14-.57,6.07,0,0,.05-.11.05-.11Z"/><path class="cls-2" d="m113.71,865.03c-1.39-.18-1.97-.78-1.56-1.79.83-2.01,1.72-4,2.78-5.9.24-.43,1.23-.44,2.22-.76-.5,3.38-2.03,5.84-3.44,8.45Z"/><path class="cls-2" d="m115.58,840.83c.69.19,1.38.39,2.1.59-.95,1.48-1.85,2.86-2.81,4.36-1.3.18-1.66-.78-1.88-1.85-.21-1,.35-1.6,1.14-2.08.53-.31,1.02-.68,1.51-1.03-.01,0-.07,0-.07,0Z"/><path class="cls-2" d="m103.74,864.06c.45.3.9.6,1.28.85-1.1,1.98-2.11,3.78-3.11,5.59-.15-.04-.29-.08-.44-.11,0-.52-.11-1.07.02-1.56.35-1.35.74-2.71,1.25-4.01.13-.33.74-.48,1.13-.71-.01,0-.11-.04-.11-.04Z"/><path class="cls-2" d="m176.73,150.64c-1.56,1.02-3.44,1.83-5.27,2.14-3.39.56-6.87.97-10.31.93-7.17-.09-14.14,1.3-21.1,2.72-2.83.58-5.64,1.21-8.47,1.72-3.83.7-7.38,2.07-10.68,4.23-.46-.6-.79-1.02-1.3-1.67-.35,1.23-.63,2.3-.95,3.53,2.48,1.28,5.11,1.16,7.64,1.37,0,0-.23,2.41-1.88,2.92-.16.05-.35.07-.51.09-.63.12-1.25.21-1.88.16-1.23-.09-2.44-.51-3.62-.88-3.11-.95-6.06-.72-8.91.88-.84.46-1.76.91-2.67.97-.74.05-1.86-.28-2.21-.81-.35-.56-.16-1.72.21-2.37.51-.88,1.35-1.63,2.18-2.25,2.14-1.65,4.34-3.16,6.5-4.76,1.35-1,2.83-1.11,4.67-.67-.16-.56-.26-.95-.4-1.39.19-.16.37-.39.63-.49,9.75-3.69,19.66-6.55,30.2-6.92,4.71-.16,9.38-.77,14.09-1,4.76-.23,8.68-2.14,12.05-5.41,1.14-1.09,2.39-2.07,3.64-3.11,2,3.37,1.21,8.22-1.65,10.08Z"/><path class="cls-2" d="m99.95,320.94c-2.42-.14-3.96-1.77-5.57-3.28-1.09-1.02-2.23-2-3.39-3.03-.8.7-1.29,1.14-1.79,1.57-2.51,2.18-5.17,2.36-7.89.46-2.21-1.54-3.63-3.7-4.5-6.2-.63-1.81-.17-3.45,1.21-4.74,1.34-1.24,2.72-2.45,4.18-3.53,3.71-2.74,6.2-6.32,7.22-10.79,1.41-6.18,2.67-12.39,3.94-18.6,2.22-10.85,3.15-21.87,4.09-32.89.98-11.49,1.87-23,2.57-34.51.31-5.07-.13-10.18.05-15.27.17-4.98.58-9.96,1.12-14.92.25-2.28,1.57-3.19,4.05-3.24,1.33-.02,2.24-.36,3.25-1.33,2.41-2.34,5.4-2.78,8.57-1.76,6.89,2.23,10.15,8.22,8.28,15.23-.92,3.45-2.62,6.28-6.05,7.98-3.05,1.51-5.1,4.07-5.67,7.56-1.38,8.53-2.94,17.05-4.02,25.62-1.68,13.35-3.11,26.73-4.47,40.12-.96,9.47-1.56,18.97-2.44,28.45-.41,4.41.62,8.36,2.96,12.07,1.02,1.62,1.93,3.33,2.73,5.07.8,1.74.77,3.52-.36,5.31-.4-.06-.77-.06-1.11-.17-2.1-.69-2.26-.6-3.62,1.06-1.08,1.32-2.27,2.55-3.42,3.82l.09-.06Z"/><g class="cls-5"><path class="cls-1" d="m47.57,417.48c-.12.26-.23.49-.32.74.02-.12.05-.23.05-.37,0-.12.12-.26.28-.37Z"/><path class="cls-1" d="m46.68,432.1s-.05.01-.06,0h0s.03.01.03.02c.02,0,.02-.02.03-.03Z"/><path class="cls-1" d="m46.65,432.13s.03,0,.04.01l.04-.07s-.03,0-.06.03c-.03,0-.05.01-.06,0h0s.03.01.03.02Z"/><path class="cls-1" d="m33.3,453.23c-.67,3.29-2.56,5.94-4.55,8.54-.73.95-1.38,1.88-1.04,3.24-.31.08-.61.18-.91.24-.33.07-.66.11-1.12.19-.28,1.72-.26,3.44-.9,4.93-.6,1.41-1.9,2.54-3.15,4.12.82.55,1.5,1.08,2.26,1.47.83.41,1.51.03,1.91-.95.35-.9.55-1.85,1.01-2.68.68-1.22,1.36-2.58,2.34-3.49.98-.91.67-2.29,1.36-2.85.87-.69,1.56-1.26,1.79-2.39.55-2.7,2-4.89,3.88-6.9,1.07-1.14,2.45-2.26,1.98-4.28,2.13-.37,2.88-1.99,3.46-3.96,1.69-5.78,3.99-9.1,8.92-13-.13.86-.12,1.53-.34,2.15-1.15,3.37-2.71,6.53-4.99,9.35-.7.86-1.29,1.9-1.71,2.94-.54,1.4-.06,2.53.95,3.32,1.42,1.12,3.07.48,3.25-1.51.28-3.14,1.87-5.76,3.22-8.47.89-1.79,2.12-3.42,3.23-5.1.63-.96,1.49-1.93.9-3.05-.59-1.13-1.62-1.88-2.92-1.47-1.03.32-1.46-.15-2.17-.52-.98-.52-2.15-.66-3.25-.94-.68.98-1.68,1.92-1.96,2.96-1.13,4.36-3.91,7.65-6.71,10.92-1.91,2.22-2.1,2.45-2.08,5.13-1.53-.36-2.35.55-2.65,2.07Z"/><path class="cls-1" d="m101.91,324.52c-.95-.05-1.9-.05-2.86-.05-1.72.58-2.9-.19-3.83-1.58-.86-1.32-2.04-1.67-3.51-1.37-.72.16-1.42.35-2.14.51-.51-1.11-.23-3.04-2.04-2.62-2.21.51-4.09-.16-6.13-.74-1.9-.53-2.67.28-2.37,2.28.07.49.19.95.39,1.39.81,1.95.91,3.99.26,5.94-1.28,3.92-2.37,7.94-4.23,11.61-7.27,14.3-12.47,29.32-16.48,44.81-1.72,6.59-3.83,13.09-6.06,19.52-1.6,4.5-3.58,8.84-5.36,13.26-.12.26-.23.49-.32.74-.05.44-.21.84-.44,1.21,0,0,0,.02-.02.05-.49.84-1.25,1.53-1.67,2.44-.63,1.35-1.32,2.58-.35,4.36-.86-.26-1.25-.44-1.67-.51-1.39-.23-2.23.09-2.65,1.65-.88,3.25-2.88,5.85-4.34,8.75-1.37,2.76-3.18,4.97-5.5,6.83-2.14,1.72-2.14,1.9-1.35,4.69-.7-.21-1.28-.37-2.21-.65-.46,1.09-1.14,2.14-1.35,3.25-.63,3.06-1.63,5.87-3.88,8.17-.4.42-.46,1.21-.63,1.81-.09.23,0,.72-.07.74-2.18.77-1.67,2.67-2,4.25-.16.72-.49,1.46-.91,2.09-1.67,2.58-2.65,5.39-3.32,8.31-.21.91-.28,1.79.79,1.86.88.05,1.6-.53,1.6-1.53-.02-1.28.72-1.97,1.35-2.95.79-1.25,1.83-2.58,1.83-4.34,0-.74.58-1.6,1.02-2.32.84-1.32,2.41-2.23,2.28-4.13,2.53-1.39,2.09-4.25,3.16-6.34.67-1.32,1.72-2.51,2.74-3.58,1.04-1.04,2.11-1.95,1.83-3.69,2.25-.07,3.13-1.72,3.67-3.69,1.28-4.67,3.55-8.68,7.2-11.84.81-.7,1.69-1.28,2.55-1.93.72-.91,1.35-1.81,1.35-2.72,0-.44-.14-.86-.51-1.3,1.07-.91,2.34-1.53,2.86-2.58.19-.35.21-.79.19-1.25l.12-.02h.02s.12-.02.19-.02l.65-.09.72-.09c.09,0,.16-.02.26-.05l.53-.07,1.9-.26.67-.09h.09c-.42.35-.81.93-1.3,1.79-.6,1.09-1.28,2.14-1.97,3.18-1.37,2.02-1.23,3.37.49,4.27,1.6.84,3.27.14,4.18-1.79.49-1,.88-2.04,1.32-3.06.19.07.35.14.51.21-.65,1.51-1.32,3.02-2.04,4.64,1.74.07,1.49,2.28,2.86,2.72l-.12.02c2.95.28,3.09.16,4.02-3.37,2.34-.67,3.37-1.83,3.92-4.46.02-.19.07-.35.09-.51,1.46.65,1.9.33,2.76-1.56.51-1.11.77-2.37,1.16-3.53.93-2.62,1.76-5.27,2.79-7.85,3.46-8.96,7.31-17.78,10.42-26.84,2.53-7.36,4.13-15.02,6.31-22.47,2.32-7.94,4.83-15.83,7.34-23.7,1.32-4.13,2.86-8.17,5.73-11.54.49-.56.84-1.32,1.07-2.02.46-1.53,0-2.18-1.58-2.25Zm-41.18,103.12c-.12-1.69.77-2.37,1.32-3.13.35-.46.58-.93.67-1.37.28.46.56.88.81,1.32-.84.98-1.74,1.95-2.81,3.18Zm28-103.05c-1.83,1.74-2.04,3.92-2.07,6.29-.07,3.6-.7,6.99-2.74,10.17-1.14,1.76-1.44,4.16-1.81,6.31-.79,4.74-1.28,9.54-2.11,14.25-1.6,8.89-2.95,17.88-5.18,26.6-2.41,9.5-6.01,18.64-10.45,27.42-.74,1.46-1.44,2.93-2.18,4.36-.14-.02-.28-.05-.4-.09.58-4.76,1-9.54,1.76-14.25,1.44-8.84,3.09-17.62,4.64-26.44,1.58-8.89,4.99-17.11,8.87-25.21,2.34-4.94,4.46-9.98,6.73-14.97,1.18-2.58,1.76-5.25,2-8.06.21-2.58.42-5.22,2.86-6.92.05.16.14.46.07.53Z"/><path class="cls-1" d="m14.93,434.51c2.09-1.53,3.78-2.88,5.57-4.03.75-.48,1.71-.67,2.57-.78,1.3-.17,2.71.16,3.28-1.79.03-.09.09-.25.11-.25,2.42.27,3.43-2.35,5.26-3.34,2.09-1.13,4.11-2.22,6.37-1.61.37.1.84-.08,1.36-.14.73-1.63.56-3.15.46-4.64-.09-1.3-.76-1.64-1.99-1.13-.67.28-1.31.72-1.93,1.14-2.55,1.71-5.19,2.97-8.11,3.03-1.19.02-2.1.63-3.07,1.59-2.28,2.25-4.74,4.31-7.19,6.37-.55.46-1.31.66-1.99.91-2.02.75-2.51,1.71-1.65,3.48.25.51.71.88.96,1.18Z"/><path class="cls-1" d="m60.02,435.53c-1.42.1-2.25.69-2.52,2.36-.66,4.21-2.34,8.06-5.42,11.37-1.31,1.41-1.43,2.16-1.21,4.49-1.09-.12-1.88.28-2.07,1.56-.12.82-.14,1.7-.48,2.45-.53,1.17-1.14,2.41-2.01,3.32-1.52,1.61-1.61,1.52-.52,3.18-.6-.18-1.2-.35-1.88-.56-.35,1.05-.57,1.94-.96,2.78-.39.85-.95,1.65-1.53,2.62.76.59,1.47,1.15,2.22,1.73.99-1.74,1.89-3.23,2.68-4.77.4-.77.69-1.37,1.63-1.71.49-.18.9-1.15,1.17-1.81.84-2.02,1.92-3.84,3.25-5.66,1.63-2.25,3.49-4.39,3.83-7.49.34-3.19,2.26-6.17,4.34-8.86,2.33-3.02,2.31-3.35-.63-5,0,0,.11,0,.11,0Z"/><path class="cls-1" d="m36.31,467.13c1.56,1.11,3.22.91,3.74-1.88.54-2.94,1.93-5.47,4.23-7.58,1.9-1.74,1.75-2.51-.36-3.45-3.05-1.36-3.64-1.06-4.1,2.58-.32,2.56-1.22,4.61-3.22,6.41-1.94,1.75-1.9,2.85-.29,3.93Z"/><path class="cls-1" d="m29.28,477.01c-.4.38-1,.72-1.18,1.2-.46,1.21-.71,2.49-1.09,3.73-.28.88-.46,1.8.42,2.11,1.05.37,1.72-.49,1.87-1.51.23-1.55,1.12-2.52,2.24-3.47.61-.51,1.22-1.29,1.45-2.03.76-2.48,1.53-4.88,3.68-6.62.3-.25.38-.83.62-1.38-1.13-.99-2.08-2.18-4.2-1.6.08,2.85-1.22,5.18-3.18,7.3-.44.48-.41,1.45-.62,2.28Z"/><path class="cls-1" d="m24.72,477.91c-.96-1.65-2.3-1.58-3.53-1.78-.63,1.88-1.2,3.61-1.77,5.34-.29.87-.37,1.75.52,2.03,1,.32,1.74-.38,1.94-1.41.34-1.72.91-3.23,2.84-4.18Z"/><path class="cls-1" d="m43.22,423.04c1.54-1.43,1.34-3.36,1.96-5.21-1.38-.31-2.53-.35-3.39,1-.64,1,.03,2.84,1.44,4.21Z"/><path class="cls-1" d="m40.86,469.91c-.8,1.63-1.28,2.74-1.88,3.78-.49.85-.74,1.63.1,2.07.75.4,1.25-.27,1.73-.94.74-1.04,1.56-2.02,2.55-3.3-.84-.54-1.66-1.07-2.5-1.61Z"/></g><path class="cls-2" d="m310.2,310.45c-.88,2.51-2.3,4.67-4.5,6.2-2.74,1.9-5.39,1.74-7.89-.46-.51-.42-1-.86-1.81-1.56-1.14,1.02-2.28,2-3.37,3.02-1.62,1.51-3.13,3.13-5.55,3.3-1.11-1.25-2.3-2.46-3.37-3.76-1.35-1.67-1.51-1.76-3.62-1.07-.35.12-.72.12-1.11.16-1.14-1.79-1.16-3.55-.37-5.29.81-1.74,1.72-3.46,2.74-5.08,2.34-3.69,3.37-7.66,2.97-12.07-.88-9.47-1.49-18.97-2.44-28.44-1.37-13.4-2.81-26.77-4.48-40.12-1.07-8.57-2.65-17.09-4.02-25.63-.58-3.48-2.62-6.04-5.66-7.54-3.44-1.69-5.13-4.53-6.06-7.99-1.88-7.01,1.39-13,8.29-15.23,3.16-1.02,6.15-.58,8.57,1.76,1,.95,1.9,1.3,3.25,1.32,2.46.05,3.78.95,4.04,3.23.56,4.97.95,9.94,1.14,14.93.16,5.08-.26,10.19.05,15.28.7,11.51,1.58,23.01,2.55,34.5.95,11.03,1.88,22.03,4.09,32.9,1.28,6.2,2.53,12.42,3.95,18.6,1.02,4.48,3.53,8.06,7.22,10.79,1.46,1.07,2.86,2.28,4.18,3.53,1.39,1.28,1.86,2.93,1.23,4.74Z"/><path class="cls-1" d="m287.12,320.99l-.09-.05h.05l.05.05Z"/><g class="cls-5"><path class="cls-1" d="m339.74,418.21c-.09-.26-.21-.51-.33-.77.16.14.28.28.28.39,0,.14.02.26.05.37Z"/><path class="cls-1" d="m340.3,432.1s.05.01.06,0h0s-.03.01-.03.02c-.02,0-.02-.02-.03-.03Z"/><path class="cls-1" d="m340.33,432.13s-.03,0-.04.01l-.04-.07s.03,0,.06.03c.03,0,.05.01.06,0h0s-.03.01-.03.02Z"/><path class="cls-1" d="m353.68,453.23c.67,3.29,2.56,5.94,4.55,8.54.73.95,1.38,1.88,1.04,3.24.31.08.61.18.91.24.33.07.66.11,1.12.19.28,1.72.26,3.44.9,4.93.6,1.41,1.9,2.54,3.15,4.12-.82.55-1.5,1.08-2.26,1.47-.83.41-1.51.03-1.91-.95-.35-.9-.55-1.85-1.01-2.68-.68-1.22-1.36-2.58-2.34-3.49-.98-.91-.67-2.29-1.36-2.85-.87-.69-1.56-1.26-1.79-2.39-.55-2.7-2-4.89-3.88-6.9-1.07-1.14-2.45-2.26-1.98-4.28-2.13-.37-2.88-1.99-3.46-3.96-1.69-5.78-3.99-9.1-8.92-13,.13.86.12,1.53.34,2.15,1.15,3.37,2.71,6.53,4.99,9.35.7.86,1.29,1.9,1.71,2.94.54,1.4.06,2.53-.95,3.32-1.42,1.12-3.07.48-3.25-1.51-.28-3.14-1.87-5.76-3.22-8.47-.89-1.79-2.12-3.42-3.23-5.1-.63-.96-1.49-1.93-.9-3.05.59-1.13,1.62-1.88,2.92-1.47,1.03.32,1.46-.15,2.17-.52.98-.52,2.15-.66,3.25-.94.68.98,1.68,1.92,1.96,2.96,1.13,4.36,3.91,7.65,6.71,10.92,1.91,2.22,2.1,2.45,2.08,5.13,1.53-.36,2.35.55,2.65,2.07Z"/><path class="cls-1" d="m372.11,475.64c-.67-2.93-1.67-5.73-3.34-8.31-.39-.63-.74-1.37-.91-2.09-.33-1.58.19-3.48-1.97-4.25-.07-.02,0-.51-.07-.74-.19-.6-.26-1.39-.65-1.81-2.25-2.3-3.23-5.11-3.85-8.17-.23-1.11-.91-2.16-1.35-3.25-.93.28-1.51.44-2.21.65.77-2.79.79-2.97-1.37-4.69-2.32-1.86-4.13-4.06-5.5-6.83-1.44-2.9-3.46-5.5-4.32-8.75-.42-1.56-1.28-1.88-2.67-1.65-.42.07-.81.26-1.67.51.97-1.79.28-3.02-.35-4.36-.39-.86-1.11-1.56-1.63-2.34,0-.02-.02-.02-.02-.02-.23-.39-.42-.84-.49-1.32-.09-.26-.21-.51-.33-.77-1.79-4.39-3.76-8.73-5.34-13.23-2.25-6.43-4.36-12.93-6.08-19.52-3.99-15.48-9.22-30.5-16.46-44.81-1.86-3.67-2.97-7.68-4.25-11.61-.63-1.95-.53-3.99.28-5.94.19-.44.32-.91.39-1.39.28-2-.46-2.81-2.39-2.28-2.02.58-3.9,1.25-6.13.74-1.81-.42-1.53,1.51-2.04,2.62-.7-.16-1.42-.35-2.14-.51-1.44-.3-2.65.05-3.51,1.37-.91,1.39-2.11,2.16-3.81,1.58-.95,0-1.9,0-2.86.05-1.58.07-2.07.72-1.58,2.25.23.7.58,1.46,1.04,2.02,2.9,3.37,4.43,7.41,5.73,11.54,2.51,7.87,5.01,15.76,7.34,23.7,2.21,7.45,3.78,15.11,6.31,22.47,3.13,9.05,6.96,17.88,10.45,26.84,1,2.58,1.86,5.22,2.76,7.85.39,1.16.65,2.41,1.16,3.53.84,1.88,1.3,2.21,2.76,1.56.02.16.07.33.09.51.56,2.62,1.58,3.78,3.92,4.46.95,3.53,1.07,3.64,4.02,3.37l-.09-.02c1.35-.44,1.09-2.65,2.83-2.72-.72-1.62-1.37-3.13-2.04-4.64.16-.07.35-.14.51-.21.44,1.02.86,2.07,1.32,3.06.93,1.93,2.6,2.62,4.2,1.79,1.72-.91,1.83-2.25.46-4.27-.7-1.04-1.37-2.09-1.97-3.18-.49-.86-.88-1.44-1.3-1.79h.09l.67.09,1.93.26.51.07c.09.02.16.05.26.05l.72.09.67.09c.07,0,.14.02.19.02h.02l.09.02c-.02.46,0,.91.19,1.25.51,1.04,1.81,1.67,2.86,2.58-.35.42-.49.86-.49,1.3,0,.88.6,1.81,1.35,2.72h-.05c.88.65,1.76,1.23,2.58,1.93,3.64,3.16,5.92,7.17,7.2,11.84.56,1.97,1.42,3.62,3.69,3.69-.3,1.74.79,2.65,1.81,3.69,1.04,1.07,2.07,2.25,2.74,3.58,1.07,2.09.63,4.94,3.18,6.34-.14,1.9,1.44,2.81,2.25,4.13.46.72,1.02,1.58,1.02,2.32,0,1.76,1.04,3.09,1.86,4.34.6.97,1.35,1.67,1.32,2.95,0,1,.72,1.58,1.63,1.53,1.04-.07,1-.95.79-1.86Zm-59.94-87.43c-2.21-8.73-3.58-17.71-5.18-26.6-.84-4.71-1.3-9.52-2.11-14.25-.37-2.16-.67-4.55-1.81-6.31-2.04-3.18-2.67-6.57-2.72-10.17-.05-2.37-.26-4.55-2.09-6.29-.07-.07.05-.37.07-.53,2.44,1.69,2.67,4.34,2.88,6.92.21,2.81.81,5.48,2,8.06,2.28,4.99,4.36,10.03,6.73,14.97,3.85,8.1,7.29,16.32,8.87,25.21,1.53,8.82,3.18,17.6,4.62,26.44.77,4.71,1.21,9.5,1.79,14.25-.14.05-.28.07-.42.09-.72-1.44-1.44-2.9-2.18-4.36-4.43-8.78-8.01-17.92-10.45-27.42Zm11.28,36.24c.28-.44.53-.86.81-1.32.09.44.35.88.7,1.37.56.77,1.42,1.44,1.3,3.13-1.07-1.23-1.97-2.21-2.81-3.18Zm6.69-1.62c-.28.16-.53.35-.88.56-.07-.16-.16-.3-.21-.44.56-.16,1.11-.33,1.65-.39-.19.09-.35.19-.56.28Z"/><path class="cls-1" d="m372.06,434.51c-2.09-1.53-3.78-2.88-5.57-4.03-.75-.48-1.71-.67-2.57-.78-1.3-.17-2.71.16-3.28-1.79-.03-.09-.09-.25-.11-.25-2.42.27-3.43-2.35-5.26-3.34-2.09-1.13-4.11-2.22-6.37-1.61-.37.1-.84-.08-1.36-.14-.73-1.63-.56-3.15-.46-4.64.09-1.3.76-1.64,1.99-1.13.67.28,1.31.72,1.93,1.14,2.55,1.71,5.19,2.97,8.11,3.03,1.19.02,2.1.63,3.07,1.59,2.28,2.25,4.74,4.31,7.19,6.37.55.46,1.31.66,1.99.91,2.02.75,2.51,1.71,1.65,3.48-.25.51-.71.88-.96,1.18Z"/><path class="cls-1" d="m326.97,435.53c1.42.1,2.25.69,2.52,2.36.66,4.21,2.34,8.06,5.42,11.37,1.31,1.41,1.43,2.16,1.21,4.49,1.09-.12,1.88.28,2.07,1.56.12.82.14,1.7.48,2.45.53,1.17,1.14,2.41,2.01,3.32,1.52,1.61,1.61,1.52.52,3.18.6-.18,1.2-.35,1.88-.56.35,1.05.57,1.94.96,2.78.39.85.95,1.65,1.53,2.62-.76.59-1.47,1.15-2.22,1.73-.99-1.74-1.89-3.23-2.68-4.77-.4-.77-.69-1.37-1.63-1.71-.49-.18-.9-1.15-1.17-1.81-.84-2.02-1.92-3.84-3.25-5.66-1.63-2.25-3.49-4.39-3.83-7.49-.34-3.19-2.26-6.17-4.34-8.86-2.33-3.02-2.31-3.35.63-5,0,0-.11,0-.11,0Z"/><path class="cls-1" d="m350.68,467.13c-1.56,1.11-3.22.91-3.74-1.88-.54-2.94-1.93-5.47-4.23-7.58-1.9-1.74-1.75-2.51.36-3.45,3.05-1.36,3.64-1.06,4.1,2.58.32,2.56,1.22,4.61,3.22,6.41,1.94,1.75,1.9,2.85.29,3.93Z"/><path class="cls-1" d="m357.71,477.01c.4.38,1,.72,1.18,1.2.46,1.21.71,2.49,1.09,3.73.28.88.46,1.8-.42,2.11-1.05.37-1.72-.49-1.87-1.51-.23-1.55-1.12-2.52-2.24-3.47-.61-.51-1.22-1.29-1.45-2.03-.76-2.48-1.53-4.88-3.68-6.62-.3-.25-.38-.83-.62-1.38,1.13-.99,2.08-2.18,4.2-1.6-.08,2.85,1.22,5.18,3.18,7.3.44.48.41,1.45.62,2.28Z"/><path class="cls-1" d="m362.26,477.91c.96-1.65,2.3-1.58,3.53-1.78.63,1.88,1.2,3.61,1.77,5.34.29.87.37,1.75-.52,2.03-1,.32-1.74-.38-1.94-1.41-.34-1.72-.91-3.23-2.84-4.18Z"/><path class="cls-1" d="m343.77,423.04c-1.54-1.43-1.34-3.36-1.96-5.21,1.38-.31,2.53-.35,3.39,1,.64,1-.03,2.84-1.44,4.21Z"/><path class="cls-1" d="m346.12,469.91c.8,1.63,1.28,2.74,1.88,3.78.49.85.74,1.63-.1,2.07-.75.4-1.25-.27-1.73-.94-.74-1.04-1.56-2.02-2.55-3.3.84-.54,1.66-1.07,2.5-1.61Z"/></g><path class="cls-2" d="m265.87,663.8c-.63,2.69-1.28,5.5-1.16,8.22.37,9.12,1.14,18.2,1.67,27.3.37,6.41.98,12.84.88,19.25-.16,9.91-.86,19.85-1.32,29.79-.39,8.68-.67,17.39-1.23,26.07-.49,7.34-1.42,14.63-1.95,21.96-.46,6.66-.12,13.23,3.02,19.41.81,1.6,1.11,3.53,1.39,5.36.33,2.28-.37,4.09-2.79,4.43.51,2.09,1.07,3.97,1.39,5.9.16.88.05,1.86-.16,2.74-.35,1.35-1.21,1.9-2.55,1.23-.49-.23-.93-.51-1.37-.74-1.44-1.37-3.06-2.07-5.01-1.23-.67.53-1.28,1.11-1.95,1.65.74.26,1.51.39,2.34.46,2.37.16,4.41,1.04,6.2,2.48.84-.23,1.58-.42,2.3-.63,2.97-.86,4.48.16,4.92,3.37-2.51-.84-5.46,1.04-7.75-1.3-1.23,1.3-2.74,1.3-4.29,1.21-1.39-.09-2.83-.35-4.06.65,5.06.14,6.83,3.04,4.41,7.24-1.88-.84-3.69-2.46-6.27-.7,1.23.19,2.14.28,3.04.49,4.27.98,5.32,3.25,3.3,7.08-.93,1.74-1.39,3.51-1.09,5.53.21,1.39.95,3.09-1.07,3.97-.14.07-.02.7-.07,1.04-.07.63-.16,1.25-.26,1.93,2.81,1.6,2.86,1.88.84,4.67.23.56.53,1.14.7,1.79.26,1-.14,1.67-1.18,1.93-1.23.3-2.58-.28-3.11-1.39-.28-.6-.3-1.46-.74-1.83-1.81-1.49-1.65-3.23-.65-5.25-1.76-.35-2.88-1.14-2.62-2.95-2.41-1.72-.72-3.09.42-4.43,1.02-1.21,1.21-2.51,1.04-4.02-.19-1.69-.21-3.44-.35-5.13-.05-.51-.14-1.3-.46-1.46-1.28-.65-1.04-1.69-.93-2.74.37-3.06,1.74-5.25,5.04-5.76-1.02.05-2.04,0-3.04.16-.77.09-1.46.49-2.21.63-2.34.42-3.6-.44-3.67-2.79-.05-1.51.19-3.09.58-4.53.77-2.69,2.44-3.58,4.41-2.37,0-.05.02-.12.02-.16.37-2.07.84-4.09,1.3-6.24-.58.53-1.18,1.04-1.76,1.58-2.37,2.16-3.69,1.9-4.64-1.23-.53-1.74-.91-3.67-.72-5.46.49-4.32,1.25-8.61,2.11-12.86,1.95-9.77,3.48-19.55,2.95-29.58-.63-12.1-1.09-24.21-1.56-36.33-.49-13.23-.81-26.49-1.39-39.74-.37-8.17-.65-16.34-2.69-24.35-1.88-7.43-3.41-14.9-7.89-21.43-1.79-2.58-2.09-5.71-1.79-9.1,1.56-.16,2.95-.28,5.01-.49-3.27-1.69-4.39-4.53-5.62-7.36-2.46-5.71-2.18-11.14,1.65-16.11,2.34-3.02,3.76-6.41,4.6-10.05.86-3.76,1.79-7.48,2.44-11.24,4.55-25.33,6.76-50.84,6.73-76.59-.05-15.41.44-30.85.49-46.27.02-3.9-.28-7.94-1.32-11.65-.93-3.23-1.49-6.15-.37-9.36,1.37-3.83.33-7.36-1.69-10.66-1.72-2.79-3.37-3.51-6.55-2.88-1.93.39-3.81.98-5.71,1.46-2.53.6-4.02-.19-4.13-2.69-.26-4.92.28-9.75,3.11-14.02,1.62-2.39,3.76-4.11,6.69-4.69,4.11-.86,5.85.49,5.97,4.69.12,3.67,2.62,6.11,6.48,6.29,2.34-3.55,4.13-4.27,8.36-3.39,4.94,1.04,7.52,4.53,8.87,9.03,1.81,6.04,1.42,12.1-.44,18.06-.77,2.46-1.9,4.83-2.58,7.31-.65,2.37-1.09,4.83-1.25,7.27-.26,4.04-.21,8.08-.3,12.12-.32,12.51-.6,25.03-1,37.56-.42,12.21-1.02,24.4-1.53,36.61-.58,14.58-1.11,29.16-1.74,43.74-.26,5.87,1.79,10.59,6.01,14.7,6.34,6.13,6.57,16.76.88,23.33l-6.59,1.81c-.67-.32-1.37-.65-2.34-1.09.46-1.11.93-2.09,1.32-3.11,1.02-2.6,2.04-5.2,2.99-7.8,2.02-5.53-3.39-12.84-10.08-12.42-6.96.42-11.05,3.64-12.47,11-.51,2.81.32,5.34,2.28,7.45.84.91,1.72,1.79,2.55,2.72,1.65,1.83,1.67,3.04,0,4.81-.49.49-1.11.91-1.88,1.44,2.72-.21,3.78-1.56,3.48-4.32-.19-1.58-.81-3.2-1.58-4.6-2.07-3.67-3.25-7.41-1.58-11.54.42-1.02,1-2.09,1.81-2.81,5.11-4.67,13.86-2.39,16.16,4.09.79,2.21.37,4.32-.44,6.36-.6,1.51-1.49,2.95-2.28,4.39-.53,1-1.18,1.95-1.67,2.95-.53,1.11-1.32,2.48-.28,3.46.65.63,2.02.53,3.27.21l6.73-1.23c1.25.16,2.48.3,3.85.46-.12.97-.14,1.6-.28,2.16-1.51,5.71-3.13,11.38-4.53,17.11Z"/><path class="cls-2" d="m260.36,842.44c.26,1.02.62,2.11.81,3.22.37,2.17.82,4.34.89,6.53.05,1.5-.02,2.88.96,3.44-.2,1.18-.7,2.19-.39,2.76.72,1.33.5,2.56.34,3.9-.11.86.11,1.77.19,2.76,1.45-.19,2.51-.32,4.08-.53-1.11.92-1.94,1.35-2.36,2.03-.55.9.59,1.45.81,2.13.95,2.99,1.58,6.07,2.29,9.13.35,1.53,1.13,2.38,2.99,2.1-.17-2.06.31-4-.51-6.12-.68-1.75-.39-3.87-.52-5.83-.02-.37.18-.99.05-1.07-2.02-1.1-1.13-3.59-2.46-5.08-.61-.68-.59-1.93-.83-2.93-.29-1.19-1.14-2.72-.69-3.5.81-1.41.13-2.35-.12-3.52-.56-2.62-1.18-5.24-1.54-7.89-.4-2.94-1.23-3.38-3.99-1.54Z"/><path class="cls-2" d="m278.4,864.65c-1.36,1.06-3.04.81-4.57,1.15-.69.15-1.61.42-1.89.93-.47.85.58,1.14,1.05,1.69.9,1.05,1.57,2.31,2.19,3.56.65,1.3,1.12,2.69,1.94,3.96.87-1.53,1.06-2.89.06-4.39-.83-1.24-1.69-2.59-1.19-4.42,1.41,0,2.3.57,2.79,1.87.57,1.5,1.18,2.99,1.81,4.47.13.31.44.55.87,1.06.61-1.53.75-2.76-.02-3.92-1.09-1.66-1.74-3.39-1.15-5.49-.77-.16-1.39-.29-2-.42,0,0,.12-.05.12-.05Z"/><path class="cls-2" d="m282.29,864.09c-.21-.61-.31-1.3-.65-1.83-1.39-2.15-2.84-4.28-4.33-6.37-.3-.42-.87-.65-1.43-1.05-.39.53-.69.94-1.07,1.44-.44-.38-.85-.74-1.27-1.1,0,0,.08-.04.08-.04-1.45.94-1.11,2.02-.19,3.08,1.31,1.52,2.5,3.06,2.77,5.16.16,1.22,1.22,1.26,2.2,1.28,0,0-.12.05-.12.05.27-.58.53-1.15.66-1.43,1.24.28,2.35.53,3.46.79,0,0-.1.03-.1.03Z"/><path class="cls-2" d="m271.01,852.58c-.44-1.11-1.04-2.18-1.27-3.33-.39-1.97-.53-3.99-.8-6.13-.99-.32-1.96-.62-3.33-1.06.25,1.07.48,1.84.62,2.63.46,2.55.88,5.11,1.32,7.66.13.76.14,1.56.43,2.25.19.44.79.94,1.23.96.44.02,1.11-.43,1.3-.85.31-.67.32-1.48.45-2.23,0,0,.04.1.04.1Z"/><path class="cls-2" d="m270.97,852.47c.18.52.38,1.04.53,1.57.32,1.13,1.03,1.46,2.12,1.1,0,0-.08.04-.07.04-.15-1.66-.3-3.31-.46-4.96.1-.02.2-.03.3-.05.48,1.07.96,2.13,1.44,3.2.77-2.26-.41-4.06-.83-6.21-1.19-.22-2.36-.43-3.56-.65.21,2.19.39,4.14.57,6.07,0,0-.05-.11-.05-.11Z"/><path class="cls-2" d="m272.43,865.03c1.39-.18,1.97-.78,1.56-1.79-.83-2.01-1.72-4-2.78-5.9-.24-.43-1.23-.44-2.22-.76.5,3.38,2.03,5.84,3.44,8.45Z"/><path class="cls-2" d="m270.56,840.83c-.69.19-1.38.39-2.1.59.95,1.48,1.85,2.86,2.81,4.36,1.3.18,1.66-.78,1.88-1.85.21-1-.35-1.6-1.14-2.08-.53-.31-1.02-.68-1.51-1.03.01,0,.07,0,.07,0Z"/><path class="cls-2" d="m282.4,864.06c-.45.3-.9.6-1.28.85,1.1,1.98,2.11,3.78,3.11,5.59.15-.04.29-.08.44-.11,0-.52.11-1.07-.02-1.56-.35-1.35-.74-2.71-1.25-4.01-.13-.33-.74-.48-1.13-.71.01,0,.11-.04.11-.04Z"/><path class="cls-2" d="m202.5,254.55s0,.02-.02.05v-.05h.02Z"/><path class="cls-2" d="m219.84,169.58c-.05.72-.14,1.44-.35,2.16.07-.72.19-1.44.35-2.16Z"/><path class="cls-2" d="m281.99,168.93c-.35.53-1.46.86-2.21.81-.91-.07-1.86-.51-2.67-.97-2.86-1.6-5.8-1.83-8.91-.88-1.18.37-2.41.79-3.64.88-.74.05-1.51-.09-2.28-.23-.12-.02-.21-.02-.3-.07-1.56-.44-1.42-2.9-1.42-2.9,2.46-.19,4.97-.12,7.38-1.35-.32-1.23-.63-2.3-.95-3.53-.51.65-.86,1.07-1.32,1.67-3.3-2.16-6.85-3.53-10.66-4.23-2.83-.51-5.66-1.14-8.47-1.72-6.99-1.42-13.93-2.81-21.1-2.72-3.46.05-6.92-.37-10.33-.93-1.83-.3-3.69-1.11-5.27-2.14-2.86-1.86-3.64-6.71-1.62-10.08,1.23,1.04,2.51,2.02,3.62,3.11,3.39,3.27,7.31,5.18,12.07,5.41,4.69.23,9.38.84,14.09,1,10.52.37,20.45,3.23,30.2,6.92.23.09.42.33.6.49-.12.44-.23.84-.37,1.39,1.83-.44,3.3-.33,4.64.67,2.16,1.6,4.39,3.11,6.52,4.76.84.63,1.65,1.37,2.18,2.25.37.65.53,1.81.21,2.37Z"/><path class="cls-2" d="m188.01,98.31c-2.15.97-3.36.6-4.6-1.41-1.67.69-2.22.57-3.58-.78-1.29.82-2.91.16-3.31-1.35-.03-.12-.1-.25-.09-.37.23-2.16-.28-4.36.47-6.49.14-.4.08-1.09-.18-1.38-1.44-1.59-2.81-3.31-4.5-4.57-1.73-1.3-3.85-1.47-5.76-.08-.8.59-1.26.35-1.66-.38-.97-1.74-1.92-3.49-2.88-5.24-.64-1.16-1.25-2.35-1.97-3.46-.44-.68-.37-1.18.05-1.81,1.58-2.31,2.88-4.77,3.5-7.53.54-2.38.45-4.72-.6-6.96-.18-.38-.44-.72-.81-1.05-1.06,2.31-.4,4.73-.49,7.09-.14.09-.29.18-.43.28-.21-.35-.38-.74-.64-1.05-2.35-2.82-3.6-6.13-3.9-9.72-.35-4.19-.63-8.41-.57-12.61.09-6.23,1.27-12.28,4.14-17.88,4.11-8.01,10.66-13.2,19.17-15.8,10.62-3.25,21.16-2.84,31.31,1.85,9.33,4.31,14.88,11.82,17.33,21.69,1.56,6.31,1.72,12.72,1.05,19.15-.2,1.95-.34,3.91-.69,5.84-.51,2.78-1.67,5.3-3.52,7.47-.27.32-.61.58-1.14.77.07-1.18.2-2.36.19-3.54,0-1.17-.15-2.34-.24-3.51-.15-.03-.3-.06-.44-.09-.26.39-.58.75-.77,1.17-1.37,3.13-1.1,6.27.21,9.31.74,1.73,1.74,3.36,2.69,5,.37.63.51,1.13.12,1.82-1.5,2.67-2.94,5.38-4.41,8.08-.15.28-.34.53-.52.79-.44.66-.89.83-1.63.29-1.91-1.38-3.98-1.22-5.74.12-1.64,1.25-3.01,2.87-4.47,4.36-.47.49-.46,1.07-.22,1.75.29.79.4,1.66.47,2.5.09.97.05,1.95.06,2.93.02,1.06-.17,2.04-1.2,2.6-.77.42-1.56.83-2.26-.07-1.63,1.51-1.86,1.55-3.62.72-.99,2.06-2.39,2.52-4.56,1.49-1.76,1.53-3.2,1.77-4.64.78-1.82.94-2.99.75-4.72-.75Zm23.2-27.47c.89,0,1.77.04,2.66,0,1.76-.1,3.05-.9,3.76-2.58,1.5-3.55,1.48-7.06-.15-10.56-.69-1.47-1.94-2.16-3.49-2.22-3.63-.14-7.21.28-10.68,1.36-2.56.8-4.1,2.58-4.36,5.3-.12,1.28-.11,2.59-.02,3.88.18,2.37.69,2.96,3.02,3.6,3.03.83,6.1,1.41,9.27,1.24Zm-37.04.15c3.39.02,6.68-.6,9.89-1.61.97-.31,1.96-.71,2.19-1.87.41-2.03.51-4.09.08-6.13-.49-2.26-1.88-3.8-4.07-4.47-3.53-1.07-7.15-1.62-10.85-1.43-1.51.08-2.8.72-3.45,2.15-1.75,3.82-1.8,7.64.23,11.39.53.98,1.39,1.56,2.49,1.69,1.16.13,2.33.19,3.49.28Zm18.28,5.72c.13,0,.26,0,.4,0,.14.33.36.65.42.99.14.87.24,1.75.31,2.63.14,1.72.64,2.15,2.36,1.94.31-.04.63-.1.93-.17.99-.22,1.35-.61,1.09-1.6-.31-1.21-.68-2.45-1.31-3.51-.79-1.35-1.44-2.71-1.88-4.22-.3-1.05-.8-2.06-1.35-3-.51-.86-.94-.85-1.46.03-.53.88-1.02,1.84-1.27,2.83-.41,1.59-1.01,3.04-1.95,4.39-.81,1.16-1.31,2.47-1.22,3.91.02.36.32.93.59,1,.81.22,1.67.29,2.51.31.74.02,1.13-.43,1.17-1.2.04-.79.07-1.58.19-2.36.1-.66.32-1.3.48-1.95Z"/><path class="cls-4" d="m228.68,134.59c-.67.65-13.23,12.51-35.96,12.51s-35.29-11.86-35.96-12.51c8.38-9.91,11.4-23.31,8.24-36.1.54.51,9.15,8.82,27.72,8.82s27.18-8.31,27.72-8.82c-3.16,12.79-.14,26.19,8.24,36.1Z"/></svg>