<?xml version="1.0" encoding="UTF-8"?><svg id="Lag_1" xmlns="http://www.w3.org/2000/svg" viewBox="0 0 396.12 907.53"><defs><style>.cls-1,.cls-2,.cls-3{fill:#fff;}.cls-4{fill:red;opacity:.39;}.cls-5,.cls-6,.cls-2{opacity:.22;}.cls-6,.cls-7{fill:none;}.cls-3{opacity:.15;}</style></defs><path class="cls-3" d="m396.1,452.87v.02c.02.24.02.45-.02.62-.17.95-.62,1.57-1.22,1.93-1.24.79-3.08.45-4.15-.05-5.65-2.5-12.26-2.89-16.92-8.97-.12-.12-.24-.29-.36-.43-.07.24-.14.5-.24.74-.31.95-.57,1.88-.74,2.79-.72,3.27-.62,6.23-.05,9.02.83,4.03,2.67,7.68,4.53,11.33.1.21.21.41.31.62,3.72,7.21,7.73,14.29,11.09,21.66,4.03,8.8,3.98,13.93-4.58,15.1-.79.1-1.65.17-2.53.19-1.5.02-9.16-2.98-11.88-2.34-2.34.57-3.7.74-5.08.24-.6-.24-1.34-.6-1.91-1.17l-.17-.24c-1.03-1.24-6.3-7.94-7.56-10.57l-14.48-20.28-.14-.24-.14-.19c-7.51-10.81-15.36-22.5-19.75-31.83-.19-.45-.38-.91-.6-1.38-.64-1.53-1.45-2.98-2.15-4.48-15.58-34.07-31.85-67.9-41.32-104.47-2.19-8.42-4.01-16.99-5.39-25.74-.07,25.98.86,51.8,4.65,77.18,1.03,6.92,2.46,13.81,4.03,20.68,1.53,6.68,3.17,13.36,4.75,20.04,3.1,12.95,5.87,25.93,6.7,39.06,2.46,38.12-.1,76.56-.57,114.88-.36,27.46-1.24,54.9-1.05,82.36.1,17.61,3.63,35.36,2.24,52.8-2.48,30.87-7.83,61.55-11.4,92.38-2.89,25.05-1.48,49.86,9.38,73.17,3.63,7.78,15.36,14.82,7.97,23.38-4.63,5.34-15.94,6.2-24.41,6.68-21.73,1.29-25.55-4.29-24.43-26.7,1.36-27.7-4.06-55.54,1.22-83.26.5-2.77-.88-5.92-1.48-8.85-7.63-37.93-19.37-75.34-14.15-114.9.55-4.1-1.17-8.49-1.96-12.72-7.01-37.6-14.55-75.1-20.92-112.8-3.34-19.8-4.65-39.94-6.97-60.55-2.24.1-3.01.14-6.2.29-3.2-.14-3.96-.19-6.2-.29-2.31,20.61-3.63,40.75-6.97,60.55-6.37,37.7-13.91,75.2-20.92,112.8-.79,4.22-2.51,8.61-1.96,12.72,5.23,39.56-6.51,76.96-14.15,114.9-.6,2.93-1.98,6.08-1.48,8.85,5.27,27.72-.14,55.56,1.22,83.26,1.12,22.4-2.7,27.99-24.43,26.7-8.47-.48-19.78-1.34-24.41-6.68-7.4-8.56,4.34-15.6,7.97-23.38,10.86-23.31,12.26-48.12,9.38-73.17-3.58-30.82-8.92-61.51-11.4-92.38-1.38-17.44,2.15-35.19,2.24-52.8.19-27.46-.69-54.9-1.05-82.36-.48-38.32-3.03-76.75-.57-114.88.83-13.12,3.6-26.1,6.7-39.06,1.57-6.68,3.22-13.36,4.75-20.04,1.57-6.87,3.01-13.77,4.03-20.68,3.79-25.38,4.72-51.2,4.65-77.18-1.38,8.76-3.2,17.32-5.39,25.74-9.47,36.57-25.74,70.4-41.32,104.47-.69,1.5-1.5,2.96-2.15,4.48-.21.48-.41.93-.6,1.38-4.39,9.33-12.24,21.02-19.75,31.83l-.14.19-.14.24-14.48,20.28c-1.26,2.62-6.54,9.33-7.56,10.57l-.17.24c-.57.57-1.31.93-1.91,1.17-1.38.5-2.74.33-5.08-.24-2.72-.64-10.38,2.36-11.88,2.34-.88-.02-1.74-.1-2.53-.19-8.56-1.17-8.61-6.3-4.58-15.1,3.36-7.37,7.37-14.46,11.09-21.66.1-.21.21-.41.31-.62,1.86-3.65,3.7-7.3,4.53-11.33.57-2.79.67-5.75-.05-9.02-.17-.91-.43-1.84-.74-2.79-.1-.24-.17-.5-.24-.74-.12.14-.24.31-.36.43-4.65,6.08-11.26,6.47-16.92,8.97-1.07.5-2.91.83-4.15.05-.6-.36-1.05-.98-1.22-1.93-.05-.17-.05-.38-.02-.62v-.02c.12-1.29,1.07-3.05,2.08-3.7,12.45-7.94,18.97-24.48,36.45-25.34,3.46-.17,5.87-1.24,7.8-3.03l.31-.31c.17-.14.31-.29.48-.45.02-.05.07-.1.12-.14,1.84-2,3.29-4.25,3.84-6.27,5.77-21.09,9.78-42.63,14.6-63.99,2.41-10.62,3.77-21.76,7.54-31.8.38-1.03.79-2.03,1.24-3.03,13.96-31.83,17.63-64.63,13-98.7-.12-.88-.24-1.77-.31-2.62l-.02-.02c-3.24-28.96,6.47-43.49,34.83-53.73,8.47-3.03,16.84-6.56,25-10.47,2.72-1.31,5.27-2.86,7.56-4.6.07-.07.14-.14.21-.19,1.26-.95,2.43-1.98,3.55-3.1.17-.14.26-.21.26-.21.88-.88,1.72-1.79,2.53-2.72,8.61-10.19,11.71-23.95,8.47-37.1l-.02-.02c-1.46-5.85-4.18-11.55-8.23-16.77-6.13-7.9-9.95-22-3.7-29.11,1.03-1.19-.33-5.68-.57-8.66-1.36-16.15-.6-31.97,16.01-40.39,8.25-4.22,16.68-6.37,25-6.37s16.75,2.15,25,6.37c16.6,8.42,17.37,24.24,16.01,40.39-.24,2.98-1.6,7.47-.57,8.66,6.25,7.11,2.43,21.21-3.7,29.11-4.06,5.22-6.78,10.93-8.23,16.77l-.02.02c-3.24,13.15-.14,26.91,8.47,37.1.81.93,1.65,1.84,2.53,2.72,0,0,.1.07.26.21,1.12,1.12,2.29,2.15,3.55,3.1.07.05.14.12.21.19,2.29,1.74,4.84,3.29,7.56,4.6,8.16,3.91,16.53,7.44,25,10.47,28.37,10.24,38.08,24.76,34.83,53.73l-.02.02c-.07.86-.19,1.74-.31,2.62-4.63,34.07-.95,66.87,13,98.7.45,1,.86,2,1.24,3.03,3.77,10.04,5.13,21.19,7.54,31.8,4.82,21.35,8.83,42.9,14.6,63.99.55,2.03,2,4.27,3.84,6.27.05.05.1.1.12.14.17.17.31.31.48.45l.31.31c1.93,1.79,4.34,2.86,7.8,3.03,17.49.86,24,17.39,36.45,25.34,1,.64,1.96,2.41,2.08,3.7Z"/><path class="cls-7" d="m158.31,141.36c-.52.43-1.79,1.5-3.55,3.1"/><path class="cls-7" d="m161.11,138.42l-.02-.02"/><path class="cls-7" d="m117.23,209.26c0-.19,0-.36-.02-.55"/><path class="cls-7" d="m241.36,144.46c-1.77-1.6-3.03-2.67-3.55-3.1"/><path class="cls-7" d="m235.04,138.4l-.02.02"/><path class="cls-7" d="m278.91,208.71c-.02.19-.02.36-.02.55"/><path class="cls-7" d="m158.23,140.92c-.52.43-1.79,1.5-3.55,3.1"/><path class="cls-7" d="m161.02,137.99l-.02-.02"/><path class="cls-7" d="m117.15,208.82c0-.19,0-.36-.02-.55"/><path class="cls-7" d="m241.28,144.03c-1.77-1.6-3.03-2.67-3.55-3.1"/><path class="cls-7" d="m234.96,137.97l-.02.02"/><path class="cls-7" d="m278.83,208.27c-.02.19-.02.36-.02.55"/><path class="cls-6" d="m118.02,208.86c0-.19,0-.36-.02-.55"/><path class="cls-6" d="m279.7,208.31c-.02.19-.02.36-.02.55"/><path class="cls-2" d="m160.58,455.98c-.12,2.58-1.65,3.39-4.25,2.77-1.96-.5-3.89-1.1-5.87-1.5-3.27-.64-4.96.1-6.73,2.96-2.08,3.39-3.15,7.01-1.74,10.95,1.15,3.29.57,6.3-.38,9.61-1.07,3.82-1.38,7.97-1.36,11.98.05,15.84.55,31.71.5,47.55-.02,26.46,2.22,52.68,6.89,78.71.69,3.87,1.65,7.68,2.51,11.55.88,3.75,2.31,7.23,4.75,10.33,3.94,5.11,4.22,10.69,1.69,16.56-1.26,2.91-2.41,5.82-5.77,7.56,2.12.21,3.55.33,5.15.5.31,3.48,0,6.7-1.84,9.35-4.6,6.7-6.18,14.39-8.11,22.02-2.1,8.23-2.39,16.63-2.77,25.03-.6,13.62-.93,27.25-1.43,40.84-.48,12.45-.95,24.91-1.6,37.34-.55,10.31,1.03,20.35,3.03,30.39.88,4.37,1.67,8.78,2.17,13.22.19,1.84-.19,3.82-.74,5.61-.98,3.22-2.34,3.48-4.77,1.26-.6-.55-1.22-1.07-1.84-1.62.5,2.22.98,4.29,1.36,6.42,0,.05.02.12.02.17,2.03-1.24,3.75-.33,4.53,2.43.41,1.48.62,3.1.6,4.65-.1,2.41-1.36,3.29-3.77,2.86-.76-.14-1.48-.55-2.27-.64-1.03-.17-2.08-.12-3.13-.17,3.39.52,4.8,2.77,5.18,5.92.12,1.07.36,2.15-.95,2.82-.33.17-.43.98-.48,1.5-.14,1.74-.17,3.53-.36,5.27-.17,1.55.02,2.89,1.07,4.13,1.17,1.38,2.91,2.79.43,4.56.26,1.86-.88,2.67-2.7,3.03,1.03,2.08,1.19,3.86-.67,5.39-.45.38-.48,1.26-.79,1.88-.52,1.15-1.91,1.74-3.2,1.43-1.05-.26-1.48-.95-1.19-1.98.17-.67.48-1.26.72-1.84-2.08-2.86-2.03-3.15.86-4.8-.1-.69-.19-1.34-.26-1.98-.05-.36.07-1-.07-1.07-2.1-.91-1.34-2.65-1.1-4.08.31-2.08-.17-3.89-1.12-5.68-2.08-3.94-1-6.27,3.39-7.28.93-.21,1.86-.31,3.13-.5-2.65-1.81-4.51-.14-6.44.72-2.48-4.32-.67-7.3,4.53-7.44-1.26-1.03-2.74-.76-4.2-.67-1.57.1-3.13.1-4.39-1.24-2.36,2.41-5.39.48-7.97,1.34.45-3.29,2-4.34,5.03-3.46.76.21,1.53.41,2.39.64,1.81-1.48,3.94-2.39,6.37-2.55.83-.07,1.65-.21,2.41-.48-.69-.55-1.31-1.15-2-1.69-2.03-.86-3.67-.14-5.15,1.26-.45.24-.91.52-1.41.76-1.38.69-2.27.12-2.62-1.26-.21-.91-.36-1.91-.19-2.82.36-1.98.93-3.91,1.46-6.06-2.48-.36-3.2-2.22-2.86-4.56.29-1.88.57-3.86,1.43-5.51,3.22-6.35,3.58-13.1,3.08-19.95-.52-7.54-1.5-15.03-1.98-22.57-.57-8.92-.86-17.87-1.26-26.79-.48-10.21-1.19-20.42-1.36-30.61-.1-6.58.52-13.19.91-19.78.55-9.35,1.34-18.68,1.72-28.06.12-2.79-.55-5.68-1.22-8.45-1.41-5.89-3.08-11.71-4.63-17.58-.14-.57-.17-1.22-.29-2.22,1.41-.17,2.67-.31,3.96-.48l6.92,1.26c1.29.33,2.67.43,3.36-.21,1.07-1,.26-2.41-.29-3.55-.5-1.03-1.17-2-1.72-3.03-.81-1.48-1.72-2.96-2.34-4.51-.83-2.1-1.26-4.27-.45-6.54,2.36-6.66,11.36-8.99,16.61-4.2.83.74,1.43,1.84,1.84,2.89,1.74,4.25.52,8.09-1.6,11.86-.79,1.43-1.43,3.1-1.62,4.72-.31,2.84.79,4.22,3.58,4.44-.79-.55-1.43-.98-1.93-1.48-1.72-1.81-1.69-3.05,0-4.94.86-.95,1.77-1.86,2.62-2.79,2-2.17,2.86-4.77,2.34-7.66-1.46-7.56-5.65-10.88-12.81-11.31-6.87-.43-12.43,7.09-10.38,12.76,1,2.67,2.05,5.34,3.1,8.02.41,1.05.86,2.05,1.36,3.2-1.03.45-1.72.79-2.41,1.12l-6.78-1.86c-5.85-6.75-5.61-17.68.91-23.98,4.34-4.22,6.44-9.07,6.16-15.1-.62-14.98-1.17-29.97-1.77-44.95-.52-12.55-1.15-25.07-1.57-37.62-.43-12.88-.69-25.74-1.03-38.6-.1-4.15-.05-8.3-.33-12.45-.17-2.51-.6-5.03-1.26-7.47-.69-2.55-1.86-4.99-2.65-7.52-1.91-6.13-2.31-12.36-.45-18.56,1.38-4.63,4.03-8.21,9.11-9.28,4.34-.91,6.18-.17,8.59,3.48,3.96-.19,6.54-2.7,6.66-6.47.12-4.32,1.88-5.7,6.13-4.82,3.01.6,5.2,2.36,6.85,4.82,2.93,4.39,3.48,9.35,3.22,14.41Z"/><path class="cls-2" d="m255.44,383.75c-7.16-4.58-15.1-5.18-23.12-3.15-5.94,1.5-8.78,7.04-7.54,13.19.1.48.12.98.19,1.46.14.41.29.81.45,1.22.43,1.1,1.03,2.15,1.26,3.29,1.03,4.91,1.88,9.88,2.91,14.82,1.46,6.75-.17,12.74-4.29,18.13-1.07,1.41-2.12,2.89-3.44,4.06-4.2,3.75-8.54,7.35-12.81,11-1.96,1.67-3.98,3.24-5.8,5.06-.93.95-1.69,1.86-3.17,1.77-2.05-.1-4.15.17-5.89-1.31-3.58-2.98-7.09-5.99-10.74-8.85-5.06-4.01-9.81-8.33-13.27-13.84-2.31-3.7-3.82-7.75-3.2-12.1,1.15-7.83,2.17-15.7,4.87-23.14,2.55-7.13-1.77-13.93-8.47-15.15-6.44-1.15-12.84-.83-18.87,1.93-6.99,3.17-10.47,8.73-10.55,16.41-.05,3.22.55,6.35,1.79,9.26,1.84,4.37,3.96,8.61,5.85,12.95,1.93,4.41,5.01,7.8,8.97,10.43,1.22.81,2.51,1.57,3.79,2.29,4.44,2.55,6.92,6.37,7.35,11.5.1,1.26.31,2.55.26,3.84-.17,6.99.98,13.81,3.1,20.42,1,3.05,2.34,6.13,4.1,8.8,3.17,4.77,8.47,5.96,13.6,3.36,1.65-.83,3.29-1.93,4.49-3.32,2.03-2.39,3.72-5.08,5.49-7.68.6-.88,1.03-1.88,1.5-2.79h8.45c1.15,2,2.17,4.03,3.39,5.94,1.91,3.05,4.22,5.75,7.42,7.54,5.42,3.01,11.07,1.77,14.6-3.34,1.05-1.53,2.08-3.2,2.6-4.96,1.38-4.72,2.79-9.5,3.6-14.34.76-4.65.79-9.45,1.19-14.17.33-3.96,2.15-7.16,5.42-9.45,1.69-1.19,3.41-2.36,5.18-3.46,3.91-2.51,7.01-5.7,8.99-9.97,1.22-2.6,2.67-5.11,3.77-7.73,1.38-3.39,2.79-6.8,3.65-10.31,1.96-8.09-.76-15.53-7.09-19.61Zm-75.32,87.27c-1.62.86-2.98.86-3.86-.72-2.34-4.06-4.39-8.3-6.49-12.5-.26-.5-.17-1.17-.21-1.5.02-3.65,1.65-5.18,5.03-4.68,4.46.62,8.33,2.19,10.14,6.89,1.65,4.32-.5,10.35-4.6,12.5Zm46.4-11.21c-1.34,3.15-3.1,6.16-4.72,9.21-.21.43-.52.84-.84,1.22-1.29,1.48-2.46,1.67-4.18.69-2.79-1.53-5.25-5.92-5.2-9.19.14-3.65,3.15-8.42,6.87-9.11,1.74-.31,3.46-.93,5.2-1.05,2.15-.12,3.48.93,3.63,3.08.1,1.69-.1,3.6-.76,5.15Z"/><path class="cls-2" d="m272.41,282.31c-.36-4.15-1.62-8.06-2.5-12.07-.86-3.98-.79-8.18-1.12-12.29-.02-.29-.19-.55-.17-.83.05-.81.05-1.65.26-2.43,1.31-5.7.88-11.19-2.03-16.29-.52-.98-.86-1.79-.36-2.86.74-1.55.52-3.15-.17-4.63-.84-1.86-1.77-3.7-2.74-5.49-.81-1.55-1.72-3.05-2.39-4.18,1.5-5.22.88-9.5-1.43-13.07-.93-1.43-2.12-2.74-3.58-3.96.21-1.67.5-2.86.5-4.06-.02-4.75-2.17-8.49-5.61-11.38-2.03-1.69-3.29-3.7-4.53-6.04-2.53-4.72-6.01-8.3-11.91-7.92-.02-.74-.12-1.48-.1-2.22.17-2.82-1.05-4.89-3.08-6.54-.02-.02-.05-.05-.07-.05-.81-.69-1.67-1.34-2.58-1.88-5.87-3.58-12.14-5.99-18.85-7.2-.69-.12-1.31-.19-1.96-.19h-.02c-.14,0-.31,0-.45.02,1.88-1.57,2.12-2.96,1.96-6.42-1.29.33-2.46.76-3.63.91-.67.07-1.57.31-1.74-1.6-.07-.64.64-1.67,1.12-2.77-.26-3.17-.98-6.68-.36-9.42,1.57-1.55,2.86-2.55,4.01-4.01.79-.98,1.1-2.7.33-4.75-1.55.48-3.1.98-4.63,1.46-.93-4.15-.93-4.22.41-6.25-.02-.57-.05-1.15-.07-1.72,3.75-.33,6.97-1.79,9.3-5.08,2.17-3.03,4.32-6.11,6.47-9.16.81-1.17,1.07-2.48,1.05-3.89-.07-1.98-.07-3.96-.12-5.96-.05-3.08.19-6.11,1.48-8.97.17-.36,0-.88-.02-1.31-.48.02-1.05-.07-1.45.14-1.24.64-2.05,1.72-2.29,3.1-.36,2.31-.62,4.63-1,6.94-.48,2.91-1.41,5.63-3.55,7.75-.21.24-.5.43-1,.81.12-.57.19-.86.21-1.12,0-.72.1-1.46-.05-2.15-.1-.38-.5-.93-.86-1-.36-.1-.84.26-1.24.5-.21.12-.29.45-.5.57-.21.14-.6.31-.74.21-1.15-.81-2-.07-2.91.48-.31.19-.69.24-1.05.31-.62.1-1.24.14-1.86.26-.41.07-.79.26-1.22.31-.69.05-1.43-.1-1.91.67-.07.12-.41.14-.6.14-1.72-.07-3.41-.21-5.11-.19-.83,0-1.67.41-2.27-.5-.07-.1-.31-.1-.45-.12-.83-.21-1.67-.41-2.51-.6-.31-.07-.69-.21-.93-.1-.72.31-1.19.02-1.79-.36-.6-.33-1.48-.74-2-.52-.79.31-1.15.26-1.62-.38-.36-.48-.88-1.1-1.53-.67-.43.29-.76.95-.84,1.5-.1.79.05,1.65.1,2.65-.33-.26-.57-.43-.79-.62-2.24-2.1-3.1-4.84-3.63-7.73-.38-2.08-.5-4.2-.81-6.27-.26-1.72-.98-3.2-2.62-3.98-.38-.17-.98-.17-1.31.05-.19.12-.17.81-.05,1.19.31,1.19.84,2.34,1.07,3.53.79,3.53.43,7.13.31,10.69-.07,2.17.5,3.98,1.81,5.73,1.79,2.39,3.48,4.84,5.15,7.35,2.05,3.08,4.8,5.11,8.52,5.56.45.05.93.1,1.38.12-.1,1.12.14,2,.76,2.51.33.26.64.57.91.83.12,4.29-.02,4.63-1.72,4.25-1.22-.26-2.43-.52-3.91-.83.17,6.49,1.79,8.11,3.32,9.92.57,2.43,1.17,2.79.81,5.08-.48,2.84-.43,3.05.88,4.32.55.5.76,1,.5,2.55-1.36-.38-2.7-.72-4.03-1.12-.53-.17-1.07-.91-1.38.62-.29,1.38-.07,2.67.45,3.46.74,1.07,1.5,2.08,2.31,2.79.1.1.19.17.29.26h-.48c-.62,0-1.24.1-1.86.26-3.75.98-7.56,1.79-11.12,3.27-3.48,1.43-6.75,3.46-9.97,5.49-.26.19-.55.38-.81.57-1.84,1.48-2.86,3.6-2.72,6.27.05.79-.17,1.6-.21,2.12-1.67.17-3.27-.12-4.37.52-3.44,2.08-6.68,4.51-8.14,8.66-.55,1.65-1.57,2.82-2.89,3.94-4.84,4.18-7.9,9.21-5.92,16.41-.88.86-1.91,1.67-2.72,2.65-.52.57-.95,1.15-1.29,1.77-2.03,3.17-2.48,6.82-1.62,10.59.38,1.6.21,2.58-.48,3.79-1.31,2.27-2.6,4.53-3.77,6.85-.93,1.88-1.34,3.84-.5,5.96.21.64,0,1.67-.36,2.31-2.98,5.32-3.44,10.93-1.93,16.82.17.69.14,1.46.1,2.17-.24,3.55-.5,7.11-.79,10.66-.05.74.02,1.55-.24,2.19-1.53,3.55-2.1,7.35-2.7,11.17-.45,3.05-.38,6.08.64,8.9,1.26,3.41,1.46,6.92,1.74,10.47.21,3.2.64,6.42,2.22,9.21.91,1.62,1.26,3.27,1.45,5.06.43,3.77,1.43,7.37,3.32,10.64,2.5,4.25,6.39,5.61,10.64,3.34,2.29-1.22,4.37-2.96,6.18-4.87,2.22-2.31,4.01-5.06,5.99-7.61.91-1.15,1.84-2.29,2.79-3.41,1.05-1.24,2.39-2.31,3.2-3.7,5.58-9.66,10.47-19.68,14.77-30.06,1.26-3.08,2.77-6.11,4.6-8.85,1.77-2.6,3.79-5.01,5.82-7.44.17-.21.33-.41.5-.6.24,2.15-.12,4.13-.64,6.16-.43,1.62-.19,2.91.95,3.53.45.26.88.6,1.29.86.17,4.46-.05,4.8-2.48,4.41-1.72-.29-3.46-.55-5.58-.86.24,6.7,2.55,8.37,4.72,10.26.84,2.53,1.69,2.89,1.17,5.25-.67,2.93-.6,3.15,1.29,4.46.76.55,1.07,1.05.69,2.65-1.93-.38-3.86-.72-5.77-1.15-.74-.17-1.53-.93-1.98.64-.41,1.43-.07,2.74.67,3.55,1.05,1.12,2.15,2.15,3.32,2.89,1.84,1.19,2.27,1.98,2.03,4.96-.1,1.31-.41,2.6-.72,3.84-.43,1.74-.07,2.86.98,3.51.57.36,1.45.24,1.22,2.05-2.43,1.53-4.89-1.03-7.59-.24.17,6.89,3.94,6.3,6.7,8.4-.17,1.69-.26,3.53-.57,5.27-.6,3.32-.64,3.27,1.29,4.82.36.26.57.93,1.26,2.1-3.22-.57-5.87-1.05-8.35-1.48-.69,2.24-.29,3.7.62,4.68.91,1,1.86,2.22,2.89,2.43,2.15.48,2.55,2.89,2.7,5.42.12,1.79-.24,3.7-.55,5.49-.55,3.01-.6,3.32,1.29,4.51,1.36.88,1.36,2.03.91,3.7-3.53-.67-6.94-1.31-10.38-1.96-.84-.17-1.79-.64-2.22,1.03-.43,1.77.41,2.93,1.22,3.51,1.69,1.19,3.46,2.05,5.23,2.96.67.36,1.38.5,2.17.76-.74,4.89-1.05,9.33.07,13.84,1.12,4.6,3.67,7.04,6.01,9.64-1.26,1.03-2.62,1.46-3.22,2.79-.81,1.77-1.5,3.72-2.1,5.73-.64-.52-1.31-1.07-1.98-1.67-.67-.57-1.19-1.31-1.84-1.93-1.43-1.36-2.79-2.82-4.32-4.03-.98-.81-2.15-1.43-3.34-1.88-1.55-.57-2.7-.07-3.46,1.41-.38.76-.76,1.67-.79,2.51-.05,3.55-.29,7.13.12,10.64.41,3.6,1.79,6.89,5.3,8.78,1.26.67,1.67,1.91,1.77,3.24.1,1.38.02,2.79.31,4.13.31,1.41.79,2.84,1.5,4.1,1.26,2.22,2.67,4.37,4.18,6.44.72.98,1.69,1.93,2.77,2.43,1.41.64,2.27,1.6,2.72,2.96,1.07,3.24,2.1,6.51,3.1,9.81.52,1.67,2.91,3.86,4.44,3.91,1.69.07,4.53-1.98,5.03-3.58.98-3.2,1.91-6.39,3.08-9.52.41-1.12,1.22-2.55,2.19-2.91,2.08-.79,3.13-2.29,4.15-4.01,1-1.69,2.08-3.34,3.22-4.96,1.1-1.57,1.74-3.29,1.74-5.25,0-.88.05-1.77.1-2.67.07-1.88.69-3.41,2.53-4.34,1.74-.91,2.91-2.48,3.44-4.29.72-2.43,1.31-4.96,1.53-7.49.24-2.65,0-5.32-.02-7.99-.17-.41-.31-.81-.45-1.22-2.17-2.43-3.36-2.65-6.06-.93-1.1.69-2.1,1.5-3.03,2.36-1.29,1.22-2.46,2.58-3.72,3.84l-.41.41c-.19-.6-.33-1.19-.5-1.81-.69-2.65-1.93-3.98-3.7-4.2-.36-.05-.72-.26-1.65-.6,6.58-5.42,8.33-13.46,6.47-23.83.86-.29,1.53-.38,2.15-.72,1.53-.81,3.05-1.62,4.49-2.7.84-.6,1.69-1.67,1.38-3.41-.33-2-1.43-1.43-2.34-1.24-.93.19-1.84.38-2.77.52-2.34.41-4.68.76-6.92,1.15-1.24-3.05.86-3.2,1.41-4.65-.72-4.49-1.31-8.95-.05-13.29,4.77-2.48,5.73-4.01,4.91-7.97-2.41-.24-4.82,1.69-7.73.57.86-1.05,1.41-1.69,1.91-2.31q-.74-6.61-.29-8.95c1.98-1.38,3.79-2.43,5.46-3.91,1.12-.98,1.57-2.7.69-4.87-2.6-.02-5.13,1.93-8.11.26.79-1.12,1.34-1.91,1.77-2.53-.19-3.2-.38-6.23-.55-9.16,6.66-2.91,7.37-3.77,7.06-8.68-1.84.36-3.51.79-5.18.93-.95.07-2.24.31-2.5-1.65-.1-.69.93-1.74,1.6-2.86-.38-3.29-1.36-6.92-.48-9.76,2.24-1.6,4.06-2.65,5.73-4.15,1.15-1.03,1.55-2.77.48-4.91-2.22.5-4.46,1.03-6.63,1.5-1.34-4.27-1.31-4.37.57-6.47-.14-3.15-.48-6.2-.36-9.23v-.41h.02c.14.14.26.29.41.45l.07.07.05.05c4.41,5.3,8.52,10.76,11.07,17.44,3.79,9.95,8.68,19.37,13.88,28.61.76,1.38,1.67,2.67,2.67,3.86,1.26,1.55,2.79,2.89,4.03,4.46,1.93,2.34,3.58,4.99,5.63,7.16,1.91,1.96,4.06,3.79,6.39,5.06,4.25,2.31,8.28,1,10.59-3.34,1.34-2.51,2.31-5.32,2.91-8.11.72-3.2,1.46-6.27,2.58-9.35,1.12-3.1,1.19-6.61,1.77-9.92.38-2.19.64-4.41,1.24-6.56.84-3.01,1.29-6.01,1-9.16Zm-8.47-41.08c3.2,4.46,3.05,7.3-.64,10.66-5.54,5.03-11.67,9.11-18.56,11.67-5.61,2.05-11.24,1.48-16.25-2-5.51-3.82-10.86-7.97-16.25-12.02-.83-.64-1.62-1.5-2.12-2.46-.64-1.29.12-2.34,1.5-1.96,1,.29,1.93.93,2.86,1.46,3.01,1.69,5.89,3.6,8.99,5.06,6.13,2.93,12.45,3.44,18.73.43,6.35-3.03,12.67-6.2,18.97-9.3.88-.45,1.74-.98,2.77-1.53Zm-4.6-14.29c.36.55.67,1.12.91,1.72,1,2.46.72,3.75-1.36,5.39-3.96,3.13-8.25,5.65-12.91,7.49-4.49,1.77-9.14,2.74-14.53,2.89-5.46-.64-11.45-1.72-17.18-4.1-1.88-.79-3.41-2.05-4.56-3.84-1.67-2.62-.64-5.13,2.41-5.44,1.74-.17,3.56.1,5.32.33,2.51.33,4.94.95,7.44,1.26.07,0,.12.02.19.02.5.05,1.05.1,1.55.14.72.05,1.41.1,2.12.1h.55c3.86.05,7.71-.52,11.45-2.03,1.26-.5,2.53-1,3.79-1.48,3.63-1.36,7.3-2.62,10.93-3.94,2.41-.88,2.53-.81,3.86,1.48Zm-121.67,1.84c.1-.26.24-.52.36-.76,1.65-3.44,1.81-3.51,5.34-2.22,3.05,1.12,6.11,2.19,9.16,3.32h.02c2.27.81,4.56,1.65,6.82,2.48,3.05,1.15,6.13,1.41,9.23,1.31.67,0,1.36-.05,2.05-.1.52-.02,1.05-.07,1.6-.14.57-.05,1.15-.1,1.74-.17,2.34-.26,4.6-.93,6.9-1.24,1.69-.21,3.41-.41,5.08-.19,2.89.36,3.98,2.86,2.27,5.3-1.05,1.43-2.46,2.89-4.01,3.6-5.94,2.84-12.31,3.84-17.92,4.49-10.78-.48-19.52-4.34-27.36-10.52-1.93-1.53-2.19-2.79-1.29-5.15Zm-3.82,12.6c6.06,3.05,11.91,6.13,17.85,8.97,2.77,1.31,5.65,2.31,8.59,3.2,3.84,1.17,7.63.43,11.36-.76,4.13-1.36,7.87-3.58,11.52-5.99,1.05-.69,2.17-1.31,3.36-1.67,1.12-.33,1.77.48,1.38,1.65-.24.74-.72,1.55-1.34,2-6.11,4.6-12.02,9.5-18.47,13.58-4.68,2.98-10.14,3.05-15.34,1.05-6.61-2.55-12.5-6.49-17.87-11.26-3.89-3.48-4.1-6.2-1.05-10.76Zm10.45,82.76c-3.6.55-6.49-1.62-8.61-6.87,1.22.5,2.03.84,2.84,1.15,2.74,1.03,5.54,1.43,8.42.6,1.26-.38,2.6-.45,4.01-.67-.33,2.7-3.53,5.34-6.66,5.8Zm3.01-10.78c-8.02-.07-13.34-4.18-14.55-11.62,8.42,8.85,17.54,9.3,27.27,3.39-.88,4.87-6.2,8.3-12.72,8.23Zm27.01-31.95c-1.43,2.15-2.96,4.25-4.41,6.39-2.93,4.34-6.2,8.25-10.59,11.05-4.2,2.65-8.71,3.77-13.43,2.24-8.59-2.77-13.74-9.16-16.37-17.96-.64-2.19-.21-4.41.12-6.61.19-.05.38-.1.57-.17,1.34,1.65,2.6,3.34,3.98,4.91,1.81,2.08,3.65,4.13,5.61,6.06,3.75,3.7,8.28,4.82,13.22,3.79,5.75-1.17,10.76-3.91,15.2-7.99,2.12-1.96,4.58-3.55,7.13-5.51.31,1.72-.33,2.79-1.03,3.79Zm15.53-25.58c-.1.12-.19.21-.31.33-.07.1-.17.17-.29.26-2.22,2.22-4.51,4.44-6.75,6.66-2.15,2.15-4.29,4.25-6.32,6.51-4.7,5.32-10.24,9.33-16.84,11.67-1.1.41-2.24.67-3.29,1.19-3.46,1.84-6.73,1.19-10.04-.5-6.51-3.29-11.52-7.92-13.03-15.72-.29-1.6-.29-3.27-.45-4.91.24-.07.45-.17.69-.24,3.79,3.82,8.23,6.61,12.84,9.11,2.29,1.24,4.72,2.27,7.16,3.15,3.36,1.19,6.78.69,10-.72,5.32-2.36,10.04-5.65,14.05-10.14,2.55-2.86,5.44-5.39,8.23-8.04.57-.57,1.31-1,2-1.36.86-.45,1.62-.21,2.19.38.14.14.26.31.38.48.02.02.02.05.02.07-.12.62-.19,1.22-.24,1.81Zm-.38-38.24c-.33.52-.69,1-1.12,1.43-.07.1-.14.17-.24.26-1,1-2.17,1.72-3.51,2.12-3.44,1.05-6.89,1.98-10.38,2.82-.55.12-1.12.24-1.65.31-1.17.19-2.31.31-3.48.33-4.75.14-9.35-1.1-13.77-3.13-2.98-1.34-5.82-3.1-8.59-4.91-.57-.38-1.12-.74-1.69-1.12-1.96-1.26-2.53-2.55-2-4.37.12-.5.33-1.03.64-1.62.5-.95,1.19-1.84,1.84-2.86.88.31,1.67.55,2.41.79.1.05.17.07.26.1,4.39,1.6,8.88,3.05,13.19,4.82,3.51,1.46,7.09,1.91,10.64,1.79.24.02.45,0,.69,0,.5-.02.98-.07,1.46-.12,1.05-.07,2.08-.19,3.1-.36,2.03-.29,4.03-.84,6.08-1.12.09-.02.17-.02.26-.05.19-.02.41-.05.62-.07,1.12-.12,2.29-.17,3.39.05,2.48.55,3.22,2.65,1.84,4.91Zm-4.79-10.93c-3.63-.19-7.21-.17-10.81-.36v-.07c-4.75-.26-9.42-.95-13.98-2.93-2.74-1.22-5.44-2.58-8.02-4.18-2.39-1.53-2.94-3.63-2-5.92.55-1.34,1.48-2.29,2.67-2.67h.07c4.03.98,7.97,2.22,11.98,3.17,2.39.57,4.8,1.05,7.18,1.46,5.56.93,11.14,1.41,16.8,1.43.52.02,1.05.07,1.84.12.14,1.07.36,1.91.36,2.74.1,4.51-1.96,7.42-6.08,7.21Zm6.11-17.2c-.02.26-.07.57-.19.88-1.12-.07-2.22-.14-3.34-.19-.21-.02-.45-.05-.67-.05-1.79-.12-3.55-.24-5.32-.5-2.82-.41-5.63-1.12-8.45-1.6,0-.1,0,.1,0,0-2.7-.5-5.42-1-8.11-1.48-1.5-.26-2.82-.93-3.22-2.74-.41-1.81.26-3.34,1.31-4.65.24-.31.5-.55.79-.72h.02c2.31,1.15,4.68,2,7.11,2.7,3.96,1.12,7.99,1.79,12.05,2.53,2.08.36,4.13,1.31,6.01,2.31,1.22.64,2.17,1.69,2,3.41v.1Zm-3.53-19.37c.07,4.34,1.22,5.61,2.55,6.51-.05.1-.07.17-.12.26-.17.41-.38.81-.57,1.19-1.15,2.05-3.05,3.34-5.37,3.01-3.27-.45-6.49-1.17-9.73-1.96-.6-.17-1.24-1.05-1.48-1.74-1.38-4.27-.45-8.16,2.29-11.52,1.46-1.77,3.53-2.08,5.65-1.98,2.82.19,5.51.76,7.87,2.46,1.6,1.15,2.62,2.62,2.82,4.44-1.26-.07-2.55-1.22-3.91-.67Zm24.19-4.84c2.43-1.07,5.01-1.57,7.63-1.34,2.19.19,3.91,1.22,5.06,3.24,1.29,2.24,1.98,4.6,1.81,7.06,0,.02-.02.05,0,.07-.05.74-.14,1.48-.36,2.22-.02.02-.02.05-.02.07-.05.19-.1.36-.17.55-.21.72-.79,1.65-1.38,1.84-2.98.93-6.04,1.65-9.07,2.43-3.36-.05-5.54-1.65-6.85-4.72-.1-.19-.17-.38-.24-.57-.05-.12-.09-.21-.12-.33.41-.41.79-.81,1.17-1.26.76-.95,1.1-2.62.48-4.7-.81-.02-1.6.33-2.41.6.41-2.27,1.88-4.01,4.46-5.15Zm-4.27,23.83c-.1-1.53.76-2.58,2-3.22,1.81-.95,3.79-1.72,5.75-2.2,2.43-.62,5.01-.64,7.42-1.31,1.46-.41,2.86-.83,4.27-1.31,2.34-.76,4.65-1.57,6.97-2.41.26-.1.5-.19.74-.24h.02c.88.36,1.55,1.24,2.05,2.79.81,2.39.02,4.34-2.12,5.18-.48.19-.98.29-1.48.38-2.74.48-5.51.95-8.25,1.43,0,.07.02-.07,0,0-2.62.41-5.25,1.05-7.85,1.46-2.19.31-4.39.45-6.58.57-.19.02-.41.02-.6.05-.12,0-.21.02-.33.02-.6.05-1.22-.07-1.81-.1-.1-.33-.14-.64-.19-.95v-.14Zm.19,7.85c5.3-.43,10.04-.74,14.77-1.22,1.12-.12,2.27-.26,3.41-.45,5.68-.83,11.26-2.31,16.8-3.91.98-.29,1.96-.6,2.93-.79h.02c1.38.38,2.48,1.48,2.98,3.01.62,1.98.14,3.72-1.6,5.15-1.03.84-2.12,1.57-3.27,2.17-6.3,3.29-12.91,5.2-19.9,5.34v.05c-2.27.05-4.53.26-6.82.38-1.34.05-2.7.19-4.01,0-3.27-.43-4.79-1.96-5.3-5.37-.21-1.43-.02-2.93-.02-4.37Zm3.17,15.72c.88-.14,1.81-.12,2.72-.02.29.02.57.05.86.1.24.02.45.05.67.07,2.82.36,5.61.83,8.42,1.19.45.05.93.12,1.38.17.45.07.95.12,1.41.17.33.02.62.07.95.1h.21c2.46.1,4.91-.29,7.3-1.15,4.96-1.81,10-3.63,14.98-5.42.21-.07.41-.14.62-.21.72-.26,1.48-.48,2.29-.76.45.55.72.81.91,1.1.69,1.05,1.19,1.93,1.48,2.72v.02c.93,2.34.02,3.77-3.03,5.96-.6.43-1.22.83-1.81,1.24-5.13,3.39-10.64,5.82-16.72,6.54-1.53.17-3.1.26-4.68.21h-.1c-1.19-.02-2.36-.14-3.51-.33-.05,0-.12-.02-.17-.05-3.82-.64-7.56-1.79-11.28-2.84-1.41-.41-2.65-1.19-3.65-2.27-.1-.1-.17-.17-.24-.26-.38-.41-.69-.81-.98-1.29-1.5-2.34-.72-4.51,1.96-4.99Zm.36,45.97c-.6-.6-1.22-1.19-1.79-1.81-.21-.19-.43-.41-.62-.6,0-.64-.07-1.29-.19-1.96-.02-.21-.07-.45-.12-.67.14-.17.31-.31.48-.41.52-.41,1.19-.48,1.88-.07.93.55,1.86,1.15,2.65,1.91,2.96,2.84,5.87,5.77,8.78,8.68,4.75,4.72,10,8.54,16.56,9.9,2.53.52,4.96.36,7.37-.6,5.96-2.29,11.31-5.61,16.29-9.69.91-.76,1.81-1.48,3.24-2.65-.05,7.61-2.34,13.48-7.78,17.65-2.17,1.67-4.58,2.91-6.99,4.2-2.53,1.34-5.13,1.46-7.8.31-2.05-.88-4.22-1.46-6.32-2.34-5.32-2.22-9.78-5.82-13.86-9.95-3.96-3.96-7.85-7.94-11.79-11.93Zm43.73,65.58c-3.24-.05-6.89-2.62-7.68-5.68,1.1.07,2.19-.12,3.1.21,3.79,1.31,7.4.69,10.93-.95.29-.14.6-.21,1.05-.36-1.24,4.22-4.18,6.85-7.4,6.78Zm10.19-20.18c-.57,1.17-1.17,2.31-1.84,3.44-1.79,3.08-4.44,4.77-7.83,5.39-3.03.57-6.01.72-9.04,0-3.77-.88-6.78-3.58-8.52-7.94,9.97,6.08,19.04,5.7,27.58-2.51-.12.55-.14,1.12-.36,1.62Zm3.34-19.85c-2.31,6.89-6.32,12.31-12.76,15.63-5.15,2.65-10.21,2.46-15.27-.12-3.67-1.91-6.7-4.72-9.23-8.06-2.65-3.53-5.18-7.2-7.66-10.88-.52-.76-.72-1.79-1.07-2.72.17-.12.36-.24.5-.38,2.62,2.05,5.3,4.06,7.85,6.18,5.18,4.27,10.81,7.37,17.56,7.59,3.77.14,7.16-1.1,9.83-3.84,2.82-2.89,5.42-5.99,8.09-9.02.64-.74,1.24-1.5,2.17-2.65.64,3.17.86,5.77,0,8.28Z"/><path class="cls-2" d="m129.26,865.76c-.27,1.05-.64,2.17-.84,3.31-.38,2.23-.84,4.46-.91,6.71-.05,1.55.02,2.96-.98,3.54.2,1.21.72,2.25.4,2.83-.74,1.37-.52,2.63-.35,4.01.11.89-.11,1.81-.2,2.84-1.49-.19-2.58-.33-4.19-.54,1.14.95,2,1.38,2.43,2.08.57.92-.61,1.49-.83,2.19-.97,3.07-1.63,6.24-2.36,9.39-.36,1.57-1.16,2.45-3.08,2.16.17-2.11-.32-4.11.53-6.29.7-1.79.41-3.98.53-5.99.02-.38-.19-1.02-.05-1.1,2.08-1.13,1.16-3.69,2.53-5.22.63-.7.6-1.99.85-3.01.29-1.22,1.17-2.8.71-3.6-.83-1.45-.13-2.42.12-3.61.57-2.69,1.21-5.38,1.58-8.11.41-3.02,1.26-3.47,4.1-1.58Z"/><path class="cls-2" d="m110.72,888.58c1.39,1.09,3.12.84,4.7,1.19.7.16,1.66.43,1.95.96.48.87-.6,1.17-1.08,1.73-.92,1.08-1.61,2.38-2.25,3.66-.66,1.34-1.15,2.76-2,4.07-.9-1.57-1.09-2.97-.06-4.51.85-1.27,1.74-2.66,1.22-4.55-1.45,0-2.36.59-2.87,1.92-.59,1.55-1.21,3.08-1.86,4.6-.14.32-.45.56-.89,1.09-.63-1.57-.77-2.83.02-4.03,1.12-1.7,1.79-3.48,1.18-5.64.79-.17,1.42-.3,2.06-.43,0,0-.12-.05-.12-.05Z"/><path class="cls-2" d="m106.72,888.01c.22-.63.32-1.34.67-1.88,1.43-2.21,2.92-4.4,4.45-6.55.31-.43.89-.67,1.47-1.08.4.54.71.97,1.09,1.48.45-.39.87-.77,1.3-1.13,0,0-.08-.04-.08-.04,1.49.96,1.14,2.07.2,3.16-1.35,1.56-2.57,3.14-2.84,5.3-.16,1.25-1.26,1.3-2.26,1.32,0,0,.12.05.12.05-.28-.59-.55-1.18-.68-1.47-1.27.29-2.41.55-3.55.81l.11.03Z"/><path class="cls-2" d="m118.31,876.18c.45-1.14,1.07-2.24,1.3-3.42.4-2.02.55-4.1.82-6.3,1.02-.32,2.01-.64,3.42-1.09-.26,1.1-.49,1.89-.63,2.7-.47,2.62-.91,5.25-1.36,7.88-.13.78-.14,1.61-.45,2.31-.2.45-.81.97-1.26.99-.45.02-1.14-.44-1.34-.87-.32-.69-.32-1.52-.46-2.3l-.04.11Z"/><path class="cls-2" d="m118.36,876.07c-.18.54-.39,1.06-.54,1.61-.33,1.16-1.06,1.5-2.18,1.13,0,0,.08.04.07.04.15-1.7.31-3.4.47-5.1-.1-.02-.21-.03-.31-.05-.49,1.1-.99,2.19-1.48,3.29-.79-2.32.42-4.17.85-6.38,1.22-.22,2.42-.44,3.65-.67-.21,2.25-.4,4.25-.59,6.24,0,0,.05-.12.05-.12Z"/><path class="cls-2" d="m116.86,888.97c-1.43-.18-2.03-.8-1.6-1.84.85-2.07,1.77-4.12,2.85-6.07.24-.44,1.26-.45,2.28-.78-.51,3.47-2.09,6-3.53,8.68Z"/><path class="cls-2" d="m118.78,864.11c.71.2,1.42.4,2.16.6-.98,1.52-1.9,2.94-2.89,4.48-1.34.19-1.7-.81-1.93-1.9-.21-1.02.36-1.64,1.18-2.13.54-.32,1.05-.7,1.56-1.06-.01,0-.07,0-.07,0Z"/><path class="cls-2" d="m106.61,887.97c.46.31.93.62,1.31.87-1.13,2.03-2.16,3.89-3.2,5.74-.15-.04-.3-.08-.45-.12,0-.54-.11-1.1.02-1.61.36-1.39.76-2.78,1.28-4.12.13-.34.76-.49,1.16-.73-.01,0-.12-.04-.12-.04Z"/><path class="cls-2" d="m181.63,154.81c-1.6,1.05-3.53,1.88-5.42,2.19-3.48.57-7.06,1-10.59.95-7.37-.1-14.53,1.34-21.69,2.79-2.91.6-5.8,1.24-8.71,1.77-3.94.72-7.59,2.12-10.97,4.34-.48-.62-.81-1.05-1.34-1.72-.36,1.26-.64,2.36-.98,3.63,2.55,1.31,5.25,1.19,7.85,1.41,0,0-.24,2.48-1.93,3.01-.17.05-.36.07-.53.1-.64.12-1.29.21-1.93.17-1.26-.1-2.51-.52-3.72-.91-3.2-.98-6.23-.74-9.16.91-.86.48-1.81.93-2.74,1-.76.05-1.91-.29-2.27-.83-.36-.57-.17-1.77.21-2.43.52-.91,1.38-1.67,2.24-2.31,2.19-1.69,4.46-3.24,6.68-4.89,1.38-1.03,2.91-1.15,4.8-.69-.17-.57-.26-.98-.41-1.43.19-.17.38-.41.64-.5,10.02-3.79,20.21-6.73,31.04-7.11,4.84-.17,9.64-.79,14.48-1.03,4.89-.24,8.92-2.19,12.38-5.56,1.17-1.12,2.46-2.12,3.75-3.2,2.05,3.46,1.24,8.45-1.69,10.35Z"/><path class="cls-2" d="m102.71,329.82c-2.49-.14-4.06-1.82-5.73-3.37-1.12-1.05-2.29-2.05-3.48-3.11-.82.72-1.33,1.17-1.84,1.61-2.58,2.24-5.31,2.43-8.11.47-2.27-1.58-3.73-3.8-4.63-6.37-.65-1.86-.18-3.55,1.25-4.87,1.37-1.27,2.79-2.52,4.3-3.63,3.81-2.82,6.37-6.49,7.42-11.09,1.45-6.35,2.75-12.73,4.05-19.11,2.28-11.15,3.24-22.48,4.2-33.8,1-11.81,1.93-23.64,2.64-35.47.31-5.21-.13-10.47.05-15.69.18-5.12.6-10.24,1.16-15.33.26-2.34,1.62-3.28,4.17-3.33,1.37-.03,2.31-.36,3.34-1.36,2.48-2.4,5.55-2.86,8.8-1.8,7.08,2.29,10.44,8.45,8.51,15.65-.95,3.55-2.69,6.45-6.22,8.2-3.14,1.56-5.25,4.18-5.83,7.77-1.42,8.77-3.03,17.52-4.13,26.33-1.73,13.72-3.2,27.47-4.59,41.23-.99,9.73-1.6,19.5-2.5,29.24-.42,4.53.64,8.59,3.04,12.41,1.05,1.66,1.98,3.42,2.8,5.21.82,1.79.79,3.62-.37,5.46-.41-.06-.79-.06-1.14-.17-2.16-.7-2.33-.62-3.72,1.09-1.11,1.36-2.34,2.62-3.51,3.92l.09-.06Z"/><g class="cls-5"><path class="cls-1" d="m48.88,429.03c-.12.26-.24.5-.33.76.02-.12.05-.24.05-.38,0-.12.12-.26.29-.38Z"/><path class="cls-1" d="m47.98,444.06s-.05.02-.06,0h0s.03.01.04.02c.02,0,.02-.02.03-.03Z"/><path class="cls-1" d="m47.94,444.09s.04,0,.05.01l.04-.07s-.03.01-.06.03c-.03,0-.05.02-.06,0h0s.03.01.04.02Z"/><path class="cls-1" d="m34.23,465.77c-.69,3.38-2.63,6.11-4.67,8.78-.75.98-1.41,1.93-1.07,3.33-.32.08-.63.18-.94.25-.34.07-.68.12-1.16.19-.29,1.76-.26,3.54-.93,5.07-.62,1.45-1.95,2.61-3.24,4.23.84.56,1.55,1.11,2.32,1.51.85.43,1.56.03,1.96-.98.36-.92.56-1.9,1.03-2.76.7-1.26,1.4-2.65,2.41-3.59s.69-2.35,1.4-2.93c.89-.71,1.61-1.29,1.84-2.45.56-2.77,2.06-5.02,3.99-7.09,1.1-1.17,2.52-2.32,2.04-4.4,2.19-.38,2.96-2.04,3.55-4.07,1.73-5.94,4.1-9.36,9.17-13.36-.14.88-.13,1.57-.35,2.21-1.18,3.46-2.78,6.71-5.13,9.61-.72.89-1.32,1.95-1.75,3.02-.56,1.44-.07,2.6.97,3.41,1.46,1.15,3.16.49,3.34-1.55.28-3.23,1.92-5.92,3.31-8.7.91-1.84,2.18-3.51,3.32-5.24.65-.99,1.53-1.98.92-3.14-.6-1.16-1.66-1.93-3-1.51-1.06.33-1.5-.15-2.23-.53-1.01-.54-2.21-.68-3.34-.97-.7,1.01-1.73,1.98-2.01,3.05-1.16,4.48-4.02,7.87-6.9,11.22-1.96,2.28-2.16,2.52-2.13,5.27-1.57-.37-2.41.57-2.72,2.13Z"/><path class="cls-1" d="m104.73,333.5c-.98-.05-1.96-.05-2.94-.05-1.77.6-2.98-.19-3.94-1.62-.88-1.36-2.1-1.72-3.6-1.41-.74.17-1.45.36-2.19.52-.53-1.15-.24-3.13-2.1-2.7-2.27.52-4.2-.17-6.3-.76-1.96-.55-2.74.29-2.43,2.34.07.5.19.98.41,1.43.84,2,.93,4.1.26,6.11-1.31,4.03-2.43,8.16-4.34,11.93-7.47,14.7-12.81,30.13-16.94,46.05-1.77,6.78-3.94,13.46-6.23,20.06-1.65,4.63-3.67,9.09-5.51,13.62-.12.26-.24.5-.33.76-.05.45-.21.86-.45,1.24,0,0,0,.02-.02.05-.5.86-1.29,1.57-1.72,2.51-.64,1.38-1.36,2.65-.36,4.49-.88-.26-1.29-.45-1.72-.52-1.43-.24-2.29.1-2.72,1.69-.91,3.34-2.96,6.01-4.46,8.99-1.41,2.84-3.27,5.11-5.65,7.01-2.19,1.77-2.19,1.96-1.38,4.82-.72-.21-1.31-.38-2.27-.67-.48,1.12-1.17,2.19-1.38,3.34-.64,3.15-1.67,6.04-3.98,8.4-.41.43-.48,1.24-.64,1.86-.1.24,0,.74-.07.76-2.24.79-1.72,2.74-2.05,4.37-.17.74-.5,1.5-.93,2.15-1.72,2.65-2.72,5.54-3.41,8.54-.21.93-.29,1.84.81,1.91.91.05,1.65-.55,1.65-1.57-.02-1.31.74-2.03,1.38-3.03.81-1.29,1.88-2.65,1.88-4.46,0-.76.6-1.65,1.05-2.39.86-1.36,2.48-2.29,2.34-4.25,2.6-1.43,2.15-4.37,3.24-6.51.69-1.36,1.77-2.58,2.82-3.67,1.07-1.07,2.17-2,1.88-3.79,2.31-.07,3.22-1.77,3.77-3.79,1.31-4.8,3.65-8.92,7.4-12.17.84-.72,1.74-1.31,2.62-1.98.74-.93,1.38-1.86,1.38-2.79,0-.45-.14-.88-.52-1.34,1.1-.93,2.41-1.57,2.93-2.65.19-.36.21-.81.19-1.29l.12-.02h.02s.12-.02.19-.02l.67-.1.74-.1c.1,0,.17-.02.26-.05l.55-.07,1.96-.26.69-.1h.1c-.43.36-.84.95-1.34,1.84-.62,1.12-1.31,2.19-2.03,3.27-1.41,2.08-1.26,3.46.5,4.39,1.65.86,3.36.14,4.29-1.84.5-1.03.91-2.1,1.36-3.15.19.07.36.14.53.21-.67,1.55-1.36,3.1-2.1,4.77,1.79.07,1.53,2.34,2.93,2.79l-.12.02c3.03.29,3.17.17,4.13-3.46,2.41-.69,3.46-1.88,4.03-4.58.02-.19.07-.36.09-.52,1.5.67,1.96.33,2.84-1.6.52-1.15.79-2.43,1.19-3.63.95-2.7,1.81-5.42,2.86-8.06,3.55-9.21,7.51-18.27,10.71-27.58,2.6-7.56,4.25-15.44,6.49-23.09,2.39-8.16,4.96-16.27,7.54-24.36,1.36-4.25,2.93-8.4,5.89-11.86.5-.57.86-1.36,1.1-2.08.48-1.57,0-2.24-1.62-2.31Zm-42.32,105.98c-.12-1.74.79-2.43,1.36-3.22.36-.48.6-.95.69-1.41.29.48.57.91.83,1.36-.86,1-1.79,2-2.89,3.27Zm28.77-105.9c-1.88,1.79-2.1,4.03-2.12,6.47-.07,3.7-.72,7.18-2.82,10.45-1.17,1.81-1.48,4.27-1.86,6.49-.81,4.87-1.31,9.81-2.17,14.65-1.65,9.14-3.03,18.37-5.32,27.34-2.48,9.76-6.18,19.16-10.74,28.18-.76,1.5-1.48,3.01-2.24,4.49-.14-.02-.29-.05-.41-.1.6-4.89,1.03-9.81,1.81-14.65,1.48-9.09,3.17-18.11,4.77-27.17,1.62-9.14,5.13-17.58,9.11-25.91,2.41-5.08,4.58-10.26,6.92-15.39,1.22-2.65,1.81-5.39,2.05-8.28.21-2.65.43-5.37,2.93-7.11.05.17.14.48.07.55Z"/><path class="cls-1" d="m15.34,446.53c2.15-1.57,3.88-2.96,5.72-4.14.77-.5,1.75-.69,2.64-.8,1.33-.18,2.79.16,3.37-1.84.03-.09.09-.26.11-.26,2.49.28,3.53-2.42,5.4-3.43,2.15-1.16,4.23-2.28,6.54-1.66.38.1.87-.08,1.4-.14.75-1.67.57-3.24.47-4.76-.09-1.34-.78-1.68-2.05-1.16-.69.28-1.34.74-1.98,1.17-2.62,1.76-5.33,3.05-8.34,3.11-1.22.02-2.15.65-3.16,1.64-2.35,2.31-4.88,4.43-7.39,6.55-.56.48-1.35.67-2.04.94-2.07.78-2.57,1.76-1.69,3.58.25.52.73.91.99,1.22Z"/><path class="cls-1" d="m61.68,447.58c-1.46.1-2.32.71-2.58,2.43-.68,4.33-2.4,8.28-5.57,11.68-1.35,1.45-1.47,2.22-1.24,4.62-1.12-.12-1.93.29-2.13,1.6-.12.84-.14,1.74-.49,2.51-.55,1.2-1.18,2.47-2.07,3.41-1.56,1.65-1.66,1.56-.54,3.27-.61-.18-1.23-.36-1.93-.57-.36,1.07-.59,2-.99,2.86-.4.88-.97,1.69-1.57,2.7.78.6,1.52,1.18,2.28,1.78,1.01-1.79,1.94-3.32,2.75-4.9.41-.79.71-1.41,1.67-1.76.5-.18.92-1.18,1.21-1.86.86-2.08,1.98-3.95,3.34-5.82,1.68-2.31,3.59-4.51,3.94-7.7.35-3.27,2.32-6.34,4.46-9.11,2.39-3.11,2.37-3.44-.65-5.13,0,0,.11-.01.11-.01Z"/><path class="cls-1" d="m37.31,480.06c1.61,1.14,3.31.93,3.84-1.94.56-3.02,1.99-5.62,4.35-7.79,1.95-1.79,1.79-2.58-.37-3.55-3.14-1.4-3.74-1.09-4.21,2.65-.33,2.63-1.26,4.73-3.31,6.58-2,1.8-1.96,2.93-.3,4.04Z"/><path class="cls-1" d="m30.09,490.22c-.41.39-1.03.74-1.22,1.23-.48,1.25-.72,2.56-1.12,3.83-.28.91-.47,1.85.43,2.17,1.08.38,1.76-.5,1.92-1.55.24-1.6,1.15-2.59,2.3-3.57.62-.53,1.26-1.33,1.49-2.09.78-2.55,1.58-5.01,3.78-6.8.31-.25.39-.85.64-1.42-1.16-1.02-2.13-2.24-4.31-1.65.09,2.93-1.25,5.32-3.27,7.5-.45.49-.42,1.49-.64,2.34Z"/><path class="cls-1" d="m25.41,491.14c-.99-1.7-2.37-1.63-3.63-1.83-.64,1.93-1.24,3.71-1.82,5.49-.29.89-.38,1.8.54,2.09,1.02.32,1.79-.39,2-1.45.35-1.77.93-3.32,2.92-4.3Z"/><path class="cls-1" d="m44.41,434.75c1.58-1.47,1.38-3.45,2.01-5.35-1.42-.31-2.6-.36-3.49,1.02-.65,1.02.03,2.92,1.47,4.33Z"/><path class="cls-1" d="m41.99,482.92c-.82,1.67-1.31,2.81-1.93,3.88-.51.87-.76,1.67.1,2.13.77.41,1.29-.28,1.77-.96.76-1.07,1.6-2.08,2.62-3.39-.86-.56-1.71-1.1-2.57-1.66Z"/></g><path class="cls-2" d="m318.78,319.05c-.91,2.58-2.36,4.8-4.63,6.37-2.82,1.96-5.53,1.79-8.11-.48-.52-.43-1.03-.88-1.86-1.6-1.17,1.05-2.34,2.05-3.46,3.1-1.67,1.55-3.22,3.22-5.7,3.39-1.15-1.29-2.36-2.53-3.46-3.86-1.38-1.72-1.55-1.81-3.72-1.1-.36.12-.74.12-1.15.17-1.17-1.84-1.19-3.65-.38-5.44.84-1.79,1.77-3.55,2.82-5.22,2.41-3.79,3.46-7.87,3.05-12.41-.91-9.73-1.53-19.49-2.51-29.23-1.41-13.77-2.89-27.51-4.6-41.23-1.1-8.8-2.72-17.56-4.13-26.34-.6-3.58-2.7-6.2-5.82-7.75-3.53-1.74-5.27-4.65-6.23-8.21-1.93-7.21,1.43-13.36,8.52-15.65,3.24-1.05,6.32-.6,8.8,1.81,1.03.98,1.96,1.34,3.34,1.36,2.53.05,3.89.98,4.15,3.32.57,5.11.98,10.21,1.17,15.34.17,5.22-.26,10.47.05,15.7.72,11.83,1.62,23.64,2.62,35.45.98,11.33,1.93,22.64,4.2,33.81,1.31,6.37,2.6,12.76,4.06,19.11,1.05,4.6,3.63,8.28,7.42,11.09,1.5,1.1,2.93,2.34,4.29,3.63,1.43,1.31,1.91,3.01,1.26,4.87Z"/><path class="cls-1" d="m295.07,329.88l-.1-.05h.05l.05.05Z"/><g class="cls-5"><path class="cls-1" d="m349.15,429.79c-.1-.26-.21-.52-.33-.79.17.14.29.29.29.41,0,.14.02.26.05.38Z"/><path class="cls-1" d="m349.72,444.06s.05.02.06,0h0s-.03.01-.04.02c-.02,0-.02-.02-.03-.03Z"/><path class="cls-1" d="m349.75,444.09s-.04,0-.05.01l-.04-.07s.03.01.06.03c.03,0,.05.02.06,0h0s-.03.01-.04.02Z"/><path class="cls-1" d="m363.47,465.77c.69,3.38,2.63,6.11,4.67,8.78.75.98,1.41,1.93,1.07,3.33.32.08.63.18.94.25.34.07.68.12,1.16.19.29,1.76.26,3.54.93,5.07.62,1.45,1.95,2.61,3.24,4.23-.84.56-1.55,1.11-2.32,1.51-.85.43-1.56.03-1.96-.98-.36-.92-.56-1.9-1.03-2.76-.7-1.26-1.4-2.65-2.41-3.59s-.69-2.35-1.4-2.93c-.89-.71-1.61-1.29-1.84-2.45-.56-2.77-2.06-5.02-3.99-7.09-1.1-1.17-2.52-2.32-2.04-4.4-2.19-.38-2.96-2.04-3.55-4.07-1.73-5.94-4.1-9.36-9.17-13.36.14.88.13,1.57.35,2.21,1.18,3.46,2.78,6.71,5.13,9.61.72.89,1.32,1.95,1.75,3.02.56,1.44.07,2.6-.97,3.41-1.46,1.15-3.16.49-3.34-1.55-.28-3.23-1.92-5.92-3.31-8.7-.91-1.84-2.18-3.51-3.32-5.24-.65-.99-1.53-1.98-.92-3.14.6-1.16,1.66-1.93,3-1.51,1.06.33,1.5-.15,2.23-.53,1.01-.54,2.21-.68,3.34-.97.7,1.01,1.73,1.98,2.01,3.05,1.16,4.48,4.02,7.87,6.9,11.22,1.96,2.28,2.16,2.52,2.13,5.27,1.57-.37,2.41.57,2.72,2.13Z"/><path class="cls-1" d="m382.41,488.81c-.69-3.01-1.72-5.89-3.44-8.54-.41-.64-.76-1.41-.93-2.15-.33-1.62.19-3.58-2.03-4.37-.07-.02,0-.52-.07-.76-.19-.62-.26-1.43-.67-1.86-2.31-2.36-3.32-5.25-3.96-8.4-.24-1.15-.93-2.22-1.38-3.34-.95.29-1.55.45-2.27.67.79-2.86.81-3.05-1.41-4.82-2.39-1.91-4.25-4.18-5.65-7.01-1.48-2.98-3.55-5.65-4.44-8.99-.43-1.6-1.31-1.93-2.74-1.69-.43.07-.83.26-1.72.52,1-1.84.29-3.1-.36-4.49-.41-.88-1.15-1.6-1.67-2.41,0-.02-.02-.02-.02-.02-.24-.41-.43-.86-.5-1.36-.1-.26-.21-.52-.33-.79-1.84-4.51-3.86-8.97-5.49-13.6-2.31-6.61-4.49-13.29-6.25-20.06-4.1-15.91-9.47-31.35-16.92-46.05-1.91-3.77-3.05-7.9-4.37-11.93-.64-2-.55-4.1.29-6.11.19-.45.33-.93.41-1.43.29-2.05-.48-2.89-2.46-2.34-2.08.6-4.01,1.29-6.3.76-1.86-.43-1.57,1.55-2.1,2.7-.72-.17-1.46-.36-2.2-.52-1.48-.31-2.72.05-3.6,1.41-.93,1.43-2.17,2.22-3.91,1.62-.98,0-1.96,0-2.93.05-1.62.07-2.12.74-1.62,2.31.24.72.6,1.5,1.07,2.08,2.98,3.46,4.56,7.61,5.89,11.86,2.58,8.09,5.15,16.2,7.54,24.36,2.27,7.66,3.89,15.53,6.49,23.09,3.22,9.3,7.16,18.37,10.74,27.58,1.03,2.65,1.91,5.37,2.84,8.06.41,1.19.67,2.48,1.19,3.63.86,1.93,1.34,2.27,2.84,1.6.02.17.07.33.1.52.57,2.7,1.62,3.89,4.03,4.58.98,3.63,1.1,3.75,4.13,3.46l-.1-.02c1.38-.45,1.12-2.72,2.91-2.79-.74-1.67-1.41-3.22-2.1-4.77.17-.07.36-.14.52-.21.45,1.05.88,2.12,1.36,3.15.95,1.98,2.67,2.7,4.32,1.84,1.77-.93,1.88-2.31.48-4.39-.72-1.07-1.41-2.15-2.03-3.27-.5-.88-.91-1.48-1.34-1.84h.1l.69.1,1.98.26.52.07c.1.02.17.05.26.05l.74.1.69.1c.07,0,.14.02.19.02h.02l.1.02c-.02.48,0,.93.19,1.29.52,1.07,1.86,1.72,2.93,2.65-.36.43-.5.88-.5,1.34,0,.91.62,1.86,1.38,2.79h-.05c.91.67,1.81,1.26,2.65,1.98,3.75,3.24,6.08,7.37,7.4,12.17.57,2.03,1.46,3.72,3.79,3.79-.31,1.79.81,2.72,1.86,3.79,1.07,1.1,2.12,2.31,2.82,3.67,1.1,2.15.64,5.08,3.27,6.51-.14,1.96,1.48,2.89,2.31,4.25.48.74,1.05,1.62,1.05,2.39,0,1.81,1.07,3.17,1.91,4.46.62,1,1.38,1.72,1.36,3.03,0,1.03.74,1.62,1.67,1.57,1.07-.07,1.03-.98.81-1.91Zm-61.6-89.85c-2.27-8.97-3.67-18.2-5.32-27.34-.86-4.84-1.34-9.78-2.17-14.65-.38-2.22-.69-4.68-1.86-6.49-2.1-3.27-2.74-6.75-2.79-10.45-.05-2.43-.26-4.68-2.15-6.47-.07-.07.05-.38.07-.55,2.51,1.74,2.74,4.46,2.96,7.11.21,2.89.84,5.63,2.05,8.28,2.34,5.13,4.49,10.31,6.92,15.39,3.96,8.33,7.49,16.77,9.11,25.91,1.57,9.07,3.27,18.08,4.75,27.17.79,4.84,1.24,9.76,1.84,14.65-.14.05-.29.07-.43.1-.74-1.48-1.48-2.98-2.24-4.49-4.56-9.02-8.23-18.42-10.74-28.18Zm11.59,37.24c.29-.45.55-.88.84-1.36.1.45.36.91.72,1.41.57.79,1.46,1.48,1.34,3.22-1.1-1.26-2.03-2.27-2.89-3.27Zm6.87-1.67c-.29.17-.55.36-.91.57-.07-.17-.17-.31-.21-.45.57-.17,1.15-.33,1.69-.41-.19.1-.36.19-.57.29Z"/><path class="cls-1" d="m382.36,446.53c-2.15-1.57-3.88-2.96-5.72-4.14-.77-.5-1.75-.69-2.64-.8-1.33-.18-2.79.16-3.37-1.84-.03-.09-.09-.26-.11-.26-2.49.28-3.53-2.42-5.4-3.43-2.15-1.16-4.23-2.28-6.54-1.66-.38.1-.87-.08-1.4-.14-.75-1.67-.57-3.24-.47-4.76.09-1.34.78-1.68,2.05-1.16.69.28,1.34.74,1.98,1.17,2.62,1.76,5.33,3.05,8.34,3.11,1.22.02,2.15.65,3.16,1.64,2.35,2.31,4.88,4.43,7.39,6.55.56.48,1.35.67,2.04.94,2.07.78,2.57,1.76,1.69,3.58-.25.52-.73.91-.99,1.22Z"/><path class="cls-1" d="m336.02,447.58c1.46.1,2.32.71,2.58,2.43.68,4.33,2.4,8.28,5.57,11.68,1.35,1.45,1.47,2.22,1.24,4.62,1.12-.12,1.93.29,2.13,1.6.12.84.14,1.74.49,2.51.55,1.2,1.18,2.47,2.07,3.41,1.56,1.65,1.66,1.56.54,3.27.61-.18,1.23-.36,1.93-.57.36,1.07.59,2,.99,2.86.4.88.97,1.69,1.57,2.7-.78.6-1.52,1.18-2.28,1.78-1.01-1.79-1.94-3.32-2.75-4.9-.41-.79-.71-1.41-1.67-1.76-.5-.18-.92-1.18-1.21-1.86-.86-2.08-1.98-3.95-3.34-5.82-1.68-2.31-3.59-4.51-3.94-7.7-.35-3.27-2.32-6.34-4.46-9.11-2.39-3.11-2.37-3.44.65-5.13,0,0-.11-.01-.11-.01Z"/><path class="cls-1" d="m360.39,480.06c-1.61,1.14-3.31.93-3.84-1.94-.56-3.02-1.99-5.62-4.35-7.79-1.95-1.79-1.79-2.58.37-3.55,3.14-1.4,3.74-1.09,4.21,2.65.33,2.63,1.26,4.73,3.31,6.58,2,1.8,1.96,2.93.3,4.04Z"/><path class="cls-1" d="m367.61,490.22c.41.39,1.03.74,1.22,1.23.48,1.25.72,2.56,1.12,3.83.28.91.47,1.85-.43,2.17-1.08.38-1.76-.5-1.92-1.55-.24-1.6-1.15-2.59-2.3-3.57-.62-.53-1.26-1.33-1.49-2.09-.78-2.55-1.58-5.01-3.78-6.8-.31-.25-.39-.85-.64-1.42,1.16-1.02,2.13-2.24,4.31-1.65-.09,2.93,1.25,5.32,3.27,7.5.45.49.42,1.49.64,2.34Z"/><path class="cls-1" d="m372.29,491.14c.99-1.7,2.37-1.63,3.63-1.83.64,1.93,1.24,3.71,1.82,5.49.29.89.38,1.8-.54,2.09-1.02.32-1.79-.39-2-1.45-.35-1.77-.93-3.32-2.92-4.3Z"/><path class="cls-1" d="m353.28,434.75c-1.58-1.47-1.38-3.45-2.01-5.35,1.42-.31,2.6-.36,3.49,1.02.65,1.02-.03,2.92-1.47,4.33Z"/><path class="cls-1" d="m355.71,482.92c.82,1.67,1.31,2.81,1.93,3.88.51.87.76,1.67-.1,2.13-.77.41-1.29-.28-1.77-.96-.76-1.07-1.6-2.08-2.62-3.39.86-.56,1.71-1.1,2.57-1.66Z"/></g><path class="cls-2" d="m273.23,682.18c-.64,2.77-1.31,5.65-1.19,8.45.38,9.38,1.17,18.7,1.72,28.06.38,6.58,1,13.19.91,19.78-.17,10.19-.88,20.4-1.36,30.61-.41,8.92-.69,17.87-1.26,26.79-.5,7.54-1.46,15.03-2,22.57-.48,6.85-.12,13.6,3.1,19.95.83,1.65,1.15,3.63,1.43,5.51.33,2.34-.38,4.2-2.86,4.56.52,2.15,1.1,4.08,1.43,6.06.17.91.05,1.91-.17,2.82-.36,1.38-1.24,1.96-2.62,1.26-.5-.24-.95-.52-1.41-.76-1.48-1.41-3.15-2.12-5.15-1.26-.69.55-1.31,1.15-2,1.69.76.26,1.55.41,2.41.48,2.43.17,4.53,1.07,6.37,2.55.86-.24,1.62-.43,2.36-.64,3.05-.88,4.6.17,5.06,3.46-2.58-.86-5.61,1.07-7.97-1.34-1.26,1.34-2.82,1.34-4.41,1.24-1.43-.1-2.91-.36-4.18.67,5.2.14,7.01,3.13,4.53,7.44-1.93-.86-3.79-2.53-6.44-.72,1.26.19,2.19.29,3.13.5,4.39,1,5.46,3.34,3.39,7.28-.95,1.79-1.43,3.6-1.12,5.68.21,1.43.98,3.17-1.1,4.08-.14.07-.02.72-.07,1.07-.07.64-.17,1.29-.26,1.98,2.89,1.65,2.93,1.93.86,4.8.24.57.55,1.17.72,1.84.26,1.03-.14,1.72-1.22,1.98-1.26.31-2.65-.29-3.2-1.43-.29-.62-.31-1.5-.76-1.88-1.86-1.53-1.69-3.32-.67-5.39-1.81-.36-2.96-1.17-2.7-3.03-2.48-1.77-.74-3.17.43-4.56,1.05-1.24,1.24-2.58,1.07-4.13-.19-1.74-.21-3.53-.36-5.27-.05-.52-.14-1.34-.48-1.5-1.31-.67-1.07-1.74-.95-2.82.38-3.15,1.79-5.39,5.18-5.92-1.05.05-2.1,0-3.13.17-.79.1-1.5.5-2.27.64-2.41.43-3.7-.45-3.77-2.86-.05-1.55.19-3.17.6-4.65.79-2.77,2.51-3.67,4.53-2.43,0-.05.02-.12.02-.17.38-2.12.86-4.2,1.34-6.42-.6.55-1.22,1.07-1.81,1.62-2.43,2.22-3.79,1.96-4.77-1.26-.55-1.79-.93-3.77-.74-5.61.5-4.44,1.29-8.85,2.17-13.22,2-10.04,3.58-20.09,3.03-30.39-.64-12.43-1.12-24.88-1.6-37.34-.5-13.6-.83-27.22-1.43-40.84-.38-8.4-.67-16.8-2.77-25.03-1.93-7.63-3.51-15.32-8.11-22.02-1.84-2.65-2.15-5.87-1.84-9.35,1.6-.17,3.03-.29,5.15-.5-3.36-1.74-4.51-4.65-5.77-7.56-2.53-5.87-2.24-11.45,1.69-16.56,2.41-3.1,3.86-6.58,4.72-10.33.88-3.86,1.84-7.68,2.51-11.55,4.68-26.03,6.94-52.25,6.92-78.71-.05-15.84.45-31.71.5-47.55.02-4.01-.29-8.16-1.36-11.98-.95-3.32-1.53-6.32-.38-9.61,1.41-3.94.33-7.56-1.74-10.95-1.77-2.86-3.46-3.6-6.73-2.96-1.98.41-3.91,1-5.87,1.5-2.6.62-4.13-.19-4.25-2.77-.26-5.06.29-10.02,3.2-14.41,1.67-2.46,3.86-4.22,6.87-4.82,4.22-.88,6.01.5,6.13,4.82.12,3.77,2.7,6.27,6.66,6.47,2.41-3.65,4.25-4.39,8.59-3.48,5.08,1.07,7.73,4.65,9.11,9.28,1.86,6.2,1.46,12.43-.45,18.56-.79,2.53-1.96,4.96-2.65,7.52-.67,2.43-1.12,4.96-1.29,7.47-.26,4.15-.21,8.3-.31,12.45-.33,12.86-.62,25.72-1.03,38.6-.43,12.55-1.05,25.07-1.57,37.62-.6,14.98-1.15,29.97-1.79,44.95-.26,6.04,1.84,10.88,6.18,15.1,6.51,6.3,6.75,17.23.91,23.98l-6.78,1.86c-.69-.33-1.41-.67-2.41-1.12.48-1.15.95-2.15,1.36-3.2,1.05-2.67,2.1-5.34,3.08-8.02,2.08-5.68-3.48-13.19-10.35-12.76-7.16.43-11.36,3.75-12.81,11.31-.52,2.89.33,5.49,2.34,7.66.86.93,1.77,1.84,2.62,2.79,1.69,1.88,1.72,3.13,0,4.94-.5.5-1.15.93-1.93,1.48,2.79-.21,3.89-1.6,3.58-4.44-.19-1.62-.83-3.29-1.62-4.72-2.12-3.77-3.34-7.61-1.62-11.86.43-1.05,1.03-2.15,1.86-2.89,5.25-4.8,14.24-2.46,16.6,4.2.81,2.27.38,4.44-.45,6.54-.62,1.55-1.53,3.03-2.34,4.51-.55,1.03-1.22,2-1.72,3.03-.55,1.15-1.36,2.55-.29,3.55.67.64,2.08.55,3.36.21l6.92-1.26c1.29.17,2.55.31,3.96.48-.12,1-.14,1.65-.29,2.22-1.55,5.87-3.22,11.69-4.65,17.58Z"/><path class="cls-2" d="m267.57,865.76c.27,1.05.64,2.17.84,3.31.38,2.23.84,4.46.91,6.71.05,1.55-.02,2.96.98,3.54-.2,1.21-.72,2.25-.4,2.83.74,1.37.52,2.63.35,4.01-.11.89.11,1.81.2,2.84,1.49-.19,2.58-.33,4.19-.54-1.14.95-2,1.38-2.43,2.08-.57.92.61,1.49.83,2.19.97,3.07,1.63,6.24,2.36,9.39.36,1.57,1.16,2.45,3.08,2.16-.17-2.11.32-4.11-.53-6.29-.7-1.79-.41-3.98-.53-5.99-.02-.38.19-1.02.05-1.1-2.08-1.13-1.16-3.69-2.53-5.22-.63-.7-.6-1.99-.85-3.01-.29-1.22-1.17-2.8-.71-3.6.83-1.45.13-2.42-.12-3.61-.57-2.69-1.21-5.38-1.58-8.11-.41-3.02-1.26-3.47-4.1-1.58Z"/><path class="cls-2" d="m286.11,888.58c-1.39,1.09-3.12.84-4.7,1.19-.7.16-1.66.43-1.95.96-.48.87.6,1.17,1.08,1.73.92,1.08,1.61,2.38,2.25,3.66.66,1.34,1.15,2.76,2,4.07.9-1.57,1.09-2.97.06-4.51-.85-1.27-1.74-2.66-1.22-4.55,1.45,0,2.36.59,2.87,1.92.59,1.55,1.21,3.08,1.86,4.6.14.32.45.56.89,1.09.63-1.57.77-2.83-.02-4.03-1.12-1.7-1.79-3.48-1.18-5.64-.79-.17-1.42-.3-2.06-.43,0,0,.12-.05.12-.05Z"/><path class="cls-2" d="m290.11,888.01c-.22-.63-.32-1.34-.67-1.88-1.43-2.21-2.92-4.4-4.45-6.55-.31-.43-.89-.67-1.47-1.08-.4.54-.71.97-1.09,1.48-.45-.39-.87-.77-1.3-1.13,0,0,.08-.04.08-.04-1.49.96-1.14,2.07-.2,3.16,1.35,1.56,2.57,3.14,2.84,5.3.16,1.25,1.26,1.3,2.26,1.32,0,0-.12.05-.12.05.28-.59.55-1.18.68-1.47,1.27.29,2.41.55,3.55.81l-.11.03Z"/><path class="cls-2" d="m278.51,876.18c-.45-1.14-1.07-2.24-1.3-3.42-.4-2.02-.55-4.1-.82-6.3-1.02-.32-2.01-.64-3.42-1.09.26,1.1.49,1.89.63,2.7.47,2.62.91,5.25,1.36,7.88.13.78.14,1.61.45,2.31.2.45.81.97,1.26.99.45.02,1.14-.44,1.34-.87.32-.69.32-1.52.46-2.3,0,0,.04.11.04.11Z"/><path class="cls-2" d="m278.47,876.07c.18.54.39,1.06.54,1.61.33,1.16,1.06,1.5,2.18,1.13,0,0-.08.04-.07.04-.15-1.7-.31-3.4-.47-5.1.1-.02.21-.03.31-.05.49,1.1.99,2.19,1.48,3.29.79-2.32-.42-4.17-.85-6.38-1.22-.22-2.42-.44-3.65-.67.21,2.25.4,4.25.59,6.24,0,0-.05-.12-.05-.12Z"/><path class="cls-2" d="m279.97,888.97c1.43-.18,2.03-.8,1.6-1.84-.85-2.07-1.77-4.12-2.85-6.07-.24-.44-1.26-.45-2.28-.78.51,3.47,2.09,6,3.53,8.68Z"/><path class="cls-2" d="m278.05,864.11c-.71.2-1.42.4-2.16.6.98,1.52,1.9,2.94,2.89,4.48,1.34.19,1.7-.81,1.93-1.9.21-1.02-.36-1.64-1.18-2.13-.54-.32-1.05-.7-1.56-1.06.01,0,.07,0,.07,0Z"/><path class="cls-2" d="m290.22,887.97c-.46.31-.93.62-1.31.87,1.13,2.03,2.16,3.89,3.2,5.74.15-.04.3-.08.45-.12,0-.54.11-1.1-.02-1.61-.36-1.39-.76-2.78-1.28-4.12-.13-.34-.76-.49-1.16-.73.01,0,.12-.04.12-.04Z"/><path class="cls-2" d="m208.11,261.6s0,.02-.02.05v-.05h.02Z"/><path class="cls-2" d="m225.93,174.28c-.05.74-.14,1.48-.36,2.22.07-.74.19-1.48.36-2.22Z"/><path class="cls-2" d="m289.8,173.61c-.36.55-1.5.88-2.27.83-.93-.07-1.91-.52-2.74-1-2.93-1.65-5.96-1.88-9.16-.91-1.22.38-2.48.81-3.75.91-.76.05-1.55-.1-2.34-.24-.12-.02-.21-.02-.31-.07-1.6-.45-1.46-2.98-1.46-2.98,2.53-.19,5.11-.12,7.59-1.38-.33-1.26-.64-2.36-.98-3.63-.52.67-.88,1.1-1.36,1.72-3.39-2.22-7.04-3.63-10.95-4.34-2.91-.52-5.82-1.17-8.71-1.77-7.18-1.46-14.31-2.89-21.69-2.79-3.56.05-7.11-.38-10.62-.95-1.88-.31-3.79-1.15-5.42-2.19-2.93-1.91-3.75-6.89-1.67-10.35,1.26,1.07,2.58,2.08,3.72,3.2,3.48,3.36,7.52,5.32,12.41,5.56,4.82.24,9.64.86,14.48,1.03,10.81.38,21.02,3.32,31.04,7.11.24.1.43.33.62.5-.12.45-.24.86-.38,1.43,1.88-.45,3.39-.33,4.77.69,2.22,1.65,4.51,3.2,6.7,4.89.86.64,1.69,1.41,2.24,2.31.38.67.55,1.86.21,2.43Z"/><path class="cls-2" d="m193.22,101.03c-2.21,1-3.45.62-4.72-1.45-1.72.71-2.28.58-3.68-.8-1.33.84-2.99.16-3.41-1.39-.03-.13-.1-.26-.09-.38.23-2.22-.29-4.48.48-6.67.14-.41.08-1.12-.18-1.41-1.48-1.63-2.89-3.4-4.63-4.7-1.78-1.33-3.96-1.51-5.92-.08-.82.6-1.29.36-1.7-.39-.99-1.79-1.97-3.59-2.96-5.38-.66-1.19-1.29-2.41-2.03-3.56-.45-.69-.39-1.21.05-1.86,1.62-2.38,2.96-4.9,3.6-7.73.55-2.45.47-4.85-.62-7.15-.18-.39-.45-.74-.83-1.08-1.09,2.37-.41,4.86-.5,7.28-.15.09-.3.19-.45.28-.22-.36-.39-.76-.66-1.08-2.41-2.9-3.7-6.3-4.01-9.99-.36-4.31-.65-8.64-.59-12.96.09-6.4,1.31-12.62,4.26-18.37,4.22-8.23,10.95-13.56,19.71-16.23,10.92-3.34,21.74-2.92,32.17,1.9,9.59,4.43,15.29,12.14,17.8,22.29,1.61,6.48,1.76,13.07,1.08,19.69-.21,2-.35,4.02-.71,6-.52,2.86-1.72,5.45-3.62,7.68-.28.33-.63.6-1.18.79.07-1.21.21-2.42.2-3.63,0-1.2-.16-2.41-.24-3.61-.15-.03-.3-.06-.46-.1-.27.4-.6.77-.79,1.2-1.41,3.22-1.13,6.44.21,9.57.76,1.78,1.79,3.46,2.76,5.14.38.65.53,1.16.12,1.87-1.54,2.75-3.02,5.53-4.54,8.3-.16.28-.35.55-.53.82-.45.68-.91.85-1.68.3-1.97-1.41-4.09-1.25-5.9.13-1.69,1.29-3.1,2.94-4.59,4.48-.49.5-.48,1.1-.22,1.8.3.81.41,1.7.48,2.57.09,1,.05,2.01.06,3.01.02,1.09-.18,2.1-1.24,2.67-.79.43-1.6.85-2.32-.07-1.68,1.55-1.91,1.59-3.72.74-1.01,2.11-2.46,2.59-4.69,1.54-1.81,1.57-3.29,1.82-4.77.8-1.87.96-3.08.77-4.85-.77Zm23.84-28.23c.91,0,1.82.04,2.73,0,1.81-.1,3.13-.93,3.86-2.65,1.54-3.64,1.52-7.26-.16-10.85-.71-1.52-1.99-2.22-3.59-2.28-3.73-.14-7.41.29-10.97,1.4-2.63.82-4.22,2.65-4.48,5.44-.12,1.32-.12,2.66-.02,3.98.18,2.44.71,3.04,3.1,3.69,3.11.85,6.27,1.45,9.52,1.27Zm-38.07.15c3.49.02,6.86-.61,10.17-1.65,1-.31,2.01-.73,2.25-1.92.42-2.09.53-4.2.08-6.3-.5-2.32-1.93-3.91-4.19-4.6-3.63-1.1-7.35-1.66-11.15-1.47-1.55.08-2.88.74-3.55,2.21-1.8,3.92-1.85,7.85.24,11.7.55,1.01,1.43,1.6,2.56,1.73,1.19.13,2.39.2,3.59.29Zm18.78,5.87c.14,0,.27,0,.41,0,.15.34.37.66.43,1.02.15.9.25,1.8.32,2.71.14,1.77.66,2.21,2.43,1.99.32-.04.64-.1.96-.18,1.02-.23,1.39-.63,1.12-1.65-.32-1.24-.7-2.52-1.34-3.61-.82-1.39-1.48-2.79-1.93-4.33-.31-1.07-.82-2.12-1.39-3.08-.52-.89-.96-.88-1.5.03-.54.91-1.05,1.89-1.31,2.91-.42,1.63-1.03,3.13-2,4.51-.83,1.19-1.35,2.54-1.26,4.02.02.37.32.95.61,1.03.83.22,1.72.3,2.58.32.76.02,1.17-.44,1.2-1.23.04-.81.08-1.63.2-2.43.1-.68.33-1.34.49-2.01Z"/><path class="cls-4" d="m279.38,402.62s-27.58,20.04-81.28,20.04-81.28-20.04-81.28-20.04c1.57-6.87,3.01-13.77,4.03-20.68,3.79-25.38,4.72-51.2,4.65-77.18,0,0,.93-45.97-2.15-76.3-4.06-6.23-5.87-12.72-6.08-19.21-.91-27.36,26.74-55.06,37.31-64.61.07-.07.14-.14.21-.19,1.26-.95,2.43-1.98,3.55-3.1.17-.14.26-.21.26-.21.88-.88,1.72-1.79,2.53-2.72.69.67,13.6,12.86,36.96,12.86s36.26-12.19,36.96-12.86c.81.93,1.65,1.84,2.53,2.72,0,0,.1.07.26.21,1.12,1.12,2.29,2.15,3.55,3.1.07.05.14.12.21.19,10.57,9.54,38.22,37.24,37.31,64.61-.21,6.49-2.03,12.98-6.08,19.21-3.08,30.32-2.15,76.3-2.15,76.3-.07,25.98.86,51.8,4.65,77.18,1.03,6.92,2.46,13.81,4.03,20.68Z"/></svg>